<svg width="300" height="180" viewBox="0 0 300 180" fill="none" xmlns="http://www.w3.org/2000/svg">
<path fill-rule="evenodd" clip-rule="evenodd" d="M0 30C0 46.5685 13.4315 60 30 60C46.5685 60 60 73.4314 60 90C60 106.569 73.4314 120 90 120C106.569 120 120 133.431 120 150C120 166.569 133.431 180 150 180C166.569 180 180 166.569 180 150C180 133.431 193.431 120 210 120C226.569 120 240 106.569 240 90C240 73.4314 253.431 60 270 60C286.569 60 300 46.5685 300 30C300 13.4315 286.569 0 270 0C253.431 0 240 13.4315 240 30C240 46.5685 226.569 60 210 60C193.431 60 180 46.5685 180 30C180 13.4315 166.569 0 150 0C133.431 0 120 13.4315 120 30C120 46.5685 106.569 60 90 60C73.4314 60 60 46.5685 60 30C60 13.4315 46.5685 0 30 0C13.4315 0 0 13.4315 0 30Z" fill="#C1F52F"/>
</svg>
