<svg width="141" height="121" viewBox="0 0 141 121" fill="none" xmlns="http://www.w3.org/2000/svg">
<path d="M0.385262 38.6891C-2.38028 20.5892 10.0394 3.67276 28.1253 0.90509C46.2112 -1.86258 63.1147 10.5666 65.8802 28.6665C66.0102 29.5172 66.1066 30.3652 66.1705 31.2093C68.2326 40.3997 76.3171 54.294 96.331 56.1581C98.2512 55.4825 100.261 54.9753 102.347 54.6561C120.433 51.8884 137.336 64.3176 140.102 82.4175C142.867 100.517 130.448 117.434 112.362 120.202C94.276 122.969 77.3725 110.54 74.607 92.4401C74.3058 90.469 74.1847 88.5119 74.2314 86.5856C70.8546 75.858 61.543 63.3757 41.2316 65.8278C40.2215 66.0814 39.1904 66.2898 38.1402 66.4505C20.0543 69.2182 3.15081 56.789 0.385262 38.6891Z" fill="#C1F52F"/>
</svg>
