<svg width="335" height="475" viewBox="0 0 335 475" fill="none" xmlns="http://www.w3.org/2000/svg">
<path d="M335 0H0V474.067H335V0Z" fill="white"/>
<path d="M13.512 0V474.067" stroke="#D3D2D2"/>
<path d="M59.1172 0V474.067" stroke="#D3D2D2"/>
<path d="M335 20.832H0" stroke="#D3D2D2"/>
<path d="M335 66.4365H0" stroke="#D3D2D2"/>
<path d="M335 222.958H0" stroke="#D3D2D2"/>
<path d="M335 73.1924H0" stroke="#D3D2D2"/>
<path d="M335 229.714L0 229.714" stroke="#D3D2D2"/>
<path d="M335 118.799H0" stroke="#D3D2D2"/>
<path d="M335 275.319L0 275.319" stroke="#D3D2D2"/>
<path d="M335 125.555H0" stroke="#D3D2D2"/>
<path d="M335 282.075L0 282.075" stroke="#D3D2D2"/>
<path d="M335 171.723H0" stroke="#D3D2D2"/>
<path d="M335 328.244L0 328.244" stroke="#D3D2D2"/>
<path d="M335 178.48L0 178.479" stroke="#D3D2D2"/>
<path d="M335 335L0 335" stroke="#D3D2D2"/>
<path d="M65.8748 0V474.067" stroke="#D3D2D2"/>
<path d="M111.477 0V474.067" stroke="#D3D2D2"/>
<path d="M118.234 0V474.067" stroke="#D3D2D2"/>
<path d="M163.84 0V474.067" stroke="#D3D2D2"/>
<path d="M171.16 0V474.067" stroke="#D3D2D2"/>
<path d="M216.766 0V474.067" stroke="#D3D2D2"/>
<path d="M223.523 0V474.067" stroke="#D3D2D2"/>
<path d="M269.125 0V474.067" stroke="#D3D2D2"/>
<path d="M275.883 0V474.067" stroke="#D3D2D2"/>
<path d="M321.488 0V474.067" stroke="#D3D2D2"/>
<path d="M335 380.604L0 380.604" stroke="#D3D2D2"/>
<path d="M335 387.361L0 387.361" stroke="#D3D2D2"/>
<path d="M335 432.967L0 432.967" stroke="#D3D2D2"/>
<path d="M335 439.723L0 439.723" stroke="#D3D2D2"/>
<path d="M335 459.991L0 459.991" stroke="#D3D2D2"/>
<circle cx="167.497" cy="380.136" r="51.3291" fill="#04005E"/>
<circle cx="64.8413" cy="277.479" r="51.3291" fill="#04005E"/>
<circle cx="167.497" cy="174.819" r="51.3291" fill="#04005E"/>
<circle cx="270.157" cy="72.1612" r="51.3291" fill="#04005E"/>
<circle cx="270.157" cy="277.479" r="51.3291" fill="#04005E"/>
<path fill-rule="evenodd" clip-rule="evenodd" d="M116.17 277.479C116.17 305.827 93.1895 328.808 64.8408 328.808C64.6565 328.808 64.4725 328.807 64.2887 328.805L64.2887 328.811C64.4725 328.809 64.6565 328.808 64.8408 328.808C93.1895 328.808 116.17 351.789 116.17 380.137C116.17 380.321 116.169 380.505 116.167 380.688H116.173C116.171 380.505 116.17 380.321 116.17 380.137C116.17 351.789 139.15 328.808 167.499 328.808C139.15 328.808 116.17 305.827 116.17 277.479Z" fill="#04005E"/>
<path fill-rule="evenodd" clip-rule="evenodd" d="M116.17 174.819C116.17 203.168 93.1895 226.148 64.8408 226.148C64.6565 226.148 64.4725 226.147 64.2887 226.146L64.2887 226.151C64.4725 226.149 64.6565 226.148 64.8408 226.148C93.1895 226.148 116.17 249.129 116.17 277.478C116.17 277.662 116.169 277.846 116.167 278.03H116.173C116.171 277.846 116.17 277.662 116.17 277.478C116.17 249.129 139.15 226.148 167.499 226.148C139.15 226.148 116.17 203.168 116.17 174.819Z" fill="#04005E"/>
<path fill-rule="evenodd" clip-rule="evenodd" d="M218.831 174.773C218.831 203.122 195.85 226.103 167.502 226.103C167.317 226.103 167.133 226.102 166.95 226.1V226.105C167.133 226.104 167.317 226.103 167.502 226.103C195.85 226.103 218.831 249.084 218.831 277.432C218.831 277.616 218.83 277.8 218.828 277.984H218.834C218.832 277.8 218.831 277.616 218.831 277.432C218.831 249.084 241.811 226.103 270.16 226.103C241.811 226.103 218.831 203.122 218.831 174.773Z" fill="#04005E"/>
<path d="M0 21H335" stroke="#828282"/>
<path d="M0 433H335" stroke="#828282"/>
<path d="M13.5 474L13.5 0" stroke="#828282"/>
<path d="M321.5 474L321.5 0" stroke="#828282"/>
</svg>
