<svg width="335" height="475" viewBox="0 0 335 475" fill="none" xmlns="http://www.w3.org/2000/svg">
<path d="M335 0H0V474.067H335V0Z" fill="white"/>
<path d="M13.512 0V474.067" stroke="#D3D2D2"/>
<path d="M59.1172 0V474.067" stroke="#D3D2D2"/>
<path d="M335 20.832H0" stroke="#D3D2D2"/>
<path d="M335 66.4365H0" stroke="#D3D2D2"/>
<path d="M335 222.958H0" stroke="#D3D2D2"/>
<path d="M335 73.1924H0" stroke="#D3D2D2"/>
<path d="M335 229.714L0 229.714" stroke="#D3D2D2"/>
<path d="M335 118.799H0" stroke="#D3D2D2"/>
<path d="M335 275.319L0 275.319" stroke="#D3D2D2"/>
<path d="M335 125.555H0" stroke="#D3D2D2"/>
<path d="M335 282.075L0 282.075" stroke="#D3D2D2"/>
<path d="M335 171.723H0" stroke="#D3D2D2"/>
<path d="M335 328.244L0 328.244" stroke="#D3D2D2"/>
<path d="M335 178.48L0 178.479" stroke="#D3D2D2"/>
<path d="M335 335L0 335" stroke="#D3D2D2"/>
<path d="M65.8748 0V474.067" stroke="#D3D2D2"/>
<path d="M111.477 0V474.067" stroke="#D3D2D2"/>
<path d="M118.234 0V474.067" stroke="#D3D2D2"/>
<path d="M163.841 0V474.067" stroke="#D3D2D2"/>
<path d="M171.159 0V474.067" stroke="#D3D2D2"/>
<path d="M216.766 0V474.067" stroke="#D3D2D2"/>
<path d="M223.523 0V474.067" stroke="#D3D2D2"/>
<path d="M269.125 0V474.067" stroke="#D3D2D2"/>
<path d="M275.883 0V474.067" stroke="#D3D2D2"/>
<path d="M321.488 0V474.067" stroke="#D3D2D2"/>
<path d="M335 380.604L0 380.604" stroke="#D3D2D2"/>
<path d="M335 387.361L0 387.361" stroke="#D3D2D2"/>
<path d="M335 432.967L0 432.967" stroke="#D3D2D2"/>
<path d="M335 439.723L0 439.723" stroke="#D3D2D2"/>
<path d="M335 459.991L0 459.991" stroke="#D3D2D2"/>
<path fill-rule="evenodd" clip-rule="evenodd" d="M126.5 335H51.5C44.5962 335 39 340.596 39 347.5C39 347.655 38.9973 347.809 38.9919 347.963H39V372.5C39 379.404 44.5962 385 51.5 385H151.5C158.404 385 164 390.596 164 397.5V422.5C164 429.404 158.404 435 151.5 435C144.596 435 139 440.596 139 447.5C139 454.404 133.404 460 126.5 460H51.5C44.5962 460 39 454.404 39 447.5C39 440.596 33.4038 435 26.5 435C20.0655 435 14.7668 430.139 14.076 423.889H14V422.5V347.963H14.0081C14.0027 347.809 14 347.655 14 347.5C14 340.596 19.5962 335 26.5 335C33.4038 335 39 329.404 39 322.5C39 315.596 44.5962 310 51.5 310H126.5C133.404 310 139 315.596 139 322.5C139 329.404 144.596 335 151.5 335C158.404 335 164 340.596 164 347.5C164 354.404 158.404 360 151.5 360C144.596 360 139 354.404 139 347.5C139 340.596 133.404 335 126.5 335ZM126.5 410C133.404 410 139 415.596 139 422.5C139 429.404 133.404 435 126.5 435H51.5C44.5962 435 39 429.404 39 422.5C39 415.596 44.5962 410 51.5 410H126.5Z" fill="#04005E"/>
<path fill-rule="evenodd" clip-rule="evenodd" d="M208.5 310C201.596 310 196 315.608 196 322.527C196 322.732 196.005 322.936 196.014 323.138C194.77 332.652 187.713 335.033 183.918 335.06C183.827 335.061 183.738 335.06 183.651 335.058L183.5 335.053C176.596 335.053 171 340.661 171 347.58C171 354.346 176.352 359.859 183.045 360.098L183.037 360.107L183.123 360.101L183.356 360.106L183.5 360.107C183.759 360.107 184.015 360.099 184.269 360.084C188.962 360.214 196.352 362.787 196 372.633L196.008 372.625C196.005 372.719 196.003 372.814 196.001 372.908L196 373.097L196.001 373.292L196.004 373.403L196.008 373.57L196 373.561C194.985 383.043 188.529 385.816 184.561 386.132C184.211 386.103 183.857 386.088 183.5 386.088C176.596 386.088 171 391.696 171 398.614V422.74C171 429.658 176.596 435.267 183.499 435.267C183.634 435.261 183.772 435.259 183.917 435.26C187.772 435.287 194.991 437.744 196.068 447.633L196.137 447.564V447.633C196.137 454.463 201.714 460 208.592 460H283.32C290.198 460 296 454.623 296 447.793L296.001 447.633C295.653 437.708 303.13 435.268 307.658 435.238C307.937 435.257 308.217 435.267 308.5 435.267H308.57C315.441 435.229 321 429.635 321 422.74V398.614C321 391.696 315.404 386.088 308.5 386.088C308.155 386.088 307.812 386.102 307.474 386.13C303.501 385.8 297.08 383.016 296.069 373.561L295.989 373.641L295.997 373.394L296 373.097C296 372.939 295.997 372.782 295.992 372.625L296 372.633C295.648 362.787 303.038 360.214 307.73 360.084C307.985 360.099 308.241 360.107 308.5 360.107C308.627 360.107 308.751 360.105 308.877 360.101C308.906 360.103 308.935 360.105 308.963 360.107L308.955 360.098C315.648 359.859 321 354.346 321 347.58C321 340.708 315.479 335.127 308.638 335.053C308.634 335.053 308.628 335.054 308.623 335.054C308.582 335.054 308.542 335.053 308.5 335.053C308.373 335.053 308.248 335.055 308.122 335.059C304.244 334.99 297.137 332.493 296.069 322.687L295.998 322.756L296 322.62V322.527C296 315.608 290.404 310 283.5 310H208.5ZM296.072 346.223C295.8 337.252 288.68 335.031 284.345 335.025C284.201 335.035 284.055 335.042 283.909 335.047C283.773 335.051 283.637 335.053 283.5 335.053H208.637H208.5C208.22 335.053 207.942 335.044 207.666 335.026C203.133 335.076 195.722 337.538 196.069 347.42L195.998 347.35L196 347.507V347.58C197.11 357.601 204.56 360.087 208.535 360.113C208.683 360.114 208.826 360.112 208.963 360.107H283.037C283.174 360.112 283.317 360.114 283.465 360.113C287.44 360.087 294.89 357.601 296 347.58C296 347.121 296.024 346.669 296.072 346.223ZM296 422.74L296.001 422.9C294.913 432.888 287.56 435.294 283.736 435.273L283.618 435.272L283.454 435.267L283.432 435.267H283.32H208.637H208.592L208.36 435.269L208.067 435.277L207.92 435.284L207.747 435.295C203.22 435.272 195.72 432.84 196.068 422.9L195.998 422.969L195.999 422.866L196 422.74V398.753V398.614C196 398.431 195.996 398.249 195.988 398.067C195.995 387.841 204.317 385.853 208.569 386.157L208.492 386.079L208.682 386.085L208.835 386.087L208.963 386.088H283.037C283.219 386.088 283.4 386.084 283.58 386.077L283.5 386.157C287.647 385.86 295.667 387.745 296.065 397.328C296.022 397.751 296 398.18 296 398.614V422.74Z" fill="#04005E"/>
<path d="M0 21H335" stroke="#828282"/>
<path d="M0 460H335" stroke="#828282"/>
<path d="M13.5 474L13.5 0" stroke="#828282"/>
<path d="M321.5 474L321.5 0" stroke="#828282"/>
</svg>
