<svg width="1046" height="753" viewBox="0 0 1046 753" fill="none" xmlns="http://www.w3.org/2000/svg">
<path d="M47.2144 751.758V45.7993H1045.5V751.758H47.2144Z" stroke="#F5F6FF"/>
<path d="M89 12.998L89 751.998" stroke="#F5F6FF"/>
<path d="M222 12.998L222 751.998" stroke="#F5F6FF"/>
<path d="M1046 107.998L14 107.998" stroke="#F5F6FF"/>
<path d="M1046 242.998H47" stroke="#F5F6FF"/>
<path d="M1046 253.998H47" stroke="#F5F6FF" stroke-width="0.3"/>
<path d="M1046 409.998H47" stroke="#F5F6FF" stroke-width="0.3"/>
<path d="M1046 190.998H47" stroke="#F5F6FF" stroke-width="0.3"/>
<path d="M171 46L171 752" stroke="#F5F6FF" stroke-width="0.3"/>
<path d="M326 46L326 752" stroke="#F5F6FF" stroke-width="0.3"/>
<path d="M483 46L483 752" stroke="#F5F6FF" stroke-width="0.3"/>
<path d="M642 46L642 752" stroke="#F5F6FF" stroke-width="0.3"/>
<path d="M798 46L798 752" stroke="#F5F6FF" stroke-width="0.3"/>
<path d="M953 46L953 752" stroke="#F5F6FF" stroke-width="0.3"/>
<path d="M1046 346.998H47" stroke="#F5F6FF" stroke-width="0.3"/>
<path d="M1046 502.998H47" stroke="#F5F6FF" stroke-width="0.3"/>
<path d="M1046 658.998H47" stroke="#F5F6FF" stroke-width="0.3"/>
<path d="M1046 180.998H47" stroke="#F5F6FF" stroke-width="0.3"/>
<path d="M161 46L161 752" stroke="#F5F6FF" stroke-width="0.3"/>
<path d="M316 46L316 752" stroke="#F5F6FF" stroke-width="0.3"/>
<path d="M473 46L473 752" stroke="#F5F6FF" stroke-width="0.3"/>
<path d="M632 46L632 752" stroke="#F5F6FF" stroke-width="0.3"/>
<path d="M788 46L788 752" stroke="#F5F6FF" stroke-width="0.3"/>
<path d="M943 46L943 752" stroke="#F5F6FF" stroke-width="0.3"/>
<path d="M1046 336.998H47" stroke="#F5F6FF" stroke-width="0.3"/>
<path d="M1046 492.998H47" stroke="#F5F6FF" stroke-width="0.3"/>
<path d="M1046 648.998H47" stroke="#F5F6FF" stroke-width="0.3"/>
<path d="M1046 159.998H47" stroke="#F5F6FF" stroke-width="0.3"/>
<path d="M140 46L140 752" stroke="#F5F6FF" stroke-width="0.3"/>
<path d="M295 46L295 752" stroke="#F5F6FF" stroke-width="0.3"/>
<path d="M452 46L452 752" stroke="#F5F6FF" stroke-width="0.3"/>
<path d="M610 46L610 752" stroke="#F5F6FF" stroke-width="0.3"/>
<path d="M766 46L766 752" stroke="#F5F6FF" stroke-width="0.3"/>
<path d="M921 46L921 752" stroke="#F5F6FF" stroke-width="0.3"/>
<path d="M1046 315.998H47" stroke="#F5F6FF" stroke-width="0.3"/>
<path d="M1046 471.998H47" stroke="#F5F6FF" stroke-width="0.3"/>
<path d="M1046 627.998H47" stroke="#F5F6FF" stroke-width="0.3"/>
<path d="M1046 97.998H47" stroke="#F5F6FF" stroke-width="0.3"/>
<path d="M1046 138.998H47" stroke="#F5F6FF" stroke-width="0.3"/>
<path d="M120 46L120 752" stroke="#F5F6FF" stroke-width="0.3"/>
<path d="M275 46L275 752" stroke="#F5F6FF" stroke-width="0.3"/>
<path d="M431 46L431 752" stroke="#F5F6FF" stroke-width="0.3"/>
<path d="M589 46L589 752" stroke="#F5F6FF" stroke-width="0.3"/>
<path d="M745 46L745 752" stroke="#F5F6FF" stroke-width="0.3"/>
<path d="M900 46L900 752" stroke="#F5F6FF" stroke-width="0.3"/>
<path d="M1046 294.998H47" stroke="#F5F6FF" stroke-width="0.3"/>
<path d="M1046 450.998H47" stroke="#F5F6FF" stroke-width="0.3"/>
<path d="M1046 606.998H47" stroke="#F5F6FF" stroke-width="0.3"/>
<path d="M1046 76.998H47" stroke="#F5F6FF" stroke-width="0.3"/>
<path d="M1046 117.998H47" stroke="#F5F6FF" stroke-width="0.3"/>
<path d="M99 46L99 752" stroke="#F5F6FF" stroke-width="0.3"/>
<path d="M254 46L254 752" stroke="#F5F6FF" stroke-width="0.3"/>
<path d="M410 46L410 752" stroke="#F5F6FF" stroke-width="0.3"/>
<path d="M568 46L568 752" stroke="#F5F6FF" stroke-width="0.3"/>
<path d="M724 46L724 752" stroke="#F5F6FF" stroke-width="0.3"/>
<path d="M879 46L879 752" stroke="#F5F6FF" stroke-width="0.3"/>
<path d="M1046 273.998H47" stroke="#F5F6FF" stroke-width="0.3"/>
<path d="M1046 430.998H47" stroke="#F5F6FF" stroke-width="0.3"/>
<path d="M1046 586.998H47" stroke="#F5F6FF" stroke-width="0.3"/>
<path d="M1046 565.998H47" stroke="#F5F6FF" stroke-width="0.3"/>
<path d="M1046 55.998H47" stroke="#F5F6FF" stroke-width="0.3"/>
<path d="M1046 149.998H47" stroke="#F5F6FF" stroke-width="0.3"/>
<path d="M130 46L130 752" stroke="#F5F6FF" stroke-width="0.3"/>
<path d="M285 46L285 752" stroke="#F5F6FF" stroke-width="0.3"/>
<path d="M442 46L442 752" stroke="#F5F6FF" stroke-width="0.3"/>
<path d="M600 46L600 752" stroke="#F5F6FF" stroke-width="0.3"/>
<path d="M756 46L756 752" stroke="#F5F6FF" stroke-width="0.3"/>
<path d="M911 46L911 752" stroke="#F5F6FF" stroke-width="0.3"/>
<path d="M1046 305.998H47" stroke="#F5F6FF" stroke-width="0.3"/>
<path d="M1046 461.998H47" stroke="#F5F6FF" stroke-width="0.3"/>
<path d="M1046 617.998H47" stroke="#F5F6FF" stroke-width="0.3"/>
<path d="M1046 86.998H47" stroke="#F5F6FF" stroke-width="0.3"/>
<path d="M1046 128.998H47" stroke="#F5F6FF" stroke-width="0.3"/>
<path d="M109 46L109 752" stroke="#F5F6FF" stroke-width="0.3"/>
<path d="M264 46L264 752" stroke="#F5F6FF" stroke-width="0.3"/>
<path d="M420 46L420 752" stroke="#F5F6FF" stroke-width="0.3"/>
<path d="M578 46L578 752" stroke="#F5F6FF" stroke-width="0.3"/>
<path d="M734 46L734 752" stroke="#F5F6FF" stroke-width="0.3"/>
<path d="M889 46L889 752" stroke="#F5F6FF" stroke-width="0.3"/>
<path d="M1046 284.998H47" stroke="#F5F6FF" stroke-width="0.3"/>
<path d="M1046 440.998H47" stroke="#F5F6FF" stroke-width="0.3"/>
<path d="M1046 596.998H47" stroke="#F5F6FF" stroke-width="0.3"/>
<path d="M1046 65.998H47" stroke="#F5F6FF" stroke-width="0.3"/>
<path d="M1046 263.998H47" stroke="#F5F6FF"/>
<path d="M1046 211.998H47" stroke="#F5F6FF" stroke-width="0.3"/>
<path d="M191 46L191 752" stroke="#F5F6FF" stroke-width="0.3"/>
<path d="M346 46L346 752" stroke="#F5F6FF" stroke-width="0.3"/>
<path d="M504 46L504 752" stroke="#F5F6FF" stroke-width="0.3"/>
<path d="M663 46L663 752" stroke="#F5F6FF" stroke-width="0.3"/>
<path d="M819 46L819 752" stroke="#F5F6FF" stroke-width="0.3"/>
<path d="M974 46L974 752" stroke="#F5F6FF" stroke-width="0.3"/>
<path d="M1046 367.998H47" stroke="#F5F6FF" stroke-width="0.3"/>
<path d="M1046 523.998H47" stroke="#F5F6FF" stroke-width="0.3"/>
<path d="M1046 679.998H47" stroke="#F5F6FF" stroke-width="0.3"/>
<path d="M1046 201.998H47" stroke="#F5F6FF" stroke-width="0.3"/>
<path d="M181 46L181 752" stroke="#F5F6FF" stroke-width="0.3"/>
<path d="M336 46L336 752" stroke="#F5F6FF" stroke-width="0.3"/>
<path d="M493 46L493 752" stroke="#F5F6FF" stroke-width="0.3"/>
<path d="M652 46L652 752" stroke="#F5F6FF" stroke-width="0.3"/>
<path d="M808 46L808 752" stroke="#F5F6FF" stroke-width="0.3"/>
<path d="M963 46L963 752" stroke="#F5F6FF" stroke-width="0.3"/>
<path d="M1046 357.998H47" stroke="#F5F6FF" stroke-width="0.3"/>
<path d="M1046 513.998H47" stroke="#F5F6FF" stroke-width="0.3"/>
<path d="M1046 669.998H47" stroke="#F5F6FF" stroke-width="0.3"/>
<path d="M1046 232.998H47" stroke="#F5F6FF" stroke-width="0.3"/>
<path d="M212 46L212 752" stroke="#F5F6FF" stroke-width="0.3"/>
<path d="M367 46L367 752" stroke="#F5F6FF" stroke-width="0.3"/>
<path d="M525 46L525 752" stroke="#F5F6FF" stroke-width="0.3"/>
<path d="M684 46L684 752" stroke="#F5F6FF" stroke-width="0.3"/>
<path d="M840 46L840 752" stroke="#F5F6FF" stroke-width="0.3"/>
<path d="M995 46L995 752" stroke="#F5F6FF" stroke-width="0.3"/>
<path d="M1046 388.998H47" stroke="#F5F6FF" stroke-width="0.3"/>
<path d="M1046 544.998H47" stroke="#F5F6FF" stroke-width="0.3"/>
<path d="M1046 700.998H47" stroke="#F5F6FF" stroke-width="0.3"/>
<path d="M1046 731.998H47" stroke="#F5F6FF" stroke-width="0.3"/>
<path d="M68 752L68 45" stroke="#F5F6FF" stroke-width="0.3"/>
<path d="M1025 752L1025 45" stroke="#F5F6FF" stroke-width="0.3"/>
<path d="M1046 740.998H47" stroke="#F5F6FF" stroke-width="0.3"/>
<path d="M58 752L58 45" stroke="#F5F6FF" stroke-width="0.3"/>
<path d="M1015 752L1015 45" stroke="#F5F6FF" stroke-width="0.3"/>
<path d="M233 752L233 45" stroke="#F5F6FF" stroke-width="0.3"/>
<path d="M388 752L388 45" stroke="#F5F6FF" stroke-width="0.3"/>
<path d="M547 752L547 45" stroke="#F5F6FF" stroke-width="0.3"/>
<path d="M704 752L704 45" stroke="#F5F6FF" stroke-width="0.3"/>
<path d="M860 752L860 45" stroke="#F5F6FF" stroke-width="0.3"/>
<path d="M1046 221.998H47" stroke="#F5F6FF" stroke-width="0.3"/>
<path d="M202 46L202 752" stroke="#F5F6FF" stroke-width="0.3"/>
<path d="M357 46L357 752" stroke="#F5F6FF" stroke-width="0.3"/>
<path d="M515 46L515 752" stroke="#F5F6FF" stroke-width="0.3"/>
<path d="M674 46L674 752" stroke="#F5F6FF" stroke-width="0.3"/>
<path d="M830 46L830 752" stroke="#F5F6FF" stroke-width="0.3"/>
<path d="M985 46L985 752" stroke="#F5F6FF" stroke-width="0.3"/>
<path d="M1046 378.998H47" stroke="#F5F6FF" stroke-width="0.3"/>
<path d="M1046 534.998H47" stroke="#F5F6FF" stroke-width="0.3"/>
<path d="M1046 690.998H47" stroke="#F5F6FF" stroke-width="0.3"/>
<path d="M1046 721.998H47" stroke="#F5F6FF" stroke-width="0.3"/>
<path d="M78 752L78 45" stroke="#F5F6FF" stroke-width="0.3"/>
<path d="M1035 752L1035 45" stroke="#F5F6FF" stroke-width="0.3"/>
<path d="M1046 169.998H47" stroke="#F5F6FF" stroke-width="0.3"/>
<path d="M150 46L150 752" stroke="#F5F6FF" stroke-width="0.3"/>
<path d="M305 46L305 752" stroke="#F5F6FF" stroke-width="0.3"/>
<path d="M462 46L462 752" stroke="#F5F6FF" stroke-width="0.3"/>
<path d="M620 46L620 752" stroke="#F5F6FF" stroke-width="0.3"/>
<path d="M776 46L776 752" stroke="#F5F6FF" stroke-width="0.3"/>
<path d="M931 46L931 752" stroke="#F5F6FF" stroke-width="0.3"/>
<path d="M1046 325.998H47" stroke="#F5F6FF" stroke-width="0.3"/>
<path d="M1046 482.998H47" stroke="#F5F6FF" stroke-width="0.3"/>
<path d="M1046 638.998H47" stroke="#F5F6FF" stroke-width="0.3"/>
<path d="M1046 710.998L13 710.998" stroke="#F5F6FF"/>
<path d="M1046 398.998H47" stroke="#F5F6FF"/>
<path d="M1046 419.998H47" stroke="#F5F6FF"/>
<path d="M1046 554.998H47" stroke="#F5F6FF"/>
<path d="M1046 575.998L47 575.998" stroke="#F5F6FF"/>
<path d="M243 12.998L243 751.998" stroke="#F5F6FF"/>
<path d="M377.824 45.2993V752.257" stroke="#F5F6FF"/>
<path d="M398.695 45.2993V752.257" stroke="#F5F6FF"/>
<path d="M535.91 45.2993V752.257" stroke="#F5F6FF"/>
<path d="M556.796 45.2993V752.257" stroke="#F5F6FF"/>
<path d="M694.015 45.2993V752.257" stroke="#F5F6FF"/>
<path d="M714.884 45.2993V752.257" stroke="#F5F6FF"/>
<path d="M849.121 45.2993V752.257" stroke="#F5F6FF"/>
<path d="M870.004 45.2993V752.257" stroke="#F5F6FF"/>
<path d="M1004 13.998L1004 751.998" stroke="#F5F6FF"/>
<path d="M47 45.5V13.5" stroke="#F5F6FF"/>
<path d="M1045.5 63V31" stroke="#F5F6FF"/>
<path d="M47 46L13 46" stroke="#F5F6FF"/>
<path d="M47 751.761L13 751.761" stroke="#F5F6FF"/>
<path d="M58 25L79 25" stroke="#F5F6FF" stroke-width="0.5"/>
<path d="M1015 42L1036 42" stroke="#F5F6FF" stroke-width="0.5"/>
<path d="M102 25H209" stroke="#F5F6FF" stroke-width="0.5"/>
<path d="M229 25L237 25" stroke="#F5F6FF" stroke-width="0.5"/>
<path d="M89.5 25L103 22.8349L103 27.1651L89.5 25Z" fill="#F5F6FF"/>
<path d="M25.9531 46.3154L27.9531 59.3154H23.9531L25.9531 46.3154Z" fill="#F5F6FF"/>
<path d="M26 108L24 95L28 95L26 108Z" fill="#F5F6FF"/>
<path d="M222.5 24.9998L230 23.7008L230 26.2988L222.5 24.9998Z" fill="#F5F6FF"/>
<path d="M242.5 25.0002L235.75 26.2992L235.75 23.7012L242.5 25.0002Z" fill="#F5F6FF"/>
<path d="M88.75 24.9996L77.5 26.7317L77.5 23.2676L88.75 24.9996Z" fill="#F5F6FF"/>
<path d="M1045.75 41.9996L1034.5 43.7317L1034.5 40.2676L1045.75 41.9996Z" fill="#F5F6FF"/>
<path d="M25.9625 711.5L27.6946 722.75H24.2305L25.9625 711.5Z" fill="#C4C4C4"/>
<path d="M47.5 25.0004L58.75 23.2683L58.75 26.7324L47.5 25.0004Z" fill="#F5F6FF"/>
<path d="M1004.5 42.0004L1015.75 40.2683L1015.75 43.7324L1004.5 42.0004Z" fill="#F5F6FF"/>
<path d="M25.9984 751.75L24.2664 740.5L27.7305 740.5L25.9984 751.75Z" fill="#C4C4C4"/>
<path d="M222 25L208.5 27.1651L208.5 22.8349L222 25Z" fill="#F5F6FF"/>
<path d="M26 58L26 108" stroke="#F5F6FF" stroke-width="0.5"/>
<path d="M26 722L26 741" stroke="#F5F6FF" stroke-width="0.5"/>
<path d="M227.5 6.28L226.984 5.872C227.336 5.4 227.688 5.04 228.04 4.792C228.4 4.544 228.86 4.42 229.42 4.42C230.124 4.42 230.676 4.624 231.076 5.032C231.476 5.432 231.676 5.968 231.676 6.64C231.676 6.84 231.652 7.04 231.604 7.24C231.564 7.44 231.516 7.624 231.46 7.792C231.404 7.952 231.296 8.152 231.136 8.392C230.984 8.632 230.856 8.832 230.752 8.992C230.648 9.144 230.464 9.38 230.2 9.7C229.936 10.012 229.724 10.26 229.564 10.444C229.412 10.62 229.144 10.924 228.76 11.356C228.384 11.788 228.088 12.128 227.872 12.376H231.76V13H226.9V12.58C227.164 12.276 227.496 11.9 227.896 11.452C228.304 10.996 228.6 10.664 228.784 10.456C228.968 10.248 229.196 9.984 229.468 9.664C229.74 9.344 229.936 9.104 230.056 8.944C230.176 8.776 230.312 8.576 230.464 8.344C230.616 8.104 230.72 7.904 230.776 7.744C230.84 7.584 230.892 7.408 230.932 7.216C230.98 7.024 231.004 6.832 231.004 6.64C231.004 6.168 230.86 5.784 230.572 5.488C230.284 5.192 229.9 5.044 229.42 5.044C229.012 5.044 228.664 5.14 228.376 5.332C228.096 5.524 227.804 5.84 227.5 6.28ZM237.557 13L235.493 10.492L233.429 13H232.625L235.085 10L232.625 7H233.429L235.493 9.508L237.557 7H238.361L235.889 10L238.361 13H237.557Z" fill="#F5F6FF"/>
<path d="M66.824 13H66.152V10.6H62.372L62.288 10.084L66.5 4.48H66.824V9.976H68.348V10.6H66.824V13ZM66.152 5.932L63.116 9.976H66.152V5.932ZM73.5573 13L71.4933 10.492L69.4293 13H68.6253L71.0853 10L68.6253 7H69.4293L71.4933 9.508L73.5573 7H74.3613L71.8893 10L74.3613 13H73.5573Z" fill="#F5F6FF"/>
<path d="M1023.82 30H1023.15V27.6H1019.37L1019.29 27.084L1023.5 21.48H1023.82V26.976H1025.35V27.6H1023.82V30ZM1023.15 22.932L1020.12 26.976H1023.15V22.932ZM1030.56 30L1028.49 27.492L1026.43 30H1025.63L1028.09 27L1025.63 24H1026.43L1028.49 26.508L1030.56 24H1031.36L1028.89 27L1031.36 30H1030.56Z" fill="#F5F6FF"/>
<path d="M13 733.176L13 733.848L10.6 733.848L10.6 737.628L10.084 737.712L4.48 733.5L4.48 733.176L9.976 733.176L9.976 731.652L10.6 731.652L10.6 733.176L13 733.176ZM5.932 733.848L9.976 736.884L9.976 733.848L5.932 733.848ZM13 726.443L10.492 728.507L13 730.571L13 731.375L10 728.915L7 731.375L7 730.571L9.508 728.507L7 726.443L7 725.639L10 728.111L13 725.639L13 726.443Z" fill="#F5F6FF"/>
<path d="M5.044 79.556C5.044 80.212 5.304 80.724 5.824 81.092C6.344 81.452 7.228 81.632 8.476 81.632C7.756 81.24 7.396 80.544 7.396 79.544C7.396 79.272 7.448 79.012 7.552 78.764C7.648 78.508 7.8 78.268 8.008 78.044C8.208 77.812 8.5 77.628 8.884 77.492C9.26 77.356 9.7 77.288 10.204 77.288C11.132 77.288 11.86 77.544 12.388 78.056C12.916 78.56 13.18 79.136 13.18 79.784C13.18 80.664 12.876 81.3 12.268 81.692C11.66 82.084 10.584 82.28 9.04 82.28C8.112 82.28 7.332 82.212 6.7 82.076C6.068 81.932 5.592 81.728 5.272 81.464C4.952 81.2 4.732 80.916 4.612 80.612C4.484 80.308 4.42 79.952 4.42 79.544C4.42 79.136 4.484 78.784 4.612 78.488C4.74 78.192 4.98 77.868 5.332 77.516L5.836 77.936C5.308 78.408 5.044 78.948 5.044 79.556ZM10.204 81.596C10.964 81.596 11.548 81.424 11.956 81.08C12.356 80.728 12.556 80.3 12.556 79.796C12.556 79.308 12.36 78.88 11.968 78.512C11.576 78.136 10.988 77.948 10.204 77.948C9.444 77.948 8.892 78.112 8.548 78.44C8.196 78.76 8.02 79.124 8.02 79.532C8.02 79.74 8.048 79.948 8.104 80.156C8.16 80.364 8.26 80.584 8.404 80.816C8.54 81.048 8.764 81.236 9.076 81.38C9.388 81.524 9.764 81.596 10.204 81.596ZM13 71.4427L10.492 73.5067L13 75.5707L13 76.3747L10 73.9147L7 76.3747L7 75.5707L9.508 73.5067L7 71.4427L7 70.6387L10 73.1107L13 70.6387L13 71.4427Z" fill="#F5F6FF"/>
</svg>
