<svg width="335" height="475" viewBox="0 0 335 475" fill="none" xmlns="http://www.w3.org/2000/svg">
<path d="M335 0H0V474.067H335V0Z" fill="white"/>
<path d="M13.512 0V474.067" stroke="#D3D2D2"/>
<path d="M59.1172 0V474.067" stroke="#D3D2D2"/>
<path d="M335 20.832H0" stroke="#D3D2D2"/>
<path d="M335 66.4365H0" stroke="#D3D2D2"/>
<path d="M335 222.958H0" stroke="#D3D2D2"/>
<path d="M335 73.1924H0" stroke="#D3D2D2"/>
<path d="M335 229.714L0 229.714" stroke="#D3D2D2"/>
<path d="M335 118.799H0" stroke="#D3D2D2"/>
<path d="M335 275.319L0 275.319" stroke="#D3D2D2"/>
<path d="M335 125.555H0" stroke="#D3D2D2"/>
<path d="M335 282.075L0 282.075" stroke="#D3D2D2"/>
<path d="M335 171.723H0" stroke="#D3D2D2"/>
<path d="M335 328.244L0 328.244" stroke="#D3D2D2"/>
<path d="M335 178.48L0 178.479" stroke="#D3D2D2"/>
<path d="M335 335L0 335" stroke="#D3D2D2"/>
<path d="M65.8748 0V474.067" stroke="#D3D2D2"/>
<path d="M111.477 0V474.067" stroke="#D3D2D2"/>
<path d="M118.234 0V474.067" stroke="#D3D2D2"/>
<path d="M163.841 0V474.067" stroke="#D3D2D2"/>
<path d="M171.159 0V474.067" stroke="#D3D2D2"/>
<path d="M216.766 0V474.067" stroke="#D3D2D2"/>
<path d="M223.523 0V474.067" stroke="#D3D2D2"/>
<path d="M269.125 0V474.067" stroke="#D3D2D2"/>
<path d="M275.883 0V474.067" stroke="#D3D2D2"/>
<path d="M321.488 0V474.067" stroke="#D3D2D2"/>
<path d="M335 380.604L0 380.604" stroke="#D3D2D2"/>
<path d="M335 387.361L0 387.361" stroke="#D3D2D2"/>
<path d="M335 432.967L0 432.967" stroke="#D3D2D2"/>
<path d="M335 439.723L0 439.723" stroke="#D3D2D2"/>
<path d="M335 459.991L0 459.991" stroke="#D3D2D2"/>
<path fill-rule="evenodd" clip-rule="evenodd" d="M90.75 154C76.6203 154 65.1667 165.441 65.1667 179.554C65.1667 179.973 65.1759 180.389 65.1963 180.802C62.6498 200.21 48.2055 205.068 40.4383 205.123C40.2533 205.124 40.0701 205.123 39.8924 205.119L39.5833 205.109C25.4537 205.109 14 216.549 14 230.663C14 244.465 24.954 255.712 38.6525 256.201L38.6358 256.218L38.8116 256.206L39.2891 256.216L39.5833 256.218C40.1126 256.218 40.6382 256.202 41.1582 256.17C50.7612 256.436 65.8866 261.685 65.1667 281.772L65.1833 281.755C65.1759 281.948 65.1722 282.14 65.1685 282.333L65.1667 282.718L65.1685 283.115L65.1741 283.342L65.1833 283.682L65.1667 283.665C63.0902 303.008 49.8766 308.666 41.7541 309.31C41.0379 309.25 40.3143 309.219 39.5833 309.219C25.4537 309.219 14 320.66 14 334.774V383.989C14 398.103 25.4536 409.544 39.5815 409.544C39.8572 409.533 40.1404 409.528 40.4365 409.53C48.3258 409.586 63.1013 414.597 65.3055 434.772L65.448 434.631V434.772C65.448 448.705 76.8609 460 90.9388 460H243.882C257.96 460 269.833 449.032 269.833 435.098L269.835 434.772C269.123 414.525 284.426 409.547 293.694 409.486C294.264 409.524 294.837 409.544 295.417 409.544H295.559C309.622 409.466 321 398.055 321 383.989V334.774C321 320.66 309.546 309.219 295.417 309.219C294.71 309.219 294.008 309.248 293.316 309.304C285.186 308.632 272.043 302.952 269.974 283.665L269.811 283.828L269.828 283.325L269.833 282.718C269.833 282.396 269.828 282.075 269.817 281.755L269.833 281.772C269.113 261.685 284.239 256.436 293.842 256.17C294.362 256.202 294.887 256.218 295.417 256.218C295.676 256.218 295.931 256.214 296.188 256.206C296.248 256.21 296.307 256.214 296.364 256.218L296.348 256.201C310.046 255.712 321 244.465 321 230.663C321 216.644 309.7 205.259 295.7 205.109C295.691 205.109 295.679 205.11 295.668 205.11C295.585 205.11 295.502 205.109 295.417 205.109C295.158 205.109 294.9 205.112 294.643 205.12C286.706 204.98 272.16 199.886 269.974 179.881L269.83 180.023L269.833 179.746V179.554C269.833 165.441 258.38 154 244.25 154H90.75ZM269.981 227.896C269.424 209.593 254.852 205.063 245.98 205.051C245.684 205.071 245.386 205.086 245.086 205.095C244.809 205.104 244.529 205.109 244.25 205.109H91.0313H90.75C90.1763 205.109 89.6081 205.089 89.0437 205.052C79.7646 205.156 64.5985 210.178 65.3073 230.337L65.163 230.195L65.1667 230.513V230.663C67.4393 251.105 82.6867 256.177 90.8222 256.231C91.1238 256.233 91.4162 256.229 91.6975 256.218H243.302C243.584 256.229 243.876 256.233 244.178 256.231C252.313 256.177 267.561 251.105 269.833 230.663C269.833 229.728 269.883 228.804 269.981 227.896ZM269.833 383.989L269.835 384.316C267.609 404.692 252.559 409.599 244.733 409.558L244.492 409.556L244.156 409.546L244.111 409.544H243.882H91.0294H90.9388L90.4632 409.548L89.8635 409.565L89.5637 409.579L89.2084 409.601C79.9441 409.556 64.593 404.594 65.3055 384.316L65.163 384.456L65.1648 384.247L65.1667 383.989V335.055V334.774C65.1667 334.399 65.1593 334.028 65.1426 333.657C65.1556 312.796 82.1889 308.739 90.8906 309.36L90.7333 309.202L91.122 309.213L91.4366 309.218L91.6975 309.219H243.302C243.674 309.219 244.045 309.211 244.413 309.196L244.25 309.36C252.737 308.754 269.152 312.599 269.967 332.15C269.878 333.012 269.833 333.888 269.833 334.774V383.989Z" fill="#04005E"/>
<path d="M0 21H335" stroke="#828282"/>
<path d="M0 460H335" stroke="#828282"/>
<path d="M13.5 474L13.5 0" stroke="#828282"/>
<path d="M321.5 474L321.5 0" stroke="#828282"/>
</svg>
