<svg width="1047" height="753" viewBox="0 0 1047 753" fill="none" xmlns="http://www.w3.org/2000/svg">
<path d="M89 13L89 752" stroke="#F5F6FF"/>
<path d="M222 13L222 752" stroke="#F5F6FF"/>
<path d="M243.047 13L243.047 751.5" stroke="#F5F6FF"/>
<path d="M377.824 45.3013V752.259" stroke="#F5F6FF"/>
<path d="M398.695 45.3008V752.259" stroke="#F5F6FF"/>
<path d="M535.91 45.3008V752.259" stroke="#F5F6FF"/>
<path d="M556.796 45.3013V752.259" stroke="#F5F6FF"/>
<path d="M694.015 45.3013V752.259" stroke="#F5F6FF"/>
<path d="M714.884 45.3013V752.259" stroke="#F5F6FF"/>
<path d="M849.121 45.3013V752.259" stroke="#F5F6FF"/>
<path d="M870.004 45.3008V752.259" stroke="#F5F6FF"/>
<path d="M1004 14L1004 752" stroke="#F5F6FF"/>
<path d="M1046 108L14 108" stroke="#F5F6FF"/>
<path d="M1046 243H47" stroke="#F5F6FF"/>
<path d="M1046 254H47" stroke="#F5F6FF" stroke-width="0.3"/>
<path d="M1046 410H47" stroke="#F5F6FF" stroke-width="0.3"/>
<path d="M1046 191H47" stroke="#F5F6FF" stroke-width="0.3"/>
<path d="M1046 347H47" stroke="#F5F6FF" stroke-width="0.3"/>
<path d="M1046 503H47" stroke="#F5F6FF" stroke-width="0.3"/>
<path d="M1046 659H47" stroke="#F5F6FF" stroke-width="0.3"/>
<path d="M1046 181H47" stroke="#F5F6FF" stroke-width="0.3"/>
<path d="M1046 337H47" stroke="#F5F6FF" stroke-width="0.3"/>
<path d="M1046 493H47" stroke="#F5F6FF" stroke-width="0.3"/>
<path d="M1046 649H47" stroke="#F5F6FF" stroke-width="0.3"/>
<path d="M1046 160H47" stroke="#F5F6FF" stroke-width="0.3"/>
<path d="M1046 316H47" stroke="#F5F6FF" stroke-width="0.3"/>
<path d="M1046 472H47" stroke="#F5F6FF" stroke-width="0.3"/>
<path d="M1046 628H47" stroke="#F5F6FF" stroke-width="0.3"/>
<path d="M1046 98H47" stroke="#F5F6FF" stroke-width="0.3"/>
<path d="M1046 139H47" stroke="#F5F6FF" stroke-width="0.3"/>
<path d="M1046 295H47" stroke="#F5F6FF" stroke-width="0.3"/>
<path d="M1046 451H47" stroke="#F5F6FF" stroke-width="0.3"/>
<path d="M1046 607H47" stroke="#F5F6FF" stroke-width="0.3"/>
<path d="M1046 77H47" stroke="#F5F6FF" stroke-width="0.3"/>
<path d="M1046 118H47" stroke="#F5F6FF" stroke-width="0.3"/>
<path d="M1046 274H47" stroke="#F5F6FF" stroke-width="0.3"/>
<path d="M1046 431H47" stroke="#F5F6FF" stroke-width="0.3"/>
<path d="M1046 587H47" stroke="#F5F6FF" stroke-width="0.3"/>
<path d="M1046 566H47" stroke="#F5F6FF" stroke-width="0.3"/>
<path d="M1046 56H47" stroke="#F5F6FF" stroke-width="0.3"/>
<path d="M1046 150H47" stroke="#F5F6FF" stroke-width="0.3"/>
<path d="M1046 306H47" stroke="#F5F6FF" stroke-width="0.3"/>
<path d="M1046 462H47" stroke="#F5F6FF" stroke-width="0.3"/>
<path d="M1046 618H47" stroke="#F5F6FF" stroke-width="0.3"/>
<path d="M1046 87H47" stroke="#F5F6FF" stroke-width="0.3"/>
<path d="M1046 129H47" stroke="#F5F6FF" stroke-width="0.3"/>
<path d="M1046 285H47" stroke="#F5F6FF" stroke-width="0.3"/>
<path d="M1046 441H47" stroke="#F5F6FF" stroke-width="0.3"/>
<path d="M1046 597H47" stroke="#F5F6FF" stroke-width="0.3"/>
<path d="M1046 66H47" stroke="#F5F6FF" stroke-width="0.3"/>
<path d="M1046 264H47" stroke="#F5F6FF"/>
<path d="M1046 212H47" stroke="#F5F6FF" stroke-width="0.3"/>
<path d="M1046 368H47" stroke="#F5F6FF" stroke-width="0.3"/>
<path d="M1046 524H47" stroke="#F5F6FF" stroke-width="0.3"/>
<path d="M1046 680H47" stroke="#F5F6FF" stroke-width="0.3"/>
<path d="M1046 202H47" stroke="#F5F6FF" stroke-width="0.3"/>
<path d="M1046 358H47" stroke="#F5F6FF" stroke-width="0.3"/>
<path d="M1046 514H47" stroke="#F5F6FF" stroke-width="0.3"/>
<path d="M1046 670H47" stroke="#F5F6FF" stroke-width="0.3"/>
<path d="M1046 233H47" stroke="#F5F6FF" stroke-width="0.3"/>
<path d="M1046 389H47" stroke="#F5F6FF" stroke-width="0.3"/>
<path d="M1046 545H47" stroke="#F5F6FF" stroke-width="0.3"/>
<path d="M1046 701H47" stroke="#F5F6FF" stroke-width="0.3"/>
<path d="M1046 732H47" stroke="#F5F6FF" stroke-width="0.3"/>
<path d="M1046 741H47" stroke="#F5F6FF" stroke-width="0.3"/>
<path d="M1046 222H47" stroke="#F5F6FF" stroke-width="0.3"/>
<path d="M1046 379H47" stroke="#F5F6FF" stroke-width="0.3"/>
<path d="M1046 535H47" stroke="#F5F6FF" stroke-width="0.3"/>
<path d="M1046 691H47" stroke="#F5F6FF" stroke-width="0.3"/>
<path d="M1046 722H47" stroke="#F5F6FF" stroke-width="0.3"/>
<path d="M1046 170H47" stroke="#F5F6FF" stroke-width="0.3"/>
<path d="M1046 326H47" stroke="#F5F6FF" stroke-width="0.3"/>
<path d="M1046 483H47" stroke="#F5F6FF" stroke-width="0.3"/>
<path d="M1046 639H47" stroke="#F5F6FF" stroke-width="0.3"/>
<path d="M1046 711L13 711" stroke="#F5F6FF"/>
<path d="M1046 399H47" stroke="#F5F6FF"/>
<path d="M1046 420H47" stroke="#F5F6FF"/>
<path d="M1046 555H47" stroke="#F5F6FF"/>
<path d="M1046 576L47 576" stroke="#F5F6FF"/>
<path d="M47.2148 751.759V45.8008H1045.5V751.759H47.2148Z" stroke="#F5F6FF"/>
<path d="M1046 108.123L13.6328 108.123" stroke="#F5F6FF"/>
<path d="M1046 243.479H46.7148" stroke="#F5F6FF"/>
<path d="M1046 263.633H46.7148" stroke="#F5F6FF"/>
<path d="M1046 711L13 711" stroke="#F5F6FF"/>
<path d="M1046 399.668H46.7148" stroke="#F5F6FF"/>
<path d="M1046 419.822H46.7148" stroke="#F5F6FF"/>
<path d="M47 46L13 46" stroke="#F5F6FF"/>
<path d="M47 751.761L13 751.761" stroke="#F5F6FF"/>
<path d="M47 45.5V13.5" stroke="#F5F6FF"/>
<path d="M58 25L79 25" stroke="#F5F6FF" stroke-width="0.5"/>
<path d="M1015 25L1036 25" stroke="#F5F6FF" stroke-width="0.5"/>
<path d="M102 25H209" stroke="#F5F6FF" stroke-width="0.5"/>
<path d="M229 25L237 25" stroke="#F5F6FF" stroke-width="0.5"/>
<path d="M89.5 25L103 22.8349L103 27.1651L89.5 25Z" fill="#F5F6FF"/>
<path d="M25.9531 46.3154L27.9531 59.3154H23.9531L25.9531 46.3154Z" fill="#F5F6FF"/>
<path d="M26 108L24 95L28 95L26 108Z" fill="#F5F6FF"/>
<path d="M222.5 24.9998L230 23.7008L230 26.2988L222.5 24.9998Z" fill="#F5F6FF"/>
<path d="M242.5 25.0002L235.75 26.2992L235.75 23.7012L242.5 25.0002Z" fill="#F5F6FF"/>
<path d="M88.75 24.9996L77.5 26.7317L77.5 23.2676L88.75 24.9996Z" fill="#F5F6FF"/>
<path d="M1045.75 24.9996L1034.5 26.7317L1034.5 23.2676L1045.75 24.9996Z" fill="#F5F6FF"/>
<path d="M25.9625 711.5L27.6946 722.75H24.2305L25.9625 711.5Z" fill="#C4C4C4"/>
<path d="M47.5 25.0004L58.75 23.2683L58.75 26.7324L47.5 25.0004Z" fill="#F5F6FF"/>
<path d="M1004.5 25.0004L1015.75 23.2683L1015.75 26.7324L1004.5 25.0004Z" fill="#F5F6FF"/>
<path d="M25.9984 751.75L24.2664 740.5L27.7305 740.5L25.9984 751.75Z" fill="#C4C4C4"/>
<path d="M222 25L208.5 27.1651L208.5 22.8349L222 25Z" fill="#F5F6FF"/>
<path d="M26 58L26 108" stroke="#F5F6FF" stroke-width="0.5"/>
<path d="M26 722L26 741" stroke="#F5F6FF" stroke-width="0.5"/>
<path d="M155.024 12.376V13H149.792V12.376H152.072V5.404L150.164 6.484L149.852 5.932L152.42 4.48H152.744V12.376H155.024ZM158.577 12.556C159.225 12.556 159.725 12.372 160.077 12.004C160.429 11.628 160.605 11.14 160.605 10.54C160.605 10.036 160.445 9.636 160.125 9.34C159.805 9.044 159.433 8.896 159.009 8.896C158.761 8.896 158.465 8.952 158.121 9.064L157.965 8.488L158.505 8.344C159.009 8.208 159.437 7.968 159.789 7.624C160.141 7.272 160.317 6.864 160.317 6.4C160.317 5.984 160.193 5.656 159.945 5.416C159.697 5.168 159.337 5.044 158.865 5.044C158.449 5.044 158.101 5.144 157.821 5.344C157.549 5.536 157.257 5.848 156.945 6.28L156.429 5.872C157.085 4.904 157.889 4.42 158.841 4.42C159.497 4.42 160.017 4.6 160.401 4.96C160.793 5.32 160.989 5.776 160.989 6.328C160.989 6.768 160.865 7.176 160.617 7.552C160.377 7.92 160.013 8.212 159.525 8.428C160.061 8.524 160.485 8.776 160.797 9.184C161.117 9.584 161.277 10.032 161.277 10.528C161.277 11.264 161.029 11.892 160.533 12.412C160.037 12.924 159.385 13.18 158.577 13.18C158.017 13.18 157.573 13.084 157.245 12.892C156.925 12.7 156.581 12.392 156.213 11.968L156.729 11.488C157.033 11.872 157.321 12.148 157.593 12.316C157.873 12.476 158.201 12.556 158.577 12.556ZM167.003 13L164.939 10.492L162.875 13H162.071L164.531 10L162.071 7H162.875L164.939 9.508L167.003 7H167.807L165.335 10L167.807 13H167.003Z" fill="#F5F6FF"/>
<path d="M227.5 6.28L226.984 5.872C227.336 5.4 227.688 5.04 228.04 4.792C228.4 4.544 228.86 4.42 229.42 4.42C230.124 4.42 230.676 4.624 231.076 5.032C231.476 5.432 231.676 5.968 231.676 6.64C231.676 6.84 231.652 7.04 231.604 7.24C231.564 7.44 231.516 7.624 231.46 7.792C231.404 7.952 231.296 8.152 231.136 8.392C230.984 8.632 230.856 8.832 230.752 8.992C230.648 9.144 230.464 9.38 230.2 9.7C229.936 10.012 229.724 10.26 229.564 10.444C229.412 10.62 229.144 10.924 228.76 11.356C228.384 11.788 228.088 12.128 227.872 12.376H231.76V13H226.9V12.58C227.164 12.276 227.496 11.9 227.896 11.452C228.304 10.996 228.6 10.664 228.784 10.456C228.968 10.248 229.196 9.984 229.468 9.664C229.74 9.344 229.936 9.104 230.056 8.944C230.176 8.776 230.312 8.576 230.464 8.344C230.616 8.104 230.72 7.904 230.776 7.744C230.84 7.584 230.892 7.408 230.932 7.216C230.98 7.024 231.004 6.832 231.004 6.64C231.004 6.168 230.86 5.784 230.572 5.488C230.284 5.192 229.9 5.044 229.42 5.044C229.012 5.044 228.664 5.14 228.376 5.332C228.096 5.524 227.804 5.84 227.5 6.28ZM237.557 13L235.493 10.492L233.429 13H232.625L235.085 10L232.625 7H233.429L235.493 9.508L237.557 7H238.361L235.889 10L238.361 13H237.557Z" fill="#F5F6FF"/>
<path d="M66.824 13H66.152V10.6H62.372L62.288 10.084L66.5 4.48H66.824V9.976H68.348V10.6H66.824V13ZM66.152 5.932L63.116 9.976H66.152V5.932ZM73.5573 13L71.4933 10.492L69.4293 13H68.6253L71.0853 10L68.6253 7H69.4293L71.4933 9.508L73.5573 7H74.3613L71.8893 10L74.3613 13H73.5573Z" fill="#F5F6FF"/>
<path d="M1023.82 13H1023.15V10.6H1019.37L1019.29 10.084L1023.5 4.48H1023.82V9.976H1025.35V10.6H1023.82V13ZM1023.15 5.932L1020.12 9.976H1023.15V5.932ZM1030.56 13L1028.49 10.492L1026.43 13H1025.63L1028.09 10L1025.63 7H1026.43L1028.49 9.508L1030.56 7H1031.36L1028.89 10L1031.36 13H1030.56Z" fill="#F5F6FF"/>
<path d="M13 733.176L13 733.848L10.6 733.848L10.6 737.628L10.084 737.712L4.48 733.5L4.48 733.176L9.976 733.176L9.976 731.652L10.6 731.652L10.6 733.176L13 733.176ZM5.932 733.848L9.976 736.884L9.976 733.848L5.932 733.848ZM13 726.443L10.492 728.507L13 730.571L13 731.375L10 728.915L7 731.375L7 730.571L9.508 728.507L7 726.443L7 725.639L10 728.111L13 725.639L13 726.443Z" fill="#F5F6FF"/>
<path d="M5.044 79.556C5.044 80.212 5.304 80.724 5.824 81.092C6.344 81.452 7.228 81.632 8.476 81.632C7.756 81.24 7.396 80.544 7.396 79.544C7.396 79.272 7.448 79.012 7.552 78.764C7.648 78.508 7.8 78.268 8.008 78.044C8.208 77.812 8.5 77.628 8.884 77.492C9.26 77.356 9.7 77.288 10.204 77.288C11.132 77.288 11.86 77.544 12.388 78.056C12.916 78.56 13.18 79.136 13.18 79.784C13.18 80.664 12.876 81.3 12.268 81.692C11.66 82.084 10.584 82.28 9.04 82.28C8.112 82.28 7.332 82.212 6.7 82.076C6.068 81.932 5.592 81.728 5.272 81.464C4.952 81.2 4.732 80.916 4.612 80.612C4.484 80.308 4.42 79.952 4.42 79.544C4.42 79.136 4.484 78.784 4.612 78.488C4.74 78.192 4.98 77.868 5.332 77.516L5.836 77.936C5.308 78.408 5.044 78.948 5.044 79.556ZM10.204 81.596C10.964 81.596 11.548 81.424 11.956 81.08C12.356 80.728 12.556 80.3 12.556 79.796C12.556 79.308 12.36 78.88 11.968 78.512C11.576 78.136 10.988 77.948 10.204 77.948C9.444 77.948 8.892 78.112 8.548 78.44C8.196 78.76 8.02 79.124 8.02 79.532C8.02 79.74 8.048 79.948 8.104 80.156C8.16 80.364 8.26 80.584 8.404 80.816C8.54 81.048 8.764 81.236 9.076 81.38C9.388 81.524 9.764 81.596 10.204 81.596ZM13 71.4427L10.492 73.5067L13 75.5707L13 76.3747L10 73.9147L7 76.3747L7 75.5707L9.508 73.5067L7 71.4427L7 70.6387L10 73.1107L13 70.6387L13 71.4427Z" fill="#F5F6FF"/>
</svg>
