<svg width="335" height="335" viewBox="0 0 335 335" fill="none" xmlns="http://www.w3.org/2000/svg">
<path d="M335 0H0V335H335V0Z" fill="#F5F6FF"/>
<path d="M14 0V335" stroke="#D3D2D2"/>
<path d="M59 0V335" stroke="#D3D2D2"/>
<path d="M335 15H0" stroke="#D3D2D2"/>
<path d="M335 66.4365H0" stroke="#D3D2D2"/>
<path d="M335 222.958H0" stroke="#D3D2D2"/>
<path d="M335 73.1934H0" stroke="#D3D2D2"/>
<path d="M335 229.715L0 229.715" stroke="#D3D2D2"/>
<path d="M335 118.798H0" stroke="#D3D2D2"/>
<path d="M335 275.319L0 275.319" stroke="#D3D2D2"/>
<path d="M335 125.555H0" stroke="#D3D2D2"/>
<path d="M335 282.076L0 282.076" stroke="#D3D2D2"/>
<path d="M335 171.723H0" stroke="#D3D2D2"/>
<path d="M335 321L0 321" stroke="#D3D2D2"/>
<path d="M335 178.479L0 178.479" stroke="#D3D2D2"/>
<path d="M66 0V335" stroke="#D3D2D2"/>
<path d="M111 0V335" stroke="#D3D2D2"/>
<path d="M118 0V335" stroke="#D3D2D2"/>
<path d="M164 0V335" stroke="#D3D2D2"/>
<path d="M171 0V335" stroke="#D3D2D2"/>
<path d="M217 0V335" stroke="#D3D2D2"/>
<path d="M224 0V335" stroke="#D3D2D2"/>
<path d="M269 0V335" stroke="#D3D2D2"/>
<path d="M276 0V335" stroke="#D3D2D2"/>
<path d="M321 0V335" stroke="#D3D2D2"/>
<path d="M117 66C117 37.8335 94.1665 15 66 15C37.8335 15 15 37.8335 15 66C15 94.1665 37.8335 117 66 117C106.773 121.369 116.909 150.645 117.028 166.29C117.009 166.858 117 167.428 117 168C112.631 208.773 83.3548 218.909 67.7098 219.028C67.1422 219.009 66.5722 219 66 219C37.8335 219 15 241.833 15 270C15 298.167 37.8335 321 66 321C94.1665 321 117 298.167 117 270C117 269.271 116.985 268.546 116.954 267.824C116.673 228.546 146.507 218.924 164.529 218.884C165.676 218.961 166.833 219 168 219C168.729 219 169.454 218.985 170.176 218.954C209.454 218.673 219.076 248.507 219.116 266.529C219.039 267.676 219 268.833 219 270C219 298.167 241.833 321 270 321C298.167 321 321 298.167 321 270C321 241.833 298.167 219 270 219C229.227 214.631 219.091 185.355 218.972 169.71C218.991 169.142 219 168.572 219 168C223.369 127.227 252.645 117.091 268.29 116.972C268.858 116.991 269.428 117 270 117C298.167 117 321 94.1665 321 66C321 37.8335 298.167 15 270 15C241.833 15 219 37.8335 219 66C219 66.729 219.015 67.4544 219.046 68.1759C219.327 107.454 189.493 117.076 171.471 117.116C170.324 117.039 169.167 117 168 117C167.271 117 166.546 117.015 165.824 117.046C126.546 117.327 116.924 87.4933 116.884 69.4712C116.961 68.3241 117 67.1666 117 66Z" fill="#04005E"/>
<path d="M0 15H335" stroke="#828282"/>
<path d="M0 321H335" stroke="#828282"/>
<path d="M14 335L14 0" stroke="#828282"/>
<path d="M321 335V0" stroke="#828282"/>
</svg>
