<svg width="1001" height="366" viewBox="0 0 1001 366" fill="none" xmlns="http://www.w3.org/2000/svg">
<rect x="0.5" y="0.5" width="999" height="364" stroke="#F5F6FF"/>
<path d="M21.8475 0.361084L21.8476 365.142" stroke="#F5F6FF"/>
<path d="M90.5673 0.361084L90.5673 365.142" stroke="#F5F6FF"/>
<path d="M101.418 0.361084L101.418 364.625" stroke="#F5F6FF"/>
<path d="M171.082 0V365.276" stroke="#F5F6FF"/>
<path d="M181.863 0V365.276" stroke="#F5F6FF"/>
<path d="M252.761 0V365.276" stroke="#F5F6FF"/>
<path d="M263.551 0V365.276" stroke="#F5F6FF"/>
<path d="M334.45 0V365.276" stroke="#F5F6FF"/>
<path d="M345.234 0V365.276" stroke="#F5F6FF"/>
<path d="M414.594 0V365.276" stroke="#F5F6FF"/>
<path d="M425.383 0V365.276" stroke="#F5F6FF"/>
<path d="M494.618 0.361084L494.618 365.142" stroke="#F5F6FF"/>
<path d="M516.319 102.149H0.148438" stroke="#F5F6FF"/>
<path d="M516.319 112.999H0.148438" stroke="#F5F6FF"/>
<path d="M516.319 182.751H0.148438" stroke="#F5F6FF"/>
<path d="M516.319 193.602H0.148438" stroke="#F5F6FF"/>
<path d="M516.319 263.355H0.148438" stroke="#F5F6FF"/>
<path d="M516.319 274.205L0.148438 274.205" stroke="#F5F6FF"/>
<path d="M516.319 32.3962L0.148438 32.3962" stroke="#F5F6FF"/>
<path d="M516.318 102.396H0" stroke="#F5F6FF"/>
<path d="M516.318 112.809H0" stroke="#F5F6FF"/>
<path d="M516.319 343.959L0.148438 343.958" stroke="#F5F6FF"/>
<path d="M516.318 183.096H0" stroke="#F5F6FF"/>
<path d="M516.318 193.51H0" stroke="#F5F6FF"/>
<path d="M978.473 0.361084L978.473 365.142" stroke="#F5F6FF"/>
<path d="M909.753 0.361084L909.753 365.142" stroke="#F5F6FF"/>
<path d="M898.902 0.361084L898.902 364.625" stroke="#F5F6FF"/>
<path d="M829.238 0V365.276" stroke="#F5F6FF"/>
<path d="M818.457 0V365.276" stroke="#F5F6FF"/>
<path d="M747.559 0V365.276" stroke="#F5F6FF"/>
<path d="M736.77 0V365.276" stroke="#F5F6FF"/>
<path d="M665.87 0V365.276" stroke="#F5F6FF"/>
<path d="M655.086 0V365.276" stroke="#F5F6FF"/>
<path d="M585.726 0V365.276" stroke="#F5F6FF"/>
<path d="M574.938 0V365.276" stroke="#F5F6FF"/>
<path d="M505.702 0.361084L505.702 365.142" stroke="#F5F6FF"/>
<path d="M484.002 102.149H1000.17" stroke="#F5F6FF"/>
<path d="M484.002 112.999H1000.17" stroke="#F5F6FF"/>
<path d="M484.002 182.751H1000.17" stroke="#F5F6FF"/>
<path d="M484.002 193.602H1000.17" stroke="#F5F6FF"/>
<path d="M484.002 263.355H1000.17" stroke="#F5F6FF"/>
<path d="M484.002 274.205L1000.17 274.205" stroke="#F5F6FF"/>
<path d="M484.002 32.3962L1000.17 32.3962" stroke="#F5F6FF"/>
<path d="M484.002 102.396H1000.32" stroke="#F5F6FF"/>
<path d="M484.002 112.809H1000.32" stroke="#F5F6FF"/>
<path d="M484.002 343.959L1000.17 343.958" stroke="#F5F6FF"/>
<path d="M484.002 183.096H1000.32" stroke="#F5F6FF"/>
<path d="M484.002 193.51H1000.32" stroke="#F5F6FF"/>
</svg>
