<svg width="522" height="335" viewBox="0 0 522 335" fill="none" xmlns="http://www.w3.org/2000/svg">
<path d="M522 0H0V335H522V0Z" fill="white"/>
<path d="M21 0V335" stroke="#D3D2D2"/>
<path d="M92 0V335" stroke="#D3D2D2"/>
<path d="M522 21H0" stroke="#D3D2D2"/>
<path d="M522 90H0" stroke="#D3D2D2"/>
<path d="M522 313H0" stroke="#D3D2D2"/>
<path d="M522 100.526H0" stroke="#D3D2D2"/>
<path d="M522 171.591H0" stroke="#D3D2D2"/>
<path d="M522 182.118H0" stroke="#D3D2D2"/>
<path d="M522 254.058H0" stroke="#D3D2D2"/>
<path d="M522 264.586L0 264.586" stroke="#D3D2D2"/>
<path d="M103 0V335" stroke="#D3D2D2"/>
<path d="M174 0V335" stroke="#D3D2D2"/>
<path d="M184 0V335" stroke="#D3D2D2"/>
<path d="M255 0V335" stroke="#D3D2D2"/>
<path d="M267 0V335" stroke="#D3D2D2"/>
<path d="M338 0V335" stroke="#D3D2D2"/>
<path d="M348 0V335" stroke="#D3D2D2"/>
<path d="M419 0V335" stroke="#D3D2D2"/>
<path d="M430 0V335" stroke="#D3D2D2"/>
<path d="M501 0V335" stroke="#D3D2D2"/>
<path d="M261.485 118.311C260.992 118.326 260.497 118.333 260 118.333C233.122 118.333 211.333 140.122 211.333 167C211.333 167.175 211.334 167.349 211.336 167.523C211.617 194.16 233.296 215.667 260 215.667C286.878 215.667 308.667 237.455 308.667 264.333C308.667 291.211 286.878 313 260 313C233.297 313 211.617 291.493 211.336 264.857H211.331C211.332 264.682 211.333 264.508 211.333 264.333C211.333 237.456 189.545 215.667 162.667 215.667C162.492 215.667 162.318 215.668 162.143 215.669V215.664C135.507 215.383 114 193.703 114 167C114 140.297 135.507 118.617 162.143 118.336V118.331C162.318 118.332 162.492 118.333 162.667 118.333C189.545 118.333 211.333 96.5444 211.333 69.6667C211.333 42.7888 233.122 21 260 21C286.87 21 308.655 42.7768 308.667 69.6444C308.667 69.637 308.667 69.6296 308.667 69.6222C308.667 96.5 330.455 118.289 357.333 118.289C384.211 118.289 406 140.078 406 166.956C406 193.833 384.211 215.622 357.333 215.622C330.626 215.622 308.943 194.109 308.669 167.467C308.669 167.471 308.669 167.475 308.669 167.479H308.664C308.666 167.305 308.667 167.13 308.667 166.956C308.667 140.575 287.676 119.096 261.485 118.311Z" fill="#04005E"/>
<path d="M21 335L21 0" stroke="#828282"/>
<path d="M501 335V0" stroke="#828282"/>
<path d="M0 21H522" stroke="#828282"/>
<path d="M0 313H522" stroke="#828282"/>
</svg>
