<svg width="335" height="335" viewBox="0 0 335 335" fill="none" xmlns="http://www.w3.org/2000/svg">
<path d="M0.5 0.5H334.5V334.5H0.5V0.5Z" stroke="#F5F6FF"/>
<path d="M14 0V335" stroke="#F5F6FF"/>
<path d="M59 0V335" stroke="#F5F6FF"/>
<path d="M335 20.832H0" stroke="#F5F6FF"/>
<path d="M335 66.4365H0" stroke="#F5F6FF"/>
<path d="M335 222.958H0" stroke="#F5F6FF"/>
<path d="M335 73.1934H0" stroke="#F5F6FF"/>
<path d="M335 229.714L0 229.714" stroke="#F5F6FF"/>
<path d="M335 118.798H0" stroke="#F5F6FF"/>
<path d="M335 275.319L0 275.319" stroke="#F5F6FF"/>
<path d="M335 125.555H0" stroke="#F5F6FF"/>
<path d="M335 282.076L0 282.076" stroke="#F5F6FF"/>
<path d="M335 171.723H0" stroke="#F5F6FF"/>
<path d="M335 321L0 321" stroke="#F5F6FF"/>
<path d="M335 178.479L0 178.479" stroke="#F5F6FF"/>
<path d="M66 0V335" stroke="#F5F6FF"/>
<path d="M111 0V335" stroke="#F5F6FF"/>
<path d="M118 0V335" stroke="#F5F6FF"/>
<path d="M164 0V335" stroke="#F5F6FF"/>
<path d="M171 0V335" stroke="#F5F6FF"/>
<path d="M217 0V335" stroke="#F5F6FF"/>
<path d="M224 0V335" stroke="#F5F6FF"/>
<path d="M269 0V335" stroke="#F5F6FF"/>
<path d="M276 0V335" stroke="#F5F6FF"/>
<path d="M321 0V335" stroke="#F5F6FF"/>
</svg>
