<svg width="335" height="335" viewBox="0 0 335 335" fill="none" xmlns="http://www.w3.org/2000/svg">
<rect x="0.5" y="0.5" width="334" height="334" stroke="#F5F6FF"/>
<path fill-rule="evenodd" clip-rule="evenodd" d="M168.624 134.65C168.251 134.661 167.876 134.667 167.5 134.667C147.157 134.667 130.667 151.158 130.667 171.5C130.667 171.632 130.667 171.764 130.669 171.896C130.881 192.056 147.289 208.333 167.5 208.333C187.842 208.333 204.333 224.824 204.333 245.167C204.333 265.509 187.842 282 167.5 282C147.29 282 130.881 265.723 130.669 245.563H130.665C130.666 245.431 130.667 245.299 130.667 245.167C130.667 224.824 114.176 208.333 93.8333 208.333C93.7011 208.333 93.5691 208.334 93.4373 208.335V208.331C73.2772 208.119 57 191.71 57 171.5C57 151.29 73.2772 134.881 93.4373 134.669V134.665C93.5691 134.666 93.7011 134.667 93.8333 134.667C114.176 134.667 130.667 118.176 130.667 97.8333C130.667 77.4908 147.158 61 167.5 61C187.837 61 204.324 77.4818 204.333 97.8165C204.333 97.8109 204.333 97.8053 204.333 97.7997C204.333 118.142 220.824 134.633 241.167 134.633C261.509 134.633 278 151.124 278 171.466C278 191.809 261.509 208.3 241.167 208.3C220.953 208.3 204.543 192.018 204.335 171.853C204.335 171.856 204.335 171.859 204.335 171.862H204.331C204.333 171.731 204.333 171.599 204.333 171.466C204.333 151.5 188.447 135.244 168.624 134.65Z" fill="#F5F6FF"/>
</svg>
