<svg width="331" height="169" viewBox="0 0 331 169" fill="none" xmlns="http://www.w3.org/2000/svg">
<path d="M0 0H331V168.337H0V0Z" fill="#F5F6FF"/>
<path d="M21.9443 23.8319V25.34H16.1906V35.3066H14.5514V23.8319H21.9443Z" fill="#04005E"/>
<path d="M28.0027 30.979C28.0027 31.0664 27.9918 31.1975 27.9699 31.3724H21.0524C21.1179 32.2029 21.413 32.9023 21.9376 33.4706C22.4621 34.028 23.1998 34.3066 24.1505 34.3066C24.6095 34.3066 25.0794 34.2247 25.5603 34.0607C26.0411 33.8859 26.4509 33.6564 26.7897 33.3723L27.4782 34.3066C27.0629 34.7 26.5438 35.006 25.9209 35.2246C25.3089 35.4432 24.6751 35.5524 24.0194 35.5524C22.7736 35.5524 21.719 35.159 20.8557 34.3722C19.9923 33.5854 19.5607 32.5854 19.5607 31.3724C19.5607 30.1266 19.9705 29.0665 20.7901 28.1923C21.6206 27.3071 22.626 26.8645 23.8063 26.8645C25.1177 26.8645 26.1449 27.2634 26.8881 28.0611C27.6312 28.848 28.0027 29.8206 28.0027 30.979ZM26.5602 30.3069C26.4509 29.673 26.1559 29.154 25.675 28.7496C25.2051 28.3343 24.5822 28.1267 23.8063 28.1267C23.1506 28.1267 22.5769 28.3289 22.0851 28.7332C21.5933 29.1266 21.2655 29.6512 21.1015 30.3069H26.5602Z" fill="#04005E"/>
<path d="M31.3134 24.2089C32.0018 24.5368 32.7395 24.7007 33.5263 24.7007C34.3132 24.7007 35.0399 24.5368 35.7065 24.2089L36.2311 25.1925C35.4333 25.5859 34.5317 25.7826 33.5263 25.7826C32.51 25.7826 31.603 25.5859 30.8052 25.1925C30.9254 24.9739 31.0948 24.646 31.3134 24.2089ZM31.1986 27.1104V33.2903C31.4609 32.9406 32.9963 30.8806 35.8049 27.1104H37.313V35.3066H35.8377V29.1594L31.2478 35.3066H29.7233V27.1104H31.1986Z" fill="#04005E"/>
<path d="M44.0263 31.3232C44.3978 30.7768 44.9333 29.9954 45.6327 28.9791C46.3321 27.9628 46.7584 27.3399 46.9113 27.1104H48.4686V35.3066H47.0097V29.1922C46.7474 29.5638 46.4688 29.9626 46.1737 30.3888C45.8786 30.815 45.5508 31.2904 45.1901 31.815C44.8295 32.3395 44.5508 32.7439 44.3541 33.028H43.6984L41.0593 29.1922V35.3066H39.6003V27.1104H41.1576L44.0263 31.3232Z" fill="#04005E"/>
<path d="M52.217 27.1104V33.2903C55.0255 29.52 56.561 27.4601 56.8232 27.1104H58.3313V35.3066H56.856V29.1594L52.2662 35.3066H50.758V27.1104H52.217Z" fill="#04005E"/>
<path d="M66.7498 35.5524H66.2745V38.6506H64.7991V35.5524H64.3074C63.1162 35.5524 62.1053 35.1262 61.2748 34.2738C60.4552 33.4214 60.0454 32.3996 60.0454 31.2085C60.0454 30.0173 60.4606 28.9955 61.2912 28.1431C62.1217 27.2907 63.1271 26.8645 64.3074 26.8645H64.7991V23.668H66.2745V26.8645H66.7498C67.9301 26.8645 68.9355 27.2907 69.766 28.1431C70.5966 28.9955 71.0119 30.0173 71.0119 31.2085C71.0119 32.4106 70.5966 33.4378 69.766 34.2902C68.9464 35.1317 67.941 35.5524 66.7498 35.5524ZM66.5203 34.2247C67.34 34.2247 68.0394 33.9296 68.6186 33.3395C69.2087 32.7493 69.5038 32.039 69.5038 31.2085C69.5038 30.3888 69.2087 29.684 68.6186 29.0938C68.0394 28.5037 67.34 28.2087 66.5203 28.2087H66.2745V34.2247H66.5203ZM64.7991 28.2087H64.5369C63.7173 28.2087 63.0178 28.5037 62.4386 29.0938C61.8594 29.684 61.5699 30.3888 61.5699 31.2085C61.5699 32.039 61.8594 32.7493 62.4386 33.3395C63.0178 33.9296 63.7173 34.2247 64.5369 34.2247H64.7991V28.2087Z" fill="#04005E"/>
<path d="M74.1962 27.1104V33.2903C77.0048 29.52 78.5402 27.4601 78.8025 27.1104H80.3106V35.3066H78.8353V29.1594L74.2454 35.3066H72.7373V27.1104H74.1962Z" fill="#04005E"/>
<path d="M88.139 35.3066L84.2704 31.0281L87.975 27.1104H89.7782L85.9096 31.0281L89.9421 35.3066H88.139ZM82.5983 27.1104H84.0573V35.3066H82.5983V27.1104Z" fill="#04005E"/>
<path d="M93.2625 35.5524C92.4101 35.5524 91.7325 35.3448 91.2298 34.9295C90.738 34.5143 90.4922 33.946 90.4922 33.2247C90.4922 32.8641 90.5523 32.5472 90.6725 32.274C90.7927 31.9898 90.9457 31.7549 91.1315 31.5691C91.3172 31.3833 91.5686 31.2249 91.8855 31.0937C92.2134 30.9626 92.5193 30.8588 92.8035 30.7823C93.0985 30.7058 93.4701 30.6511 93.9182 30.6183C94.3772 30.5746 94.7651 30.5473 95.082 30.5364C95.4099 30.5254 95.8251 30.5145 96.3278 30.5036V29.8315C96.3278 28.6513 95.6722 28.0611 94.3608 28.0611C93.3881 28.0611 92.5139 28.4054 91.738 29.0938L90.9348 28.1923C91.9074 27.3071 93.0931 26.8645 94.4919 26.8645C95.1585 26.8645 95.7213 26.9519 96.1803 27.1268C96.6502 27.3016 96.9945 27.542 97.213 27.848C97.4316 28.1431 97.5846 28.4382 97.672 28.7332C97.7594 29.0283 97.8032 29.3452 97.8032 29.684V35.3066H96.3278V33.864C95.4317 34.9896 94.4099 35.5524 93.2625 35.5524ZM93.6231 34.4214C94.6504 34.4214 95.5519 33.8367 96.3278 32.6674V31.4543C95.2787 31.4543 94.4045 31.5145 93.7051 31.6347C93.4865 31.6675 93.2679 31.7276 93.0494 31.815C92.8308 31.9024 92.6068 32.0663 92.3773 32.3068C92.1587 32.5362 92.0494 32.8095 92.0494 33.1264C92.0494 33.5744 92.2079 33.9023 92.5248 34.1099C92.8527 34.3176 93.2188 34.4214 93.6231 34.4214Z" fill="#04005E"/>
<path d="M101.394 34.028H106.033V27.1104H107.508V34.028H108.771V37.6179H107.345V35.3066H99.9352V27.1104H101.394V34.028Z" fill="#04005E"/>
<path d="M111.783 27.1104V33.2903C114.592 29.52 116.127 27.4601 116.39 27.1104H117.898V35.3066H116.422V29.1594L111.833 35.3066H110.325V27.1104H111.783Z" fill="#04005E"/>
<path d="M124.792 32.3887H123.267L121.317 35.3066H119.612C120.639 33.8422 121.344 32.8313 121.726 32.274C121.071 32.1647 120.552 31.8696 120.169 31.3888C119.798 30.9079 119.612 30.3615 119.612 29.7495C119.612 29.0392 119.863 28.4218 120.366 27.8972C120.869 27.3726 121.552 27.1104 122.415 27.1104H126.267V35.3066H124.792V32.3887ZM124.792 28.3234H122.53C122.125 28.3234 121.781 28.4545 121.497 28.7168C121.224 28.9682 121.087 29.3124 121.087 29.7495C121.087 30.1867 121.224 30.5364 121.497 30.7987C121.781 31.0609 122.125 31.1921 122.53 31.1921H124.792V28.3234Z" fill="#04005E"/>
<path d="M20.9772 49.2855C20.9772 49.657 20.8734 50.0122 20.6657 50.351C20.4581 50.6898 20.1794 50.963 19.8297 51.1706C20.2887 51.3455 20.6493 51.6187 20.9116 51.9902C21.1848 52.3618 21.3214 52.7771 21.3214 53.236C21.3214 53.859 21.0974 54.389 20.6493 54.8261C20.2122 55.2632 19.6385 55.4818 18.9281 55.4818H14.3875V47.2856H18.7314C19.3871 47.2856 19.9226 47.4823 20.3379 47.8757C20.7641 48.2582 20.9772 48.7281 20.9772 49.2855ZM15.8464 54.3999H18.42C18.8243 54.3999 19.1576 54.2852 19.4199 54.0557C19.6822 53.8152 19.8133 53.5038 19.8133 53.1213C19.8133 52.7279 19.6822 52.411 19.4199 52.1705C19.1576 51.9192 18.8243 51.7935 18.42 51.7935H15.8464V54.3999ZM19.5838 49.4986C19.5838 49.1598 19.4527 48.8921 19.1904 48.6954C18.9391 48.4877 18.6331 48.3839 18.2724 48.3839H15.8464V50.7444H18.2724C18.6331 50.7444 18.9391 50.6242 19.1904 50.3838C19.4527 50.1433 19.5838 49.8483 19.5838 49.4986Z" fill="#04005E"/>
<path d="M33.324 48.5806H28.6849V55.4818H27.226V47.2856H34.7993V55.4818H33.324V48.5806Z" fill="#04005E"/>
<path d="M41.3819 55.7277C40.2235 55.7277 39.2782 55.2906 38.546 54.4163V58.8258H37.0871V47.2856H38.546V48.3675C39.2891 47.5042 40.2508 47.0725 41.431 47.0725C42.6004 47.0725 43.5675 47.4932 44.3325 48.3347C45.1084 49.1762 45.4964 50.1925 45.4964 51.3837C45.4964 52.5967 45.1029 53.624 44.3161 54.4655C43.5402 55.3069 42.5621 55.7277 41.3819 55.7277ZM40.9557 48.3839C39.9612 48.3839 39.158 48.7882 38.546 49.5969V53.1869C39.147 53.9956 39.9503 54.3999 40.9557 54.3999C41.7862 54.3999 42.4911 54.1048 43.0703 53.5147C43.6495 52.9246 43.9391 52.2142 43.9391 51.3837C43.9391 50.5641 43.644 49.8592 43.0539 49.2691C42.4747 48.679 41.7753 48.3839 40.9557 48.3839Z" fill="#04005E"/>
<path d="M48.6792 47.2856V53.4655C51.4877 49.6953 53.0231 47.6353 53.2854 47.2856H54.7935V55.4818H53.3182V49.3347L48.7283 55.4818H47.2202V47.2856H48.6792Z" fill="#04005E"/>
<path d="M56.0977 55.4818V54.2852H56.6551C57.1687 54.2852 57.5239 54.0229 57.7206 53.4983C57.9173 52.9738 58.0156 52.0121 58.0156 50.6133V47.2856H64.4906V55.4818H63.0153V48.5806H59.4746V50.9903C59.4746 53.9846 58.5894 55.4818 56.819 55.4818H56.0977Z" fill="#04005E"/>
<path d="M70.6672 54.4491C71.5196 54.4491 72.2354 54.154 72.8146 53.5639C73.3938 52.9628 73.6834 52.2361 73.6834 51.3837C73.6834 50.5532 73.3938 49.8374 72.8146 49.2363C72.2354 48.6352 71.5196 48.3347 70.6672 48.3347C69.8148 48.3347 69.0936 48.6352 68.5034 49.2363C67.9242 49.8374 67.6346 50.5532 67.6346 51.3837C67.6346 52.2361 67.9242 52.9628 68.5034 53.5639C69.0826 54.154 69.8039 54.4491 70.6672 54.4491ZM73.8638 54.4819C73.0332 55.3124 71.9677 55.7277 70.6672 55.7277C69.3668 55.7277 68.2958 55.3124 67.4543 54.4819C66.6238 53.6404 66.2085 52.6077 66.2085 51.3837C66.2085 50.1707 66.6238 49.1434 67.4543 48.3019C68.2958 47.4605 69.3668 47.0397 70.6672 47.0397C71.9677 47.0397 73.0332 47.4605 73.8638 48.3019C74.6943 49.1434 75.1096 50.1707 75.1096 51.3837C75.1096 52.6077 74.6943 53.6404 73.8638 54.4819Z" fill="#04005E"/>
<path d="M80.4536 55.4818V51.8099H79.5029L77.0932 55.4818H75.4212C76.4593 53.9628 77.421 52.5257 78.3062 51.1706C78.0877 50.8537 77.6778 50.2526 77.0768 49.3674C76.4757 48.4713 76.0113 47.7774 75.6834 47.2856H77.3718C78.5849 49.1325 79.2898 50.1925 79.4865 50.4657H80.4536V47.2856H81.9125V50.4657H82.8633C83.3441 49.7663 84.0545 48.7063 84.9943 47.2856H86.6827C86.3549 47.7774 85.8904 48.4713 85.2894 49.3674C84.6883 50.2526 84.2785 50.8537 84.0599 51.1706C84.9451 52.5257 85.9068 53.9628 86.945 55.4818H85.273L82.8633 51.8099H81.9125V55.4818H80.4536Z" fill="#04005E"/>
<path d="M95.8774 51.1542C95.8774 51.2416 95.8665 51.3728 95.8447 51.5476H88.9271C88.9926 52.3782 89.2877 53.0776 89.8123 53.6459C90.3368 54.2032 91.0745 54.4819 92.0252 54.4819C92.4842 54.4819 92.9541 54.3999 93.435 54.236C93.9158 54.0611 94.3256 53.8316 94.6644 53.5475L95.3529 54.4819C94.9376 54.8753 94.4185 55.1813 93.7956 55.3998C93.1836 55.6184 92.5498 55.7277 91.8941 55.7277C90.6483 55.7277 89.5937 55.3343 88.7304 54.5474C87.867 53.7606 87.4354 52.7607 87.4354 51.5476C87.4354 50.3018 87.8452 49.2418 88.6648 48.3675C89.4953 47.4823 90.5007 47.0397 91.681 47.0397C92.9924 47.0397 94.0196 47.4386 94.7628 48.2364C95.5059 49.0232 95.8774 49.9958 95.8774 51.1542ZM94.4349 50.4821C94.3256 49.8483 94.0306 49.3292 93.5497 48.9248C93.0798 48.5096 92.4569 48.3019 91.681 48.3019C91.0253 48.3019 90.4516 48.5041 89.9598 48.9084C89.468 49.3019 89.1402 49.8264 88.9762 50.4821H94.4349Z" fill="#04005E"/>
<path d="M103.663 51.9083H99.0569V55.4818H97.598V47.2856H99.0569V50.5805H103.663V47.2856H105.138V55.4818H103.663V51.9083Z" fill="#04005E"/>
<path d="M108.886 47.2856V53.4655C111.695 49.6953 113.23 47.6353 113.492 47.2856H115V55.4818H113.525V49.3347L108.935 55.4818H107.427V47.2856H108.886Z" fill="#04005E"/>
<path d="M118.747 47.2856V53.4655C121.556 49.6953 123.091 47.6353 123.353 47.2856H124.861V55.4818H123.386V49.3347L118.796 55.4818H117.288V47.2856H118.747Z" fill="#04005E"/>
<path d="M133.493 46.7119C133.493 47.1599 133.378 47.5752 133.149 47.9577C132.93 48.3293 132.662 48.6516 132.345 48.9248C132.029 49.1871 131.712 49.4549 131.395 49.7281C131.089 50.0013 130.821 50.3346 130.592 50.728C130.373 51.1214 130.264 51.5586 130.264 52.0394C130.264 52.1815 130.269 52.2907 130.28 52.3672H128.903C128.87 52.1378 128.854 51.9247 128.854 51.7279C128.854 51.2034 128.958 50.7335 129.165 50.3182C129.373 49.892 129.624 49.5478 129.919 49.2855C130.214 49.0123 130.504 48.7609 130.788 48.5314C131.083 48.291 131.335 48.0287 131.542 47.7446C131.75 47.4495 131.854 47.1381 131.854 46.8102C131.854 46.242 131.668 45.8158 131.296 45.5316C130.936 45.2366 130.46 45.089 129.87 45.089C128.734 45.089 127.887 45.6027 127.329 46.6299L126.329 45.8267C127.193 44.4497 128.411 43.7612 129.985 43.7612C131.056 43.7612 131.908 44.029 132.542 44.5645C133.176 45.1 133.493 45.8158 133.493 46.7119ZM128.838 55.3507C128.641 55.1539 128.542 54.9135 128.542 54.6294C128.542 54.3453 128.641 54.0994 128.838 53.8917C129.045 53.6841 129.291 53.5803 129.575 53.5803C129.859 53.5803 130.1 53.6841 130.296 53.8917C130.504 54.0994 130.608 54.3453 130.608 54.6294C130.608 54.9135 130.504 55.1539 130.296 55.3507C130.1 55.5474 129.859 55.6457 129.575 55.6457C129.291 55.6457 129.045 55.5474 128.838 55.3507Z" fill="#04005E"/>
<path d="M17.2045 74.8997L19.8979 81.961H18.8891L18.2132 80.226H15.0356L14.3698 81.961H13.3611L16.0545 74.8997H17.2045ZM16.6295 76.0598L15.3383 79.3786H17.9106L16.6295 76.0598Z" fill="#04005E"/>
<path d="M24.436 76.9172V77.7444H21.6216V81.961H20.7238V76.9172H24.436Z" fill="#04005E"/>
<path d="M26.38 82.1124C25.8555 82.1124 25.4385 81.9846 25.1292 81.729C24.8265 81.4735 24.6752 81.1238 24.6752 80.6799C24.6752 80.458 24.7122 80.263 24.7862 80.0948C24.8602 79.92 24.9543 79.7754 25.0686 79.6611C25.183 79.5467 25.3376 79.4492 25.5327 79.3685C25.7344 79.2878 25.9227 79.2239 26.0976 79.1769C26.2791 79.1298 26.5078 79.0962 26.7835 79.076C27.066 79.0491 27.3047 79.0323 27.4997 79.0255C27.7015 79.0188 27.9571 79.0121 28.2664 79.0054V78.5918C28.2664 77.8655 27.8629 77.5023 27.0559 77.5023C26.4574 77.5023 25.9194 77.7142 25.4419 78.1378L24.9476 77.583C25.5461 77.0383 26.2758 76.7659 27.1366 76.7659C27.5468 76.7659 27.8932 76.8197 28.1756 76.9273C28.4648 77.0349 28.6766 77.1829 28.8111 77.3712C28.9456 77.5527 29.0398 77.7343 29.0936 77.9159C29.1474 78.0975 29.1743 78.2925 29.1743 78.501V81.961H28.2664V81.0733C27.715 81.766 27.0862 82.1124 26.38 82.1124ZM26.602 81.4163C27.2341 81.4163 27.7889 81.0565 28.2664 80.3369V79.5904C27.6208 79.5904 27.0828 79.6274 26.6524 79.7014C26.5179 79.7216 26.3834 79.7586 26.2489 79.8124C26.1144 79.8662 25.9765 79.9671 25.8353 80.115C25.7008 80.2562 25.6335 80.4244 25.6335 80.6194C25.6335 80.8951 25.7311 81.0969 25.9261 81.2246C26.1278 81.3524 26.3531 81.4163 26.602 81.4163Z" fill="#04005E"/>
<path d="M30.2039 83.454L30.5872 80.8211H31.7674L30.8596 83.454H30.2039Z" fill="#04005E"/>
<path d="M39.5191 77.7142H36.6643V81.961H35.7666V76.9172H40.427V81.961H39.5191V77.7142Z" fill="#04005E"/>
<path d="M44.4778 82.1124C43.765 82.1124 43.1833 81.8433 42.7327 81.3053V84.0189H41.8349V76.9172H42.7327V77.583C43.19 77.0517 43.7818 76.7861 44.5081 76.7861C45.2277 76.7861 45.8229 77.045 46.2936 77.5628C46.7711 78.0807 47.0098 78.7061 47.0098 79.4391C47.0098 80.1856 46.7677 80.8178 46.2835 81.3356C45.806 81.8534 45.2041 82.1124 44.4778 82.1124ZM44.2156 77.5931C43.6036 77.5931 43.1093 77.8419 42.7327 78.3396V80.5488C43.1026 81.0464 43.5969 81.2953 44.2156 81.2953C44.7267 81.2953 45.1604 81.1137 45.5169 80.7505C45.8733 80.3874 46.0515 79.9502 46.0515 79.4391C46.0515 78.9348 45.8699 78.501 45.5068 78.1378C45.1503 77.7747 44.7199 77.5931 44.2156 77.5931Z" fill="#04005E"/>
<path d="M50.9053 80.1654H49.9672L48.7667 81.961H47.7176C48.3498 81.0599 48.7835 80.4378 49.0189 80.0948C48.6154 80.0276 48.296 79.846 48.0606 79.5501C47.8319 79.2542 47.7176 78.9179 47.7176 78.5413C47.7176 78.1042 47.8723 77.7242 48.1817 77.4014C48.491 77.0786 48.9113 76.9172 49.4426 76.9172H51.8132V81.961H50.9053V80.1654ZM50.9053 77.6637H49.5132C49.2644 77.6637 49.0526 77.7444 48.8777 77.9058C48.7096 78.0605 48.6255 78.2723 48.6255 78.5413C48.6255 78.8103 48.7096 79.0255 48.8777 79.1869C49.0526 79.3483 49.2644 79.429 49.5132 79.429H50.9053V77.6637Z" fill="#04005E"/>
<path d="M55.9367 79.5097C56.1653 79.1735 56.4949 78.6926 56.9253 78.0672C57.3557 77.4418 57.6179 77.0585 57.7121 76.9172H58.6704V81.961H57.7726V78.1984C57.6112 78.427 57.4397 78.6725 57.2581 78.9348C57.0766 79.197 56.8748 79.4896 56.6529 79.8124C56.431 80.1352 56.2595 80.384 56.1384 80.5589H55.7349L54.1108 78.1984V81.961H53.213V76.9172H54.1713L55.9367 79.5097Z" fill="#04005E"/>
<path d="M62.4701 81.3255C62.9946 81.3255 63.4351 81.1439 63.7915 80.7808C64.148 80.4109 64.3262 79.9637 64.3262 79.4391C64.3262 78.928 64.148 78.4875 63.7915 78.1177C63.4351 77.7478 62.9946 77.5628 62.4701 77.5628C61.9455 77.5628 61.5016 77.7478 61.1385 78.1177C60.7821 78.4875 60.6038 78.928 60.6038 79.4391C60.6038 79.9637 60.7821 80.4109 61.1385 80.7808C61.4949 81.1439 61.9388 81.3255 62.4701 81.3255ZM64.4371 81.3457C63.926 81.8568 63.2703 82.1124 62.4701 82.1124C61.6698 82.1124 61.0107 81.8568 60.4929 81.3457C59.9818 80.8279 59.7262 80.1923 59.7262 79.4391C59.7262 78.6926 59.9818 78.0605 60.4929 77.5427C61.0107 77.0248 61.6698 76.7659 62.4701 76.7659C63.2703 76.7659 63.926 77.0248 64.4371 77.5427C64.9482 78.0605 65.2038 78.6926 65.2038 79.4391C65.2038 80.1923 64.9482 80.8279 64.4371 81.3457Z" fill="#04005E"/>
<path d="M72.843 78.1479C72.843 78.3766 72.7791 78.5951 72.6513 78.8036C72.5235 79.0121 72.352 79.1802 72.1368 79.308C72.4193 79.4156 72.6412 79.5837 72.8026 79.8124C72.9707 80.041 73.0548 80.2966 73.0548 80.579C73.0548 80.9624 72.9169 81.2885 72.6412 81.5575C72.3722 81.8265 72.0191 81.961 71.582 81.961H68.7877V76.9172H71.461C71.8645 76.9172 72.194 77.0383 72.4495 77.2804C72.7118 77.5158 72.843 77.8049 72.843 78.1479ZM69.6855 81.2953H71.2693C71.5181 81.2953 71.7232 81.2246 71.8846 81.0834C72.046 80.9355 72.1267 80.7438 72.1267 80.5084C72.1267 80.2663 72.046 80.0713 71.8846 79.9233C71.7232 79.7687 71.5181 79.6913 71.2693 79.6913H69.6855V81.2953ZM71.9855 78.2791C71.9855 78.0706 71.9048 77.9058 71.7434 77.7848C71.5887 77.657 71.4004 77.5931 71.1785 77.5931H69.6855V79.0457H71.1785C71.4004 79.0457 71.5887 78.9717 71.7434 78.8238C71.9048 78.6758 71.9855 78.4943 71.9855 78.2791Z" fill="#04005E"/>
<path d="M77.5862 76.9172V80.7203C79.3145 78.4001 80.2594 77.1324 80.4208 76.9172H81.3489V81.961H80.441V78.1782L77.6165 81.961H76.6884V76.9172H77.5862Z" fill="#04005E"/>
<path d="M86.4892 79.7619H83.6545V81.961H82.7567V76.9172H83.6545V78.9448H86.4892V76.9172H87.397V81.961H86.4892V79.7619Z" fill="#04005E"/>
<path d="M92.7395 76.9172V77.7444H90.9439V81.961H90.0461V77.7444H88.2505V76.9172H92.7395Z" fill="#04005E"/>
<path d="M98.1297 79.2979C98.1297 79.3517 98.123 79.4324 98.1095 79.54H93.8526C93.8929 80.0511 94.0745 80.4815 94.3973 80.8312C94.7201 81.1742 95.174 81.3457 95.7591 81.3457C96.0416 81.3457 96.3307 81.2953 96.6267 81.1944C96.9226 81.0868 97.1747 80.9456 97.3832 80.7707L97.8069 81.3457C97.5513 81.5878 97.2319 81.7761 96.8486 81.9106C96.472 82.0451 96.0819 82.1124 95.6784 82.1124C94.9118 82.1124 94.2628 81.8702 93.7315 81.386C93.2002 80.9018 92.9346 80.2865 92.9346 79.54C92.9346 78.7734 93.1868 78.121 93.6912 77.583C94.2023 77.0383 94.821 76.7659 95.5473 76.7659C96.3543 76.7659 96.9865 77.0114 97.4438 77.5023C97.9011 77.9865 98.1297 78.585 98.1297 79.2979ZM97.242 78.8843C97.1747 78.4943 96.9932 78.1748 96.6973 77.926C96.4081 77.6704 96.0248 77.5427 95.5473 77.5427C95.1438 77.5427 94.7907 77.6671 94.4881 77.9159C94.1854 78.158 93.9837 78.4808 93.8828 78.8843H97.242Z" fill="#04005E"/>
<path d="M101.831 82.1124C101.119 82.1124 100.537 81.8433 100.086 81.3053V84.0189H99.1885V76.9172H100.086V77.583C100.544 77.0517 101.135 76.7861 101.862 76.7861C102.581 76.7861 103.176 77.045 103.647 77.5628C104.125 78.0807 104.363 78.7061 104.363 79.4391C104.363 80.1856 104.121 80.8178 103.637 81.3356C103.16 81.8534 102.558 82.1124 101.831 82.1124ZM101.569 77.5931C100.957 77.5931 100.463 77.8419 100.086 78.3396V80.5488C100.456 81.0464 100.95 81.2953 101.569 81.2953C102.08 81.2953 102.514 81.1137 102.87 80.7505C103.227 80.3874 103.405 79.9502 103.405 79.4391C103.405 78.9348 103.224 78.501 102.86 78.1378C102.504 77.7747 102.074 77.5931 101.569 77.5931Z" fill="#04005E"/>
<path d="M109.197 82.1124H108.905V84.0189H107.997V82.1124H107.694C106.961 82.1124 106.339 81.8501 105.828 81.3255C105.323 80.801 105.071 80.1722 105.071 79.4391C105.071 78.7061 105.327 78.0773 105.838 77.5527C106.349 77.0282 106.968 76.7659 107.694 76.7659H107.997V74.7988H108.905V76.7659H109.197C109.923 76.7659 110.542 77.0282 111.053 77.5527C111.564 78.0773 111.82 78.7061 111.82 79.4391C111.82 80.1789 111.564 80.811 111.053 81.3356C110.549 81.8534 109.93 82.1124 109.197 82.1124ZM109.056 81.2953C109.56 81.2953 109.991 81.1137 110.347 80.7505C110.71 80.3874 110.892 79.9502 110.892 79.4391C110.892 78.9348 110.71 78.501 110.347 78.1378C109.991 77.7747 109.56 77.5931 109.056 77.5931H108.905V81.2953H109.056ZM107.997 77.5931H107.835C107.331 77.5931 106.9 77.7747 106.544 78.1378C106.188 78.501 106.009 78.9348 106.009 79.4391C106.009 79.9502 106.188 80.3874 106.544 80.7505C106.9 81.1137 107.331 81.2953 107.835 81.2953H107.997V77.5931Z" fill="#04005E"/>
<path d="M117.724 79.2979C117.724 79.3517 117.717 79.4324 117.704 79.54H113.447C113.487 80.0511 113.669 80.4815 113.991 80.8312C114.314 81.1742 114.768 81.3457 115.353 81.3457C115.636 81.3457 115.925 81.2953 116.221 81.1944C116.517 81.0868 116.769 80.9456 116.977 80.7707L117.401 81.3457C117.145 81.5878 116.826 81.7761 116.443 81.9106C116.066 82.0451 115.676 82.1124 115.272 82.1124C114.506 82.1124 113.857 81.8702 113.326 81.386C112.794 80.9018 112.529 80.2865 112.529 79.54C112.529 78.7734 112.781 78.121 113.285 77.583C113.796 77.0383 114.415 76.7659 115.141 76.7659C115.948 76.7659 116.58 77.0114 117.038 77.5023C117.495 77.9865 117.724 78.585 117.724 79.2979ZM116.836 78.8843C116.769 78.4943 116.587 78.1748 116.291 77.926C116.002 77.6704 115.619 77.5427 115.141 77.5427C114.738 77.5427 114.385 77.6671 114.082 77.9159C113.779 78.158 113.578 78.4808 113.477 78.8843H116.836Z" fill="#04005E"/>
<path d="M119.761 75.1317C120.185 75.3335 120.639 75.4343 121.123 75.4343C121.607 75.4343 122.054 75.3335 122.465 75.1317L122.787 75.737C122.296 75.9791 121.742 76.1001 121.123 76.1001C120.497 76.1001 119.939 75.9791 119.448 75.737C119.522 75.6025 119.627 75.4007 119.761 75.1317ZM119.69 76.9172V80.7203C119.852 80.5051 120.797 79.2374 122.525 76.9172H123.453V81.961H122.545V78.1782L119.721 81.961H118.783V76.9172H119.69Z" fill="#04005E"/>
<path d="M125.385 79.4391C125.385 79.9637 125.553 80.4008 125.89 80.7505C126.226 81.0935 126.653 81.265 127.171 81.265C127.702 81.265 128.19 81.0733 128.633 80.69C128.654 80.7169 128.724 80.811 128.845 80.9725C128.973 81.1271 129.067 81.2482 129.128 81.3356C128.59 81.8534 127.927 82.1124 127.141 82.1124C126.401 82.1124 125.775 81.8467 125.264 81.3154C124.76 80.7841 124.508 80.1587 124.508 79.4391C124.508 78.7263 124.76 78.1042 125.264 77.5729C125.775 77.0349 126.401 76.7659 127.141 76.7659C127.921 76.7659 128.583 77.0282 129.128 77.5527C129.067 77.6402 128.973 77.7646 128.845 77.926C128.724 78.0807 128.654 78.1715 128.633 78.1984C128.19 77.815 127.702 77.6234 127.171 77.6234C126.666 77.6234 126.243 77.7982 125.9 78.1479C125.557 78.4976 125.385 78.928 125.385 79.4391Z" fill="#04005E"/>
<path d="M134.747 79.2979C134.747 79.3517 134.74 79.4324 134.726 79.54H130.469C130.51 80.0511 130.691 80.4815 131.014 80.8312C131.337 81.1742 131.791 81.3457 132.376 81.3457C132.658 81.3457 132.948 81.2953 133.244 81.1944C133.539 81.0868 133.792 80.9456 134 80.7707L134.424 81.3457C134.168 81.5878 133.849 81.7761 133.465 81.9106C133.089 82.0451 132.699 82.1124 132.295 82.1124C131.529 82.1124 130.88 81.8702 130.348 81.386C129.817 80.9018 129.551 80.2865 129.551 79.54C129.551 78.7734 129.804 78.121 130.308 77.583C130.819 77.0383 131.438 76.7659 132.164 76.7659C132.971 76.7659 133.603 77.0114 134.061 77.5023C134.518 77.9865 134.747 78.585 134.747 79.2979ZM133.859 78.8843C133.792 78.4943 133.61 78.1748 133.314 77.926C133.025 77.6704 132.642 77.5427 132.164 77.5427C131.761 77.5427 131.408 77.6671 131.105 77.9159C130.802 78.158 130.601 78.4808 130.5 78.8843H133.859Z" fill="#04005E"/>
<path d="M135.805 81.4365C135.805 81.2549 135.866 81.1036 135.987 80.9825C136.108 80.8548 136.259 80.7909 136.441 80.7909C136.616 80.7909 136.764 80.8548 136.885 80.9825C137.013 81.1103 137.076 81.2616 137.076 81.4365C137.076 81.6113 137.013 81.7593 136.885 81.8803C136.764 82.0014 136.616 82.0619 136.441 82.0619C136.259 82.0619 136.108 82.0014 135.987 81.8803C135.866 81.7593 135.805 81.6113 135.805 81.4365Z" fill="#04005E"/>
<path d="M144.265 74.8997L146.959 81.961H145.95L145.274 80.226H142.096L141.43 81.961H140.422L143.115 74.8997H144.265ZM143.69 76.0598L142.399 79.3786H144.971L143.69 76.0598Z" fill="#04005E"/>
<path d="M155.148 79.2979C155.148 79.3517 155.142 79.4324 155.128 79.54H150.871C150.912 80.0511 151.093 80.4815 151.416 80.8312C151.739 81.1742 152.193 81.3457 152.778 81.3457C153.06 81.3457 153.349 81.2953 153.645 81.1944C153.941 81.0868 154.193 80.9456 154.402 80.7707L154.826 81.3457C154.57 81.5878 154.251 81.7761 153.867 81.9106C153.491 82.0451 153.101 82.1124 152.697 82.1124C151.93 82.1124 151.281 81.8702 150.75 81.386C150.219 80.9018 149.953 80.2865 149.953 79.54C149.953 78.7734 150.205 78.121 150.71 77.583C151.221 77.0383 151.84 76.7659 152.566 76.7659C153.373 76.7659 154.005 77.0114 154.462 77.5023C154.92 77.9865 155.148 78.585 155.148 79.2979ZM154.261 78.8843C154.193 78.4943 154.012 78.1748 153.716 77.926C153.427 77.6704 153.043 77.5427 152.566 77.5427C152.162 77.5427 151.809 77.6671 151.507 77.9159C151.204 78.158 151.002 78.4808 150.902 78.8843H154.261Z" fill="#04005E"/>
<path d="M157.105 81.1742H159.324V76.9172H160.232V81.1742H162.451V76.9172H163.359V81.1742H164.176V83.2926H163.349V81.961H156.207V76.9172H157.105V81.1742Z" fill="#04005E"/>
<path d="M166.071 75.9993C165.97 75.8917 165.919 75.7605 165.919 75.6058C165.919 75.4512 165.97 75.32 166.071 75.2124C166.178 75.0981 166.309 75.0409 166.464 75.0409C166.619 75.0409 166.75 75.0981 166.857 75.2124C166.965 75.32 167.019 75.4512 167.019 75.6058C167.019 75.7605 166.965 75.8917 166.857 75.9993C166.75 76.1001 166.619 76.1506 166.464 76.1506C166.309 76.1506 166.178 76.1001 166.071 75.9993ZM168.138 75.9993C168.038 75.8917 167.987 75.7605 167.987 75.6058C167.987 75.4512 168.038 75.32 168.138 75.2124C168.246 75.0981 168.377 75.0409 168.532 75.0409C168.687 75.0409 168.818 75.0981 168.925 75.2124C169.033 75.32 169.087 75.4512 169.087 75.6058C169.087 75.7605 169.033 75.8917 168.925 75.9993C168.818 76.1001 168.687 76.1506 168.532 76.1506C168.377 76.1506 168.246 76.1001 168.138 75.9993ZM169.974 79.2979C169.974 79.3517 169.968 79.4324 169.954 79.54H165.697C165.738 80.0511 165.919 80.4815 166.242 80.8312C166.565 81.1742 167.019 81.3457 167.604 81.3457C167.886 81.3457 168.175 81.2953 168.471 81.1944C168.767 81.0868 169.019 80.9456 169.228 80.7707L169.652 81.3457C169.396 81.5878 169.077 81.7761 168.693 81.9106C168.317 82.0451 167.927 82.1124 167.523 82.1124C166.756 82.1124 166.108 81.8702 165.576 81.386C165.045 80.9018 164.779 80.2865 164.779 79.54C164.779 78.7734 165.032 78.121 165.536 77.583C166.047 77.0383 166.666 76.7659 167.392 76.7659C168.199 76.7659 168.831 77.0114 169.288 77.5023C169.746 77.9865 169.974 78.585 169.974 79.2979ZM169.087 78.8843C169.019 78.4943 168.838 78.1748 168.542 77.926C168.253 77.6704 167.869 77.5427 167.392 77.5427C166.988 77.5427 166.635 77.6671 166.333 77.9159C166.03 78.158 165.828 78.4808 165.728 78.8843H169.087Z" fill="#04005E"/>
<path d="M14.844 90.7877V94.5907C16.5723 92.2706 17.5172 91.0029 17.6786 90.7877H18.6066V95.8315H17.6988V92.0487L14.8742 95.8315H13.9462V90.7877H14.844Z" fill="#04005E"/>
<path d="M23.868 95.9828C23.3434 95.9828 22.9265 95.8551 22.6171 95.5995C22.3145 95.3439 22.1632 94.9942 22.1632 94.5504C22.1632 94.3285 22.2001 94.1334 22.2741 93.9653C22.3481 93.7905 22.4423 93.6459 22.5566 93.5315C22.6709 93.4172 22.8256 93.3197 23.0206 93.239C23.2224 93.1583 23.4107 93.0944 23.5855 93.0473C23.7671 93.0003 23.9957 92.9666 24.2715 92.9465C24.5539 92.9196 24.7927 92.9027 24.9877 92.896C25.1894 92.8893 25.445 92.8826 25.7544 92.8758V92.4622C25.7544 91.7359 25.3509 91.3728 24.5438 91.3728C23.9453 91.3728 23.4073 91.5846 22.9298 92.0083L22.4355 91.4535C23.0341 90.9088 23.7637 90.6364 24.6245 90.6364C25.0348 90.6364 25.3811 90.6902 25.6636 90.7978C25.9527 90.9054 26.1646 91.0533 26.2991 91.2416C26.4336 91.4232 26.5277 91.6048 26.5815 91.7864C26.6353 91.968 26.6622 92.163 26.6622 92.3715V95.8315H25.7544V94.9438C25.2029 95.6365 24.5741 95.9828 23.868 95.9828ZM24.0899 95.2868C24.7221 95.2868 25.2769 94.927 25.7544 94.2074V93.4609C25.1087 93.4609 24.5707 93.4979 24.1403 93.5719C24.0058 93.5921 23.8713 93.629 23.7368 93.6828C23.6023 93.7367 23.4645 93.8375 23.3232 93.9855C23.1887 94.1267 23.1215 94.2948 23.1215 94.4899C23.1215 94.7656 23.219 94.9673 23.414 95.0951C23.6158 95.2229 23.8411 95.2868 24.0899 95.2868Z" fill="#04005E"/>
<path d="M27.6212 92.4421V90.7877H28.519V92.3311C28.519 92.6674 28.6199 92.9162 28.8216 93.0776C29.0301 93.239 29.3058 93.3197 29.6488 93.3197C30.0523 93.3197 30.4995 93.2693 30.9905 93.1684V90.7877H31.8883V95.8315H30.9905V93.9653C30.4256 94.0595 29.9447 94.1065 29.5479 94.1065C28.9494 94.1065 28.4786 93.9687 28.1357 93.6929C27.7927 93.4105 27.6212 92.9935 27.6212 92.4421Z" fill="#04005E"/>
<path d="M34.2016 90.7877V94.5907C35.9299 92.2706 36.8748 91.0029 37.0362 90.7877H37.9642V95.8315H37.0563V92.0487L34.2318 95.8315H33.3038V90.7877H34.2016Z" fill="#04005E"/>
<path d="M43.4273 92.0184C43.4273 92.247 43.3634 92.4656 43.2356 92.6741C43.1079 92.8826 42.9364 93.0507 42.7212 93.1785C43.0036 93.2861 43.2256 93.4542 43.387 93.6828C43.5551 93.9115 43.6392 94.1671 43.6392 94.4495C43.6392 94.8328 43.5013 95.159 43.2256 95.428C42.9566 95.697 42.6035 95.8315 42.1664 95.8315H39.3721V90.7877H42.0453C42.4488 90.7877 42.7783 90.9088 43.0339 91.1509C43.2962 91.3862 43.4273 91.6754 43.4273 92.0184ZM40.2699 95.1657H41.8536C42.1025 95.1657 42.3076 95.0951 42.469 94.9539C42.6304 94.8059 42.7111 94.6143 42.7111 94.3789C42.7111 94.1368 42.6304 93.9418 42.469 93.7938C42.3076 93.6391 42.1025 93.5618 41.8536 93.5618H40.2699V95.1657ZM42.5699 92.1495C42.5699 91.9411 42.4892 91.7763 42.3278 91.6552C42.1731 91.5275 41.9848 91.4636 41.7629 91.4636H40.2699V92.9162H41.7629C41.9848 92.9162 42.1731 92.8422 42.3278 92.6943C42.4892 92.5463 42.5699 92.3647 42.5699 92.1495Z" fill="#04005E"/>
<path d="M48.1605 95.8315L45.7798 93.1986L48.0596 90.7877H49.1692L46.7885 93.1986L49.2701 95.8315H48.1605ZM44.7508 90.7877H45.6486V95.8315H44.7508V90.7877Z" fill="#04005E"/>
<path d="M50.9781 90.7877V94.5907C52.7065 92.2706 53.6513 91.0029 53.8128 90.7877H54.7408V95.8315H53.8329V92.0487L51.0084 95.8315H50.0803V90.7877H50.9781Z" fill="#04005E"/>
<path d="M59.6692 92.9162H60.4561C60.7049 92.9162 60.9201 92.8355 61.1017 92.6741C61.2833 92.5127 61.3741 92.3244 61.3741 92.1092C61.3741 91.6317 61.0445 91.393 60.3855 91.393C59.7937 91.393 59.3095 91.5914 58.9328 91.9881C58.8992 91.9478 58.8286 91.8637 58.721 91.7359C58.6134 91.6014 58.5327 91.4972 58.4789 91.4232C58.9631 90.8987 59.6188 90.6364 60.446 90.6364C61.0445 90.6364 61.4917 90.7642 61.7876 91.0197C62.0903 91.2753 62.2416 91.588 62.2416 91.9579C62.2416 92.2201 62.1609 92.4656 61.9995 92.6943C61.8381 92.9162 61.6195 93.0877 61.3438 93.2087C61.6599 93.3096 61.9053 93.4777 62.0802 93.7131C62.2618 93.9418 62.3526 94.1973 62.3526 94.4798C62.3526 94.8967 62.1844 95.2532 61.8482 95.5491C61.5186 95.8382 61.0042 95.9828 60.3048 95.9828C59.4843 95.9828 58.8051 95.7239 58.2671 95.2061L58.721 94.6513C59.1783 95.0548 59.6928 95.2565 60.2644 95.2565C60.641 95.2565 60.9268 95.1758 61.1219 95.0144C61.3236 94.853 61.4245 94.6479 61.4245 94.3991C61.4245 94.157 61.3337 93.9586 61.1521 93.8039C60.9773 93.6425 60.7486 93.5618 60.4662 93.5618H59.6692V92.9162Z" fill="#04005E"/>
<path d="M64.7898 95.9828C64.2653 95.9828 63.8483 95.8551 63.5389 95.5995C63.2363 95.3439 63.085 94.9942 63.085 94.5504C63.085 94.3285 63.122 94.1334 63.196 93.9653C63.2699 93.7905 63.3641 93.6459 63.4784 93.5315C63.5928 93.4172 63.7474 93.3197 63.9425 93.239C64.1442 93.1583 64.3325 93.0944 64.5074 93.0473C64.6889 93.0003 64.9176 92.9666 65.1933 92.9465C65.4758 92.9196 65.7145 92.9027 65.9095 92.896C66.1113 92.8893 66.3668 92.8826 66.6762 92.8758V92.4622C66.6762 91.7359 66.2727 91.3728 65.4657 91.3728C64.8672 91.3728 64.3291 91.5846 63.8517 92.0083L63.3574 91.4535C63.9559 90.9088 64.6856 90.6364 65.5464 90.6364C65.9566 90.6364 66.303 90.6902 66.5854 90.7978C66.8746 90.9054 67.0864 91.0533 67.2209 91.2416C67.3554 91.4232 67.4496 91.6048 67.5034 91.7864C67.5572 91.968 67.5841 92.163 67.5841 92.3715V95.8315H66.6762V94.9438C66.1247 95.6365 65.4959 95.9828 64.7898 95.9828ZM65.0117 95.2868C65.6439 95.2868 66.1987 94.927 66.6762 94.2074V93.4609C66.0306 93.4609 65.4926 93.4979 65.0622 93.5719C64.9277 93.5921 64.7932 93.629 64.6587 93.6828C64.5242 93.7367 64.3863 93.8375 64.2451 93.9855C64.1106 94.1267 64.0433 94.2948 64.0433 94.4899C64.0433 94.7656 64.1408 94.9673 64.3359 95.0951C64.5376 95.2229 64.7629 95.2868 65.0117 95.2868Z" fill="#04005E"/>
<path d="M73.8088 95.196C74.3333 95.196 74.7738 95.0144 75.1303 94.6513C75.4867 94.2814 75.6649 93.8342 75.6649 93.3096C75.6649 92.7985 75.4867 92.358 75.1303 91.9881C74.7738 91.6183 74.3333 91.4333 73.8088 91.4333C73.2842 91.4333 72.8404 91.6183 72.4772 91.9881C72.1208 92.358 71.9426 92.7985 71.9426 93.3096C71.9426 93.8342 72.1208 94.2814 72.4772 94.6513C72.8336 95.0144 73.2775 95.196 73.8088 95.196ZM75.7759 95.2162C75.2648 95.7273 74.6091 95.9828 73.8088 95.9828C73.0085 95.9828 72.3494 95.7273 71.8316 95.2162C71.3205 94.6983 71.0649 94.0628 71.0649 93.3096C71.0649 92.5631 71.3205 91.931 71.8316 91.4131C72.3494 90.8953 73.0085 90.6364 73.8088 90.6364C74.6091 90.6364 75.2648 90.8953 75.7759 91.4131C76.287 91.931 76.5425 92.5631 76.5425 93.3096C76.5425 94.0628 76.287 94.6983 75.7759 95.2162Z" fill="#04005E"/>
<path d="M81.3417 90.7877V91.6149H79.5461V95.8315H78.6483V91.6149H76.8527V90.7877H81.3417Z" fill="#04005E"/>
<path d="M85.9075 90.7877V91.6149H83.093V95.8315H82.1952V90.7877H85.9075Z" fill="#04005E"/>
<path d="M87.8514 95.9828C87.3269 95.9828 86.9099 95.8551 86.6006 95.5995C86.298 95.3439 86.1466 94.9942 86.1466 94.5504C86.1466 94.3285 86.1836 94.1334 86.2576 93.9653C86.3316 93.7905 86.4257 93.6459 86.5401 93.5315C86.6544 93.4172 86.8091 93.3197 87.0041 93.239C87.2058 93.1583 87.3941 93.0944 87.569 93.0473C87.7506 93.0003 87.9792 92.9666 88.255 92.9465C88.5374 92.9196 88.7761 92.9027 88.9712 92.896C89.1729 92.8893 89.4285 92.8826 89.7378 92.8758V92.4622C89.7378 91.7359 89.3343 91.3728 88.5273 91.3728C87.9288 91.3728 87.3908 91.5846 86.9133 92.0083L86.419 91.4535C87.0175 90.9088 87.7472 90.6364 88.608 90.6364C89.0182 90.6364 89.3646 90.6902 89.647 90.7978C89.9362 90.9054 90.1481 91.0533 90.2826 91.2416C90.4171 91.4232 90.5112 91.6048 90.565 91.7864C90.6188 91.968 90.6457 92.163 90.6457 92.3715V95.8315H89.7378V94.9438C89.1864 95.6365 88.5576 95.9828 87.8514 95.9828ZM88.0734 95.2868C88.7055 95.2868 89.2604 94.927 89.7378 94.2074V93.4609C89.0922 93.4609 88.5542 93.4979 88.1238 93.5719C87.9893 93.5921 87.8548 93.629 87.7203 93.6828C87.5858 93.7367 87.4479 93.8375 87.3067 93.9855C87.1722 94.1267 87.105 94.2948 87.105 94.4899C87.105 94.7656 87.2025 94.9673 87.3975 95.0951C87.5993 95.2229 87.8245 95.2868 88.0734 95.2868Z" fill="#04005E"/>
<path d="M92.2099 95.8315V97.2539H91.3827V95.0447H91.988C92.1898 94.7555 92.3579 94.3419 92.4924 93.8039C92.6269 93.2659 92.6941 92.6842 92.6941 92.0587V90.7877H96.4871V95.0447H97.2638V97.2539H96.3862V95.8315H92.2099ZM95.5792 95.0447V91.5846H93.5617V92.1495C93.5617 92.7144 93.5011 93.2693 93.3801 93.814C93.259 94.3587 93.1178 94.769 92.9564 95.0447H95.5792Z" fill="#04005E"/>
<path d="M99.5842 95.9828C99.0597 95.9828 98.6427 95.8551 98.3334 95.5995C98.0307 95.3439 97.8794 94.9942 97.8794 94.5504C97.8794 94.3285 97.9164 94.1334 97.9904 93.9653C98.0643 93.7905 98.1585 93.6459 98.2728 93.5315C98.3871 93.4172 98.5418 93.3197 98.7369 93.239C98.9386 93.1583 99.1269 93.0944 99.3018 93.0473C99.4833 93.0003 99.712 92.9666 99.9877 92.9465C100.27 92.9196 100.509 92.9027 100.704 92.896C100.906 92.8893 101.161 92.8826 101.471 92.8758V92.4622C101.471 91.7359 101.067 91.3728 100.26 91.3728C99.6616 91.3728 99.1236 91.5846 98.6461 92.0083L98.1518 91.4535C98.7503 90.9088 99.48 90.6364 100.341 90.6364C100.751 90.6364 101.097 90.6902 101.38 90.7978C101.669 90.9054 101.881 91.0533 102.015 91.2416C102.15 91.4232 102.244 91.6048 102.298 91.7864C102.352 91.968 102.378 92.163 102.378 92.3715V95.8315H101.471V94.9438C100.919 95.6365 100.29 95.9828 99.5842 95.9828ZM99.8061 95.2868C100.438 95.2868 100.993 94.927 101.471 94.2074V93.4609C100.825 93.4609 100.287 93.4979 99.8566 93.5719C99.7221 93.5921 99.5876 93.629 99.4531 93.6828C99.3186 93.7367 99.1807 93.8375 99.0395 93.9855C98.905 94.1267 98.8377 94.2948 98.8377 94.4899C98.8377 94.7656 98.9352 94.9673 99.1303 95.0951C99.332 95.2229 99.5573 95.2868 99.8061 95.2868Z" fill="#04005E"/>
<path d="M107.423 93.6324H104.588V95.8315H103.691V90.7877H104.588V92.8153H107.423V90.7877H108.331V95.8315H107.423V93.6324Z" fill="#04005E"/>
<path d="M113.472 93.6324H110.637V95.8315H109.739V90.7877H110.637V92.8153H113.472V90.7877H114.379V95.8315H113.472V93.6324Z" fill="#04005E"/>
<path d="M116.686 92.5934H118.229C118.754 92.5934 119.174 92.7548 119.49 93.0776C119.806 93.3937 119.964 93.7736 119.964 94.2175C119.964 94.6546 119.806 95.0346 119.49 95.3574C119.181 95.6735 118.76 95.8315 118.229 95.8315H115.788V90.7877H116.686V92.5934ZM116.686 95.0951H118.148C118.404 95.0951 118.616 95.0178 118.784 94.8631C118.959 94.7017 119.046 94.4865 119.046 94.2175C119.046 93.9485 118.959 93.7333 118.784 93.5719C118.616 93.4105 118.404 93.3298 118.148 93.3298H116.686V95.0951ZM120.62 95.8315V90.7877H121.528V95.8315H120.62Z" fill="#04005E"/>
<path d="M127.782 93.1684C127.782 93.2222 127.775 93.3029 127.762 93.4105H123.505C123.545 93.9216 123.727 94.352 124.049 94.7017C124.372 95.0447 124.826 95.2162 125.411 95.2162C125.694 95.2162 125.983 95.1657 126.279 95.0649C126.575 94.9573 126.827 94.816 127.035 94.6412L127.459 95.2162C127.203 95.4583 126.884 95.6466 126.501 95.7811C126.124 95.9156 125.734 95.9828 125.33 95.9828C124.564 95.9828 123.915 95.7407 123.384 95.2565C122.852 94.7723 122.587 94.157 122.587 93.4105C122.587 92.6438 122.839 91.9915 123.343 91.4535C123.854 90.9088 124.473 90.6364 125.199 90.6364C126.006 90.6364 126.639 90.8819 127.096 91.3728C127.553 91.857 127.782 92.4555 127.782 93.1684ZM126.894 92.7548C126.827 92.3647 126.645 92.0453 126.349 91.7965C126.06 91.5409 125.677 91.4131 125.199 91.4131C124.796 91.4131 124.443 91.5375 124.14 91.7864C123.838 92.0285 123.636 92.3513 123.535 92.7548H126.894Z" fill="#04005E"/>
<path d="M132.361 92.9162H133.148C133.397 92.9162 133.612 92.8355 133.794 92.6741C133.975 92.5127 134.066 92.3244 134.066 92.1092C134.066 91.6317 133.736 91.393 133.077 91.393C132.486 91.393 132.001 91.5914 131.625 91.9881C131.591 91.9478 131.521 91.8637 131.413 91.7359C131.305 91.6014 131.225 91.4972 131.171 91.4232C131.655 90.8987 132.311 90.6364 133.138 90.6364C133.736 90.6364 134.184 90.7642 134.48 91.0197C134.782 91.2753 134.934 91.588 134.934 91.9579C134.934 92.2201 134.853 92.4656 134.691 92.6943C134.53 92.9162 134.311 93.0877 134.036 93.2087C134.352 93.3096 134.597 93.4777 134.772 93.7131C134.954 93.9418 135.044 94.1973 135.044 94.4798C135.044 94.8967 134.876 95.2532 134.54 95.5491C134.211 95.8382 133.696 95.9828 132.997 95.9828C132.176 95.9828 131.497 95.7239 130.959 95.2061L131.413 94.6513C131.87 95.0548 132.385 95.2565 132.956 95.2565C133.333 95.2565 133.619 95.1758 133.814 95.0144C134.016 94.853 134.116 94.6479 134.116 94.3991C134.116 94.157 134.026 93.9586 133.844 93.8039C133.669 93.6425 133.441 93.5618 133.158 93.5618H132.361V92.9162Z" fill="#04005E"/>
<path d="M137.482 95.9828C136.957 95.9828 136.54 95.8551 136.231 95.5995C135.928 95.3439 135.777 94.9942 135.777 94.5504C135.777 94.3285 135.814 94.1334 135.888 93.9653C135.962 93.7905 136.056 93.6459 136.17 93.5315C136.285 93.4172 136.439 93.3197 136.634 93.239C136.836 93.1583 137.024 93.0944 137.199 93.0473C137.381 93.0003 137.61 92.9666 137.885 92.9465C138.168 92.9196 138.406 92.9027 138.601 92.896C138.803 92.8893 139.059 92.8826 139.368 92.8758V92.4622C139.368 91.7359 138.965 91.3728 138.158 91.3728C137.559 91.3728 137.021 91.5846 136.544 92.0083L136.049 91.4535C136.648 90.9088 137.378 90.6364 138.238 90.6364C138.649 90.6364 138.995 90.6902 139.277 90.7978C139.567 90.9054 139.778 91.0533 139.913 91.2416C140.047 91.4232 140.142 91.6048 140.195 91.7864C140.249 91.968 140.276 92.163 140.276 92.3715V95.8315H139.368V94.9438C138.817 95.6365 138.188 95.9828 137.482 95.9828ZM137.704 95.2868C138.336 95.2868 138.891 94.927 139.368 94.2074V93.4609C138.723 93.4609 138.185 93.4979 137.754 93.5719C137.62 93.5921 137.485 93.629 137.351 93.6828C137.216 93.7367 137.078 93.8375 136.937 93.9855C136.803 94.1267 136.735 94.2948 136.735 94.4899C136.735 94.7656 136.833 94.9673 137.028 95.0951C137.23 95.2229 137.455 95.2868 137.704 95.2868Z" fill="#04005E"/>
<path d="M145.3 90.7877V91.6149H142.486V95.8315H141.588V90.7877H145.3Z" fill="#04005E"/>
<path d="M147.244 95.9828C146.72 95.9828 146.303 95.8551 145.993 95.5995C145.691 95.3439 145.539 94.9942 145.539 94.5504C145.539 94.3285 145.576 94.1334 145.65 93.9653C145.724 93.7905 145.819 93.6459 145.933 93.5315C146.047 93.4172 146.202 93.3197 146.397 93.239C146.599 93.1583 146.787 93.0944 146.962 93.0473C147.143 93.0003 147.372 92.9666 147.648 92.9465C147.93 92.9196 148.169 92.9027 148.364 92.896C148.566 92.8893 148.821 92.8826 149.131 92.8758V92.4622C149.131 91.7359 148.727 91.3728 147.92 91.3728C147.322 91.3728 146.784 91.5846 146.306 92.0083L145.812 91.4535C146.41 90.9088 147.14 90.6364 148.001 90.6364C148.411 90.6364 148.757 90.6902 149.04 90.7978C149.329 90.9054 149.541 91.0533 149.675 91.2416C149.81 91.4232 149.904 91.6048 149.958 91.7864C150.012 91.968 150.039 92.163 150.039 92.3715V95.8315H149.131V94.9438C148.579 95.6365 147.95 95.9828 147.244 95.9828ZM147.466 95.2868C148.098 95.2868 148.653 94.927 149.131 94.2074V93.4609C148.485 93.4609 147.947 93.4979 147.517 93.5719C147.382 93.5921 147.248 93.629 147.113 93.6828C146.979 93.7367 146.841 93.8375 146.7 93.9855C146.565 94.1267 146.498 94.2948 146.498 94.4899C146.498 94.7656 146.595 94.9673 146.79 95.0951C146.992 95.2229 147.217 95.2868 147.466 95.2868Z" fill="#04005E"/>
<path d="M151.603 95.8315V97.2539H150.776V95.0447H151.381C151.583 94.7555 151.751 94.3419 151.885 93.8039C152.02 93.2659 152.087 92.6842 152.087 92.0587V90.7877H155.88V95.0447H156.657V97.2539H155.779V95.8315H151.603ZM154.972 95.0447V91.5846H152.954V92.1495C152.954 92.7144 152.894 93.2693 152.773 93.814C152.652 94.3587 152.511 94.769 152.349 95.0447H154.972Z" fill="#04005E"/>
<path d="M161.055 95.8315L158.674 93.1986L160.954 90.7877H162.064L159.683 93.1986L162.165 95.8315H161.055ZM157.645 90.7877H158.543V95.8315H157.645V90.7877Z" fill="#04005E"/>
<path d="M163.873 90.7877V94.5907C165.601 92.2706 166.546 91.0029 166.707 90.7877H167.635V95.8315H166.728V92.0487L163.903 95.8315H162.975V90.7877H163.873Z" fill="#04005E"/>
<path d="M169.043 95.307C169.043 95.1254 169.104 94.9741 169.225 94.853C169.346 94.7252 169.497 94.6614 169.679 94.6614C169.854 94.6614 170.002 94.7252 170.123 94.853C170.25 94.9808 170.314 95.1321 170.314 95.307C170.314 95.4818 170.25 95.6298 170.123 95.7508C170.002 95.8719 169.854 95.9324 169.679 95.9324C169.497 95.9324 169.346 95.8719 169.225 95.7508C169.104 95.6298 169.043 95.4818 169.043 95.307Z" fill="#04005E"/>
<path d="M16.2159 109.702H15.076L15.9536 107.906L13.3611 102.641H14.5111L16.5084 106.766L18.536 102.641H19.6457L16.2159 109.702Z" fill="#04005E"/>
<path d="M20.363 106.787H21.1498C21.3987 106.787 21.6139 106.706 21.7954 106.545C21.977 106.383 22.0678 106.195 22.0678 105.98C22.0678 105.502 21.7383 105.263 21.0792 105.263C20.4874 105.263 20.0032 105.462 19.6266 105.859C19.593 105.818 19.5224 105.734 19.4148 105.606C19.3072 105.472 19.2265 105.368 19.1727 105.294C19.6569 104.769 20.3126 104.507 21.1397 104.507C21.7383 104.507 22.1855 104.635 22.4814 104.89C22.784 105.146 22.9353 105.458 22.9353 105.828C22.9353 106.091 22.8546 106.336 22.6932 106.565C22.5318 106.787 22.3133 106.958 22.0375 107.079C22.3536 107.18 22.5991 107.348 22.7739 107.584C22.9555 107.812 23.0463 108.068 23.0463 108.35C23.0463 108.767 22.8782 109.124 22.5419 109.42C22.2124 109.709 21.6979 109.853 20.9985 109.853C20.1781 109.853 19.4988 109.594 18.9608 109.077L19.4148 108.522C19.8721 108.925 20.3865 109.127 20.9582 109.127C21.3348 109.127 21.6206 109.046 21.8156 108.885C22.0174 108.723 22.1182 108.518 22.1182 108.27C22.1182 108.027 22.0275 107.829 21.8459 107.674C21.671 107.513 21.4424 107.432 21.1599 107.432H20.363V106.787Z" fill="#04005E"/>
<path d="M27.8844 107.503H25.0498V109.702H24.152V104.658H25.0498V106.686H27.8844V104.658H28.7923V109.702H27.8844V107.503Z" fill="#04005E"/>
<path d="M31.5322 109.853C31.0076 109.853 30.5907 109.726 30.2813 109.47C29.9787 109.214 29.8274 108.865 29.8274 108.421C29.8274 108.199 29.8644 108.004 29.9384 107.836C30.0123 107.661 30.1065 107.516 30.2208 107.402C30.3351 107.288 30.4898 107.19 30.6848 107.109C30.8866 107.029 31.0749 106.965 31.2497 106.918C31.4313 106.871 31.66 106.837 31.9357 106.817C32.2182 106.79 32.4569 106.773 32.6519 106.766C32.8537 106.76 33.1092 106.753 33.4186 106.746V106.333C33.4186 105.606 33.0151 105.243 32.2081 105.243C31.6095 105.243 31.0715 105.455 30.594 105.879L30.0998 105.324C30.6983 104.779 31.428 104.507 32.2888 104.507C32.699 104.507 33.0453 104.561 33.3278 104.668C33.617 104.776 33.8288 104.924 33.9633 105.112C34.0978 105.294 34.192 105.475 34.2458 105.657C34.2996 105.838 34.3265 106.033 34.3265 106.242V109.702H33.4186V108.814C32.8671 109.507 32.2383 109.853 31.5322 109.853ZM31.7541 109.157C32.3863 109.157 32.9411 108.797 33.4186 108.078V107.331C32.773 107.331 32.235 107.368 31.8046 107.442C31.6701 107.463 31.5356 107.5 31.4011 107.553C31.2666 107.607 31.1287 107.708 30.9875 107.856C30.853 107.997 30.7857 108.165 30.7857 108.36C30.7857 108.636 30.8832 108.838 31.0783 108.966C31.28 109.093 31.5053 109.157 31.7541 109.157Z" fill="#04005E"/>
<path d="M39.6937 105.889C39.6937 106.118 39.6298 106.336 39.502 106.545C39.3743 106.753 39.2028 106.921 38.9876 107.049C39.27 107.157 39.492 107.325 39.6534 107.553C39.8215 107.782 39.9056 108.038 39.9056 108.32C39.9056 108.703 39.7677 109.029 39.492 109.298C39.223 109.567 38.8699 109.702 38.4328 109.702H35.6385V104.658H38.3117C38.7152 104.658 39.0447 104.779 39.3003 105.021C39.5626 105.257 39.6937 105.546 39.6937 105.889ZM36.5363 109.036H38.12C38.3689 109.036 38.574 108.966 38.7354 108.824C38.8968 108.676 38.9775 108.485 38.9775 108.249C38.9775 108.007 38.8968 107.812 38.7354 107.664C38.574 107.51 38.3689 107.432 38.12 107.432H36.5363V109.036ZM38.8363 106.02C38.8363 105.812 38.7556 105.647 38.5942 105.526C38.4395 105.398 38.2512 105.334 38.0293 105.334H36.5363V106.787H38.0293C38.2512 106.787 38.4395 106.713 38.5942 106.565C38.7556 106.417 38.8363 106.235 38.8363 106.02Z" fill="#04005E"/>
<path d="M42.3488 109.853C41.8242 109.853 41.4073 109.726 41.0979 109.47C40.7953 109.214 40.644 108.865 40.644 108.421C40.644 108.199 40.681 108.004 40.755 107.836C40.8289 107.661 40.9231 107.516 41.0374 107.402C41.1517 107.288 41.3064 107.19 41.5014 107.109C41.7032 107.029 41.8915 106.965 42.0663 106.918C42.2479 106.871 42.4766 106.837 42.7523 106.817C43.0348 106.79 43.2735 106.773 43.4685 106.766C43.6703 106.76 43.9258 106.753 44.2352 106.746V106.333C44.2352 105.606 43.8317 105.243 43.0247 105.243C42.4261 105.243 41.8881 105.455 41.4107 105.879L40.9164 105.324C41.5149 104.779 42.2446 104.507 43.1054 104.507C43.5156 104.507 43.8619 104.561 44.1444 104.668C44.4336 104.776 44.6454 104.924 44.7799 105.112C44.9144 105.294 45.0086 105.475 45.0624 105.657C45.1162 105.838 45.1431 106.033 45.1431 106.242V109.702H44.2352V108.814C43.6837 109.507 43.0549 109.853 42.3488 109.853ZM42.5707 109.157C43.2029 109.157 43.7577 108.797 44.2352 108.078V107.331C43.5896 107.331 43.0516 107.368 42.6212 107.442C42.4867 107.463 42.3522 107.5 42.2177 107.553C42.0832 107.607 41.9453 107.708 41.8041 107.856C41.6696 107.997 41.6023 108.165 41.6023 108.36C41.6023 108.636 41.6998 108.838 41.8949 108.966C42.0966 109.093 42.3219 109.157 42.5707 109.157Z" fill="#04005E"/>
<path d="M47.4336 102.873C47.8573 103.074 48.3112 103.175 48.7954 103.175C49.2796 103.175 49.7268 103.074 50.1371 102.873L50.4599 103.478C49.9689 103.72 49.4141 103.841 48.7954 103.841C48.17 103.841 47.6118 103.72 47.1209 103.478C47.1949 103.343 47.2991 103.142 47.4336 102.873ZM47.363 104.658V108.461C47.5244 108.246 48.4693 106.978 50.1976 104.658H51.1257V109.702H50.2178V105.919L47.3932 109.702H46.4551V104.658H47.363Z" fill="#04005E"/>
<path d="M55.953 104.658V108.461C57.6813 106.141 58.6262 104.873 58.7876 104.658H59.7157V109.702H58.8078V105.919L55.9832 109.702H55.0552V104.658H55.953Z" fill="#04005E"/>
<path d="M64.8559 107.503H62.0213V109.702H61.1235V104.658H62.0213V106.686H64.8559V104.658H65.7638V109.702H64.8559V107.503Z" fill="#04005E"/>
<path d="M71.1063 104.658V105.485H69.3107V109.702H68.4129V105.485H66.6173V104.658H71.1063Z" fill="#04005E"/>
<path d="M76.4965 107.039C76.4965 107.093 76.4898 107.173 76.4763 107.281H72.2193C72.2597 107.792 72.4413 108.222 72.7641 108.572C73.0869 108.915 73.5408 109.087 74.1259 109.087C74.4084 109.087 74.6975 109.036 74.9934 108.935C75.2893 108.828 75.5415 108.687 75.75 108.512L76.1737 109.087C75.9181 109.329 75.5987 109.517 75.2154 109.652C74.8388 109.786 74.4487 109.853 74.0452 109.853C73.2785 109.853 72.6296 109.611 72.0983 109.127C71.567 108.643 71.3014 108.027 71.3014 107.281C71.3014 106.514 71.5536 105.862 72.0579 105.324C72.569 104.779 73.1878 104.507 73.9141 104.507C74.7211 104.507 75.3532 104.752 75.8105 105.243C76.2678 105.727 76.4965 106.326 76.4965 107.039ZM75.6088 106.625C75.5415 106.235 75.36 105.916 75.0641 105.667C74.7749 105.411 74.3915 105.284 73.9141 105.284C73.5106 105.284 73.1575 105.408 72.8549 105.657C72.5522 105.899 72.3505 106.222 72.2496 106.625H75.6088Z" fill="#04005E"/>
<path d="M80.1983 109.853C79.4854 109.853 78.9037 109.584 78.4531 109.046V111.76H77.5553V104.658H78.4531V105.324C78.9104 104.793 79.5022 104.527 80.2285 104.527C80.9481 104.527 81.5433 104.786 82.014 105.304C82.4915 105.822 82.7302 106.447 82.7302 107.18C82.7302 107.927 82.4881 108.559 82.0039 109.077C81.5265 109.594 80.9246 109.853 80.1983 109.853ZM79.936 105.334C79.324 105.334 78.8297 105.583 78.4531 106.081V108.29C78.823 108.787 79.3173 109.036 79.936 109.036C80.4471 109.036 80.8809 108.855 81.2373 108.491C81.5937 108.128 81.7719 107.691 81.7719 107.18C81.7719 106.676 81.5903 106.242 81.2272 105.879C80.8708 105.516 80.4404 105.334 79.936 105.334Z" fill="#04005E"/>
<path d="M88.6332 107.039C88.6332 107.093 88.6264 107.173 88.613 107.281H84.356C84.3964 107.792 84.5779 108.222 84.9007 108.572C85.2235 108.915 85.6775 109.087 86.2626 109.087C86.545 109.087 86.8342 109.036 87.1301 108.935C87.426 108.828 87.6782 108.687 87.8867 108.512L88.3104 109.087C88.0548 109.329 87.7354 109.517 87.352 109.652C86.9754 109.786 86.5854 109.853 86.1819 109.853C85.4152 109.853 84.7662 109.611 84.235 109.127C83.7037 108.643 83.438 108.027 83.438 107.281C83.438 106.514 83.6902 105.862 84.1946 105.324C84.7057 104.779 85.3244 104.507 86.0507 104.507C86.8577 104.507 87.4899 104.752 87.9472 105.243C88.4045 105.727 88.6332 106.326 88.6332 107.039ZM87.7455 106.625C87.6782 106.235 87.4966 105.916 87.2007 105.667C86.9115 105.411 86.5282 105.284 86.0507 105.284C85.6472 105.284 85.2942 105.408 84.9915 105.657C84.6889 105.899 84.4872 106.222 84.3863 106.625H87.7455Z" fill="#04005E"/>
<path d="M90.2165 107.18C90.2165 107.705 90.3847 108.142 90.7209 108.491C91.0572 108.834 91.4842 109.006 92.002 109.006C92.5333 109.006 93.0209 108.814 93.4647 108.431C93.4849 108.458 93.5555 108.552 93.6766 108.713C93.8044 108.868 93.8985 108.989 93.959 109.077C93.421 109.594 92.7586 109.853 91.9718 109.853C91.232 109.853 90.6066 109.588 90.0955 109.056C89.5911 108.525 89.3389 107.9 89.3389 107.18C89.3389 106.467 89.5911 105.845 90.0955 105.314C90.6066 104.776 91.232 104.507 91.9718 104.507C92.7519 104.507 93.4143 104.769 93.959 105.294C93.8985 105.381 93.8044 105.506 93.6766 105.667C93.5555 105.822 93.4849 105.912 93.4647 105.939C93.0209 105.556 92.5333 105.364 92.002 105.364C91.4977 105.364 91.074 105.539 90.731 105.889C90.388 106.239 90.2165 106.669 90.2165 107.18Z" fill="#04005E"/>
<path d="M98.6652 107.503H95.8306V109.702H94.9328V104.658H95.8306V106.686H98.6652V104.658H99.5731V109.702H98.6652V107.503Z" fill="#04005E"/>
<path d="M101.879 106.464H103.423C103.947 106.464 104.368 106.625 104.684 106.948C105 107.264 105.158 107.644 105.158 108.088C105.158 108.525 105 108.905 104.684 109.228C104.374 109.544 103.954 109.702 103.423 109.702H100.981V104.658H101.879V106.464ZM101.879 108.966H103.342C103.597 108.966 103.809 108.888 103.977 108.734C104.152 108.572 104.24 108.357 104.24 108.088C104.24 107.819 104.152 107.604 103.977 107.442C103.809 107.281 103.597 107.2 103.342 107.2H101.879V108.966ZM105.813 109.702V104.658H106.721V109.702H105.813Z" fill="#04005E"/>
<path d="M112.975 107.039C112.975 107.093 112.969 107.173 112.955 107.281H108.698C108.739 107.792 108.92 108.222 109.243 108.572C109.566 108.915 110.02 109.087 110.605 109.087C110.887 109.087 111.176 109.036 111.472 108.935C111.768 108.828 112.02 108.687 112.229 108.512L112.653 109.087C112.397 109.329 112.078 109.517 111.694 109.652C111.318 109.786 110.928 109.853 110.524 109.853C109.757 109.853 109.109 109.611 108.577 109.127C108.046 108.643 107.78 108.027 107.78 107.281C107.78 106.514 108.033 105.862 108.537 105.324C109.048 104.779 109.667 104.507 110.393 104.507C111.2 104.507 111.832 104.752 112.289 105.243C112.747 105.727 112.975 106.326 112.975 107.039ZM112.088 106.625C112.02 106.235 111.839 105.916 111.543 105.667C111.254 105.411 110.87 105.284 110.393 105.284C109.99 105.284 109.636 105.408 109.334 105.657C109.031 105.899 108.829 106.222 108.729 106.625H112.088Z" fill="#04005E"/>
<path d="M120.329 109.853H120.036V111.76H119.129V109.853H118.826C118.093 109.853 117.471 109.591 116.96 109.066C116.455 108.542 116.203 107.913 116.203 107.18C116.203 106.447 116.459 105.818 116.97 105.294C117.481 104.769 118.1 104.507 118.826 104.507H119.129V102.54H120.036V104.507H120.329C121.055 104.507 121.674 104.769 122.185 105.294C122.696 105.818 122.952 106.447 122.952 107.18C122.952 107.92 122.696 108.552 122.185 109.077C121.681 109.594 121.062 109.853 120.329 109.853ZM120.188 109.036C120.692 109.036 121.122 108.855 121.479 108.491C121.842 108.128 122.024 107.691 122.024 107.18C122.024 106.676 121.842 106.242 121.479 105.879C121.122 105.516 120.692 105.334 120.188 105.334H120.036V109.036H120.188ZM119.129 105.334H118.967C118.463 105.334 118.032 105.516 117.676 105.879C117.319 106.242 117.141 106.676 117.141 107.18C117.141 107.691 117.319 108.128 117.676 108.491C118.032 108.855 118.463 109.036 118.967 109.036H119.129V105.334Z" fill="#04005E"/>
<path d="M125.345 109.853C124.821 109.853 124.404 109.726 124.094 109.47C123.792 109.214 123.64 108.865 123.64 108.421C123.64 108.199 123.677 108.004 123.751 107.836C123.825 107.661 123.919 107.516 124.034 107.402C124.148 107.288 124.303 107.19 124.498 107.109C124.699 107.029 124.888 106.965 125.063 106.918C125.244 106.871 125.473 106.837 125.749 106.817C126.031 106.79 126.27 106.773 126.465 106.766C126.667 106.76 126.922 106.753 127.231 106.746V106.333C127.231 105.606 126.828 105.243 126.021 105.243C125.422 105.243 124.884 105.455 124.407 105.879L123.913 105.324C124.511 104.779 125.241 104.507 126.102 104.507C126.512 104.507 126.858 104.561 127.141 104.668C127.43 104.776 127.642 104.924 127.776 105.112C127.911 105.294 128.005 105.475 128.059 105.657C128.112 105.838 128.139 106.033 128.139 106.242V109.702H127.231V108.814C126.68 109.507 126.051 109.853 125.345 109.853ZM125.567 109.157C126.199 109.157 126.754 108.797 127.231 108.078V107.331C126.586 107.331 126.048 107.368 125.617 107.442C125.483 107.463 125.348 107.5 125.214 107.553C125.079 107.607 124.942 107.708 124.8 107.856C124.666 107.997 124.599 108.165 124.599 108.36C124.599 108.636 124.696 108.838 124.891 108.966C125.093 109.093 125.318 109.157 125.567 109.157Z" fill="#04005E"/>
<path d="M132.861 109.702L130.48 107.069L132.76 104.658H133.87L131.489 107.069L133.971 109.702H132.861ZM129.451 104.658H130.349V109.702H129.451V104.658Z" fill="#04005E"/>
<path d="M138.715 104.658V105.485H136.919V109.702H136.022V105.485H134.226V104.658H138.715Z" fill="#04005E"/>
<path d="M140.466 106.464H142.01C142.534 106.464 142.955 106.625 143.271 106.948C143.587 107.264 143.745 107.644 143.745 108.088C143.745 108.525 143.587 108.905 143.271 109.228C142.961 109.544 142.541 109.702 142.01 109.702H139.569V104.658H140.466V106.464ZM140.466 108.966H141.929C142.185 108.966 142.396 108.888 142.565 108.734C142.739 108.572 142.827 108.357 142.827 108.088C142.827 107.819 142.739 107.604 142.565 107.442C142.396 107.281 142.185 107.2 141.929 107.2H140.466V108.966ZM144.401 109.702V104.658H145.308V109.702H144.401Z" fill="#04005E"/>
<path d="M150.14 104.658V108.461C151.869 106.141 152.813 104.873 152.975 104.658H153.903V109.702H152.995V105.919L150.17 109.702H149.242V104.658H150.14Z" fill="#04005E"/>
<path d="M156.309 106.787H157.096C157.345 106.787 157.56 106.706 157.742 106.545C157.923 106.383 158.014 106.195 158.014 105.98C158.014 105.502 157.685 105.263 157.026 105.263C156.434 105.263 155.95 105.462 155.573 105.859C155.539 105.818 155.469 105.734 155.361 105.606C155.254 105.472 155.173 105.368 155.119 105.294C155.603 104.769 156.259 104.507 157.086 104.507C157.685 104.507 158.132 104.635 158.428 104.89C158.73 105.146 158.882 105.458 158.882 105.828C158.882 106.091 158.801 106.336 158.64 106.565C158.478 106.787 158.26 106.958 157.984 107.079C158.3 107.18 158.546 107.348 158.72 107.584C158.902 107.812 158.993 108.068 158.993 108.35C158.993 108.767 158.825 109.124 158.488 109.42C158.159 109.709 157.644 109.853 156.945 109.853C156.124 109.853 155.445 109.594 154.907 109.077L155.361 108.522C155.818 108.925 156.333 109.127 156.905 109.127C157.281 109.127 157.567 109.046 157.762 108.885C157.964 108.723 158.065 108.518 158.065 108.27C158.065 108.027 157.974 107.829 157.792 107.674C157.617 107.513 157.389 107.432 157.106 107.432H156.309V106.787Z" fill="#04005E"/>
<path d="M16.6698 121.121C16.8985 120.785 17.228 120.304 17.6584 119.679C18.0888 119.053 18.3511 118.67 18.4452 118.529H19.4036V123.572H18.5058V119.81C18.3444 120.038 18.1729 120.284 17.9913 120.546C17.8097 120.808 17.608 121.101 17.386 121.424C17.1641 121.747 16.9926 121.995 16.8716 122.17H16.4681L14.844 119.81V123.572H13.9462V118.529H14.9045L16.6698 121.121Z" fill="#04005E"/>
<path d="M21.7102 118.529V122.332C23.4386 120.012 24.3835 118.744 24.5449 118.529H25.4729V123.572H24.565V119.79L21.7405 123.572H20.8124V118.529H21.7102Z" fill="#04005E"/>
<path d="M29.5237 123.724C28.8109 123.724 28.2292 123.455 27.7786 122.917V125.63H26.8808V118.529H27.7786V119.194C28.2359 118.663 28.8277 118.398 29.554 118.398C30.2736 118.398 30.8688 118.656 31.3395 119.174C31.817 119.692 32.0557 120.318 32.0557 121.051C32.0557 121.797 31.8136 122.429 31.3294 122.947C30.8519 123.465 30.25 123.724 29.5237 123.724ZM29.2615 119.205C28.6495 119.205 28.1552 119.453 27.7786 119.951V122.16C28.1485 122.658 28.6427 122.907 29.2615 122.907C29.7726 122.907 30.2063 122.725 30.5628 122.362C30.9192 121.999 31.0974 121.562 31.0974 121.051C31.0974 120.546 30.9158 120.112 30.5527 119.749C30.1962 119.386 29.7658 119.205 29.2615 119.205Z" fill="#04005E"/>
<path d="M34.4481 123.724C33.9236 123.724 33.5066 123.596 33.1973 123.34C32.8947 123.085 32.7433 122.735 32.7433 122.291C32.7433 122.069 32.7803 121.874 32.8543 121.706C32.9283 121.531 33.0224 121.387 33.1368 121.272C33.2511 121.158 33.4058 121.061 33.6008 120.98C33.8025 120.899 33.9908 120.835 34.1657 120.788C34.3473 120.741 34.5759 120.708 34.8517 120.687C35.1341 120.661 35.3728 120.644 35.5679 120.637C35.7696 120.63 36.0252 120.624 36.3345 120.617V120.203C36.3345 119.477 35.931 119.114 35.124 119.114C34.5255 119.114 33.9875 119.326 33.51 119.749L33.0157 119.194C33.6142 118.65 34.3439 118.377 35.2047 118.377C35.6149 118.377 35.9613 118.431 36.2437 118.539C36.5329 118.646 36.7448 118.794 36.8793 118.983C37.0138 119.164 37.1079 119.346 37.1617 119.527C37.2155 119.709 37.2424 119.904 37.2424 120.112V123.572H36.3345V122.685C35.7831 123.377 35.1543 123.724 34.4481 123.724ZM34.6701 123.028C35.3022 123.028 35.857 122.668 36.3345 121.948V121.202C35.6889 121.202 35.1509 121.239 34.7205 121.313C34.586 121.333 34.4515 121.37 34.317 121.424C34.1825 121.478 34.0446 121.578 33.9034 121.726C33.7689 121.868 33.7017 122.036 33.7017 122.231C33.7017 122.507 33.7992 122.708 33.9942 122.836C34.196 122.964 34.4212 123.028 34.6701 123.028Z" fill="#04005E"/>
<path d="M45.1316 119.759C45.1316 119.988 45.0677 120.207 44.9399 120.415C44.8121 120.624 44.6406 120.792 44.4254 120.919C44.7079 121.027 44.9298 121.195 45.0912 121.424C45.2593 121.652 45.3434 121.908 45.3434 122.19C45.3434 122.574 45.2055 122.9 44.9298 123.169C44.6608 123.438 44.3077 123.572 43.8706 123.572H41.0763V118.529H43.7496C44.1531 118.529 44.4826 118.65 44.7381 118.892C45.0004 119.127 45.1316 119.416 45.1316 119.759ZM41.9741 122.907H43.5579C43.8067 122.907 44.0118 122.836 44.1732 122.695C44.3346 122.547 44.4153 122.355 44.4153 122.12C44.4153 121.878 44.3346 121.683 44.1732 121.535C44.0118 121.38 43.8067 121.303 43.5579 121.303H41.9741V122.907ZM44.2741 119.89C44.2741 119.682 44.1934 119.517 44.032 119.396C43.8773 119.268 43.689 119.205 43.4671 119.205H41.9741V120.657H43.4671C43.689 120.657 43.8773 120.583 44.032 120.435C44.1934 120.287 44.2741 120.106 44.2741 119.89Z" fill="#04005E"/>
<path d="M47.3529 118.529V122.332C49.0812 120.012 50.0261 118.744 50.1875 118.529H51.1156V123.572H50.2077V119.79L47.3832 123.572H46.4551V118.529H47.3529Z" fill="#04005E"/>
<path d="M52.7756 123.572V124.995H51.9484V122.786H52.5537C52.7554 122.496 52.9236 122.083 53.0581 121.545C53.1926 121.007 53.2598 120.425 53.2598 119.8V118.529H57.0528V122.786H57.8295V124.995H56.9519V123.572H52.7756ZM56.1449 122.786V119.326H54.1274V119.89C54.1274 120.455 54.0668 121.01 53.9458 121.555C53.8247 122.1 53.6835 122.51 53.5221 122.786H56.1449Z" fill="#04005E"/>
<path d="M63.5619 120.909C63.5619 120.963 63.5552 121.044 63.5417 121.151H59.2847C59.3251 121.663 59.5067 122.093 59.8295 122.443C60.1523 122.786 60.6062 122.957 61.1913 122.957C61.4737 122.957 61.7629 122.907 62.0588 122.806C62.3547 122.698 62.6069 122.557 62.8154 122.382L63.2391 122.957C62.9835 123.199 62.6641 123.388 62.2808 123.522C61.9041 123.657 61.5141 123.724 61.1106 123.724C60.3439 123.724 59.695 123.482 59.1637 122.997C58.6324 122.513 58.3668 121.898 58.3668 121.151C58.3668 120.385 58.6189 119.732 59.1233 119.194C59.6344 118.65 60.2531 118.377 60.9795 118.377C61.7865 118.377 62.4186 118.623 62.8759 119.114C63.3332 119.598 63.5619 120.196 63.5619 120.909ZM62.6742 120.496C62.6069 120.106 62.4253 119.786 62.1294 119.537C61.8403 119.282 61.4569 119.154 60.9795 119.154C60.5759 119.154 60.2229 119.279 59.9203 119.527C59.6176 119.769 59.4159 120.092 59.315 120.496H62.6742Z" fill="#04005E"/>
<path d="M67.0115 122.937C67.536 122.937 67.9765 122.755 68.3329 122.392C68.6894 122.022 68.8676 121.575 68.8676 121.051C68.8676 120.539 68.6894 120.099 68.3329 119.729C67.9765 119.359 67.536 119.174 67.0115 119.174C66.4869 119.174 66.043 119.359 65.6799 119.729C65.3235 120.099 65.1452 120.539 65.1452 121.051C65.1452 121.575 65.3235 122.022 65.6799 122.392C66.0363 122.755 66.4802 122.937 67.0115 122.937ZM68.9785 122.957C68.4674 123.468 67.8117 123.724 67.0115 123.724C66.2112 123.724 65.5521 123.468 65.0343 122.957C64.5232 122.439 64.2676 121.804 64.2676 121.051C64.2676 120.304 64.5232 119.672 65.0343 119.154C65.5521 118.636 66.2112 118.377 67.0115 118.377C67.8117 118.377 68.4674 118.636 68.9785 119.154C69.4896 119.672 69.7452 120.304 69.7452 121.051C69.7452 121.804 69.4896 122.439 68.9785 122.957Z" fill="#04005E"/>
<path d="M70.7164 121.04V120.203H73.5309V121.04H70.7164Z" fill="#04005E"/>
<path d="M75.7637 118.529V122.332C77.4921 120.012 78.4369 118.744 78.5983 118.529H79.5264V123.572H78.6185V119.79L75.794 123.572H74.8659V118.529H75.7637Z" fill="#04005E"/>
<path d="M84.6465 118.529V119.356H81.8321V123.572H80.9343V118.529H84.6465Z" fill="#04005E"/>
<path d="M88.0989 123.724C87.386 123.724 86.8043 123.455 86.3538 122.917V125.63H85.456V118.529H86.3538V119.194C86.8111 118.663 87.4029 118.398 88.1292 118.398C88.8488 118.398 89.4439 118.656 89.9147 119.174C90.3922 119.692 90.6309 120.318 90.6309 121.051C90.6309 121.797 90.3888 122.429 89.9046 122.947C89.4271 123.465 88.8252 123.724 88.0989 123.724ZM87.8366 119.205C87.2247 119.205 86.7304 119.453 86.3538 119.951V122.16C86.7236 122.658 87.2179 122.907 87.8366 122.907C88.3477 122.907 88.7815 122.725 89.1379 122.362C89.4944 121.999 89.6726 121.562 89.6726 121.051C89.6726 120.546 89.491 120.112 89.1278 119.749C88.7714 119.386 88.341 119.205 87.8366 119.205Z" fill="#04005E"/>
<path d="M95.1115 118.529V122.332C96.8398 120.012 97.7847 118.744 97.9461 118.529H98.8741V123.572H97.9663V119.79L95.1417 123.572H94.2137V118.529H95.1115Z" fill="#04005E"/>
<path d="M106.556 119.326H103.702V123.572H102.804V118.529H107.464V123.572H106.556V119.326Z" fill="#04005E"/>
<path d="M111.263 122.937C111.788 122.937 112.228 122.755 112.584 122.392C112.941 122.022 113.119 121.575 113.119 121.051C113.119 120.539 112.941 120.099 112.584 119.729C112.228 119.359 111.788 119.174 111.263 119.174C110.738 119.174 110.295 119.359 109.931 119.729C109.575 120.099 109.397 120.539 109.397 121.051C109.397 121.575 109.575 122.022 109.931 122.392C110.288 122.755 110.732 122.937 111.263 122.937ZM113.23 122.957C112.719 123.468 112.063 123.724 111.263 123.724C110.463 123.724 109.804 123.468 109.286 122.957C108.775 122.439 108.519 121.804 108.519 121.051C108.519 120.304 108.775 119.672 109.286 119.154C109.804 118.636 110.463 118.377 111.263 118.377C112.063 118.377 112.719 118.636 113.23 119.154C113.741 119.672 113.997 120.304 113.997 121.051C113.997 121.804 113.741 122.439 113.23 122.957Z" fill="#04005E"/>
<path d="M114.148 123.572V122.836H114.491C114.807 122.836 115.026 122.675 115.147 122.352C115.268 122.029 115.328 121.437 115.328 120.576V118.529H119.313V123.572H118.405V119.326H116.226V120.808C116.226 122.651 115.681 123.572 114.592 123.572H114.148Z" fill="#04005E"/>
<path d="M125.374 118.529C125.037 119.315 124.53 120.499 123.85 122.08C123.171 123.653 122.663 124.837 122.327 125.63H121.379L122.246 123.562L120.108 118.529H121.117C121.829 120.264 122.368 121.565 122.731 122.433L124.385 118.529H125.374Z" fill="#04005E"/>
<path d="M125.818 120.183V118.529H126.716V120.072C126.716 120.408 126.817 120.657 127.018 120.819C127.227 120.98 127.502 121.061 127.845 121.061C128.249 121.061 128.696 121.01 129.187 120.909V118.529H130.085V123.572H129.187V121.706C128.622 121.8 128.141 121.847 127.745 121.847C127.146 121.847 126.675 121.71 126.332 121.434C125.989 121.151 125.818 120.734 125.818 120.183Z" fill="#04005E"/>
<path d="M132.832 123.724C132.307 123.724 131.89 123.596 131.581 123.34C131.278 123.085 131.127 122.735 131.127 122.291C131.127 122.069 131.164 121.874 131.238 121.706C131.312 121.531 131.406 121.387 131.521 121.272C131.635 121.158 131.79 121.061 131.985 120.98C132.186 120.899 132.375 120.835 132.55 120.788C132.731 120.741 132.96 120.708 133.235 120.687C133.518 120.661 133.757 120.644 133.952 120.637C134.153 120.63 134.409 120.624 134.718 120.617V120.203C134.718 119.477 134.315 119.114 133.508 119.114C132.909 119.114 132.371 119.326 131.894 119.749L131.4 119.194C131.998 118.65 132.728 118.377 133.589 118.377C133.999 118.377 134.345 118.431 134.628 118.539C134.917 118.646 135.129 118.794 135.263 118.983C135.398 119.164 135.492 119.346 135.546 119.527C135.599 119.709 135.626 119.904 135.626 120.112V123.572H134.718V122.685C134.167 123.377 133.538 123.724 132.832 123.724ZM133.054 123.028C133.686 123.028 134.241 122.668 134.718 121.948V121.202C134.073 121.202 133.535 121.239 133.104 121.313C132.97 121.333 132.835 121.37 132.701 121.424C132.566 121.478 132.428 121.578 132.287 121.726C132.153 121.868 132.086 122.036 132.086 122.231C132.086 122.507 132.183 122.708 132.378 122.836C132.58 122.964 132.805 123.028 133.054 123.028Z" fill="#04005E"/>
<path d="M137.917 116.743C138.34 116.945 138.794 117.046 139.279 117.046C139.763 117.046 140.21 116.945 140.62 116.743L140.943 117.348C140.452 117.591 139.897 117.712 139.279 117.712C138.653 117.712 138.095 117.591 137.604 117.348C137.678 117.214 137.782 117.012 137.917 116.743ZM137.846 118.529V122.332C138.008 122.116 138.952 120.849 140.681 118.529H141.609V123.572H140.701V119.79L137.876 123.572H136.938V118.529H137.846Z" fill="#04005E"/>
<path d="M150.189 117.016C149.9 117.083 149.573 117.153 149.21 117.227C148.854 117.301 148.565 117.358 148.343 117.399C148.128 117.439 147.889 117.493 147.627 117.56C147.371 117.627 147.169 117.698 147.021 117.772C146.873 117.846 146.719 117.944 146.557 118.065C146.403 118.186 146.281 118.327 146.194 118.488C146.113 118.65 146.043 118.848 145.982 119.083C145.922 119.319 145.885 119.591 145.871 119.901C146.053 119.484 146.339 119.164 146.729 118.942C147.119 118.72 147.539 118.609 147.99 118.609C148.716 118.609 149.325 118.835 149.816 119.285C150.313 119.729 150.562 120.334 150.562 121.101C150.562 121.861 150.32 122.49 149.836 122.987C149.358 123.478 148.713 123.724 147.899 123.724C147.025 123.724 146.352 123.448 145.881 122.897C145.417 122.345 145.185 121.558 145.185 120.536C145.185 120.099 145.199 119.716 145.226 119.386C145.259 119.057 145.316 118.767 145.397 118.519C145.485 118.263 145.572 118.051 145.659 117.883C145.747 117.708 145.878 117.554 146.053 117.419C146.234 117.278 146.403 117.17 146.557 117.096C146.712 117.016 146.93 116.935 147.213 116.854C147.502 116.773 147.761 116.71 147.99 116.662C148.218 116.609 148.531 116.538 148.928 116.451C149.331 116.356 149.691 116.269 150.007 116.188C150.122 116.699 150.182 116.975 150.189 117.016ZM147.889 122.947C148.4 122.947 148.82 122.776 149.15 122.433C149.479 122.083 149.644 121.652 149.644 121.141C149.644 120.59 149.469 120.156 149.119 119.84C148.776 119.517 148.366 119.356 147.889 119.356C147.411 119.356 147.001 119.517 146.658 119.84C146.315 120.156 146.144 120.59 146.144 121.141C146.144 121.652 146.305 122.083 146.628 122.433C146.951 122.776 147.371 122.947 147.889 122.947Z" fill="#04005E"/>
<path d="M152.948 123.724C152.424 123.724 152.007 123.596 151.697 123.34C151.395 123.085 151.243 122.735 151.243 122.291C151.243 122.069 151.28 121.874 151.354 121.706C151.428 121.531 151.522 121.387 151.637 121.272C151.751 121.158 151.906 121.061 152.101 120.98C152.303 120.899 152.491 120.835 152.666 120.788C152.847 120.741 153.076 120.708 153.352 120.687C153.634 120.661 153.873 120.644 154.068 120.637C154.27 120.63 154.525 120.624 154.835 120.617V120.203C154.835 119.477 154.431 119.114 153.624 119.114C153.025 119.114 152.487 119.326 152.01 119.749L151.516 119.194C152.114 118.65 152.844 118.377 153.705 118.377C154.115 118.377 154.461 118.431 154.744 118.539C155.033 118.646 155.245 118.794 155.379 118.983C155.514 119.164 155.608 119.346 155.662 119.527C155.715 119.709 155.742 119.904 155.742 120.112V123.572H154.835V122.685C154.283 123.377 153.654 123.724 152.948 123.724ZM153.17 123.028C153.802 123.028 154.357 122.668 154.835 121.948V121.202C154.189 121.202 153.651 121.239 153.22 121.313C153.086 121.333 152.951 121.37 152.817 121.424C152.682 121.478 152.545 121.578 152.403 121.726C152.269 121.868 152.202 122.036 152.202 122.231C152.202 122.507 152.299 122.708 152.494 122.836C152.696 122.964 152.921 123.028 153.17 123.028Z" fill="#04005E"/>
<path d="M156.449 123.572V122.836H156.792C157.108 122.836 157.327 122.675 157.448 122.352C157.569 122.029 157.629 121.437 157.629 120.576V118.529H161.614V123.572H160.706V119.326H158.527V120.808C158.527 122.651 157.982 123.572 156.893 123.572H156.449Z" fill="#04005E"/>
<path d="M162.419 123.572V122.836H162.762C163.078 122.836 163.297 122.675 163.418 122.352C163.539 122.029 163.599 121.437 163.599 120.576V118.529H167.584V123.572H166.676V119.326H164.497V120.808C164.497 122.651 163.952 123.572 162.863 123.572H162.419Z" fill="#04005E"/>
<path d="M169.892 120.334H171.435C171.96 120.334 172.38 120.496 172.696 120.819C173.012 121.135 173.17 121.515 173.17 121.958C173.17 122.396 173.012 122.776 172.696 123.098C172.387 123.414 171.967 123.572 171.435 123.572H168.994V118.529H169.892V120.334ZM169.892 122.836H171.355C171.61 122.836 171.822 122.759 171.99 122.604C172.165 122.443 172.252 122.227 172.252 121.958C172.252 121.689 172.165 121.474 171.99 121.313C171.822 121.151 171.61 121.071 171.355 121.071H169.892V122.836ZM173.826 123.572V118.529H174.734V123.572H173.826Z" fill="#04005E"/>
<path d="M263.844 26.7447L263.92 26.026H263.882L263.519 26.6766L262.747 27.9704H262.558L261.748 26.6691L261.4 26.026H261.363L261.453 26.7372V30.2628H260.841V24.9668H261.423L262.679 26.9793H262.694L263.905 24.9668H264.472V30.2628H263.844V26.7447Z" fill="#04005E"/>
<path d="M268.925 29.7862C268.835 29.8669 268.726 29.9425 268.6 30.0131C268.479 30.0837 268.345 30.1443 268.199 30.1947C268.053 30.2451 267.899 30.283 267.738 30.3082C267.581 30.3385 267.422 30.3536 267.261 30.3536C266.958 30.3536 266.691 30.3082 266.459 30.2174C266.227 30.1216 266.033 29.9879 265.876 29.8164C265.72 29.6399 265.602 29.4306 265.521 29.1885C265.44 28.9464 265.4 28.674 265.4 28.3714C265.4 28.0536 265.443 27.7712 265.528 27.524C265.619 27.2769 265.748 27.0701 265.914 26.9036C266.081 26.7372 266.282 26.6111 266.52 26.5253C266.757 26.4345 267.021 26.3892 267.314 26.3892C267.526 26.3892 267.735 26.4169 267.942 26.4724C268.149 26.5279 268.33 26.6338 268.487 26.7901C268.648 26.9414 268.772 27.1533 268.857 27.4257C268.943 27.693 268.973 28.041 268.948 28.4697H266.02C266.02 28.9237 266.141 29.2641 266.383 29.4911C266.63 29.713 266.958 29.824 267.367 29.824C267.503 29.824 267.637 29.8089 267.768 29.7786C267.904 29.7433 268.033 29.7029 268.154 29.6575C268.275 29.6121 268.381 29.5617 268.471 29.5062C268.567 29.4507 268.64 29.4003 268.691 29.3549L268.925 29.7862ZM267.329 26.8885C267.163 26.8885 267.004 26.9061 266.852 26.9414C266.706 26.9768 266.575 27.0373 266.459 27.123C266.348 27.2037 266.255 27.3122 266.179 27.4484C266.108 27.5795 266.063 27.7434 266.043 27.9401H268.396C268.371 27.6072 268.262 27.35 268.07 27.1684C267.884 26.9818 267.637 26.8885 267.329 26.8885Z" fill="#04005E"/>
<path d="M273.742 31.1707H273.227V30.2628H270.186V31.1707H269.671V29.7483H270.095C270.141 29.6928 270.201 29.5945 270.277 29.4533C270.352 29.307 270.426 29.1052 270.496 28.848C270.567 28.5857 270.63 28.2629 270.685 27.8796C270.741 27.4912 270.774 27.0247 270.784 26.4799H273.159V29.7483H273.742V31.1707ZM272.569 29.7559V26.9868H271.321C271.311 27.2037 271.291 27.4383 271.26 27.6905C271.235 27.9426 271.197 28.1948 271.147 28.447C271.096 28.6942 271.033 28.9312 270.958 29.1582C270.887 29.3852 270.804 29.5844 270.708 29.7559H272.569Z" fill="#04005E"/>
<path d="M277.302 27.8872L277.325 27.3878H277.302L275.176 30.2628H274.639V26.4799H275.229V28.9237L275.207 29.4003H275.237L277.348 26.4799H277.892V30.2628H277.302V27.8872Z" fill="#04005E"/>
<path d="M279.35 26.775C279.567 26.6489 279.811 26.5581 280.084 26.5026C280.356 26.4472 280.623 26.4194 280.886 26.4194C281.143 26.4194 281.352 26.4598 281.513 26.5405C281.68 26.6212 281.809 26.7271 281.899 26.8582C281.995 26.9843 282.058 27.1306 282.088 27.297C282.124 27.4584 282.141 27.6224 282.141 27.7888C282.141 27.9805 282.136 28.1847 282.126 28.4016C282.116 28.6185 282.109 28.8354 282.104 29.0523C282.104 29.3045 282.119 29.5441 282.149 29.771H282.656V30.2628H281.65L281.582 29.6954H281.544C281.513 29.7408 281.468 29.7988 281.408 29.8694C281.347 29.94 281.266 30.0106 281.165 30.0812C281.07 30.1468 280.951 30.2048 280.81 30.2552C280.669 30.3057 280.502 30.3309 280.311 30.3309C279.937 30.3309 279.642 30.2351 279.425 30.0434C279.208 29.8517 279.1 29.5894 279.1 29.2566C279.1 28.9993 279.155 28.785 279.266 28.6135C279.382 28.442 279.546 28.3108 279.758 28.2201C279.97 28.1293 280.225 28.0763 280.522 28.0612C280.825 28.046 281.163 28.0662 281.536 28.1217C281.561 27.8897 281.564 27.698 281.544 27.5467C281.529 27.3903 281.488 27.2668 281.423 27.176C281.362 27.0852 281.274 27.0221 281.158 26.9868C281.047 26.9465 280.908 26.9263 280.742 26.9263C280.515 26.9263 280.298 26.9591 280.091 27.0247C279.884 27.0852 279.7 27.1482 279.539 27.2138L279.35 26.775ZM280.462 29.824C280.603 29.824 280.734 29.8013 280.855 29.7559C280.976 29.7105 281.082 29.6525 281.173 29.5819C281.264 29.5113 281.339 29.4356 281.4 29.3549C281.46 29.2692 281.506 29.1885 281.536 29.1128V28.5832C281.274 28.5378 281.032 28.5151 280.81 28.5151C280.588 28.5151 280.396 28.5403 280.235 28.5908C280.073 28.6362 279.947 28.7093 279.857 28.8102C279.766 28.9111 279.72 29.0422 279.72 29.2036C279.72 29.37 279.776 29.5163 279.887 29.6424C280.003 29.7635 280.194 29.824 280.462 29.824Z" fill="#04005E"/>
<path d="M284.045 27.8039H286.632V28.3638H284.045V27.8039Z" fill="#04005E"/>
<path d="M290.927 27.0625C290.811 27.0221 290.685 26.9894 290.549 26.9641C290.417 26.9339 290.286 26.9188 290.155 26.9188C289.661 26.9188 289.293 27.0348 289.051 27.2668C288.808 27.4988 288.687 27.867 288.687 28.3714C288.687 28.5933 288.723 28.7925 288.793 28.9691C288.864 29.1405 288.965 29.2868 289.096 29.4079C289.227 29.5289 289.383 29.6222 289.565 29.6878C289.752 29.7534 289.956 29.7862 290.178 29.7862C290.415 29.7862 290.644 29.7458 290.866 29.6651C291.093 29.5844 291.282 29.4785 291.434 29.3473L291.699 29.7862C291.628 29.8467 291.54 29.9097 291.434 29.9753C291.328 30.0409 291.204 30.1039 291.063 30.1644C290.927 30.2199 290.773 30.2653 290.602 30.3006C290.435 30.3359 290.254 30.3536 290.057 30.3536C289.729 30.3536 289.439 30.3082 289.187 30.2174C288.94 30.1216 288.733 29.9879 288.566 29.8164C288.4 29.6399 288.274 29.4306 288.188 29.1885C288.102 28.9413 288.059 28.669 288.059 28.3714C288.059 28.0536 288.102 27.7712 288.188 27.524C288.279 27.2769 288.407 27.0701 288.574 26.9036C288.74 26.7372 288.942 26.6111 289.179 26.5253C289.416 26.4345 289.681 26.3892 289.974 26.3892C290.347 26.3892 290.649 26.4219 290.881 26.4875C291.119 26.5531 291.318 26.6262 291.479 26.7069L291.472 26.7296V27.7812H290.927V27.0625Z" fill="#04005E"/>
<path d="M296.144 29.7862C296.053 29.8669 295.945 29.9425 295.819 30.0131C295.698 30.0837 295.564 30.1443 295.418 30.1947C295.272 30.2451 295.118 30.283 294.956 30.3082C294.8 30.3385 294.641 30.3536 294.48 30.3536C294.177 30.3536 293.91 30.3082 293.678 30.2174C293.446 30.1216 293.252 29.9879 293.095 29.8164C292.939 29.6399 292.82 29.4306 292.74 29.1885C292.659 28.9464 292.619 28.674 292.619 28.3714C292.619 28.0536 292.661 27.7712 292.747 27.524C292.838 27.2769 292.967 27.0701 293.133 26.9036C293.3 26.7372 293.501 26.6111 293.738 26.5253C293.975 26.4345 294.24 26.3892 294.533 26.3892C294.745 26.3892 294.954 26.4169 295.161 26.4724C295.368 26.5279 295.549 26.6338 295.705 26.7901C295.867 26.9414 295.99 27.1533 296.076 27.4257C296.162 27.693 296.192 28.041 296.167 28.4697H293.239C293.239 28.9237 293.36 29.2641 293.602 29.4911C293.849 29.713 294.177 29.824 294.586 29.824C294.722 29.824 294.856 29.8089 294.987 29.7786C295.123 29.7433 295.251 29.7029 295.373 29.6575C295.494 29.6121 295.6 29.5617 295.69 29.5062C295.786 29.4507 295.859 29.4003 295.91 29.3549L296.144 29.7862ZM294.548 26.8885C294.381 26.8885 294.223 26.9061 294.071 26.9414C293.925 26.9768 293.794 27.0373 293.678 27.123C293.567 27.2037 293.474 27.3122 293.398 27.4484C293.327 27.5795 293.282 27.7434 293.262 27.9401H295.615C295.589 27.6072 295.481 27.35 295.289 27.1684C295.103 26.9818 294.856 26.8885 294.548 26.8885Z" fill="#04005E"/>
<path d="M297.405 27.8039C297.405 27.7585 297.402 27.7005 297.397 27.6299C297.397 27.5543 297.395 27.4786 297.39 27.403C297.385 27.3223 297.377 27.2441 297.367 27.1684C297.362 27.0928 297.354 27.0272 297.344 26.9717H296.837V26.4799H297.844L297.919 27.0095H297.957C298.093 26.833 298.265 26.6867 298.472 26.5707C298.683 26.4497 298.941 26.3892 299.243 26.3892C299.783 26.3892 300.189 26.5379 300.461 26.8355C300.734 27.1331 300.87 27.6198 300.87 28.2957C300.87 28.6135 300.822 28.901 300.726 29.1582C300.635 29.4104 300.504 29.6248 300.333 29.8013C300.161 29.9778 299.954 30.114 299.712 30.2098C299.47 30.3057 299.203 30.3536 298.91 30.3536C298.804 30.3536 298.709 30.3485 298.623 30.3385C298.542 30.3334 298.466 30.3233 298.396 30.3082C298.33 30.2981 298.265 30.283 298.199 30.2628C298.134 30.2426 298.063 30.2174 297.987 30.1871V31.7759H297.405V27.8039ZM299.145 26.9414C298.994 26.9414 298.85 26.9692 298.714 27.0247C298.583 27.0802 298.464 27.1533 298.358 27.2441C298.257 27.3349 298.174 27.4357 298.108 27.5467C298.043 27.6577 298.002 27.7686 297.987 27.8796V29.6046C298.098 29.6802 298.222 29.7408 298.358 29.7862C298.499 29.8265 298.683 29.8467 298.91 29.8467C299.314 29.8467 299.637 29.7155 299.879 29.4533C300.121 29.1859 300.242 28.7976 300.242 28.2881C300.242 27.8594 300.156 27.5291 299.985 27.297C299.818 27.06 299.538 26.9414 299.145 26.9414Z" fill="#04005E"/>
<path d="M302.123 26.4875C302.219 26.4825 302.314 26.4774 302.41 26.4724C302.506 26.4623 302.61 26.4547 302.721 26.4497C302.831 26.4446 302.95 26.4396 303.076 26.4345C303.207 26.4295 303.354 26.427 303.515 26.427C304.06 26.427 304.453 26.5052 304.695 26.6615C304.937 26.8128 305.058 27.0423 305.058 27.35C305.058 27.5265 305 27.7031 304.884 27.8796C304.768 28.0511 304.579 28.1747 304.317 28.2503V28.2806C304.65 28.3361 304.884 28.4395 305.02 28.5908C305.157 28.737 305.225 28.9388 305.225 29.196C305.225 29.5894 305.063 29.8744 304.741 30.051C304.423 30.2275 303.959 30.3158 303.348 30.3158C303.106 30.3158 302.889 30.3082 302.698 30.2931C302.506 30.283 302.314 30.2704 302.123 30.2552V26.4875ZM302.705 29.7862C302.821 29.7962 302.937 29.8038 303.053 29.8089C303.169 29.8139 303.301 29.8164 303.447 29.8164C303.84 29.8164 304.133 29.7685 304.324 29.6727C304.521 29.5718 304.62 29.4003 304.62 29.1582C304.62 29.0624 304.599 28.9766 304.559 28.901C304.524 28.8253 304.461 28.7597 304.37 28.7043C304.284 28.6488 304.171 28.6059 304.029 28.5756C303.888 28.5454 303.712 28.5302 303.5 28.5302H302.705V29.7862ZM303.606 28.0763C303.707 28.0763 303.807 28.0612 303.908 28.0309C304.009 27.9956 304.1 27.9527 304.181 27.9023C304.266 27.8468 304.335 27.7838 304.385 27.7132C304.435 27.6375 304.461 27.5593 304.461 27.4786C304.461 27.2718 304.385 27.1281 304.234 27.0474C304.087 26.9667 303.84 26.9263 303.492 26.9263C303.301 26.9263 303.147 26.9288 303.031 26.9339C302.92 26.9389 302.811 26.944 302.705 26.949V28.0763H303.606Z" fill="#04005E"/>
<path d="M309.058 27.8872L309.08 27.3878H309.058L306.932 30.2628H306.394V26.4799H306.985V28.9237L306.962 29.4003H306.992L309.103 26.4799H309.648V30.2628H309.058V27.8872Z" fill="#04005E"/>
<path d="M313.609 27.0625C313.493 27.0221 313.367 26.9894 313.231 26.9641C313.1 26.9339 312.969 26.9188 312.838 26.9188C312.343 26.9188 311.975 27.0348 311.733 27.2668C311.491 27.4988 311.37 27.867 311.37 28.3714C311.37 28.5933 311.405 28.7925 311.476 28.9691C311.546 29.1405 311.647 29.2868 311.778 29.4079C311.909 29.5289 312.066 29.6222 312.247 29.6878C312.434 29.7534 312.638 29.7862 312.86 29.7862C313.097 29.7862 313.327 29.7458 313.549 29.6651C313.776 29.5844 313.965 29.4785 314.116 29.3473L314.381 29.7862C314.31 29.8467 314.222 29.9097 314.116 29.9753C314.01 30.0409 313.887 30.1039 313.745 30.1644C313.609 30.2199 313.455 30.2653 313.284 30.3006C313.117 30.3359 312.936 30.3536 312.739 30.3536C312.411 30.3536 312.121 30.3082 311.869 30.2174C311.622 30.1216 311.415 29.9879 311.249 29.8164C311.082 29.6399 310.956 29.4306 310.87 29.1885C310.785 28.9413 310.742 28.669 310.742 28.3714C310.742 28.0536 310.785 27.7712 310.87 27.524C310.961 27.2769 311.09 27.0701 311.256 26.9036C311.423 26.7372 311.624 26.6111 311.862 26.5253C312.099 26.4345 312.363 26.3892 312.656 26.3892C313.029 26.3892 313.332 26.4219 313.564 26.4875C313.801 26.5531 314 26.6262 314.162 26.7069L314.154 26.7296V27.7812H313.609V27.0625Z" fill="#04005E"/>
<path d="M264.669 41.2583H264.154V40.3504H261.113V41.2583H260.599V39.8359H261.022C261.068 39.7805 261.128 39.6821 261.204 39.5409C261.279 39.3946 261.353 39.1929 261.423 38.9356C261.494 38.6734 261.557 38.3505 261.612 37.9672C261.668 37.5788 261.701 37.1123 261.711 36.5676H264.086V39.8359H264.669V41.2583ZM263.496 39.8435V37.0745H262.248C262.238 37.2913 262.218 37.5259 262.187 37.7781C262.162 38.0303 262.124 38.2825 262.074 38.5346C262.023 38.7818 261.96 39.0189 261.885 39.2458C261.814 39.4728 261.731 39.672 261.635 39.8435H263.496Z" fill="#04005E"/>
<path d="M268.146 37.082H266.837C266.817 37.541 266.792 37.9723 266.762 38.3758C266.731 38.7742 266.673 39.1222 266.588 39.4198C266.507 39.7174 266.388 39.952 266.232 40.1234C266.081 40.2949 265.874 40.3807 265.612 40.3807C265.511 40.3807 265.438 40.3756 265.392 40.3655C265.347 40.3555 265.291 40.3378 265.226 40.3126L265.324 39.7527C265.42 39.7779 265.508 39.7906 265.589 39.7906C265.675 39.7906 265.75 39.7603 265.816 39.6998C265.881 39.6392 265.939 39.5434 265.99 39.4123C266.045 39.2761 266.091 39.0869 266.126 38.8448C266.166 38.5977 266.199 38.29 266.224 37.9218C266.25 37.5486 266.27 37.0972 266.285 36.5676H268.736V40.3504H268.146V37.082Z" fill="#04005E"/>
<path d="M272.562 38.8751H271.654L270.7 40.3504H269.944V39.8435H270.337L271.026 38.8146C270.93 38.7894 270.837 38.749 270.746 38.6935C270.655 38.633 270.572 38.5599 270.496 38.4741C270.426 38.3833 270.368 38.2799 270.322 38.1639C270.282 38.0429 270.262 37.9092 270.262 37.7629C270.262 37.536 270.307 37.3418 270.398 37.1804C270.489 37.0139 270.615 36.8778 270.776 36.7718C270.937 36.6659 271.129 36.5903 271.351 36.5449C271.573 36.4944 271.818 36.4692 272.085 36.4692C272.277 36.4692 272.458 36.4843 272.63 36.5146C272.801 36.5398 272.975 36.5676 273.152 36.5978V40.3504H272.562V38.8751ZM272.562 38.4212V37.0745C272.491 37.0492 272.408 37.0265 272.312 37.0064C272.216 36.9862 272.133 36.9761 272.062 36.9761C271.679 36.9761 271.386 37.0366 271.185 37.1577C270.983 37.2737 270.882 37.4603 270.882 37.7175C270.882 37.9243 270.942 38.0857 271.064 38.2018C271.185 38.3127 271.331 38.3859 271.502 38.4212H272.562Z" fill="#04005E"/>
<path d="M279.304 40.3504V39.8435H279.788V37.082H279.304V36.5676H282.361V37.9823H281.846V37.082H280.379V39.8435H281.529V40.3504H279.304Z" fill="#04005E"/>
<path d="M287.071 39.8738C286.981 39.9545 286.872 40.0301 286.746 40.1007C286.625 40.1714 286.491 40.2319 286.345 40.2823C286.199 40.3328 286.045 40.3706 285.883 40.3958C285.727 40.4261 285.568 40.4412 285.407 40.4412C285.104 40.4412 284.837 40.3958 284.605 40.305C284.373 40.2092 284.179 40.0755 284.022 39.904C283.866 39.7275 283.747 39.5182 283.667 39.2761C283.586 39.034 283.546 38.7616 283.546 38.459C283.546 38.1412 283.589 37.8588 283.674 37.6116C283.765 37.3645 283.894 37.1577 284.06 36.9912C284.227 36.8248 284.428 36.6987 284.665 36.613C284.902 36.5222 285.167 36.4768 285.46 36.4768C285.672 36.4768 285.881 36.5045 286.088 36.56C286.295 36.6155 286.476 36.7214 286.632 36.8778C286.794 37.0291 286.917 37.2409 287.003 37.5133C287.089 37.7806 287.119 38.1286 287.094 38.5573H284.166C284.166 39.0113 284.287 39.3517 284.529 39.5787C284.776 39.8006 285.104 39.9116 285.513 39.9116C285.649 39.9116 285.783 39.8965 285.914 39.8662C286.05 39.8309 286.179 39.7906 286.3 39.7452C286.421 39.6998 286.527 39.6493 286.617 39.5938C286.713 39.5384 286.786 39.4879 286.837 39.4425L287.071 39.8738ZM285.475 36.9761C285.308 36.9761 285.15 36.9938 284.998 37.0291C284.852 37.0644 284.721 37.1249 284.605 37.2106C284.494 37.2913 284.401 37.3998 284.325 37.536C284.254 37.6671 284.209 37.831 284.189 38.0277H286.542C286.516 37.6949 286.408 37.4376 286.216 37.256C286.03 37.0694 285.783 36.9761 285.475 36.9761Z" fill="#04005E"/>
<path d="M290.912 37.9748L290.934 37.4754H290.912L288.786 40.3504H288.249V36.5676H288.839V39.0113L288.816 39.4879H288.846L290.957 36.5676H291.502V40.3504H290.912V37.9748ZM289.232 35.0393C289.283 35.2713 289.368 35.4327 289.489 35.5235C289.615 35.6143 289.759 35.6597 289.921 35.6597C290.082 35.6597 290.226 35.6118 290.352 35.5159C290.478 35.4201 290.564 35.2637 290.609 35.0469L291.063 35.1906C291.018 35.4831 290.887 35.7076 290.67 35.8639C290.458 36.0203 290.203 36.0985 289.905 36.0985C289.769 36.0985 289.633 36.0808 289.497 36.0455C289.366 36.0102 289.247 35.9573 289.141 35.8866C289.035 35.816 288.945 35.7252 288.869 35.6143C288.793 35.5033 288.743 35.3722 288.718 35.2209L289.232 35.0393Z" fill="#04005E"/>
<path d="M295.607 38.1034L295.622 37.5662H295.584L294.495 39.2988H294.283L293.178 37.5662H293.148L293.186 38.0958V40.3504H292.626V36.5676H293.224L294.427 38.4666H294.442L295.592 36.5676H296.197V40.3504H295.607V38.1034Z" fill="#04005E"/>
<path d="M300.681 39.8738C300.59 39.9545 300.481 40.0301 300.355 40.1007C300.234 40.1714 300.101 40.2319 299.954 40.2823C299.808 40.3328 299.654 40.3706 299.493 40.3958C299.337 40.4261 299.178 40.4412 299.016 40.4412C298.714 40.4412 298.446 40.3958 298.214 40.305C297.982 40.2092 297.788 40.0755 297.632 39.904C297.475 39.7275 297.357 39.5182 297.276 39.2761C297.195 39.034 297.155 38.7616 297.155 38.459C297.155 38.1412 297.198 37.8588 297.284 37.6116C297.375 37.3645 297.503 37.1577 297.67 36.9912C297.836 36.8248 298.038 36.6987 298.275 36.613C298.512 36.5222 298.777 36.4768 299.069 36.4768C299.281 36.4768 299.49 36.5045 299.697 36.56C299.904 36.6155 300.086 36.7214 300.242 36.8778C300.403 37.0291 300.527 37.2409 300.613 37.5133C300.698 37.7806 300.729 38.1286 300.703 38.5573H297.775C297.775 39.0113 297.897 39.3517 298.139 39.5787C298.386 39.8006 298.714 39.9116 299.122 39.9116C299.258 39.9116 299.392 39.8965 299.523 39.8662C299.659 39.8309 299.788 39.7906 299.909 39.7452C300.03 39.6998 300.136 39.6493 300.227 39.5938C300.323 39.5384 300.396 39.4879 300.446 39.4425L300.681 39.8738ZM299.084 36.9761C298.918 36.9761 298.759 36.9938 298.608 37.0291C298.461 37.0644 298.33 37.1249 298.214 37.2106C298.103 37.2913 298.01 37.3998 297.934 37.536C297.864 37.6671 297.818 37.831 297.798 38.0277H300.151C300.126 37.6949 300.017 37.4376 299.826 37.256C299.639 37.0694 299.392 36.9761 299.084 36.9761Z" fill="#04005E"/>
<path d="M301.941 37.8916C301.941 37.8462 301.939 37.7882 301.934 37.7175C301.934 37.6419 301.931 37.5662 301.926 37.4906C301.921 37.4099 301.914 37.3317 301.903 37.256C301.898 37.1804 301.891 37.1148 301.881 37.0593H301.374V36.5676H302.38L302.456 37.0972H302.494C302.63 36.9206 302.801 36.7744 303.008 36.6583C303.22 36.5373 303.477 36.4768 303.78 36.4768C304.319 36.4768 304.725 36.6256 304.998 36.9231C305.27 37.2207 305.406 37.7075 305.406 38.3833C305.406 38.7011 305.358 38.9886 305.263 39.2458C305.172 39.498 305.041 39.7124 304.869 39.8889C304.698 40.0654 304.491 40.2016 304.249 40.2975C304.007 40.3933 303.739 40.4412 303.447 40.4412C303.341 40.4412 303.245 40.4362 303.159 40.4261C303.079 40.421 303.003 40.4109 302.932 40.3958C302.867 40.3857 302.801 40.3706 302.736 40.3504C302.67 40.3302 302.599 40.305 302.524 40.2748V41.8636H301.941V37.8916ZM303.681 37.0291C303.53 37.0291 303.386 37.0568 303.25 37.1123C303.119 37.1678 303 37.2409 302.895 37.3317C302.794 37.4225 302.71 37.5234 302.645 37.6343C302.579 37.7453 302.539 37.8563 302.524 37.9672V39.6922C302.635 39.7679 302.758 39.8284 302.895 39.8738C303.036 39.9141 303.22 39.9343 303.447 39.9343C303.85 39.9343 304.173 39.8032 304.415 39.5409C304.657 39.2736 304.778 38.8852 304.778 38.3758C304.778 37.947 304.693 37.6167 304.521 37.3847C304.355 37.1476 304.075 37.0291 303.681 37.0291Z" fill="#04005E"/>
<path d="M306.183 38.459C306.183 37.8487 306.342 37.367 306.659 37.0139C306.977 36.6558 307.431 36.4768 308.021 36.4768C308.339 36.4768 308.611 36.5297 308.838 36.6357C309.07 36.7365 309.262 36.8752 309.413 37.0518C309.565 37.2283 309.675 37.4376 309.746 37.6797C309.822 37.9218 309.86 38.1816 309.86 38.459C309.86 38.7616 309.819 39.0365 309.739 39.2837C309.658 39.5258 309.539 39.7326 309.383 39.904C309.227 40.0755 309.032 40.2092 308.8 40.305C308.573 40.3958 308.314 40.4412 308.021 40.4412C307.708 40.4412 307.436 40.3908 307.204 40.2899C306.972 40.184 306.78 40.0427 306.629 39.8662C306.478 39.6897 306.364 39.4804 306.289 39.2383C306.218 38.9962 306.183 38.7364 306.183 38.459ZM306.811 38.459C306.811 38.6355 306.831 38.8121 306.871 38.9886C306.917 39.1651 306.987 39.324 307.083 39.4652C307.179 39.6065 307.302 39.7199 307.454 39.8057C307.61 39.8914 307.799 39.9343 308.021 39.9343C308.425 39.9343 308.727 39.8107 308.929 39.5636C309.136 39.3114 309.239 38.9432 309.239 38.459C309.239 38.2774 309.217 38.1009 309.171 37.9294C309.131 37.7529 309.06 37.594 308.959 37.4527C308.863 37.3115 308.737 37.198 308.581 37.1123C308.43 37.0265 308.243 36.9837 308.021 36.9837C307.618 36.9837 307.315 37.1072 307.113 37.3544C306.911 37.6015 306.811 37.9697 306.811 38.459Z" fill="#04005E"/>
<path d="M311.196 36.5751C311.292 36.5701 311.387 36.565 311.483 36.56C311.579 36.5499 311.682 36.5423 311.793 36.5373C311.904 36.5323 312.023 36.5272 312.149 36.5222C312.28 36.5171 312.426 36.5146 312.588 36.5146C313.133 36.5146 313.526 36.5928 313.768 36.7491C314.01 36.9005 314.131 37.1299 314.131 37.4376C314.131 37.6141 314.073 37.7907 313.957 37.9672C313.841 38.1387 313.652 38.2623 313.39 38.3379V38.3682C313.723 38.4237 313.957 38.5271 314.093 38.6784C314.23 38.8247 314.298 39.0264 314.298 39.2837C314.298 39.6771 314.136 39.962 313.814 40.1386C313.496 40.3151 313.032 40.4034 312.421 40.4034C312.179 40.4034 311.962 40.3958 311.771 40.3807C311.579 40.3706 311.387 40.358 311.196 40.3429V36.5751ZM311.778 39.8738C311.894 39.8839 312.01 39.8914 312.126 39.8965C312.242 39.9015 312.373 39.904 312.52 39.904C312.913 39.904 313.206 39.8561 313.397 39.7603C313.594 39.6594 313.692 39.4879 313.692 39.2458C313.692 39.15 313.672 39.0642 313.632 38.9886C313.597 38.9129 313.534 38.8474 313.443 38.7919C313.357 38.7364 313.244 38.6935 313.102 38.6633C312.961 38.633 312.785 38.6179 312.573 38.6179H311.778V39.8738ZM312.679 38.1639C312.78 38.1639 312.88 38.1488 312.981 38.1185C313.082 38.0832 313.173 38.0404 313.254 37.9899C313.339 37.9344 313.407 37.8714 313.458 37.8008C313.508 37.7251 313.534 37.6469 313.534 37.5662C313.534 37.3594 313.458 37.2157 313.307 37.135C313.16 37.0543 312.913 37.0139 312.565 37.0139C312.373 37.0139 312.22 37.0165 312.104 37.0215C311.993 37.0265 311.884 37.0316 311.778 37.0366V38.1639H312.679Z" fill="#04005E"/>
</svg>
