<svg width="331" height="169" viewBox="0 0 331 169" fill="none" xmlns="http://www.w3.org/2000/svg">
<path d="M0 0H331V168.337H0V0Z" fill="#F5F6FF"/>
<path d="M19.266 23.5804V24.6245H15.2827V31.5244H14.1478V23.5804H19.266Z" fill="#04005E"/>
<path d="M23.4603 28.5284C23.4603 28.5889 23.4527 28.6797 23.4376 28.8007H18.6485C18.6939 29.3757 18.8982 29.8599 19.2613 30.2533C19.6245 30.6392 20.1352 30.8321 20.7934 30.8321C21.1112 30.8321 21.4365 30.7754 21.7694 30.6619C22.1023 30.5408 22.386 30.382 22.6205 30.1853L23.0972 30.8321C22.8097 31.1045 22.4503 31.3163 22.019 31.4676C21.5954 31.619 21.1565 31.6946 20.7026 31.6946C19.8401 31.6946 19.11 31.4222 18.5123 30.8775C17.9146 30.3328 17.6158 29.6405 17.6158 28.8007C17.6158 27.9382 17.8995 27.2044 18.4669 26.5991C19.0419 25.9863 19.738 25.6799 20.5551 25.6799C21.463 25.6799 22.1741 25.956 22.6886 26.5083C23.2031 27.053 23.4603 27.7264 23.4603 28.5284ZM22.4616 28.0631C22.386 27.6243 22.1817 27.2649 21.8488 26.985C21.5235 26.6975 21.0922 26.5537 20.5551 26.5537C20.1011 26.5537 19.7039 26.6937 19.3635 26.9736C19.023 27.246 18.796 27.6091 18.6826 28.0631H22.4616Z" fill="#04005E"/>
<path d="M25.7523 23.8414C26.2289 24.0684 26.7396 24.1819 27.2843 24.1819C27.8291 24.1819 28.3322 24.0684 28.7937 23.8414L29.1568 24.5223C28.6045 24.7947 27.9804 24.9309 27.2843 24.9309C26.5807 24.9309 25.9528 24.7947 25.4005 24.5223C25.4837 24.371 25.601 24.144 25.7523 23.8414ZM25.6728 25.8501V30.1285C25.8544 29.8864 26.9174 28.4603 28.8618 25.8501H29.9059V31.5244H28.8845V27.2687L25.7069 31.5244H24.6515V25.8501H25.6728Z" fill="#04005E"/>
<path d="M34.5535 28.7667C34.8108 28.3884 35.1815 27.8474 35.6657 27.1438C36.1499 26.4402 36.445 26.009 36.5509 25.8501H37.629V31.5244H36.619V27.2914C36.4374 27.5486 36.2445 27.8247 36.0402 28.1198C35.8359 28.4149 35.609 28.744 35.3593 29.1071C35.1096 29.4703 34.9167 29.7502 34.7805 29.9469H34.3266L32.4994 27.2914V31.5244H31.4894V25.8501H32.5675L34.5535 28.7667Z" fill="#04005E"/>
<path d="M40.224 25.8501V30.1285C42.1684 27.5183 43.2314 26.0922 43.413 25.8501H44.457V31.5244H43.4357V27.2687L40.2581 31.5244H39.214V25.8501H40.224Z" fill="#04005E"/>
<path d="M50.2852 31.6946H49.9561V33.8395H48.9347V31.6946H48.5943C47.7696 31.6946 47.0698 31.3995 46.4948 30.8094C45.9274 30.2193 45.6437 29.5119 45.6437 28.6872C45.6437 27.8626 45.9312 27.1552 46.5062 26.5651C47.0812 25.9749 47.7772 25.6799 48.5943 25.6799H48.9347V23.4669H49.9561V25.6799H50.2852C51.1023 25.6799 51.7984 25.9749 52.3734 26.5651C52.9484 27.1552 53.2359 27.8626 53.2359 28.6872C53.2359 29.5195 52.9484 30.2306 52.3734 30.8208C51.8059 31.4033 51.1099 31.6946 50.2852 31.6946ZM50.1264 30.7754C50.6938 30.7754 51.178 30.5711 51.579 30.1626C51.9875 29.754 52.1918 29.2622 52.1918 28.6872C52.1918 28.1198 51.9875 27.6318 51.579 27.2233C51.178 26.8147 50.6938 26.6105 50.1264 26.6105H49.9561V30.7754H50.1264ZM48.9347 26.6105H48.7532C48.1857 26.6105 47.7015 26.8147 47.3006 27.2233C46.8996 27.6318 46.6991 28.1198 46.6991 28.6872C46.6991 29.2622 46.8996 29.754 47.3006 30.1626C47.7015 30.5711 48.1857 30.7754 48.7532 30.7754H48.9347V26.6105Z" fill="#04005E"/>
<path d="M55.4404 25.8501V30.1285C57.3848 27.5183 58.4478 26.0922 58.6294 25.8501H59.6734V31.5244H58.6521V27.2687L55.4744 31.5244H54.4304V25.8501H55.4404Z" fill="#04005E"/>
<path d="M65.0931 31.5244L62.4148 28.5624L64.9796 25.8501H66.2279L63.5497 28.5624L66.3414 31.5244H65.0931ZM61.2573 25.8501H62.2673V31.5244H61.2573V25.8501Z" fill="#04005E"/>
<path d="M68.6401 31.6946C68.05 31.6946 67.5809 31.5509 67.2329 31.2634C66.8924 30.9759 66.7222 30.5825 66.7222 30.0831C66.7222 29.8334 66.7638 29.614 66.847 29.4249C66.9303 29.2282 67.0362 29.0655 67.1648 28.9369C67.2934 28.8083 67.4674 28.6986 67.6868 28.6078C67.9138 28.517 68.1257 28.4451 68.3224 28.3922C68.5266 28.3392 68.7839 28.3014 69.0941 28.2787C69.4118 28.2484 69.6804 28.2295 69.8998 28.222C70.1268 28.2144 70.4143 28.2068 70.7623 28.1993V27.734C70.7623 26.9169 70.3084 26.5083 69.4005 26.5083C68.7271 26.5083 68.1219 26.7466 67.5847 27.2233L67.0286 26.5991C67.702 25.9863 68.5229 25.6799 69.4913 25.6799C69.9528 25.6799 70.3424 25.7404 70.6602 25.8614C70.9855 25.9825 71.2238 26.1489 71.3751 26.3608C71.5264 26.5651 71.6324 26.7693 71.6929 26.9736C71.7534 27.1779 71.7837 27.3973 71.7837 27.6318V31.5244H70.7623V30.5257C70.1419 31.305 69.4345 31.6946 68.6401 31.6946ZM68.8898 30.9116C69.601 30.9116 70.2251 30.5068 70.7623 29.6973V28.8575C70.036 28.8575 69.4307 28.8991 68.9465 28.9823C68.7952 29.005 68.6439 29.0466 68.4926 29.1071C68.3413 29.1677 68.1862 29.2811 68.0273 29.4476C67.876 29.6065 67.8003 29.7956 67.8003 30.015C67.8003 30.3252 67.91 30.5522 68.1294 30.6959C68.3564 30.8397 68.6099 30.9116 68.8898 30.9116Z" fill="#04005E"/>
<path d="M74.2697 30.6392H77.4814V25.8501H78.5027V30.6392H79.3766V33.1245H78.3893V31.5244H73.2597V25.8501H74.2697V30.6392Z" fill="#04005E"/>
<path d="M81.4623 25.8501V30.1285C83.4067 27.5183 84.4697 26.0922 84.6513 25.8501H85.6953V31.5244H84.674V27.2687L81.4964 31.5244H80.4523V25.8501H81.4623Z" fill="#04005E"/>
<path d="M90.4681 29.5043H89.4127L88.0622 31.5244H86.882C87.5932 30.5106 88.0811 29.8108 88.3459 29.4249C87.892 29.3492 87.5326 29.145 87.2678 28.8121C87.0106 28.4792 86.882 28.1009 86.882 27.6772C86.882 27.1854 87.056 26.758 87.404 26.3948C87.752 26.0317 88.2249 25.8501 88.8226 25.8501H91.4895V31.5244H90.4681V29.5043ZM90.4681 26.6899H88.902C88.6221 26.6899 88.3838 26.7807 88.1871 26.9623C87.9979 27.1363 87.9034 27.3746 87.9034 27.6772C87.9034 27.9798 87.9979 28.222 88.1871 28.4035C88.3838 28.5851 88.6221 28.6759 88.902 28.6759H90.4681V26.6899Z" fill="#04005E"/>
<path d="M100.464 27.2346C100.464 27.4919 100.392 27.7377 100.248 27.9723C100.104 28.2068 99.9113 28.396 99.6692 28.5397C99.9869 28.6608 100.237 28.8499 100.418 29.1071C100.607 29.3644 100.702 29.6519 100.702 29.9696C100.702 30.4009 100.547 30.7678 100.237 31.0704C99.934 31.3731 99.5368 31.5244 99.045 31.5244H95.9014V25.8501H98.9088C99.3627 25.8501 99.7335 25.9863 100.021 26.2586C100.316 26.5234 100.464 26.8488 100.464 27.2346ZM96.9115 30.7754H98.6932C98.9731 30.7754 99.2039 30.6959 99.3854 30.5371C99.567 30.3706 99.6578 30.155 99.6578 29.8902C99.6578 29.6178 99.567 29.3984 99.3854 29.232C99.2039 29.058 98.9731 28.971 98.6932 28.971H96.9115V30.7754ZM99.4989 27.3822C99.4989 27.1476 99.4081 26.9623 99.2266 26.8261C99.0526 26.6823 98.8407 26.6105 98.591 26.6105H96.9115V28.2446H98.591C98.8407 28.2446 99.0526 28.1614 99.2266 27.995C99.4081 27.8285 99.4989 27.6243 99.4989 27.3822Z" fill="#04005E"/>
<path d="M106.174 26.7466H102.963V31.5244H101.953V25.8501H107.196V31.5244H106.174V26.7466Z" fill="#04005E"/>
<path d="M111.753 31.6946C110.951 31.6946 110.296 31.392 109.789 30.7867V33.8395H108.779V25.8501H109.789V26.5991C110.304 26.0014 110.97 25.7026 111.787 25.7026C112.596 25.7026 113.266 25.9938 113.795 26.5764C114.333 27.159 114.601 27.8626 114.601 28.6872C114.601 29.527 114.329 30.2382 113.784 30.8208C113.247 31.4033 112.57 31.6946 111.753 31.6946ZM111.458 26.6105C110.769 26.6105 110.213 26.8904 109.789 27.4502V29.9356C110.206 30.4954 110.762 30.7754 111.458 30.7754C112.033 30.7754 112.521 30.5711 112.922 30.1626C113.323 29.754 113.523 29.2622 113.523 28.6872C113.523 28.1198 113.319 27.6318 112.91 27.2233C112.509 26.8147 112.025 26.6105 111.458 26.6105Z" fill="#04005E"/>
<path d="M116.805 25.8501V30.1285C118.749 27.5183 119.812 26.0922 119.994 25.8501H121.038V31.5244H120.016V27.2687L116.839 31.5244H115.795V25.8501H116.805Z" fill="#04005E"/>
<path d="M121.941 31.5244V30.6959H122.326C122.682 30.6959 122.928 30.5144 123.064 30.1512C123.2 29.7881 123.268 29.1223 123.268 28.1539V25.8501H127.751V31.5244H126.73V26.7466H124.278V28.4149C124.278 30.4879 123.666 31.5244 122.44 31.5244H121.941Z" fill="#04005E"/>
<path d="M132.027 30.8094C132.617 30.8094 133.113 30.6051 133.514 30.1966C133.915 29.7805 134.115 29.2774 134.115 28.6872C134.115 28.1122 133.915 27.6167 133.514 27.2006C133.113 26.7845 132.617 26.5764 132.027 26.5764C131.437 26.5764 130.938 26.7845 130.529 27.2006C130.128 27.6167 129.928 28.1122 129.928 28.6872C129.928 29.2774 130.128 29.7805 130.529 30.1966C130.93 30.6051 131.43 30.8094 132.027 30.8094ZM134.24 30.8321C133.665 31.4071 132.928 31.6946 132.027 31.6946C131.127 31.6946 130.385 31.4071 129.803 30.8321C129.228 30.2496 128.94 29.5346 128.94 28.6872C128.94 27.8474 129.228 27.1363 129.803 26.5537C130.385 25.9712 131.127 25.6799 132.027 25.6799C132.928 25.6799 133.665 25.9712 134.24 26.5537C134.815 27.1363 135.103 27.8474 135.103 28.6872C135.103 29.5346 134.815 30.2496 134.24 30.8321Z" fill="#04005E"/>
<path d="M138.802 31.5244V28.9823H138.144L136.476 31.5244H135.318C136.037 30.4728 136.703 29.4779 137.316 28.5397C137.164 28.3203 136.881 27.9042 136.465 27.2914C136.048 26.671 135.727 26.1906 135.5 25.8501H136.669C137.509 27.1287 137.997 27.8626 138.133 28.0517H138.802V25.8501H139.812V28.0517H140.471C140.804 27.5675 141.295 26.8336 141.946 25.8501H143.115C142.888 26.1906 142.566 26.671 142.15 27.2914C141.734 27.9042 141.45 28.3203 141.299 28.5397C141.912 29.4779 142.578 30.4728 143.296 31.5244H142.139L140.471 28.9823H139.812V31.5244H138.802Z" fill="#04005E"/>
<path d="M149.48 28.5284C149.48 28.5889 149.473 28.6797 149.458 28.8007H144.669C144.714 29.3757 144.918 29.8599 145.281 30.2533C145.645 30.6392 146.155 30.8321 146.814 30.8321C147.131 30.8321 147.457 30.7754 147.79 30.6619C148.122 30.5408 148.406 30.382 148.641 30.1853L149.117 30.8321C148.83 31.1045 148.47 31.3163 148.039 31.4676C147.615 31.619 147.177 31.6946 146.723 31.6946C145.86 31.6946 145.13 31.4222 144.532 30.8775C143.935 30.3328 143.636 29.6405 143.636 28.8007C143.636 27.9382 143.92 27.2044 144.487 26.5991C145.062 25.9863 145.758 25.6799 146.575 25.6799C147.483 25.6799 148.194 25.956 148.709 26.5083C149.223 27.053 149.48 27.7264 149.48 28.5284ZM148.482 28.0631C148.406 27.6243 148.202 27.2649 147.869 26.985C147.544 26.6975 147.112 26.5537 146.575 26.5537C146.121 26.5537 145.724 26.6937 145.384 26.9736C145.043 27.246 144.816 27.6091 144.703 28.0631H148.482Z" fill="#04005E"/>
<path d="M154.871 29.0504H151.682V31.5244H150.672V25.8501H151.682V28.1312H154.871V25.8501H155.892V31.5244H154.871V29.0504Z" fill="#04005E"/>
<path d="M158.486 25.8501V30.1285C160.431 27.5183 161.494 26.0922 161.675 25.8501H162.719V31.5244H161.698V27.2687L158.52 31.5244H157.476V25.8501H158.486Z" fill="#04005E"/>
<path d="M165.313 25.8501V30.1285C167.258 27.5183 168.321 26.0922 168.502 25.8501H169.546V31.5244H168.525V27.2687L165.347 31.5244H164.303V25.8501H165.313Z" fill="#04005E"/>
<path d="M175.522 25.4529C175.522 25.7631 175.443 26.0506 175.284 26.3154C175.132 26.5726 174.947 26.7958 174.728 26.985C174.508 27.1665 174.289 27.3519 174.069 27.541C173.857 27.7302 173.672 27.9609 173.513 28.2333C173.362 28.5057 173.286 28.8083 173.286 29.1412C173.286 29.2395 173.29 29.3152 173.298 29.3682H172.344C172.322 29.2093 172.31 29.0617 172.31 28.9256C172.31 28.5624 172.382 28.2371 172.526 27.9496C172.67 27.6545 172.844 27.4162 173.048 27.2346C173.252 27.0455 173.453 26.8715 173.649 26.7126C173.854 26.5461 174.028 26.3646 174.171 26.1679C174.315 25.9636 174.387 25.748 174.387 25.521C174.387 25.1276 174.258 24.8325 174.001 24.6358C173.752 24.4315 173.422 24.3294 173.014 24.3294C172.227 24.3294 171.641 24.685 171.255 25.3962L170.563 24.8401C171.16 23.8868 172.004 23.4102 173.093 23.4102C173.835 23.4102 174.425 23.5955 174.864 23.9662C175.303 24.337 175.522 24.8325 175.522 25.4529ZM172.299 31.4336C172.163 31.2974 172.095 31.131 172.095 30.9343C172.095 30.7375 172.163 30.5673 172.299 30.4236C172.443 30.2798 172.613 30.208 172.81 30.208C173.006 30.208 173.173 30.2798 173.309 30.4236C173.453 30.5673 173.525 30.7375 173.525 30.9343C173.525 31.131 173.453 31.2974 173.309 31.4336C173.173 31.5698 173.006 31.6379 172.81 31.6379C172.613 31.6379 172.443 31.5698 172.299 31.4336Z" fill="#04005E"/>
<path d="M16.8413 50.9417L19.6456 58.003H19.0807L18.2636 55.9452H14.7733L13.9562 58.003H13.3913L16.1957 50.9417H16.8413ZM16.5185 51.557L14.9751 55.4206H18.0518L16.5185 51.557Z" fill="#04005E"/>
<path d="M24.1789 52.9592V53.4434H21.1425V58.003H20.6079V52.9592H24.1789Z" fill="#04005E"/>
<path d="M26.0645 58.1543C25.5467 58.1543 25.1364 58.0232 24.8338 57.7609C24.5379 57.4986 24.39 57.1523 24.39 56.7219C24.39 56.278 24.548 55.9317 24.8641 55.6829C25.1802 55.4273 25.5635 55.2626 26.0141 55.1886C26.505 55.1146 27.1809 55.0709 28.0417 55.0574V54.543C28.0417 54.0655 27.9206 53.7393 27.6785 53.5645C27.4364 53.3829 27.1002 53.2921 26.6698 53.2921C26.0645 53.2921 25.5299 53.5241 25.0658 53.9882L24.7228 53.625C25.281 53.0803 25.9636 52.8079 26.7706 52.8079C27.1136 52.8079 27.4062 52.855 27.6483 52.9491C27.8904 53.0433 28.0686 53.1509 28.1829 53.2719C28.3039 53.3863 28.3947 53.5409 28.4553 53.736C28.5225 53.9243 28.5595 54.0689 28.5662 54.1697C28.573 54.2706 28.5763 54.395 28.5763 54.543V58.003H28.0417V57.0245C27.4499 57.7777 26.7908 58.1543 26.0645 58.1543ZM26.0645 57.6701C26.8244 57.6701 27.4835 57.2431 28.0417 56.389V55.5417C27.2347 55.5484 26.5891 55.5887 26.1048 55.6627C26.0107 55.6762 25.9065 55.7031 25.7921 55.7434C25.6845 55.777 25.5601 55.8342 25.4189 55.9149C25.2777 55.9889 25.16 56.0965 25.0658 56.2377C24.9717 56.3789 24.9246 56.5403 24.9246 56.7219C24.9246 57.0649 25.0423 57.3103 25.2777 57.4583C25.5198 57.5995 25.782 57.6701 26.0645 57.6701Z" fill="#04005E"/>
<path d="M29.6421 59.496L30.0355 57.1557H30.8727L30.0758 59.496H29.6421Z" fill="#04005E"/>
<path d="M38.9522 53.4434H35.6435V58.003H35.1088V52.9592H39.4869V58.003H38.9522V53.4434Z" fill="#04005E"/>
<path d="M43.5396 58.1543C42.7931 58.1543 42.1576 57.8853 41.633 57.3473V60.0609H41.0984V52.9592H41.633V53.625C42.1576 53.0803 42.7931 52.8079 43.5396 52.8079C44.2659 52.8079 44.8879 53.0702 45.4058 53.5947C45.9236 54.1193 46.1825 54.7481 46.1825 55.4811C46.1825 56.2142 45.9236 56.843 45.4058 57.3675C44.8879 57.8921 44.2659 58.1543 43.5396 58.1543ZM43.4185 53.2618C43.0621 53.2618 42.7258 53.3459 42.4097 53.514C42.1004 53.6754 41.8415 53.894 41.633 54.1697V56.7925C41.8348 57.075 42.0937 57.2969 42.4097 57.4583C42.7258 57.6197 43.0621 57.7004 43.4185 57.7004C44.0238 57.7004 44.5416 57.4852 44.972 57.0548C45.4091 56.6177 45.6277 56.0931 45.6277 55.4811C45.6277 54.8759 45.4091 54.3547 44.972 53.9175C44.5416 53.4804 44.0238 53.2618 43.4185 53.2618Z" fill="#04005E"/>
<path d="M50.1383 56.046H48.958L47.576 58.003H46.8901L48.3225 56.046C47.8787 56.0057 47.529 55.8342 47.2734 55.5316C47.0178 55.2289 46.8901 54.886 46.8901 54.5026C46.8901 54.0991 47.0313 53.7427 47.3138 53.4333C47.6029 53.1173 47.993 52.9592 48.4839 52.9592H50.6729V58.003H50.1383V56.046ZM50.1383 53.4434H48.4738C48.1779 53.4434 47.9291 53.5409 47.7273 53.736C47.5256 53.9243 47.4247 54.1798 47.4247 54.5026C47.4247 54.8254 47.5256 55.0843 47.7273 55.2794C47.9291 55.4677 48.1779 55.5618 48.4738 55.5618H50.1383V53.4434Z" fill="#04005E"/>
<path d="M54.8314 55.8342L56.7985 52.9592H57.3735V58.003H56.8388V53.8268L54.9827 56.5H54.67L52.824 53.8268V58.003H52.2893V52.9592H52.8643L54.8314 55.8342Z" fill="#04005E"/>
<path d="M61.2982 57.7307C61.9303 57.7307 62.4583 57.5121 62.8819 57.075C63.3124 56.6378 63.5276 56.1066 63.5276 55.4811C63.5276 54.8624 63.3124 54.3345 62.8819 53.8974C62.4583 53.4535 61.9303 53.2316 61.2982 53.2316C60.6593 53.2316 60.128 53.4535 59.7043 53.8974C59.2807 54.3345 59.0688 54.8624 59.0688 55.4811C59.0688 56.1066 59.2807 56.6378 59.7043 57.075C60.128 57.5121 60.6593 57.7307 61.2982 57.7307ZM63.2955 57.3877C62.7844 57.8988 62.1186 58.1543 61.2982 58.1543C60.4777 58.1543 59.8119 57.8988 59.3008 57.3877C58.7897 56.8699 58.5342 56.2343 58.5342 55.4811C58.5342 54.7279 58.7897 54.0958 59.3008 53.5847C59.8119 53.0668 60.4777 52.8079 61.2982 52.8079C62.1186 52.8079 62.7844 53.0668 63.2955 53.5847C63.8066 54.0958 64.0622 54.7279 64.0622 55.4811C64.0622 56.2343 63.8066 56.8699 63.2955 57.3877Z" fill="#04005E"/>
<path d="M71.5287 54.1798C71.5287 54.4018 71.4648 54.617 71.337 54.8254C71.216 55.0339 71.0512 55.2054 70.8427 55.3399C71.1185 55.4475 71.3337 55.6156 71.4883 55.8443C71.6497 56.0729 71.7304 56.3251 71.7304 56.6009C71.7304 56.9842 71.5959 57.3137 71.3269 57.5894C71.0579 57.8652 70.7183 58.003 70.3081 58.003H67.7458V52.9592H70.187C70.5704 52.9592 70.8898 53.0769 71.1454 53.3123C71.4009 53.5477 71.5287 53.8368 71.5287 54.1798ZM68.2805 57.5188H70.1568C70.446 57.5188 70.6847 57.4348 70.873 57.2666C71.068 57.0985 71.1655 56.8732 71.1655 56.5908C71.1655 56.3083 71.068 56.0763 70.873 55.8947C70.6847 55.7131 70.446 55.6224 70.1568 55.6224H68.2805V57.5188ZM70.994 54.2403C70.994 53.9982 70.9033 53.8066 70.7217 53.6654C70.5401 53.5174 70.3182 53.4434 70.0559 53.4434H68.2805V55.1381H70.0559C70.3114 55.1381 70.53 55.0541 70.7116 54.886C70.8999 54.7111 70.994 54.4959 70.994 54.2403Z" fill="#04005E"/>
<path d="M76.0432 52.9592V57.2969L79.3217 52.9592H79.8866V58.003H79.352V53.6754L76.0836 58.003H75.5086V52.9592H76.0432Z" fill="#04005E"/>
<path d="M85.3112 55.6324H82.0327V58.003H81.4981V52.9592H82.0327V55.1482H85.3112V52.9592H85.8459V58.003H85.3112V55.6324Z" fill="#04005E"/>
<path d="M91.0291 52.9592V53.4434H89.1326V58.003H88.598V53.4434H86.7015V52.9592H91.0291Z" fill="#04005E"/>
<path d="M96.2966 55.2794V55.3903H91.6765C91.6698 55.4441 91.6664 55.5181 91.6664 55.6123C91.6664 56.2175 91.8783 56.7085 92.3019 57.0851C92.7323 57.4617 93.2636 57.65 93.8958 57.65C94.1984 57.65 94.5111 57.5894 94.8339 57.4684C95.1635 57.3406 95.4325 57.1725 95.6409 56.964L96.0142 57.3473C95.7653 57.5962 95.4459 57.7946 95.0558 57.9425C94.6658 58.0837 94.2791 58.1543 93.8958 58.1543C93.1157 58.1543 92.46 57.919 91.9287 57.4482C91.3974 56.9707 91.1318 56.3587 91.1318 55.6123C91.1318 54.8322 91.3806 54.1697 91.8783 53.625C92.3759 53.0803 92.9879 52.8079 93.7142 52.8079C94.5414 52.8079 95.1769 53.0567 95.6208 53.5544C96.0713 54.0453 96.2966 54.6203 96.2966 55.2794ZM95.7317 54.9061C95.6577 54.4556 95.4459 54.0789 95.0962 53.7763C94.7532 53.467 94.2926 53.3123 93.7142 53.3123C93.2367 53.3123 92.8198 53.4602 92.4633 53.7561C92.1136 54.0453 91.8783 54.4286 91.7572 54.9061H95.7317Z" fill="#04005E"/>
<path d="M99.9081 58.1543C99.1616 58.1543 98.5261 57.8853 98.0015 57.3473V60.0609H97.4669V52.9592H98.0015V53.625C98.5261 53.0803 99.1616 52.8079 99.9081 52.8079C100.634 52.8079 101.256 53.0702 101.774 53.5947C102.292 54.1193 102.551 54.7481 102.551 55.4811C102.551 56.2142 102.292 56.843 101.774 57.3675C101.256 57.8921 100.634 58.1543 99.9081 58.1543ZM99.787 53.2618C99.4306 53.2618 99.0943 53.3459 98.7783 53.514C98.4689 53.6754 98.21 53.894 98.0015 54.1697V56.7925C98.2033 57.075 98.4622 57.2969 98.7783 57.4583C99.0943 57.6197 99.4306 57.7004 99.787 57.7004C100.392 57.7004 100.91 57.4852 101.341 57.0548C101.778 56.6177 101.996 56.0931 101.996 55.4811C101.996 54.8759 101.778 54.3547 101.341 53.9175C100.91 53.4804 100.392 53.2618 99.787 53.2618Z" fill="#04005E"/>
<path d="M107.041 58.1543H106.739V60.0609H106.204V58.1543H105.902C105.175 58.1543 104.553 57.8921 104.035 57.3675C103.518 56.843 103.259 56.2142 103.259 55.4811C103.259 54.7481 103.518 54.1193 104.035 53.5947C104.553 53.0702 105.175 52.8079 105.902 52.8079H106.204V50.8408H106.739V52.8079H107.041C107.768 52.8079 108.39 53.0702 108.908 53.5947C109.425 54.1193 109.684 54.7481 109.684 55.4811C109.684 56.2142 109.425 56.843 108.908 57.3675C108.39 57.8921 107.768 58.1543 107.041 58.1543ZM106.92 57.7004C107.526 57.7004 108.043 57.4852 108.474 57.0548C108.911 56.6177 109.13 56.0931 109.13 55.4811C109.13 54.8759 108.911 54.3547 108.474 53.9175C108.043 53.4804 107.526 53.2618 106.92 53.2618H106.739V57.7004H106.92ZM106.023 53.2618C105.417 53.2618 104.896 53.4804 104.459 53.9175C104.029 54.3547 103.813 54.8759 103.813 55.4811C103.813 56.0931 104.029 56.6177 104.459 57.0548C104.896 57.4852 105.417 57.7004 106.023 57.7004H106.204V53.2618H106.023Z" fill="#04005E"/>
<path d="M115.556 55.2794V55.3903H110.936C110.929 55.4441 110.925 55.5181 110.925 55.6123C110.925 56.2175 111.137 56.7085 111.561 57.0851C111.991 57.4617 112.523 57.65 113.155 57.65C113.457 57.65 113.77 57.5894 114.093 57.4684C114.423 57.3406 114.692 57.1725 114.9 56.964L115.273 57.3473C115.024 57.5962 114.705 57.7946 114.315 57.9425C113.925 58.0837 113.538 58.1543 113.155 58.1543C112.375 58.1543 111.719 57.919 111.188 57.4482C110.656 56.9707 110.391 56.3587 110.391 55.6123C110.391 54.8322 110.64 54.1697 111.137 53.625C111.635 53.0803 112.247 52.8079 112.973 52.8079C113.8 52.8079 114.436 53.0567 114.88 53.5544C115.33 54.0453 115.556 54.6203 115.556 55.2794ZM114.991 54.9061C114.917 54.4556 114.705 54.0789 114.355 53.7763C114.012 53.467 113.552 53.3123 112.973 53.3123C112.496 53.3123 112.079 53.4602 111.722 53.7561C111.373 54.0453 111.137 54.4286 111.016 54.9061H114.991Z" fill="#04005E"/>
<path d="M117.604 51.3149C118 51.4965 118.437 51.5873 118.915 51.5873C119.392 51.5873 119.83 51.4965 120.226 51.3149L120.458 51.7487C120.008 51.9572 119.493 52.0614 118.915 52.0614C118.337 52.0614 117.822 51.9572 117.372 51.7487L117.604 51.3149ZM117.261 52.9592V57.2969L120.539 52.9592H121.104V58.003H120.569V53.6754L117.301 58.003H116.726V52.9592H117.261Z" fill="#04005E"/>
<path d="M123.371 53.9377C122.988 54.3479 122.796 54.8624 122.796 55.4811C122.796 56.0998 122.988 56.6177 123.371 57.0346C123.761 57.4448 124.262 57.65 124.874 57.65C125.466 57.65 125.991 57.4213 126.448 56.964L126.821 57.3473C126.283 57.8853 125.634 58.1543 124.874 58.1543C124.134 58.1543 123.512 57.8853 123.008 57.3473C122.51 56.8093 122.262 56.1873 122.262 55.4811C122.262 54.775 122.51 54.1529 123.008 53.6149C123.512 53.0769 124.134 52.8079 124.874 52.8079C125.634 52.8079 126.283 53.0769 126.821 53.6149L126.448 53.9982C125.991 53.5409 125.466 53.3123 124.874 53.3123C124.262 53.3123 123.761 53.5208 123.371 53.9377Z" fill="#04005E"/>
<path d="M132.5 55.2794V55.3903H127.88C127.873 55.4441 127.87 55.5181 127.87 55.6123C127.87 56.2175 128.081 56.7085 128.505 57.0851C128.935 57.4617 129.467 57.65 130.099 57.65C130.402 57.65 130.714 57.5894 131.037 57.4684C131.367 57.3406 131.636 57.1725 131.844 56.964L132.217 57.3473C131.968 57.5962 131.649 57.7946 131.259 57.9425C130.869 58.0837 130.482 58.1543 130.099 58.1543C129.319 58.1543 128.663 57.919 128.132 57.4482C127.601 56.9707 127.335 56.3587 127.335 55.6123C127.335 54.8322 127.584 54.1697 128.081 53.625C128.579 53.0803 129.191 52.8079 129.917 52.8079C130.745 52.8079 131.38 53.0567 131.824 53.5544C132.274 54.0453 132.5 54.6203 132.5 55.2794ZM131.935 54.9061C131.861 54.4556 131.649 54.0789 131.299 53.7763C130.956 53.467 130.496 53.3123 129.917 53.3123C129.44 53.3123 129.023 53.4602 128.666 53.7561C128.317 54.0453 128.081 54.4286 127.96 54.9061H131.935Z" fill="#04005E"/>
<path d="M133.801 57.9728C133.714 57.8853 133.67 57.7744 133.67 57.6399C133.67 57.5054 133.714 57.3944 133.801 57.307C133.895 57.2128 134.006 57.1658 134.134 57.1658C134.269 57.1658 134.379 57.2128 134.467 57.307C134.561 57.3944 134.608 57.5054 134.608 57.6399C134.608 57.7677 134.561 57.8786 134.467 57.9728C134.379 58.0602 134.269 58.1039 134.134 58.1039C134 58.1039 133.889 58.0602 133.801 57.9728Z" fill="#04005E"/>
<path d="M141.538 50.9417L144.342 58.003H143.777L142.96 55.9452H139.47L138.653 58.003H138.088L140.892 50.9417H141.538ZM141.215 51.557L139.671 55.4206H142.748L141.215 51.557Z" fill="#04005E"/>
<path d="M152.537 55.2794V55.3903H147.917C147.91 55.4441 147.907 55.5181 147.907 55.6123C147.907 56.2175 148.119 56.7085 148.542 57.0851C148.973 57.4617 149.504 57.65 150.136 57.65C150.439 57.65 150.752 57.5894 151.074 57.4684C151.404 57.3406 151.673 57.1725 151.881 56.964L152.255 57.3473C152.006 57.5962 151.686 57.7946 151.296 57.9425C150.906 58.0837 150.52 58.1543 150.136 58.1543C149.356 58.1543 148.7 57.919 148.169 57.4482C147.638 56.9707 147.372 56.3587 147.372 55.6123C147.372 54.8322 147.621 54.1697 148.119 53.625C148.616 53.0803 149.228 52.8079 149.955 52.8079C150.782 52.8079 151.417 53.0567 151.861 53.5544C152.312 54.0453 152.537 54.6203 152.537 55.2794ZM151.972 54.9061C151.898 54.4556 151.686 54.0789 151.337 53.7763C150.994 53.467 150.533 53.3123 149.955 53.3123C149.477 53.3123 149.06 53.4602 148.704 53.7561C148.354 54.0453 148.119 54.4286 147.998 54.9061H151.972Z" fill="#04005E"/>
<path d="M154.242 57.5188H156.744V52.9592H157.278V57.5188H159.78V52.9592H160.315V57.5188H161.051V59.4254H160.516V58.003H153.707V52.9592H154.242V57.5188Z" fill="#04005E"/>
<path d="M166.871 55.2794V55.3903H162.25C162.244 55.4441 162.24 55.5181 162.24 55.6123C162.24 56.2175 162.452 56.7085 162.876 57.0851C163.306 57.4617 163.838 57.65 164.47 57.65C164.772 57.65 165.085 57.5894 165.408 57.4684C165.737 57.3406 166.006 57.1725 166.215 56.964L166.588 57.3473C166.339 57.5962 166.02 57.7946 165.63 57.9425C165.24 58.0837 164.853 58.1543 164.47 58.1543C163.69 58.1543 163.034 57.919 162.503 57.4482C161.971 56.9707 161.706 56.3587 161.706 55.6123C161.706 54.8322 161.955 54.1697 162.452 53.625C162.95 53.0803 163.562 52.8079 164.288 52.8079C165.115 52.8079 165.751 53.0567 166.195 53.5544C166.645 54.0453 166.871 54.6203 166.871 55.2794ZM166.306 54.9061C166.232 54.4556 166.02 54.0789 165.67 53.7763C165.327 53.467 164.866 53.3123 164.288 53.3123C163.811 53.3123 163.394 53.4602 163.037 53.7561C162.688 54.0453 162.452 54.4286 162.331 54.9061H166.306ZM163.128 51.9605C163.047 51.8798 163.007 51.779 163.007 51.6579C163.007 51.5369 163.047 51.436 163.128 51.3553C163.209 51.2679 163.31 51.2241 163.431 51.2241C163.552 51.2241 163.653 51.2679 163.733 51.3553C163.821 51.436 163.864 51.5369 163.864 51.6579C163.864 51.779 163.821 51.8798 163.733 51.9605C163.653 52.0412 163.552 52.0816 163.431 52.0816C163.31 52.0816 163.209 52.0412 163.128 51.9605ZM165.085 51.9605C165.004 51.8798 164.964 51.779 164.964 51.6579C164.964 51.5369 165.004 51.436 165.085 51.3553C165.166 51.2679 165.267 51.2241 165.388 51.2241C165.509 51.2241 165.61 51.2679 165.69 51.3553C165.778 51.436 165.821 51.5369 165.821 51.6579C165.821 51.779 165.778 51.8798 165.69 51.9605C165.61 52.0412 165.509 52.0816 165.388 52.0816C165.267 52.0816 165.166 52.0412 165.085 51.9605Z" fill="#04005E"/>
<path d="M14.5816 66.8297V71.1674L17.8601 66.8297H18.425V71.8735H17.8904V67.5459L14.622 71.8735H14.047V66.8297H14.5816Z" fill="#04005E"/>
<path d="M23.779 72.0248C23.2612 72.0248 22.851 71.8937 22.5483 71.6314C22.2524 71.3691 22.1045 71.0228 22.1045 70.5924C22.1045 70.1485 22.2625 69.8022 22.5786 69.5534C22.8947 69.2978 23.278 69.133 23.7286 69.0591C24.2195 68.9851 24.8954 68.9414 25.7562 68.9279V68.4135C25.7562 67.936 25.6351 67.6098 25.393 67.435C25.1509 67.2534 24.8147 67.1626 24.3843 67.1626C23.779 67.1626 23.2444 67.3946 22.7803 67.8586L22.4374 67.4955C22.9956 66.9507 23.6781 66.6784 24.4852 66.6784C24.8281 66.6784 25.1207 66.7255 25.3628 66.8196C25.6049 66.9138 25.7831 67.0214 25.8974 67.1424C26.0185 67.2567 26.1093 67.4114 26.1698 67.6064C26.237 67.7947 26.274 67.9393 26.2808 68.0402C26.2875 68.1411 26.2908 68.2655 26.2908 68.4135V71.8735H25.7562V70.895C25.1644 71.6482 24.5053 72.0248 23.779 72.0248ZM23.779 71.5406C24.539 71.5406 25.198 71.1136 25.7562 70.2595V69.4121C24.9492 69.4189 24.3036 69.4592 23.8194 69.5332C23.7252 69.5466 23.621 69.5735 23.5067 69.6139C23.3991 69.6475 23.2746 69.7047 23.1334 69.7854C22.9922 69.8593 22.8745 69.9669 22.7803 70.1082C22.6862 70.2494 22.6391 70.4108 22.6391 70.5924C22.6391 70.9354 22.7568 71.1808 22.9922 71.3288C23.2343 71.47 23.4966 71.5406 23.779 71.5406Z" fill="#04005E"/>
<path d="M27.2961 68.3025V66.8297H27.8307V68.3025C27.8307 69.096 28.2813 69.4928 29.1824 69.4928C29.6666 69.4928 30.1878 69.4424 30.746 69.3415V66.8297H31.2807V71.8735H30.746V69.8358C30.1408 69.93 29.6128 69.977 29.1623 69.977C28.5772 69.977 28.1199 69.8392 27.7903 69.5634C27.4608 69.2877 27.2961 68.8674 27.2961 68.3025Z" fill="#04005E"/>
<path d="M33.427 66.8297V71.1674L36.7054 66.8297H37.2703V71.8735H36.7357V67.5459L33.4673 71.8735H32.8923V66.8297H33.427Z" fill="#04005E"/>
<path d="M42.6647 68.0503C42.6647 68.2722 42.6008 68.4874 42.473 68.6959C42.352 68.9044 42.1872 69.0759 41.9787 69.2104C42.2545 69.318 42.4697 69.4861 42.6243 69.7148C42.7857 69.9434 42.8664 70.1956 42.8664 70.4713C42.8664 70.8547 42.7319 71.1842 42.4629 71.4599C42.1939 71.7356 41.8543 71.8735 41.4441 71.8735H38.8818V66.8297H41.323C41.7064 66.8297 42.0258 66.9474 42.2814 67.1828C42.5369 67.4181 42.6647 67.7073 42.6647 68.0503ZM39.4165 71.3893H41.2928C41.582 71.3893 41.8207 71.3052 42.009 71.1371C42.204 70.969 42.3015 70.7437 42.3015 70.4612C42.3015 70.1788 42.204 69.9468 42.009 69.7652C41.8207 69.5836 41.582 69.4928 41.2928 69.4928H39.4165V71.3893ZM42.1301 68.1108C42.1301 67.8687 42.0393 67.6771 41.8577 67.5358C41.6761 67.3879 41.4542 67.3139 41.1919 67.3139H39.4165V69.0086H41.1919C41.4475 69.0086 41.666 68.9246 41.8476 68.7564C42.0359 68.5816 42.1301 68.3664 42.1301 68.1108Z" fill="#04005E"/>
<path d="M47.502 71.8735L44.8389 69.2104L47.4011 66.8297H48.1779L45.5148 69.2104L48.2788 71.8735H47.502ZM44.1227 66.8297H44.6573V71.8735H44.1227V66.8297Z" fill="#04005E"/>
<path d="M49.6814 66.8297V71.1674L52.9599 66.8297H53.5248V71.8735H52.9902V67.5459L49.7218 71.8735H49.1468V66.8297H49.6814Z" fill="#04005E"/>
<path d="M58.5964 69.0086H59.4034C59.6993 69.0086 59.9515 68.9145 60.1599 68.7262C60.3751 68.5311 60.4827 68.3059 60.4827 68.0503C60.4827 67.4719 60.0893 67.1828 59.3025 67.1828C58.7309 67.1828 58.25 67.4114 57.86 67.8687L57.4867 67.4854C57.9508 66.9474 58.556 66.6784 59.3025 66.6784C59.901 66.6784 60.3348 66.8062 60.6038 67.0617C60.8795 67.3105 61.0174 67.6199 61.0174 67.9898C61.0174 68.2453 60.93 68.4874 60.7551 68.7161C60.587 68.9447 60.3651 69.1196 60.0893 69.2406C60.4121 69.3482 60.6643 69.5164 60.8459 69.745C61.0275 69.9737 61.1183 70.2292 61.1183 70.5117C61.1183 70.9354 60.9569 71.2951 60.6341 71.5911C60.3113 71.8802 59.817 72.0248 59.1512 72.0248C58.3912 72.0248 57.7423 71.7558 57.2043 71.2178L57.5775 70.8345C58.0348 71.2918 58.5594 71.5204 59.1512 71.5204C60.086 71.5204 60.5534 71.1808 60.5534 70.5016C60.5534 70.2124 60.4491 69.9737 60.2406 69.7854C60.0322 69.5903 59.7632 69.4928 59.4336 69.4928H58.5964V69.0086Z" fill="#04005E"/>
<path d="M63.5975 72.0248C63.0797 72.0248 62.6695 71.8937 62.3668 71.6314C62.0709 71.3691 61.923 71.0228 61.923 70.5924C61.923 70.1485 62.081 69.8022 62.3971 69.5534C62.7132 69.2978 63.0965 69.133 63.5471 69.0591C64.038 68.9851 64.7139 68.9414 65.5747 68.9279V68.4135C65.5747 67.936 65.4537 67.6098 65.2116 67.435C64.9695 67.2534 64.6332 67.1626 64.2028 67.1626C63.5975 67.1626 63.0629 67.3946 62.5989 67.8586L62.2559 67.4955C62.8141 66.9507 63.4967 66.6784 64.3037 66.6784C64.6466 66.6784 64.9392 66.7255 65.1813 66.8196C65.4234 66.9138 65.6016 67.0214 65.7159 67.1424C65.837 67.2567 65.9278 67.4114 65.9883 67.6064C66.0556 67.7947 66.0925 67.9393 66.0993 68.0402C66.106 68.1411 66.1093 68.2655 66.1093 68.4135V71.8735H65.5747V70.895C64.9829 71.6482 64.3238 72.0248 63.5975 72.0248ZM63.5975 71.5406C64.3575 71.5406 65.0165 71.1136 65.5747 70.2595V69.4121C64.7677 69.4189 64.1221 69.4592 63.6379 69.5332C63.5437 69.5466 63.4395 69.5735 63.3252 69.6139C63.2176 69.6475 63.0932 69.7047 62.9519 69.7854C62.8107 69.8593 62.693 69.9669 62.5989 70.1082C62.5047 70.2494 62.4576 70.4108 62.4576 70.5924C62.4576 70.9354 62.5753 71.1808 62.8107 71.3288C63.0528 71.47 63.3151 71.5406 63.5975 71.5406Z" fill="#04005E"/>
<path d="M72.4005 71.6011C73.0326 71.6011 73.5606 71.3826 73.9842 70.9454C74.4146 70.5083 74.6298 69.977 74.6298 69.3516C74.6298 68.7329 74.4146 68.205 73.9842 67.7678C73.5606 67.324 73.0326 67.1021 72.4005 67.1021C71.7616 67.1021 71.2303 67.324 70.8066 67.7678C70.383 68.205 70.1711 68.7329 70.1711 69.3516C70.1711 69.977 70.383 70.5083 70.8066 70.9454C71.2303 71.3826 71.7616 71.6011 72.4005 71.6011ZM74.3978 71.2582C73.8867 71.7693 73.2209 72.0248 72.4005 72.0248C71.58 72.0248 70.9142 71.7693 70.4031 71.2582C69.892 70.7403 69.6365 70.1048 69.6365 69.3516C69.6365 68.5984 69.892 67.9662 70.4031 67.4551C70.9142 66.9373 71.58 66.6784 72.4005 66.6784C73.2209 66.6784 73.8867 66.9373 74.3978 67.4551C74.9089 67.9662 75.1645 68.5984 75.1645 69.3516C75.1645 70.1048 74.9089 70.7403 74.3978 71.2582Z" fill="#04005E"/>
<path d="M79.7002 66.8297V67.3139H77.8037V71.8735H77.2691V67.3139H75.3726V66.8297H79.7002Z" fill="#04005E"/>
<path d="M84.1332 66.8297V67.3139H81.0969V71.8735H80.5622V66.8297H84.1332Z" fill="#04005E"/>
<path d="M86.0188 72.0248C85.501 72.0248 85.0908 71.8937 84.7882 71.6314C84.4922 71.3691 84.3443 71.0228 84.3443 70.5924C84.3443 70.1485 84.5023 69.8022 84.8184 69.5534C85.1345 69.2978 85.5178 69.133 85.9684 69.0591C86.4593 68.9851 87.1352 68.9414 87.996 68.9279V68.4135C87.996 67.936 87.875 67.6098 87.6329 67.435C87.3908 67.2534 87.0545 67.1626 86.6241 67.1626C86.0188 67.1626 85.4842 67.3946 85.0202 67.8586L84.6772 67.4955C85.2354 66.9507 85.918 66.6784 86.725 66.6784C87.068 66.6784 87.3605 66.7255 87.6026 66.8196C87.8447 66.9138 88.0229 67.0214 88.1372 67.1424C88.2583 67.2567 88.3491 67.4114 88.4096 67.6064C88.4769 67.7947 88.5138 67.9393 88.5206 68.0402C88.5273 68.1411 88.5307 68.2655 88.5307 68.4135V71.8735H87.996V70.895C87.4042 71.6482 86.7452 72.0248 86.0188 72.0248ZM86.0188 71.5406C86.7788 71.5406 87.4378 71.1136 87.996 70.2595V69.4121C87.189 69.4189 86.5434 69.4592 86.0592 69.5332C85.965 69.5466 85.8608 69.5735 85.7465 69.6139C85.6389 69.6475 85.5145 69.7047 85.3732 69.7854C85.232 69.8593 85.1143 69.9669 85.0202 70.1082C84.926 70.2494 84.8789 70.4108 84.8789 70.5924C84.8789 70.9354 84.9966 71.1808 85.232 71.3288C85.4741 71.47 85.7364 71.5406 86.0188 71.5406Z" fill="#04005E"/>
<path d="M89.8688 71.8735V73.2959H89.3341V71.3893H89.9293C90.1378 71.0799 90.316 70.6193 90.4639 70.0073C90.6119 69.3886 90.6859 68.7295 90.6859 68.0301V66.8297H94.0955V71.3893H94.8319V73.2959H94.2972V71.8735H89.8688ZM93.5608 71.3893V67.3139H91.2104V68.0301C91.2104 68.7026 91.1364 69.3583 90.9885 69.9972C90.8473 70.6294 90.6892 71.0934 90.5144 71.3893H93.5608Z" fill="#04005E"/>
<path d="M97.1605 72.0248C96.6427 72.0248 96.2325 71.8937 95.9298 71.6314C95.6339 71.3691 95.486 71.0228 95.486 70.5924C95.486 70.1485 95.644 69.8022 95.9601 69.5534C96.2762 69.2978 96.6595 69.133 97.1101 69.0591C97.601 68.9851 98.2769 68.9414 99.1377 68.9279V68.4135C99.1377 67.936 99.0167 67.6098 98.7746 67.435C98.5324 67.2534 98.1962 67.1626 97.7658 67.1626C97.1605 67.1626 96.6259 67.3946 96.1619 67.8586L95.8189 67.4955C96.3771 66.9507 97.0597 66.6784 97.8667 66.6784C98.2096 66.6784 98.5022 66.7255 98.7443 66.8196C98.9864 66.9138 99.1646 67.0214 99.2789 67.1424C99.4 67.2567 99.4908 67.4114 99.5513 67.6064C99.6185 67.7947 99.6555 67.9393 99.6623 68.0402C99.669 68.1411 99.6723 68.2655 99.6723 68.4135V71.8735H99.1377V70.895C98.5459 71.6482 97.8868 72.0248 97.1605 72.0248ZM97.1605 71.5406C97.9205 71.5406 98.5795 71.1136 99.1377 70.2595V69.4121C98.3307 69.4189 97.6851 69.4592 97.2009 69.5332C97.1067 69.5466 97.0025 69.5735 96.8882 69.6139C96.7806 69.6475 96.6562 69.7047 96.5149 69.7854C96.3737 69.8593 96.256 69.9669 96.1619 70.1082C96.0677 70.2494 96.0206 70.4108 96.0206 70.5924C96.0206 70.9354 96.1383 71.1808 96.3737 71.3288C96.6158 71.47 96.8781 71.5406 97.1605 71.5406Z" fill="#04005E"/>
<path d="M104.945 69.5029H101.666V71.8735H101.132V66.8297H101.666V69.0187H104.945V66.8297H105.479V71.8735H104.945V69.5029Z" fill="#04005E"/>
<path d="M110.905 69.5029H107.626V71.8735H107.091V66.8297H107.626V69.0187H110.905V66.8297H111.439V71.8735H110.905V69.5029Z" fill="#04005E"/>
<path d="M113.586 68.7867H115.341C115.846 68.7867 116.239 68.9414 116.522 69.2507C116.811 69.5601 116.955 69.9199 116.955 70.3301C116.955 70.7403 116.811 71.1001 116.522 71.4095C116.239 71.7188 115.846 71.8735 115.341 71.8735H113.051V66.8297H113.586V68.7867ZM113.586 71.3893H115.351C115.647 71.3893 115.896 71.2951 116.098 71.1068C116.3 70.9118 116.401 70.6529 116.401 70.3301C116.401 70.0073 116.3 69.7517 116.098 69.5634C115.896 69.3684 115.647 69.2709 115.351 69.2709H113.586V71.3893ZM117.722 71.8735V66.8297H118.257V71.8735H117.722Z" fill="#04005E"/>
<path d="M124.579 69.1498V69.2608H119.959C119.953 69.3146 119.949 69.3886 119.949 69.4827C119.949 70.088 120.161 70.5789 120.585 70.9555C121.015 71.3321 121.546 71.5204 122.179 71.5204C122.481 71.5204 122.794 71.4599 123.117 71.3389C123.446 71.2111 123.715 71.043 123.924 70.8345L124.297 71.2178C124.048 71.4666 123.729 71.665 123.339 71.813C122.949 71.9542 122.562 72.0248 122.179 72.0248C121.398 72.0248 120.743 71.7894 120.211 71.3187C119.68 70.8412 119.415 70.2292 119.415 69.4827C119.415 68.7026 119.663 68.0402 120.161 67.4955C120.659 66.9507 121.271 66.6784 121.997 66.6784C122.824 66.6784 123.46 66.9272 123.904 67.4249C124.354 67.9158 124.579 68.4908 124.579 69.1498ZM124.014 68.7766C123.941 68.326 123.729 67.9494 123.379 67.6468C123.036 67.3374 122.575 67.1828 121.997 67.1828C121.519 67.1828 121.103 67.3307 120.746 67.6266C120.396 67.9158 120.161 68.2991 120.04 68.7766H124.014Z" fill="#04005E"/>
<path d="M129.21 69.0086H130.017C130.313 69.0086 130.565 68.9145 130.773 68.7262C130.988 68.5311 131.096 68.3059 131.096 68.0503C131.096 67.4719 130.703 67.1828 129.916 67.1828C129.344 67.1828 128.863 67.4114 128.473 67.8687L128.1 67.4854C128.564 66.9474 129.169 66.6784 129.916 66.6784C130.514 66.6784 130.948 66.8062 131.217 67.0617C131.493 67.3105 131.631 67.6199 131.631 67.9898C131.631 68.2453 131.543 68.4874 131.368 68.7161C131.2 68.9447 130.978 69.1196 130.703 69.2406C131.025 69.3482 131.278 69.5164 131.459 69.745C131.641 69.9737 131.732 70.2292 131.732 70.5117C131.732 70.9354 131.57 71.2951 131.247 71.5911C130.925 71.8802 130.43 72.0248 129.765 72.0248C129.005 72.0248 128.356 71.7558 127.818 71.2178L128.191 70.8345C128.648 71.2918 129.173 71.5204 129.765 71.5204C130.699 71.5204 131.167 71.1808 131.167 70.5016C131.167 70.2124 131.062 69.9737 130.854 69.7854C130.646 69.5903 130.376 69.4928 130.047 69.4928H129.21V69.0086Z" fill="#04005E"/>
<path d="M134.211 72.0248C133.693 72.0248 133.283 71.8937 132.98 71.6314C132.684 71.3691 132.536 71.0228 132.536 70.5924C132.536 70.1485 132.694 69.8022 133.01 69.5534C133.327 69.2978 133.71 69.133 134.16 69.0591C134.651 68.9851 135.327 68.9414 136.188 68.9279V68.4135C136.188 67.936 136.067 67.6098 135.825 67.435C135.583 67.2534 135.247 67.1626 134.816 67.1626C134.211 67.1626 133.676 67.3946 133.212 67.8586L132.869 67.4955C133.427 66.9507 134.11 66.6784 134.917 66.6784C135.26 66.6784 135.553 66.7255 135.795 66.8196C136.037 66.9138 136.215 67.0214 136.329 67.1424C136.45 67.2567 136.541 67.4114 136.602 67.6064C136.669 67.7947 136.706 67.9393 136.713 68.0402C136.719 68.1411 136.723 68.2655 136.723 68.4135V71.8735H136.188V70.895C135.596 71.6482 134.937 72.0248 134.211 72.0248ZM134.211 71.5406C134.971 71.5406 135.63 71.1136 136.188 70.2595V69.4121C135.381 69.4189 134.735 69.4592 134.251 69.5332C134.157 69.5466 134.053 69.5735 133.938 69.6139C133.831 69.6475 133.706 69.7047 133.565 69.7854C133.424 69.8593 133.306 69.9669 133.212 70.1082C133.118 70.2494 133.071 70.4108 133.071 70.5924C133.071 70.9354 133.189 71.1808 133.424 71.3288C133.666 71.47 133.928 71.5406 134.211 71.5406Z" fill="#04005E"/>
<path d="M141.753 66.8297V67.3139H138.716V71.8735H138.182V66.8297H141.753Z" fill="#04005E"/>
<path d="M143.638 72.0248C143.121 72.0248 142.71 71.8937 142.408 71.6314C142.112 71.3691 141.964 71.0228 141.964 70.5924C141.964 70.1485 142.122 69.8022 142.438 69.5534C142.754 69.2978 143.137 69.133 143.588 69.0591C144.079 68.9851 144.755 68.9414 145.616 68.9279V68.4135C145.616 67.936 145.495 67.6098 145.252 67.435C145.01 67.2534 144.674 67.1626 144.244 67.1626C143.638 67.1626 143.104 67.3946 142.64 67.8586L142.297 67.4955C142.855 66.9507 143.538 66.6784 144.345 66.6784C144.688 66.6784 144.98 66.7255 145.222 66.8196C145.464 66.9138 145.643 67.0214 145.757 67.1424C145.878 67.2567 145.969 67.4114 146.029 67.6064C146.096 67.7947 146.133 67.9393 146.14 68.0402C146.147 68.1411 146.15 68.2655 146.15 68.4135V71.8735H145.616V70.895C145.024 71.6482 144.365 72.0248 143.638 72.0248ZM143.638 71.5406C144.398 71.5406 145.057 71.1136 145.616 70.2595V69.4121C144.809 69.4189 144.163 69.4592 143.679 69.5332C143.585 69.5466 143.48 69.5735 143.366 69.6139C143.258 69.6475 143.134 69.7047 142.993 69.7854C142.852 69.8593 142.734 69.9669 142.64 70.1082C142.546 70.2494 142.499 70.4108 142.499 70.5924C142.499 70.9354 142.616 71.1808 142.852 71.3288C143.094 71.47 143.356 71.5406 143.638 71.5406Z" fill="#04005E"/>
<path d="M147.488 71.8735V73.2959H146.954V71.3893H147.549C147.757 71.0799 147.936 70.6193 148.084 70.0073C148.231 69.3886 148.305 68.7295 148.305 68.0301V66.8297H151.715V71.3893H152.451V73.2959H151.917V71.8735H147.488ZM151.18 71.3893V67.3139H148.83V68.0301C148.83 68.7026 148.756 69.3583 148.608 69.9972C148.467 70.6294 148.309 71.0934 148.134 71.3893H151.18Z" fill="#04005E"/>
<path d="M156.939 71.8735L154.276 69.2104L156.838 66.8297H157.615L154.952 69.2104L157.716 71.8735H156.939ZM153.56 66.8297H154.094V71.8735H153.56V66.8297Z" fill="#04005E"/>
<path d="M159.118 66.8297V71.1674L162.397 66.8297H162.962V71.8735H162.427V67.5459L159.159 71.8735H158.584V66.8297H159.118Z" fill="#04005E"/>
<path d="M164.704 71.8432C164.617 71.7558 164.573 71.6449 164.573 71.5104C164.573 71.3759 164.617 71.2649 164.704 71.1775C164.798 71.0833 164.909 71.0362 165.037 71.0362C165.172 71.0362 165.283 71.0833 165.37 71.1775C165.464 71.2649 165.511 71.3759 165.511 71.5104C165.511 71.6381 165.464 71.7491 165.37 71.8432C165.283 71.9307 165.172 71.9744 165.037 71.9744C164.903 71.9744 164.792 71.9307 164.704 71.8432Z" fill="#04005E"/>
<path d="M15.7316 85.744H15.086L15.9536 83.9686L13.3913 78.6826H14.047L16.2663 83.333L18.5562 78.6826H19.1715L15.7316 85.744Z" fill="#04005E"/>
<path d="M19.9501 82.8791H20.7571C21.0531 82.8791 21.3052 82.7849 21.5137 82.5966C21.7289 82.4016 21.8365 82.1763 21.8365 81.9208C21.8365 81.3424 21.4431 81.0532 20.6563 81.0532C20.0846 81.0532 19.6038 81.2819 19.2137 81.7392L18.8405 81.3559C19.3045 80.8179 19.9098 80.5489 20.6563 80.5489C21.2548 80.5489 21.6886 80.6766 21.9576 80.9322C22.2333 81.181 22.3712 81.4904 22.3712 81.8602C22.3712 82.1158 22.2837 82.3579 22.1089 82.5866C21.9408 82.8152 21.7188 82.9901 21.4431 83.1111C21.7659 83.2187 22.0181 83.3868 22.1997 83.6155C22.3813 83.8441 22.472 84.0997 22.472 84.3822C22.472 84.8058 22.3106 85.1656 21.9878 85.4615C21.665 85.7507 21.1707 85.8953 20.505 85.8953C19.745 85.8953 19.0961 85.6263 18.558 85.0883L18.9313 84.705C19.3886 85.1623 19.9132 85.3909 20.505 85.3909C21.4397 85.3909 21.9071 85.0513 21.9071 84.3721C21.9071 84.0829 21.8029 83.8441 21.5944 83.6558C21.3859 83.4608 21.1169 83.3633 20.7874 83.3633H19.9501V82.8791Z" fill="#04005E"/>
<path d="M27.5438 83.3734H24.2654V85.744H23.7307V80.7002H24.2654V82.8892H27.5438V80.7002H28.0785V85.744H27.5438V83.3734Z" fill="#04005E"/>
<path d="M30.9113 85.8953C30.3935 85.8953 29.9832 85.7642 29.6806 85.5019C29.3847 85.2396 29.2367 84.8933 29.2367 84.4629C29.2367 84.019 29.3948 83.6727 29.7109 83.4238C30.0269 83.1683 30.4103 83.0035 30.8608 82.9295C31.3518 82.8556 32.0276 82.8118 32.8885 82.7984V82.2839C32.8885 81.8064 32.7674 81.4803 32.5253 81.3054C32.2832 81.1239 31.9469 81.0331 31.5165 81.0331C30.9113 81.0331 30.3766 81.2651 29.9126 81.7291L29.5696 81.366C30.1278 80.8212 30.8104 80.5489 31.6174 80.5489C31.9604 80.5489 32.2529 80.5959 32.495 80.6901C32.7371 80.7842 32.9154 80.8918 33.0297 81.0129C33.1507 81.1272 33.2415 81.2819 33.302 81.4769C33.3693 81.6652 33.4063 81.8098 33.413 81.9107C33.4197 82.0116 33.4231 82.136 33.4231 82.2839V85.744H32.8885V84.7655C32.2966 85.5187 31.6376 85.8953 30.9113 85.8953ZM30.9113 85.4111C31.6712 85.4111 32.3303 84.984 32.8885 84.13V83.2826C32.0814 83.2893 31.4358 83.3297 30.9516 83.4037C30.8575 83.4171 30.7532 83.444 30.6389 83.4844C30.5313 83.518 30.4069 83.5751 30.2657 83.6558C30.1244 83.7298 30.0068 83.8374 29.9126 83.9786C29.8185 84.1199 29.7714 84.2813 29.7714 84.4629C29.7714 84.8058 29.8891 85.0513 30.1245 85.1993C30.3666 85.3405 30.6288 85.4111 30.9113 85.4111Z" fill="#04005E"/>
<path d="M38.6651 81.9208C38.6651 82.1427 38.6012 82.3579 38.4735 82.5664C38.3524 82.7749 38.1876 82.9464 37.9792 83.0809C38.2549 83.1885 38.4701 83.3566 38.6248 83.5852C38.7862 83.8139 38.8669 84.0661 38.8669 84.3418C38.8669 84.7251 38.7324 85.0547 38.4634 85.3304C38.1944 85.6061 37.8547 85.744 37.4445 85.744H34.8823V80.7002H37.3235C37.7068 80.7002 38.0262 80.8179 38.2818 81.0532C38.5373 81.2886 38.6651 81.5778 38.6651 81.9208ZM35.4169 85.2598H37.2932C37.5824 85.2598 37.8211 85.1757 38.0094 85.0076C38.2044 84.8395 38.302 84.6142 38.302 84.3317C38.302 84.0493 38.2044 83.8172 38.0094 83.6357C37.8211 83.4541 37.5824 83.3633 37.2932 83.3633H35.4169V85.2598ZM38.1305 81.9813C38.1305 81.7392 38.0397 81.5475 37.8581 81.4063C37.6765 81.2584 37.4546 81.1844 37.1923 81.1844H35.4169V82.8791H37.1923C37.4479 82.8791 37.6664 82.795 37.848 82.6269C38.0363 82.4521 38.1305 82.2369 38.1305 81.9813Z" fill="#04005E"/>
<path d="M41.3437 85.8953C40.8259 85.8953 40.4156 85.7642 40.113 85.5019C39.8171 85.2396 39.6691 84.8933 39.6691 84.4629C39.6691 84.019 39.8272 83.6727 40.1433 83.4238C40.4593 83.1683 40.8427 83.0035 41.2933 82.9295C41.7842 82.8556 42.4601 82.8118 43.3209 82.7984V82.2839C43.3209 81.8064 43.1998 81.4803 42.9577 81.3054C42.7156 81.1239 42.3794 81.0331 41.9489 81.0331C41.3437 81.0331 40.809 81.2651 40.345 81.7291L40.002 81.366C40.5602 80.8212 41.2428 80.5489 42.0498 80.5489C42.3928 80.5489 42.6853 80.5959 42.9275 80.6901C43.1696 80.7842 43.3478 80.8918 43.4621 81.0129C43.5831 81.1272 43.6739 81.2819 43.7345 81.4769C43.8017 81.6652 43.8387 81.8098 43.8454 81.9107C43.8521 82.0116 43.8555 82.136 43.8555 82.2839V85.744H43.3209V84.7655C42.7291 85.5187 42.07 85.8953 41.3437 85.8953ZM41.3437 85.4111C42.1036 85.4111 42.7627 84.984 43.3209 84.13V83.2826C42.5139 83.2893 41.8682 83.3297 41.384 83.4037C41.2899 83.4171 41.1857 83.444 41.0713 83.4844C40.9637 83.518 40.8393 83.5751 40.6981 83.6558C40.5569 83.7298 40.4392 83.8374 40.345 83.9786C40.2509 84.1199 40.2038 84.2813 40.2038 84.4629C40.2038 84.8058 40.3215 85.0513 40.5569 85.1993C40.799 85.3405 41.0612 85.4111 41.3437 85.4111Z" fill="#04005E"/>
<path d="M46.1923 79.0559C46.5891 79.2375 47.0262 79.3283 47.5037 79.3283C47.9812 79.3283 48.4183 79.2375 48.8151 79.0559L49.0471 79.4897C48.5965 79.6981 48.082 79.8024 47.5037 79.8024C46.9253 79.8024 46.4109 79.6981 45.9603 79.4897L46.1923 79.0559ZM45.8493 80.7002V85.0378L49.1278 80.7002H49.6927V85.744H49.1581V81.4164L45.8897 85.744H45.3147V80.7002H45.8493Z" fill="#04005E"/>
<path d="M54.3607 80.7002V85.0378L57.6392 80.7002H58.2041V85.744H57.6695V81.4164L54.4011 85.744H53.8261V80.7002H54.3607Z" fill="#04005E"/>
<path d="M63.6287 83.3734H60.3503V85.744H59.8156V80.7002H60.3503V82.8892H63.6287V80.7002H64.1634V85.744H63.6287V83.3734Z" fill="#04005E"/>
<path d="M69.3466 80.7002V81.1844H67.4501V85.744H66.9155V81.1844H65.019V80.7002H69.3466Z" fill="#04005E"/>
<path d="M74.6142 83.0203V83.1313H69.994C69.9873 83.1851 69.9839 83.2591 69.9839 83.3532C69.9839 83.9585 70.1958 84.4494 70.6195 84.826C71.0499 85.2026 71.5812 85.3909 72.2133 85.3909C72.5159 85.3909 72.8287 85.3304 73.1515 85.2093C73.481 85.0816 73.75 84.9134 73.9585 84.705L74.3317 85.0883C74.0829 85.3371 73.7634 85.5355 73.3734 85.6835C72.9833 85.8247 72.5966 85.8953 72.2133 85.8953C71.4332 85.8953 70.7775 85.6599 70.2462 85.1892C69.7149 84.7117 69.4493 84.0997 69.4493 83.3532C69.4493 82.5731 69.6981 81.9107 70.1958 81.366C70.6934 80.8212 71.3054 80.5489 72.0317 80.5489C72.8589 80.5489 73.4944 80.7977 73.9383 81.2953C74.3889 81.7863 74.6142 82.3613 74.6142 83.0203ZM74.0493 82.6471C73.9753 82.1965 73.7634 81.8199 73.4137 81.5173C73.0708 81.2079 72.6101 81.0532 72.0317 81.0532C71.5542 81.0532 71.1373 81.2012 70.7809 81.4971C70.4312 81.7863 70.1958 82.1696 70.0747 82.6471H74.0493Z" fill="#04005E"/>
<path d="M78.2256 85.8953C77.4791 85.8953 76.8436 85.6263 76.319 85.0883V87.8019H75.7844V80.7002H76.319V81.366C76.8436 80.8212 77.4791 80.5489 78.2256 80.5489C78.9519 80.5489 79.574 80.8111 80.0918 81.3357C80.6096 81.8602 80.8686 82.489 80.8686 83.2221C80.8686 83.9551 80.6096 84.5839 80.0918 85.1085C79.574 85.633 78.9519 85.8953 78.2256 85.8953ZM78.1046 81.0028C77.7481 81.0028 77.4119 81.0869 77.0958 81.255C76.7864 81.4164 76.5275 81.635 76.319 81.9107V84.5335C76.5208 84.8159 76.7797 85.0378 77.0958 85.1993C77.4119 85.3607 77.7481 85.4414 78.1046 85.4414C78.7098 85.4414 79.2276 85.2262 79.6581 84.7957C80.0952 84.3586 80.3137 83.8341 80.3137 83.2221C80.3137 82.6168 80.0952 82.0956 79.6581 81.6585C79.2276 81.2214 78.7098 81.0028 78.1046 81.0028Z" fill="#04005E"/>
<path d="M86.741 83.0203V83.1313H82.1208C82.1141 83.1851 82.1108 83.2591 82.1108 83.3532C82.1108 83.9585 82.3226 84.4494 82.7463 84.826C83.1767 85.2026 83.708 85.3909 84.3401 85.3909C84.6428 85.3909 84.9555 85.3304 85.2783 85.2093C85.6078 85.0816 85.8768 84.9134 86.0853 84.705L86.4585 85.0883C86.2097 85.3371 85.8903 85.5355 85.5002 85.6835C85.1101 85.8247 84.7234 85.8953 84.3401 85.8953C83.56 85.8953 82.9043 85.6599 82.373 85.1892C81.8418 84.7117 81.5761 84.0997 81.5761 83.3532C81.5761 82.5731 81.8249 81.9107 82.3226 81.366C82.8203 80.8212 83.4322 80.5489 84.1585 80.5489C84.9857 80.5489 85.6212 80.7977 86.0651 81.2953C86.5157 81.7863 86.741 82.3613 86.741 83.0203ZM86.1761 82.6471C86.1021 82.1965 85.8903 81.8199 85.5406 81.5173C85.1976 81.2079 84.7369 81.0532 84.1585 81.0532C83.6811 81.0532 83.2641 81.2012 82.9077 81.4971C82.558 81.7863 82.3226 82.1696 82.2015 82.6471H86.1761Z" fill="#04005E"/>
<path d="M88.5669 81.6787C88.1836 82.0889 87.9919 82.6034 87.9919 83.2221C87.9919 83.8408 88.1836 84.3586 88.5669 84.7756C88.957 85.1858 89.458 85.3909 90.07 85.3909C90.6618 85.3909 91.1863 85.1623 91.6436 84.705L92.0169 85.0883C91.4789 85.6263 90.8299 85.8953 90.07 85.8953C89.3302 85.8953 88.7081 85.6263 88.2038 85.0883C87.7061 84.5503 87.4573 83.9282 87.4573 83.2221C87.4573 82.5159 87.7061 81.8939 88.2038 81.3559C88.7081 80.8179 89.3302 80.5489 90.07 80.5489C90.8299 80.5489 91.4789 80.8179 92.0169 81.3559L91.6436 81.7392C91.1863 81.2819 90.6618 81.0532 90.07 81.0532C89.458 81.0532 88.957 81.2617 88.5669 81.6787Z" fill="#04005E"/>
<path d="M96.9947 83.3734H93.7162V85.744H93.1816V80.7002H93.7162V82.8892H96.9947V80.7002H97.5294V85.744H96.9947V83.3734Z" fill="#04005E"/>
<path d="M99.6762 82.6572H101.431C101.936 82.6572 102.329 82.8118 102.612 83.1212C102.901 83.4306 103.045 83.7903 103.045 84.2006C103.045 84.6108 102.901 84.9706 102.612 85.28C102.329 85.5893 101.936 85.744 101.431 85.744H99.1416V80.7002H99.6762V82.6572ZM99.6762 85.2598H101.442C101.737 85.2598 101.986 85.1656 102.188 84.9773C102.39 84.7823 102.491 84.5234 102.491 84.2006C102.491 83.8778 102.39 83.6222 102.188 83.4339C101.986 83.2389 101.737 83.1414 101.442 83.1414H99.6762V85.2598ZM103.812 85.744V80.7002H104.347V85.744H103.812Z" fill="#04005E"/>
<path d="M110.67 83.0203V83.1313H106.049C106.043 83.1851 106.039 83.2591 106.039 83.3532C106.039 83.9585 106.251 84.4494 106.675 84.826C107.105 85.2026 107.636 85.3909 108.269 85.3909C108.571 85.3909 108.884 85.3304 109.207 85.2093C109.536 85.0816 109.805 84.9134 110.014 84.705L110.387 85.0883C110.138 85.3371 109.819 85.5355 109.429 85.6835C109.039 85.8247 108.652 85.8953 108.269 85.8953C107.489 85.8953 106.833 85.6599 106.302 85.1892C105.77 84.7117 105.505 84.0997 105.505 83.3532C105.505 82.5731 105.753 81.9107 106.251 81.366C106.749 80.8212 107.361 80.5489 108.087 80.5489C108.914 80.5489 109.55 80.7977 109.994 81.2953C110.444 81.7863 110.67 82.3613 110.67 83.0203ZM110.105 82.6471C110.031 82.1965 109.819 81.8199 109.469 81.5173C109.126 81.2079 108.665 81.0532 108.087 81.0532C107.61 81.0532 107.193 81.2012 106.836 81.4971C106.487 81.7863 106.251 82.1696 106.13 82.6471H110.105Z" fill="#04005E"/>
<path d="M117.691 85.8953H117.388V87.8019H116.853V85.8953H116.551C115.824 85.8953 115.202 85.633 114.684 85.1085C114.167 84.5839 113.908 83.9551 113.908 83.2221C113.908 82.489 114.167 81.8602 114.684 81.3357C115.202 80.8111 115.824 80.5489 116.551 80.5489H116.853V78.5818H117.388V80.5489H117.691C118.417 80.5489 119.039 80.8111 119.557 81.3357C120.075 81.8602 120.334 82.489 120.334 83.2221C120.334 83.9551 120.075 84.5839 119.557 85.1085C119.039 85.633 118.417 85.8953 117.691 85.8953ZM117.57 85.4414C118.175 85.4414 118.693 85.2262 119.123 84.7957C119.56 84.3586 119.779 83.8341 119.779 83.2221C119.779 82.6168 119.56 82.0956 119.123 81.6585C118.693 81.2214 118.175 81.0028 117.57 81.0028H117.388V85.4414H117.57ZM116.672 81.0028C116.066 81.0028 115.545 81.2214 115.108 81.6585C114.678 82.0956 114.463 82.6168 114.463 83.2221C114.463 83.8341 114.678 84.3586 115.108 84.7957C115.545 85.2262 116.066 85.4414 116.672 85.4414H116.853V81.0028H116.672Z" fill="#04005E"/>
<path d="M122.715 85.8953C122.197 85.8953 121.786 85.7642 121.484 85.5019C121.188 85.2396 121.04 84.8933 121.04 84.4629C121.04 84.019 121.198 83.6727 121.514 83.4238C121.83 83.1683 122.214 83.0035 122.664 82.9295C123.155 82.8556 123.831 82.8118 124.692 82.7984V82.2839C124.692 81.8064 124.571 81.4803 124.329 81.3054C124.086 81.1239 123.75 81.0331 123.32 81.0331C122.715 81.0331 122.18 81.2651 121.716 81.7291L121.373 81.366C121.931 80.8212 122.614 80.5489 123.421 80.5489C123.764 80.5489 124.056 80.5959 124.298 80.6901C124.54 80.7842 124.719 80.8918 124.833 81.0129C124.954 81.1272 125.045 81.2819 125.105 81.4769C125.173 81.6652 125.21 81.8098 125.216 81.9107C125.223 82.0116 125.226 82.136 125.226 82.2839V85.744H124.692V84.7655C124.1 85.5187 123.441 85.8953 122.715 85.8953ZM122.715 85.4111C123.474 85.4111 124.134 84.984 124.692 84.13V83.2826C123.885 83.2893 123.239 83.3297 122.755 83.4037C122.661 83.4171 122.556 83.444 122.442 83.4844C122.335 83.518 122.21 83.5751 122.069 83.6558C121.928 83.7298 121.81 83.8374 121.716 83.9786C121.622 84.1199 121.575 84.2813 121.575 84.4629C121.575 84.8058 121.692 85.0513 121.928 85.1993C122.17 85.3405 122.432 85.4111 122.715 85.4111Z" fill="#04005E"/>
<path d="M130.065 85.744L127.402 83.0809L129.964 80.7002H130.741L128.078 83.0809L130.842 85.744H130.065ZM126.685 80.7002H127.22V85.744H126.685V80.7002Z" fill="#04005E"/>
<path d="M135.281 80.7002V81.1844H133.384V85.744H132.85V81.1844H130.953V80.7002H135.281Z" fill="#04005E"/>
<path d="M136.677 82.6572H138.433C138.937 82.6572 139.33 82.8118 139.613 83.1212C139.902 83.4306 140.047 83.7903 140.047 84.2006C140.047 84.6108 139.902 84.9706 139.613 85.28C139.33 85.5893 138.937 85.744 138.433 85.744H136.143V80.7002H136.677V82.6572ZM136.677 85.2598H138.443C138.739 85.2598 138.987 85.1656 139.189 84.9773C139.391 84.7823 139.492 84.5234 139.492 84.2006C139.492 83.8778 139.391 83.6222 139.189 83.4339C138.987 83.2389 138.739 83.1414 138.443 83.1414H136.677V85.2598ZM140.813 85.744V80.7002H141.348V85.744H140.813Z" fill="#04005E"/>
<path d="M146.016 80.7002V85.0378L149.295 80.7002H149.86V85.744H149.325V81.4164L146.057 85.744H145.482V80.7002H146.016Z" fill="#04005E"/>
<path d="M152.409 82.8791H153.216C153.512 82.8791 153.764 82.7849 153.973 82.5966C154.188 82.4016 154.296 82.1763 154.296 81.9208C154.296 81.3424 153.902 81.0532 153.115 81.0532C152.544 81.0532 152.063 81.2819 151.673 81.7392L151.3 81.3559C151.764 80.8179 152.369 80.5489 153.115 80.5489C153.714 80.5489 154.148 80.6766 154.417 80.9322C154.692 81.181 154.83 81.4904 154.83 81.8602C154.83 82.1158 154.743 82.3579 154.568 82.5866C154.4 82.8152 154.178 82.9901 153.902 83.1111C154.225 83.2187 154.477 83.3868 154.659 83.6155C154.84 83.8441 154.931 84.0997 154.931 84.3822C154.931 84.8058 154.77 85.1656 154.447 85.4615C154.124 85.7507 153.63 85.8953 152.964 85.8953C152.204 85.8953 151.555 85.6263 151.017 85.0883L151.39 84.705C151.848 85.1623 152.372 85.3909 152.964 85.3909C153.899 85.3909 154.366 85.0513 154.366 84.3721C154.366 84.0829 154.262 83.8441 154.054 83.6558C153.845 83.4608 153.576 83.3633 153.247 83.3633H152.409V82.8791Z" fill="#04005E"/>
<path d="M16.5891 97.4456L18.5562 94.5706H19.1312V99.6145H18.5965V95.4382L16.7404 98.1114H16.4277L14.5816 95.4382V99.6145H14.047V94.5706H14.622L16.5891 97.4456Z" fill="#04005E"/>
<path d="M21.2804 94.5706V98.9083L24.5589 94.5706H25.1238V99.6145H24.5892V95.2869L21.3208 99.6145H20.7458V94.5706H21.2804Z" fill="#04005E"/>
<path d="M29.1765 99.7658C28.43 99.7658 27.7945 99.4968 27.27 98.9588V101.672H26.7353V94.5706H27.27V95.2364C27.7945 94.6917 28.43 94.4193 29.1765 94.4193C29.9028 94.4193 30.5249 94.6816 31.0427 95.2062C31.5606 95.7307 31.8195 96.3595 31.8195 97.0926C31.8195 97.8256 31.5606 98.4544 31.0427 98.9789C30.5249 99.5035 29.9028 99.7658 29.1765 99.7658ZM29.0555 94.8733C28.699 94.8733 28.3628 94.9573 28.0467 95.1255C27.7374 95.2869 27.4784 95.5054 27.27 95.7812V98.4039C27.4717 98.6864 27.7306 98.9083 28.0467 99.0697C28.3628 99.2311 28.699 99.3118 29.0555 99.3118C29.6607 99.3118 30.1786 99.0966 30.609 98.6662C31.0461 98.2291 31.2647 97.7045 31.2647 97.0926C31.2647 96.4873 31.0461 95.9661 30.609 95.529C30.1786 95.0918 29.6607 94.8733 29.0555 94.8733Z" fill="#04005E"/>
<path d="M34.2016 99.7658C33.6837 99.7658 33.2735 99.6346 32.9709 99.3724C32.675 99.1101 32.527 98.7637 32.527 98.3333C32.527 97.8895 32.6851 97.5431 33.0012 97.2943C33.3172 97.0388 33.7006 96.874 34.1511 96.8C34.6421 96.726 35.3179 96.6823 36.1788 96.6689V96.1544C36.1788 95.6769 36.0577 95.3508 35.8156 95.1759C35.5735 94.9943 35.2372 94.9035 34.8068 94.9035C34.2016 94.9035 33.6669 95.1356 33.2029 95.5996L32.8599 95.2364C33.4181 94.6917 34.1007 94.4193 34.9077 94.4193C35.2507 94.4193 35.5432 94.4664 35.7853 94.5606C36.0274 94.6547 36.2057 94.7623 36.32 94.8834C36.441 94.9977 36.5318 95.1524 36.5923 95.3474C36.6596 95.5357 36.6966 95.6803 36.7033 95.7812C36.71 95.882 36.7134 96.0065 36.7134 96.1544V99.6145H36.1788V98.636C35.5869 99.3892 34.9279 99.7658 34.2016 99.7658ZM34.2016 99.2816C34.9615 99.2816 35.6206 98.8545 36.1788 98.0004V97.1531C35.3717 97.1598 34.7261 97.2002 34.2419 97.2741C34.1478 97.2876 34.0435 97.3145 33.9292 97.3548C33.8216 97.3885 33.6972 97.4456 33.556 97.5263C33.4147 97.6003 33.2971 97.7079 33.2029 97.8491C33.1088 97.9903 33.0617 98.1518 33.0617 98.3333C33.0617 98.6763 33.1794 98.9218 33.4147 99.0697C33.6569 99.211 33.9191 99.2816 34.2016 99.2816Z" fill="#04005E"/>
<path d="M44.4773 95.7912C44.4773 96.0132 44.4134 96.2284 44.2857 96.4369C44.1646 96.6453 43.9998 96.8168 43.7914 96.9513C44.0671 97.0589 44.2823 97.2271 44.437 97.4557C44.5984 97.6844 44.6791 97.9366 44.6791 98.2123C44.6791 98.5956 44.5446 98.9251 44.2756 99.2009C44.0066 99.4766 43.6669 99.6145 43.2567 99.6145H40.6945V94.5706H43.1357C43.519 94.5706 43.8384 94.6883 44.094 94.9237C44.3495 95.1591 44.4773 95.4483 44.4773 95.7912ZM41.2291 99.1303H43.1054C43.3946 99.1303 43.6333 99.0462 43.8216 98.8781C44.0167 98.7099 44.1142 98.4846 44.1142 98.2022C44.1142 97.9197 44.0167 97.6877 43.8216 97.5061C43.6333 97.3246 43.3946 97.2338 43.1054 97.2338H41.2291V99.1303ZM43.9427 95.8518C43.9427 95.6097 43.8519 95.418 43.6703 95.2768C43.4887 95.1288 43.2668 95.0549 43.0045 95.0549H41.2291V96.7496H43.0045C43.2601 96.7496 43.4786 96.6655 43.6602 96.4974C43.8485 96.3225 43.9427 96.1073 43.9427 95.8518Z" fill="#04005E"/>
<path d="M46.4699 94.5706V98.9083L49.7484 94.5706H50.3133V99.6145H49.7787V95.2869L46.5103 99.6145H45.9353V94.5706H46.4699Z" fill="#04005E"/>
<path d="M51.8038 99.6145V101.037H51.2691V99.1303H51.8643C52.0728 98.8209 52.251 98.3602 52.3989 97.7482C52.5469 97.1295 52.6209 96.4705 52.6209 95.7711V94.5706H56.0305V99.1303H56.7669V101.037H56.2322V99.6145H51.8038ZM55.4958 99.1303V95.0549H53.1454V95.7711C53.1454 96.4436 53.0714 97.0993 52.9235 97.7382C52.7823 98.3703 52.6242 98.8344 52.4494 99.1303H55.4958Z" fill="#04005E"/>
<path d="M62.4873 96.8908V97.0018H57.8672C57.8605 97.0556 57.8571 97.1295 57.8571 97.2237C57.8571 97.8289 58.069 98.3199 58.4926 98.6965C58.9231 99.0731 59.4543 99.2614 60.0865 99.2614C60.3891 99.2614 60.7018 99.2009 61.0246 99.0798C61.3542 98.952 61.6232 98.7839 61.8316 98.5754L62.2049 98.9588C61.9561 99.2076 61.6366 99.406 61.2466 99.5539C60.8565 99.6952 60.4698 99.7658 60.0865 99.7658C59.3064 99.7658 58.6507 99.5304 58.1194 99.0596C57.5881 98.5822 57.3225 97.9702 57.3225 97.2237C57.3225 96.4436 57.5713 95.7812 58.069 95.2364C58.5666 94.6917 59.1786 94.4193 59.9049 94.4193C60.7321 94.4193 61.3676 94.6682 61.8115 95.1658C62.2621 95.6567 62.4873 96.2317 62.4873 96.8908ZM61.9224 96.5176C61.8485 96.067 61.6366 95.6904 61.2869 95.3877C60.9439 95.0784 60.4833 94.9237 59.9049 94.9237C59.4274 94.9237 59.0105 95.0717 58.654 95.3676C58.3043 95.6567 58.069 96.0401 57.9479 96.5176H61.9224Z" fill="#04005E"/>
<path d="M65.9677 99.3421C66.5998 99.3421 67.1277 99.1235 67.5514 98.6864C67.9818 98.2493 68.197 97.718 68.197 97.0926C68.197 96.4738 67.9818 95.9459 67.5514 95.5088C67.1277 95.0649 66.5998 94.843 65.9677 94.843C65.3288 94.843 64.7975 95.0649 64.3738 95.5088C63.9501 95.9459 63.7383 96.4738 63.7383 97.0926C63.7383 97.718 63.9501 98.2493 64.3738 98.6864C64.7975 99.1235 65.3288 99.3421 65.9677 99.3421ZM67.965 98.9991C67.4539 99.5102 66.7881 99.7658 65.9677 99.7658C65.1472 99.7658 64.4814 99.5102 63.9703 98.9991C63.4592 98.4813 63.2036 97.8458 63.2036 97.0926C63.2036 96.3393 63.4592 95.7072 63.9703 95.1961C64.4814 94.6782 65.1472 94.4193 65.9677 94.4193C66.7881 94.4193 67.4539 94.6782 67.965 95.1961C68.4761 95.7072 68.7317 96.3393 68.7317 97.0926C68.7317 97.8458 68.4761 98.4813 67.965 98.9991Z" fill="#04005E"/>
<path d="M69.7925 96.9009V96.336H72.496V96.9009H69.7925Z" fill="#04005E"/>
<path d="M74.5458 94.5706V98.9083L77.8243 94.5706H78.3892V99.6145H77.8546V95.2869L74.5862 99.6145H74.0112V94.5706H74.5458Z" fill="#04005E"/>
<path d="M83.5717 94.5706V95.0549H80.5354V99.6145H80.0007V94.5706H83.5717Z" fill="#04005E"/>
<path d="M86.875 99.7658C86.1285 99.7658 85.4929 99.4968 84.9684 98.9588V101.672H84.4337V94.5706H84.9684V95.2364C85.4929 94.6917 86.1285 94.4193 86.875 94.4193C87.6013 94.4193 88.2233 94.6816 88.7412 95.2062C89.259 95.7307 89.5179 96.3595 89.5179 97.0926C89.5179 97.8256 89.259 98.4544 88.7412 98.9789C88.2233 99.5035 87.6013 99.7658 86.875 99.7658ZM86.7539 94.8733C86.3975 94.8733 86.0612 94.9573 85.7451 95.1255C85.4358 95.2869 85.1769 95.5054 84.9684 95.7812V98.4039C85.1701 98.6864 85.4291 98.9083 85.7451 99.0697C86.0612 99.2311 86.3975 99.3118 86.7539 99.3118C87.3592 99.3118 87.877 99.0966 88.3074 98.6662C88.7445 98.2291 88.9631 97.7045 88.9631 97.0926C88.9631 96.4873 88.7445 95.9661 88.3074 95.529C87.877 95.0918 87.3592 94.8733 86.7539 94.8733Z" fill="#04005E"/>
<path d="M93.7359 94.5706V98.9083L97.0144 94.5706H97.5793V99.6145H97.0447V95.2869L93.7763 99.6145H93.2013V94.5706H93.7359Z" fill="#04005E"/>
<path d="M105.556 95.0549H102.247V99.6145H101.713V94.5706H106.091V99.6145H105.556V95.0549Z" fill="#04005E"/>
<path d="M110.012 99.3421C110.644 99.3421 111.172 99.1235 111.596 98.6864C112.026 98.2493 112.242 97.718 112.242 97.0926C112.242 96.4738 112.026 95.9459 111.596 95.5088C111.172 95.0649 110.644 94.843 110.012 94.843C109.373 94.843 108.842 95.0649 108.418 95.5088C107.995 95.9459 107.783 96.4738 107.783 97.0926C107.783 97.718 107.995 98.2493 108.418 98.6864C108.842 99.1235 109.373 99.3421 110.012 99.3421ZM112.01 98.9991C111.499 99.5102 110.833 99.7658 110.012 99.7658C109.192 99.7658 108.526 99.5102 108.015 98.9991C107.504 98.4813 107.248 97.8458 107.248 97.0926C107.248 96.3393 107.504 95.7072 108.015 95.1961C108.526 94.6782 109.192 94.4193 110.012 94.4193C110.833 94.4193 111.499 94.6782 112.01 95.1961C112.521 95.7072 112.776 96.3393 112.776 97.0926C112.776 97.8458 112.521 98.4813 112.01 98.9991Z" fill="#04005E"/>
<path d="M112.927 99.6145V99.1303H113.249C113.586 99.1303 113.828 98.9453 113.976 98.5754C114.124 98.2056 114.198 97.5398 114.198 96.5781V94.5706H117.799V99.6145H117.264V95.0549H114.732V96.5781C114.732 98.6023 114.238 99.6145 113.249 99.6145H112.927Z" fill="#04005E"/>
<path d="M123.582 94.5706L120.575 101.672H119.98L120.848 99.6044L118.709 94.5706H119.325L121.14 98.9083L122.986 94.5706H123.582Z" fill="#04005E"/>
<path d="M123.887 96.0434V94.5706H124.422V96.0434C124.422 96.837 124.872 97.2338 125.773 97.2338C126.258 97.2338 126.779 97.1833 127.337 97.0825V94.5706H127.872V99.6145H127.337V97.5768C126.732 97.6709 126.204 97.718 125.753 97.718C125.168 97.718 124.711 97.5801 124.381 97.3044C124.052 97.0287 123.887 96.6083 123.887 96.0434Z" fill="#04005E"/>
<path d="M130.704 99.7658C130.186 99.7658 129.776 99.6346 129.473 99.3724C129.177 99.1101 129.029 98.7637 129.029 98.3333C129.029 97.8895 129.187 97.5431 129.503 97.2943C129.819 97.0388 130.203 96.874 130.653 96.8C131.144 96.726 131.82 96.6823 132.681 96.6689V96.1544C132.681 95.6769 132.56 95.3508 132.318 95.1759C132.076 94.9943 131.739 94.9035 131.309 94.9035C130.704 94.9035 130.169 95.1356 129.705 95.5996L129.362 95.2364C129.92 94.6917 130.603 94.4193 131.41 94.4193C131.753 94.4193 132.045 94.4664 132.288 94.5606C132.53 94.6547 132.708 94.7623 132.822 94.8834C132.943 94.9977 133.034 95.1524 133.095 95.3474C133.162 95.5357 133.199 95.6803 133.206 95.7812C133.212 95.882 133.216 96.0065 133.216 96.1544V99.6145H132.681V98.636C132.089 99.3892 131.43 99.7658 130.704 99.7658ZM130.704 99.2816C131.464 99.2816 132.123 98.8545 132.681 98.0004V97.1531C131.874 97.1598 131.228 97.2002 130.744 97.2741C130.65 97.2876 130.546 97.3145 130.431 97.3548C130.324 97.3885 130.199 97.4456 130.058 97.5263C129.917 97.6003 129.799 97.7079 129.705 97.8491C129.611 97.9903 129.564 98.1518 129.564 98.3333C129.564 98.6763 129.682 98.9218 129.917 99.0697C130.159 99.211 130.421 99.2816 130.704 99.2816Z" fill="#04005E"/>
<path d="M135.552 92.9264C135.949 93.1079 136.386 93.1987 136.864 93.1987C137.341 93.1987 137.778 93.1079 138.175 92.9264L138.407 93.3601C137.957 93.5686 137.442 93.6728 136.864 93.6728C136.285 93.6728 135.771 93.5686 135.32 93.3601L135.552 92.9264ZM135.209 94.5706V98.9083L138.488 94.5706H139.053V99.6145H138.518V95.2869L135.25 99.6145H134.675V94.5706H135.209Z" fill="#04005E"/>
<path d="M147.675 92.7851C147.386 92.8591 147.073 92.9297 146.737 92.997C146.408 93.0642 146.132 93.118 145.91 93.1584C145.695 93.192 145.463 93.2391 145.214 93.2996C144.965 93.3534 144.763 93.4106 144.609 93.4711C144.454 93.5316 144.293 93.6123 144.124 93.7132C143.963 93.8074 143.832 93.9217 143.731 94.0562C143.63 94.184 143.536 94.3454 143.449 94.5404C143.368 94.7287 143.304 94.9506 143.257 95.2062C143.217 95.4617 143.19 95.7576 143.176 96.0939C143.364 95.5962 143.674 95.2129 144.104 94.9439C144.535 94.6749 145.009 94.5404 145.527 94.5404C146.219 94.5404 146.821 94.7724 147.332 95.2364C147.843 95.6937 148.099 96.3293 148.099 97.143C148.099 97.8962 147.86 98.5216 147.383 99.0193C146.905 99.5169 146.256 99.7658 145.436 99.7658C144.588 99.7658 143.926 99.4934 143.449 98.9487C142.971 98.3972 142.732 97.6171 142.732 96.6083C142.732 96.1914 142.749 95.8215 142.783 95.4987C142.816 95.1759 142.86 94.8935 142.914 94.6513C142.968 94.4025 143.045 94.184 143.146 93.9957C143.253 93.8074 143.361 93.6493 143.469 93.5215C143.583 93.3938 143.728 93.2828 143.902 93.1886C144.084 93.0945 144.256 93.0172 144.417 92.9566C144.585 92.8961 144.797 92.8356 145.052 92.7751C145.308 92.7145 145.547 92.6641 145.769 92.6237C145.997 92.5834 146.276 92.5262 146.606 92.4522C146.942 92.3783 147.255 92.3043 147.544 92.2303L147.675 92.7851ZM145.436 99.3118C146.061 99.3118 146.569 99.1067 146.959 98.6965C147.349 98.2795 147.544 97.7617 147.544 97.143C147.544 96.4638 147.336 95.9358 146.919 95.5592C146.502 95.1759 146.007 94.9842 145.436 94.9842C144.864 94.9842 144.37 95.1759 143.953 95.5592C143.543 95.9358 143.338 96.4638 143.338 97.143C143.338 97.7684 143.529 98.2863 143.913 98.6965C144.296 99.1067 144.804 99.3118 145.436 99.3118Z" fill="#04005E"/>
<path d="M150.475 99.7658C149.957 99.7658 149.547 99.6346 149.244 99.3724C148.949 99.1101 148.801 98.7637 148.801 98.3333C148.801 97.8895 148.959 97.5431 149.275 97.2943C149.591 97.0388 149.974 96.874 150.425 96.8C150.916 96.726 151.592 96.6823 152.452 96.6689V96.1544C152.452 95.6769 152.331 95.3508 152.089 95.1759C151.847 94.9943 151.511 94.9035 151.08 94.9035C150.475 94.9035 149.941 95.1356 149.477 95.5996L149.134 95.2364C149.692 94.6917 150.374 94.4193 151.181 94.4193C151.524 94.4193 151.817 94.4664 152.059 94.5606C152.301 94.6547 152.479 94.7623 152.594 94.8834C152.715 94.9977 152.805 95.1524 152.866 95.3474C152.933 95.5357 152.97 95.6803 152.977 95.7812C152.984 95.882 152.987 96.0065 152.987 96.1544V99.6145H152.452V98.636C151.861 99.3892 151.201 99.7658 150.475 99.7658ZM150.475 99.2816C151.235 99.2816 151.894 98.8545 152.452 98.0004V97.1531C151.645 97.1598 151 97.2002 150.516 97.2741C150.421 97.2876 150.317 97.3145 150.203 97.3548C150.095 97.3885 149.971 97.4456 149.83 97.5263C149.688 97.6003 149.571 97.7079 149.477 97.8491C149.382 97.9903 149.335 98.1518 149.335 98.3333C149.335 98.6763 149.453 98.9218 149.688 99.0697C149.93 99.211 150.193 99.2816 150.475 99.2816Z" fill="#04005E"/>
<path d="M153.74 99.6145V99.1303H154.063C154.399 99.1303 154.641 98.9453 154.789 98.5754C154.937 98.2056 155.011 97.5398 155.011 96.5781V94.5706H158.612V99.6145H158.078V95.0549H155.546V96.5781C155.546 98.6023 155.051 99.6145 154.063 99.6145H153.74Z" fill="#04005E"/>
<path d="M159.523 99.6145V99.1303H159.845C160.182 99.1303 160.424 98.9453 160.572 98.5754C160.72 98.2056 160.794 97.5398 160.794 96.5781V94.5706H164.395V99.6145H163.86V95.0549H161.328V96.5781C161.328 98.6023 160.834 99.6145 159.845 99.6145H159.523Z" fill="#04005E"/>
<path d="M166.546 96.5276H168.301C168.806 96.5276 169.199 96.6823 169.482 96.9917C169.771 97.301 169.915 97.6608 169.915 98.0711C169.915 98.4813 169.771 98.8411 169.482 99.1504C169.199 99.4598 168.806 99.6145 168.301 99.6145H166.011V94.5706H166.546V96.5276ZM166.546 99.1303H168.311C168.607 99.1303 168.856 99.0361 169.058 98.8478C169.26 98.6528 169.361 98.3939 169.361 98.0711C169.361 97.7482 169.26 97.4927 169.058 97.3044C168.856 97.1094 168.607 97.0119 168.311 97.0119H166.546V99.1303ZM170.682 99.6145V94.5706H171.217V99.6145H170.682Z" fill="#04005E"/>
<path d="M266.366 25.484L266.442 24.7653H266.404L266.041 25.4159L265.269 26.7096H265.08L264.27 25.4083L263.922 24.7653H263.884L263.975 25.4764V29.0021H263.362V23.7061H263.945L265.201 25.7185H265.216L266.427 23.7061H266.994V29.0021H266.366V25.484Z" fill="#04005E"/>
<path d="M271.447 28.5254C271.356 28.6061 271.248 28.6818 271.122 28.7524C271.001 28.823 270.867 28.8835 270.721 28.934C270.575 28.9844 270.421 29.0222 270.259 29.0474C270.103 29.0777 269.944 29.0928 269.783 29.0928C269.48 29.0928 269.213 29.0474 268.981 28.9567C268.749 28.8608 268.555 28.7272 268.398 28.5557C268.242 28.3791 268.123 28.1698 268.043 27.9277C267.962 27.6856 267.922 27.4133 267.922 27.1106C267.922 26.7929 267.965 26.5104 268.05 26.2633C268.141 26.0161 268.27 25.8093 268.436 25.6429C268.603 25.4764 268.804 25.3503 269.041 25.2646C269.278 25.1738 269.543 25.1284 269.836 25.1284C270.048 25.1284 270.257 25.1561 270.464 25.2116C270.671 25.2671 270.852 25.373 271.008 25.5294C271.17 25.6807 271.293 25.8925 271.379 26.1649C271.465 26.4322 271.495 26.7803 271.47 27.209H268.542C268.542 27.6629 268.663 28.0034 268.905 28.2304C269.152 28.4523 269.48 28.5632 269.889 28.5632C270.025 28.5632 270.159 28.5481 270.29 28.5178C270.426 28.4825 270.555 28.4422 270.676 28.3968C270.797 28.3514 270.903 28.301 270.993 28.2455C271.089 28.19 271.162 28.1396 271.213 28.0942L271.447 28.5254ZM269.851 25.6277C269.684 25.6277 269.526 25.6454 269.374 25.6807C269.228 25.716 269.097 25.7765 268.981 25.8623C268.87 25.943 268.777 26.0514 268.701 26.1876C268.63 26.3187 268.585 26.4827 268.565 26.6794H270.918C270.892 26.3465 270.784 26.0893 270.592 25.9077C270.406 25.7211 270.159 25.6277 269.851 25.6277Z" fill="#04005E"/>
<path d="M276.264 29.9099H275.749V29.0021H272.708V29.9099H272.193V28.4876H272.617C272.662 28.4321 272.723 28.3337 272.799 28.1925C272.874 28.0463 272.947 27.8445 273.018 27.5873C273.089 27.325 273.152 27.0022 273.207 26.6189C273.263 26.2305 273.295 25.7639 273.305 25.2192H275.681V28.4876H276.264V29.9099ZM275.091 28.4952V25.7261H273.843C273.833 25.943 273.812 26.1775 273.782 26.4297C273.757 26.6819 273.719 26.9341 273.669 27.1863C273.618 27.4334 273.555 27.6705 273.479 27.8975C273.409 28.1244 273.326 28.3237 273.23 28.4952H275.091Z" fill="#04005E"/>
<path d="M279.824 26.6264L279.847 26.1271H279.824L277.698 29.0021H277.161V25.2192H277.751V27.6629L277.728 28.1396H277.759L279.87 25.2192H280.414V29.0021H279.824V26.6264Z" fill="#04005E"/>
<path d="M281.872 25.5143C282.088 25.3882 282.333 25.2974 282.605 25.2419C282.878 25.1864 283.145 25.1587 283.407 25.1587C283.665 25.1587 283.874 25.199 284.035 25.2797C284.202 25.3604 284.33 25.4663 284.421 25.5975C284.517 25.7236 284.58 25.8698 284.61 26.0363C284.646 26.1977 284.663 26.3616 284.663 26.5281C284.663 26.7197 284.658 26.924 284.648 27.1409C284.638 27.3578 284.63 27.5747 284.625 27.7915C284.625 28.0437 284.641 28.2833 284.671 28.5103H285.178V29.0021H284.171L284.103 28.4346H284.066C284.035 28.48 283.99 28.538 283.929 28.6086C283.869 28.6793 283.788 28.7499 283.687 28.8205C283.591 28.886 283.473 28.9441 283.332 28.9945C283.19 29.0449 283.024 29.0701 282.832 29.0701C282.459 29.0701 282.164 28.9743 281.947 28.7826C281.73 28.591 281.622 28.3287 281.622 27.9958C281.622 27.7386 281.677 27.5242 281.788 27.3527C281.904 27.1812 282.068 27.0501 282.28 26.9593C282.492 26.8685 282.747 26.8156 283.044 26.8004C283.347 26.7853 283.685 26.8055 284.058 26.861C284.083 26.6289 284.086 26.4373 284.066 26.286C284.05 26.1296 284.01 26.006 283.945 25.9152C283.884 25.8245 283.796 25.7614 283.68 25.7261C283.569 25.6858 283.43 25.6656 283.264 25.6656C283.037 25.6656 282.82 25.6984 282.613 25.7639C282.406 25.8245 282.222 25.8875 282.061 25.9531L281.872 25.5143ZM282.984 28.5632C283.125 28.5632 283.256 28.5405 283.377 28.4952C283.498 28.4498 283.604 28.3918 283.695 28.3211C283.786 28.2505 283.861 28.1749 283.922 28.0942C283.982 28.0084 284.028 27.9277 284.058 27.8521V27.3225C283.796 27.2771 283.554 27.2544 283.332 27.2544C283.11 27.2544 282.918 27.2796 282.757 27.33C282.595 27.3754 282.469 27.4486 282.378 27.5494C282.288 27.6503 282.242 27.7815 282.242 27.9429C282.242 28.1093 282.298 28.2556 282.409 28.3817C282.525 28.5027 282.716 28.5632 282.984 28.5632Z" fill="#04005E"/>
<path d="M286.567 26.5432H289.154V27.1031H286.567V26.5432Z" fill="#04005E"/>
<path d="M293.449 25.8018C293.333 25.7614 293.207 25.7286 293.07 25.7034C292.939 25.6731 292.808 25.658 292.677 25.658C292.183 25.658 291.815 25.774 291.572 26.006C291.33 26.238 291.209 26.6062 291.209 27.1106C291.209 27.3326 291.245 27.5318 291.315 27.7083C291.386 27.8798 291.487 28.0261 291.618 28.1471C291.749 28.2682 291.905 28.3615 292.087 28.4271C292.274 28.4926 292.478 28.5254 292.7 28.5254C292.937 28.5254 293.166 28.4851 293.388 28.4044C293.615 28.3237 293.804 28.2177 293.956 28.0866L294.22 28.5254C294.15 28.5859 294.062 28.649 293.956 28.7146C293.85 28.7801 293.726 28.8432 293.585 28.9037C293.449 28.9592 293.295 29.0046 293.123 29.0399C292.957 29.0752 292.775 29.0928 292.579 29.0928C292.251 29.0928 291.961 29.0474 291.709 28.9567C291.461 28.8608 291.255 28.7272 291.088 28.5557C290.922 28.3791 290.796 28.1698 290.71 27.9277C290.624 27.6806 290.581 27.4082 290.581 27.1106C290.581 26.7929 290.624 26.5104 290.71 26.2633C290.801 26.0161 290.929 25.8093 291.096 25.6429C291.262 25.4764 291.464 25.3503 291.701 25.2646C291.938 25.1738 292.203 25.1284 292.495 25.1284C292.869 25.1284 293.171 25.1612 293.403 25.2268C293.64 25.2923 293.84 25.3655 294.001 25.4462L293.993 25.4689V26.5205H293.449V25.8018Z" fill="#04005E"/>
<path d="M298.666 28.5254C298.575 28.6061 298.467 28.6818 298.341 28.7524C298.22 28.823 298.086 28.8835 297.94 28.934C297.794 28.9844 297.64 29.0222 297.478 29.0474C297.322 29.0777 297.163 29.0928 297.002 29.0928C296.699 29.0928 296.432 29.0474 296.2 28.9567C295.968 28.8608 295.773 28.7272 295.617 28.5557C295.461 28.3791 295.342 28.1698 295.262 27.9277C295.181 27.6856 295.14 27.4133 295.14 27.1106C295.14 26.7929 295.183 26.5104 295.269 26.2633C295.36 26.0161 295.488 25.8093 295.655 25.6429C295.821 25.4764 296.023 25.3503 296.26 25.2646C296.497 25.1738 296.762 25.1284 297.055 25.1284C297.266 25.1284 297.476 25.1561 297.683 25.2116C297.889 25.2671 298.071 25.373 298.227 25.5294C298.389 25.6807 298.512 25.8925 298.598 26.1649C298.684 26.4322 298.714 26.7803 298.689 27.209H295.761C295.761 27.6629 295.882 28.0034 296.124 28.2304C296.371 28.4523 296.699 28.5632 297.108 28.5632C297.244 28.5632 297.377 28.5481 297.509 28.5178C297.645 28.4825 297.773 28.4422 297.894 28.3968C298.015 28.3514 298.121 28.301 298.212 28.2455C298.308 28.19 298.381 28.1396 298.432 28.0942L298.666 28.5254ZM297.07 25.6277C296.903 25.6277 296.744 25.6454 296.593 25.6807C296.447 25.716 296.316 25.7765 296.2 25.8623C296.089 25.943 295.995 26.0514 295.92 26.1876C295.849 26.3187 295.804 26.4827 295.784 26.6794H298.136C298.111 26.3465 298.003 26.0893 297.811 25.9077C297.625 25.7211 297.377 25.6277 297.07 25.6277Z" fill="#04005E"/>
<path d="M299.927 26.5432C299.927 26.4978 299.924 26.4398 299.919 26.3692C299.919 26.2935 299.917 26.2179 299.911 26.1422C299.906 26.0615 299.899 25.9833 299.889 25.9077C299.884 25.832 299.876 25.7665 299.866 25.711H299.359V25.2192H300.365L300.441 25.7488H300.479C300.615 25.5723 300.787 25.426 300.993 25.31C301.205 25.1889 301.462 25.1284 301.765 25.1284C302.305 25.1284 302.711 25.2772 302.983 25.5748C303.256 25.8724 303.392 26.3591 303.392 27.035C303.392 27.3527 303.344 27.6402 303.248 27.8975C303.157 28.1497 303.026 28.364 302.855 28.5405C302.683 28.7171 302.476 28.8533 302.234 28.9491C301.992 29.0449 301.725 29.0928 301.432 29.0928C301.326 29.0928 301.23 29.0878 301.145 29.0777C301.064 29.0727 300.988 29.0626 300.918 29.0474C300.852 29.0374 300.787 29.0222 300.721 29.0021C300.655 28.9819 300.585 28.9567 300.509 28.9264V30.5152H299.927V26.5432ZM301.667 25.6807C301.515 25.6807 301.372 25.7084 301.235 25.7639C301.104 25.8194 300.986 25.8925 300.88 25.9833C300.779 26.0741 300.696 26.175 300.63 26.286C300.565 26.3969 300.524 26.5079 300.509 26.6189V28.3438C300.62 28.4195 300.744 28.48 300.88 28.5254C301.021 28.5658 301.205 28.5859 301.432 28.5859C301.836 28.5859 302.159 28.4548 302.401 28.1925C302.643 27.9252 302.764 27.5368 302.764 27.0274C302.764 26.5987 302.678 26.2683 302.507 26.0363C302.34 25.7992 302.06 25.6807 301.667 25.6807Z" fill="#04005E"/>
<path d="M304.645 25.2268C304.741 25.2217 304.836 25.2167 304.932 25.2116C305.028 25.2015 305.131 25.194 305.242 25.1889C305.353 25.1839 305.472 25.1788 305.598 25.1738C305.729 25.1688 305.875 25.1662 306.037 25.1662C306.581 25.1662 306.975 25.2444 307.217 25.4008C307.459 25.5521 307.58 25.7816 307.58 26.0893C307.58 26.2658 307.522 26.4423 307.406 26.6189C307.29 26.7903 307.101 26.9139 306.839 26.9896V27.0198C307.172 27.0753 307.406 27.1787 307.542 27.33C307.679 27.4763 307.747 27.6781 307.747 27.9353C307.747 28.3287 307.585 28.6137 307.262 28.7902C306.945 28.9667 306.481 29.055 305.87 29.055C305.628 29.055 305.411 29.0474 305.22 29.0323C305.028 29.0222 304.836 29.0096 304.645 28.9945V25.2268ZM305.227 28.5254C305.343 28.5355 305.459 28.5431 305.575 28.5481C305.691 28.5532 305.822 28.5557 305.969 28.5557C306.362 28.5557 306.655 28.5078 306.846 28.4119C307.043 28.3111 307.141 28.1396 307.141 27.8975C307.141 27.8016 307.121 27.7159 307.081 27.6402C307.046 27.5646 306.982 27.499 306.892 27.4435C306.806 27.388 306.692 27.3452 306.551 27.3149C306.41 27.2846 306.233 27.2695 306.022 27.2695H305.227V28.5254ZM306.128 26.8156C306.228 26.8156 306.329 26.8004 306.43 26.7702C306.531 26.7349 306.622 26.692 306.703 26.6416C306.788 26.5861 306.856 26.523 306.907 26.4524C306.957 26.3768 306.982 26.2986 306.982 26.2179C306.982 26.0111 306.907 25.8673 306.756 25.7866C306.609 25.7059 306.362 25.6656 306.014 25.6656C305.822 25.6656 305.669 25.6681 305.553 25.6731C305.442 25.6782 305.333 25.6832 305.227 25.6883V26.8156H306.128Z" fill="#04005E"/>
<path d="M311.579 26.6264L311.602 26.1271H311.579L309.454 29.0021H308.916V25.2192H309.506V27.6629L309.484 28.1396H309.514L311.625 25.2192H312.17V29.0021H311.579V26.6264Z" fill="#04005E"/>
<path d="M316.131 25.8018C316.015 25.7614 315.889 25.7286 315.753 25.7034C315.622 25.6731 315.491 25.658 315.359 25.658C314.865 25.658 314.497 25.774 314.255 26.006C314.013 26.238 313.892 26.6062 313.892 27.1106C313.892 27.3326 313.927 27.5318 313.998 27.7083C314.068 27.8798 314.169 28.0261 314.3 28.1471C314.431 28.2682 314.588 28.3615 314.769 28.4271C314.956 28.4926 315.16 28.5254 315.382 28.5254C315.619 28.5254 315.849 28.4851 316.071 28.4044C316.298 28.3237 316.487 28.2177 316.638 28.0866L316.903 28.5254C316.832 28.5859 316.744 28.649 316.638 28.7146C316.532 28.7801 316.408 28.8432 316.267 28.9037C316.131 28.9592 315.977 29.0046 315.806 29.0399C315.639 29.0752 315.458 29.0928 315.261 29.0928C314.933 29.0928 314.643 29.0474 314.391 28.9567C314.144 28.8608 313.937 28.7272 313.771 28.5557C313.604 28.3791 313.478 28.1698 313.392 27.9277C313.307 27.6806 313.264 27.4082 313.264 27.1106C313.264 26.7929 313.307 26.5104 313.392 26.2633C313.483 26.0161 313.612 25.8093 313.778 25.6429C313.945 25.4764 314.146 25.3503 314.383 25.2646C314.62 25.1738 314.885 25.1284 315.178 25.1284C315.551 25.1284 315.854 25.1612 316.086 25.2268C316.323 25.2923 316.522 25.3655 316.683 25.4462L316.676 25.4689V26.5205H316.131V25.8018Z" fill="#04005E"/>
<path d="M267.191 39.9976H266.676V39.0897H263.635V39.9976H263.12V38.5752H263.544C263.589 38.5197 263.65 38.4214 263.726 38.2801C263.801 38.1339 263.874 37.9321 263.945 37.6749C264.016 37.4126 264.079 37.0898 264.134 36.7065C264.19 36.3181 264.222 35.8515 264.233 35.3068H266.608V38.5752H267.191V39.9976ZM266.018 38.5828V35.8137H264.77C264.76 36.0306 264.739 36.2651 264.709 36.5173C264.684 36.7695 264.646 37.0217 264.596 37.2739C264.545 37.521 264.482 37.7581 264.407 37.9851C264.336 38.212 264.253 38.4113 264.157 38.5828H266.018Z" fill="#04005E"/>
<path d="M270.668 35.8213H269.359C269.339 36.2803 269.314 36.7115 269.283 37.115C269.253 37.5135 269.195 37.8615 269.109 38.1591C269.029 38.4567 268.91 38.6912 268.754 38.8627C268.603 39.0342 268.396 39.1199 268.133 39.1199C268.033 39.1199 267.959 39.1149 267.914 39.1048C267.869 39.0947 267.813 39.0771 267.748 39.0518L267.846 38.492C267.942 38.5172 268.03 38.5298 268.111 38.5298C268.197 38.5298 268.272 38.4995 268.338 38.439C268.403 38.3785 268.461 38.2827 268.512 38.1515C268.567 38.0153 268.613 37.8262 268.648 37.5841C268.688 37.337 268.721 37.0293 268.746 36.6611C268.772 36.2878 268.792 35.8364 268.807 35.3068H271.258V39.0897H270.668V35.8213Z" fill="#04005E"/>
<path d="M275.083 37.6144H274.176L273.222 39.0897H272.466V38.5828H272.859L273.548 37.5538C273.452 37.5286 273.358 37.4883 273.268 37.4328C273.177 37.3723 273.094 37.2991 273.018 37.2134C272.947 37.1226 272.889 37.0192 272.844 36.9032C272.804 36.7821 272.783 36.6485 272.783 36.5022C272.783 36.2752 272.829 36.081 272.92 35.9196C273.01 35.7532 273.136 35.617 273.298 35.5111C273.459 35.4052 273.651 35.3295 273.873 35.2841C274.095 35.2337 274.339 35.2085 274.607 35.2085C274.798 35.2085 274.98 35.2236 275.152 35.2539C275.323 35.2791 275.497 35.3068 275.674 35.3371V39.0897H275.083V37.6144ZM275.083 37.1604V35.8137C275.013 35.7885 274.93 35.7658 274.834 35.7456C274.738 35.7255 274.655 35.7154 274.584 35.7154C274.201 35.7154 273.908 35.7759 273.706 35.8969C273.505 36.0129 273.404 36.1996 273.404 36.4568C273.404 36.6636 273.464 36.825 273.585 36.941C273.706 37.052 273.853 37.1251 274.024 37.1604H275.083Z" fill="#04005E"/>
<path d="M281.826 39.0897V38.5828H282.31V35.8213H281.826V35.3068H284.883V36.7216H284.368V35.8213H282.9V38.5828H284.05V39.0897H281.826Z" fill="#04005E"/>
<path d="M289.593 38.613C289.502 38.6937 289.394 38.7694 289.268 38.84C289.147 38.9106 289.013 38.9711 288.867 39.0216C288.721 39.072 288.567 39.1098 288.405 39.1351C288.249 39.1653 288.09 39.1805 287.929 39.1805C287.626 39.1805 287.359 39.1351 287.127 39.0443C286.895 38.9484 286.701 38.8148 286.544 38.6433C286.388 38.4668 286.269 38.2574 286.189 38.0153C286.108 37.7732 286.068 37.5009 286.068 37.1982C286.068 36.8805 286.11 36.598 286.196 36.3509C286.287 36.1037 286.416 35.8969 286.582 35.7305C286.748 35.564 286.95 35.438 287.187 35.3522C287.424 35.2614 287.689 35.216 287.982 35.216C288.193 35.216 288.403 35.2438 288.61 35.2993C288.816 35.3547 288.998 35.4607 289.154 35.617C289.316 35.7683 289.439 35.9802 289.525 36.2525C289.611 36.5199 289.641 36.8679 289.616 37.2966H286.688C286.688 37.7505 286.809 38.091 287.051 38.318C287.298 38.5399 287.626 38.6509 288.035 38.6509C288.171 38.6509 288.304 38.6357 288.436 38.6055C288.572 38.5702 288.7 38.5298 288.821 38.4844C288.942 38.439 289.048 38.3886 289.139 38.3331C289.235 38.2776 289.308 38.2272 289.359 38.1818L289.593 38.613ZM287.997 35.7154C287.83 35.7154 287.671 35.733 287.52 35.7683C287.374 35.8036 287.243 35.8642 287.127 35.9499C287.016 36.0306 286.922 36.139 286.847 36.2752C286.776 36.4064 286.731 36.5703 286.711 36.767H289.064C289.038 36.4341 288.93 36.1769 288.738 35.9953C288.552 35.8087 288.304 35.7154 287.997 35.7154Z" fill="#04005E"/>
<path d="M293.434 36.714L293.456 36.2147H293.434L291.308 39.0897H290.77V35.3068H291.361V37.7505L291.338 38.2272H291.368L293.479 35.3068H294.024V39.0897H293.434V36.714ZM291.754 33.7785C291.804 34.0106 291.89 34.172 292.011 34.2627C292.137 34.3535 292.281 34.3989 292.442 34.3989C292.604 34.3989 292.748 34.351 292.874 34.2552C293 34.1593 293.086 34.003 293.131 33.7861L293.585 33.9299C293.539 34.2224 293.408 34.4468 293.191 34.6032C292.98 34.7596 292.725 34.8377 292.427 34.8377C292.291 34.8377 292.155 34.8201 292.019 34.7848C291.888 34.7495 291.769 34.6965 291.663 34.6259C291.557 34.5553 291.466 34.4645 291.391 34.3535C291.315 34.2426 291.265 34.1114 291.24 33.9601L291.754 33.7785Z" fill="#04005E"/>
<path d="M298.129 36.8427L298.144 36.3055H298.106L297.017 38.038H296.805L295.7 36.3055H295.67L295.708 36.8351V39.0897H295.148V35.3068H295.746L296.949 37.2058H296.964L298.114 35.3068H298.719V39.0897H298.129V36.8427Z" fill="#04005E"/>
<path d="M303.203 38.613C303.112 38.6937 303.003 38.7694 302.877 38.84C302.756 38.9106 302.623 38.9711 302.476 39.0216C302.33 39.072 302.176 39.1098 302.015 39.1351C301.858 39.1653 301.7 39.1805 301.538 39.1805C301.235 39.1805 300.968 39.1351 300.736 39.0443C300.504 38.9484 300.31 38.8148 300.154 38.6433C299.997 38.4668 299.879 38.2574 299.798 38.0153C299.717 37.7732 299.677 37.5009 299.677 37.1982C299.677 36.8805 299.72 36.598 299.806 36.3509C299.896 36.1037 300.025 35.8969 300.191 35.7305C300.358 35.564 300.56 35.438 300.797 35.3522C301.034 35.2614 301.299 35.216 301.591 35.216C301.803 35.216 302.012 35.2438 302.219 35.2993C302.426 35.3547 302.607 35.4607 302.764 35.617C302.925 35.7683 303.049 35.9802 303.134 36.2525C303.22 36.5199 303.25 36.8679 303.225 37.2966H300.297C300.297 37.7505 300.418 38.091 300.66 38.318C300.908 38.5399 301.235 38.6509 301.644 38.6509C301.78 38.6509 301.914 38.6357 302.045 38.6055C302.181 38.5702 302.31 38.5298 302.431 38.4844C302.552 38.439 302.658 38.3886 302.749 38.3331C302.844 38.2776 302.918 38.2272 302.968 38.1818L303.203 38.613ZM301.606 35.7154C301.44 35.7154 301.281 35.733 301.13 35.7683C300.983 35.8036 300.852 35.8642 300.736 35.9499C300.625 36.0306 300.532 36.139 300.456 36.2752C300.386 36.4064 300.34 36.5703 300.32 36.767H302.673C302.648 36.4341 302.539 36.1769 302.348 35.9953C302.161 35.8087 301.914 35.7154 301.606 35.7154Z" fill="#04005E"/>
<path d="M304.463 36.6308C304.463 36.5854 304.461 36.5274 304.456 36.4568C304.456 36.3811 304.453 36.3055 304.448 36.2298C304.443 36.1491 304.435 36.071 304.425 35.9953C304.42 35.9196 304.413 35.8541 304.403 35.7986H303.896V35.3068H304.902L304.978 35.8364H305.015C305.152 35.6599 305.323 35.5136 305.53 35.3976C305.742 35.2766 305.999 35.216 306.302 35.216C306.841 35.216 307.247 35.3648 307.52 35.6624C307.792 35.96 307.928 36.4467 307.928 37.1226C307.928 37.4403 307.88 37.7278 307.784 37.9851C307.694 38.2373 307.563 38.4516 307.391 38.6282C307.22 38.8047 307.013 38.9409 306.771 39.0367C306.529 39.1325 306.261 39.1805 305.969 39.1805C305.863 39.1805 305.767 39.1754 305.681 39.1653C305.6 39.1603 305.525 39.1502 305.454 39.1351C305.389 39.125 305.323 39.1098 305.257 39.0897C305.192 39.0695 305.121 39.0443 305.046 39.014V40.6028H304.463V36.6308ZM306.203 35.7683C306.052 35.7683 305.908 35.7961 305.772 35.8515C305.641 35.907 305.522 35.9802 305.416 36.071C305.315 36.1617 305.232 36.2626 305.167 36.3736C305.101 36.4845 305.061 36.5955 305.046 36.7065V38.4315C305.157 38.5071 305.28 38.5676 305.416 38.613C305.558 38.6534 305.742 38.6736 305.969 38.6736C306.372 38.6736 306.695 38.5424 306.937 38.2801C307.179 38.0128 307.3 37.6244 307.3 37.115C307.3 36.6863 307.214 36.3559 307.043 36.1239C306.877 35.8869 306.597 35.7683 306.203 35.7683Z" fill="#04005E"/>
<path d="M308.704 37.1982C308.704 36.5879 308.863 36.1063 309.181 35.7532C309.499 35.3951 309.953 35.216 310.543 35.216C310.861 35.216 311.133 35.269 311.36 35.3749C311.592 35.4758 311.784 35.6145 311.935 35.791C312.086 35.9676 312.197 36.1769 312.268 36.419C312.344 36.6611 312.381 36.9208 312.381 37.1982C312.381 37.5009 312.341 37.7758 312.26 38.0229C312.18 38.265 312.061 38.4718 311.905 38.6433C311.748 38.8148 311.554 38.9484 311.322 39.0443C311.095 39.1351 310.836 39.1805 310.543 39.1805C310.23 39.1805 309.958 39.13 309.726 39.0291C309.494 38.9232 309.302 38.782 309.151 38.6055C309 38.4289 308.886 38.2196 308.81 37.9775C308.74 37.7354 308.704 37.4757 308.704 37.1982ZM309.332 37.1982C309.332 37.3748 309.353 37.5513 309.393 37.7278C309.438 37.9044 309.509 38.0633 309.605 38.2045C309.701 38.3457 309.824 38.4592 309.976 38.5449C310.132 38.6307 310.321 38.6736 310.543 38.6736C310.946 38.6736 311.249 38.55 311.451 38.3028C311.658 38.0506 311.761 37.6825 311.761 37.1982C311.761 37.0167 311.738 36.8401 311.693 36.6686C311.653 36.4921 311.582 36.3332 311.481 36.192C311.385 36.0508 311.259 35.9373 311.103 35.8515C310.952 35.7658 310.765 35.7229 310.543 35.7229C310.139 35.7229 309.837 35.8465 309.635 36.0936C309.433 36.3408 309.332 36.709 309.332 37.1982Z" fill="#04005E"/>
<path d="M313.718 35.3144C313.813 35.3093 313.909 35.3043 314.005 35.2993C314.101 35.2892 314.204 35.2816 314.315 35.2766C314.426 35.2715 314.545 35.2665 314.671 35.2614C314.802 35.2564 314.948 35.2539 315.11 35.2539C315.654 35.2539 316.048 35.332 316.29 35.4884C316.532 35.6397 316.653 35.8692 316.653 36.1769C316.653 36.3534 316.595 36.5299 316.479 36.7065C316.363 36.878 316.174 37.0015 315.912 37.0772V37.1075C316.245 37.1629 316.479 37.2663 316.615 37.4177C316.751 37.5639 316.82 37.7657 316.82 38.0229C316.82 38.4163 316.658 38.7013 316.335 38.8778C316.018 39.0544 315.554 39.1426 314.943 39.1426C314.701 39.1426 314.484 39.1351 314.293 39.1199C314.101 39.1098 313.909 39.0972 313.718 39.0821V35.3144ZM314.3 38.613C314.416 38.6231 314.532 38.6307 314.648 38.6357C314.764 38.6408 314.895 38.6433 315.042 38.6433C315.435 38.6433 315.728 38.5954 315.919 38.4995C316.116 38.3987 316.214 38.2272 316.214 37.9851C316.214 37.8892 316.194 37.8035 316.154 37.7278C316.118 37.6522 316.055 37.5866 315.965 37.5311C315.879 37.4757 315.765 37.4328 315.624 37.4025C315.483 37.3723 315.306 37.3571 315.095 37.3571H314.3V38.613ZM315.2 36.9032C315.301 36.9032 315.402 36.8881 315.503 36.8578C315.604 36.8225 315.695 36.7796 315.775 36.7292C315.861 36.6737 315.929 36.6106 315.98 36.54C316.03 36.4644 316.055 36.3862 316.055 36.3055C316.055 36.0987 315.98 35.9549 315.828 35.8742C315.682 35.7935 315.435 35.7532 315.087 35.7532C314.895 35.7532 314.742 35.7557 314.625 35.7608C314.515 35.7658 314.406 35.7708 314.3 35.7759V36.9032H315.2Z" fill="#04005E"/>
</svg>
