<svg width="450" height="318" viewBox="0 0 450 318" fill="none" xmlns="http://www.w3.org/2000/svg">
<path d="M0.50061 317.167V0.5H448.524V317.167H0.50061Z" stroke="#F5F6FF"/>
<path d="M18.766 0V317.667" stroke="#F5F6FF"/>
<path d="M79.082 0V317.667" stroke="#F5F6FF"/>
<path d="M449.023 27.9224H0" stroke="#F5F6FF"/>
<path d="M449.023 89.0496H0" stroke="#F5F6FF"/>
<path d="M449.023 98.1057H0" stroke="#F5F6FF"/>
<path d="M449.023 299L0 299" stroke="#F5F6FF"/>
<path d="M449.023 159.232H0" stroke="#F5F6FF"/>
<path d="M449.023 168.289H0" stroke="#F5F6FF"/>
<path d="M449.023 230.171H0" stroke="#F5F6FF"/>
<path d="M449.023 239.227L0 239.227" stroke="#F5F6FF"/>
<path d="M88.4648 0V317.667" stroke="#F5F6FF"/>
<path d="M148.785 0V317.667" stroke="#F5F6FF"/>
<path d="M158.164 0V317.667" stroke="#F5F6FF"/>
<path d="M219.821 0V317.667" stroke="#F5F6FF"/>
<path d="M229.204 0V317.667" stroke="#F5F6FF"/>
<path d="M290.863 0V317.667" stroke="#F5F6FF"/>
<path d="M300.242 0V317.667" stroke="#F5F6FF"/>
<path d="M360.558 0V317.667" stroke="#F5F6FF"/>
<path d="M369.941 0V317.667" stroke="#F5F6FF"/>
<path d="M430.258 0V317.667" stroke="#F5F6FF"/>
</svg>
