<svg width="622" height="350" viewBox="0 0 622 350" fill="none" xmlns="http://www.w3.org/2000/svg">
<path d="M0.50061 349.5V0.5H621.501V349.5H0.50061Z" stroke="#F5F6FF"/>
<path d="M26 0V350" stroke="#F5F6FF"/>
<path d="M110 0V350" stroke="#F5F6FF"/>
<path d="M621.941 38.6758H0" stroke="#F5F6FF"/>
<path d="M621.941 123.343H0" stroke="#F5F6FF"/>
<path d="M621.941 135.885H0" stroke="#F5F6FF"/>
<path d="M621.941 220.553H0" stroke="#F5F6FF"/>
<path d="M621.941 233.097H0" stroke="#F5F6FF"/>
<path d="M621.941 324H0" stroke="#F5F6FF"/>
<path d="M123 0V350" stroke="#F5F6FF"/>
<path d="M206 0V350" stroke="#F5F6FF"/>
<path d="M219 0V350" stroke="#F5F6FF"/>
<path d="M304 0V350" stroke="#F5F6FF"/>
<path d="M317 0V350" stroke="#F5F6FF"/>
<path d="M403 0V350" stroke="#F5F6FF"/>
<path d="M416 0V350" stroke="#F5F6FF"/>
<path d="M499 0V350" stroke="#F5F6FF"/>
<path d="M512 0V350" stroke="#F5F6FF"/>
<path d="M596 0V350" stroke="#F5F6FF"/>
</svg>
