<svg width="318" height="450" viewBox="0 0 318 450" fill="none" xmlns="http://www.w3.org/2000/svg">
<path d="M0.5 449.471L0.5 0.500244L316.848 0.500244L316.848 449.471L0.5 449.471Z" stroke="#F5F6FF"/>
<path d="M13.2617 0L13.2617 449.971" stroke="#D3D2D2"/>
<path d="M55.8945 0L55.8945 449.971" stroke="#D3D2D2"/>
<path d="M317.348 19.7344L0 19.7344" stroke="#D3D2D2"/>
<path d="M317.348 62.9357L0 62.9357" stroke="#D3D2D2"/>
<path d="M317.348 211.21L0 211.21" stroke="#D3D2D2"/>
<path d="M317.348 352.622L0 352.622" stroke="#D3D2D2"/>
<path d="M317.348 69.3369L0 69.3369" stroke="#D3D2D2"/>
<path d="M317.348 217.609L0 217.609" stroke="#D3D2D2"/>
<path d="M317.348 359.021L0 359.021" stroke="#D3D2D2"/>
<path d="M317.348 112.538L0 112.538" stroke="#D3D2D2"/>
<path d="M317.348 260.812L0 260.812" stroke="#D3D2D2"/>
<path d="M317.348 402.223L0 402.223" stroke="#D3D2D2"/>
<path d="M317.348 118.939L0 118.939" stroke="#D3D2D2"/>
<path d="M317.348 267.212L0 267.212" stroke="#D3D2D2"/>
<path d="M317.348 408.624L0 408.624" stroke="#D3D2D2"/>
<path d="M317.348 162.674L0 162.674" stroke="#D3D2D2"/>
<path d="M317.348 304.086L0 304.086" stroke="#D3D2D2"/>
<path d="M317.348 436.708L0 436.708" stroke="#D3D2D2"/>
<path d="M317.348 169.075L0 169.075" stroke="#D3D2D2"/>
<path d="M317.348 310.486L0 310.486" stroke="#D3D2D2"/>
<path d="M62.5233 0L62.5233 449.971" stroke="#D3D2D2"/>
<path d="M105.152 0L105.152 449.971" stroke="#D3D2D2"/>
<path d="M111.782 0L111.782 449.971" stroke="#D3D2D2"/>
<path d="M155.359 0L155.359 449.971" stroke="#D3D2D2"/>
<path d="M161.989 0L161.989 449.971" stroke="#D3D2D2"/>
<path d="M205.566 0L205.566 449.971" stroke="#D3D2D2"/>
<path d="M212.195 0L212.195 449.971" stroke="#D3D2D2"/>
<path d="M254.824 0L254.824 449.971" stroke="#D3D2D2"/>
<path d="M261.457 0L261.457 449.971" stroke="#D3D2D2"/>
<path d="M304.087 0L304.087 449.971" stroke="#D3D2D2"/>
</svg>
