<svg width="318" height="318" viewBox="0 0 318 318" fill="none" xmlns="http://www.w3.org/2000/svg">
<path d="M0.5 316.848V0.5H316.848V316.848H0.5Z" stroke="#F5F6FF"/>
<path d="M13.2617 0V317.348" stroke="#F5F6FF"/>
<path d="M55.8945 0V317.348" stroke="#F5F6FF"/>
<path d="M317.348 19.7344H0" stroke="#F5F6FF"/>
<path d="M317.348 62.9358H0" stroke="#F5F6FF"/>
<path d="M317.348 211.21H0" stroke="#F5F6FF"/>
<path d="M317.348 69.3364H0" stroke="#F5F6FF"/>
<path d="M317.348 217.61L0 217.61" stroke="#F5F6FF"/>
<path d="M317.348 112.538H0" stroke="#F5F6FF"/>
<path d="M317.348 260.812L0 260.812" stroke="#F5F6FF"/>
<path d="M317.348 118.939H0" stroke="#F5F6FF"/>
<path d="M317.348 267.212L0 267.212" stroke="#F5F6FF"/>
<path d="M317.348 162.674H0" stroke="#F5F6FF"/>
<path d="M317.348 304.085L0 304.085" stroke="#F5F6FF"/>
<path d="M317.348 169.074L0 169.074" stroke="#F5F6FF"/>
<path d="M62.5233 0V317.348" stroke="#F5F6FF"/>
<path d="M105.152 0V317.348" stroke="#F5F6FF"/>
<path d="M111.782 0V317.348" stroke="#F5F6FF"/>
<path d="M155.359 0V317.348" stroke="#F5F6FF"/>
<path d="M161.989 0V317.348" stroke="#F5F6FF"/>
<path d="M205.566 0V317.348" stroke="#F5F6FF"/>
<path d="M212.195 0V317.348" stroke="#F5F6FF"/>
<path d="M254.824 0V317.348" stroke="#F5F6FF"/>
<path d="M261.457 0V317.348" stroke="#F5F6FF"/>
<path d="M304.087 0V317.348" stroke="#F5F6FF"/>
</svg>
