<svg width="481" height="70" viewBox="0 0 481 70" fill="none" xmlns="http://www.w3.org/2000/svg">
<path d="M188.999 17.418H171.994C169.674 17.418 167.788 19.3203 167.788 21.6498C167.788 23.8319 165.981 25.9774 163.491 25.9774C161.172 25.9774 159.285 27.8798 159.285 30.2093V65.2072C159.285 67.5364 161.172 69.4391 163.491 69.4391C165.81 69.4391 167.697 67.5364 167.697 65.2072V30.1763C167.697 28.1631 169.136 25.8487 171.994 25.8487H188.999C191.319 25.8487 193.205 23.9463 193.205 21.6168C193.205 19.3185 191.317 17.418 188.999 17.418Z" fill="#C1F52F" stroke="#C1F52F" stroke-width="0.4"/>
<path d="M244.112 56.1717V56.1764C244.143 58.3878 242.33 60.5609 239.832 60.5609H205.704C203.701 60.5609 201.392 59.1154 201.392 56.2378V30.5842V30.5841V30.584V30.584V30.5839V30.5838V30.5838V30.5837V30.5836V30.5836V30.5835V30.5834V30.5834V30.5833V30.5832V30.5832V30.5831V30.583V30.583V30.5829V30.5828V30.5828V30.5827V30.5826V30.5826V30.5825V30.5824V30.5824V30.5823V30.5822V30.5822V30.5821V30.582V30.582V30.5819V30.5818V30.5818V30.5817V30.5816V30.5816V30.5815V30.5814V30.5814V30.5813V30.5812V30.5812V30.5811V30.581V30.581V30.5809V30.5808V30.5808V30.5807V30.5806V30.5806V30.5805V30.5804V30.5804V30.5803V30.5802V30.5802V30.5801V30.58V30.58V30.5799V30.5798V30.5798V30.5797V30.5796V30.5796V30.5795V30.5794V30.5794V30.5793V30.5792V30.5792V30.5791V30.579V30.579V30.5789V30.5788V30.5788V30.5787V30.5786V30.5786V30.5785V30.5784V30.5784V30.5783V30.5782V30.5782V30.5781V30.578V30.578V30.5779V30.5778V30.5778V30.5777V30.5776V30.5776V30.5775V30.5774V30.5773V30.5772V30.5772V30.5771V30.577V30.577V30.5769V30.5768V30.5768V30.5767V30.5766V30.5766V30.5765V30.5764V30.5764V30.5762V30.5762V30.5761V30.576V30.576V30.5759V30.5758V30.5757V30.5756V30.5756V30.5755V30.5754V30.5753V30.5752V30.5752V30.5751V30.5751V30.5749V30.5749V30.5748V30.5747V30.5746V30.5745V30.5745V30.5743V30.5743V30.5742V30.5741V30.574V30.5739V30.5738V30.5737V30.5737V30.5735V30.5735V30.5734V30.5733V30.5732V30.5731V30.573V30.5729V30.5728V30.5727V30.5726V30.5725V30.5724V30.5723V30.5722V30.5721V30.572V30.5719V30.5718V30.5717V30.5716V30.5715V30.5714V30.5713V30.5712V30.5711V30.571V30.5709V30.5708V30.5707V30.5706V30.5705V30.5703V30.5703V30.5701V30.5701V30.5699V30.5698V30.5697V30.5696V30.5695V30.5693V30.5693V30.5691V30.569V30.5689V30.5688V30.5687V30.5685V30.5685V30.5683V30.5682V30.5681V30.5679V30.5679V30.5677V30.5676V30.5675V30.5673V30.5672V30.5671V30.567V30.5669V30.5667V30.5666V30.5665V30.5663V30.5662V30.5661V30.5659V30.5658V30.5657V30.5656V30.5654V30.5653V30.5652V30.565V30.5649V30.5648V30.5646V30.5645V30.5644V30.5642V30.5641V30.564V30.5638V30.5636V30.5635V30.5634V30.5632V30.5631V30.563V30.5628V30.5626V30.5625V30.5624V30.5622V30.5621V30.5619V30.5618V30.5616V30.5615V30.5613V30.5612V30.561V30.5608V30.5607V30.5606V30.5604V30.5602V30.5601V30.5599V30.5598V30.5596V30.5594V30.5593V30.5591V30.559V30.5588V30.5586V30.5585V30.5583V30.5582V30.558V30.5578V30.5576V30.5575V30.5573V30.5572V30.557V30.5568V30.5566V30.5564V30.5563V30.5561V30.5559V30.5558V30.5556V30.5555V30.5553V30.5551V30.5549V30.5547V30.5545V30.5543V30.5542V30.554V30.5538V30.5536V30.5535V30.5533V30.5531V30.5529V30.5527V30.5525V30.5523V30.5521V30.5519V30.5517V30.5515V30.5513V30.5512C201.392 28.5415 202.835 26.2281 205.704 26.2281H239.8C241.972 26.2281 244.112 28.0431 244.112 30.5512V56.1717ZM248.365 26.3891C246.361 26.3891 244.052 24.9436 244.052 22.066C244.052 19.7372 242.158 17.8379 239.832 17.8379H205.704C203.379 17.8379 201.485 19.7372 201.485 22.066C201.485 24.2444 199.673 26.3891 197.172 26.3891C194.847 26.3891 192.953 28.2884 192.953 30.6172V56.2378C192.953 58.5666 194.847 60.4659 197.172 60.4659C199.344 60.4659 201.485 62.281 201.485 64.789C201.485 67.1181 203.379 69.0168 205.704 69.0168H239.8C242.125 69.0168 244.019 67.1181 244.019 64.789C244.019 62.7793 245.462 60.4659 248.332 60.4659C250.657 60.4659 252.551 58.5666 252.551 56.2378V30.5842C252.551 28.2554 250.69 26.3891 248.365 26.3891Z" fill="#C1F52F" stroke="#C1F52F" stroke-width="0.4"/>
<path d="M147.305 26.3891C145.301 26.3891 142.992 24.9436 142.992 22.066C142.992 19.7372 141.098 17.8379 138.773 17.8379H104.677C102.352 17.8379 100.458 19.7372 100.458 22.066C100.458 24.2444 98.6457 26.3891 96.1451 26.3891C93.8198 26.3891 91.9258 28.2884 91.9258 30.6172V56.2378C91.9258 58.5666 93.8198 60.4659 96.1451 60.4659C98.3168 60.4659 100.458 62.281 100.458 64.789C100.458 67.1181 102.352 69.0168 104.677 69.0168H138.773C141.098 69.0168 142.992 67.1181 142.992 64.789C142.992 62.7793 144.436 60.4659 147.305 60.4659C149.63 60.4659 151.524 58.5666 151.524 56.2378V30.5842C151.524 28.2517 149.627 26.3891 147.305 26.3891ZM138.773 60.5609H104.677C102.674 60.5609 100.364 59.1154 100.364 56.2378V30.5842V30.5841V30.584V30.584V30.5839V30.5838V30.5838V30.5837V30.5836V30.5836V30.5835V30.5834V30.5834V30.5833V30.5832V30.5832V30.5831V30.583V30.583V30.5829V30.5828V30.5828V30.5827V30.5826V30.5826V30.5825V30.5824V30.5824V30.5823V30.5822V30.5822V30.5821V30.582V30.582V30.5819V30.5818V30.5818V30.5817V30.5816V30.5816V30.5815V30.5814V30.5814V30.5813V30.5812V30.5812V30.5811V30.581V30.581V30.5809V30.5808V30.5808V30.5807V30.5806V30.5806V30.5805V30.5804V30.5804V30.5803V30.5802V30.5802V30.5801V30.58V30.58V30.5799V30.5798V30.5798V30.5797V30.5796V30.5796V30.5795V30.5794V30.5794V30.5793V30.5792V30.5792V30.5791V30.579V30.579V30.5789V30.5788V30.5788V30.5787V30.5786V30.5786V30.5785V30.5784V30.5784V30.5783V30.5782V30.5782V30.5781V30.578V30.578V30.5779V30.5778V30.5778V30.5777V30.5776V30.5776V30.5775V30.5774V30.5773V30.5772V30.5772V30.5771V30.577V30.577V30.5769V30.5768V30.5768V30.5767V30.5766V30.5766V30.5765V30.5764V30.5764V30.5762V30.5762V30.5761V30.576V30.576V30.5759V30.5758V30.5757V30.5756V30.5756V30.5755V30.5754V30.5753V30.5752V30.5752V30.5751V30.5751V30.5749V30.5749V30.5748V30.5747V30.5746V30.5745V30.5745V30.5743V30.5743V30.5742V30.5741V30.574V30.5739V30.5738V30.5737V30.5737V30.5735V30.5735V30.5734V30.5733V30.5732V30.5731V30.573V30.5729V30.5728V30.5727V30.5726V30.5725V30.5724V30.5723V30.5722V30.5721V30.572V30.5719V30.5718V30.5717V30.5716V30.5715V30.5714V30.5713V30.5712V30.5711V30.571V30.5709V30.5708V30.5707V30.5706V30.5705V30.5703V30.5703V30.5701V30.5701V30.5699V30.5698V30.5697V30.5696V30.5695V30.5693V30.5693V30.5691V30.569V30.5689V30.5688V30.5687V30.5685V30.5685V30.5683V30.5682V30.5681V30.5679V30.5679V30.5677V30.5676V30.5675V30.5673V30.5672V30.5671V30.567V30.5669V30.5667V30.5666V30.5665V30.5663V30.5662V30.5661V30.5659V30.5658V30.5657V30.5656V30.5654V30.5653V30.5652V30.565V30.5649V30.5648V30.5646V30.5645V30.5644V30.5642V30.5641V30.564V30.5638V30.5636V30.5635V30.5634V30.5632V30.5631V30.563V30.5628V30.5626V30.5625V30.5624V30.5622V30.5621V30.5619V30.5618V30.5616V30.5615V30.5613V30.5612V30.561V30.5608V30.5607V30.5606V30.5604V30.5602V30.5601V30.5599V30.5598V30.5596V30.5594V30.5593V30.5591V30.559V30.5588V30.5586V30.5585V30.5583V30.5582V30.558V30.5578V30.5576V30.5575V30.5573V30.5572V30.557V30.5568V30.5566V30.5564V30.5563V30.5561V30.5559V30.5558V30.5556V30.5555V30.5553V30.5551V30.5549V30.5547V30.5545V30.5543V30.5542V30.554V30.5538V30.5536V30.5535V30.5533V30.5531V30.5529V30.5527V30.5525V30.5523V30.5521V30.5519V30.5517V30.5515V30.5513V30.5512C100.364 28.5415 101.808 26.2281 104.677 26.2281H138.773C140.944 26.2281 143.086 28.0431 143.086 30.5512V56.1717C143.086 58.3878 141.269 60.5609 138.773 60.5609Z" fill="#C1F52F" stroke="#C1F52F" stroke-width="0.4"/>
<path d="M345.168 13.7326V13.4004H345.122C344.953 11.2343 343.137 9.51975 340.932 9.51975C338.937 9.51975 336.638 8.08029 336.638 5.21483C336.638 2.89443 334.751 1.00195 332.434 1.00195H273.014C270.698 1.00195 268.811 2.89443 268.811 5.21483C268.811 7.38412 267.007 9.51975 264.517 9.51975C262.2 9.51975 260.312 11.4122 260.312 13.7326V56.2887C260.312 58.6091 262.2 60.5016 264.517 60.5016C266.679 60.5016 268.811 62.3091 268.811 64.8065C268.811 67.1269 270.698 69.0197 273.014 69.0197H332.466C334.784 69.0197 336.67 67.1269 336.67 64.8065V64.8065V64.8064V64.8063V64.8063V64.8062V64.8061V64.8061V64.806V64.8059V64.8059V64.8058V64.8057V64.8057V64.8056V64.8055V64.8055V64.8054V64.8053V64.8053V64.8052V64.8051V64.8051V64.805V64.8049V64.8049V64.8048V64.8047V64.8047V64.8046V64.8045V64.8045V64.8044V64.8043V64.8043V64.8042V64.8041V64.8041V64.804V64.8039V64.8039V64.8038V64.8037V64.8037V64.8035V64.8035V64.8034V64.8033V64.8033V64.8032V64.8031V64.8031V64.803V64.8029V64.8029V64.8028V64.8027V64.8027V64.8026V64.8026V64.8025V64.8024V64.8023V64.8023V64.8022V64.8022V64.8021V64.802V64.802V64.8019V64.8018V64.8017V64.8017V64.8016V64.8016V64.8015V64.8014V64.8014V64.8013V64.8012V64.8012V64.8011V64.801V64.801V64.8009V64.8008V64.8008V64.8007V64.8006V64.8006V64.8005V64.8004V64.8004V64.8003V64.8002V64.8002V64.8001V64.8V64.8V64.7999V64.7998V64.7998V64.7997V64.7996V64.7996V64.7995V64.7994V64.7993V64.7992V64.7992V64.7991V64.799V64.799V64.7989V64.7988V64.7988V64.7987V64.7986V64.7985V64.7984V64.7984V64.7983V64.7982V64.7982V64.798V64.798V64.7979V64.7978V64.7978V64.7977V64.7976V64.7975V64.7974V64.7974V64.7972V64.7972V64.7971V64.797V64.7969V64.7968V64.7968V64.7966V64.7966V64.7965V64.7964V64.7963V64.7962V64.7962V64.796V64.796V64.7958V64.7958V64.7957V64.7956V64.7955V64.7954V64.7953V64.7952V64.7951V64.795V64.7949V64.7948V64.7947V64.7946V64.7945V64.7944V64.7943V64.7942V64.7941V64.794V64.7939V64.7938V64.7937V64.7936V64.7935V64.7934V64.7933V64.7932V64.7931V64.793V64.7929V64.7928V64.7927V64.7926V64.7924V64.7924V64.7923V64.7921V64.7921V64.7919V64.7918V64.7917V64.7916V64.7915V64.7913V64.7913V64.7911V64.791V64.7909V64.7907V64.7907V64.7905V64.7904V64.7903V64.7901V64.7901V64.7899V64.7898V64.7897V64.7895V64.7894V64.7893V64.7892V64.7891V64.7889V64.7888V64.7887V64.7885V64.7884V64.7883V64.7881V64.788V64.7879V64.7877V64.7876V64.7875V64.7873V64.7872V64.7871V64.7869V64.7868V64.7867V64.7865V64.7864V64.7863V64.7861V64.7859V64.7858V64.7857V64.7855V64.7854V64.7853V64.7851V64.7849V64.7848V64.7847V64.7845V64.7843V64.7842V64.7841V64.7839V64.7837V64.7836V64.7835V64.7834V64.7831V64.783V64.7829V64.7827V64.7826V64.7824V64.7822V64.7821V64.782V64.7818V64.7816V64.7814V64.7813V64.7811V64.781V64.7808V64.7806V64.7805V64.7803V64.7801V64.78V64.7798V64.7796V64.7794V64.7793V64.7791V64.779V64.7788V64.7786V64.7784V64.7782V64.7781V64.7779V64.7777V64.7776V64.7774V64.7772V64.777V64.7768V64.7766V64.7764V64.7763V64.7761V64.7759V64.7757V64.7756V64.7754V64.7752V64.775V64.7748V64.7746V64.7744V64.7742V64.774V64.7738V64.7736C336.67 62.7724 338.107 60.4687 340.965 60.4687H342.507C343.97 60.4687 345.168 59.2669 345.168 57.8015V54.7431V54.7427V54.7423V54.7419V54.7415V54.7411V54.7407V54.7403V54.7399V54.7396V54.7392V54.7388V54.7384V54.738V54.7377V54.7373V54.7369V54.7365V54.7361V54.7358V54.7354V54.735V54.7346V54.7342V54.7338V54.7334V54.733V54.7326V54.7322V54.7319V54.7315V54.7311V54.7307V54.7303V54.73V54.7296V54.7292V54.7288V54.7284V54.728V54.7276V54.7272V54.7269V54.7265V54.7261V54.7257V54.7253V54.7249V54.7245V54.7242V54.7238V54.7234V54.723V54.7226V54.7223V54.7219V54.7215V54.7211V54.7207V54.7203V54.7199V54.7195V54.7191V54.7187V54.7184V54.718V54.7176V54.7172V54.7168V54.7165V54.7161V54.7157V54.7153V54.7149V54.7146V54.7142V54.7138V54.7134V54.713V54.7126V54.7122V54.7118V54.7114V54.711V54.7107V54.7103V54.7099V54.7095V54.7091V54.7088V54.7084V54.708V54.7076V54.7072V54.7069V54.7065V54.7061V54.7057V54.7053V54.7049V54.7045V54.7041V54.7037V54.7033V54.703V54.7026V54.7022V54.7018V54.7014V54.7011V54.7007V54.7003V54.6999V54.6995V54.6991V54.6987V54.6984V54.698V54.6976V54.6972V54.6968V54.6964V54.696V54.6956V54.6952V54.6949V54.6945V54.6941V54.6937V54.6933V54.693V54.6926V54.6922V54.6918V54.6914V54.691V54.6906V54.6902V54.6898V54.6895V54.6891V54.6887V54.6883V54.6879V54.6875V54.6872V54.6868V54.6864V54.686V54.6856V54.6853V54.6849V54.6845V54.6841V54.6837V54.6833V54.6829V54.6825V54.6821V54.6817V54.6814V54.681V54.6806V54.6802V54.6798V54.6795V54.6791V54.6787V54.6783V54.6779V54.6776V54.6772V54.6768V54.6764V54.676V54.6756V54.6752V54.6748V54.6744V54.674V54.6737V54.6733V54.6729V54.6725V54.6721V54.6718V54.6714V54.671V54.6706V54.6702V54.6699V54.6695V54.6691V54.6687V54.6683V54.6679V54.6675V54.6671V54.6667V54.6663V54.666V54.6656V54.6652V54.6648V54.6644V54.6641V54.6637V54.6633V54.6629V54.6625V54.6621V54.6617V54.6613V54.6609V54.6606V54.6602V54.6598V54.6594V54.659V54.6586V54.6583V54.6579V54.6575V54.6571V54.6567V54.6564V54.656V54.6556V54.6552V54.6548V54.6544V54.654V54.6536V54.6532V54.6528V54.6525V54.6521V54.6517V54.6513V54.6509V54.6506V54.6502V54.6498V54.6494V54.649V54.6487V54.6483V54.6479V54.6475V54.6471V54.6467V54.6463V54.6459V54.6455V54.6451V54.6448V54.6444V54.644V54.6436V54.6432V54.6429V54.6425V54.6421V54.6417V54.6413V54.641V54.6406V54.6402V54.6398V54.6394V54.639V54.6386V54.6382V54.6378V54.6374V54.6371V54.6367V54.6363V54.6359V54.6355V54.6351V54.6348V54.6344V54.634V54.6336V54.6332V54.6328V54.6324V54.6321V54.6316V54.6313V54.6309V54.6305V54.6301V54.6297V54.6294V54.629V54.6286V54.6282V54.6278V54.6275V54.6271V54.6267V54.6263V54.6259V54.6255V54.6251V54.6247V54.6243V54.6239V54.6235V54.6232V54.6228V54.6224V54.622V54.6216V54.6213V54.6209V54.6205V54.6201V54.6197V54.6194V54.619V54.6186V54.6182V54.6178V54.6174V54.617V54.6166V54.6162V54.6158V54.6155V54.6151V54.6147V54.6143V54.6139V54.6136V54.6132V54.6128V54.6124V54.612V54.6117V54.6113V54.6109V54.6105V54.6101V54.6097V54.6093V54.6089V54.6085V54.6081V54.6078V54.6074V54.607V54.6066V54.6062V54.6059V54.6055V54.6051V54.6047V54.6043V54.6039V54.6035V54.6031V54.6027V54.6024V54.602V54.6016V54.6012V54.6008V54.6004V54.6001V54.5997V54.5993V54.5989V54.5985V54.5982V54.5978V54.5974V54.597V54.5966V54.5962V54.5958V54.5954V54.595V54.5946V54.5943V54.5939V54.5935V54.5931V54.5927V54.5924V54.592V54.5916V54.5912V54.5908V54.5905V54.5901V54.5897V54.5893V54.5889V54.5885V54.5881V54.5877V54.5873V54.5869V54.5866V54.5862V54.5858V54.5854V54.585V54.5847V54.5843V54.5839V54.5835V54.5831V54.5828V54.5824V54.582V54.5816V54.5812V54.5808V54.5804V54.58V54.5796V54.5792V54.5789V54.5785V54.5781V54.5777V54.5773V54.577V54.5766V54.5762V54.5758V54.5754V54.575V54.5746V54.5742V54.5739V54.5735V54.5731V54.5727V54.5723V54.5719V54.5715V54.5712V54.5708V54.5704V54.57V54.5696V54.5693V54.5689V54.5685V54.5681V54.5677V54.5673V54.5669V54.5665V54.5661V54.5657V54.5654V54.565V54.5646V54.5642V54.5638V54.5634V54.5631V54.5627V54.5623V54.5619V54.5615V54.5612V54.5608V54.5604V54.56V54.5596V54.5592V54.5588V54.5584V54.558V54.5576V54.5573V54.5569V54.5565V54.5561V54.5557V54.5554V54.555V54.5546V54.5542V54.5539V54.5535V54.5531V54.5527V54.5523V54.5519V54.5515V54.5511V54.5507V54.5503V54.5499V54.5496V54.5492V54.5488V54.5484V54.548V54.5477V54.5473V54.5469V54.5465V54.5461V54.5457V13.7326ZM273.014 60.5608H272.682V60.5806C270.773 60.4306 268.721 58.9963 268.721 56.2887V13.7326V13.7325V13.7325V13.7324V13.7323V13.7323V13.7322V13.7321V13.7321V13.732V13.7319V13.7319V13.7318V13.7317V13.7317V13.7316V13.7315V13.7315V13.7314V13.7313V13.7313V13.7312V13.7311V13.7311V13.731V13.7309V13.7309V13.7308V13.7307V13.7307V13.7306V13.7305V13.7305V13.7304V13.7303V13.7303V13.7302V13.7301V13.7301V13.73V13.7299V13.7299V13.7298V13.7297V13.7297V13.7296V13.7295V13.7295V13.7294V13.7293V13.7293V13.7292V13.7291V13.7291V13.729V13.7289V13.7289V13.7288V13.7287V13.7287V13.7286V13.7285V13.7285V13.7284V13.7283V13.7283V13.7282V13.7282V13.7281V13.728V13.728V13.7279V13.7278V13.7278V13.7277V13.7276V13.7276V13.7275V13.7274V13.7274V13.7273V13.7272V13.7272V13.7271V13.727V13.727V13.7269V13.7268V13.7268V13.7267V13.7266V13.7266V13.7265V13.7264V13.7264V13.7263V13.7262V13.7262V13.7261V13.726V13.726V13.7259V13.7258V13.7258V13.7257V13.7256V13.7256V13.7255V13.7254V13.7254V13.7252V13.7252V13.7251V13.725V13.725V13.7249V13.7248V13.7248V13.7247V13.7246V13.7245V13.7244V13.7244V13.7243V13.7242V13.7242V13.724V13.724V13.7239V13.7238V13.7238V13.7236V13.7236V13.7235V13.7234V13.7234V13.7232V13.7232V13.7231V13.723V13.7229V13.7228V13.7228V13.7226V13.7226V13.7225V13.7224V13.7223V13.7222V13.7221V13.722V13.722V13.7218V13.7218V13.7216V13.7216V13.7215V13.7214V13.7213V13.7212V13.7211V13.721V13.7209V13.7208V13.7207V13.7206V13.7205V13.7204V13.7203V13.7202V13.7201V13.72V13.7199V13.7198V13.7197V13.7196V13.7195V13.7194V13.7193V13.7192V13.719V13.719V13.7188V13.7188V13.7187V13.7185V13.7185V13.7183V13.7182V13.7181V13.718V13.7179V13.7178V13.7177V13.7175V13.7174V13.7173V13.7172V13.7171V13.7169V13.7169V13.7167V13.7166V13.7165V13.7163V13.7163V13.7161V13.716V13.7159V13.7157V13.7156V13.7155V13.7154V13.7153V13.7151V13.715V13.7149V13.7147V13.7146V13.7145V13.7143V13.7142V13.7141V13.7139V13.7138V13.7137V13.7135V13.7134V13.7133V13.7131V13.713V13.7129V13.7127V13.7126V13.7125V13.7123V13.7122V13.7121V13.7119V13.7117V13.7116V13.7115V13.7113V13.7112V13.711V13.7109V13.7107V13.7106V13.7105V13.7103V13.7101V13.71V13.7099V13.7097V13.7095V13.7094V13.7092V13.7091V13.709V13.7088V13.7086V13.7085V13.7083V13.7082V13.708V13.7078V13.7077V13.7075V13.7074V13.7072V13.707V13.7069V13.7067V13.7066V13.7064V13.7062V13.706V13.7059V13.7057V13.7056V13.7054V13.7052V13.705V13.7048V13.7047V13.7045V13.7043V13.7042V13.704V13.7038V13.7036V13.7034V13.7032V13.7031V13.7029V13.7027V13.7026V13.7024V13.7022V13.702V13.7018V13.7016V13.7014V13.7012V13.701V13.7009V13.7007V13.7005V13.7003V13.7001V13.6999V13.6997C268.721 11.6984 270.158 9.39478 273.014 9.39478H332.466C334.601 9.39478 336.761 11.1738 336.761 13.6668V13.6997V56.2559V56.2887C336.761 58.4236 334.958 60.5608 332.466 60.5608H273.014Z" fill="#C1F52F" stroke="#C1F52F" stroke-width="0.4"/>
<path d="M409.082 26.3891C407.044 26.3891 404.703 24.9395 404.703 22.066C404.703 19.7328 402.78 17.8379 400.428 17.8379H365.846C363.494 17.8379 361.571 19.7328 361.571 22.066C361.571 24.2399 359.735 26.3891 357.191 26.3891C354.84 26.3891 352.917 28.284 352.917 30.6172V64.789C352.917 67.1221 354.84 69.0168 357.191 69.0168C359.543 69.0168 361.467 67.1221 361.467 64.789V30.5842V30.5539C361.499 28.5769 362.963 26.2611 365.846 26.2611H400.428C402.638 26.2611 404.808 28.0805 404.808 30.5842V64.789C404.808 67.1221 406.731 69.0168 409.082 69.0168C411.434 69.0168 413.357 67.1221 413.357 64.789V30.5842C413.357 28.2473 411.43 26.3891 409.082 26.3891Z" fill="#C1F52F" stroke="#C1F52F" stroke-width="0.4"/>
<path d="M5.17099 9.51361L5.16579 9.51368C2.88517 9.54936 1 11.4388 1 13.7575V56.2928C1 58.6124 2.88709 60.5038 5.2038 60.5038C7.16842 60.5038 9.46657 61.9126 9.49786 64.7426V64.7427V64.7428V64.743V64.7432V64.7434V64.7435V64.7437V64.7439V64.7441V64.7443V64.7445V64.7447V64.7448V64.745V64.7452V64.7453V64.7455V64.7457V64.7459V64.7461V64.7462V64.7464V64.7465V64.7467V64.7469V64.7471V64.7472V64.7474V64.7475V64.7477V64.7479V64.7481V64.7482V64.7484V64.7485V64.7487V64.7488V64.749V64.7492V64.7493V64.7495V64.7496V64.7498V64.75V64.7501V64.7503V64.7504V64.7506V64.7508V64.7509V64.751V64.7512V64.7514V64.7515V64.7516V64.7518V64.752V64.7521V64.7522V64.7524V64.7526V64.7527V64.7528V64.753V64.7532V64.7533V64.7534V64.7536V64.7537V64.7538V64.754V64.7542V64.7543V64.7544V64.7546V64.7547V64.7548V64.755V64.7551V64.7552V64.7554V64.7556V64.7557V64.7558V64.756V64.7561V64.7562V64.7564V64.7565V64.7566V64.7568V64.7569V64.757V64.7571V64.7573V64.7574V64.7575V64.7577V64.7577V64.7579V64.758V64.7581V64.7583V64.7584V64.7585V64.7587V64.7588V64.7589V64.759V64.7591V64.7593V64.7594V64.7595V64.7597V64.7598V64.7599V64.76V64.7601V64.7603V64.7604V64.7605V64.7606V64.7607V64.7609V64.761V64.7611V64.7612V64.7613V64.7615V64.7616V64.7617V64.7618V64.7619V64.762V64.7621V64.7623V64.7624V64.7625V64.7626V64.7627V64.7628V64.7629V64.7631V64.7632V64.7633V64.7634V64.7635V64.7636V64.7637V64.7639V64.7639V64.7641V64.7641V64.7643V64.7644V64.7645V64.7646V64.7647V64.7648V64.7649V64.7651V64.7651V64.7653V64.7653V64.7655V64.7656V64.7657V64.7658V64.7659V64.766V64.7661V64.7662V64.7663V64.7664V64.7665V64.7666V64.7667V64.7668V64.7669V64.767V64.7671V64.7672V64.7673V64.7674V64.7675V64.7676V64.7677V64.7678V64.7679V64.768V64.7681V64.7682V64.7683V64.7684V64.7685V64.7686V64.7687V64.7688V64.769V64.769V64.7691V64.7692V64.7693V64.7694V64.7695V64.7696V64.7697V64.7698V64.7699V64.77V64.7701V64.7702V64.7703V64.7704V64.7705V64.7706V64.7707V64.7708V64.7709V64.771V64.7711V64.7712V64.7713V64.7714V64.7715V64.7716V64.7717V64.7718V64.7719V64.772V64.7721V64.7722V64.7723V64.7724V64.7724V64.7726V64.7726V64.7728V64.7728V64.773V64.773V64.7732V64.7732V64.7734V64.7734V64.7735V64.7736V64.7737V64.7738V64.7739V64.774V64.7741V64.7742V64.7743V64.7744V64.7745V64.7746V64.7747V64.7748V64.7749V64.775V64.7751V64.7752V64.7753V64.7754V64.7754V64.7756V64.7756V64.7758V64.7758V64.776V64.776V64.7762V64.7762V64.7763V64.7764V64.7765V64.7766V64.7767V64.7768V64.7769V64.777V64.7771V64.7772V64.7773V64.7774V64.7775V64.7776V64.7777V64.7778V64.7779V64.778V64.7781V64.7782V64.7783V64.7784V64.7785V64.7786V64.7787V64.7788V64.7789V64.779V64.7791V64.7792V64.7793V64.7794V64.7795V64.7796V64.7797V64.7798V64.7799V64.78V64.7801V64.7802V64.7803V64.7804V64.7805V64.7806V64.7807V64.7809V64.7809V64.7811V64.7811V64.7813V64.7813V64.7815V64.7816V64.7817V64.7818V64.7819V64.782V64.7821V64.7822V64.7823V64.7824V64.7825V64.7827V64.7827V64.7829V64.783V64.7831V64.7832V64.7833V64.7834V64.7835V64.7837V64.7837V64.7839V64.784V64.7841V64.7842V64.7843V64.7844V64.7845V64.7847V64.7847V64.7849V64.785V64.7851V64.7852V64.7853V64.7855V64.7856V64.7856V64.7858V64.7859V64.7861V64.7861V64.7862V64.7864V64.7865V64.7866V64.7867V64.7868V64.787V64.7871V64.7872V64.7873V64.7874V64.7876V64.7877V64.7878V64.788V64.788V64.7882V64.7883V64.7884V64.7886V64.7887V64.7888V64.789V64.7891V64.7892V64.7893V64.7894V64.7896V64.7897V64.7898V64.79V64.7901V64.7902V64.7904V64.7905V64.7906V64.7908V64.7909V64.791V64.7912V64.7913V64.7914V64.7916V64.7917V64.7918V64.792V64.7921V64.7922V64.7924V64.7926V64.7927V64.7928V64.793V64.7931V64.7932V64.7934V64.7935V64.7937V64.7938V64.794V64.7941V64.7942V64.7944V64.7946V64.7947V64.7948V64.795V64.7952V64.7953V64.7954V64.7955V64.7957V64.7959V64.796V64.7962V64.7963V64.7965V64.7966V64.7968V64.7969V64.7971V64.7973V64.7974V64.7976V64.7977V64.7979V64.7981V64.7982V64.7984V64.7985V64.7987V64.7989V64.799V64.7992V64.7993V64.7995V64.7997V64.7999V64.8V64.8002V64.8003V64.8005V64.8007V64.8009V64.8011V64.8012V64.8014V64.8015V64.8017V64.8019V64.8021V64.8023V64.8025V64.8026V64.8028V64.803V64.8031V64.8033V64.8035V64.8037V64.8039V64.8041V64.8043V64.8044V64.8046V64.8048V64.805V64.8052V64.8053V64.8055V64.8057V64.8059V64.8061V64.8063V64.8065C9.49786 67.126 11.385 69.0174 13.7017 69.0174H73.154C75.4706 69.0174 77.358 67.126 77.358 64.8065C77.358 62.8063 78.795 60.5038 81.6517 60.5038C83.9689 60.5038 85.8557 58.6124 85.8557 56.2928C85.8557 53.9733 83.9689 52.0818 81.6517 52.0818C79.3351 52.0818 77.4483 53.9733 77.4483 56.2928V56.3231C77.4164 58.4639 75.6406 60.5955 73.154 60.5955H13.7017C11.5392 60.5955 9.40758 58.7889 9.40758 56.2928V13.7575V13.7574V13.7574V13.7573V13.7572V13.7572V13.7571V13.757V13.757V13.7569V13.7568V13.7568V13.7567V13.7566V13.7566V13.7565V13.7564V13.7564V13.7563V13.7562V13.7562V13.7561V13.756V13.756V13.7559V13.7558V13.7558V13.7557V13.7556V13.7556V13.7555V13.7554V13.7554V13.7553V13.7552V13.7552V13.7551V13.755V13.755V13.7549V13.7548V13.7548V13.7547V13.7546V13.7546V13.7545V13.7544V13.7544V13.7543V13.7542V13.7542V13.7541V13.754V13.754V13.7539V13.7538V13.7538V13.7537V13.7536V13.7536V13.7535V13.7534V13.7534V13.7533V13.7532V13.7532V13.7531V13.753V13.753V13.7529V13.7528V13.7528V13.7527V13.7526V13.7526V13.7525V13.7524V13.7524V13.7523V13.7522V13.7522V13.7521V13.752V13.752V13.7519V13.7518V13.7518V13.7517V13.7516V13.7516V13.7515V13.7514V13.7514V13.7513V13.7513V13.7512V13.7511V13.7511V13.751V13.7509V13.7509V13.7508V13.7507V13.7507V13.7506V13.7505V13.7505V13.7504V13.7503V13.7503V13.7502V13.7501V13.7501V13.75V13.7499V13.7499V13.7498V13.7497V13.7496V13.7495V13.7495V13.7494V13.7493V13.7493V13.7492V13.7491V13.749V13.7489V13.7489V13.7488V13.7487V13.7486V13.7485V13.7485V13.7484V13.7483V13.7482V13.7481V13.7481V13.7479V13.7479V13.7478V13.7477V13.7476V13.7475V13.7475V13.7473V13.7473V13.7472V13.7471V13.747V13.7469V13.7468V13.7467V13.7466V13.7465V13.7465V13.7463V13.7463V13.7461V13.7461V13.746V13.7459V13.7458V13.7457V13.7456V13.7455V13.7454V13.7453V13.7452V13.7451V13.745V13.7449V13.7448V13.7447V13.7446V13.7445V13.7443V13.7443V13.7441V13.7441V13.7439V13.7438V13.7437V13.7436V13.7435V13.7434V13.7433V13.7432V13.7431V13.7429V13.7429V13.7427V13.7426V13.7425V13.7424V13.7423V13.7421V13.7421V13.7419V13.7418V13.7417V13.7416V13.7415V13.7414V13.7412V13.7411V13.741V13.7409V13.7408V13.7406V13.7405V13.7404V13.7402V13.7401V13.74V13.7399V13.7398V13.7396V13.7395V13.7394V13.7392V13.7391V13.739V13.7388V13.7387V13.7386V13.7384V13.7383V13.7382V13.738V13.7379V13.7378V13.7376V13.7375V13.7374V13.7372V13.737V13.7369V13.7368V13.7366V13.7365V13.7364V13.7362V13.736V13.7359V13.7358V13.7356V13.7354V13.7353V13.7352V13.735V13.7349V13.7347V13.7346V13.7344V13.7342V13.7341V13.734V13.7338V13.7336V13.7335V13.7333V13.7332V13.733V13.7328V13.7327V13.7326V13.7324V13.7322V13.7321V13.7319V13.7317V13.7316V13.7314V13.7313V13.7311V13.7309V13.7307V13.7306V13.7304V13.7303V13.7301V13.7299V13.7297V13.7295V13.7294V13.7292V13.7291V13.7289V13.7287V13.7285V13.7283V13.7281V13.728V13.7278V13.7276V13.7274V13.7273V13.7271V13.7269V13.7267V13.7265V13.7263V13.7261V13.7259V13.7257V13.7256V13.7254V13.7252V13.725V13.7248V13.7246C9.40758 11.7245 10.8446 9.42193 13.7017 9.42193H73.154C75.1483 9.42193 77.447 10.8599 77.4483 13.7221C77.4138 16.08 79.3059 17.9356 81.6191 17.9356C83.9357 17.9356 85.8231 16.0441 85.8231 13.7246C85.8231 11.4051 83.9357 9.51361 81.6191 9.51361C79.4567 9.51361 77.3248 7.70698 77.3248 5.21098C77.3248 2.89147 75.438 1 73.1214 1H13.6689C11.3521 1 9.46504 2.89148 9.46504 5.21098C9.46504 7.37898 7.66086 9.51361 5.17099 9.51361Z" fill="#C1F52F" stroke="#C1F52F" stroke-width="0.4"/>
<path d="M430.336 17.8379H430.004V18.1701V26.0887V26.4209H430.336H470.094H470.426V26.0887V18.1701V17.8379H470.094H430.336Z" fill="#C1F52F" stroke="#C1F52F" stroke-width="0.4"/>
<path d="M479.669 42.9209H480.001V42.5887V28.0705V27.7383H479.669H471.906H471.574V28.0705V34.7262H428.704V28.0705V27.7383H428.371H420.609H420.277V28.0705V59.0853V59.4174H420.609H428.371H428.704V59.0853V42.9209H471.906H475.771H479.669Z" fill="#C1F52F" stroke="#C1F52F" stroke-width="0.4"/>
<path d="M430.169 60.7344H429.837V61.0666V68.655V68.9872H430.169H470.093H470.425V68.655V61.0666V60.7344H470.093H430.169Z" fill="#C1F52F" stroke="#C1F52F" stroke-width="0.4"/>
<path d="M479.999 52.4845V52.1523H479.667H472.078H471.746V52.4845V55.7281V55.7282V55.7284V55.7285V55.7287V55.7289V55.729V55.7292V55.7293V55.7295V55.7297V55.7298V55.7299V55.7301V55.7303V55.7304V55.7306V55.7307V55.7309V55.7311V55.7312V55.7313V55.7315V55.7317V55.7318V55.7319V55.7321V55.7323V55.7324V55.7325V55.7327V55.7329V55.733V55.7331V55.7333V55.7334V55.7335V55.7337V55.7339V55.734V55.7341V55.7343V55.7344V55.7345V55.7347V55.7348V55.7349V55.7351V55.7353V55.7354V55.7355V55.7357V55.7358V55.7359V55.7361V55.7362V55.7363V55.7365V55.7366V55.7367V55.7369V55.7369V55.7371V55.7372V55.7373V55.7375V55.7376V55.7377V55.7378V55.738V55.7381V55.7382V55.7383V55.7384V55.7386V55.7387V55.7388V55.739V55.7391V55.7392V55.7393V55.7394V55.7396V55.7397V55.7398V55.7399V55.74V55.7402V55.7403V55.7404V55.7405V55.7406V55.7408V55.7408V55.741V55.7411V55.7412V55.7413V55.7414V55.7416V55.7416V55.7418V55.7419V55.742V55.7421V55.7422V55.7423V55.7424V55.7426V55.7426V55.7428V55.7429V55.743V55.7431V55.7432V55.7433V55.7434V55.7435V55.7436V55.7437V55.7438V55.744V55.744V55.7442V55.7442V55.7444V55.7444V55.7446V55.7446V55.7448V55.7449V55.745V55.7451V55.7452V55.7453V55.7454V55.7455V55.7456V55.7457V55.7458V55.7459V55.746V55.7461V55.7462V55.7463V55.7464V55.7464V55.7466V55.7466V55.7468V55.7468V55.747V55.747V55.7472V55.7472V55.7473V55.7474V55.7475V55.7476V55.7477V55.7478V55.7479V55.748V55.7481V55.7481V55.7483V55.7483V55.7484V55.7485V55.7486V55.7487V55.7488V55.7489V55.749V55.7491V55.7491V55.7493V55.7493V55.7494V55.7495V55.7496V55.7497V55.7498V55.7499V55.7499V55.7501V55.7501V55.7502V55.7503V55.7504V55.7505V55.7506V55.7507V55.7507V55.7509V55.7509V55.751V55.7511V55.7512V55.7513V55.7513V55.7515V55.7515V55.7516V55.7517V55.7518V55.7519V55.7519V55.7521V55.7521V55.7522V55.7523V55.7524V55.7525V55.7525V55.7526V55.7527V55.7528V55.7529V55.753V55.7531V55.7531V55.7532V55.7533V55.7534V55.7535V55.7535V55.7537V55.7537V55.7538V55.7539V55.754V55.7541V55.7541V55.7542V55.7543V55.7544V55.7545V55.7545V55.7546V55.7547V55.7548V55.7549V55.7549V55.7551V55.7551V55.7552V55.7553V55.7554V55.7555V55.7555V55.7556V55.7557V55.7558V55.7559V55.7559V55.756V55.7561V55.7562V55.7563V55.7563V55.7565V55.7565V55.7566V55.7567V55.7568V55.7569V55.7569V55.757V55.7571V55.7572V55.7573V55.7573V55.7574V55.7575V55.7576V55.7576V55.7577V55.7578V55.7579V55.758V55.758V55.7582V55.7582V55.7583V55.7584V55.7585V55.7586V55.7586V55.7587V55.7588V55.7589V55.759V55.759V55.7592V55.7592V55.7593V55.7594V55.7595V55.7596V55.7596V55.7598V55.7598V55.7599V55.76V55.7601V55.7602V55.7602V55.7603V55.7604V55.7605V55.7606V55.7607V55.7608V55.7608V55.761V55.761V55.7611V55.7612V55.7613V55.7614V55.7614V55.7616V55.7616V55.7617V55.7618V55.7619V55.762V55.7621V55.7622V55.7622V55.7624V55.7624V55.7625V55.7626V55.7627V55.7628V55.7629V55.763V55.763V55.7632V55.7632V55.7634V55.7634V55.7635V55.7636V55.7637V55.7638V55.7639V55.764V55.7641V55.7642V55.7642V55.7644V55.7644V55.7646V55.7646V55.7647V55.7648V55.7649V55.765V55.7651V55.7652V55.7653V55.7654V55.7655V55.7656V55.7657V55.7658V55.7659V55.766V55.7661V55.7662V55.7663V55.7663V55.7665V55.7666V55.7667V55.7668V55.7669V55.7669V55.7671V55.7672V55.7673V55.7673V55.7675V55.7676V55.7677V55.7678V55.7679V55.768V55.7681V55.7682V55.7683V55.7684V55.7685V55.7686V55.7687V55.7689V55.7689V55.7691V55.7691V55.7693V55.7694V55.7695V55.7696V55.7697V55.7698V55.7699V55.7701V55.7701V55.7703V55.7704V55.7705V55.7706V55.7707V55.7708V55.7709V55.7711V55.7712V55.7713V55.7714V55.7715V55.7717V55.7717V55.7719V55.772V55.7721V55.7722V55.7723V55.7725V55.7726V55.7727V55.7729V55.7729V55.7731V55.7732V55.7733V55.7735V55.7736V55.7737V55.7738V55.7739V55.7741V55.7742V55.7743V55.7745V55.7746V55.7747V55.7749V55.7749V55.7751V55.7752V55.7753V55.7755V55.7756V55.7757V55.7759V55.776V55.7761V55.7762V55.7764V55.7765V55.7766V55.7768V55.7769V55.7771V55.7772V55.7774V55.7775V55.7776V55.7778V55.7779V55.778V55.7782V55.7783V55.7785V55.7786V55.7788V55.7789V55.779V55.7792V55.7794V55.7795V55.7796V55.7798V55.7799V55.7801V55.7802V55.7804V55.7805V55.7807V55.7808V55.781V55.7812V55.7813V55.7814V55.7816V55.7818V55.7819V55.782V55.7822V55.7824V55.7826V55.7827V55.7828V55.783V55.7832V55.7834V55.7835V55.7836V55.7838V55.784V55.7842V55.7843V55.7845V55.7846V55.7848V55.785V55.7851V55.7853V55.7854V55.7856V55.7858V55.7859V55.7861V55.7862V55.7864V55.7865V55.7867V55.7868V55.787V55.7871V55.7873V55.7874V55.7876V55.7877V55.7879V55.788V55.7882V55.7883V55.7885V55.7886V55.7887V55.7889V55.7891V55.7892V55.7893V55.7895V55.7896V55.7897V55.7899V55.7901V55.7902V55.7903V55.7905V55.7906V55.7907V55.7909V55.791V55.7911V55.7913V55.7914V55.7915V55.7917V55.7918V55.7919V55.7921V55.7922V55.7923V55.7925V55.7926V55.7927V55.7929V55.793V55.7931V55.7933V55.7934V55.7935V55.7937V55.7938V55.7939V55.7941V55.7941V55.7943V55.7944V55.7945V55.7947V55.7948V55.7949V55.795V55.7951V55.7953V55.7954V55.7955V55.7956V55.7957V55.7958V55.796V55.7961V55.7962V55.7963V55.7964V55.7966V55.7966V55.7968V55.7969V55.797V55.7971V55.7972V55.7974V55.7974V55.7976V55.7977V55.7978V55.7979V55.798V55.7981V55.7982V55.7984V55.7984V55.7986V55.7987V55.7988V55.7989V55.799V55.7991V55.7992V55.7993V55.7994V55.7996V55.7996V55.7998V55.7998V55.8V55.8001V55.8002V55.8003V55.8004V55.8005V55.8006V55.8007V55.8008V55.8009V55.801V55.8011V55.8012V55.8013V55.8014V55.8015V55.8016V55.8017V55.8018V55.8019V55.802V55.8021V55.8022V55.8023V55.8024V55.8025V55.8026V55.8027V55.8028V55.8029V55.803V55.803V55.8032V55.8032V55.8034V55.8034V55.8036V55.8036V55.8037V55.8038V55.8039V55.804V55.8041V55.8042V55.8043V55.8044V55.8044V55.8046V55.8046V55.8047V55.8048V55.8049V55.805V55.8051V55.8052V55.8053V55.8053V55.8054V55.8056V55.8056V55.8057V55.8058V55.8059V55.8059V55.8061V55.8061V55.8062V55.8063V55.8064V55.8065V55.8066V55.8067V55.8067V55.8069V55.8069V55.807V55.8071V55.8072V55.8073V55.8073V55.8075V55.8075V55.8076V55.8077V55.8078V55.8079V55.8079V55.8081V55.8081V55.8082V55.8083V55.8084V55.8085V55.8085V55.8087V55.8087V55.8088V55.8089V55.809V55.8091V55.8091V55.8092V55.8093V55.8094V55.8095V55.8095V55.8097V55.8097V55.8098V55.8099V55.81V55.8101V55.8101V55.8102V55.8103V55.8104V55.8105V55.8105V55.8107V55.8107V55.8108V55.8109V55.8109V55.8111V55.8111V55.8112V55.8113V55.8114V55.8115V55.8115V55.8116V55.8117V55.8118V55.8119V55.8119V55.812V55.8121V55.8122V55.8123V55.8123V55.8125V55.8125V55.8126V55.8127V55.8128V55.8129V55.8129V55.813V55.8131V55.8132V55.8133V55.8133V55.8134V55.8135V55.8136V55.8137V55.8137V55.8139V55.8139V55.814V55.8141V55.8142V55.8143V55.8143V55.8144V55.8145V55.8146V55.8146V55.8147V55.8149V55.8149V55.815V55.815V55.8152V55.8152V55.8153V55.8154V55.8155V55.8156V55.8156V55.8158V55.8158V55.8159V55.816V55.8161V55.8162V55.8162V55.8164V55.8164V55.8165V55.8166V55.8167V55.8168V55.8168V55.817V55.817V55.8171V55.8172V55.8173V55.8174V55.8174V55.8176V55.8176V55.8177V55.8178V55.8179V55.818V55.8181V55.8182V55.8182V55.8184V55.8184V55.8185V55.8186V55.8187V55.8188V55.8189V55.819V55.8191V55.8192V55.8192V55.8194V55.8194V55.8195V55.8196V55.8197V55.8198V55.8199V55.82V55.8201V55.8202V55.8203V55.8204V55.8204V55.8206V55.8206V55.8208V55.8208V55.821V55.821V55.8211V55.8212V55.8213V55.8214V55.8215V55.8216V55.8217V55.8218V55.8219V55.822V55.8221V55.8222V55.8223V55.8224V55.8225V55.8226V55.8227V55.8228V55.8229V55.823V55.8231V55.8232V55.8233V55.8234V55.8235V55.8236V55.8237V55.8238V55.8239V55.824V55.8242V55.8242V55.8243V55.8244V55.8245V55.8247V55.8248V55.8249V55.825V55.8251V55.8252V55.8253V55.8254V55.8255V55.8256V55.8257V55.8259V55.8259V55.8261V55.8262V55.8263V55.8264V55.8265V55.8267V55.8267V55.8269V55.827V55.8271V55.8272V55.8273V55.8275V55.8275V55.8277V55.8278V55.8279V55.828V55.8281V55.8283V55.8284V55.8285V55.8286V55.8287V55.8289V55.829V55.8291V55.8293V55.8293V55.8295V55.8296V55.8297V55.8299V55.83V55.8301V55.8303V55.8304V55.8305V55.8306V55.8307V55.8309V55.831V55.8311V55.8313V55.8314V55.8315V55.8317V55.8318V55.8319V55.8321V55.8322V55.8323V55.8325V55.8326V55.8327V55.8329V55.833V55.8331V55.8333V55.8334V55.8336V55.8337V55.8338V55.834V55.8341V55.8342V55.8344V55.8345V55.8347V55.8348V55.835V55.8351V55.8352V55.8354V55.8356V55.8357V55.8358V55.836V55.8362V55.8363V55.8364V55.8366V55.8368V55.8369V55.837V55.8372V55.8374V55.8375V55.8377V55.8378V55.838V55.8382V55.8383V55.8384V55.8386V55.8388V55.839V55.8391V55.8392V55.8394V55.8396V55.8398V55.8399V59.0835V59.4156H472.078H475.856H479.667H479.999V59.0835V52.4845Z" fill="#C1F52F" stroke="#C1F52F" stroke-width="0.4"/>
</svg>
