<svg width="239" height="120" viewBox="0 0 239 120" fill="none" xmlns="http://www.w3.org/2000/svg">
<mask id="path-1-inside-1" fill="white">
<path fill-rule="evenodd" clip-rule="evenodd" d="M90.0586 0.367188H149.579H149.853V0.368414C166.239 0.515323 179.477 13.8439 179.477 30.2644C179.477 31.2237 179.431 32.1724 179.343 33.1086C180.775 48.2863 193.554 60.1616 209.107 60.1616H209.107V60.1621H209.107H209.105C225.616 60.1632 239 73.5482 239 90.0593C239 106.571 225.615 119.957 209.103 119.957C192.591 119.957 179.206 106.571 179.206 90.0593L179.206 89.9402L179.206 89.8502C179.094 73.4356 165.753 60.1635 149.312 60.1621V60.1616H90.0586C90.0577 60.1616 90.0568 60.1616 90.0559 60.1616C73.5441 60.1616 60.1587 46.7762 60.1587 30.2644C60.1587 13.7526 73.5441 0.367188 90.0559 0.367188C90.0568 0.367188 90.0577 0.367188 90.0586 0.367188ZM90.0559 60.1635C73.5441 60.1635 60.1587 46.7781 60.1587 30.2663V30.2656H60.1562V30.2663C60.1562 46.7084 46.8835 60.0505 30.4679 60.1628C30.3983 60.1623 30.3287 60.1621 30.259 60.1621C13.7472 60.1621 0.361816 73.5475 0.361816 90.0593C0.361816 106.571 13.7472 119.957 30.259 119.957C46.7706 119.957 60.1559 106.571 60.1562 90.0599V90.06H60.1587C60.1594 73.5488 73.5445 60.1641 90.0559 60.1641H90.0561V60.1635H90.0559Z"/>
</mask>
<path fill-rule="evenodd" clip-rule="evenodd" d="M90.0586 0.367188H149.579H149.853V0.368414C166.239 0.515323 179.477 13.8439 179.477 30.2644C179.477 31.2237 179.431 32.1724 179.343 33.1086C180.775 48.2863 193.554 60.1616 209.107 60.1616H209.107V60.1621H209.107H209.105C225.616 60.1632 239 73.5482 239 90.0593C239 106.571 225.615 119.957 209.103 119.957C192.591 119.957 179.206 106.571 179.206 90.0593L179.206 89.9402L179.206 89.8502C179.094 73.4356 165.753 60.1635 149.312 60.1621V60.1616H90.0586C90.0577 60.1616 90.0568 60.1616 90.0559 60.1616C73.5441 60.1616 60.1587 46.7762 60.1587 30.2644C60.1587 13.7526 73.5441 0.367188 90.0559 0.367188C90.0568 0.367188 90.0577 0.367188 90.0586 0.367188ZM90.0559 60.1635C73.5441 60.1635 60.1587 46.7781 60.1587 30.2663V30.2656H60.1562V30.2663C60.1562 46.7084 46.8835 60.0505 30.4679 60.1628C30.3983 60.1623 30.3287 60.1621 30.259 60.1621C13.7472 60.1621 0.361816 73.5475 0.361816 90.0593C0.361816 106.571 13.7472 119.957 30.259 119.957C46.7706 119.957 60.1559 106.571 60.1562 90.0599V90.06H60.1587C60.1594 73.5488 73.5445 60.1641 90.0559 60.1641H90.0561V60.1635H90.0559Z" fill="#C1F52F"/>
<path d="M149.853 0.367188H159.853V-9.63281H149.853V0.367188ZM149.853 0.368414H139.853V10.2792L149.763 10.368L149.853 0.368414ZM179.343 33.1086L169.387 32.1691L169.299 33.1086L169.387 34.0481L179.343 33.1086ZM209.107 60.1616H219.107V50.1616H209.107V60.1616ZM209.107 60.1621V70.1621H219.107V60.1621H209.107ZM209.105 60.1621V50.1621L209.104 70.1621L209.105 60.1621ZM179.206 90.0593L169.206 90.0401L169.206 90.0497V90.0593H179.206ZM179.206 89.9402L169.206 89.8859L169.206 89.9034L169.206 89.921L179.206 89.9402ZM179.206 89.8502L189.206 89.9044L189.206 89.8431L189.206 89.7817L179.206 89.8502ZM149.312 60.1621H139.312V70.1612L149.312 70.1621L149.312 60.1621ZM149.312 60.1616H159.312V50.1616H149.312V60.1616ZM60.1587 30.2656H70.1587V20.2656H60.1587V30.2656ZM60.1562 30.2656V20.2656H50.1562V30.2656H60.1562ZM30.4679 60.1628L30.3993 70.1626L30.4678 70.1631L30.5363 70.1626L30.4679 60.1628ZM60.1562 90.0599H70.1562L50.1562 90.0597L60.1562 90.0599ZM60.1562 90.06H50.1562V100.06H60.1562V90.06ZM60.1587 90.06V100.06H70.1583L70.1587 90.0604L60.1587 90.06ZM90.0561 60.1641V70.1641H100.056V60.1641H90.0561ZM90.0561 60.1635H100.056V50.1635H90.0561V60.1635ZM90.0586 10.3672H149.579V-9.63281H90.0586V10.3672ZM149.579 10.3672H149.853V-9.63281H149.579V10.3672ZM139.853 0.367188V0.368414H159.853V0.367188H139.853ZM189.477 30.2644C189.477 8.35111 171.811 -9.43512 149.943 -9.63118L149.763 10.368C160.666 10.4658 169.477 19.3367 169.477 30.2644H189.477ZM189.299 34.0481C189.417 32.8001 189.477 31.5379 189.477 30.2644H169.477C169.477 30.9095 169.446 31.5447 169.387 32.1691L189.299 34.0481ZM209.107 50.1616C198.762 50.1616 190.251 42.2595 189.299 32.1691L169.387 34.0481C171.3 54.3131 188.346 70.1616 209.107 70.1616V50.1616ZM209.107 50.1616H209.107V70.1616H209.107V50.1616ZM219.107 60.1621V60.1616H199.107V60.1621H219.107ZM209.107 70.1621H209.107V50.1621H209.107V70.1621ZM209.105 70.1621H209.107V50.1621H209.105V70.1621ZM249 90.0593C249 68.0256 231.139 50.1635 209.105 50.1621L209.104 70.1621C220.092 70.1628 229 79.0708 229 90.0593H249ZM209.103 129.957C231.137 129.957 249 112.094 249 90.0593H229C229 101.048 220.092 109.957 209.103 109.957V129.957ZM169.206 90.0593C169.206 112.094 187.068 129.957 209.103 129.957V109.957C198.114 109.957 189.206 101.048 189.206 90.0593H169.206ZM169.206 89.921L169.206 90.0401L189.206 90.0785L189.206 89.9594L169.206 89.921ZM169.206 89.7959L169.206 89.8859L189.206 89.9944L189.206 89.9044L169.206 89.7959ZM149.312 70.1621C160.253 70.1631 169.132 78.996 169.207 89.9187L189.206 89.7817C189.056 67.8751 171.254 50.164 149.313 50.1621L149.312 70.1621ZM139.312 60.1616V60.1621H159.312V60.1616H139.312ZM149.312 50.1616H90.0586V70.1616H149.312V50.1616ZM90.0559 70.1616C90.0559 70.1616 90.0559 70.1616 90.0559 70.1616C90.0559 70.1616 90.0559 70.1616 90.0559 70.1616H90.0559C90.0559 70.1616 90.0559 70.1616 90.0559 70.1616H90.0559C90.0559 70.1616 90.0559 70.1616 90.0559 70.1616H90.0559C90.0559 70.1616 90.0559 70.1616 90.056 70.1616H90.056C90.056 70.1616 90.056 70.1616 90.056 70.1616C90.056 70.1616 90.056 70.1616 90.056 70.1616C90.056 70.1616 90.056 70.1616 90.056 70.1616C90.056 70.1616 90.056 70.1616 90.056 70.1616C90.056 70.1616 90.056 70.1616 90.056 70.1616C90.056 70.1616 90.056 70.1616 90.056 70.1616H90.056C90.056 70.1616 90.056 70.1616 90.056 70.1616H90.056C90.056 70.1616 90.056 70.1616 90.056 70.1616H90.056C90.056 70.1616 90.056 70.1616 90.0561 70.1616H90.0561C90.0561 70.1616 90.0561 70.1616 90.0561 70.1616C90.0561 70.1616 90.0561 70.1616 90.0561 70.1616C90.0561 70.1616 90.0561 70.1616 90.0561 70.1616C90.0561 70.1616 90.0561 70.1616 90.0561 70.1616C90.0561 70.1616 90.0561 70.1616 90.0561 70.1616C90.0561 70.1616 90.0561 70.1616 90.0561 70.1616H90.0561C90.0561 70.1616 90.0561 70.1616 90.0561 70.1616H90.0561C90.0561 70.1616 90.0561 70.1616 90.0561 70.1616H90.0561C90.0561 70.1616 90.0561 70.1616 90.0562 70.1616H90.0562C90.0562 70.1616 90.0562 70.1616 90.0562 70.1616C90.0562 70.1616 90.0562 70.1616 90.0562 70.1616C90.0562 70.1616 90.0562 70.1616 90.0562 70.1616C90.0562 70.1616 90.0562 70.1616 90.0562 70.1616C90.0562 70.1616 90.0562 70.1616 90.0562 70.1616C90.0562 70.1616 90.0562 70.1616 90.0562 70.1616H90.0562C90.0562 70.1616 90.0562 70.1616 90.0562 70.1616H90.0562C90.0562 70.1616 90.0562 70.1616 90.0562 70.1616H90.0562C90.0562 70.1616 90.0562 70.1616 90.0563 70.1616H90.0563C90.0563 70.1616 90.0563 70.1616 90.0563 70.1616C90.0563 70.1616 90.0563 70.1616 90.0563 70.1616C90.0563 70.1616 90.0563 70.1616 90.0563 70.1616C90.0563 70.1616 90.0563 70.1616 90.0563 70.1616C90.0563 70.1616 90.0563 70.1616 90.0563 70.1616C90.0563 70.1616 90.0563 70.1616 90.0563 70.1616H90.0563C90.0563 70.1616 90.0563 70.1616 90.0563 70.1616H90.0563C90.0563 70.1616 90.0563 70.1616 90.0563 70.1616H90.0563C90.0563 70.1616 90.0563 70.1616 90.0564 70.1616H90.0564C90.0564 70.1616 90.0564 70.1616 90.0564 70.1616C90.0564 70.1616 90.0564 70.1616 90.0564 70.1616C90.0564 70.1616 90.0564 70.1616 90.0564 70.1616C90.0564 70.1616 90.0564 70.1616 90.0564 70.1616C90.0564 70.1616 90.0564 70.1616 90.0564 70.1616C90.0564 70.1616 90.0564 70.1616 90.0564 70.1616H90.0564C90.0564 70.1616 90.0564 70.1616 90.0564 70.1616H90.0564C90.0564 70.1616 90.0564 70.1616 90.0564 70.1616H90.0564C90.0564 70.1616 90.0564 70.1616 90.0564 70.1616H90.0565C90.0565 70.1616 90.0565 70.1616 90.0565 70.1616C90.0565 70.1616 90.0565 70.1616 90.0565 70.1616C90.0565 70.1616 90.0565 70.1616 90.0565 70.1616C90.0565 70.1616 90.0565 70.1616 90.0565 70.1616C90.0565 70.1616 90.0565 70.1616 90.0565 70.1616C90.0565 70.1616 90.0565 70.1616 90.0565 70.1616H90.0565C90.0565 70.1616 90.0565 70.1616 90.0565 70.1616H90.0565C90.0565 70.1616 90.0565 70.1616 90.0565 70.1616H90.0565C90.0565 70.1616 90.0565 70.1616 90.0565 70.1616H90.0566C90.0566 70.1616 90.0566 70.1616 90.0566 70.1616C90.0566 70.1616 90.0566 70.1616 90.0566 70.1616C90.0566 70.1616 90.0566 70.1616 90.0566 70.1616C90.0566 70.1616 90.0566 70.1616 90.0566 70.1616C90.0566 70.1616 90.0566 70.1616 90.0566 70.1616C90.0566 70.1616 90.0566 70.1616 90.0566 70.1616H90.0566C90.0566 70.1616 90.0566 70.1616 90.0566 70.1616H90.0566C90.0566 70.1616 90.0566 70.1616 90.0566 70.1616H90.0566C90.0566 70.1616 90.0566 70.1616 90.0566 70.1616H90.0567C90.0567 70.1616 90.0567 70.1616 90.0567 70.1616H90.0567C90.0567 70.1616 90.0567 70.1616 90.0567 70.1616C90.0567 70.1616 90.0567 70.1616 90.0567 70.1616C90.0567 70.1616 90.0567 70.1616 90.0567 70.1616C90.0567 70.1616 90.0567 70.1616 90.0567 70.1616C90.0567 70.1616 90.0567 70.1616 90.0567 70.1616C90.0567 70.1616 90.0567 70.1616 90.0567 70.1616H90.0567C90.0567 70.1616 90.0567 70.1616 90.0567 70.1616H90.0567C90.0567 70.1616 90.0567 70.1616 90.0567 70.1616H90.0568C90.0568 70.1616 90.0568 70.1616 90.0568 70.1616H90.0568C90.0568 70.1616 90.0568 70.1616 90.0568 70.1616C90.0568 70.1616 90.0568 70.1616 90.0568 70.1616C90.0568 70.1616 90.0568 70.1616 90.0568 70.1616C90.0568 70.1616 90.0568 70.1616 90.0568 70.1616C90.0568 70.1616 90.0568 70.1616 90.0568 70.1616C90.0568 70.1616 90.0568 70.1616 90.0568 70.1616H90.0568C90.0568 70.1616 90.0568 70.1616 90.0568 70.1616H90.0568C90.0568 70.1616 90.0568 70.1616 90.0568 70.1616H90.0569C90.0569 70.1616 90.0569 70.1616 90.0569 70.1616H90.0569C90.0569 70.1616 90.0569 70.1616 90.0569 70.1616H90.0569C90.0569 70.1616 90.0569 70.1616 90.0569 70.1616C90.0569 70.1616 90.0569 70.1616 90.0569 70.1616C90.0569 70.1616 90.0569 70.1616 90.0569 70.1616C90.0569 70.1616 90.0569 70.1616 90.0569 70.1616C90.0569 70.1616 90.0569 70.1616 90.0569 70.1616C90.0569 70.1616 90.0569 70.1616 90.0569 70.1616H90.0569C90.0569 70.1616 90.0569 70.1616 90.0569 70.1616H90.057C90.057 70.1616 90.057 70.1616 90.057 70.1616H90.057C90.057 70.1616 90.057 70.1616 90.057 70.1616H90.057C90.057 70.1616 90.057 70.1616 90.057 70.1616C90.057 70.1616 90.057 70.1616 90.057 70.1616C90.057 70.1616 90.057 70.1616 90.057 70.1616C90.057 70.1616 90.057 70.1616 90.057 70.1616C90.057 70.1616 90.057 70.1616 90.057 70.1616C90.057 70.1616 90.057 70.1616 90.057 70.1616H90.057C90.057 70.1616 90.057 70.1616 90.057 70.1616H90.0571C90.0571 70.1616 90.0571 70.1616 90.0571 70.1616H90.0571C90.0571 70.1616 90.0571 70.1616 90.0571 70.1616H90.0571C90.0571 70.1616 90.0571 70.1616 90.0571 70.1616H90.0571C90.0571 70.1616 90.0571 70.1616 90.0571 70.1616C90.0571 70.1616 90.0571 70.1616 90.0571 70.1616C90.0571 70.1616 90.0571 70.1616 90.0571 70.1616C90.0571 70.1616 90.0571 70.1616 90.0571 70.1616C90.0571 70.1616 90.0571 70.1616 90.0571 70.1616C90.0571 70.1616 90.0571 70.1616 90.0571 70.1616H90.0572C90.0572 70.1616 90.0572 70.1616 90.0572 70.1616H90.0572C90.0572 70.1616 90.0572 70.1616 90.0572 70.1616H90.0572C90.0572 70.1616 90.0572 70.1616 90.0572 70.1616H90.0572C90.0572 70.1616 90.0572 70.1616 90.0572 70.1616H90.0572C90.0572 70.1616 90.0572 70.1616 90.0572 70.1616C90.0572 70.1616 90.0572 70.1616 90.0572 70.1616C90.0572 70.1616 90.0572 70.1616 90.0572 70.1616C90.0572 70.1616 90.0572 70.1616 90.0572 70.1616H90.0573C90.0573 70.1616 90.0573 70.1616 90.0573 70.1616H90.0573C90.0573 70.1616 90.0573 70.1616 90.0573 70.1616H90.0573C90.0573 70.1616 90.0573 70.1616 90.0573 70.1616H90.0573C90.0573 70.1616 90.0573 70.1616 90.0573 70.1616H90.0573C90.0573 70.1616 90.0573 70.1616 90.0573 70.1616C90.0573 70.1616 90.0573 70.1616 90.0573 70.1616C90.0573 70.1616 90.0573 70.1616 90.0573 70.1616C90.0573 70.1616 90.0573 70.1616 90.0573 70.1616C90.0573 70.1616 90.0573 70.1616 90.0574 70.1616C90.0574 70.1616 90.0574 70.1616 90.0574 70.1616H90.0574C90.0574 70.1616 90.0574 70.1616 90.0574 70.1616H90.0574C90.0574 70.1616 90.0574 70.1616 90.0574 70.1616H90.0574C90.0574 70.1616 90.0574 70.1616 90.0574 70.1616H90.0574C90.0574 70.1616 90.0574 70.1616 90.0574 70.1616H90.0574C90.0574 70.1616 90.0574 70.1616 90.0574 70.1616C90.0574 70.1616 90.0574 70.1616 90.0574 70.1616C90.0574 70.1616 90.0574 70.1616 90.0574 70.1616C90.0575 70.1616 90.0575 70.1616 90.0575 70.1616C90.0575 70.1616 90.0575 70.1616 90.0575 70.1616C90.0575 70.1616 90.0575 70.1616 90.0575 70.1616H90.0575C90.0575 70.1616 90.0575 70.1616 90.0575 70.1616H90.0575C90.0575 70.1616 90.0575 70.1616 90.0575 70.1616H90.0575C90.0575 70.1616 90.0575 70.1616 90.0575 70.1616H90.0575C90.0575 70.1616 90.0575 70.1616 90.0575 70.1616C90.0575 70.1616 90.0575 70.1616 90.0575 70.1616C90.0575 70.1616 90.0575 70.1616 90.0575 70.1616C90.0576 70.1616 90.0576 70.1616 90.0576 70.1616C90.0576 70.1616 90.0576 70.1616 90.0576 70.1616C90.0576 70.1616 90.0576 70.1616 90.0576 70.1616H90.0576C90.0576 70.1616 90.0576 70.1616 90.0576 70.1616H90.0576C90.0576 70.1616 90.0576 70.1616 90.0576 70.1616H90.0576C90.0576 70.1616 90.0576 70.1616 90.0576 70.1616H90.0576C90.0576 70.1616 90.0576 70.1616 90.0576 70.1616H90.0576C90.0576 70.1616 90.0576 70.1616 90.0576 70.1616C90.0577 70.1616 90.0577 70.1616 90.0577 70.1616C90.0577 70.1616 90.0577 70.1616 90.0577 70.1616C90.0577 70.1616 90.0577 70.1616 90.0577 70.1616C90.0577 70.1616 90.0577 70.1616 90.0577 70.1616C90.0577 70.1616 90.0577 70.1616 90.0577 70.1616H90.0577C90.0577 70.1616 90.0577 70.1616 90.0577 70.1616H90.0577C90.0577 70.1616 90.0577 70.1616 90.0577 70.1616H90.0577C90.0577 70.1616 90.0577 70.1616 90.0577 70.1616H90.0577C90.0577 70.1616 90.0577 70.1616 90.0577 70.1616C90.0578 70.1616 90.0578 70.1616 90.0578 70.1616C90.0578 70.1616 90.0578 70.1616 90.0578 70.1616C90.0578 70.1616 90.0578 70.1616 90.0578 70.1616C90.0578 70.1616 90.0578 70.1616 90.0578 70.1616C90.0578 70.1616 90.0578 70.1616 90.0578 70.1616H90.0578C90.0578 70.1616 90.0578 70.1616 90.0578 70.1616H90.0578C90.0578 70.1616 90.0578 70.1616 90.0578 70.1616H90.0578C90.0578 70.1616 90.0578 70.1616 90.0578 70.1616H90.0578C90.0578 70.1616 90.0578 70.1616 90.0578 70.1616H90.0579C90.0579 70.1616 90.0579 70.1616 90.0579 70.1616C90.0579 70.1616 90.0579 70.1616 90.0579 70.1616C90.0579 70.1616 90.0579 70.1616 90.0579 70.1616C90.0579 70.1616 90.0579 70.1616 90.0579 70.1616C90.0579 70.1616 90.0579 70.1616 90.0579 70.1616C90.0579 70.1616 90.0579 70.1616 90.0579 70.1616H90.0579C90.0579 70.1616 90.0579 70.1616 90.0579 70.1616H90.0579C90.0579 70.1616 90.0579 70.1616 90.0579 70.1616H90.0579C90.0579 70.1616 90.0579 70.1616 90.0579 70.1616H90.058C90.058 70.1616 90.058 70.1616 90.058 70.1616C90.058 70.1616 90.058 70.1616 90.058 70.1616C90.058 70.1616 90.058 70.1616 90.058 70.1616C90.058 70.1616 90.058 70.1616 90.058 70.1616C90.058 70.1616 90.058 70.1616 90.058 70.1616C90.058 70.1616 90.058 70.1616 90.058 70.1616H90.058C90.058 70.1616 90.058 70.1616 90.058 70.1616H90.058C90.058 70.1616 90.058 70.1616 90.058 70.1616H90.058C90.058 70.1616 90.058 70.1616 90.058 70.1616H90.0581C90.0581 70.1616 90.0581 70.1616 90.0581 70.1616C90.0581 70.1616 90.0581 70.1616 90.0581 70.1616C90.0581 70.1616 90.0581 70.1616 90.0581 70.1616C90.0581 70.1616 90.0581 70.1616 90.0581 70.1616C90.0581 70.1616 90.0581 70.1616 90.0581 70.1616C90.0581 70.1616 90.0581 70.1616 90.0581 70.1616H90.0581C90.0581 70.1616 90.0581 70.1616 90.0581 70.1616H90.0581C90.0581 70.1616 90.0581 70.1616 90.0581 70.1616H90.0581C90.0581 70.1616 90.0581 70.1616 90.0581 70.1616H90.0582C90.0582 70.1616 90.0582 70.1616 90.0582 70.1616C90.0582 70.1616 90.0582 70.1616 90.0582 70.1616C90.0582 70.1616 90.0582 70.1616 90.0582 70.1616C90.0582 70.1616 90.0582 70.1616 90.0582 70.1616C90.0582 70.1616 90.0582 70.1616 90.0582 70.1616C90.0582 70.1616 90.0582 70.1616 90.0582 70.1616H90.0582C90.0582 70.1616 90.0582 70.1616 90.0582 70.1616H90.0582C90.0582 70.1616 90.0582 70.1616 90.0582 70.1616H90.0582C90.0582 70.1616 90.0582 70.1616 90.0582 70.1616H90.0583C90.0583 70.1616 90.0583 70.1616 90.0583 70.1616C90.0583 70.1616 90.0583 70.1616 90.0583 70.1616C90.0583 70.1616 90.0583 70.1616 90.0583 70.1616C90.0583 70.1616 90.0583 70.1616 90.0583 70.1616C90.0583 70.1616 90.0583 70.1616 90.0583 70.1616C90.0583 70.1616 90.0583 70.1616 90.0583 70.1616H90.0583C90.0583 70.1616 90.0583 70.1616 90.0583 70.1616H90.0583C90.0583 70.1616 90.0583 70.1616 90.0583 70.1616H90.0583C90.0583 70.1616 90.0583 70.1616 90.0583 70.1616H90.0583C90.0583 70.1616 90.0583 70.1616 90.0584 70.1616C90.0584 70.1616 90.0584 70.1616 90.0584 70.1616C90.0584 70.1616 90.0584 70.1616 90.0584 70.1616C90.0584 70.1616 90.0584 70.1616 90.0584 70.1616C90.0584 70.1616 90.0584 70.1616 90.0584 70.1616C90.0584 70.1616 90.0584 70.1616 90.0584 70.1616H90.0584C90.0584 70.1616 90.0584 70.1616 90.0584 70.1616H90.0584C90.0584 70.1616 90.0584 70.1616 90.0584 70.1616H90.0584C90.0584 70.1616 90.0584 70.1616 90.0584 70.1616H90.0584C90.0584 70.1616 90.0584 70.1616 90.0585 70.1616C90.0585 70.1616 90.0585 70.1616 90.0585 70.1616C90.0585 70.1616 90.0585 70.1616 90.0585 70.1616C90.0585 70.1616 90.0585 70.1616 90.0585 70.1616C90.0585 70.1616 90.0585 70.1616 90.0585 70.1616C90.0585 70.1616 90.0585 70.1616 90.0585 70.1616H90.0585C90.0585 70.1616 90.0585 70.1616 90.0585 70.1616H90.0585C90.0585 70.1616 90.0585 70.1616 90.0585 70.1616H90.0585C90.0585 70.1616 90.0585 70.1616 90.0585 70.1616H90.0585C90.0585 70.1616 90.0585 70.1616 90.0586 70.1616C90.0586 70.1616 90.0586 70.1616 90.0586 70.1616V50.1616C90.0586 50.1616 90.0586 50.1616 90.0586 50.1616C90.0585 50.1616 90.0585 50.1616 90.0585 50.1616H90.0585C90.0585 50.1616 90.0585 50.1616 90.0585 50.1616H90.0585C90.0585 50.1616 90.0585 50.1616 90.0585 50.1616H90.0585C90.0585 50.1616 90.0585 50.1616 90.0585 50.1616H90.0585C90.0585 50.1616 90.0585 50.1616 90.0585 50.1616C90.0585 50.1616 90.0585 50.1616 90.0585 50.1616C90.0585 50.1616 90.0585 50.1616 90.0585 50.1616C90.0585 50.1616 90.0585 50.1616 90.0585 50.1616C90.0585 50.1616 90.0585 50.1616 90.0585 50.1616C90.0584 50.1616 90.0584 50.1616 90.0584 50.1616H90.0584C90.0584 50.1616 90.0584 50.1616 90.0584 50.1616H90.0584C90.0584 50.1616 90.0584 50.1616 90.0584 50.1616H90.0584C90.0584 50.1616 90.0584 50.1616 90.0584 50.1616H90.0584C90.0584 50.1616 90.0584 50.1616 90.0584 50.1616C90.0584 50.1616 90.0584 50.1616 90.0584 50.1616C90.0584 50.1616 90.0584 50.1616 90.0584 50.1616C90.0584 50.1616 90.0584 50.1616 90.0584 50.1616C90.0584 50.1616 90.0584 50.1616 90.0584 50.1616C90.0583 50.1616 90.0583 50.1616 90.0583 50.1616H90.0583C90.0583 50.1616 90.0583 50.1616 90.0583 50.1616H90.0583C90.0583 50.1616 90.0583 50.1616 90.0583 50.1616H90.0583C90.0583 50.1616 90.0583 50.1616 90.0583 50.1616H90.0583C90.0583 50.1616 90.0583 50.1616 90.0583 50.1616C90.0583 50.1616 90.0583 50.1616 90.0583 50.1616C90.0583 50.1616 90.0583 50.1616 90.0583 50.1616C90.0583 50.1616 90.0583 50.1616 90.0583 50.1616C90.0583 50.1616 90.0583 50.1616 90.0583 50.1616C90.0583 50.1616 90.0583 50.1616 90.0583 50.1616H90.0582C90.0582 50.1616 90.0582 50.1616 90.0582 50.1616H90.0582C90.0582 50.1616 90.0582 50.1616 90.0582 50.1616H90.0582C90.0582 50.1616 90.0582 50.1616 90.0582 50.1616H90.0582C90.0582 50.1616 90.0582 50.1616 90.0582 50.1616C90.0582 50.1616 90.0582 50.1616 90.0582 50.1616C90.0582 50.1616 90.0582 50.1616 90.0582 50.1616C90.0582 50.1616 90.0582 50.1616 90.0582 50.1616C90.0582 50.1616 90.0582 50.1616 90.0582 50.1616C90.0582 50.1616 90.0582 50.1616 90.0582 50.1616H90.0581C90.0581 50.1616 90.0581 50.1616 90.0581 50.1616H90.0581C90.0581 50.1616 90.0581 50.1616 90.0581 50.1616H90.0581C90.0581 50.1616 90.0581 50.1616 90.0581 50.1616H90.0581C90.0581 50.1616 90.0581 50.1616 90.0581 50.1616C90.0581 50.1616 90.0581 50.1616 90.0581 50.1616C90.0581 50.1616 90.0581 50.1616 90.0581 50.1616C90.0581 50.1616 90.0581 50.1616 90.0581 50.1616C90.0581 50.1616 90.0581 50.1616 90.0581 50.1616C90.0581 50.1616 90.0581 50.1616 90.0581 50.1616H90.058C90.058 50.1616 90.058 50.1616 90.058 50.1616H90.058C90.058 50.1616 90.058 50.1616 90.058 50.1616H90.058C90.058 50.1616 90.058 50.1616 90.058 50.1616H90.058C90.058 50.1616 90.058 50.1616 90.058 50.1616C90.058 50.1616 90.058 50.1616 90.058 50.1616C90.058 50.1616 90.058 50.1616 90.058 50.1616C90.058 50.1616 90.058 50.1616 90.058 50.1616C90.058 50.1616 90.058 50.1616 90.058 50.1616C90.058 50.1616 90.058 50.1616 90.058 50.1616H90.0579C90.0579 50.1616 90.0579 50.1616 90.0579 50.1616H90.0579C90.0579 50.1616 90.0579 50.1616 90.0579 50.1616H90.0579C90.0579 50.1616 90.0579 50.1616 90.0579 50.1616H90.0579C90.0579 50.1616 90.0579 50.1616 90.0579 50.1616C90.0579 50.1616 90.0579 50.1616 90.0579 50.1616C90.0579 50.1616 90.0579 50.1616 90.0579 50.1616C90.0579 50.1616 90.0579 50.1616 90.0579 50.1616C90.0579 50.1616 90.0579 50.1616 90.0579 50.1616C90.0579 50.1616 90.0579 50.1616 90.0579 50.1616H90.0578C90.0578 50.1616 90.0578 50.1616 90.0578 50.1616H90.0578C90.0578 50.1616 90.0578 50.1616 90.0578 50.1616H90.0578C90.0578 50.1616 90.0578 50.1616 90.0578 50.1616H90.0578C90.0578 50.1616 90.0578 50.1616 90.0578 50.1616H90.0578C90.0578 50.1616 90.0578 50.1616 90.0578 50.1616C90.0578 50.1616 90.0578 50.1616 90.0578 50.1616C90.0578 50.1616 90.0578 50.1616 90.0578 50.1616C90.0578 50.1616 90.0578 50.1616 90.0578 50.1616C90.0578 50.1616 90.0578 50.1616 90.0577 50.1616C90.0577 50.1616 90.0577 50.1616 90.0577 50.1616H90.0577C90.0577 50.1616 90.0577 50.1616 90.0577 50.1616H90.0577C90.0577 50.1616 90.0577 50.1616 90.0577 50.1616H90.0577C90.0577 50.1616 90.0577 50.1616 90.0577 50.1616H90.0577C90.0577 50.1616 90.0577 50.1616 90.0577 50.1616C90.0577 50.1616 90.0577 50.1616 90.0577 50.1616C90.0577 50.1616 90.0577 50.1616 90.0577 50.1616C90.0577 50.1616 90.0577 50.1616 90.0577 50.1616C90.0577 50.1616 90.0577 50.1616 90.0576 50.1616C90.0576 50.1616 90.0576 50.1616 90.0576 50.1616H90.0576C90.0576 50.1616 90.0576 50.1616 90.0576 50.1616H90.0576C90.0576 50.1616 90.0576 50.1616 90.0576 50.1616H90.0576C90.0576 50.1616 90.0576 50.1616 90.0576 50.1616H90.0576C90.0576 50.1616 90.0576 50.1616 90.0576 50.1616H90.0576C90.0576 50.1616 90.0576 50.1616 90.0576 50.1616C90.0576 50.1616 90.0576 50.1616 90.0576 50.1616C90.0576 50.1616 90.0576 50.1616 90.0575 50.1616C90.0575 50.1616 90.0575 50.1616 90.0575 50.1616C90.0575 50.1616 90.0575 50.1616 90.0575 50.1616C90.0575 50.1616 90.0575 50.1616 90.0575 50.1616H90.0575C90.0575 50.1616 90.0575 50.1616 90.0575 50.1616H90.0575C90.0575 50.1616 90.0575 50.1616 90.0575 50.1616H90.0575C90.0575 50.1616 90.0575 50.1616 90.0575 50.1616H90.0575C90.0575 50.1616 90.0575 50.1616 90.0575 50.1616C90.0575 50.1616 90.0575 50.1616 90.0575 50.1616C90.0575 50.1616 90.0575 50.1616 90.0574 50.1616C90.0574 50.1616 90.0574 50.1616 90.0574 50.1616C90.0574 50.1616 90.0574 50.1616 90.0574 50.1616C90.0574 50.1616 90.0574 50.1616 90.0574 50.1616H90.0574C90.0574 50.1616 90.0574 50.1616 90.0574 50.1616H90.0574C90.0574 50.1616 90.0574 50.1616 90.0574 50.1616H90.0574C90.0574 50.1616 90.0574 50.1616 90.0574 50.1616H90.0574C90.0574 50.1616 90.0574 50.1616 90.0574 50.1616H90.0574C90.0574 50.1616 90.0574 50.1616 90.0574 50.1616C90.0573 50.1616 90.0573 50.1616 90.0573 50.1616C90.0573 50.1616 90.0573 50.1616 90.0573 50.1616C90.0573 50.1616 90.0573 50.1616 90.0573 50.1616C90.0573 50.1616 90.0573 50.1616 90.0573 50.1616C90.0573 50.1616 90.0573 50.1616 90.0573 50.1616H90.0573C90.0573 50.1616 90.0573 50.1616 90.0573 50.1616H90.0573C90.0573 50.1616 90.0573 50.1616 90.0573 50.1616H90.0573C90.0573 50.1616 90.0573 50.1616 90.0573 50.1616H90.0573C90.0573 50.1616 90.0573 50.1616 90.0573 50.1616H90.0572C90.0572 50.1616 90.0572 50.1616 90.0572 50.1616C90.0572 50.1616 90.0572 50.1616 90.0572 50.1616C90.0572 50.1616 90.0572 50.1616 90.0572 50.1616C90.0572 50.1616 90.0572 50.1616 90.0572 50.1616H90.0572C90.0572 50.1616 90.0572 50.1616 90.0572 50.1616H90.0572C90.0572 50.1616 90.0572 50.1616 90.0572 50.1616H90.0572C90.0572 50.1616 90.0572 50.1616 90.0572 50.1616H90.0572C90.0572 50.1616 90.0572 50.1616 90.0572 50.1616H90.0571C90.0571 50.1616 90.0571 50.1616 90.0571 50.1616C90.0571 50.1616 90.0571 50.1616 90.0571 50.1616C90.0571 50.1616 90.0571 50.1616 90.0571 50.1616C90.0571 50.1616 90.0571 50.1616 90.0571 50.1616C90.0571 50.1616 90.0571 50.1616 90.0571 50.1616C90.0571 50.1616 90.0571 50.1616 90.0571 50.1616H90.0571C90.0571 50.1616 90.0571 50.1616 90.0571 50.1616H90.0571C90.0571 50.1616 90.0571 50.1616 90.0571 50.1616H90.0571C90.0571 50.1616 90.0571 50.1616 90.0571 50.1616H90.057C90.057 50.1616 90.057 50.1616 90.057 50.1616H90.057C90.057 50.1616 90.057 50.1616 90.057 50.1616C90.057 50.1616 90.057 50.1616 90.057 50.1616C90.057 50.1616 90.057 50.1616 90.057 50.1616C90.057 50.1616 90.057 50.1616 90.057 50.1616C90.057 50.1616 90.057 50.1616 90.057 50.1616C90.057 50.1616 90.057 50.1616 90.057 50.1616H90.057C90.057 50.1616 90.057 50.1616 90.057 50.1616H90.057C90.057 50.1616 90.057 50.1616 90.057 50.1616H90.0569C90.0569 50.1616 90.0569 50.1616 90.0569 50.1616H90.0569C90.0569 50.1616 90.0569 50.1616 90.0569 50.1616C90.0569 50.1616 90.0569 50.1616 90.0569 50.1616C90.0569 50.1616 90.0569 50.1616 90.0569 50.1616C90.0569 50.1616 90.0569 50.1616 90.0569 50.1616C90.0569 50.1616 90.0569 50.1616 90.0569 50.1616C90.0569 50.1616 90.0569 50.1616 90.0569 50.1616H90.0569C90.0569 50.1616 90.0569 50.1616 90.0569 50.1616H90.0569C90.0569 50.1616 90.0569 50.1616 90.0569 50.1616H90.0568C90.0568 50.1616 90.0568 50.1616 90.0568 50.1616H90.0568C90.0568 50.1616 90.0568 50.1616 90.0568 50.1616H90.0568C90.0568 50.1616 90.0568 50.1616 90.0568 50.1616C90.0568 50.1616 90.0568 50.1616 90.0568 50.1616C90.0568 50.1616 90.0568 50.1616 90.0568 50.1616C90.0568 50.1616 90.0568 50.1616 90.0568 50.1616C90.0568 50.1616 90.0568 50.1616 90.0568 50.1616C90.0568 50.1616 90.0568 50.1616 90.0568 50.1616H90.0568C90.0568 50.1616 90.0568 50.1616 90.0568 50.1616H90.0567C90.0567 50.1616 90.0567 50.1616 90.0567 50.1616H90.0567C90.0567 50.1616 90.0567 50.1616 90.0567 50.1616H90.0567C90.0567 50.1616 90.0567 50.1616 90.0567 50.1616C90.0567 50.1616 90.0567 50.1616 90.0567 50.1616C90.0567 50.1616 90.0567 50.1616 90.0567 50.1616C90.0567 50.1616 90.0567 50.1616 90.0567 50.1616C90.0567 50.1616 90.0567 50.1616 90.0567 50.1616C90.0567 50.1616 90.0567 50.1616 90.0567 50.1616H90.0567C90.0567 50.1616 90.0567 50.1616 90.0567 50.1616H90.0566C90.0566 50.1616 90.0566 50.1616 90.0566 50.1616H90.0566C90.0566 50.1616 90.0566 50.1616 90.0566 50.1616H90.0566C90.0566 50.1616 90.0566 50.1616 90.0566 50.1616H90.0566C90.0566 50.1616 90.0566 50.1616 90.0566 50.1616C90.0566 50.1616 90.0566 50.1616 90.0566 50.1616C90.0566 50.1616 90.0566 50.1616 90.0566 50.1616C90.0566 50.1616 90.0566 50.1616 90.0566 50.1616C90.0566 50.1616 90.0566 50.1616 90.0566 50.1616C90.0566 50.1616 90.0566 50.1616 90.0566 50.1616H90.0565C90.0565 50.1616 90.0565 50.1616 90.0565 50.1616H90.0565C90.0565 50.1616 90.0565 50.1616 90.0565 50.1616H90.0565C90.0565 50.1616 90.0565 50.1616 90.0565 50.1616H90.0565C90.0565 50.1616 90.0565 50.1616 90.0565 50.1616C90.0565 50.1616 90.0565 50.1616 90.0565 50.1616C90.0565 50.1616 90.0565 50.1616 90.0565 50.1616C90.0565 50.1616 90.0565 50.1616 90.0565 50.1616C90.0565 50.1616 90.0565 50.1616 90.0565 50.1616C90.0565 50.1616 90.0565 50.1616 90.0565 50.1616H90.0564C90.0564 50.1616 90.0564 50.1616 90.0564 50.1616H90.0564C90.0564 50.1616 90.0564 50.1616 90.0564 50.1616H90.0564C90.0564 50.1616 90.0564 50.1616 90.0564 50.1616H90.0564C90.0564 50.1616 90.0564 50.1616 90.0564 50.1616C90.0564 50.1616 90.0564 50.1616 90.0564 50.1616C90.0564 50.1616 90.0564 50.1616 90.0564 50.1616C90.0564 50.1616 90.0564 50.1616 90.0564 50.1616C90.0564 50.1616 90.0564 50.1616 90.0564 50.1616C90.0564 50.1616 90.0564 50.1616 90.0564 50.1616H90.0564C90.0563 50.1616 90.0563 50.1616 90.0563 50.1616H90.0563C90.0563 50.1616 90.0563 50.1616 90.0563 50.1616H90.0563C90.0563 50.1616 90.0563 50.1616 90.0563 50.1616H90.0563C90.0563 50.1616 90.0563 50.1616 90.0563 50.1616C90.0563 50.1616 90.0563 50.1616 90.0563 50.1616C90.0563 50.1616 90.0563 50.1616 90.0563 50.1616C90.0563 50.1616 90.0563 50.1616 90.0563 50.1616C90.0563 50.1616 90.0563 50.1616 90.0563 50.1616C90.0563 50.1616 90.0563 50.1616 90.0563 50.1616H90.0563C90.0562 50.1616 90.0562 50.1616 90.0562 50.1616H90.0562C90.0562 50.1616 90.0562 50.1616 90.0562 50.1616H90.0562C90.0562 50.1616 90.0562 50.1616 90.0562 50.1616H90.0562C90.0562 50.1616 90.0562 50.1616 90.0562 50.1616C90.0562 50.1616 90.0562 50.1616 90.0562 50.1616C90.0562 50.1616 90.0562 50.1616 90.0562 50.1616C90.0562 50.1616 90.0562 50.1616 90.0562 50.1616C90.0562 50.1616 90.0562 50.1616 90.0562 50.1616C90.0562 50.1616 90.0562 50.1616 90.0562 50.1616H90.0562C90.0561 50.1616 90.0561 50.1616 90.0561 50.1616H90.0561C90.0561 50.1616 90.0561 50.1616 90.0561 50.1616H90.0561C90.0561 50.1616 90.0561 50.1616 90.0561 50.1616H90.0561C90.0561 50.1616 90.0561 50.1616 90.0561 50.1616C90.0561 50.1616 90.0561 50.1616 90.0561 50.1616C90.0561 50.1616 90.0561 50.1616 90.0561 50.1616C90.0561 50.1616 90.0561 50.1616 90.0561 50.1616C90.0561 50.1616 90.0561 50.1616 90.0561 50.1616C90.0561 50.1616 90.0561 50.1616 90.0561 50.1616H90.0561C90.056 50.1616 90.056 50.1616 90.056 50.1616H90.056C90.056 50.1616 90.056 50.1616 90.056 50.1616H90.056C90.056 50.1616 90.056 50.1616 90.056 50.1616H90.056C90.056 50.1616 90.056 50.1616 90.056 50.1616C90.056 50.1616 90.056 50.1616 90.056 50.1616C90.056 50.1616 90.056 50.1616 90.056 50.1616C90.056 50.1616 90.056 50.1616 90.056 50.1616C90.056 50.1616 90.056 50.1616 90.056 50.1616C90.056 50.1616 90.056 50.1616 90.056 50.1616H90.056C90.0559 50.1616 90.0559 50.1616 90.0559 50.1616H90.0559C90.0559 50.1616 90.0559 50.1616 90.0559 50.1616H90.0559C90.0559 50.1616 90.0559 50.1616 90.0559 50.1616H90.0559C90.0559 50.1616 90.0559 50.1616 90.0559 50.1616C90.0559 50.1616 90.0559 50.1616 90.0559 50.1616V70.1616ZM50.1587 30.2644C50.1587 52.299 68.0213 70.1616 90.0559 70.1616V50.1616C79.067 50.1616 70.1587 41.2533 70.1587 30.2644H50.1587ZM90.0559 -9.63281C68.0213 -9.63281 50.1587 8.22977 50.1587 30.2644H70.1587C70.1587 19.2755 79.067 10.3672 90.0559 10.3672V-9.63281ZM90.0586 -9.63281C90.0586 -9.63281 90.0586 -9.63281 90.0586 -9.63281C90.0585 -9.63281 90.0585 -9.63281 90.0585 -9.63281H90.0585C90.0585 -9.63281 90.0585 -9.63281 90.0585 -9.63281H90.0585C90.0585 -9.63281 90.0585 -9.63281 90.0585 -9.63281H90.0585C90.0585 -9.63281 90.0585 -9.63281 90.0585 -9.63281H90.0585C90.0585 -9.63281 90.0585 -9.63281 90.0585 -9.63281C90.0585 -9.63281 90.0585 -9.63281 90.0585 -9.63281C90.0585 -9.63281 90.0585 -9.63281 90.0585 -9.63281C90.0585 -9.63281 90.0585 -9.63281 90.0585 -9.63281C90.0585 -9.63281 90.0585 -9.63281 90.0585 -9.63281C90.0584 -9.63281 90.0584 -9.63281 90.0584 -9.63281H90.0584C90.0584 -9.63281 90.0584 -9.63281 90.0584 -9.63281H90.0584C90.0584 -9.63281 90.0584 -9.63281 90.0584 -9.63281H90.0584C90.0584 -9.63281 90.0584 -9.63281 90.0584 -9.63281H90.0584C90.0584 -9.63281 90.0584 -9.63281 90.0584 -9.63281C90.0584 -9.63281 90.0584 -9.63281 90.0584 -9.63281C90.0584 -9.63281 90.0584 -9.63281 90.0584 -9.63281C90.0584 -9.63281 90.0584 -9.63281 90.0584 -9.63281C90.0584 -9.63281 90.0584 -9.63281 90.0584 -9.63281C90.0583 -9.63281 90.0583 -9.63281 90.0583 -9.63281H90.0583C90.0583 -9.63281 90.0583 -9.63281 90.0583 -9.63281H90.0583C90.0583 -9.63281 90.0583 -9.63281 90.0583 -9.63281H90.0583C90.0583 -9.63281 90.0583 -9.63281 90.0583 -9.63281H90.0583C90.0583 -9.63281 90.0583 -9.63281 90.0583 -9.63281C90.0583 -9.63281 90.0583 -9.63281 90.0583 -9.63281C90.0583 -9.63281 90.0583 -9.63281 90.0583 -9.63281C90.0583 -9.63281 90.0583 -9.63281 90.0583 -9.63281C90.0583 -9.63281 90.0583 -9.63281 90.0583 -9.63281C90.0583 -9.63281 90.0583 -9.63281 90.0583 -9.63281H90.0582C90.0582 -9.63281 90.0582 -9.63281 90.0582 -9.63281H90.0582C90.0582 -9.63281 90.0582 -9.63281 90.0582 -9.63281H90.0582C90.0582 -9.63281 90.0582 -9.63281 90.0582 -9.63281H90.0582C90.0582 -9.63281 90.0582 -9.63281 90.0582 -9.63281C90.0582 -9.63281 90.0582 -9.63281 90.0582 -9.63281C90.0582 -9.63281 90.0582 -9.63281 90.0582 -9.63281C90.0582 -9.63281 90.0582 -9.63281 90.0582 -9.63281C90.0582 -9.63281 90.0582 -9.63281 90.0582 -9.63281C90.0582 -9.63281 90.0582 -9.63281 90.0582 -9.63281H90.0581C90.0581 -9.63281 90.0581 -9.63281 90.0581 -9.63281H90.0581C90.0581 -9.63281 90.0581 -9.63281 90.0581 -9.63281H90.0581C90.0581 -9.63281 90.0581 -9.63281 90.0581 -9.63281H90.0581C90.0581 -9.63281 90.0581 -9.63281 90.0581 -9.63281C90.0581 -9.63281 90.0581 -9.63281 90.0581 -9.63281C90.0581 -9.63281 90.0581 -9.63281 90.0581 -9.63281C90.0581 -9.63281 90.0581 -9.63281 90.0581 -9.63281C90.0581 -9.63281 90.0581 -9.63281 90.0581 -9.63281C90.0581 -9.63281 90.0581 -9.63281 90.0581 -9.63281H90.058C90.058 -9.63281 90.058 -9.63281 90.058 -9.63281H90.058C90.058 -9.63281 90.058 -9.63281 90.058 -9.63281H90.058C90.058 -9.63281 90.058 -9.63281 90.058 -9.63281H90.058C90.058 -9.63281 90.058 -9.63281 90.058 -9.63281C90.058 -9.63281 90.058 -9.63281 90.058 -9.63281C90.058 -9.63281 90.058 -9.63281 90.058 -9.63281C90.058 -9.63281 90.058 -9.63281 90.058 -9.63281C90.058 -9.63281 90.058 -9.63281 90.058 -9.63281C90.058 -9.63281 90.058 -9.63281 90.058 -9.63281H90.0579C90.0579 -9.63281 90.0579 -9.63281 90.0579 -9.63281H90.0579C90.0579 -9.63281 90.0579 -9.63281 90.0579 -9.63281H90.0579C90.0579 -9.63281 90.0579 -9.63281 90.0579 -9.63281H90.0579C90.0579 -9.63281 90.0579 -9.63281 90.0579 -9.63281C90.0579 -9.63281 90.0579 -9.63281 90.0579 -9.63281C90.0579 -9.63281 90.0579 -9.63281 90.0579 -9.63281C90.0579 -9.63281 90.0579 -9.63281 90.0579 -9.63281C90.0579 -9.63281 90.0579 -9.63281 90.0579 -9.63281C90.0579 -9.63281 90.0579 -9.63281 90.0579 -9.63281H90.0578C90.0578 -9.63281 90.0578 -9.63281 90.0578 -9.63281H90.0578C90.0578 -9.63281 90.0578 -9.63281 90.0578 -9.63281H90.0578C90.0578 -9.63281 90.0578 -9.63281 90.0578 -9.63281H90.0578C90.0578 -9.63281 90.0578 -9.63281 90.0578 -9.63281H90.0578C90.0578 -9.63281 90.0578 -9.63281 90.0578 -9.63281C90.0578 -9.63281 90.0578 -9.63281 90.0578 -9.63281C90.0578 -9.63281 90.0578 -9.63281 90.0578 -9.63281C90.0578 -9.63281 90.0578 -9.63281 90.0578 -9.63281C90.0578 -9.63281 90.0578 -9.63281 90.0577 -9.63281C90.0577 -9.63281 90.0577 -9.63281 90.0577 -9.63281H90.0577C90.0577 -9.63281 90.0577 -9.63281 90.0577 -9.63281H90.0577C90.0577 -9.63281 90.0577 -9.63281 90.0577 -9.63281H90.0577C90.0577 -9.63281 90.0577 -9.63281 90.0577 -9.63281H90.0577C90.0577 -9.63281 90.0577 -9.63281 90.0577 -9.63281C90.0577 -9.63281 90.0577 -9.63281 90.0577 -9.63281C90.0577 -9.63281 90.0577 -9.63281 90.0577 -9.63281C90.0577 -9.63281 90.0577 -9.63281 90.0577 -9.63281C90.0577 -9.63281 90.0577 -9.63281 90.0576 -9.63281C90.0576 -9.63281 90.0576 -9.63281 90.0576 -9.63281H90.0576C90.0576 -9.63281 90.0576 -9.63281 90.0576 -9.63281H90.0576C90.0576 -9.63281 90.0576 -9.63281 90.0576 -9.63281H90.0576C90.0576 -9.63281 90.0576 -9.63281 90.0576 -9.63281H90.0576C90.0576 -9.63281 90.0576 -9.63281 90.0576 -9.63281H90.0576C90.0576 -9.63281 90.0576 -9.63281 90.0576 -9.63281C90.0576 -9.63281 90.0576 -9.63281 90.0576 -9.63281C90.0576 -9.63281 90.0576 -9.63281 90.0575 -9.63281C90.0575 -9.63281 90.0575 -9.63281 90.0575 -9.63281C90.0575 -9.63281 90.0575 -9.63281 90.0575 -9.63281C90.0575 -9.63281 90.0575 -9.63281 90.0575 -9.63281H90.0575C90.0575 -9.63281 90.0575 -9.63281 90.0575 -9.63281H90.0575C90.0575 -9.63281 90.0575 -9.63281 90.0575 -9.63281H90.0575C90.0575 -9.63281 90.0575 -9.63281 90.0575 -9.63281H90.0575C90.0575 -9.63281 90.0575 -9.63281 90.0575 -9.63281C90.0575 -9.63281 90.0575 -9.63281 90.0575 -9.63281C90.0575 -9.63281 90.0575 -9.63281 90.0574 -9.63281C90.0574 -9.63281 90.0574 -9.63281 90.0574 -9.63281C90.0574 -9.63281 90.0574 -9.63281 90.0574 -9.63281C90.0574 -9.63281 90.0574 -9.63281 90.0574 -9.63281H90.0574C90.0574 -9.63281 90.0574 -9.63281 90.0574 -9.63281H90.0574C90.0574 -9.63281 90.0574 -9.63281 90.0574 -9.63281H90.0574C90.0574 -9.63281 90.0574 -9.63281 90.0574 -9.63281H90.0574C90.0574 -9.63281 90.0574 -9.63281 90.0574 -9.63281H90.0574C90.0574 -9.63281 90.0574 -9.63281 90.0574 -9.63281C90.0573 -9.63281 90.0573 -9.63281 90.0573 -9.63281C90.0573 -9.63281 90.0573 -9.63281 90.0573 -9.63281C90.0573 -9.63281 90.0573 -9.63281 90.0573 -9.63281C90.0573 -9.63281 90.0573 -9.63281 90.0573 -9.63281C90.0573 -9.63281 90.0573 -9.63281 90.0573 -9.63281H90.0573C90.0573 -9.63281 90.0573 -9.63281 90.0573 -9.63281H90.0573C90.0573 -9.63281 90.0573 -9.63281 90.0573 -9.63281H90.0573C90.0573 -9.63281 90.0573 -9.63281 90.0573 -9.63281H90.0573C90.0573 -9.63281 90.0573 -9.63281 90.0573 -9.63281H90.0572C90.0572 -9.63281 90.0572 -9.63281 90.0572 -9.63281C90.0572 -9.63281 90.0572 -9.63281 90.0572 -9.63281C90.0572 -9.63281 90.0572 -9.63281 90.0572 -9.63281C90.0572 -9.63281 90.0572 -9.63281 90.0572 -9.63281H90.0572C90.0572 -9.63281 90.0572 -9.63281 90.0572 -9.63281H90.0572C90.0572 -9.63281 90.0572 -9.63281 90.0572 -9.63281H90.0572C90.0572 -9.63281 90.0572 -9.63281 90.0572 -9.63281H90.0572C90.0572 -9.63281 90.0572 -9.63281 90.0572 -9.63281H90.0571C90.0571 -9.63281 90.0571 -9.63281 90.0571 -9.63281C90.0571 -9.63281 90.0571 -9.63281 90.0571 -9.63281C90.0571 -9.63281 90.0571 -9.63281 90.0571 -9.63281C90.0571 -9.63281 90.0571 -9.63281 90.0571 -9.63281C90.0571 -9.63281 90.0571 -9.63281 90.0571 -9.63281C90.0571 -9.63281 90.0571 -9.63281 90.0571 -9.63281H90.0571C90.0571 -9.63281 90.0571 -9.63281 90.0571 -9.63281H90.0571C90.0571 -9.63281 90.0571 -9.63281 90.0571 -9.63281H90.0571C90.0571 -9.63281 90.0571 -9.63281 90.0571 -9.63281H90.057C90.057 -9.63281 90.057 -9.63281 90.057 -9.63281H90.057C90.057 -9.63281 90.057 -9.63281 90.057 -9.63281C90.057 -9.63281 90.057 -9.63281 90.057 -9.63281C90.057 -9.63281 90.057 -9.63281 90.057 -9.63281C90.057 -9.63281 90.057 -9.63281 90.057 -9.63281C90.057 -9.63281 90.057 -9.63281 90.057 -9.63281C90.057 -9.63281 90.057 -9.63281 90.057 -9.63281H90.057C90.057 -9.63281 90.057 -9.63281 90.057 -9.63281H90.057C90.057 -9.63281 90.057 -9.63281 90.057 -9.63281H90.0569C90.0569 -9.63281 90.0569 -9.63281 90.0569 -9.63281H90.0569C90.0569 -9.63281 90.0569 -9.63281 90.0569 -9.63281C90.0569 -9.63281 90.0569 -9.63281 90.0569 -9.63281C90.0569 -9.63281 90.0569 -9.63281 90.0569 -9.63281C90.0569 -9.63281 90.0569 -9.63281 90.0569 -9.63281C90.0569 -9.63281 90.0569 -9.63281 90.0569 -9.63281C90.0569 -9.63281 90.0569 -9.63281 90.0569 -9.63281H90.0569C90.0569 -9.63281 90.0569 -9.63281 90.0569 -9.63281H90.0569C90.0569 -9.63281 90.0569 -9.63281 90.0569 -9.63281H90.0568C90.0568 -9.63281 90.0568 -9.63281 90.0568 -9.63281H90.0568C90.0568 -9.63281 90.0568 -9.63281 90.0568 -9.63281H90.0568C90.0568 -9.63281 90.0568 -9.63281 90.0568 -9.63281C90.0568 -9.63281 90.0568 -9.63281 90.0568 -9.63281C90.0568 -9.63281 90.0568 -9.63281 90.0568 -9.63281C90.0568 -9.63281 90.0568 -9.63281 90.0568 -9.63281C90.0568 -9.63281 90.0568 -9.63281 90.0568 -9.63281C90.0568 -9.63281 90.0568 -9.63281 90.0568 -9.63281H90.0568C90.0568 -9.63281 90.0568 -9.63281 90.0568 -9.63281H90.0567C90.0567 -9.63281 90.0567 -9.63281 90.0567 -9.63281H90.0567C90.0567 -9.63281 90.0567 -9.63281 90.0567 -9.63281H90.0567C90.0567 -9.63281 90.0567 -9.63281 90.0567 -9.63281C90.0567 -9.63281 90.0567 -9.63281 90.0567 -9.63281C90.0567 -9.63281 90.0567 -9.63281 90.0567 -9.63281C90.0567 -9.63281 90.0567 -9.63281 90.0567 -9.63281C90.0567 -9.63281 90.0567 -9.63281 90.0567 -9.63281C90.0567 -9.63281 90.0567 -9.63281 90.0567 -9.63281H90.0567C90.0567 -9.63281 90.0567 -9.63281 90.0567 -9.63281H90.0566C90.0566 -9.63281 90.0566 -9.63281 90.0566 -9.63281H90.0566C90.0566 -9.63281 90.0566 -9.63281 90.0566 -9.63281H90.0566C90.0566 -9.63281 90.0566 -9.63281 90.0566 -9.63281H90.0566C90.0566 -9.63281 90.0566 -9.63281 90.0566 -9.63281C90.0566 -9.63281 90.0566 -9.63281 90.0566 -9.63281C90.0566 -9.63281 90.0566 -9.63281 90.0566 -9.63281C90.0566 -9.63281 90.0566 -9.63281 90.0566 -9.63281C90.0566 -9.63281 90.0566 -9.63281 90.0566 -9.63281C90.0566 -9.63281 90.0566 -9.63281 90.0566 -9.63281H90.0565C90.0565 -9.63281 90.0565 -9.63281 90.0565 -9.63281H90.0565C90.0565 -9.63281 90.0565 -9.63281 90.0565 -9.63281H90.0565C90.0565 -9.63281 90.0565 -9.63281 90.0565 -9.63281H90.0565C90.0565 -9.63281 90.0565 -9.63281 90.0565 -9.63281C90.0565 -9.63281 90.0565 -9.63281 90.0565 -9.63281C90.0565 -9.63281 90.0565 -9.63281 90.0565 -9.63281C90.0565 -9.63281 90.0565 -9.63281 90.0565 -9.63281C90.0565 -9.63281 90.0565 -9.63281 90.0565 -9.63281C90.0565 -9.63281 90.0565 -9.63281 90.0565 -9.63281H90.0564C90.0564 -9.63281 90.0564 -9.63281 90.0564 -9.63281H90.0564C90.0564 -9.63281 90.0564 -9.63281 90.0564 -9.63281H90.0564C90.0564 -9.63281 90.0564 -9.63281 90.0564 -9.63281H90.0564C90.0564 -9.63281 90.0564 -9.63281 90.0564 -9.63281C90.0564 -9.63281 90.0564 -9.63281 90.0564 -9.63281C90.0564 -9.63281 90.0564 -9.63281 90.0564 -9.63281C90.0564 -9.63281 90.0564 -9.63281 90.0564 -9.63281C90.0564 -9.63281 90.0564 -9.63281 90.0564 -9.63281C90.0564 -9.63281 90.0564 -9.63281 90.0564 -9.63281H90.0564C90.0563 -9.63281 90.0563 -9.63281 90.0563 -9.63281H90.0563C90.0563 -9.63281 90.0563 -9.63281 90.0563 -9.63281H90.0563C90.0563 -9.63281 90.0563 -9.63281 90.0563 -9.63281H90.0563C90.0563 -9.63281 90.0563 -9.63281 90.0563 -9.63281C90.0563 -9.63281 90.0563 -9.63281 90.0563 -9.63281C90.0563 -9.63281 90.0563 -9.63281 90.0563 -9.63281C90.0563 -9.63281 90.0563 -9.63281 90.0563 -9.63281C90.0563 -9.63281 90.0563 -9.63281 90.0563 -9.63281C90.0563 -9.63281 90.0563 -9.63281 90.0563 -9.63281H90.0563C90.0562 -9.63281 90.0562 -9.63281 90.0562 -9.63281H90.0562C90.0562 -9.63281 90.0562 -9.63281 90.0562 -9.63281H90.0562C90.0562 -9.63281 90.0562 -9.63281 90.0562 -9.63281H90.0562C90.0562 -9.63281 90.0562 -9.63281 90.0562 -9.63281C90.0562 -9.63281 90.0562 -9.63281 90.0562 -9.63281C90.0562 -9.63281 90.0562 -9.63281 90.0562 -9.63281C90.0562 -9.63281 90.0562 -9.63281 90.0562 -9.63281C90.0562 -9.63281 90.0562 -9.63281 90.0562 -9.63281C90.0562 -9.63281 90.0562 -9.63281 90.0562 -9.63281H90.0562C90.0561 -9.63281 90.0561 -9.63281 90.0561 -9.63281H90.0561C90.0561 -9.63281 90.0561 -9.63281 90.0561 -9.63281H90.0561C90.0561 -9.63281 90.0561 -9.63281 90.0561 -9.63281H90.0561C90.0561 -9.63281 90.0561 -9.63281 90.0561 -9.63281C90.0561 -9.63281 90.0561 -9.63281 90.0561 -9.63281C90.0561 -9.63281 90.0561 -9.63281 90.0561 -9.63281C90.0561 -9.63281 90.0561 -9.63281 90.0561 -9.63281C90.0561 -9.63281 90.0561 -9.63281 90.0561 -9.63281C90.0561 -9.63281 90.0561 -9.63281 90.0561 -9.63281H90.0561C90.056 -9.63281 90.056 -9.63281 90.056 -9.63281H90.056C90.056 -9.63281 90.056 -9.63281 90.056 -9.63281H90.056C90.056 -9.63281 90.056 -9.63281 90.056 -9.63281H90.056C90.056 -9.63281 90.056 -9.63281 90.056 -9.63281C90.056 -9.63281 90.056 -9.63281 90.056 -9.63281C90.056 -9.63281 90.056 -9.63281 90.056 -9.63281C90.056 -9.63281 90.056 -9.63281 90.056 -9.63281C90.056 -9.63281 90.056 -9.63281 90.056 -9.63281C90.056 -9.63281 90.056 -9.63281 90.056 -9.63281H90.056C90.0559 -9.63281 90.0559 -9.63281 90.0559 -9.63281H90.0559C90.0559 -9.63281 90.0559 -9.63281 90.0559 -9.63281H90.0559C90.0559 -9.63281 90.0559 -9.63281 90.0559 -9.63281H90.0559C90.0559 -9.63281 90.0559 -9.63281 90.0559 -9.63281C90.0559 -9.63281 90.0559 -9.63281 90.0559 -9.63281V10.3672C90.0559 10.3672 90.0559 10.3672 90.0559 10.3672C90.0559 10.3672 90.0559 10.3672 90.0559 10.3672H90.0559C90.0559 10.3672 90.0559 10.3672 90.0559 10.3672H90.0559C90.0559 10.3672 90.0559 10.3672 90.0559 10.3672H90.0559C90.0559 10.3672 90.0559 10.3672 90.056 10.3672H90.056C90.056 10.3672 90.056 10.3672 90.056 10.3672C90.056 10.3672 90.056 10.3672 90.056 10.3672C90.056 10.3672 90.056 10.3672 90.056 10.3672C90.056 10.3672 90.056 10.3672 90.056 10.3672C90.056 10.3672 90.056 10.3672 90.056 10.3672C90.056 10.3672 90.056 10.3672 90.056 10.3672H90.056C90.056 10.3672 90.056 10.3672 90.056 10.3672H90.056C90.056 10.3672 90.056 10.3672 90.056 10.3672H90.056C90.056 10.3672 90.056 10.3672 90.0561 10.3672H90.0561C90.0561 10.3672 90.0561 10.3672 90.0561 10.3672C90.0561 10.3672 90.0561 10.3672 90.0561 10.3672C90.0561 10.3672 90.0561 10.3672 90.0561 10.3672C90.0561 10.3672 90.0561 10.3672 90.0561 10.3672C90.0561 10.3672 90.0561 10.3672 90.0561 10.3672C90.0561 10.3672 90.0561 10.3672 90.0561 10.3672H90.0561C90.0561 10.3672 90.0561 10.3672 90.0561 10.3672H90.0561C90.0561 10.3672 90.0561 10.3672 90.0561 10.3672H90.0561C90.0561 10.3672 90.0561 10.3672 90.0562 10.3672H90.0562C90.0562 10.3672 90.0562 10.3672 90.0562 10.3672C90.0562 10.3672 90.0562 10.3672 90.0562 10.3672C90.0562 10.3672 90.0562 10.3672 90.0562 10.3672C90.0562 10.3672 90.0562 10.3672 90.0562 10.3672C90.0562 10.3672 90.0562 10.3672 90.0562 10.3672C90.0562 10.3672 90.0562 10.3672 90.0562 10.3672H90.0562C90.0562 10.3672 90.0562 10.3672 90.0562 10.3672H90.0562C90.0562 10.3672 90.0562 10.3672 90.0562 10.3672H90.0562C90.0562 10.3672 90.0562 10.3672 90.0563 10.3672H90.0563C90.0563 10.3672 90.0563 10.3672 90.0563 10.3672C90.0563 10.3672 90.0563 10.3672 90.0563 10.3672C90.0563 10.3672 90.0563 10.3672 90.0563 10.3672C90.0563 10.3672 90.0563 10.3672 90.0563 10.3672C90.0563 10.3672 90.0563 10.3672 90.0563 10.3672C90.0563 10.3672 90.0563 10.3672 90.0563 10.3672H90.0563C90.0563 10.3672 90.0563 10.3672 90.0563 10.3672H90.0563C90.0563 10.3672 90.0563 10.3672 90.0563 10.3672H90.0563C90.0563 10.3672 90.0563 10.3672 90.0564 10.3672H90.0564C90.0564 10.3672 90.0564 10.3672 90.0564 10.3672C90.0564 10.3672 90.0564 10.3672 90.0564 10.3672C90.0564 10.3672 90.0564 10.3672 90.0564 10.3672C90.0564 10.3672 90.0564 10.3672 90.0564 10.3672C90.0564 10.3672 90.0564 10.3672 90.0564 10.3672C90.0564 10.3672 90.0564 10.3672 90.0564 10.3672H90.0564C90.0564 10.3672 90.0564 10.3672 90.0564 10.3672H90.0564C90.0564 10.3672 90.0564 10.3672 90.0564 10.3672H90.0564C90.0564 10.3672 90.0564 10.3672 90.0564 10.3672H90.0565C90.0565 10.3672 90.0565 10.3672 90.0565 10.3672C90.0565 10.3672 90.0565 10.3672 90.0565 10.3672C90.0565 10.3672 90.0565 10.3672 90.0565 10.3672C90.0565 10.3672 90.0565 10.3672 90.0565 10.3672C90.0565 10.3672 90.0565 10.3672 90.0565 10.3672C90.0565 10.3672 90.0565 10.3672 90.0565 10.3672H90.0565C90.0565 10.3672 90.0565 10.3672 90.0565 10.3672H90.0565C90.0565 10.3672 90.0565 10.3672 90.0565 10.3672H90.0565C90.0565 10.3672 90.0565 10.3672 90.0565 10.3672H90.0566C90.0566 10.3672 90.0566 10.3672 90.0566 10.3672C90.0566 10.3672 90.0566 10.3672 90.0566 10.3672C90.0566 10.3672 90.0566 10.3672 90.0566 10.3672C90.0566 10.3672 90.0566 10.3672 90.0566 10.3672C90.0566 10.3672 90.0566 10.3672 90.0566 10.3672C90.0566 10.3672 90.0566 10.3672 90.0566 10.3672H90.0566C90.0566 10.3672 90.0566 10.3672 90.0566 10.3672H90.0566C90.0566 10.3672 90.0566 10.3672 90.0566 10.3672H90.0566C90.0566 10.3672 90.0566 10.3672 90.0566 10.3672H90.0567C90.0567 10.3672 90.0567 10.3672 90.0567 10.3672H90.0567C90.0567 10.3672 90.0567 10.3672 90.0567 10.3672C90.0567 10.3672 90.0567 10.3672 90.0567 10.3672C90.0567 10.3672 90.0567 10.3672 90.0567 10.3672C90.0567 10.3672 90.0567 10.3672 90.0567 10.3672C90.0567 10.3672 90.0567 10.3672 90.0567 10.3672C90.0567 10.3672 90.0567 10.3672 90.0567 10.3672H90.0567C90.0567 10.3672 90.0567 10.3672 90.0567 10.3672H90.0567C90.0567 10.3672 90.0567 10.3672 90.0567 10.3672H90.0568C90.0568 10.3672 90.0568 10.3672 90.0568 10.3672H90.0568C90.0568 10.3672 90.0568 10.3672 90.0568 10.3672C90.0568 10.3672 90.0568 10.3672 90.0568 10.3672C90.0568 10.3672 90.0568 10.3672 90.0568 10.3672C90.0568 10.3672 90.0568 10.3672 90.0568 10.3672C90.0568 10.3672 90.0568 10.3672 90.0568 10.3672C90.0568 10.3672 90.0568 10.3672 90.0568 10.3672H90.0568C90.0568 10.3672 90.0568 10.3672 90.0568 10.3672H90.0568C90.0568 10.3672 90.0568 10.3672 90.0568 10.3672H90.0569C90.0569 10.3672 90.0569 10.3672 90.0569 10.3672H90.0569C90.0569 10.3672 90.0569 10.3672 90.0569 10.3672H90.0569C90.0569 10.3672 90.0569 10.3672 90.0569 10.3672C90.0569 10.3672 90.0569 10.3672 90.0569 10.3672C90.0569 10.3672 90.0569 10.3672 90.0569 10.3672C90.0569 10.3672 90.0569 10.3672 90.0569 10.3672C90.0569 10.3672 90.0569 10.3672 90.0569 10.3672C90.0569 10.3672 90.0569 10.3672 90.0569 10.3672H90.0569C90.0569 10.3672 90.0569 10.3672 90.0569 10.3672H90.057C90.057 10.3672 90.057 10.3672 90.057 10.3672H90.057C90.057 10.3672 90.057 10.3672 90.057 10.3672H90.057C90.057 10.3672 90.057 10.3672 90.057 10.3672C90.057 10.3672 90.057 10.3672 90.057 10.3672C90.057 10.3672 90.057 10.3672 90.057 10.3672C90.057 10.3672 90.057 10.3672 90.057 10.3672C90.057 10.3672 90.057 10.3672 90.057 10.3672C90.057 10.3672 90.057 10.3672 90.057 10.3672H90.057C90.057 10.3672 90.057 10.3672 90.057 10.3672H90.0571C90.0571 10.3672 90.0571 10.3672 90.0571 10.3672H90.0571C90.0571 10.3672 90.0571 10.3672 90.0571 10.3672H90.0571C90.0571 10.3672 90.0571 10.3672 90.0571 10.3672H90.0571C90.0571 10.3672 90.0571 10.3672 90.0571 10.3672C90.0571 10.3672 90.0571 10.3672 90.0571 10.3672C90.0571 10.3672 90.0571 10.3672 90.0571 10.3672C90.0571 10.3672 90.0571 10.3672 90.0571 10.3672C90.0571 10.3672 90.0571 10.3672 90.0571 10.3672C90.0571 10.3672 90.0571 10.3672 90.0571 10.3672H90.0572C90.0572 10.3672 90.0572 10.3672 90.0572 10.3672H90.0572C90.0572 10.3672 90.0572 10.3672 90.0572 10.3672H90.0572C90.0572 10.3672 90.0572 10.3672 90.0572 10.3672H90.0572C90.0572 10.3672 90.0572 10.3672 90.0572 10.3672H90.0572C90.0572 10.3672 90.0572 10.3672 90.0572 10.3672C90.0572 10.3672 90.0572 10.3672 90.0572 10.3672C90.0572 10.3672 90.0572 10.3672 90.0572 10.3672C90.0572 10.3672 90.0572 10.3672 90.0572 10.3672H90.0573C90.0573 10.3672 90.0573 10.3672 90.0573 10.3672H90.0573C90.0573 10.3672 90.0573 10.3672 90.0573 10.3672H90.0573C90.0573 10.3672 90.0573 10.3672 90.0573 10.3672H90.0573C90.0573 10.3672 90.0573 10.3672 90.0573 10.3672H90.0573C90.0573 10.3672 90.0573 10.3672 90.0573 10.3672C90.0573 10.3672 90.0573 10.3672 90.0573 10.3672C90.0573 10.3672 90.0573 10.3672 90.0573 10.3672C90.0573 10.3672 90.0573 10.3672 90.0573 10.3672C90.0573 10.3672 90.0573 10.3672 90.0574 10.3672C90.0574 10.3672 90.0574 10.3672 90.0574 10.3672H90.0574C90.0574 10.3672 90.0574 10.3672 90.0574 10.3672H90.0574C90.0574 10.3672 90.0574 10.3672 90.0574 10.3672H90.0574C90.0574 10.3672 90.0574 10.3672 90.0574 10.3672H90.0574C90.0574 10.3672 90.0574 10.3672 90.0574 10.3672H90.0574C90.0574 10.3672 90.0574 10.3672 90.0574 10.3672C90.0574 10.3672 90.0574 10.3672 90.0574 10.3672C90.0574 10.3672 90.0574 10.3672 90.0574 10.3672C90.0575 10.3672 90.0575 10.3672 90.0575 10.3672C90.0575 10.3672 90.0575 10.3672 90.0575 10.3672C90.0575 10.3672 90.0575 10.3672 90.0575 10.3672H90.0575C90.0575 10.3672 90.0575 10.3672 90.0575 10.3672H90.0575C90.0575 10.3672 90.0575 10.3672 90.0575 10.3672H90.0575C90.0575 10.3672 90.0575 10.3672 90.0575 10.3672H90.0575C90.0575 10.3672 90.0575 10.3672 90.0575 10.3672C90.0575 10.3672 90.0575 10.3672 90.0575 10.3672C90.0575 10.3672 90.0575 10.3672 90.0575 10.3672C90.0576 10.3672 90.0576 10.3672 90.0576 10.3672C90.0576 10.3672 90.0576 10.3672 90.0576 10.3672C90.0576 10.3672 90.0576 10.3672 90.0576 10.3672H90.0576C90.0576 10.3672 90.0576 10.3672 90.0576 10.3672H90.0576C90.0576 10.3672 90.0576 10.3672 90.0576 10.3672H90.0576C90.0576 10.3672 90.0576 10.3672 90.0576 10.3672H90.0576C90.0576 10.3672 90.0576 10.3672 90.0576 10.3672H90.0576C90.0576 10.3672 90.0576 10.3672 90.0576 10.3672C90.0577 10.3672 90.0577 10.3672 90.0577 10.3672C90.0577 10.3672 90.0577 10.3672 90.0577 10.3672C90.0577 10.3672 90.0577 10.3672 90.0577 10.3672C90.0577 10.3672 90.0577 10.3672 90.0577 10.3672C90.0577 10.3672 90.0577 10.3672 90.0577 10.3672H90.0577C90.0577 10.3672 90.0577 10.3672 90.0577 10.3672H90.0577C90.0577 10.3672 90.0577 10.3672 90.0577 10.3672H90.0577C90.0577 10.3672 90.0577 10.3672 90.0577 10.3672H90.0577C90.0577 10.3672 90.0577 10.3672 90.0577 10.3672C90.0578 10.3672 90.0578 10.3672 90.0578 10.3672C90.0578 10.3672 90.0578 10.3672 90.0578 10.3672C90.0578 10.3672 90.0578 10.3672 90.0578 10.3672C90.0578 10.3672 90.0578 10.3672 90.0578 10.3672C90.0578 10.3672 90.0578 10.3672 90.0578 10.3672H90.0578C90.0578 10.3672 90.0578 10.3672 90.0578 10.3672H90.0578C90.0578 10.3672 90.0578 10.3672 90.0578 10.3672H90.0578C90.0578 10.3672 90.0578 10.3672 90.0578 10.3672H90.0578C90.0578 10.3672 90.0578 10.3672 90.0578 10.3672H90.0579C90.0579 10.3672 90.0579 10.3672 90.0579 10.3672C90.0579 10.3672 90.0579 10.3672 90.0579 10.3672C90.0579 10.3672 90.0579 10.3672 90.0579 10.3672C90.0579 10.3672 90.0579 10.3672 90.0579 10.3672C90.0579 10.3672 90.0579 10.3672 90.0579 10.3672C90.0579 10.3672 90.0579 10.3672 90.0579 10.3672H90.0579C90.0579 10.3672 90.0579 10.3672 90.0579 10.3672H90.0579C90.0579 10.3672 90.0579 10.3672 90.0579 10.3672H90.0579C90.0579 10.3672 90.0579 10.3672 90.0579 10.3672H90.058C90.058 10.3672 90.058 10.3672 90.058 10.3672C90.058 10.3672 90.058 10.3672 90.058 10.3672C90.058 10.3672 90.058 10.3672 90.058 10.3672C90.058 10.3672 90.058 10.3672 90.058 10.3672C90.058 10.3672 90.058 10.3672 90.058 10.3672C90.058 10.3672 90.058 10.3672 90.058 10.3672H90.058C90.058 10.3672 90.058 10.3672 90.058 10.3672H90.058C90.058 10.3672 90.058 10.3672 90.058 10.3672H90.058C90.058 10.3672 90.058 10.3672 90.058 10.3672H90.0581C90.0581 10.3672 90.0581 10.3672 90.0581 10.3672C90.0581 10.3672 90.0581 10.3672 90.0581 10.3672C90.0581 10.3672 90.0581 10.3672 90.0581 10.3672C90.0581 10.3672 90.0581 10.3672 90.0581 10.3672C90.0581 10.3672 90.0581 10.3672 90.0581 10.3672C90.0581 10.3672 90.0581 10.3672 90.0581 10.3672H90.0581C90.0581 10.3672 90.0581 10.3672 90.0581 10.3672H90.0581C90.0581 10.3672 90.0581 10.3672 90.0581 10.3672H90.0581C90.0581 10.3672 90.0581 10.3672 90.0581 10.3672H90.0582C90.0582 10.3672 90.0582 10.3672 90.0582 10.3672C90.0582 10.3672 90.0582 10.3672 90.0582 10.3672C90.0582 10.3672 90.0582 10.3672 90.0582 10.3672C90.0582 10.3672 90.0582 10.3672 90.0582 10.3672C90.0582 10.3672 90.0582 10.3672 90.0582 10.3672C90.0582 10.3672 90.0582 10.3672 90.0582 10.3672H90.0582C90.0582 10.3672 90.0582 10.3672 90.0582 10.3672H90.0582C90.0582 10.3672 90.0582 10.3672 90.0582 10.3672H90.0582C90.0582 10.3672 90.0582 10.3672 90.0582 10.3672H90.0583C90.0583 10.3672 90.0583 10.3672 90.0583 10.3672C90.0583 10.3672 90.0583 10.3672 90.0583 10.3672C90.0583 10.3672 90.0583 10.3672 90.0583 10.3672C90.0583 10.3672 90.0583 10.3672 90.0583 10.3672C90.0583 10.3672 90.0583 10.3672 90.0583 10.3672C90.0583 10.3672 90.0583 10.3672 90.0583 10.3672H90.0583C90.0583 10.3672 90.0583 10.3672 90.0583 10.3672H90.0583C90.0583 10.3672 90.0583 10.3672 90.0583 10.3672H90.0583C90.0583 10.3672 90.0583 10.3672 90.0583 10.3672H90.0583C90.0583 10.3672 90.0583 10.3672 90.0584 10.3672C90.0584 10.3672 90.0584 10.3672 90.0584 10.3672C90.0584 10.3672 90.0584 10.3672 90.0584 10.3672C90.0584 10.3672 90.0584 10.3672 90.0584 10.3672C90.0584 10.3672 90.0584 10.3672 90.0584 10.3672C90.0584 10.3672 90.0584 10.3672 90.0584 10.3672H90.0584C90.0584 10.3672 90.0584 10.3672 90.0584 10.3672H90.0584C90.0584 10.3672 90.0584 10.3672 90.0584 10.3672H90.0584C90.0584 10.3672 90.0584 10.3672 90.0584 10.3672H90.0584C90.0584 10.3672 90.0584 10.3672 90.0585 10.3672C90.0585 10.3672 90.0585 10.3672 90.0585 10.3672C90.0585 10.3672 90.0585 10.3672 90.0585 10.3672C90.0585 10.3672 90.0585 10.3672 90.0585 10.3672C90.0585 10.3672 90.0585 10.3672 90.0585 10.3672C90.0585 10.3672 90.0585 10.3672 90.0585 10.3672H90.0585C90.0585 10.3672 90.0585 10.3672 90.0585 10.3672H90.0585C90.0585 10.3672 90.0585 10.3672 90.0585 10.3672H90.0585C90.0585 10.3672 90.0585 10.3672 90.0585 10.3672H90.0585C90.0585 10.3672 90.0585 10.3672 90.0586 10.3672C90.0586 10.3672 90.0586 10.3672 90.0586 10.3672V-9.63281ZM50.1587 30.2663C50.1587 52.301 68.0213 70.1635 90.0559 70.1635V50.1635C79.067 50.1635 70.1587 41.2553 70.1587 30.2663H50.1587ZM50.1587 30.2656V30.2663H70.1587V30.2656H50.1587ZM60.1562 40.2656H60.1587V20.2656H60.1562V40.2656ZM70.1562 30.2663V30.2656H50.1562V30.2663H70.1562ZM30.5363 70.1626C52.4442 70.0127 70.1562 52.2084 70.1562 30.2663H50.1562C50.1562 41.2085 41.3229 50.0883 30.3995 50.1631L30.5363 70.1626ZM30.259 70.1621C30.3057 70.1621 30.3525 70.1623 30.3993 70.1626L30.5364 50.1631C30.4442 50.1624 30.3517 50.1621 30.259 50.1621V70.1621ZM10.3618 90.0593C10.3618 79.0704 19.2701 70.1621 30.259 70.1621V50.1621C8.2244 50.1621 -9.63818 68.0247 -9.63818 90.0593H10.3618ZM30.259 109.957C19.2701 109.957 10.3618 101.048 10.3618 90.0593H-9.63818C-9.63818 112.094 8.2244 129.957 30.259 129.957V109.957ZM50.1562 90.0597C50.156 101.048 41.2478 109.957 30.259 109.957V129.957C52.2934 129.957 70.1558 112.094 70.1562 90.0601L50.1562 90.0597ZM70.1562 90.06V90.0599H50.1562V90.06H70.1562ZM60.1587 80.06H60.1562V100.06H60.1587V80.06ZM90.0559 50.1641C68.0218 50.1641 50.1596 68.0257 50.1587 90.0596L70.1587 90.0604C70.1591 79.0719 79.0672 70.1641 90.0559 70.1641V50.1641ZM90.0561 50.1641H90.0559V70.1641H90.0561V50.1641ZM80.0561 60.1635V60.1641H100.056V60.1635H80.0561ZM90.0559 70.1635H90.0561V50.1635H90.0559V70.1635Z" fill="#C1F52F" mask="url(#path-1-inside-1)"/>
</svg>
