<svg width="227" height="100" viewBox="0 0 227 100" fill="none" xmlns="http://www.w3.org/2000/svg">
<path d="M4.998 5.2L8.89 15H8.106L6.972 12.144H2.128L0.994 15H0.21L4.102 5.2H4.998ZM4.55 6.054L2.408 11.416H6.678L4.55 6.054ZM11.646 15.21C10.9274 15.21 10.358 15.028 9.93803 14.664C9.52736 14.3 9.32203 13.8193 9.32203 13.222C9.32203 12.606 9.54136 12.1253 9.98003 11.78C10.4187 11.4253 10.9507 11.1967 11.576 11.094C12.2574 10.9913 13.1954 10.9307 14.39 10.912V10.198C14.39 9.53533 14.222 9.08267 13.886 8.84C13.55 8.588 13.0834 8.462 12.486 8.462C11.646 8.462 10.904 8.784 10.26 9.428L9.78403 8.924C10.5587 8.168 11.506 7.79 12.626 7.79C13.102 7.79 13.508 7.85533 13.844 7.986C14.18 8.11667 14.4274 8.266 14.586 8.434C14.754 8.59267 14.88 8.80733 14.964 9.078C15.0574 9.33933 15.1087 9.54 15.118 9.68C15.1274 9.82 15.132 9.99267 15.132 10.198V15H14.39V13.642C13.5687 14.6873 12.654 15.21 11.646 15.21ZM11.646 14.538C12.7007 14.538 13.6154 13.9453 14.39 12.76V11.584C13.27 11.5933 12.374 11.6493 11.702 11.752C11.5714 11.7707 11.4267 11.808 11.268 11.864C11.1187 11.9107 10.946 11.99 10.75 12.102C10.554 12.2047 10.3907 12.354 10.26 12.55C10.1294 12.746 10.064 12.97 10.064 13.222C10.064 13.698 10.2274 14.0387 10.554 14.244C10.89 14.44 11.254 14.538 11.646 14.538ZM21.5251 14.272H24.1571C24.9131 14.272 25.4824 14.0853 25.8651 13.712C26.2478 13.3293 26.4391 12.8067 26.4391 12.144C26.4391 11.4907 26.2431 10.968 25.8511 10.576C25.4684 10.184 24.9038 9.988 24.1571 9.988H21.5251V14.272ZM26.6911 5.2V5.928H21.5251V9.26H24.1291C25.0811 9.26 25.8464 9.53533 26.4251 10.086C27.0131 10.6273 27.3071 11.3133 27.3071 12.144C27.3071 12.9933 27.0318 13.684 26.4811 14.216C25.9304 14.7387 25.1464 15 24.1291 15H20.7411V5.2H26.6911ZM35.2816 5.522C34.8803 5.62467 34.4463 5.72267 33.9796 5.816C33.5223 5.90933 33.1396 5.984 32.8316 6.04C32.533 6.08667 32.211 6.152 31.8656 6.236C31.5203 6.31067 31.2403 6.39 31.0256 6.474C30.811 6.558 30.587 6.67 30.3536 6.81C30.1296 6.94067 29.9476 7.09933 29.8076 7.286C29.6676 7.46333 29.537 7.68733 29.4156 7.958C29.3036 8.21933 29.215 8.52733 29.1496 8.882C29.0936 9.23667 29.0563 9.64733 29.0376 10.114C29.299 9.42333 29.7283 8.89133 30.3256 8.518C30.923 8.14467 31.581 7.958 32.2996 7.958C33.261 7.958 34.0963 8.28 34.8056 8.924C35.515 9.55867 35.8696 10.4407 35.8696 11.57C35.8696 12.6153 35.5383 13.4833 34.8756 14.174C34.213 14.8647 33.3123 15.21 32.1736 15.21C30.9976 15.21 30.0783 14.832 29.4156 14.076C28.753 13.3107 28.4216 12.228 28.4216 10.828C28.4216 10.2493 28.445 9.736 28.4916 9.288C28.5383 8.84 28.599 8.448 28.6736 8.112C28.7483 7.76667 28.8556 7.46333 28.9956 7.202C29.145 6.94067 29.2943 6.72133 29.4436 6.544C29.6023 6.36667 29.803 6.21267 30.0456 6.082C30.2976 5.95133 30.5356 5.844 30.7596 5.76C30.993 5.676 31.287 5.592 31.6416 5.508C31.9963 5.424 32.3276 5.354 32.6356 5.298C32.953 5.242 33.3403 5.16267 33.7976 5.06C34.2643 4.95733 34.6983 4.85467 35.0996 4.752L35.2816 5.522ZM32.1736 14.58C33.0416 14.58 33.7463 14.2953 34.2876 13.726C34.829 13.1473 35.0996 12.4287 35.0996 11.57C35.0996 10.6273 34.8103 9.89467 34.2316 9.372C33.653 8.84 32.967 8.574 32.1736 8.574C31.3803 8.574 30.6943 8.84 30.1156 9.372C29.5463 9.89467 29.2616 10.6273 29.2616 11.57C29.2616 12.438 29.5276 13.1567 30.0596 13.726C30.5916 14.2953 31.2963 14.58 32.1736 14.58ZM47.3715 7.622C47.3715 8.098 47.2315 8.54133 46.9515 8.952C46.6808 9.35333 46.3262 9.66133 45.8875 9.876C46.4382 10.0813 46.8862 10.408 47.2315 10.856C47.5768 11.304 47.7495 11.808 47.7495 12.368C47.7495 13.1053 47.4742 13.7307 46.9235 14.244C46.3822 14.748 45.7008 15 44.8795 15H41.0575V5.2H44.6975C45.4628 5.2 46.0975 5.438 46.6015 5.914C47.1148 6.38067 47.3715 6.95 47.3715 7.622ZM41.8415 14.272H44.8935C45.4628 14.272 45.9482 14.0807 46.3495 13.698C46.7602 13.306 46.9655 12.83 46.9655 12.27C46.9655 11.71 46.7602 11.2387 46.3495 10.856C45.9482 10.464 45.4628 10.268 44.8935 10.268H41.8415V14.272ZM46.0135 8.994C46.3962 8.63 46.5875 8.20067 46.5875 7.706C46.5875 7.21133 46.3962 6.79133 46.0135 6.446C45.6402 6.10067 45.2015 5.928 44.6975 5.928H41.8415V9.54H44.6975C45.2015 9.54 45.6402 9.358 46.0135 8.994ZM54.8231 9.694C54.8231 10.002 54.7345 10.3007 54.5571 10.59C54.3891 10.8793 54.1605 11.1173 53.8711 11.304C54.2538 11.4533 54.5525 11.6867 54.7671 12.004C54.9911 12.3213 55.1031 12.6713 55.1031 13.054C55.1031 13.586 54.9165 14.0433 54.5431 14.426C54.1698 14.8087 53.6985 15 53.1291 15H49.5731V8H52.9611C53.4931 8 53.9365 8.16333 54.2911 8.49C54.6458 8.81667 54.8231 9.218 54.8231 9.694ZM50.3151 14.328H52.9191C53.3205 14.328 53.6518 14.2113 53.9131 13.978C54.1838 13.7447 54.3191 13.432 54.3191 13.04C54.3191 12.648 54.1838 12.326 53.9131 12.074C53.6518 11.822 53.3205 11.696 52.9191 11.696H50.3151V14.328ZM54.0811 9.778C54.0811 9.442 53.9551 9.176 53.7031 8.98C53.4511 8.77467 53.1431 8.672 52.7791 8.672H50.3151V11.024H52.7791C53.1338 11.024 53.4371 10.9073 53.6891 10.674C53.9505 10.4313 54.0811 10.1327 54.0811 9.778ZM66.5346 5.2V5.928H61.2146V15H60.4306V5.2H66.5346ZM70.3748 8V8.672H66.1608V15H65.4188V8H70.3748ZM74.9592 15V17.156H74.1752V14.272H75.0992C75.5565 13.432 75.9112 12.5033 76.1632 11.486C76.4245 10.4593 76.5552 9.148 76.5552 7.552V5.2H82.3232V14.272H83.5272V17.156H82.7432V15H74.9592ZM81.5392 14.272V5.928H77.3392V7.552C77.3392 9.19467 77.2132 10.5293 76.9612 11.556C76.7185 12.5733 76.3872 13.4787 75.9672 14.272H81.5392ZM84.8973 15V16.974H84.1553V14.328H84.9813C85.2706 13.8987 85.518 13.2593 85.7233 12.41C85.9286 11.5513 86.0313 10.6367 86.0313 9.666V8H90.7633V14.328H91.7853V16.974H91.0433V15H84.8973ZM90.0213 14.328V8.672H86.7593V9.666C86.7593 10.5993 86.6566 11.5093 86.4513 12.396C86.2553 13.2733 86.036 13.9173 85.7933 14.328H90.0213ZM103.291 14.272V15H96.9071V5.2H103.151V5.928H97.6911V9.54H102.731V10.268H97.6911V14.272H103.291ZM111.578 11.22V11.374H105.166C105.157 11.4487 105.152 11.5513 105.152 11.682C105.152 12.522 105.446 13.2033 106.034 13.726C106.631 14.2487 107.369 14.51 108.246 14.51C108.666 14.51 109.1 14.426 109.548 14.258C110.005 14.0807 110.379 13.8473 110.668 13.558L111.186 14.09C110.841 14.4353 110.397 14.7107 109.856 14.916C109.315 15.112 108.778 15.21 108.246 15.21C107.163 15.21 106.253 14.8833 105.516 14.23C104.779 13.5673 104.41 12.718 104.41 11.682C104.41 10.5993 104.755 9.68 105.446 8.924C106.137 8.168 106.986 7.79 107.994 7.79C109.142 7.79 110.024 8.13533 110.64 8.826C111.265 9.50733 111.578 10.3053 111.578 11.22ZM110.794 10.702C110.691 10.0767 110.397 9.554 109.912 9.134C109.436 8.70467 108.797 8.49 107.994 8.49C107.331 8.49 106.753 8.69533 106.258 9.106C105.773 9.50733 105.446 10.0393 105.278 10.702H110.794ZM123.17 14.272V15H116.786V5.2H123.03V5.928H117.57V9.54H122.61V10.268H117.57V14.272H123.17ZM120.986 4.234C120.874 4.122 120.818 3.982 120.818 3.814C120.818 3.646 120.874 3.506 120.986 3.394C121.098 3.27267 121.238 3.212 121.406 3.212C121.574 3.212 121.714 3.27267 121.826 3.394C121.947 3.506 122.008 3.646 122.008 3.814C122.008 3.982 121.947 4.122 121.826 4.234C121.714 4.346 121.574 4.402 121.406 4.402C121.238 4.402 121.098 4.346 120.986 4.234ZM118.27 4.234C118.158 4.122 118.102 3.982 118.102 3.814C118.102 3.646 118.158 3.506 118.27 3.394C118.382 3.27267 118.522 3.212 118.69 3.212C118.858 3.212 118.998 3.27267 119.11 3.394C119.231 3.506 119.292 3.646 119.292 3.814C119.292 3.982 119.231 4.122 119.11 4.234C118.998 4.346 118.858 4.402 118.69 4.402C118.522 4.402 118.382 4.346 118.27 4.234ZM131.457 11.22V11.374H125.045C125.035 11.4487 125.031 11.5513 125.031 11.682C125.031 12.522 125.325 13.2033 125.913 13.726C126.51 14.2487 127.247 14.51 128.125 14.51C128.545 14.51 128.979 14.426 129.427 14.258C129.884 14.0807 130.257 13.8473 130.547 13.558L131.065 14.09C130.719 14.4353 130.276 14.7107 129.735 14.916C129.193 15.112 128.657 15.21 128.125 15.21C127.042 15.21 126.132 14.8833 125.395 14.23C124.657 13.5673 124.289 12.718 124.289 11.682C124.289 10.5993 124.634 9.68 125.325 8.924C126.015 8.168 126.865 7.79 127.873 7.79C129.021 7.79 129.903 8.13533 130.519 8.826C131.144 9.50733 131.457 10.3053 131.457 11.22ZM130.673 10.702C130.57 10.0767 130.276 9.554 129.791 9.134C129.315 8.70467 128.675 8.49 127.873 8.49C127.21 8.49 126.631 8.69533 126.137 9.106C125.651 9.50733 125.325 10.0393 125.157 10.702H130.673ZM126.263 6.614C126.151 6.502 126.095 6.362 126.095 6.194C126.095 6.026 126.151 5.886 126.263 5.774C126.375 5.65267 126.515 5.592 126.683 5.592C126.851 5.592 126.991 5.65267 127.103 5.774C127.224 5.886 127.285 6.026 127.285 6.194C127.285 6.362 127.224 6.502 127.103 6.614C126.991 6.726 126.851 6.782 126.683 6.782C126.515 6.782 126.375 6.726 126.263 6.614ZM128.979 6.614C128.867 6.502 128.811 6.362 128.811 6.194C128.811 6.026 128.867 5.886 128.979 5.774C129.091 5.65267 129.231 5.592 129.399 5.592C129.567 5.592 129.707 5.65267 129.819 5.774C129.94 5.886 130.001 6.026 130.001 6.194C130.001 6.362 129.94 6.502 129.819 6.614C129.707 6.726 129.567 6.782 129.399 6.782C129.231 6.782 129.091 6.726 128.979 6.614ZM137.071 5.2L139.857 9.54H141.019V5.2H141.803V9.54H142.951L145.751 5.2H146.689L143.651 9.974L147.095 15H146.115L142.895 10.268H141.803V15H141.019V10.268H139.913L136.707 15H135.727L139.171 9.96L136.133 5.2H137.071ZM151.569 15V11.584H150.687L148.377 15H147.453L150.029 11.262L147.705 8H148.643L150.687 10.912H151.569V8H152.311V10.912H153.179L155.237 8H156.175L153.851 11.262L156.427 15H155.503L153.179 11.584H152.311V15H151.569ZM163.95 14.482C164.743 14.482 165.382 14.2813 165.868 13.88C166.353 13.4787 166.596 12.942 166.596 12.27C166.596 11.6073 166.376 11.108 165.938 10.772C165.499 10.436 164.972 10.268 164.356 10.268H162.872V9.54H164.356C164.85 9.54 165.308 9.35333 165.728 8.98C166.148 8.59733 166.358 8.13067 166.358 7.58C166.358 7.00133 166.138 6.54867 165.7 6.222C165.27 5.886 164.752 5.718 164.146 5.718C163.52 5.718 163.002 5.82067 162.592 6.026C162.19 6.222 161.784 6.53467 161.374 6.964L160.786 6.376C161.262 5.90933 161.752 5.564 162.256 5.34C162.769 5.10667 163.399 4.99 164.146 4.99C165.004 4.99 165.718 5.21867 166.288 5.676C166.857 6.13333 167.142 6.74 167.142 7.496C167.142 8.00933 166.988 8.48067 166.68 8.91C166.381 9.33933 165.942 9.65667 165.364 9.862C165.989 9.99267 166.479 10.2913 166.834 10.758C167.198 11.2247 167.38 11.7473 167.38 12.326C167.38 13.1473 167.048 13.8333 166.386 14.384C165.732 14.9347 164.92 15.21 163.95 15.21C163.203 15.21 162.559 15.0933 162.018 14.86C161.476 14.6267 160.972 14.2813 160.506 13.824L161.094 13.236C161.495 13.656 161.915 13.9687 162.354 14.174C162.792 14.3793 163.324 14.482 163.95 14.482ZM170.504 11.024H171.624C172.035 11.024 172.385 10.8933 172.674 10.632C172.973 10.3613 173.122 10.0487 173.122 9.694C173.122 8.89133 172.576 8.49 171.484 8.49C170.691 8.49 170.023 8.80733 169.482 9.442L168.964 8.91C169.608 8.16333 170.448 7.79 171.484 7.79C172.315 7.79 172.917 7.96733 173.29 8.322C173.673 8.66733 173.864 9.09667 173.864 9.61C173.864 9.96467 173.743 10.3007 173.5 10.618C173.267 10.9353 172.959 11.178 172.576 11.346C173.024 11.4953 173.374 11.7287 173.626 12.046C173.878 12.3633 174.004 12.718 174.004 13.11C174.004 13.698 173.78 14.1973 173.332 14.608C172.884 15.0093 172.198 15.21 171.274 15.21C170.219 15.21 169.319 14.8367 168.572 14.09L169.09 13.558C169.725 14.1927 170.453 14.51 171.274 14.51C172.571 14.51 173.22 14.0387 173.22 13.096C173.22 12.6947 173.075 12.3633 172.786 12.102C172.497 11.8313 172.123 11.696 171.666 11.696H170.504V11.024ZM185.859 15V6.516L180.119 15H179.335V5.2H180.119V13.698L185.859 5.2H186.643V15H185.859ZM189.714 8V14.02L194.264 8H195.048V15H194.306V8.994L189.77 15H188.972V8H189.714ZM202.534 3.268C203.141 3.55733 203.822 3.702 204.578 3.702C205.334 3.702 206.015 3.55733 206.622 3.268L206.986 3.954C206.277 4.27133 205.474 4.43 204.578 4.43C203.682 4.43 202.879 4.27133 202.17 3.954L202.534 3.268ZM207.392 15V6.516L201.652 15H200.868V5.2H201.652V13.698L207.392 5.2H208.176V15H207.392ZM211.723 5.718C212.273 5.97 212.88 6.096 213.543 6.096C214.205 6.096 214.812 5.97 215.363 5.718L215.685 6.32C215.059 6.60933 214.345 6.754 213.543 6.754C212.74 6.754 212.026 6.60933 211.401 6.32L211.723 5.718ZM211.247 8V14.02L215.797 8H216.581V15H215.839V8.994L211.303 15H210.505V8H211.247ZM7.532 35L2.212 29.904L7.238 25.2H8.246L3.234 29.904L8.61 35H7.532ZM1.204 35V25.2H1.988V35H1.204ZM14.6284 35L10.9324 31.304L14.4884 28H15.5664L11.8704 31.304L15.7064 35H14.6284ZM9.93836 28H10.6804V35H9.93836V28ZM19.431 35V34.272H19.809C20.5463 34.272 21.0783 33.8847 21.405 33.11C21.7317 32.326 21.895 30.9867 21.895 29.092V25.2H27.663V35H26.879V25.928H22.679V29.092C22.679 30.016 22.6277 30.8327 22.525 31.542C22.4223 32.242 22.2823 32.8067 22.105 33.236C21.937 33.6653 21.7223 34.0153 21.461 34.286C21.209 34.5567 20.9477 34.7433 20.677 34.846C20.4157 34.9487 20.1217 35 19.795 35H19.431ZM29.0013 35V34.328H29.4493C29.916 34.328 30.252 34.0713 30.4573 33.558C30.6627 33.0447 30.7653 32.1207 30.7653 30.786V28H35.7633V35H35.0213V28.672H31.5073V30.786C31.5073 33.5953 30.8213 35 29.4493 35H29.0013ZM42.3747 25.2L45.9027 30.618L49.4307 25.2H50.2147V35H49.4307V26.46L46.1127 31.542H45.6787L42.3747 26.46V35H41.5907V25.2H42.3747ZM56.0679 31.99L58.7979 28H59.5959V35H58.8539V29.204L56.2779 32.914H55.8439L53.2819 29.204V35H52.5399V28H53.3379L56.0679 31.99ZM71.8048 35V30.268H66.2048V35H65.4208V25.2H66.2048V29.54H71.8048V25.2H72.5888V35H71.8048ZM80.1991 31.71H75.6491V35H74.9071V28H75.6491V31.038H80.1991V28H80.9411V35H80.1991V31.71ZM94.5746 26.978C93.7626 26.138 92.6986 25.718 91.3826 25.718C90.0666 25.718 89.0026 26.138 88.1906 26.978C87.3786 27.8087 86.9726 28.8493 86.9726 30.1C86.9726 31.36 87.3786 32.4053 88.1906 33.236C89.0026 34.0667 90.0666 34.482 91.3826 34.482C92.6986 34.482 93.7626 34.0667 94.5746 33.236C95.3866 32.4053 95.7926 31.36 95.7926 30.1C95.7926 28.8493 95.3866 27.8087 94.5746 26.978ZM95.1626 33.768C94.2293 34.7293 92.9693 35.21 91.3826 35.21C89.7959 35.21 88.5313 34.7293 87.5886 33.768C86.6553 32.7973 86.1886 31.5747 86.1886 30.1C86.1886 28.6347 86.6553 27.4167 87.5886 26.446C88.5313 25.4753 89.7959 24.99 91.3826 24.99C92.9693 24.99 94.2293 25.4753 95.1626 26.446C96.1053 27.4167 96.5766 28.6347 96.5766 30.1C96.5766 31.5747 96.1053 32.7973 95.1626 33.768ZM101.533 34.622C102.41 34.622 103.143 34.3187 103.731 33.712C104.328 33.1053 104.627 32.368 104.627 31.5C104.627 30.6413 104.328 29.9087 103.731 29.302C103.143 28.686 102.41 28.378 101.533 28.378C100.646 28.378 99.909 28.686 99.321 29.302C98.733 29.9087 98.439 30.6413 98.439 31.5C98.439 32.368 98.733 33.1053 99.321 33.712C99.909 34.3187 100.646 34.622 101.533 34.622ZM104.305 34.146C103.596 34.8553 102.672 35.21 101.533 35.21C100.394 35.21 99.4704 34.8553 98.761 34.146C98.0517 33.4273 97.697 32.5453 97.697 31.5C97.697 30.4547 98.0517 29.5773 98.761 28.868C99.4704 28.1493 100.394 27.79 101.533 27.79C102.672 27.79 103.596 28.1493 104.305 28.868C105.014 29.5773 105.369 30.4547 105.369 31.5C105.369 32.5453 105.014 33.4273 104.305 34.146ZM116.949 35V25.928H111.349V35H110.565V25.2H117.733V35H116.949ZM125.386 28.672H120.794V35H120.052V28H126.128V35H125.386V28.672ZM136.232 30.94V35H135.448V25.2H138.836C139.853 25.2 140.633 25.466 141.174 25.998C141.725 26.5207 142 27.2067 142 28.056C142 28.896 141.711 29.5867 141.132 30.128C140.553 30.6693 139.788 30.94 138.836 30.94H136.232ZM138.864 25.928H136.232V30.212H138.864C139.62 30.212 140.199 30.016 140.6 29.624C141.011 29.232 141.216 28.7093 141.216 28.056C141.216 27.4027 141.011 26.8847 140.6 26.502C140.199 26.1193 139.62 25.928 138.864 25.928ZM146.791 35.21C145.755 35.21 144.873 34.8367 144.145 34.09V37.856H143.403V28H144.145V28.924C144.873 28.168 145.755 27.79 146.791 27.79C147.799 27.79 148.663 28.154 149.381 28.882C150.1 29.61 150.459 30.4827 150.459 31.5C150.459 32.5173 150.1 33.39 149.381 34.118C148.663 34.846 147.799 35.21 146.791 35.21ZM146.623 28.42C146.129 28.42 145.662 28.5367 145.223 28.77C144.794 28.994 144.435 29.2973 144.145 29.68V33.32C144.425 33.712 144.785 34.02 145.223 34.244C145.662 34.468 146.129 34.58 146.623 34.58C147.463 34.58 148.182 34.2813 148.779 33.684C149.386 33.0773 149.689 32.3493 149.689 31.5C149.689 30.66 149.386 29.9367 148.779 29.33C148.182 28.7233 147.463 28.42 146.623 28.42ZM160.275 34.482C161.563 34.482 162.609 34.0667 163.411 33.236L163.999 33.824C163.057 34.748 161.815 35.21 160.275 35.21C158.689 35.21 157.424 34.7293 156.481 33.768C155.548 32.7973 155.081 31.5747 155.081 30.1C155.081 28.6347 155.548 27.4167 156.481 26.446C157.424 25.4753 158.689 24.99 160.275 24.99C161.815 24.99 163.057 25.452 163.999 26.376L163.411 26.964C162.609 26.1333 161.563 25.718 160.275 25.718C158.959 25.718 157.905 26.1333 157.111 26.964C156.327 27.7947 155.935 28.84 155.935 30.1C155.935 31.36 156.327 32.4053 157.111 33.236C157.905 34.0667 158.959 34.482 160.275 34.482ZM166.311 29.358C165.779 29.9273 165.513 30.6413 165.513 31.5C165.513 32.3587 165.779 33.0773 166.311 33.656C166.853 34.2253 167.548 34.51 168.397 34.51C169.219 34.51 169.947 34.1927 170.581 33.558L171.099 34.09C170.353 34.8367 169.452 35.21 168.397 35.21C167.371 35.21 166.507 34.8367 165.807 34.09C165.117 33.3433 164.771 32.48 164.771 31.5C164.771 30.52 165.117 29.6567 165.807 28.91C166.507 28.1633 167.371 27.79 168.397 27.79C169.452 27.79 170.353 28.1633 171.099 28.91L170.581 29.442C169.947 28.8073 169.219 28.49 168.397 28.49C167.548 28.49 166.853 28.7793 166.311 29.358ZM182.614 25.2V25.928H179.422V35H178.638V25.928H175.446V25.2H182.614ZM187.215 28V28.672H184.583V35H183.841V28.672H181.209V28H187.215ZM194.249 35H193.353L194.557 32.536L191.001 25.2H191.911L194.991 31.654L198.169 25.2H199.023L194.249 35ZM205.568 28L201.396 37.856H200.57L201.774 34.986L198.806 28H199.66L202.18 34.02L204.742 28H205.568ZM5.166 55V53.95H4.746C3.47667 53.95 2.47333 53.5673 1.736 52.802C0.998667 52.0367 0.63 51.0707 0.63 49.904C0.63 48.7467 0.998667 47.7853 1.736 47.02C2.48267 46.2453 3.486 45.858 4.746 45.858H5.166V44.92H5.95V45.858H6.37C7.63 45.858 8.62867 46.2453 9.366 47.02C10.1127 47.7853 10.486 48.7467 10.486 49.904C10.486 51.0707 10.1173 52.0367 9.38 52.802C8.64267 53.5673 7.63933 53.95 6.37 53.95H5.95V55H5.166ZM6.37 53.166C7.39667 53.166 8.20867 52.858 8.806 52.242C9.40333 51.626 9.702 50.8467 9.702 49.904C9.702 48.9707 9.40333 48.196 8.806 47.58C8.20867 46.9547 7.39667 46.642 6.37 46.642H5.95V53.166H6.37ZM4.746 53.166H5.166V46.642H4.746C3.71933 46.642 2.90733 46.9547 2.31 47.58C1.71267 48.196 1.414 48.9707 1.414 49.904C1.414 50.8467 1.71267 51.626 2.31 52.242C2.90733 52.858 3.71933 53.166 4.746 53.166ZM16.8552 55.21H16.4352V57.856H15.6932V55.21H15.2732C14.2652 55.21 13.4019 54.846 12.6832 54.118C11.9646 53.39 11.6052 52.5173 11.6052 51.5C11.6052 50.4827 11.9646 49.61 12.6832 48.882C13.4019 48.154 14.2652 47.79 15.2732 47.79H15.6932V45.06H16.4352V47.79H16.8552C17.8632 47.79 18.7266 48.154 19.4452 48.882C20.1639 49.61 20.5232 50.4827 20.5232 51.5C20.5232 52.5173 20.1639 53.39 19.4452 54.118C18.7266 54.846 17.8632 55.21 16.8552 55.21ZM16.6872 54.58C17.5272 54.58 18.2459 54.2813 18.8432 53.684C19.4499 53.0773 19.7532 52.3493 19.7532 51.5C19.7532 50.66 19.4499 49.9367 18.8432 49.33C18.2459 48.7233 17.5272 48.42 16.6872 48.42H16.4352V54.58H16.6872ZM15.4412 48.42C14.6012 48.42 13.8779 48.7233 13.2712 49.33C12.6739 49.9367 12.3752 50.66 12.3752 51.5C12.3752 52.3493 12.6739 53.0773 13.2712 53.684C13.8779 54.2813 14.6012 54.58 15.4412 54.58H15.6932V48.42H15.4412ZM32.1017 55L28.9097 50.632L25.7177 55H24.7937L28.4477 50.002L24.9337 45.2H25.8577L28.9097 49.372L31.9617 45.2H32.8857L29.3717 50.002L33.0257 55H32.1017ZM39.2687 55L36.8607 52.074L34.4527 55H33.5147L36.3847 51.5L33.5147 48H34.4527L36.8607 50.926L39.2687 48H40.2067L37.3227 51.5L40.2067 55H39.2687ZM51.5021 54.272V45.2H52.2861V54.272H53.4901V57.156H52.7061V55H45.1181V45.2H45.9021V54.272H51.5021ZM55.7702 54.328H60.3622V48H61.1042V54.328H62.1262V56.974H61.3842V55H55.0282V48H55.7702V54.328ZM66.6378 48.056V45.2H67.4218V48.056C67.4218 48.9147 67.6551 49.5167 68.1218 49.862C68.5885 50.198 69.2278 50.366 70.0398 50.366C70.8051 50.366 71.6871 50.268 72.6858 50.072V45.2H73.4698V55H72.6858V50.8C71.5285 50.9867 70.6371 51.08 70.0118 51.08C69.0131 51.08 68.2011 50.842 67.5758 50.366C66.9505 49.89 66.6378 49.12 66.6378 48.056ZM75.1658 50.044V48H75.9078V50.044C75.9078 51.1453 76.5331 51.696 77.7838 51.696C78.4558 51.696 79.1791 51.626 79.9538 51.486V48H80.6958V55H79.9538V52.172C79.1138 52.3027 78.3811 52.368 77.7558 52.368C76.9438 52.368 76.3091 52.1767 75.8518 51.794C75.3944 51.4113 75.1658 50.828 75.1658 50.044ZM92.3405 54.272V45.2H93.1245V54.272H98.1645V45.2H98.9485V55H86.5165V45.2H87.3005V54.272H92.3405ZM102.008 54.328H105.48V48H106.222V54.328H109.694V48H110.436V55H101.266V48H102.008V54.328ZM116.267 55V45.2H117.051V54.272H122.091V45.2H122.875V54.272H127.915V45.2H128.699V54.272H129.903V57.156H129.119V55H116.267ZM132.182 54.328H135.654V48H136.396V54.328H139.868V48H140.61V54.328H141.632V56.974H140.89V55H131.44V48H132.182V54.328ZM149.877 45.2V49.26H152.481C153.433 49.26 154.198 49.5307 154.777 50.072C155.355 50.6133 155.645 51.304 155.645 52.144C155.645 52.9933 155.369 53.684 154.819 54.216C154.277 54.7387 153.498 55 152.481 55H149.093V45.914H145.901V45.2H149.877ZM149.877 54.272H152.509C153.265 54.272 153.843 54.0807 154.245 53.698C154.655 53.3153 154.861 52.7973 154.861 52.144C154.861 51.4907 154.655 50.968 154.245 50.576C153.843 50.184 153.265 49.988 152.509 49.988H149.877V54.272ZM156.411 48H159.505V50.716H161.941C162.641 50.716 163.187 50.9307 163.579 51.36C163.981 51.7893 164.181 52.2887 164.181 52.858C164.181 53.4273 163.981 53.9267 163.579 54.356C163.187 54.7853 162.641 55 161.941 55H158.763V48.672H156.411V48ZM159.505 54.328H161.955C162.366 54.328 162.711 54.1973 162.991 53.936C163.271 53.6653 163.411 53.306 163.411 52.858C163.411 52.41 163.271 52.0553 162.991 51.794C162.711 51.5233 162.366 51.388 161.955 51.388H159.505V54.328ZM170.166 54.272H172.798C173.554 54.272 174.132 54.0807 174.534 53.698C174.944 53.3153 175.15 52.7973 175.15 52.144C175.15 51.4907 174.944 50.968 174.534 50.576C174.132 50.184 173.554 49.988 172.798 49.988H170.166V54.272ZM170.166 45.2V49.26H172.77C173.722 49.26 174.487 49.5307 175.066 50.072C175.644 50.6133 175.934 51.304 175.934 52.144C175.934 52.9933 175.658 53.684 175.108 54.216C174.566 54.7387 173.787 55 172.77 55H169.382V45.2H170.166ZM177.222 55V45.2H178.006V55H177.222ZM181.073 50.716H183.509C184.209 50.716 184.755 50.9307 185.147 51.36C185.548 51.7893 185.749 52.2887 185.749 52.858C185.749 53.4273 185.548 53.9267 185.147 54.356C184.755 54.7853 184.209 55 183.509 55H180.331V48H181.073V50.716ZM181.073 54.328H183.523C183.934 54.328 184.279 54.1973 184.559 53.936C184.839 53.6653 184.979 53.306 184.979 52.858C184.979 52.41 184.839 52.0553 184.559 51.794C184.279 51.5233 183.934 51.388 183.523 51.388H181.073V54.328ZM186.813 55V48H187.555V55H186.813ZM194.16 54.272H196.792C197.548 54.272 198.127 54.0807 198.528 53.698C198.939 53.3153 199.144 52.7973 199.144 52.144C199.144 51.4907 198.939 50.968 198.528 50.576C198.127 50.184 197.548 49.988 196.792 49.988H194.16V54.272ZM194.16 45.2V49.26H196.764C197.716 49.26 198.481 49.5307 199.06 50.072C199.639 50.6133 199.928 51.304 199.928 52.144C199.928 52.9933 199.653 53.684 199.102 54.216C198.561 54.7387 197.781 55 196.764 55H193.376V45.2H194.16ZM202.346 50.716H204.922C205.622 50.716 206.168 50.9307 206.56 51.36C206.962 51.7893 207.162 52.2887 207.162 52.858C207.162 53.4273 206.962 53.9267 206.56 54.356C206.168 54.7853 205.622 55 204.922 55H201.604V48H202.346V50.716ZM202.346 54.328H204.936C205.347 54.328 205.692 54.1973 205.972 53.936C206.252 53.6653 206.392 53.306 206.392 52.858C206.392 52.41 206.252 52.0553 205.972 51.794C205.692 51.5233 205.347 51.388 204.936 51.388H202.346V54.328ZM4.074 74.482C5.35267 74.482 6.384 74.0853 7.168 73.292C7.952 72.4987 8.36733 71.4907 8.414 70.268H2.296V69.54H8.386C8.26467 68.42 7.81667 67.5053 7.042 66.796C6.26733 66.0773 5.278 65.718 4.074 65.718C2.786 65.718 1.74067 66.1333 0.938 66.964L0.35 66.376C1.29267 65.452 2.534 64.99 4.074 64.99C5.66067 64.99 6.92067 65.4753 7.854 66.446C8.79667 67.4167 9.268 68.6347 9.268 70.1C9.268 71.5747 8.79667 72.7973 7.854 73.768C6.92067 74.7293 5.66067 75.21 4.074 75.21C2.534 75.21 1.29267 74.748 0.35 73.824L0.938 73.236C1.74067 74.0667 2.786 74.482 4.074 74.482ZM11.9424 71.864V71.192H15.8904C15.8158 70.408 15.5124 69.764 14.9804 69.26C14.4578 68.7467 13.8044 68.49 13.0204 68.49C12.1991 68.49 11.4711 68.8073 10.8364 69.442L10.3184 68.91C11.0651 68.1633 11.9658 67.79 13.0204 67.79C14.0471 67.79 14.9058 68.1633 15.5964 68.91C16.2964 69.6567 16.6464 70.52 16.6464 71.5C16.6464 72.48 16.2964 73.3433 15.5964 74.09C14.9058 74.8367 14.0471 75.21 13.0204 75.21C11.9658 75.21 11.0651 74.8367 10.3184 74.09L10.8364 73.558C11.4711 74.1927 12.1991 74.51 13.0204 74.51C13.8044 74.51 14.4578 74.2627 14.9804 73.768C15.5031 73.2733 15.8018 72.6387 15.8764 71.864H11.9424ZM29.3949 75.21C27.8362 75.21 26.5902 74.748 25.6569 73.824C24.7329 72.8907 24.2475 71.7053 24.2009 70.268H22.6189V75H21.8349V65.2H22.6189V69.54H24.2289C24.3502 68.2053 24.8682 67.1133 25.7829 66.264C26.7069 65.4147 27.9109 64.99 29.3949 64.99C30.9815 64.99 32.2415 65.4753 33.1749 66.446C34.1175 67.4167 34.5889 68.6347 34.5889 70.1C34.5889 71.5747 34.1175 72.7973 33.1749 73.768C32.2415 74.7293 30.9815 75.21 29.3949 75.21ZM32.5869 66.978C31.7749 66.138 30.7109 65.718 29.3949 65.718C28.0789 65.718 27.0149 66.138 26.2029 66.978C25.3909 67.8087 24.9849 68.8493 24.9849 70.1C24.9849 71.36 25.3909 72.4053 26.2029 73.236C27.0149 74.0667 28.0789 74.482 29.3949 74.482C30.7109 74.482 31.7749 74.0667 32.5869 73.236C33.3989 72.4053 33.8049 71.36 33.8049 70.1C33.8049 68.8493 33.3989 67.8087 32.5869 66.978ZM42.2048 75.21C41.1034 75.21 40.2028 74.8787 39.5028 74.216C38.8028 73.544 38.4248 72.7133 38.3688 71.724H37.0808V75H36.3388V68H37.0808V71.052H38.3968C38.4994 70.1187 38.8961 69.344 39.5868 68.728C40.2774 68.1027 41.1501 67.79 42.2048 67.79C43.3434 67.79 44.2674 68.1493 44.9768 68.868C45.6861 69.5773 46.0408 70.4547 46.0408 71.5C46.0408 72.5453 45.6861 73.4273 44.9768 74.146C44.2674 74.8553 43.3434 75.21 42.2048 75.21ZM42.2048 74.622C43.0821 74.622 43.8148 74.3187 44.4028 73.712C45.0001 73.1053 45.2988 72.368 45.2988 71.5C45.2988 70.6413 45.0001 69.9087 44.4028 69.302C43.8148 68.686 43.0821 68.378 42.2048 68.378C41.3181 68.378 40.5808 68.686 39.9928 69.302C39.4048 69.9087 39.1108 70.6413 39.1108 71.5C39.1108 72.368 39.4048 73.1053 39.9928 73.712C40.5808 74.3187 41.3181 74.622 42.2048 74.622ZM56.5634 75V70.94H54.5334L51.5234 75H50.5154L53.5674 70.926C52.7181 70.8513 52.0414 70.548 51.5374 70.016C51.0427 69.484 50.7954 68.8307 50.7954 68.056C50.7954 67.2067 51.0661 66.5207 51.6074 65.998C52.1581 65.466 52.9421 65.2 53.9594 65.2H57.3474V75H56.5634ZM56.5634 65.928H53.9314C53.1754 65.928 52.5921 66.1193 52.1814 66.502C51.7801 66.8847 51.5794 67.4027 51.5794 68.056C51.5794 68.7093 51.7801 69.232 52.1814 69.624C52.5921 70.016 53.1754 70.212 53.9314 70.212H56.5634V65.928ZM63.541 72.284H61.903L59.985 75H59.033L61.021 72.284C60.405 72.228 59.9196 71.99 59.565 71.57C59.2103 71.15 59.033 70.674 59.033 70.142C59.033 69.582 59.229 69.0873 59.621 68.658C60.0223 68.2193 60.5636 68 61.245 68H64.283V75H63.541V72.284ZM63.541 68.672H61.231C60.8203 68.672 60.475 68.8073 60.195 69.078C59.915 69.3393 59.775 69.694 59.775 70.142C59.775 70.59 59.915 70.9493 60.195 71.22C60.475 71.4813 60.8203 71.612 61.231 71.612H63.541V68.672ZM7.028 94.272V95H0.924V94.272H3.584V86.138L1.358 87.398L0.994 86.754L3.99 85.06H4.368V94.272H7.028ZM9.26953 87.16L8.66753 86.684C9.0782 86.1333 9.48886 85.7133 9.89953 85.424C10.3195 85.1347 10.8562 84.99 11.5095 84.99C12.3309 84.99 12.9749 85.228 13.4415 85.704C13.9082 86.1707 14.1415 86.796 14.1415 87.58C14.1415 87.8133 14.1135 88.0467 14.0575 88.28C14.0109 88.5133 13.9549 88.728 13.8895 88.924C13.8242 89.1107 13.6982 89.344 13.5115 89.624C13.3342 89.904 13.1849 90.1373 13.0635 90.324C12.9422 90.5013 12.7275 90.7767 12.4195 91.15C12.1115 91.514 11.8642 91.8033 11.6775 92.018C11.5002 92.2233 11.1875 92.578 10.7395 93.082C10.3009 93.586 9.95553 93.9827 9.70353 94.272H14.2395V95H8.56953V94.51C8.87753 94.1553 9.26486 93.7167 9.73153 93.194C10.2075 92.662 10.5529 92.2747 10.7675 92.032C10.9822 91.7893 11.2482 91.4813 11.5655 91.108C11.8829 90.7347 12.1115 90.4547 12.2515 90.268C12.3915 90.072 12.5502 89.8387 12.7275 89.568C12.9049 89.288 13.0262 89.0547 13.0915 88.868C13.1662 88.6813 13.2269 88.476 13.2735 88.252C13.3295 88.028 13.3575 87.804 13.3575 87.58C13.3575 87.0293 13.1895 86.5813 12.8535 86.236C12.5175 85.8907 12.0695 85.718 11.5095 85.718C11.0335 85.718 10.6275 85.83 10.2915 86.054C9.96486 86.278 9.6242 86.6467 9.26953 87.16ZM18.6931 94.482C19.4491 94.482 20.0324 94.2673 20.4431 93.838C20.8537 93.3993 21.0591 92.83 21.0591 92.13C21.0591 91.542 20.8724 91.0753 20.4991 90.73C20.1257 90.3847 19.6917 90.212 19.1971 90.212C18.9077 90.212 18.5624 90.2773 18.1611 90.408L17.9791 89.736L18.6091 89.568C19.1971 89.4093 19.6964 89.1293 20.1071 88.728C20.5177 88.3173 20.7231 87.8413 20.7231 87.3C20.7231 86.8147 20.5784 86.432 20.2891 86.152C19.9997 85.8627 19.5797 85.718 19.0291 85.718C18.5437 85.718 18.1377 85.8347 17.8111 86.068C17.4937 86.292 17.1531 86.656 16.7891 87.16L16.1871 86.684C16.9524 85.5547 17.8904 84.99 19.0011 84.99C19.7664 84.99 20.3731 85.2 20.8211 85.62C21.2784 86.04 21.5071 86.572 21.5071 87.216C21.5071 87.7293 21.3624 88.2053 21.0731 88.644C20.7931 89.0733 20.3684 89.414 19.7991 89.666C20.4244 89.778 20.9191 90.072 21.2831 90.548C21.6564 91.0147 21.8431 91.5373 21.8431 92.116C21.8431 92.9747 21.5537 93.7073 20.9751 94.314C20.3964 94.9113 19.6357 95.21 18.6931 95.21C18.0397 95.21 17.5217 95.098 17.1391 94.874C16.7657 94.65 16.3644 94.2907 15.9351 93.796L16.5371 93.236C16.8917 93.684 17.2277 94.006 17.5451 94.202C17.8717 94.3887 18.2544 94.482 18.6931 94.482ZM28.1866 95H27.4026V92.2H22.9926L22.8946 91.598L27.8086 85.06H28.1866V91.472H29.9646V92.2H28.1866V95ZM27.4026 86.754L23.8606 91.472H27.4026V86.754ZM32.4301 85.928L32.0241 89.12C32.5935 88.7747 33.2608 88.602 34.0261 88.602C34.9408 88.602 35.6455 88.896 36.1401 89.484C36.6348 90.072 36.8821 90.8327 36.8821 91.766C36.8821 92.718 36.6021 93.53 36.0421 94.202C35.4915 94.874 34.7215 95.21 33.7321 95.21C33.0788 95.21 32.5608 95.098 32.1781 94.874C31.8048 94.65 31.4035 94.2907 30.9741 93.796L31.5761 93.236C31.9308 93.684 32.2668 94.006 32.5841 94.202C32.9108 94.3887 33.2935 94.482 33.7321 94.482C34.5348 94.482 35.1275 94.2347 35.5101 93.74C35.9021 93.236 36.0981 92.5827 36.0981 91.78C36.0981 90.9867 35.9021 90.38 35.5101 89.96C35.1275 89.54 34.6281 89.33 34.0121 89.33C33.0415 89.33 32.3181 89.5867 31.8421 90.1L31.2541 89.82L31.8281 85.2H36.6581V85.928H32.4301ZM41.6157 85.718C40.8503 85.718 40.253 86.0213 39.8237 86.628C39.4037 87.2347 39.1937 88.266 39.1937 89.722C39.651 88.882 40.463 88.462 41.6297 88.462C41.947 88.462 42.2503 88.5227 42.5397 88.644C42.8383 88.756 43.1183 88.9333 43.3797 89.176C43.6503 89.4093 43.865 89.75 44.0237 90.198C44.1823 90.6367 44.2617 91.15 44.2617 91.738C44.2617 92.8207 43.963 93.67 43.3657 94.286C42.7777 94.902 42.1057 95.21 41.3497 95.21C40.323 95.21 39.581 94.8553 39.1237 94.146C38.6663 93.4367 38.4377 92.1813 38.4377 90.38C38.4377 89.2973 38.517 88.3873 38.6757 87.65C38.8437 86.9127 39.0817 86.3573 39.3897 85.984C39.6977 85.6107 40.029 85.354 40.3837 85.214C40.7383 85.0647 41.1537 84.99 41.6297 84.99C42.1057 84.99 42.5163 85.0647 42.8617 85.214C43.207 85.3633 43.585 85.6433 43.9957 86.054L43.5057 86.642C42.955 86.026 42.325 85.718 41.6157 85.718ZM39.2357 91.738C39.2357 92.6247 39.4363 93.306 39.8377 93.782C40.2483 94.2487 40.7477 94.482 41.3357 94.482C41.905 94.482 42.4043 94.2533 42.8337 93.796C43.2723 93.3387 43.4917 92.6527 43.4917 91.738C43.4917 90.8513 43.3003 90.2073 42.9177 89.806C42.5443 89.3953 42.1197 89.19 41.6437 89.19C41.401 89.19 41.1583 89.2227 40.9157 89.288C40.673 89.3533 40.4163 89.47 40.1457 89.638C39.875 89.7967 39.6557 90.058 39.4877 90.422C39.3197 90.786 39.2357 91.2247 39.2357 91.738ZM52.0752 85.69L48.2252 95H47.4412L51.2072 85.928H45.9852V85.2H52.0752V85.69ZM58.9927 87.482C58.9927 88.0513 58.8387 88.5133 58.5307 88.868C58.2227 89.2227 57.7887 89.54 57.2287 89.82C57.8821 90.128 58.3907 90.4733 58.7547 90.856C59.1187 91.2387 59.3007 91.7567 59.3007 92.41C59.3007 93.25 59.0394 93.9267 58.5167 94.44C57.9941 94.9533 57.2847 95.21 56.3887 95.21C55.4927 95.21 54.7834 94.9533 54.2607 94.44C53.7381 93.9267 53.4767 93.25 53.4767 92.41C53.4767 91.7567 53.6541 91.2387 54.0087 90.856C54.3727 90.4733 54.8814 90.128 55.5347 89.82C54.9841 89.54 54.5547 89.2227 54.2467 88.868C53.9387 88.5133 53.7847 88.0513 53.7847 87.482C53.7847 86.726 54.0227 86.124 54.4987 85.676C54.9841 85.2187 55.6141 84.99 56.3887 84.99C57.1634 84.99 57.7887 85.2187 58.2647 85.676C58.7501 86.124 58.9927 86.726 58.9927 87.482ZM58.5167 92.41C58.5167 92.1207 58.4607 91.864 58.3487 91.64C58.2461 91.4067 58.0781 91.2013 57.8447 91.024C57.6114 90.8467 57.3967 90.7067 57.2007 90.604C57.0047 90.5013 56.7341 90.3707 56.3887 90.212C56.0434 90.3707 55.7727 90.5013 55.5767 90.604C55.3807 90.7067 55.1661 90.8467 54.9327 91.024C54.6994 91.2013 54.5267 91.4067 54.4147 91.64C54.3121 91.864 54.2607 92.1207 54.2607 92.41C54.2607 93.026 54.4474 93.5253 54.8207 93.908C55.2034 94.2907 55.7261 94.482 56.3887 94.482C57.0701 94.482 57.5927 94.2953 57.9567 93.922C58.3301 93.5393 58.5167 93.0353 58.5167 92.41ZM54.5687 87.482C54.5687 87.9487 54.7227 88.3267 55.0307 88.616C55.3387 88.896 55.7914 89.1713 56.3887 89.442C56.9861 89.162 57.4387 88.882 57.7467 88.602C58.0547 88.322 58.2087 87.9487 58.2087 87.482C58.2087 86.9033 58.0361 86.4647 57.6907 86.166C57.3454 85.8673 56.9114 85.718 56.3887 85.718C55.8661 85.718 55.4321 85.8673 55.0867 86.166C54.7414 86.4647 54.5687 86.9033 54.5687 87.482ZM63.6423 94.482C64.4076 94.482 65.0003 94.1787 65.4203 93.572C65.8496 92.9653 66.0643 91.934 66.0643 90.478C65.6069 91.318 64.7949 91.738 63.6283 91.738C63.3016 91.738 62.9936 91.6867 62.7043 91.584C62.4149 91.4813 62.1349 91.3227 61.8643 91.108C61.6029 90.884 61.3929 90.5573 61.2343 90.128C61.0756 89.6987 60.9963 89.19 60.9963 88.602C60.9963 87.4727 61.3043 86.5907 61.9203 85.956C62.5363 85.312 63.1989 84.99 63.9083 84.99C64.9163 84.99 65.6536 85.3727 66.1203 86.138C66.5869 86.9033 66.8203 88.1307 66.8203 89.82C66.8203 90.9027 66.7363 91.8127 66.5683 92.55C66.4096 93.2873 66.1763 93.8427 65.8683 94.216C65.5603 94.5893 65.2289 94.8507 64.8743 95C64.5196 95.14 64.1043 95.21 63.6283 95.21C63.1523 95.21 62.7416 95.1353 62.3963 94.986C62.0509 94.8367 61.6729 94.5567 61.2623 94.146L61.7523 93.558C62.3029 94.174 62.9329 94.482 63.6423 94.482ZM66.0223 88.602C66.0223 87.6127 65.8076 86.8847 65.3783 86.418C64.9583 85.9513 64.4729 85.718 63.9223 85.718C63.3529 85.718 62.8489 85.956 62.4103 86.432C61.9809 86.8987 61.7663 87.622 61.7663 88.602C61.7663 89.4793 61.9483 90.1 62.3123 90.464C62.6856 90.828 63.1196 91.01 63.6143 91.01C63.8103 91.01 63.9969 91.0007 64.1743 90.982C64.3609 90.954 64.5709 90.8933 64.8043 90.8C65.0469 90.6973 65.2523 90.5667 65.4203 90.408C65.5883 90.24 65.7283 90.002 65.8403 89.694C65.9616 89.386 66.0223 89.022 66.0223 88.602ZM71.4278 84.99C73.3784 84.99 74.3538 86.6933 74.3538 90.1C74.3538 93.5067 73.3784 95.21 71.4278 95.21C71.1104 95.21 70.8164 95.1633 70.5458 95.07C70.2844 94.986 70.0231 94.8273 69.7618 94.594C69.5098 94.3513 69.2951 94.0433 69.1178 93.67C68.9404 93.2873 68.7958 92.7927 68.6838 92.186C68.5718 91.5793 68.5158 90.884 68.5158 90.1C68.5158 89.316 68.5718 88.6207 68.6838 88.014C68.7958 87.4073 68.9404 86.9173 69.1178 86.544C69.2951 86.1613 69.5098 85.8533 69.7618 85.62C70.0231 85.3773 70.2844 85.214 70.5458 85.13C70.8164 85.0367 71.1104 84.99 71.4278 84.99ZM69.4538 87.902C69.3511 88.4993 69.2998 89.232 69.2998 90.1C69.2998 90.968 69.3511 91.7007 69.4538 92.298C69.5658 92.8953 69.7198 93.348 69.9158 93.656C70.1211 93.964 70.3404 94.1787 70.5738 94.3C70.8164 94.4213 71.0964 94.482 71.4138 94.482C72.8511 94.482 73.5698 93.0213 73.5698 90.1C73.5698 87.1787 72.8511 85.718 71.4138 85.718C71.0964 85.718 70.8164 85.7787 70.5738 85.9C70.3404 86.0213 70.1211 86.236 69.9158 86.544C69.7198 86.852 69.5658 87.3047 69.4538 87.902Z" fill="#F5F6FF"/>
</svg>
