<svg width="331" height="166" viewBox="0 0 331 166" fill="none" xmlns="http://www.w3.org/2000/svg">
<path d="M138.85 24.2432H130.895C129.81 24.2432 128.927 25.1346 128.927 26.2264C128.927 27.2487 128.082 28.2543 126.917 28.2543C125.832 28.2543 124.95 29.1458 124.95 30.2372V46.637C124.95 47.7284 125.832 48.6202 126.917 48.6202C128.002 48.6202 128.885 47.7284 128.885 46.637V30.2217C128.885 29.2783 129.558 28.1938 130.895 28.1938H138.85C139.936 28.1938 140.818 27.3023 140.818 26.2108C140.818 25.1338 139.935 24.2432 138.85 24.2432Z" fill="#313134"/>
<path fill-rule="evenodd" clip-rule="evenodd" d="M128.867 26.2264C128.867 25.1017 129.776 24.1826 130.895 24.1826H138.85C139.968 24.1826 140.878 25.1005 140.878 26.2109C140.878 27.3353 139.969 28.2544 138.85 28.2544H130.895C129.6 28.2544 128.946 29.303 128.946 30.2217V46.637C128.946 47.7614 128.036 48.6808 126.917 48.6808C125.798 48.6808 124.889 47.7614 124.889 46.637V30.2373C124.889 29.1128 125.798 28.1937 126.917 28.1937C128.045 28.1937 128.867 27.2188 128.867 26.2264ZM130.895 24.3038C129.844 24.3038 128.988 25.1677 128.988 26.2264C128.988 27.2787 128.119 28.3149 126.917 28.3149C125.866 28.3149 125.01 29.1788 125.01 30.2373V46.637C125.01 47.6955 125.866 48.5596 126.917 48.5596C127.968 48.5596 128.824 47.6955 128.824 46.637V30.2217C128.824 29.2536 129.517 28.1332 130.895 28.1332H138.85C139.902 28.1332 140.757 27.2694 140.757 26.2109C140.757 25.1671 139.901 24.3038 138.85 24.3038H130.895Z" fill="#313134"/>
<path d="M165.452 42.237V42.2393C165.467 43.2778 164.614 44.2987 163.439 44.2987H147.38C146.438 44.2987 145.351 43.6197 145.351 42.2682V30.2197V30.2194V30.2191V30.2188V30.2185V30.2182V30.2179V30.2177V30.2174V30.2171V30.2168V30.2165V30.2162V30.2159V30.2156V30.2153V30.2151V30.2148V30.2145V30.2142V30.2139V30.2136V30.2133V30.213V30.2127V30.2125V30.2122V30.2119V30.2116V30.2113V30.211V30.2107V30.2104V30.2101V30.2099V30.2096V30.2093V30.209V30.2087V30.2084V30.2081V30.2078V30.2075V30.2073V30.207V30.2067V30.2064V30.2061V30.2058V30.2055V30.2052V30.2049V30.2047V30.2044C145.351 29.2603 146.03 28.1739 147.38 28.1739H163.423C164.445 28.1739 165.452 29.0264 165.452 30.2044V42.237ZM167.453 28.2496C166.51 28.2496 165.424 27.5706 165.424 26.2191C165.424 25.1255 164.533 24.2334 163.439 24.2334H147.38C146.286 24.2334 145.395 25.1255 145.395 26.2191C145.395 27.2423 144.542 28.2496 143.366 28.2496C142.272 28.2496 141.381 29.1416 141.381 30.2353V42.2682C141.381 43.3618 142.272 44.2539 143.366 44.2539C144.388 44.2539 145.395 45.1064 145.395 46.2844C145.395 47.3783 146.286 48.2698 147.38 48.2698H163.423C164.518 48.2698 165.409 47.3783 165.409 46.2844C165.409 45.3403 166.088 44.2539 167.438 44.2539C168.532 44.2539 169.423 43.3618 169.423 42.2682V30.2197C169.423 29.126 168.548 28.2496 167.453 28.2496Z" fill="#313134"/>
<path fill-rule="evenodd" clip-rule="evenodd" d="M145.335 26.2201C145.335 25.093 146.253 24.1738 147.38 24.1738H163.439C164.566 24.1738 165.485 25.093 165.485 26.2201C165.485 27.5305 166.536 28.19 167.453 28.19C168.581 28.19 169.484 29.0936 169.484 30.2207V42.2692C169.484 43.3963 168.566 44.3155 167.438 44.3155C166.129 44.3155 165.469 45.3665 165.469 46.2854C165.469 47.4128 164.551 48.3314 163.423 48.3314H147.38C146.253 48.3314 145.335 47.4128 145.335 46.2854C145.335 45.1438 144.357 44.3155 143.366 44.3155C142.238 44.3155 141.32 43.3963 141.32 42.2692V30.2363C141.32 29.1092 142.238 28.19 143.366 28.19C144.506 28.19 145.335 27.2129 145.335 26.2201ZM147.38 24.295C146.32 24.295 145.456 25.1599 145.456 26.2201C145.456 27.2737 144.579 28.3112 143.366 28.3112C142.305 28.3112 141.441 29.1761 141.441 30.2363V42.2692C141.441 43.3294 142.305 44.1943 143.366 44.1943C144.418 44.1943 145.456 45.071 145.456 46.2854C145.456 47.3458 146.32 48.2102 147.38 48.2102H163.423C164.484 48.2102 165.348 47.3458 165.348 46.2854C165.348 45.3161 166.047 44.1943 167.438 44.1943C168.499 44.1943 169.363 43.3294 169.363 42.2692V30.2207C169.363 29.1605 168.514 28.3112 167.453 28.3112C166.485 28.3112 165.364 27.6128 165.364 26.2201C165.364 25.1599 164.5 24.295 163.439 24.295H147.38ZM147.38 28.2355C146.071 28.2355 145.412 29.2865 145.412 30.2054V42.2692C145.412 43.5796 146.463 44.2391 147.38 44.2391H163.439C164.577 44.2391 165.406 43.2492 165.392 42.2412L165.392 42.2403V30.2054C165.392 29.0638 164.415 28.2355 163.423 28.2355H147.38ZM145.291 30.2054C145.291 29.2362 145.989 28.1143 147.38 28.1143H163.423C164.476 28.1143 165.513 28.991 165.513 30.2054V42.24C165.528 43.3087 164.651 44.3603 163.439 44.3603H147.38C146.413 44.3603 145.291 43.6619 145.291 42.2692V30.2054Z" fill="#313134"/>
<path d="M118.91 28.2496C117.975 28.2496 116.898 27.5706 116.898 26.2191C116.898 25.1255 116.015 24.2334 114.929 24.2334H99.0215C97.9368 24.2334 97.0529 25.1255 97.0529 26.2191C97.0529 27.2423 96.2074 28.2496 95.0407 28.2496C93.9556 28.2496 93.072 29.1416 93.072 30.2353V42.2682C93.072 43.3618 93.9556 44.2539 95.0407 44.2539C96.054 44.2539 97.0529 45.1064 97.0529 46.2844C97.0529 47.3783 97.9368 48.2698 99.0215 48.2698H114.929C116.015 48.2698 116.898 47.3783 116.898 46.2844C116.898 45.3403 117.572 44.2539 118.91 44.2539C119.995 44.2539 120.879 43.3618 120.879 42.2682V30.2197C120.879 29.1243 119.994 28.2496 118.91 28.2496ZM114.929 44.2987H99.0215C98.0866 44.2987 97.0093 43.6197 97.0093 42.2682V30.2197V30.2194V30.2191V30.2188V30.2185V30.2182V30.2179V30.2177V30.2174V30.2171V30.2168V30.2165V30.2162V30.2159V30.2156V30.2153V30.2151V30.2148V30.2145V30.2142V30.2139V30.2136V30.2133V30.213V30.2127V30.2125V30.2122V30.2119V30.2116V30.2113V30.211V30.2107V30.2104V30.2101V30.2099V30.2096V30.2093V30.209V30.2087V30.2084V30.2081V30.2078V30.2075V30.2073V30.207V30.2067V30.2064V30.2061V30.2058V30.2055V30.2052V30.2049V30.2047V30.2044C97.0093 29.2603 97.6829 28.1739 99.0215 28.1739H114.929C115.943 28.1739 116.942 29.0264 116.942 30.2044V42.237C116.942 43.2778 116.094 44.2987 114.929 44.2987Z" fill="#313134"/>
<path fill-rule="evenodd" clip-rule="evenodd" d="M96.9923 26.2201C96.9923 25.0935 97.9028 24.1738 99.0215 24.1738H114.929C116.049 24.1738 116.958 25.0935 116.958 26.2201C116.958 27.5309 118.001 28.19 118.91 28.19C120.027 28.19 120.939 29.0917 120.939 30.2207V42.2692C120.939 43.3958 120.029 44.3155 118.91 44.3155C117.613 44.3155 116.958 45.366 116.958 46.2854C116.958 47.4123 116.049 48.3314 114.929 48.3314H99.0215C97.9028 48.3314 96.9923 47.4123 96.9923 46.2854C96.9923 45.1433 96.023 44.3155 95.0406 44.3155C93.9217 44.3155 93.0114 43.3958 93.0114 42.2692V30.2363C93.0114 29.1097 93.9217 28.19 95.0406 28.19C96.1705 28.19 96.9923 27.2134 96.9923 26.2201ZM99.0215 24.295C97.9708 24.295 97.1135 25.1594 97.1135 26.2201C97.1135 27.2732 96.2443 28.3112 95.0406 28.3112C93.9896 28.3112 93.1326 29.1756 93.1326 30.2363V42.2692C93.1326 43.3299 93.9896 44.1943 95.0406 44.1943C96.0849 44.1943 97.1135 45.0715 97.1135 46.2854C97.1135 47.3463 97.9707 48.2102 99.0215 48.2102H114.929C115.981 48.2102 116.837 47.3463 116.837 46.2854C116.837 45.3166 117.53 44.1943 118.91 44.1943C119.961 44.1943 120.818 43.3299 120.818 42.2692V30.2207C120.818 29.159 119.96 28.3112 118.91 28.3112C117.95 28.3112 116.837 27.6123 116.837 26.2201C116.837 25.1594 115.981 24.295 114.929 24.295H99.0215ZM99.0215 28.2355C97.7245 28.2355 97.0699 29.286 97.0699 30.2054V42.2692C97.0699 43.58 98.1123 44.2391 99.0215 44.2391H114.929C116.057 44.2391 116.881 43.2497 116.881 42.238V30.2054C116.881 29.0633 115.912 28.2355 114.929 28.2355H99.0215ZM96.9487 30.2054C96.9487 29.2367 97.6413 28.1143 99.0215 28.1143H114.929C115.974 28.1143 117.002 28.9915 117.002 30.2054V42.238C117.002 43.3079 116.132 44.3603 114.929 44.3603H99.0215C98.0608 44.3603 96.9487 43.6614 96.9487 42.2692V30.2054Z" fill="#313134"/>
<path d="M213.49 22.0299V21.8723H213.469C213.389 20.8441 212.532 20.0301 211.49 20.0301C210.549 20.0301 209.463 19.3468 209.463 17.9868C209.463 16.8856 208.573 15.9873 207.478 15.9873H179.426C178.332 15.9873 177.442 16.8856 177.442 17.9868C177.442 19.0165 176.59 20.0301 175.414 20.0301C174.321 20.0301 173.43 20.9284 173.43 22.0299V42.2289C173.43 43.3303 174.321 44.2287 175.414 44.2287C176.435 44.2287 177.442 45.0864 177.442 46.272C177.442 47.3731 178.332 48.2715 179.426 48.2715H207.494C208.588 48.2715 209.479 47.3731 209.479 46.272V46.2714V46.2708V46.2702V46.2696V46.269V46.2685V46.2679V46.2673V46.2667V46.2661V46.2655V46.265V46.2644V46.2638V46.2632V46.2626V46.262V46.2615V46.2609V46.2603V46.2597V46.2591V46.2585V46.2579V46.2574V46.2568V46.2562C209.479 45.3062 210.157 44.2129 211.506 44.2129H212.234C212.925 44.2129 213.49 43.6426 213.49 42.9469V41.4952V41.4946V41.494V41.4934V41.4928V41.4922V41.4917V41.4911V41.4905V41.4899V41.4893V41.4887V41.4882V41.4876V41.487V41.4864V41.4858V41.4852V41.4847V41.4841V41.4835V41.4829V41.4823V41.4817V41.4812V41.4806V41.48V41.4794V41.4788V41.4782V41.4776V41.4771V41.4765V41.4759V41.4753V41.4747V41.4742V41.4736V41.473V41.4724V41.4718V41.4712V41.4706V41.4701V41.4695V41.4689V41.4683V41.4677V41.4671V41.4666V41.466V41.4654V41.4648V41.4642V41.4636V41.4631V41.4625V41.4619V41.4613V41.4607V41.4601V41.4596V41.459V41.4584V41.4578V41.4572V41.4566V41.4561V41.4555V41.4549V41.4543V41.4537V41.4531V41.4526V41.452V41.4514V41.4508V41.4502V41.4496V41.4491V41.4485V41.4479V41.4473V41.4467V41.4461V41.4455V41.445V41.4444V41.4438V41.4432V41.4426V41.442V41.4415V41.4409V41.4403V41.4397V41.4391V41.4385V41.438V41.4374V41.4368V41.4362V41.4356V41.435V41.4345V41.4339V41.4333V41.4327V41.4321V41.4315V41.431V41.4304V41.4298V41.4292V41.4286V41.428V41.4275V41.4269V41.4263V41.4257V41.4251V41.4245V41.424V41.4234V41.4228V41.4222V41.4216V41.421V41.4204V41.4199V41.4193V41.4187V41.4181V41.4175V41.4169V41.4164V41.4158V41.4152V41.4146V41.414V41.4134V41.4129V41.4123V41.4117V41.4111V41.4105V41.4099V41.4094V41.4088V41.4082V41.4076V41.407V41.4064V41.4059V41.4053V41.4047V41.4041V41.4035V41.4029V41.4024V41.4018V22.0299ZM179.426 44.2567H179.27V44.266C178.368 44.1948 177.399 43.5139 177.399 42.2289V22.0299V22.0293V22.0287V22.0281V22.0275V22.027V22.0264V22.0258V22.0252V22.0246V22.024V22.0235V22.0229V22.0223V22.0217V22.0211V22.0205V22.02V22.0194V22.0188V22.0182V22.0176V22.017V22.0164V22.0159V22.0153V22.0147V22.0141C177.399 21.0644 178.078 19.9708 179.426 19.9708H207.494C208.502 19.9708 209.521 20.8152 209.521 21.9986V22.0141V42.2134V42.2289C209.521 43.2422 208.67 44.2567 207.494 44.2567H179.426Z" fill="#313134"/>
<path fill-rule="evenodd" clip-rule="evenodd" d="M177.381 17.9859C177.381 16.8517 178.299 15.9258 179.426 15.9258H207.479C208.607 15.9258 209.524 16.8517 209.524 17.9859C209.524 19.3052 210.575 19.9686 211.49 19.9686C212.545 19.9686 213.416 20.7782 213.524 21.8108H213.551V42.9459C213.551 43.6747 212.959 44.2726 212.234 44.2726H211.506C210.199 44.2726 209.539 45.33 209.539 46.2553V46.271C209.539 47.4052 208.622 48.3311 207.494 48.3311H179.426C178.299 48.3311 177.381 47.4052 177.381 46.271C177.381 45.1215 176.405 44.2883 175.415 44.2883C174.287 44.2883 173.369 43.3624 173.369 42.2279V22.0289C173.369 20.8945 174.287 19.9686 175.415 19.9686C176.553 19.9686 177.381 18.9855 177.381 17.9859ZM213.43 21.9319H213.413L213.409 21.876C213.331 20.8787 212.499 20.0897 211.49 20.0897C210.523 20.0897 209.403 19.3867 209.403 17.9859C209.403 16.9177 208.539 16.0469 207.479 16.0469H179.426C178.366 16.0469 177.503 16.9177 177.503 17.9859C177.503 19.0455 176.627 20.0897 175.415 20.0897C174.355 20.0897 173.49 20.9605 173.49 22.0289V42.2279C173.49 43.2964 174.355 44.1672 175.415 44.1672C176.466 44.1672 177.503 45.0495 177.503 46.271C177.503 47.3392 178.366 48.2099 179.426 48.2099H207.494C208.554 48.2099 209.418 47.3392 209.418 46.271V46.2553C209.418 45.2805 210.115 44.1514 211.506 44.1514H212.234C212.891 44.1514 213.43 43.6087 213.43 42.9459V21.9319ZM179.426 20.0305C178.119 20.0305 177.46 21.0882 177.46 22.0132V42.2279C177.46 43.4439 178.352 44.1023 179.209 44.1985V44.1952H207.494C208.634 44.1952 209.461 43.211 209.461 42.2279V21.9977C209.461 20.851 208.472 20.0305 207.494 20.0305H179.426ZM179.33 44.3163H207.494C208.707 44.3163 209.582 43.2715 209.582 42.2279V21.9977C209.582 20.7775 208.532 19.9093 207.494 19.9093H179.426C178.036 19.9093 177.339 21.0387 177.339 22.0132V42.2279C177.339 43.5511 178.339 44.2523 179.265 44.3255L179.33 44.3307V44.3163Z" fill="#313134"/>
<path d="M244.026 28.2889C243.081 28.2889 241.995 27.6013 241.995 26.2386C241.995 25.1319 241.102 24.2334 240.011 24.2334H223.966C222.875 24.2334 221.982 25.1319 221.982 26.2386C221.982 27.2694 221.131 28.2889 219.951 28.2889C218.86 28.2889 217.967 29.1874 217.967 30.2941V46.5005C217.967 47.6069 218.86 48.5054 219.951 48.5054C221.042 48.5054 221.934 47.6069 221.934 46.5005V30.2784V30.2641C221.949 29.3265 222.629 28.2283 223.966 28.2283H240.011C241.036 28.2283 242.043 29.0909 242.043 30.2784V46.5005C242.043 47.6069 242.935 48.5054 244.026 48.5054C245.118 48.5054 246.01 47.6069 246.01 46.5005V30.2784C246.01 29.1702 245.116 28.2889 244.026 28.2889Z" fill="#313134"/>
<path fill-rule="evenodd" clip-rule="evenodd" d="M221.922 26.2396C221.922 25.1 222.841 24.1738 223.966 24.1738H240.011C241.136 24.1738 242.055 25.1 242.055 26.2396C242.055 27.5617 243.106 28.2294 244.026 28.2294C245.149 28.2294 246.07 29.1376 246.07 30.2794V46.5016C246.07 47.6409 245.152 48.567 244.026 48.567C242.901 48.567 241.982 47.6409 241.982 46.5016V30.2794C241.982 29.1278 241.005 28.2899 240.011 28.2899H223.966C222.671 28.2899 222.009 29.3518 221.995 30.2656V46.5016C221.995 47.6409 221.076 48.567 219.951 48.567C218.826 48.567 217.907 47.6409 217.907 46.5016V30.2951C217.907 29.1555 218.826 28.2294 219.951 28.2294C221.094 28.2294 221.922 27.2406 221.922 26.2396ZM223.966 24.295C222.909 24.295 222.043 25.1658 222.043 26.2396C222.043 27.3003 221.168 28.3505 219.951 28.3505C218.894 28.3505 218.028 29.2213 218.028 30.2951V46.5016C218.028 47.575 218.894 48.4459 219.951 48.4459C221.008 48.4459 221.874 47.575 221.874 46.5016V30.2641C221.889 29.3029 222.587 28.1687 223.966 28.1687H240.011C241.068 28.1687 242.104 29.0561 242.104 30.2794V46.5016C242.104 47.575 242.969 48.4459 244.026 48.4459C245.084 48.4459 245.949 47.5751 245.949 46.5016V30.2794C245.949 29.2048 245.082 28.3505 244.026 28.3505C243.055 28.3505 241.934 27.6429 241.934 26.2396C241.934 25.1658 241.068 24.295 240.011 24.295H223.966Z" fill="#313134"/>
<path d="M50.739 19.8215H50.7367C49.66 19.8385 48.77 20.7417 48.77 21.8503V42.1869C48.77 43.2961 49.6609 44.2002 50.7546 44.2002C51.6821 44.2002 52.7671 44.8738 52.7818 46.227V46.2276V46.2282V46.2288V46.2294V46.2299V46.2305V46.2311V46.2317V46.2323V46.2329V46.2335V46.234V46.2346V46.2352V46.2358V46.2364V46.237V46.2376V46.2381V46.2387V46.2393V46.2399V46.2405V46.2411V46.2417V46.2422V46.2428V46.2434V46.244V46.2446V46.2452V46.2458V46.2463V46.2469V46.2475V46.2481V46.2487V46.2493V46.2499V46.2504V46.251V46.2516V46.2522V46.2528V46.2534V46.254V46.2545V46.2551V46.2557V46.2563V46.2569V46.2575C52.7818 47.3664 53.6727 48.2708 54.7664 48.2708H82.8342C83.9277 48.2708 84.8188 47.3664 84.8188 46.2575C84.8188 45.3012 85.4973 44.2002 86.8458 44.2002C87.9398 44.2002 88.8306 43.2961 88.8306 42.1869C88.8306 41.078 87.9398 40.1736 86.8458 40.1736C85.7523 40.1736 84.8615 41.078 84.8615 42.1869V42.2016C84.8465 43.2249 84.0081 44.2442 82.8342 44.2442H54.7664C53.7456 44.2442 52.7392 43.3805 52.7392 42.1869V21.8503V21.8498V21.8492V21.8486V21.848V21.8474V21.8468V21.8462V21.8457V21.8451V21.8445V21.8439V21.8433V21.8427V21.8421V21.8416V21.841V21.8404V21.8398V21.8392V21.8386V21.838V21.8375V21.8369V21.8363V21.8357V21.8351C52.7392 20.8789 53.4176 19.7776 54.7664 19.7776H82.8342C83.7758 19.7776 84.8609 20.4652 84.8615 21.8336C84.845 22.961 85.7385 23.8481 86.8305 23.8481C87.9242 23.8481 88.8154 22.9437 88.8154 21.8348C88.8154 20.7256 87.9242 19.8215 86.8305 19.8215C85.8097 19.8215 84.8033 18.9575 84.8033 17.7643C84.8033 16.6554 83.9124 15.751 82.8187 15.751H54.7512C53.6574 15.751 52.7663 16.6554 52.7663 17.7643C52.7663 18.8008 51.9146 19.8215 50.739 19.8215Z" fill="#313134"/>
<path fill-rule="evenodd" clip-rule="evenodd" d="M52.7057 17.7643C52.7057 16.6228 53.6232 15.6904 54.7512 15.6904H82.8187C83.9467 15.6904 84.8639 16.6228 84.8639 17.7643C84.8639 18.922 85.841 19.761 86.8305 19.761C87.9585 19.761 88.876 20.693 88.876 21.8349C88.876 22.9764 87.9586 23.9087 86.8305 23.9087C85.7049 23.9087 84.7842 22.9942 84.8009 21.8332C84.8001 20.5054 83.7496 19.8382 82.8343 19.8382H54.7665C53.4596 19.8382 52.7998 20.9032 52.7998 21.8351V42.187C52.7998 43.3449 53.7769 44.1836 54.7665 44.1836H82.8343C83.9704 44.1836 84.7862 43.1959 84.8009 42.2011V42.187C84.8009 41.0455 85.7181 40.1131 86.8458 40.1131C87.9741 40.1131 88.8913 41.0454 88.8913 42.187C88.8913 43.3288 87.9741 44.2609 86.8458 44.2609C85.5392 44.2609 84.8794 45.3256 84.8794 46.2575C84.8794 47.399 83.962 48.3314 82.8343 48.3314H54.7665C53.6384 48.3314 52.7213 47.399 52.7213 46.2575V46.2276C52.7213 46.2276 52.7213 46.2277 52.7213 46.2276M52.7213 46.2276C52.7069 44.915 51.6565 44.2609 50.7546 44.2609C49.6266 44.2609 48.7095 43.3288 48.7095 42.187V21.8504C48.7095 20.7093 49.6254 19.7785 50.7358 19.761L50.7368 19.761L50.7391 19.761C51.8775 19.761 52.7057 18.7713 52.7057 17.7643M54.7512 15.8116C53.6917 15.8116 52.8269 16.6881 52.8269 17.7643C52.8269 18.8304 51.9519 19.8821 50.7391 19.8821H50.7373C49.6944 19.8989 48.8306 20.7744 48.8306 21.8504V42.187C48.8306 43.2635 49.6952 44.1397 50.7546 44.1397C51.7076 44.1397 52.8273 44.8328 52.8425 46.2264L52.8425 46.2271L52.8425 46.2276V46.2575C52.8425 47.3338 53.707 48.2102 54.7665 48.2102H82.8343C83.8934 48.2102 84.7583 47.3338 84.7583 46.2575C84.7583 45.2769 85.4554 44.1397 86.8458 44.1397C87.9056 44.1397 88.7701 43.2635 88.7701 42.187C88.7701 41.1107 87.9056 40.2343 86.8458 40.2343C85.7867 40.2343 84.9221 41.1107 84.9221 42.187V42.2016L84.9221 42.2025C84.9067 43.2543 84.0457 44.3048 82.8343 44.3048H54.7665C53.7144 44.3048 52.6786 43.4161 52.6786 42.187V21.8351C52.6786 20.8546 53.3757 19.717 54.7665 19.717H82.8343C83.8019 19.717 84.9215 20.4248 84.9221 21.8337L84.9221 21.8346C84.9062 22.9281 85.7723 23.7876 86.8305 23.7876C87.89 23.7876 88.7548 22.9111 88.7548 21.8349C88.7548 20.7583 87.89 19.8821 86.8305 19.8821C85.7784 19.8821 84.7427 18.9932 84.7427 17.7643C84.7427 16.688 83.8782 15.8116 82.8187 15.8116H54.7512Z" fill="#313134"/>
<path d="M10.4507 52.5364H10.4484C9.37167 52.5534 8.48169 53.4566 8.48169 54.5652V74.9018C8.48169 76.011 9.37253 76.9151 10.4663 76.9151C11.3937 76.9151 12.4788 77.5886 12.4935 78.9419V78.9424V78.943V78.9436V78.9442V78.9448V78.9454V78.946V78.9465V78.9471V78.9477V78.9483V78.9489V78.9495V78.9501V78.9506V78.9512V78.9518V78.9524V78.953V78.9536V78.9542V78.9547V78.9553V78.9559V78.9565V78.9571V78.9577V78.9583V78.9588V78.9594V78.96V78.9606V78.9612V78.9618V78.9624V78.9629V78.9635V78.9641V78.9647V78.9653V78.9659V78.9665V78.9671V78.9676V78.9682V78.9688V78.9694V78.97V78.9706V78.9711V78.9717V78.9723C12.4935 80.0812 13.3844 80.9856 14.4781 80.9856H42.5459C43.6394 80.9856 44.5305 80.0812 44.5305 78.9723C44.5305 78.0161 45.2089 76.9151 46.5574 76.9151C47.6515 76.9151 48.5423 76.011 48.5423 74.9018C48.5423 73.7929 47.6515 72.8885 46.5574 72.8885C45.464 72.8885 44.5731 73.7929 44.5731 74.9018V74.9164C44.5582 75.9398 43.7198 76.959 42.5459 76.959H14.4781C13.4573 76.959 12.4509 76.0953 12.4509 74.9018V54.5652V54.5646V54.564V54.5634V54.5628V54.5623V54.5617V54.5611V54.5605V54.5599V54.5593V54.5587V54.5582V54.5576V54.557V54.5564V54.5558V54.5552V54.5546V54.5541V54.5535V54.5529V54.5523V54.5517V54.5511V54.5505V54.55C12.4509 53.5937 13.1293 52.4924 14.4781 52.4924H42.5459C43.4875 52.4924 44.5726 53.18 44.5731 54.5485C44.5567 55.6758 45.4502 56.563 46.5422 56.563C47.6359 56.563 48.527 55.6586 48.527 54.5497C48.527 53.4405 47.6359 52.5364 46.5422 52.5364C45.5213 52.5364 44.5149 51.6724 44.5149 50.4791C44.5149 49.3702 43.6241 48.4658 42.5303 48.4658H14.4628C13.3691 48.4658 12.478 49.3702 12.478 50.4791C12.478 51.5157 11.6263 52.5364 10.4507 52.5364Z" fill="#313134"/>
<path fill-rule="evenodd" clip-rule="evenodd" d="M12.4174 50.4801C12.4174 49.3386 13.3348 48.4062 14.4629 48.4062H42.5304C43.6584 48.4062 44.5755 49.3386 44.5755 50.4801C44.5755 51.6378 45.5527 52.4768 46.5422 52.4768C47.6702 52.4768 48.5877 53.4088 48.5877 54.5507C48.5877 55.6922 47.6702 56.6246 46.5422 56.6246C45.4166 56.6246 44.4959 55.71 44.5126 54.549C44.5117 53.2213 43.4613 52.554 42.5459 52.554H14.4781C13.1713 52.554 12.5115 53.619 12.5115 54.551V74.9028C12.5115 76.0608 13.4886 76.8995 14.4781 76.8995H42.5459C43.6821 76.8995 44.4979 75.9117 44.5126 74.9169V74.9028C44.5126 73.7613 45.4297 72.8289 46.5575 72.8289C47.6858 72.8289 48.6029 73.7613 48.6029 74.9028C48.6029 76.0446 47.6858 76.9767 46.5575 76.9767C45.2509 76.9767 44.5911 78.0414 44.5911 78.9733C44.5911 80.1149 43.6737 81.0472 42.5459 81.0472H14.4781C13.3501 81.0472 12.433 80.1149 12.433 78.9733V78.9435C12.433 78.9434 12.433 78.9435 12.433 78.9435M12.433 78.9435C12.4185 77.6308 11.3681 76.9767 10.4663 76.9767C9.33829 76.9767 8.42114 76.0446 8.42114 74.9028V54.5662C8.42114 53.4251 9.33709 52.4943 10.4475 52.4768L10.4484 52.4768L10.4507 52.4768C11.5891 52.4768 12.4174 51.4871 12.4174 50.4801M14.4629 48.5274C13.4034 48.5274 12.5386 49.4039 12.5386 50.4801C12.5386 51.5462 11.6636 52.598 10.4507 52.598H10.4489C9.40607 52.6147 8.54231 53.4903 8.54231 54.5662V74.9028C8.54231 75.9794 9.40686 76.8555 10.4663 76.8555C11.4193 76.8555 12.539 77.5486 12.5541 78.9422L12.5541 78.9429L12.5541 78.9435V78.9733C12.5541 80.0496 13.4187 80.9261 14.4781 80.9261H42.5459C43.6051 80.9261 44.4699 80.0496 44.4699 78.9733C44.4699 77.9928 45.167 76.8555 46.5575 76.8555C47.6172 76.8555 48.4818 75.9793 48.4818 74.9028C48.4818 73.8265 47.6172 72.9501 46.5575 72.9501C45.4983 72.9501 44.6338 73.8265 44.6338 74.9028V74.9174L44.6338 74.9183C44.6184 75.9701 43.7574 77.0206 42.5459 77.0206H14.4781C13.426 77.0206 12.3903 76.132 12.3903 74.9028V54.551C12.3903 53.5704 13.0874 52.4328 14.4781 52.4328H42.5459C43.5136 52.4328 44.6332 53.1406 44.6338 54.5495L44.6338 54.5504C44.6178 55.6439 45.4839 56.5034 46.5422 56.5034C47.6017 56.5034 48.4665 55.6269 48.4665 54.5507C48.4665 53.4741 47.6017 52.598 46.5422 52.598C45.4901 52.598 44.4544 51.709 44.4544 50.4801C44.4544 49.4039 43.5898 48.5274 42.5304 48.5274H14.4629Z" fill="#313134"/>
<path d="M280.352 52.5364H280.35C279.273 52.5534 278.383 53.4566 278.383 54.5652V74.9018C278.383 76.011 279.274 76.9151 280.368 76.9151C281.295 76.9151 282.38 77.5886 282.395 78.9419V78.9424V78.943V78.9436V78.9442V78.9448V78.9454V78.946V78.9465V78.9471V78.9477V78.9483V78.9489V78.9495V78.9501V78.9506V78.9512V78.9518V78.9524V78.953V78.9536V78.9542V78.9547V78.9553V78.9559V78.9565V78.9571V78.9577V78.9583V78.9588V78.9594V78.96V78.9606V78.9612V78.9618V78.9624V78.9629V78.9635V78.9641V78.9647V78.9653V78.9659V78.9665V78.9671V78.9676V78.9682V78.9688V78.9694V78.97V78.9706V78.9711V78.9717V78.9723C282.395 80.0812 283.286 80.9856 284.38 80.9856H312.447C313.541 80.9856 314.432 80.0812 314.432 78.9723C314.432 78.0161 315.11 76.9151 316.459 76.9151C317.553 76.9151 318.444 76.011 318.444 74.9018C318.444 73.7929 317.553 72.8885 316.459 72.8885C315.365 72.8885 314.475 73.7929 314.475 74.9018V74.9164C314.46 75.9398 313.621 76.959 312.447 76.959H284.38C283.359 76.959 282.352 76.0953 282.352 74.9018V54.5652V54.5646V54.564V54.5634V54.5628V54.5623V54.5617V54.5611V54.5605V54.5599V54.5593V54.5587V54.5582V54.5576V54.557V54.5564V54.5558V54.5552V54.5546V54.5541V54.5535V54.5529V54.5523V54.5517V54.5511V54.5505V54.55C282.352 53.5937 283.031 52.4924 284.38 52.4924H312.447C313.389 52.4924 314.474 53.18 314.475 54.5485C314.458 55.6758 315.352 56.563 316.444 56.563C317.537 56.563 318.429 55.6586 318.429 54.5497C318.429 53.4405 317.537 52.5364 316.444 52.5364C315.423 52.5364 314.416 51.6724 314.416 50.4791C314.416 49.3702 313.526 48.4658 312.432 48.4658H284.364C283.271 48.4658 282.379 49.3702 282.379 50.4791C282.379 51.5157 281.528 52.5364 280.352 52.5364Z" fill="#313134"/>
<path fill-rule="evenodd" clip-rule="evenodd" d="M282.319 50.4801C282.319 49.3386 283.236 48.4062 284.364 48.4062H312.432C313.56 48.4062 314.477 49.3386 314.477 50.4801C314.477 51.6378 315.454 52.4768 316.444 52.4768C317.572 52.4768 318.489 53.4088 318.489 54.5507C318.489 55.6922 317.572 56.6246 316.444 56.6246C315.318 56.6246 314.397 55.71 314.414 54.549C314.413 53.2213 313.363 52.554 312.447 52.554H284.38C283.073 52.554 282.413 53.619 282.413 54.551V74.9028C282.413 76.0608 283.39 76.8995 284.38 76.8995H312.447C313.584 76.8995 314.399 75.9117 314.414 74.9169V74.9028C314.414 73.7613 315.331 72.8289 316.459 72.8289C317.587 72.8289 318.504 73.7613 318.504 74.9028C318.504 76.0446 317.587 76.9767 316.459 76.9767C315.152 76.9767 314.493 78.0414 314.493 78.9733C314.493 80.1149 313.575 81.0472 312.447 81.0472H284.38C283.252 81.0472 282.334 80.1149 282.334 78.9733V78.9435C282.334 78.9434 282.334 78.9435 282.334 78.9435M282.334 78.9435C282.32 77.6308 281.27 76.9767 280.368 76.9767C279.24 76.9767 278.323 76.0446 278.323 74.9028V54.5662C278.323 53.4251 279.239 52.4943 280.349 52.4768L280.35 52.4768L280.352 52.4768C281.491 52.4768 282.319 51.4871 282.319 50.4801M284.364 48.5274C283.305 48.5274 282.44 49.4039 282.44 50.4801C282.44 51.5462 281.565 52.598 280.352 52.598H280.35C279.308 52.6147 278.444 53.4903 278.444 54.5662V74.9028C278.444 75.9794 279.308 76.8555 280.368 76.8555C281.321 76.8555 282.44 77.5486 282.456 78.9422L282.456 78.9429L282.456 78.9435V78.9733C282.456 80.0496 283.32 80.9261 284.38 80.9261H312.447C313.507 80.9261 314.371 80.0496 314.371 78.9733C314.371 77.9928 315.069 76.8555 316.459 76.8555C317.519 76.8555 318.383 75.9793 318.383 74.9028C318.383 73.8265 317.519 72.9501 316.459 72.9501C315.4 72.9501 314.535 73.8265 314.535 74.9028V74.9174L314.535 74.9183C314.52 75.9701 313.659 77.0206 312.447 77.0206H284.38C283.328 77.0206 282.292 76.132 282.292 74.9028V54.551C282.292 53.5704 282.989 52.4328 284.38 52.4328H312.447C313.415 52.4328 314.535 53.1406 314.535 54.5495L314.535 54.5504C314.519 55.6439 315.385 56.5034 316.444 56.5034C317.503 56.5034 318.368 55.6269 318.368 54.5507C318.368 53.4741 317.503 52.598 316.444 52.598C315.392 52.598 314.356 51.709 314.356 50.4801C314.356 49.4039 313.491 48.5274 312.432 48.5274H284.364Z" fill="#313134"/>
<path d="M254.411 24.2334H254.257V24.3905V27.8467V28.0038H254.411H273.663H273.816V27.8467V24.3905V24.2334H273.663H254.411Z" fill="#313134"/>
<path fill-rule="evenodd" clip-rule="evenodd" d="M254.197 24.1738H273.877V28.0654H254.197V24.1738ZM254.318 24.295V27.9442H273.756V24.295H254.318Z" fill="#313134"/>
<path d="M277.903 36.0102H278.059V35.853V28.3987V28.2412H277.903H274.258H274.102V28.3987V31.8402H253.973V28.6897V28.5323H253.817H250.172H250.016V28.6897V44.1083V44.2655H250.172H253.817H253.973V44.1083V36.0102H274.258H276.073H277.903Z" fill="#313134"/>
<path fill-rule="evenodd" clip-rule="evenodd" d="M274.042 28.1797H278.12V36.0698H254.034V44.3251H249.956V28.4707H254.034V31.7786H274.042V28.1797ZM274.163 28.3009V31.8998H253.913V28.5919H250.077V44.2039H253.913V35.9486H277.998V28.3009H274.163Z" fill="#313134"/>
<path d="M254.178 44.5H254.022V44.6612V48.3449V48.5061H254.178H273.895H274.052V48.3449V44.6612V44.5H273.895H254.178Z" fill="#313134"/>
<path fill-rule="evenodd" clip-rule="evenodd" d="M253.961 44.4404H274.113V48.5677H253.961V44.4404ZM254.082 44.5616V48.4465H273.991V44.5616H254.082Z" fill="#313134"/>
<path d="M278.058 40.6533V40.4941H277.907H274.44H274.288V40.6533V42.2056V42.2059V42.2062V42.2065V42.2071V42.2074V42.2076V42.2079V42.2082V42.2085V42.2091V42.2094V42.2097V42.21V42.2103V42.2106V42.2109V42.2115V42.2118V42.2121V42.2124V42.2126V42.2129V42.2132V42.2135V42.2138V42.2144V42.2147V42.215V42.2153V42.2156V42.2159V42.2162V42.2165V42.2168V42.2174V42.2177V42.2179V42.2182V42.2185V42.2188V42.2191V42.2197V42.22V42.2203V42.2206V42.2209V42.2212V42.2215V42.2218V42.2221V42.2227V42.2229V42.2232V42.2235V42.2238V42.2241V42.2244V42.225V42.2253V42.2256V42.2259V42.2262V42.2265V42.2268V42.2271V42.2277V42.2279V42.2282V42.2285V42.2288V42.2291V42.2294V42.23V42.2303V42.2306V42.2309V42.2312V42.2315V42.2321V42.2324V42.2327V42.233V42.2332V42.2338V42.2341V42.2344V42.2347V42.235V42.2353V42.2356V42.2362V42.2365V42.2368V42.2371V42.2374V42.2377V42.238V42.2382V42.2385V42.2391V42.2394V42.2397V42.24V42.2403V42.2406V42.2409V42.2412V42.2415V42.2421V42.2424V42.2427V42.243V42.2432V42.2435V42.2438V42.2441V42.2444V42.245V42.2453V42.2456V42.2459V42.2462V42.2465V42.2468V42.2471V42.2474V42.248V42.2483V42.2485V42.2488V42.2491V42.2494V42.2497V42.2503V42.2506V42.2509V42.2512V42.2515V42.2518V42.2521V42.2524V42.2527V42.253V42.2535V42.2538V42.2541V42.2544V42.2547V42.255V42.2553V42.2559V42.2562V42.2565V42.2568V42.2571V42.2574V42.258V42.2583V42.2586V42.2588V44.1057V44.2646H274.44H276.166H277.907H278.058V44.1057V40.6533Z" fill="#313134"/>
<path fill-rule="evenodd" clip-rule="evenodd" d="M274.227 40.4336H278.119V44.3252H274.227V40.4336ZM274.348 40.5548V44.204H277.998V40.5548H274.348Z" fill="#313134"/>
<path d="M138.85 126.932H130.895C129.81 126.932 128.927 127.823 128.927 128.915C128.927 129.937 128.082 130.943 126.917 130.943C125.832 130.943 124.95 131.834 124.95 132.926V149.325C124.95 150.417 125.832 151.309 126.917 151.309C128.002 151.309 128.885 150.417 128.885 149.325V132.91C128.885 131.967 129.558 130.882 130.895 130.882H138.85C139.936 130.882 140.818 129.991 140.818 128.899C140.818 127.822 139.935 126.932 138.85 126.932Z" fill="#313134"/>
<path fill-rule="evenodd" clip-rule="evenodd" d="M128.867 128.915C128.867 127.79 129.776 126.871 130.895 126.871H138.85C139.968 126.871 140.878 127.789 140.878 128.899C140.878 130.024 139.969 130.943 138.85 130.943H130.895C129.6 130.943 128.946 131.992 128.946 132.91V149.325C128.946 150.45 128.036 151.369 126.917 151.369C125.798 151.369 124.889 150.45 124.889 149.325V132.926C124.889 131.801 125.798 130.882 126.917 130.882C128.045 130.882 128.867 129.907 128.867 128.915ZM130.895 126.992C129.844 126.992 128.988 127.856 128.988 128.915C128.988 129.967 128.119 131.003 126.917 131.003C125.866 131.003 125.01 131.867 125.01 132.926V149.325C125.01 150.384 125.866 151.248 126.917 151.248C127.968 151.248 128.824 150.384 128.824 149.325V132.91C128.824 131.942 129.517 130.822 130.895 130.822H138.85C139.902 130.822 140.757 129.958 140.757 128.899C140.757 127.856 139.901 126.992 138.85 126.992H130.895Z" fill="#313134"/>
<path d="M165.452 144.926V144.929C165.467 145.967 164.614 146.988 163.439 146.988H147.38C146.438 146.988 145.351 146.309 145.351 144.958V132.909V132.909V132.909V132.908V132.908V132.908V132.907V132.907V132.907V132.907V132.906V132.906V132.906V132.905V132.905V132.905V132.905V132.904V132.904V132.904V132.903V132.903V132.903V132.902V132.902V132.902V132.902V132.901V132.901V132.901V132.9V132.9V132.9V132.9V132.899V132.899V132.899V132.898V132.898V132.898V132.898V132.897V132.897V132.897V132.896V132.896V132.896V132.896V132.895V132.895V132.895V132.894V132.894V132.894C145.351 131.95 146.03 130.863 147.38 130.863H163.423C164.445 130.863 165.452 131.716 165.452 132.894V144.926ZM167.453 130.939C166.51 130.939 165.424 130.26 165.424 128.909C165.424 127.815 164.533 126.923 163.439 126.923H147.38C146.286 126.923 145.395 127.815 145.395 128.909C145.395 129.932 144.542 130.939 143.366 130.939C142.271 130.939 141.381 131.831 141.381 132.925V144.958C141.381 146.051 142.271 146.943 143.366 146.943C144.388 146.943 145.395 147.796 145.395 148.974C145.395 150.068 146.286 150.959 147.38 150.959H163.423C164.518 150.959 165.409 150.068 165.409 148.974C165.409 148.03 166.088 146.943 167.438 146.943C168.532 146.943 169.423 146.051 169.423 144.958V132.909C169.423 131.815 168.548 130.939 167.453 130.939Z" fill="#313134"/>
<path fill-rule="evenodd" clip-rule="evenodd" d="M145.334 128.909C145.334 127.782 146.253 126.862 147.38 126.862H163.439C164.566 126.862 165.485 127.782 165.485 128.909C165.485 130.219 166.536 130.878 167.453 130.878C168.581 130.878 169.484 131.782 169.484 132.909V144.958C169.484 146.085 168.566 147.004 167.438 147.004C166.129 147.004 165.469 148.055 165.469 148.974C165.469 150.101 164.551 151.02 163.423 151.02H147.38C146.253 151.02 145.334 150.101 145.334 148.974C145.334 147.832 144.357 147.004 143.366 147.004C142.238 147.004 141.32 146.085 141.32 144.958V132.925C141.32 131.798 142.238 130.878 143.366 130.878C144.506 130.878 145.334 129.901 145.334 128.909ZM147.38 126.983C146.32 126.983 145.456 127.848 145.456 128.909C145.456 129.962 144.579 131 143.366 131C142.305 131 141.441 131.865 141.441 132.925V144.958C141.441 146.018 142.305 146.883 143.366 146.883C144.418 146.883 145.456 147.76 145.456 148.974C145.456 150.034 146.32 150.899 147.38 150.899H163.423C164.484 150.899 165.348 150.034 165.348 148.974C165.348 148.005 166.047 146.883 167.438 146.883C168.499 146.883 169.363 146.018 169.363 144.958V132.909C169.363 131.849 168.514 131 167.453 131C166.485 131 165.363 130.301 165.363 128.909C165.363 127.848 164.499 126.983 163.439 126.983H147.38ZM147.38 130.924C146.071 130.924 145.412 131.975 145.412 132.894V144.958C145.412 146.268 146.463 146.928 147.38 146.928H163.439C164.577 146.928 165.406 145.938 165.392 144.93L165.392 144.929V132.894C165.392 131.752 164.415 130.924 163.423 130.924H147.38ZM145.291 132.894C145.291 131.925 145.989 130.803 147.38 130.803H163.423C164.476 130.803 165.513 131.68 165.513 132.894V144.928C165.528 145.997 164.651 147.049 163.439 147.049H147.38C146.413 147.049 145.291 146.35 145.291 144.958V132.894Z" fill="#313134"/>
<path d="M118.91 130.939C117.975 130.939 116.898 130.26 116.898 128.909C116.898 127.815 116.015 126.923 114.929 126.923H99.0215C97.9368 126.923 97.0529 127.815 97.0529 128.909C97.0529 129.932 96.2074 130.939 95.0407 130.939C93.9556 130.939 93.072 131.831 93.072 132.925V144.958C93.072 146.051 93.9556 146.943 95.0407 146.943C96.054 146.943 97.0529 147.796 97.0529 148.974C97.0529 150.068 97.9368 150.959 99.0215 150.959H114.929C116.015 150.959 116.898 150.068 116.898 148.974C116.898 148.03 117.572 146.943 118.91 146.943C119.995 146.943 120.879 146.051 120.879 144.958V132.909C120.879 131.814 119.994 130.939 118.91 130.939ZM114.929 146.988H99.0215C98.0866 146.988 97.0093 146.309 97.0093 144.958V132.909V132.909V132.909V132.908V132.908V132.908V132.907V132.907V132.907V132.907V132.906V132.906V132.906V132.905V132.905V132.905V132.905V132.904V132.904V132.904V132.903V132.903V132.903V132.902V132.902V132.902V132.902V132.901V132.901V132.901V132.9V132.9V132.9V132.9V132.899V132.899V132.899V132.898V132.898V132.898V132.898V132.897V132.897V132.897V132.896V132.896V132.896V132.896V132.895V132.895V132.895V132.894V132.894V132.894C97.0093 131.95 97.6829 130.863 99.0215 130.863H114.929C115.943 130.863 116.942 131.716 116.942 132.894V144.926C116.942 145.967 116.094 146.988 114.929 146.988Z" fill="#313134"/>
<path fill-rule="evenodd" clip-rule="evenodd" d="M96.9924 128.909C96.9924 127.782 97.9029 126.862 99.0216 126.862H114.929C116.049 126.862 116.959 127.782 116.959 128.909C116.959 130.219 118.001 130.878 118.91 130.878C120.027 130.878 120.939 131.78 120.939 132.909V144.958C120.939 146.084 120.029 147.004 118.91 147.004C117.613 147.004 116.959 148.054 116.959 148.974C116.959 150.101 116.049 151.02 114.929 151.02H99.0216C97.9029 151.02 96.9924 150.101 96.9924 148.974C96.9924 147.832 96.023 147.004 95.0407 147.004C93.9217 147.004 93.0115 146.084 93.0115 144.958V132.925C93.0115 131.798 93.9217 130.878 95.0407 130.878C96.1706 130.878 96.9924 129.902 96.9924 128.909ZM99.0216 126.983C97.9708 126.983 97.1135 127.848 97.1135 128.909C97.1135 129.962 96.2444 131 95.0407 131C93.9896 131 93.1326 131.864 93.1326 132.925V144.958C93.1326 146.018 93.9896 146.883 95.0407 146.883C96.0849 146.883 97.1135 147.76 97.1135 148.974C97.1135 150.035 97.9708 150.899 99.0216 150.899H114.929C115.981 150.899 116.837 150.035 116.837 148.974C116.837 148.005 117.53 146.883 118.91 146.883C119.961 146.883 120.818 146.018 120.818 144.958V132.909C120.818 131.847 119.961 131 118.91 131C117.95 131 116.837 130.301 116.837 128.909C116.837 127.848 115.981 126.983 114.929 126.983H99.0216ZM99.0216 130.924C97.7246 130.924 97.0699 131.974 97.0699 132.894V144.958C97.0699 146.269 98.1123 146.928 99.0216 146.928H114.929C116.057 146.928 116.881 145.938 116.881 144.926V132.894C116.881 131.752 115.912 130.924 114.929 130.924H99.0216ZM96.9487 132.894C96.9487 131.925 97.6413 130.803 99.0216 130.803H114.929C115.974 130.803 117.002 131.68 117.002 132.894V144.926C117.002 145.996 116.132 147.049 114.929 147.049H99.0216C98.0609 147.049 96.9487 146.35 96.9487 144.958V132.894Z" fill="#313134"/>
<path d="M213.49 124.718V124.561H213.469C213.389 123.533 212.532 122.719 211.49 122.719C210.549 122.719 209.463 122.035 209.463 120.675C209.463 119.574 208.573 118.676 207.478 118.676H179.426C178.332 118.676 177.442 119.574 177.442 120.675C177.442 121.705 176.59 122.719 175.414 122.719C174.321 122.719 173.43 123.617 173.43 124.718V144.917C173.43 146.019 174.321 146.917 175.414 146.917C176.435 146.917 177.442 147.775 177.442 148.96C177.442 150.062 178.332 150.96 179.426 150.96H207.494C208.588 150.96 209.479 150.062 209.479 148.96V148.96V148.96V148.96V148.959V148.959V148.959V148.958V148.958V148.958V148.958V148.957V148.957V148.957V148.956V148.956V148.956V148.955V148.955V148.955V148.955V148.954V148.954V148.954V148.953V148.953V148.953V148.953V148.952V148.952V148.952V148.951V148.951V148.951V148.951V148.95V148.95V148.95V148.949V148.949V148.949V148.948V148.948V148.948V148.948V148.947V148.947V148.947V148.946V148.946V148.946V148.946V148.945V148.945V148.945C209.479 147.995 210.157 146.901 211.506 146.901H212.234C212.925 146.901 213.49 146.331 213.49 145.635V144.184V144.183V144.183V144.183V144.182V144.182V144.182V144.182V144.181V144.181V144.181V144.18V144.18V144.18V144.18V144.179V144.179V144.179V144.178V144.178V144.178V144.178V144.177V144.177V144.177V144.176V144.176V144.176V144.175V144.175V144.175V144.175V144.174V144.174V144.174V144.173V144.173V144.173V144.173V144.172V144.172V144.172V144.171V144.171V144.171V144.171V144.17V144.17V144.17V144.169V144.169V144.169V144.168V144.168V144.168V144.168V144.167V144.167V144.167V144.166V144.166V144.166V144.166V144.165V144.165V144.165V144.164V144.164V144.164V144.163V144.163V144.163V144.163V144.162V144.162V144.162V144.161V144.161V144.161V144.161V144.16V144.16V144.16V144.159V144.159V144.159V144.159V144.158V144.158V144.158V144.157V144.157V144.157V144.156V144.156V144.156V144.156V144.155V144.155V144.155V144.154V144.154V144.154V144.154V144.153V144.153V144.153V144.152V144.152V144.152V144.152V144.151V144.151V144.151V144.15V144.15V144.15V144.149V144.149V144.149V144.149V144.148V144.148V144.148V144.147V144.147V144.147V144.147V144.146V144.146V144.146V144.145V144.145V144.145V144.145V144.144V144.144V144.144V144.143V144.143V144.143V144.142V144.142V144.142V144.142V144.141V144.141V144.141V144.14V144.14V144.14V144.14V144.139V144.139V144.139V144.138V144.138V144.138V144.138V144.137V144.137V144.137V144.136V144.136V144.136V144.135V144.135V144.135V144.135V144.134V144.134V144.134V144.133V144.133V144.133V144.133V144.132V144.132V144.132V144.131V144.131V144.131V144.131V144.13V144.13V144.13V144.129V144.129V144.129V144.128V144.128V144.128V144.128V144.127V144.127V144.127V144.126V144.126V144.126V144.126V144.125V144.125V144.125V144.124V144.124V144.124V144.124V144.123V144.123V144.123V144.122V144.122V144.122V144.121V144.121V144.121V144.121V144.12V144.12V144.12V144.119V144.119V144.119V144.119V144.118V144.118V144.118V144.117V144.117V144.117V144.117V144.116V144.116V144.116V144.115V144.115V144.115V144.114V144.114V144.114V144.114V144.113V144.113V144.113V144.112V144.112V144.112V144.112V144.111V144.111V144.111V144.11V144.11V144.11V144.11V144.109V144.109V144.109V144.108V144.108V144.108V144.107V144.107V144.107V144.107V144.106V144.106V144.106V144.105V144.105V144.105V144.105V144.104V144.104V144.104V144.103V144.103V144.103V144.103V144.102V144.102V144.102V144.101V144.101V144.101V144.1V144.1V144.1V144.1V144.099V144.099V144.099V144.098V144.098V144.098V144.098V144.097V144.097V144.097V144.096V144.096V144.096V144.096V144.095V144.095V144.095V144.094V144.094V144.094V144.093V144.093V144.093V144.093V144.092V144.092V144.092V144.091V144.091V144.091V144.091V144.09V144.09V124.718ZM179.426 146.945H179.27V146.955C178.368 146.883 177.399 146.202 177.399 144.917V124.718V124.718V124.718V124.717V124.717V124.717V124.717V124.716V124.716V124.716V124.715V124.715V124.715V124.715V124.714V124.714V124.714V124.713V124.713V124.713V124.713V124.712V124.712V124.712V124.711V124.711V124.711V124.71V124.71V124.71V124.71V124.709V124.709V124.709V124.708V124.708V124.708V124.708V124.707V124.707V124.707V124.706V124.706V124.706V124.706V124.705V124.705V124.705V124.704V124.704V124.704V124.703V124.703V124.703V124.703C177.399 123.753 178.078 122.659 179.426 122.659H207.494C208.502 122.659 209.521 123.504 209.521 124.687V124.703V144.902V144.917C209.521 145.931 208.67 146.945 207.494 146.945H179.426Z" fill="#313134"/>
<path fill-rule="evenodd" clip-rule="evenodd" d="M177.381 120.675C177.381 119.541 178.299 118.615 179.426 118.615H207.478C208.606 118.615 209.524 119.541 209.524 120.675C209.524 121.995 210.575 122.658 211.49 122.658C212.545 122.658 213.416 123.468 213.524 124.5H213.551V145.635C213.551 146.364 212.959 146.962 212.234 146.962H211.506C210.199 146.962 209.539 148.019 209.539 148.945V148.96C209.539 150.095 208.622 151.021 207.494 151.021H179.426C178.299 151.021 177.381 150.095 177.381 148.96C177.381 147.811 176.405 146.978 175.415 146.978C174.287 146.978 173.369 146.052 173.369 144.917V124.718C173.369 123.584 174.287 122.658 175.415 122.658C176.553 122.658 177.381 121.675 177.381 120.675ZM213.43 124.621H213.413L213.409 124.565C213.331 123.568 212.499 122.779 211.49 122.779C210.523 122.779 209.403 122.076 209.403 120.675C209.403 119.607 208.539 118.736 207.478 118.736H179.426C178.366 118.736 177.502 119.607 177.502 120.675C177.502 121.735 176.627 122.779 175.415 122.779C174.355 122.779 173.49 123.65 173.49 124.718V144.917C173.49 145.986 174.355 146.857 175.415 146.857C176.466 146.857 177.502 147.739 177.502 148.96C177.502 150.029 178.366 150.899 179.426 150.899H207.494C208.554 150.899 209.418 150.029 209.418 148.96V148.945C209.418 147.97 210.115 146.841 211.506 146.841H212.234C212.891 146.841 213.43 146.298 213.43 145.635V124.621ZM179.426 122.72C178.119 122.72 177.46 123.778 177.46 124.703V144.917C177.46 146.133 178.352 146.792 179.209 146.888V146.885H207.494C208.634 146.885 209.461 145.9 209.461 144.917V124.687C209.461 123.54 208.472 122.72 207.494 122.72H179.426ZM179.33 147.006H207.494C208.707 147.006 209.582 145.961 209.582 144.917V124.687C209.582 123.467 208.532 122.599 207.494 122.599H179.426C178.036 122.599 177.339 123.728 177.339 124.703V144.917C177.339 146.241 178.339 146.942 179.265 147.015L179.33 147.02V147.006Z" fill="#313134"/>
<path d="M244.026 130.978C243.081 130.978 241.995 130.291 241.995 128.928C241.995 127.821 241.102 126.923 240.011 126.923H223.966C222.875 126.923 221.982 127.821 221.982 128.928C221.982 129.959 221.131 130.978 219.951 130.978C218.86 130.978 217.967 131.877 217.967 132.984V149.19C217.967 150.296 218.86 151.195 219.951 151.195C221.042 151.195 221.934 150.296 221.934 149.19V132.968V132.954C221.949 132.016 222.629 130.918 223.966 130.918H240.011C241.037 130.918 242.043 131.78 242.043 132.968V149.19C242.043 150.296 242.935 151.195 244.026 151.195C245.118 151.195 246.01 150.296 246.01 149.19V132.968C246.01 131.86 245.116 130.978 244.026 130.978Z" fill="#313134"/>
<path fill-rule="evenodd" clip-rule="evenodd" d="M221.922 128.928C221.922 127.788 222.841 126.862 223.966 126.862H240.011C241.136 126.862 242.055 127.788 242.055 128.928C242.055 130.25 243.106 130.918 244.026 130.918C245.149 130.918 246.07 131.826 246.07 132.968V149.19C246.07 150.329 245.152 151.256 244.026 151.256C242.901 151.256 241.982 150.329 241.982 149.19V132.968C241.982 131.816 241.005 130.978 240.011 130.978H223.966C222.671 130.978 222.009 132.04 221.995 132.954V149.19C221.995 150.329 221.076 151.256 219.951 151.256C218.826 151.256 217.907 150.329 217.907 149.19V132.984C217.907 131.844 218.826 130.918 219.951 130.918C221.094 130.918 221.922 129.929 221.922 128.928ZM223.966 126.983C222.909 126.983 222.043 127.854 222.043 128.928C222.043 129.989 221.168 131.039 219.951 131.039C218.894 131.039 218.028 131.91 218.028 132.984V149.19C218.028 150.264 218.894 151.134 219.951 151.134C221.008 151.134 221.874 150.264 221.874 149.19V132.953C221.889 131.991 222.587 130.857 223.966 130.857H240.011C241.067 130.857 242.104 131.745 242.104 132.968V149.19C242.104 150.264 242.969 151.134 244.026 151.134C245.084 151.134 245.949 150.264 245.949 149.19V132.968C245.949 131.893 245.082 131.039 244.026 131.039C243.055 131.039 241.934 130.331 241.934 128.928C241.934 127.854 241.068 126.983 240.011 126.983H223.966Z" fill="#313134"/>
<path d="M50.7395 122.511H50.7372C49.6604 122.528 48.7704 123.431 48.7704 124.54V144.876C48.7704 145.986 49.6613 146.89 50.755 146.89C51.6825 146.89 52.7676 147.563 52.7823 148.916V148.917V148.918V148.918V148.919V148.919V148.92V148.921V148.921V148.922V148.922V148.923V148.923V148.924V148.925V148.925V148.926V148.926V148.927V148.928V148.928V148.929V148.929V148.93V148.931V148.931V148.932V148.932V148.933V148.933V148.934V148.935V148.935V148.936V148.936V148.937V148.938V148.938V148.939V148.939V148.94V148.94V148.941V148.942V148.942V148.943V148.943V148.944V148.945V148.945V148.946V148.946V148.947C52.7823 150.056 53.6731 150.96 54.7669 150.96H82.8347C83.9281 150.96 84.8192 150.056 84.8192 148.947C84.8192 147.991 85.4977 146.89 86.8462 146.89C87.9402 146.89 88.8311 145.986 88.8311 144.876C88.8311 143.767 87.9402 142.863 86.8462 142.863C85.7527 142.863 84.8619 143.767 84.8619 144.876V144.891C84.8469 145.914 84.0085 146.934 82.8347 146.934H54.7669C53.746 146.934 52.7396 146.07 52.7396 144.876V124.54V124.539V124.539V124.538V124.537V124.537V124.536V124.536V124.535V124.535V124.534V124.533V124.533V124.532V124.532V124.531V124.53V124.53V124.529V124.529V124.528V124.527V124.527V124.526V124.526V124.525V124.525C52.7396 123.568 53.4181 122.467 54.7669 122.467H82.8347C83.7762 122.467 84.8613 123.155 84.8619 124.523C84.8455 125.65 85.7389 126.538 86.8309 126.538C87.9247 126.538 88.8158 125.633 88.8158 124.524C88.8158 123.415 87.9247 122.511 86.8309 122.511C85.8101 122.511 84.8037 121.647 84.8037 120.454C84.8037 119.345 83.9128 118.44 82.8191 118.44H54.7516C53.6578 118.44 52.7667 119.345 52.7667 120.454C52.7667 121.49 51.9151 122.511 50.7395 122.511Z" fill="#313134"/>
<path fill-rule="evenodd" clip-rule="evenodd" d="M52.7057 120.454C52.7057 119.312 53.6232 118.38 54.7512 118.38H82.8187C83.9467 118.38 84.8639 119.312 84.8639 120.454C84.8639 121.611 85.841 122.45 86.8305 122.45C87.9585 122.45 88.876 123.382 88.876 124.524C88.876 125.666 87.9586 126.598 86.8305 126.598C85.7049 126.598 84.7842 125.684 84.8009 124.523C84.8001 123.195 83.7496 122.528 82.8343 122.528H54.7665C53.4596 122.528 52.7998 123.593 52.7998 124.525V144.876C52.7998 146.034 53.7769 146.873 54.7665 146.873H82.8343C83.9704 146.873 84.7862 145.885 84.8009 144.891V144.876C84.8009 143.735 85.7181 142.803 86.8458 142.803C87.9741 142.803 88.8913 143.735 88.8913 144.876C88.8913 146.018 87.9741 146.95 86.8458 146.95C85.5392 146.95 84.8794 148.015 84.8794 148.947C84.8794 150.088 83.962 151.021 82.8343 151.021H54.7665C53.6384 151.021 52.7213 150.088 52.7213 148.947V148.917C52.7213 148.917 52.7213 148.917 52.7213 148.917M52.7213 148.917C52.7069 147.604 51.6565 146.95 50.7546 146.95C49.6266 146.95 48.7095 146.018 48.7095 144.876V124.54C48.7095 123.399 49.6254 122.468 50.7358 122.45L50.7368 122.45L50.7391 122.45C51.8775 122.45 52.7057 121.461 52.7057 120.454M54.7512 118.501C53.6917 118.501 52.8269 119.378 52.8269 120.454C52.8269 121.52 51.9519 122.572 50.7391 122.572H50.7373C49.6944 122.588 48.8306 123.464 48.8306 124.54V144.876C48.8306 145.953 49.6952 146.829 50.7546 146.829C51.7076 146.829 52.8273 147.522 52.8425 148.916L52.8425 148.917L52.8425 148.917V148.947C52.8425 150.023 53.707 150.9 54.7665 150.9H82.8343C83.8934 150.9 84.7583 150.023 84.7583 148.947C84.7583 147.966 85.4554 146.829 86.8458 146.829C87.9056 146.829 88.7701 145.953 88.7701 144.876C88.7701 143.8 87.9056 142.924 86.8458 142.924C85.7867 142.924 84.9221 143.8 84.9221 144.876V144.891L84.9221 144.892C84.9067 145.944 84.0457 146.994 82.8343 146.994H54.7665C53.7144 146.994 52.6786 146.106 52.6786 144.876V124.525C52.6786 123.544 53.3757 122.406 54.7665 122.406H82.8343C83.8019 122.406 84.9215 123.114 84.9221 124.523L84.9221 124.524C84.9062 125.618 85.7723 126.477 86.8305 126.477C87.89 126.477 88.7548 125.601 88.7548 124.524C88.7548 123.448 87.89 122.572 86.8305 122.572C85.7784 122.572 84.7427 121.683 84.7427 120.454C84.7427 119.377 83.8782 118.501 82.8187 118.501H54.7512Z" fill="#313134"/>
<path d="M254.411 126.923H254.257V127.08V130.536V130.693H254.411H273.663H273.816V130.536V127.08V126.923H273.663H254.411Z" fill="#313134"/>
<path fill-rule="evenodd" clip-rule="evenodd" d="M254.197 126.862H273.877V130.754H254.197V126.862ZM254.318 126.983V130.633H273.756V126.983H254.318Z" fill="#313134"/>
<path d="M277.903 138.699H278.059V138.541V131.087V130.93H277.903H274.258H274.102V131.087V134.529H253.973V131.378V131.221H253.817H250.172H250.016V131.378V146.797V146.954H250.172H253.817H253.973V146.797V138.699H274.258H276.072H277.903Z" fill="#313134"/>
<path fill-rule="evenodd" clip-rule="evenodd" d="M274.041 130.869H278.119V138.759H254.034V147.015H249.956V131.16H254.034V134.468H274.041V130.869ZM274.163 130.99V134.589H253.913V131.281H250.077V146.893H253.913V138.638H277.998V130.99H274.163Z" fill="#313134"/>
<path d="M254.179 147.189H254.022V147.351V151.034V151.196H254.179H273.895H274.052V151.034V147.351V147.189H273.895H254.179Z" fill="#313134"/>
<path fill-rule="evenodd" clip-rule="evenodd" d="M253.961 147.128H274.113V151.255H253.961V147.128ZM254.082 147.249V151.134H273.992V147.249H254.082Z" fill="#313134"/>
<path d="M278.058 143.343V143.184H277.907H274.44H274.288V143.343V144.895V144.895V144.896V144.896V144.897V144.897V144.897V144.897V144.898V144.898V144.899V144.899V144.899V144.899V144.9V144.9V144.9V144.901V144.901V144.902V144.902V144.902V144.902V144.903V144.903V144.903V144.904V144.904V144.904V144.905V144.905V144.905V144.906V144.906V144.906V144.907V144.907V144.907V144.908V144.908V144.908V144.909V144.909V144.909V144.91V144.91V144.91V144.911V144.911V144.911V144.912V144.912V144.912V144.913V144.913V144.913V144.914V144.914V144.914V144.915V144.915V144.915V144.916V144.916V144.916V144.917V144.917V144.917V144.918V144.918V144.918V144.919V144.919V144.919V144.92V144.92V144.92V144.921V144.921V144.922V144.922V144.922V144.922V144.923V144.923V144.924V144.924V144.924V144.924V144.925V144.925V144.926V144.926V144.926V144.927V144.927V144.927V144.927V144.928V144.928V144.929V144.929V144.929V144.929V144.93V144.93V144.93V144.931V144.931V144.932V144.932V144.932V144.932V144.933V144.933V144.933V144.934V144.934V144.934V144.935V144.935V144.935V144.936V144.936V144.936V144.937V144.937V144.937V144.938V144.938V144.938V144.939V144.939V144.939V144.94V144.94V144.94V144.941V144.941V144.941V144.942V144.942V144.942V144.942V144.943V144.943V144.944V144.944V144.944V144.944V144.945V144.945V144.946V144.946V144.946V144.947V144.947V144.947V144.948V144.948V144.948V146.795V146.954H274.44H276.166H277.907H278.058V146.795V143.343Z" fill="#313134"/>
<path fill-rule="evenodd" clip-rule="evenodd" d="M274.227 143.123H278.119V147.015H274.227V143.123ZM274.348 143.244V146.893H277.998V143.244H274.348Z" fill="#313134"/>
<path fill-rule="evenodd" clip-rule="evenodd" d="M48.4672 165.849L48.4672 0.152344L49.073 0.152344L49.073 165.849L48.4672 165.849Z" fill="#75FEFA"/>
<path fill-rule="evenodd" clip-rule="evenodd" d="M277.777 166L277.777 0L278.383 -2.64827e-08L278.383 166L277.777 166Z" fill="#75FEFA"/>
<path fill-rule="evenodd" clip-rule="evenodd" d="M0.151459 48.1641L330.637 48.1641V48.7699L0.151459 48.7699V48.1641Z" fill="#75FEFA"/>
<path fill-rule="evenodd" clip-rule="evenodd" d="M0.151459 117.836L330.788 117.836V118.442L0.151459 118.442V117.836Z" fill="#75FEFA"/>
<path d="M138.85 56.96H130.895C129.81 56.96 128.927 57.8514 128.927 58.9432C128.927 59.9655 128.082 60.9711 126.918 60.9711C125.833 60.9711 124.95 61.8626 124.95 62.954V79.3538C124.95 80.4452 125.833 81.337 126.918 81.337C128.002 81.337 128.885 80.4452 128.885 79.3538V62.9385C128.885 61.9951 129.558 60.9106 130.895 60.9106H138.85C139.936 60.9106 140.818 60.0191 140.818 58.9276C140.818 57.8506 139.935 56.96 138.85 56.96Z" fill="#75FEFA"/>
<path fill-rule="evenodd" clip-rule="evenodd" d="M128.867 58.9422C128.867 57.8175 129.776 56.8984 130.895 56.8984H138.85C139.968 56.8984 140.878 57.8163 140.878 58.9267C140.878 60.0511 139.97 60.9702 138.85 60.9702H130.895C129.6 60.9702 128.946 62.0189 128.946 62.9375V79.3528C128.946 80.4772 128.036 81.3966 126.918 81.3966C125.799 81.3966 124.889 80.4772 124.889 79.3528V62.9531C124.889 61.8286 125.799 60.9096 126.918 60.9096C128.045 60.9096 128.867 59.9346 128.867 58.9422ZM130.895 57.0196C129.844 57.0196 128.988 57.8835 128.988 58.9422C128.988 59.9945 128.119 61.0307 126.918 61.0307C125.866 61.0307 125.01 61.8946 125.01 62.9531V79.3528C125.01 80.4113 125.866 81.2754 126.918 81.2754C127.968 81.2754 128.824 80.4113 128.824 79.3528V62.9375C128.824 61.9695 129.517 60.849 130.895 60.849H138.85C139.902 60.849 140.757 59.9852 140.757 58.9267C140.757 57.8829 139.901 57.0196 138.85 57.0196H130.895Z" fill="#75FEFA"/>
<path d="M165.452 74.9548V74.9571C165.467 75.9956 164.614 77.0164 163.439 77.0164H147.38C146.438 77.0164 145.351 76.3375 145.351 74.986V62.9375V62.9372V62.9369V62.9366V62.9363V62.936V62.9357V62.9354V62.9351V62.9349V62.9346V62.9343V62.934V62.9337V62.9334V62.9331V62.9328V62.9325V62.9323V62.932V62.9317V62.9314V62.9311V62.9308V62.9305V62.9302V62.9299V62.9297V62.9294V62.9291V62.9288V62.9285V62.9282V62.9279V62.9276V62.9273V62.9271V62.9268V62.9265V62.9262V62.9259V62.9256V62.9253V62.925V62.9247V62.9245V62.9242V62.9239V62.9236V62.9233V62.923V62.9227V62.9224V62.9221C145.351 61.9781 146.03 60.8917 147.38 60.8917H163.423C164.445 60.8917 165.452 61.7442 165.452 62.9221V74.9548ZM167.453 60.9673C166.51 60.9673 165.424 60.2884 165.424 58.9369C165.424 57.8432 164.533 56.9512 163.439 56.9512H147.38C146.286 56.9512 145.395 57.8432 145.395 58.9369C145.395 59.96 144.542 60.9673 143.366 60.9673C142.272 60.9673 141.381 61.8594 141.381 62.953V74.986C141.381 76.0796 142.272 76.9717 143.366 76.9717C144.388 76.9717 145.395 77.8242 145.395 79.0021C145.395 80.0961 146.286 80.9875 147.38 80.9875H163.423C164.518 80.9875 165.409 80.0961 165.409 79.0021C165.409 78.0581 166.088 76.9717 167.438 76.9717C168.532 76.9717 169.423 76.0796 169.423 74.986V62.9375C169.423 61.8438 168.548 60.9673 167.453 60.9673Z" fill="#75FEFA"/>
<path fill-rule="evenodd" clip-rule="evenodd" d="M145.335 58.9359C145.335 57.8089 146.253 56.8896 147.38 56.8896H163.439C164.566 56.8896 165.485 57.8089 165.485 58.9359C165.485 60.2463 166.536 60.9058 167.453 60.9058C168.581 60.9058 169.484 61.8094 169.484 62.9365V74.985C169.484 76.1121 168.566 77.0313 167.438 77.0313C166.129 77.0313 165.469 78.0823 165.469 79.0012C165.469 80.1286 164.551 81.0472 163.423 81.0472H147.38C146.253 81.0472 145.335 80.1286 145.335 79.0012C145.335 77.8596 144.357 77.0313 143.366 77.0313C142.238 77.0313 141.32 76.1121 141.32 74.985V62.9521C141.32 61.825 142.238 60.9058 143.366 60.9058C144.506 60.9058 145.335 59.9287 145.335 58.9359ZM147.38 57.0108C146.32 57.0108 145.456 57.8757 145.456 58.9359C145.456 59.9895 144.579 61.027 143.366 61.027C142.305 61.027 141.441 61.8919 141.441 62.9521V74.985C141.441 76.0452 142.305 76.9101 143.366 76.9101C144.418 76.9101 145.456 77.7868 145.456 79.0012C145.456 80.0617 146.32 80.926 147.38 80.926H163.423C164.484 80.926 165.348 80.0617 165.348 79.0012C165.348 78.032 166.047 76.9101 167.438 76.9101C168.499 76.9101 169.363 76.0452 169.363 74.985V62.9365C169.363 61.8763 168.514 61.027 167.453 61.027C166.485 61.027 165.364 60.3286 165.364 58.9359C165.364 57.8757 164.5 57.0108 163.439 57.0108H147.38ZM147.38 60.9513C146.071 60.9513 145.412 62.0023 145.412 62.9212V74.985C145.412 76.2954 146.463 76.9549 147.38 76.9549H163.439C164.577 76.9549 165.406 75.9651 165.392 74.957L165.392 74.9561V62.9212C165.392 61.7796 164.415 60.9513 163.423 60.9513H147.38ZM145.291 62.9212C145.291 61.952 145.989 60.8302 147.38 60.8302H163.423C164.476 60.8302 165.513 61.7069 165.513 62.9212V74.9558C165.528 76.0245 164.651 77.0761 163.439 77.0761H147.38C146.413 77.0761 145.291 76.3777 145.291 74.985V62.9212Z" fill="#75FEFA"/>
<path d="M118.91 60.9673C117.976 60.9673 116.898 60.2884 116.898 58.9369C116.898 57.8432 116.015 56.9512 114.929 56.9512H99.0216C97.9369 56.9512 97.053 57.8432 97.053 58.9369C97.053 59.96 96.2075 60.9673 95.0407 60.9673C93.9557 60.9673 93.0721 61.8594 93.0721 62.953V74.986C93.0721 76.0796 93.9557 76.9717 95.0407 76.9717C96.054 76.9717 97.053 77.8242 97.053 79.0021C97.053 80.0961 97.9369 80.9875 99.0216 80.9875H114.929C116.015 80.9875 116.898 80.0961 116.898 79.0021C116.898 78.0581 117.572 76.9717 118.91 76.9717C119.995 76.9717 120.879 76.0796 120.879 74.986V62.9375C120.879 61.8421 119.994 60.9673 118.91 60.9673ZM114.929 77.0164H99.0216C98.0866 77.0164 97.0094 76.3375 97.0094 74.986V62.9375V62.9372V62.9369V62.9366V62.9363V62.936V62.9357V62.9354V62.9351V62.9349V62.9346V62.9343V62.934V62.9337V62.9334V62.9331V62.9328V62.9325V62.9323V62.932V62.9317V62.9314V62.9311V62.9308V62.9305V62.9302V62.9299V62.9297V62.9294V62.9291V62.9288V62.9285V62.9282V62.9279V62.9276V62.9273V62.9271V62.9268V62.9265V62.9262V62.9259V62.9256V62.9253V62.925V62.9247V62.9245V62.9242V62.9239V62.9236V62.9233V62.923V62.9227V62.9224V62.9221C97.0094 61.9781 97.683 60.8917 99.0216 60.8917H114.929C115.943 60.8917 116.942 61.7442 116.942 62.9221V74.9548C116.942 75.9956 116.094 77.0164 114.929 77.0164Z" fill="#75FEFA"/>
<path fill-rule="evenodd" clip-rule="evenodd" d="M96.9924 58.9359C96.9924 57.8093 97.903 56.8896 99.0216 56.8896H114.929C116.049 56.8896 116.959 57.8094 116.959 58.9359C116.959 60.2468 118.001 60.9058 118.91 60.9058C120.027 60.9058 120.939 61.8075 120.939 62.9365V74.985C120.939 76.1116 120.029 77.0313 118.91 77.0313C117.613 77.0313 116.959 78.0818 116.959 79.0012C116.959 80.1281 116.049 81.0472 114.929 81.0472H99.0216C97.903 81.0472 96.9924 80.1281 96.9924 79.0012C96.9924 77.8591 96.0231 77.0313 95.0408 77.0313C93.9218 77.0313 93.0115 76.1116 93.0115 74.985V62.9521C93.0115 61.8255 93.9218 60.9058 95.0408 60.9058C96.1706 60.9058 96.9924 59.9292 96.9924 58.9359ZM99.0216 57.0108C97.9709 57.0108 97.1136 57.8753 97.1136 58.9359C97.1136 59.989 96.2444 61.027 95.0408 61.027C93.9897 61.027 93.1327 61.8914 93.1327 62.9521V74.985C93.1327 76.0457 93.9897 76.9101 95.0408 76.9101C96.085 76.9101 97.1136 77.7873 97.1136 79.0012C97.1136 80.0621 97.9709 80.926 99.0216 80.926H114.929C115.981 80.926 116.837 80.0622 116.837 79.0012C116.837 78.0325 117.53 76.9101 118.91 76.9101C119.961 76.9101 120.818 76.0457 120.818 74.985V62.9365C120.818 61.8748 119.961 61.027 118.91 61.027C117.95 61.027 116.837 60.3282 116.837 58.9359C116.837 57.8752 115.981 57.0108 114.929 57.0108H99.0216ZM99.0216 60.9513C97.7246 60.9513 97.07 62.0018 97.07 62.9212V74.985C97.07 76.2959 98.1124 76.9549 99.0216 76.9549H114.929C116.057 76.9549 116.881 75.9655 116.881 74.9538V62.9212C116.881 61.7792 115.912 60.9513 114.929 60.9513H99.0216ZM96.9488 62.9212C96.9488 61.9525 97.6414 60.8302 99.0216 60.8302H114.929C115.974 60.8302 117.003 61.7073 117.003 62.9212V74.9538C117.003 76.0237 116.132 77.0761 114.929 77.0761H99.0216C98.0609 77.0761 96.9488 76.3772 96.9488 74.985V62.9212Z" fill="#75FEFA"/>
<path d="M213.49 54.7457V54.5881H213.469C213.389 53.5599 212.532 52.7459 211.49 52.7459C210.549 52.7459 209.463 52.0627 209.463 50.7026C209.463 49.6015 208.573 48.7031 207.478 48.7031H179.426C178.333 48.7031 177.442 49.6015 177.442 50.7026C177.442 51.7323 176.59 52.7459 175.415 52.7459C174.321 52.7459 173.43 53.6442 173.43 54.7457V74.9447C173.43 76.0462 174.321 76.9445 175.415 76.9445C176.435 76.9445 177.442 77.8023 177.442 78.9878C177.442 80.0889 178.333 80.9873 179.426 80.9873H207.494C208.588 80.9873 209.479 80.0889 209.479 78.9878V78.9875V78.9872V78.9869V78.9866V78.9863V78.986V78.9857V78.9854V78.9851V78.9849V78.9846V78.9843V78.984V78.9837V78.9834V78.9831V78.9828V78.9825V78.9822V78.9819V78.9817V78.9814V78.9811V78.9808V78.9805V78.9802V78.9799V78.9796V78.9793V78.979V78.9787V78.9784V78.9781V78.9779V78.9776V78.9773V78.977V78.9767V78.9764V78.9761V78.9758V78.9755V78.9752V78.9749V78.9746V78.9744V78.9741V78.9738V78.9735V78.9732V78.9729V78.9726V78.9723V78.972C209.479 78.022 210.157 76.9287 211.506 76.9287H212.234C212.925 76.9287 213.49 76.3585 213.49 75.6627V74.211V74.2107V74.2104V74.2101V74.2098V74.2095V74.2092V74.2089V74.2086V74.2084V74.2081V74.2078V74.2075V74.2072V74.2069V74.2066V74.2063V74.206V74.2057V74.2054V74.2051V74.2049V74.2046V74.2043V74.204V74.2037V74.2034V74.2031V74.2028V74.2025V74.2022V74.2019V74.2016V74.2014V74.2011V74.2008V74.2005V74.2002V74.1999V74.1996V74.1993V74.199V74.1987V74.1984V74.1981V74.1978V74.1976V74.1973V74.197V74.1967V74.1964V74.1961V74.1958V74.1955V74.1952V74.1949V74.1946V74.1943V74.1941V74.1938V74.1935V74.1932V74.1929V74.1926V74.1923V74.192V74.1917V74.1914V74.1911V74.1908V74.1906V74.1903V74.19V74.1897V74.1894V74.1891V74.1888V74.1885V74.1882V74.1879V74.1876V74.1873V74.1871V74.1868V74.1865V74.1862V74.1859V74.1856V74.1853V74.185V74.1847V74.1844V74.1841V74.1838V74.1835V74.1833V74.183V74.1827V74.1824V74.1821V74.1818V74.1815V74.1812V74.1809V74.1806V74.1803V74.18V74.1798V74.1795V74.1792V74.1789V74.1786V74.1783V74.178V74.1777V74.1774V74.1771V74.1768V74.1765V74.1763V74.176V74.1757V74.1754V74.1751V74.1748V74.1745V74.1742V74.1739V74.1736V74.1733V74.173V74.1727V74.1725V74.1722V74.1719V74.1716V74.1713V74.171V74.1707V74.1704V74.1701V74.1698V74.1695V74.1692V74.169V74.1687V74.1684V74.1681V74.1678V74.1675V74.1672V74.1669V74.1666V74.1663V74.166V74.1657V74.1655V74.1652V74.1649V74.1646V74.1643V74.164V74.1637V74.1634V74.1631V74.1628V74.1625V74.1622V74.1619V74.1617V74.1614V74.1611V74.1608V74.1605V74.1602V74.1599V74.1596V74.1593V74.159V74.1587V74.1585V74.1582V74.1579V74.1576V74.1573V74.157V74.1567V74.1564V74.1561V74.1558V74.1555V74.1552V74.1549V74.1547V74.1544V74.1541V74.1538V74.1535V74.1532V74.1529V74.1526V74.1523V74.152V74.1517V74.1514V74.1512V74.1509V74.1506V74.1503V74.15V74.1497V74.1494V74.1491V74.1488V74.1485V74.1482V74.1479V74.1477V74.1474V74.1471V74.1468V74.1465V74.1462V74.1459V74.1456V74.1453V74.145V74.1447V74.1444V74.1441V74.1439V74.1436V74.1433V74.143V74.1427V74.1424V74.1421V74.1418V74.1415V74.1412V74.1409V74.1406V74.1404V74.1401V74.1398V74.1395V74.1392V74.1389V74.1386V74.1383V74.138V74.1377V74.1374V74.1371V74.1369V74.1366V74.1363V74.136V74.1357V74.1354V74.1351V74.1348V74.1345V74.1342V74.1339V74.1336V74.1334V74.1331V74.1328V74.1325V74.1322V74.1319V74.1316V74.1313V74.131V74.1307V74.1304V74.1301V74.1298V74.1296V74.1293V74.129V74.1287V74.1284V74.1281V74.1278V74.1275V74.1272V74.1269V74.1266V74.1263V74.1261V74.1258V74.1255V74.1252V74.1249V74.1246V74.1243V74.124V74.1237V74.1234V74.1231V74.1228V74.1226V74.1223V74.122V74.1217V74.1214V74.1211V74.1208V74.1205V74.1202V74.1199V74.1196V74.1193V74.1191V74.1188V74.1185V74.1182V74.1179V74.1176V74.1173V54.7457ZM179.426 76.9725H179.27V76.9819C178.368 76.9106 177.399 76.2297 177.399 74.9447V54.7457V54.7454V54.7451V54.7448V54.7445V54.7442V54.7439V54.7437V54.7434V54.7431V54.7428V54.7425V54.7422V54.7419V54.7416V54.7413V54.741V54.7407V54.7404V54.7402V54.7399V54.7396V54.7393V54.739V54.7387V54.7384V54.7381V54.7378V54.7375V54.7372V54.7369V54.7366V54.7364V54.7361V54.7358V54.7355V54.7352V54.7349V54.7346V54.7343V54.734V54.7337V54.7334V54.7331V54.7329V54.7326V54.7323V54.732V54.7317V54.7314V54.7311V54.7308V54.7305V54.7302V54.7299C177.399 53.7802 178.078 52.6867 179.426 52.6867H207.494C208.502 52.6867 209.521 53.531 209.521 54.7145V54.7299V74.9292V74.9447C209.521 75.958 208.67 76.9725 207.494 76.9725H179.426Z" fill="#75FEFA"/>
<path fill-rule="evenodd" clip-rule="evenodd" d="M177.381 50.7036C177.381 49.5695 178.299 48.6436 179.426 48.6436H207.479C208.607 48.6436 209.524 49.5695 209.524 50.7036C209.524 52.0229 210.575 52.6863 211.49 52.6863C212.545 52.6863 213.416 53.496 213.524 54.5285H213.551V75.6637C213.551 76.3925 212.959 76.9903 212.234 76.9903H211.506C210.199 76.9903 209.539 78.0478 209.539 78.973V78.9888C209.539 80.123 208.622 81.0489 207.494 81.0489H179.426C178.299 81.0489 177.381 80.123 177.381 78.9888C177.381 77.8393 176.405 77.0061 175.415 77.0061C174.287 77.0061 173.369 76.0802 173.369 74.9457V54.7467C173.369 53.6122 174.287 52.6863 175.415 52.6863C176.553 52.6863 177.381 51.7033 177.381 50.7036ZM213.43 54.6497H213.413L213.409 54.5938C213.331 53.5965 212.499 52.8075 211.49 52.8075C210.523 52.8075 209.403 52.1044 209.403 50.7036C209.403 49.6355 208.539 48.7647 207.479 48.7647H179.426C178.366 48.7647 177.503 49.6355 177.503 50.7036C177.503 51.7633 176.627 52.8075 175.415 52.8075C174.355 52.8075 173.49 53.6783 173.49 54.7467V74.9457C173.49 76.0142 174.355 76.8849 175.415 76.8849C176.466 76.8849 177.503 77.7673 177.503 78.9888C177.503 80.057 178.366 80.9277 179.426 80.9277H207.494C208.554 80.9277 209.418 80.0569 209.418 78.9888V78.973C209.418 77.9983 210.115 76.8692 211.506 76.8692H212.234C212.891 76.8692 213.43 76.3265 213.43 75.6637V54.6497ZM179.426 52.7483C178.119 52.7483 177.46 53.806 177.46 54.731V74.9457C177.46 76.1617 178.352 76.8201 179.209 76.9162V76.9129H207.494C208.634 76.9129 209.461 75.9288 209.461 74.9457V54.7155C209.461 53.5688 208.472 52.7483 207.494 52.7483H179.426ZM179.33 77.0341H207.494C208.707 77.0341 209.582 75.9893 209.582 74.9457V54.7155C209.582 53.4952 208.532 52.6271 207.494 52.6271H179.426C178.036 52.6271 177.339 53.7565 177.339 54.731V74.9457C177.339 76.2689 178.339 76.9701 179.265 77.0433L179.33 77.0484V77.0341Z" fill="#75FEFA"/>
<path d="M244.026 61.0067C243.081 61.0067 241.995 60.3191 241.995 58.9563C241.995 57.8496 241.102 56.9512 240.011 56.9512H223.966C222.875 56.9512 221.982 57.8496 221.982 58.9563C221.982 59.9872 221.131 61.0067 219.951 61.0067C218.86 61.0067 217.967 61.9052 217.967 63.0119V79.2183C217.967 80.3247 218.86 81.2232 219.951 81.2232C221.042 81.2232 221.934 80.3247 221.934 79.2183V62.9961V62.9818C221.949 62.0443 222.629 60.9461 223.966 60.9461H240.011C241.037 60.9461 242.043 61.8087 242.043 62.9961V79.2183C242.043 80.3247 242.935 81.2232 244.026 81.2232C245.118 81.2232 246.01 80.3247 246.01 79.2183V62.9961C246.01 61.888 245.116 61.0067 244.026 61.0067Z" fill="#75FEFA"/>
<path fill-rule="evenodd" clip-rule="evenodd" d="M221.922 58.9554C221.922 57.8158 222.841 56.8896 223.966 56.8896H240.011C241.136 56.8896 242.055 57.8158 242.055 58.9554C242.055 60.2775 243.107 60.9452 244.026 60.9452C245.149 60.9452 246.07 61.8535 246.07 62.9952V79.2174C246.07 80.3567 245.152 81.2828 244.026 81.2828C242.901 81.2828 241.982 80.3567 241.982 79.2174V62.9952C241.982 61.8436 241.006 61.0057 240.011 61.0057H223.966C222.671 61.0057 222.01 62.0676 221.995 62.9814V79.2174C221.995 80.3567 221.076 81.2828 219.951 81.2828C218.826 81.2828 217.907 80.3567 217.907 79.2174V63.011C217.907 61.8714 218.826 60.9452 219.951 60.9452C221.094 60.9452 221.922 59.9564 221.922 58.9554ZM223.966 57.0108C222.909 57.0108 222.043 57.8816 222.043 58.9554C222.043 60.0161 221.168 61.0664 219.951 61.0664C218.894 61.0664 218.028 61.9372 218.028 63.011V79.2174C218.028 80.2909 218.894 81.1617 219.951 81.1617C221.008 81.1617 221.874 80.2909 221.874 79.2174V62.98C221.889 62.0188 222.587 60.8845 223.966 60.8845H240.011C241.068 60.8845 242.104 61.7719 242.104 62.9952V79.2174C242.104 80.2909 242.969 81.1617 244.026 81.1617C245.084 81.1617 245.949 80.2909 245.949 79.2174V62.9952C245.949 61.9206 245.082 61.0664 244.026 61.0664C243.055 61.0664 241.934 60.3587 241.934 58.9554C241.934 57.8816 241.068 57.0108 240.011 57.0108H223.966Z" fill="#75FEFA"/>
<path d="M50.7395 52.5373H50.7372C49.6605 52.5543 48.7705 53.4576 48.7705 54.5662V74.9028C48.7705 76.0119 49.6614 76.9161 50.7551 76.9161C51.6825 76.9161 52.7676 77.5896 52.7823 78.9428V78.9434V78.944V78.9446V78.9452V78.9458V78.9463V78.9469V78.9475V78.9481V78.9487V78.9493V78.9499V78.9504V78.951V78.9516V78.9522V78.9528V78.9534V78.954V78.9545V78.9551V78.9557V78.9563V78.9569V78.9575V78.9581V78.9587V78.9592V78.9598V78.9604V78.961V78.9616V78.9622V78.9628V78.9633V78.9639V78.9645V78.9651V78.9657V78.9663V78.9669V78.9674V78.968V78.9686V78.9692V78.9698V78.9704V78.971V78.9715V78.9721V78.9727V78.9733C52.7823 80.0822 53.6732 80.9866 54.7669 80.9866H82.8347C83.9282 80.9866 84.8193 80.0822 84.8193 78.9733C84.8193 78.017 85.4977 76.9161 86.8463 76.9161C87.9403 76.9161 88.8311 76.0119 88.8311 74.9028C88.8311 73.7939 87.9403 72.8895 86.8463 72.8895C85.7528 72.8895 84.862 73.7939 84.862 74.9028V74.9174C84.847 75.9408 84.0086 76.96 82.8347 76.96H54.7669C53.7461 76.96 52.7397 76.0963 52.7397 74.9028V54.5662V54.5656V54.565V54.5644V54.5638V54.5632V54.5627V54.5621V54.5615V54.5609V54.5603V54.5597V54.5591V54.5585V54.558V54.5574V54.5568V54.5562V54.5556V54.555V54.5544V54.5539V54.5533V54.5527V54.5521V54.5515V54.5509C52.7397 53.5947 53.4181 52.4934 54.7669 52.4934H82.8347C83.7763 52.4934 84.8614 53.181 84.862 54.5495C84.8455 55.6768 85.739 56.5639 86.831 56.5639C87.9247 56.5639 88.8159 55.6595 88.8159 54.5506C88.8159 53.4414 87.9247 52.5373 86.831 52.5373C85.8102 52.5373 84.8037 51.6734 84.8037 50.4801C84.8037 49.3712 83.9129 48.4668 82.8192 48.4668H54.7516C53.6579 48.4668 52.7668 49.3712 52.7668 50.4801C52.7668 51.5166 51.9151 52.5373 50.7395 52.5373Z" fill="#75FEFA"/>
<path fill-rule="evenodd" clip-rule="evenodd" d="M52.7058 50.4801C52.7058 49.3386 53.6232 48.4062 54.7513 48.4062H82.8188C83.9468 48.4062 84.8639 49.3386 84.8639 50.4801C84.8639 51.6378 85.8411 52.4768 86.8306 52.4768C87.9586 52.4768 88.8761 53.4088 88.8761 54.5507C88.8761 55.6922 87.9586 56.6246 86.8306 56.6246C85.705 56.6246 84.7843 55.71 84.801 54.549C84.8001 53.2213 83.7497 52.554 82.8343 52.554H54.7665C53.4596 52.554 52.7999 53.619 52.7999 54.551V74.9028C52.7999 76.0608 53.777 76.8995 54.7665 76.8995H82.8343C83.9705 76.8995 84.7863 75.9117 84.801 74.9169V74.9028C84.801 73.7613 85.7181 72.8289 86.8459 72.8289C87.9742 72.8289 88.8913 73.7613 88.8913 74.9028C88.8913 76.0446 87.9742 76.9767 86.8459 76.9767C85.5393 76.9767 84.8795 78.0414 84.8795 78.9733C84.8795 80.1149 83.9621 81.0472 82.8343 81.0472H54.7665C53.6385 81.0472 52.7214 80.1149 52.7214 78.9733V78.9435C52.7214 78.9434 52.7214 78.9435 52.7214 78.9435M52.7214 78.9435C52.7069 77.6308 51.6565 76.9767 50.7547 76.9767C49.6267 76.9767 48.7095 76.0446 48.7095 74.9028V54.5662C48.7095 53.4251 49.6255 52.4943 50.7359 52.4768L50.7368 52.4768L50.7391 52.4768C51.8775 52.4768 52.7058 51.4871 52.7058 50.4801M54.7513 48.5274C53.6918 48.5274 52.827 49.4039 52.827 50.4801C52.827 51.5462 51.9519 52.598 50.7391 52.598H50.7373C49.6945 52.6147 48.8307 53.4903 48.8307 54.5662V74.9028C48.8307 75.9794 49.6952 76.8555 50.7547 76.8555C51.7077 76.8555 52.8274 77.5486 52.8425 78.9422L52.8425 78.9429L52.8425 78.9435V78.9733C52.8425 80.0496 53.7071 80.9261 54.7665 80.9261H82.8343C83.8935 80.9261 84.7583 80.0496 84.7583 78.9733C84.7583 77.9928 85.4554 76.8555 86.8459 76.8555C87.9056 76.8555 88.7702 75.9793 88.7702 74.9028C88.7702 73.8265 87.9056 72.9501 86.8459 72.9501C85.7867 72.9501 84.9222 73.8265 84.9222 74.9028V74.9174L84.9221 74.9183C84.9067 75.9701 84.0458 77.0206 82.8343 77.0206H54.7665C53.7144 77.0206 52.6787 76.132 52.6787 74.9028V54.551C52.6787 53.5704 53.3758 52.4328 54.7665 52.4328H82.8343C83.802 52.4328 84.9216 53.1406 84.9222 54.5495L84.9221 54.5504C84.9062 55.6439 85.7723 56.5034 86.8306 56.5034C87.8901 56.5034 88.7549 55.6269 88.7549 54.5507C88.7549 53.4741 87.8901 52.598 86.8306 52.598C85.7785 52.598 84.7428 51.709 84.7428 50.4801C84.7428 49.4039 83.8782 48.5274 82.8188 48.5274H54.7513Z" fill="#75FEFA"/>
<path d="M254.411 56.9512H254.257V57.1083V60.5645V60.7216H254.411H273.663H273.816V60.5645V57.1083V56.9512H273.663H254.411Z" fill="#75FEFA"/>
<path fill-rule="evenodd" clip-rule="evenodd" d="M254.197 56.8896H273.877V60.7812H254.197V56.8896ZM254.318 57.0108V60.6601H273.756V57.0108H254.318Z" fill="#75FEFA"/>
<path d="M277.903 68.725H278.059V68.5678V61.1135V60.9561H277.903H274.258H274.102V61.1135V64.555H253.973V61.4046V61.2471H253.817H250.172H250.016V61.4046V76.8231V76.9803H250.172H253.817H253.973V76.8231V68.725H274.258H276.073H277.903Z" fill="#75FEFA"/>
<path fill-rule="evenodd" clip-rule="evenodd" d="M274.042 60.8955H278.12V68.7856H254.034V77.0409H249.956V61.1866H254.034V64.4945H274.042V60.8955ZM274.163 61.0167V64.6156H253.913V61.3077H250.077V76.9198H253.913V68.6645H277.998V61.0167H274.163Z" fill="#75FEFA"/>
<path d="M254.179 77.2168H254.022V77.378V81.0617V81.2229H254.179H273.895H274.052V81.0617V77.378V77.2168H273.895H254.179Z" fill="#75FEFA"/>
<path fill-rule="evenodd" clip-rule="evenodd" d="M253.961 77.1553H274.113V81.2825H253.961V77.1553ZM254.082 77.2764V81.1613H273.992V77.2764H254.082Z" fill="#75FEFA"/>
<path d="M278.058 73.3692V73.21H277.907H274.44H274.288V73.3692V74.9214V74.9217V74.922V74.9223V74.9229V74.9232V74.9235V74.9238V74.9241V74.9243V74.9249V74.9252V74.9255V74.9258V74.9261V74.9264V74.9267V74.9273V74.9276V74.9279V74.9282V74.9285V74.9288V74.9291V74.9293V74.9296V74.9302V74.9305V74.9308V74.9311V74.9314V74.9317V74.932V74.9323V74.9326V74.9332V74.9335V74.9338V74.9341V74.9344V74.9346V74.9349V74.9355V74.9358V74.9361V74.9364V74.9367V74.937V74.9373V74.9376V74.9379V74.9385V74.9388V74.9391V74.9394V74.9396V74.9399V74.9402V74.9408V74.9411V74.9414V74.9417V74.942V74.9423V74.9426V74.9429V74.9435V74.9438V74.9441V74.9444V74.9447V74.9449V74.9452V74.9458V74.9461V74.9464V74.9467V74.947V74.9473V74.9479V74.9482V74.9485V74.9488V74.9491V74.9497V74.9499V74.9502V74.9505V74.9508V74.9511V74.9514V74.952V74.9523V74.9526V74.9529V74.9532V74.9535V74.9538V74.9541V74.9544V74.955V74.9552V74.9555V74.9558V74.9561V74.9564V74.9567V74.957V74.9573V74.9579V74.9582V74.9585V74.9588V74.9591V74.9594V74.9597V74.96V74.9602V74.9608V74.9611V74.9614V74.9617V74.962V74.9623V74.9626V74.9629V74.9632V74.9638V74.9641V74.9644V74.9647V74.965V74.9653V74.9655V74.9661V74.9664V74.9667V74.967V74.9673V74.9676V74.9679V74.9682V74.9685V74.9688V74.9694V74.9697V74.97V74.9703V74.9705V74.9708V74.9711V74.9717V74.972V74.9723V74.9726V74.9729V74.9732V74.9738V74.9741V74.9744V74.9747V76.8215V76.9804H274.44H276.166H277.907H278.058V76.8215V73.3692Z" fill="#75FEFA"/>
<path fill-rule="evenodd" clip-rule="evenodd" d="M274.227 73.1504H278.119V77.042H274.227V73.1504ZM274.348 73.2716V76.9208H277.998V73.2716H274.348Z" fill="#75FEFA"/>
<path d="M50.4118 90.6494L53.8777 96.1549L57.3436 90.6494H58.8334V101.475H57.4044V92.9227L54.2122 97.9952H53.5433L50.3662 92.9227V101.475H48.9221V90.6494H50.4118ZM68.4029 97.3921C68.4029 97.4745 68.3929 97.5982 68.3725 97.7632H61.9575C62.0183 98.5469 62.292 99.2065 62.7784 99.7427C63.2648 100.269 63.9489 100.531 64.8306 100.531C65.2562 100.531 65.6921 100.454 66.1379 100.299C66.584 100.134 66.964 99.9179 67.278 99.6499L67.9164 100.531C67.5314 100.903 67.05 101.191 66.4723 101.397C65.9049 101.604 65.317 101.707 64.709 101.707C63.5537 101.707 62.5758 101.336 61.7751 100.593C60.9747 99.851 60.5742 98.9076 60.5742 97.7632C60.5742 96.5879 60.9542 95.5877 61.7143 94.7631C62.4846 93.928 63.4168 93.5104 64.5113 93.5104C65.7274 93.5104 66.6802 93.8866 67.3692 94.6393C68.0585 95.3816 68.4029 96.2991 68.4029 97.3921ZM67.0652 96.758C66.964 96.1599 66.6904 95.6704 66.2443 95.2889C65.8087 94.8972 65.2311 94.7012 64.5113 94.7012C63.9033 94.7012 63.3712 94.8918 62.9152 95.2734C62.4592 95.6445 62.1551 96.1394 62.0031 96.758H67.0652ZM69.9183 101.475V103.655H68.6718V100.269H69.5839C69.8879 99.8251 70.1414 99.191 70.344 98.3664C70.5466 97.5417 70.648 96.6498 70.648 95.6909V93.7424H76.3637V100.269H77.5342V103.655H76.2117V101.475H69.9183ZM74.9956 100.269V94.9641H71.9553V95.8301C71.9553 96.6962 71.8641 97.5467 71.6817 98.3818C71.4993 99.2169 71.2865 99.8459 71.0432 100.269H74.9956ZM80.3771 93.7424V99.5726C82.9818 96.0157 84.4055 94.0722 84.6487 93.7424H86.0472V101.475H84.6791V95.6755L80.4227 101.475H79.0242V93.7424H80.3771ZM90.1753 101.707C89.3848 101.707 88.7566 101.511 88.2903 101.119C87.8343 100.727 87.6063 100.191 87.6063 99.5107C87.6063 99.1705 87.6621 98.8716 87.7735 98.6138C87.8851 98.3458 88.0269 98.124 88.1991 97.9488C88.3716 97.7736 88.6046 97.624 88.8984 97.5003C89.2024 97.3766 89.4862 97.2788 89.7496 97.2065C90.0233 97.1342 90.3679 97.0828 90.7833 97.0518C91.209 97.0105 91.5688 96.9849 91.8626 96.9745C92.1666 96.9641 92.5519 96.954 93.0179 96.9436V96.3095C93.0179 95.1961 92.4099 94.6393 91.1938 94.6393C90.2919 94.6393 89.4813 94.9641 88.7615 95.6136L88.0167 94.7631C88.9188 93.928 90.0183 93.5104 91.3154 93.5104C91.9337 93.5104 92.4555 93.5928 92.8811 93.7578C93.317 93.9229 93.6362 94.1495 93.8388 94.4383C94.0417 94.7167 94.1835 94.995 94.2644 95.2734C94.3457 95.5518 94.386 95.8506 94.386 96.1704V101.475H93.0179V100.114C92.1871 101.176 91.2394 101.707 90.1753 101.707ZM90.5097 100.64C91.4624 100.64 92.2985 100.088 93.0179 98.9849V97.8405C92.045 97.8405 91.2344 97.8973 90.5857 98.0107C90.3831 98.0416 90.1805 98.0984 89.9777 98.1808C89.7751 98.2632 89.5672 98.4178 89.3544 98.6447C89.1518 98.8612 89.0504 99.1191 89.0504 99.418C89.0504 99.8406 89.1974 100.15 89.4912 100.346C89.7952 100.542 90.1349 100.64 90.5097 100.64ZM96.2266 97.5931V96.3095H100.468V97.5931H96.2266ZM103.27 97.6086C103.27 98.4127 103.523 99.0828 104.03 99.619C104.537 100.145 105.18 100.408 105.961 100.408C106.761 100.408 107.496 100.114 108.165 99.5262C108.195 99.5676 108.302 99.7118 108.484 99.9592C108.676 100.196 108.819 100.382 108.91 100.516C108.099 101.31 107.101 101.707 105.915 101.707C104.8 101.707 103.858 101.3 103.088 100.485C102.328 99.6705 101.948 98.7116 101.948 97.6086C101.948 96.5156 102.328 95.5622 103.088 94.7476C103.858 93.9229 104.8 93.5104 105.915 93.5104C107.091 93.5104 108.089 93.9125 108.91 94.7167C108.819 94.8508 108.676 95.0414 108.484 95.2889C108.302 95.5259 108.195 95.6651 108.165 95.7064C107.496 95.1187 106.761 94.8249 105.961 94.8249C105.201 94.8249 104.562 95.0929 104.045 95.6291C103.528 96.1653 103.27 96.8249 103.27 97.6086ZM117.377 97.3921C117.377 97.4745 117.367 97.5982 117.346 97.7632H110.931C110.992 98.5469 111.266 99.2065 111.752 99.7427C112.239 100.269 112.923 100.531 113.805 100.531C114.23 100.531 114.666 100.454 115.112 100.299C115.558 100.134 115.938 99.9179 116.252 99.6499L116.89 100.531C116.505 100.903 116.024 101.191 115.446 101.397C114.879 101.604 114.291 101.707 113.683 101.707C112.528 101.707 111.549 101.336 110.749 100.593C109.948 99.851 109.548 98.9076 109.548 97.7632C109.548 96.5879 109.928 95.5877 110.688 94.7631C111.458 93.928 112.391 93.5104 113.485 93.5104C114.701 93.5104 115.654 93.8866 116.343 94.6393C117.032 95.3816 117.377 96.2991 117.377 97.3921ZM116.039 96.758C115.938 96.1599 115.664 95.6704 115.218 95.2889C114.782 94.8972 114.205 94.7012 113.485 94.7012C112.877 94.7012 112.345 94.8918 111.889 95.2734C111.433 95.6445 111.129 96.1394 110.977 96.758H116.039ZM122.955 101.707C121.881 101.707 121.004 101.294 120.325 100.47V104.394H118.972V93.7424H120.325V94.7631C121.014 93.9485 121.906 93.5413 123.001 93.5413C124.085 93.5413 124.982 93.9384 125.691 94.7321C126.411 95.5259 126.771 96.4847 126.771 97.6086C126.771 98.753 126.406 99.7222 125.676 100.516C124.956 101.31 124.05 101.707 122.955 101.707ZM122.56 94.7785C121.638 94.7785 120.893 95.1601 120.325 95.9229V99.3097C120.883 100.073 121.627 100.454 122.56 100.454C123.33 100.454 123.984 100.176 124.521 99.619C125.058 99.0623 125.327 98.3922 125.327 97.6086C125.327 96.8353 125.053 96.1703 124.506 95.6136C123.968 95.0569 123.32 94.7785 122.56 94.7785ZM134.48 95.6291C134.48 95.9797 134.384 96.3146 134.191 96.6343C133.999 96.954 133.74 97.2115 133.416 97.4075C133.842 97.5726 134.176 97.8301 134.419 98.1808C134.673 98.5314 134.799 98.9231 134.799 99.3561C134.799 99.9438 134.591 100.444 134.176 100.856C133.771 101.269 133.239 101.475 132.58 101.475H128.369V93.7424H132.398C133.006 93.7424 133.502 93.928 133.887 94.2991C134.282 94.6599 134.48 95.1033 134.48 95.6291ZM129.722 100.454H132.109C132.484 100.454 132.793 100.346 133.036 100.129C133.279 99.9024 133.401 99.6086 133.401 99.2478C133.401 98.8767 133.279 98.5778 133.036 98.3509C132.793 98.1139 132.484 97.9952 132.109 97.9952H129.722V100.454ZM133.188 95.8301C133.188 95.5104 133.066 95.2579 132.823 95.0723C132.59 94.8764 132.306 94.7785 131.972 94.7785H129.722V97.0054H131.972C132.306 97.0054 132.59 96.8921 132.823 96.6652C133.066 96.4383 133.188 96.1599 133.188 95.8301ZM137.828 93.7424V99.5726C140.432 96.0157 141.856 94.0722 142.099 93.7424H143.498V101.475H142.13V95.6755L137.873 101.475H136.475V93.7424H137.828ZM146.41 97.6086C146.41 98.4127 146.663 99.0828 147.17 99.619C147.676 100.145 148.32 100.408 149.1 100.408C149.901 100.408 150.636 100.114 151.304 99.5262C151.335 99.5676 151.441 99.7118 151.624 99.9592C151.816 100.196 151.958 100.382 152.049 100.516C151.239 101.31 150.24 101.707 149.055 101.707C147.94 101.707 146.998 101.3 146.227 100.485C145.467 99.6705 145.087 98.7116 145.087 97.6086C145.087 96.5156 145.467 95.5622 146.227 94.7476C146.998 93.9229 147.94 93.5104 149.055 93.5104C150.23 93.5104 151.228 93.9125 152.049 94.7167C151.958 94.8508 151.816 95.0414 151.624 95.2889C151.441 95.5259 151.335 95.6651 151.304 95.7064C150.636 95.1187 149.901 94.8249 149.1 94.8249C148.34 94.8249 147.702 95.0929 147.185 95.6291C146.668 96.1653 146.41 96.8249 146.41 97.6086ZM157.697 101.475V103.655H156.451V100.269H157.363C157.667 99.8251 157.92 99.191 158.123 98.3664C158.325 97.5417 158.427 96.6498 158.427 95.6909V93.7424H164.143V100.269H165.313V103.655H163.991V101.475H157.697ZM162.774 100.269V94.9641H159.734V95.8301C159.734 96.6962 159.643 97.5467 159.461 98.3818C159.278 99.2169 159.065 99.8459 158.822 100.269H162.774ZM165.891 101.475V100.346H166.408C166.884 100.346 167.214 100.098 167.396 99.6035C167.578 99.1087 167.67 98.2013 167.67 96.8817V93.7424H173.674V101.475H172.306V94.9641H169.022V97.2374C169.022 100.062 168.202 101.475 166.56 101.475H165.891ZM180.071 98.722H178.657L176.848 101.475H175.267C176.22 100.093 176.873 99.1396 177.228 98.6138C176.62 98.5106 176.138 98.2322 175.784 97.7787C175.439 97.3252 175.267 96.8095 175.267 96.2322C175.267 95.5622 175.5 94.9796 175.966 94.4847C176.433 93.9898 177.066 93.7424 177.866 93.7424H181.439V101.475H180.071V98.722ZM180.071 94.8868H177.973C177.598 94.8868 177.279 95.0105 177.015 95.2579C176.762 95.495 176.635 95.8197 176.635 96.2322C176.635 96.6447 176.762 96.9745 177.015 97.222C177.279 97.4694 177.598 97.5931 177.973 97.5931H180.071V94.8868ZM192.943 93.7424V95.0105H188.701V101.475H187.349V93.7424H192.943ZM200.999 97.3921C200.999 97.4745 200.989 97.5982 200.968 97.7632H194.553C194.614 98.5469 194.888 99.2065 195.374 99.7427C195.861 100.269 196.545 100.531 197.426 100.531C197.852 100.531 198.288 100.454 198.734 100.299C199.18 100.134 199.56 99.9179 199.874 99.6499L200.512 100.531C200.127 100.903 199.646 101.191 199.068 101.397C198.501 101.604 197.913 101.707 197.305 101.707C196.15 101.707 195.172 101.336 194.371 100.593C193.571 99.851 193.17 98.9076 193.17 97.7632C193.17 96.5879 193.55 95.5877 194.31 94.7631C195.08 93.928 196.013 93.5104 197.107 93.5104C198.323 93.5104 199.276 93.8866 199.965 94.6393C200.654 95.3816 200.999 96.2991 200.999 97.3921ZM199.661 96.758C199.56 96.1599 199.286 95.6704 198.84 95.2889C198.405 94.8972 197.827 94.7012 197.107 94.7012C196.499 94.7012 195.967 94.8918 195.511 95.2734C195.055 95.6445 194.751 96.1394 194.599 96.758H199.661ZM204.069 91.0051C204.707 91.3144 205.391 91.469 206.121 91.469C206.851 91.469 207.525 91.3144 208.143 91.0051L208.629 91.933C207.89 92.3041 207.054 92.4897 206.121 92.4897C205.179 92.4897 204.337 92.3041 203.598 91.933C203.709 91.7269 203.866 91.4176 204.069 91.0051ZM203.962 93.7424V99.5726C204.206 99.2428 205.63 97.2993 208.234 93.7424H209.633V101.475H208.264V95.6755L204.008 101.475H202.594V93.7424H203.962ZM215.858 97.7168C216.203 97.2014 216.699 96.4642 217.348 95.5054C217.996 94.5465 218.392 93.9589 218.533 93.7424H219.978V101.475H218.625V95.7064C218.381 96.057 218.123 96.4332 217.849 96.8353C217.576 97.2374 217.272 97.6859 216.937 98.1808C216.603 98.6757 216.344 99.0572 216.162 99.3252H215.554L213.107 95.7064V101.475H211.754V93.7424H213.198L215.858 97.7168ZM229.397 97.3921C229.397 97.4745 229.387 97.5982 229.367 97.7632H222.952C223.013 98.5469 223.287 99.2065 223.773 99.7427C224.259 100.269 224.943 100.531 225.825 100.531C226.251 100.531 226.687 100.454 227.132 100.299C227.578 100.134 227.958 99.9179 228.273 99.6499L228.911 100.531C228.526 100.903 228.045 101.191 227.467 101.397C226.899 101.604 226.312 101.707 225.704 101.707C224.548 101.707 223.57 101.336 222.77 100.593C221.969 99.851 221.569 98.9076 221.569 97.7632C221.569 96.5879 221.949 95.5877 222.709 94.7631C223.479 93.928 224.411 93.5104 225.506 93.5104C226.722 93.5104 227.675 93.8866 228.364 94.6393C229.053 95.3816 229.397 96.2991 229.397 97.3921ZM228.06 96.758C227.958 96.1599 227.685 95.6704 227.239 95.2889C226.803 94.8972 226.225 94.7012 225.506 94.7012C224.898 94.7012 224.366 94.8918 223.91 95.2734C223.454 95.6445 223.15 96.1394 222.998 96.758H228.06ZM234.976 101.707C233.901 101.707 233.025 101.294 232.346 100.47V104.63H230.993V93.7424H232.346V94.7631C233.035 93.9485 233.927 93.5413 235.021 93.5413C236.106 93.5413 237.002 93.9384 237.712 94.7321C238.431 95.5259 238.791 96.4847 238.791 97.6086C238.791 98.753 238.426 99.7222 237.697 100.516C236.977 101.31 236.07 101.707 234.976 101.707ZM234.581 94.7785C233.658 94.7785 232.913 95.1601 232.346 95.9229V99.3097C232.903 100.073 233.648 100.454 234.581 100.454C235.351 100.454 236.004 100.176 236.542 99.619C237.079 99.0623 237.347 98.3922 237.347 97.6086C237.347 96.8353 237.074 96.1703 236.526 95.6136C235.989 95.0569 235.341 94.7785 234.581 94.7785ZM243.992 100.5C244.783 100.5 245.447 100.222 245.984 99.6654C246.521 99.0983 246.79 98.4127 246.79 97.6086C246.79 96.8249 246.521 96.1498 245.984 95.5827C245.447 95.0155 244.783 94.7321 243.992 94.7321C243.202 94.7321 242.533 95.0155 241.986 95.5827C241.449 96.1498 241.18 96.8249 241.18 97.6086C241.18 98.4127 241.449 99.0983 241.986 99.6654C242.523 100.222 243.192 100.5 243.992 100.5ZM246.957 100.531C246.187 101.315 245.199 101.707 243.992 101.707C242.787 101.707 241.794 101.315 241.013 100.531C240.243 99.7377 239.858 98.7634 239.858 97.6086C239.858 96.4642 240.243 95.495 241.013 94.7012C241.794 93.9074 242.787 93.5104 243.992 93.5104C245.199 93.5104 246.187 93.9074 246.957 94.7012C247.727 95.495 248.112 96.4642 248.112 97.6086C248.112 98.7634 247.727 99.7377 246.957 100.531ZM255.823 95.6291C255.823 95.9797 255.727 96.3146 255.535 96.6343C255.342 96.954 255.084 97.2115 254.759 97.4075C255.185 97.5726 255.519 97.8301 255.763 98.1808C256.016 98.5314 256.143 98.9231 256.143 99.3561C256.143 99.9438 255.935 100.444 255.519 100.856C255.114 101.269 254.582 101.475 253.923 101.475H249.713V93.7424H253.741C254.349 93.7424 254.846 93.928 255.231 94.2991C255.626 94.6599 255.823 95.1033 255.823 95.6291ZM251.065 100.454H253.452C253.827 100.454 254.136 100.346 254.379 100.129C254.623 99.9024 254.744 99.6086 254.744 99.2478C254.744 98.8767 254.623 98.5778 254.379 98.3509C254.136 98.1139 253.827 97.9952 253.452 97.9952H251.065V100.454ZM254.531 95.8301C254.531 95.5104 254.41 95.2579 254.167 95.0723C253.934 94.8764 253.65 94.7785 253.315 94.7785H251.065V97.0054H253.315C253.65 97.0054 253.934 96.8921 254.167 96.6652C254.41 96.4383 254.531 96.1599 254.531 95.8301ZM50.123 110.161V115.991C52.7274 112.434 54.1514 110.491 54.3946 110.161H55.7931V117.894H54.425V112.094L50.1686 117.894H48.7701V110.161H50.123ZM63.0678 110.161V115.991C65.6725 112.434 67.0961 110.491 67.3394 110.161H68.7379V117.894H67.3698V112.094L63.1134 117.894H61.7149V110.161H63.0678ZM76.4841 114.522H72.2126V117.894H70.8597V110.161H72.2126V113.27H76.4841V110.161H77.8523V117.894H76.4841V114.522ZM80.3543 117.894V120.074H79.1078V116.687H80.0199C80.3239 116.244 80.5774 115.61 80.78 114.785C80.9829 113.96 81.084 113.069 81.084 112.11V110.161H86.7997V116.687H87.9702V120.074H86.6477V117.894H80.3543ZM85.4316 116.687V111.383H82.3913V112.249C82.3913 113.115 82.3001 113.965 82.1177 114.801C81.9353 115.636 81.7225 116.265 81.4792 116.687H85.4316ZM90.8131 110.161V115.991C93.4178 112.434 94.8415 110.491 95.0847 110.161H96.4832V117.894H95.1151V112.094L90.8587 117.894H89.4602V110.161H90.8131ZM98.4682 114.012V112.728H102.709V114.012H98.4682ZM108.704 118.126C107.63 118.126 106.753 117.713 106.074 116.888V121.048H104.721V110.161H106.074V111.182C106.763 110.367 107.655 109.96 108.75 109.96C109.834 109.96 110.731 110.357 111.44 111.151C112.16 111.945 112.519 112.903 112.519 114.027C112.519 115.172 112.155 116.141 111.425 116.935C110.705 117.728 109.798 118.126 108.704 118.126ZM108.309 111.197C107.386 111.197 106.642 111.579 106.074 112.342V115.728C106.631 116.491 107.376 116.873 108.309 116.873C109.079 116.873 109.732 116.594 110.27 116.038C110.807 115.481 111.075 114.811 111.075 114.027C111.075 113.254 110.802 112.589 110.254 112.032C109.717 111.476 109.069 111.197 108.309 111.197ZM116.125 118.126C115.334 118.126 114.706 117.93 114.24 117.538C113.784 117.146 113.555 116.61 113.555 115.93C113.555 115.589 113.611 115.29 113.723 115.033C113.834 114.765 113.976 114.543 114.148 114.368C114.321 114.192 114.554 114.043 114.848 113.919C115.152 113.795 115.435 113.698 115.699 113.625C115.972 113.553 116.317 113.502 116.733 113.471C117.158 113.429 117.518 113.404 117.812 113.393C118.116 113.383 118.501 113.373 118.967 113.362V112.728C118.967 111.615 118.359 111.058 117.143 111.058C116.241 111.058 115.43 111.383 114.711 112.032L113.966 111.182C114.868 110.347 115.968 109.929 117.265 109.929C117.883 109.929 118.405 110.012 118.83 110.177C119.266 110.342 119.585 110.568 119.788 110.857C119.991 111.135 120.133 111.414 120.214 111.692C120.295 111.971 120.335 112.269 120.335 112.589V117.894H118.967V116.533C118.136 117.595 117.189 118.126 116.125 118.126ZM116.459 117.058C117.412 117.058 118.248 116.507 118.967 115.404V114.259C117.994 114.259 117.184 114.316 116.535 114.429C116.332 114.46 116.129 114.517 115.927 114.6C115.724 114.682 115.516 114.837 115.304 115.063C115.101 115.28 115 115.538 115 115.837C115 116.259 115.147 116.569 115.44 116.765C115.744 116.961 116.084 117.058 116.459 117.058ZM123.817 113.424H125.003C125.378 113.424 125.702 113.3 125.976 113.053C126.249 112.806 126.386 112.517 126.386 112.187C126.386 111.455 125.89 111.089 124.897 111.089C124.005 111.089 123.275 111.393 122.708 112.001C122.657 111.94 122.551 111.811 122.388 111.615C122.226 111.409 122.105 111.249 122.023 111.135C122.753 110.331 123.741 109.929 124.988 109.929C125.89 109.929 126.564 110.125 127.01 110.517C127.466 110.909 127.694 111.388 127.694 111.955C127.694 112.357 127.572 112.733 127.329 113.084C127.086 113.424 126.756 113.687 126.341 113.873C126.817 114.027 127.187 114.285 127.45 114.646C127.724 114.997 127.861 115.388 127.861 115.821C127.861 116.46 127.608 117.007 127.101 117.461C126.604 117.904 125.829 118.126 124.775 118.126C123.539 118.126 122.515 117.728 121.704 116.935L122.388 116.084C123.078 116.703 123.853 117.012 124.714 117.012C125.282 117.012 125.712 116.888 126.006 116.641C126.31 116.393 126.462 116.079 126.462 115.698C126.462 115.326 126.325 115.022 126.052 114.785C125.788 114.538 125.444 114.414 125.018 114.414H123.817V113.424ZM133.51 118.126C132.436 118.126 131.559 117.713 130.88 116.888V121.048H129.527V110.161H130.88V111.182C131.569 110.367 132.461 109.96 133.555 109.96C134.64 109.96 135.537 110.357 136.246 111.151C136.966 111.945 137.325 112.903 137.325 114.027C137.325 115.172 136.961 116.141 136.231 116.935C135.511 117.728 134.604 118.126 133.51 118.126ZM133.115 111.197C132.192 111.197 131.447 111.579 130.88 112.342V115.728C131.437 116.491 132.182 116.873 133.115 116.873C133.885 116.873 134.539 116.594 135.076 116.038C135.613 115.481 135.881 114.811 135.881 114.027C135.881 113.254 135.608 112.589 135.06 112.032C134.523 111.476 133.875 111.197 133.115 111.197ZM140.931 118.126C140.14 118.126 139.512 117.93 139.046 117.538C138.59 117.146 138.362 116.61 138.362 115.93C138.362 115.589 138.417 115.29 138.529 115.033C138.64 114.765 138.782 114.543 138.955 114.368C139.127 114.192 139.36 114.043 139.654 113.919C139.958 113.795 140.241 113.698 140.505 113.625C140.779 113.553 141.123 113.502 141.539 113.471C141.964 113.429 142.324 113.404 142.618 113.393C142.922 113.383 143.307 113.373 143.773 113.362V112.728C143.773 111.615 143.165 111.058 141.949 111.058C141.047 111.058 140.236 111.383 139.517 112.032L138.772 111.182C139.674 110.347 140.773 109.929 142.071 109.929C142.689 109.929 143.211 110.012 143.637 110.177C144.072 110.342 144.391 110.568 144.594 110.857C144.797 111.135 144.939 111.414 145.02 111.692C145.101 111.971 145.142 112.269 145.142 112.589V117.894H143.773V116.533C142.942 117.595 141.995 118.126 140.931 118.126ZM141.265 117.058C142.218 117.058 143.054 116.507 143.773 115.404V114.259C142.8 114.259 141.99 114.316 141.341 114.429C141.138 114.46 140.936 114.517 140.733 114.6C140.53 114.682 140.323 114.837 140.11 115.063C139.907 115.28 139.806 115.538 139.806 115.837C139.806 116.259 139.953 116.569 140.247 116.765C140.551 116.961 140.89 117.058 141.265 117.058ZM154.126 107.841C153.69 107.945 153.199 108.053 152.652 108.166C152.115 108.279 151.679 108.367 151.345 108.429C151.02 108.491 150.66 108.573 150.265 108.677C149.88 108.78 149.576 108.888 149.353 109.001C149.13 109.115 148.897 109.264 148.654 109.45C148.421 109.635 148.238 109.852 148.107 110.099C147.985 110.347 147.879 110.651 147.787 111.012C147.696 111.372 147.64 111.79 147.62 112.264C147.894 111.625 148.324 111.135 148.912 110.795C149.5 110.455 150.133 110.285 150.812 110.285C151.907 110.285 152.824 110.63 153.564 111.321C154.314 112.001 154.689 112.929 154.689 114.105C154.689 115.27 154.324 116.234 153.594 116.997C152.875 117.749 151.902 118.126 150.676 118.126C149.358 118.126 148.345 117.703 147.635 116.857C146.936 116.012 146.587 114.806 146.587 113.239C146.587 112.569 146.607 111.981 146.647 111.476C146.698 110.97 146.784 110.527 146.906 110.146C147.037 109.754 147.169 109.429 147.301 109.171C147.433 108.903 147.63 108.666 147.894 108.46C148.167 108.243 148.421 108.078 148.654 107.965C148.887 107.841 149.216 107.718 149.642 107.594C150.078 107.47 150.468 107.372 150.812 107.3C151.157 107.218 151.628 107.11 152.226 106.975C152.834 106.831 153.376 106.697 153.853 106.573C154.025 107.357 154.116 107.78 154.126 107.841ZM150.66 116.935C151.43 116.935 152.064 116.672 152.561 116.146C153.057 115.61 153.305 114.95 153.305 114.167C153.305 113.321 153.042 112.656 152.515 112.172C151.998 111.677 151.38 111.429 150.66 111.429C149.941 111.429 149.323 111.677 148.806 112.172C148.289 112.656 148.031 113.321 148.031 114.167C148.031 114.95 148.274 115.61 148.76 116.146C149.247 116.672 149.88 116.935 150.66 116.935ZM159.881 116.919C160.671 116.919 161.335 116.641 161.872 116.084C162.409 115.517 162.678 114.832 162.678 114.027C162.678 113.244 162.409 112.569 161.872 112.001C161.335 111.434 160.671 111.151 159.881 111.151C159.09 111.151 158.421 111.434 157.874 112.001C157.337 112.569 157.068 113.244 157.068 114.027C157.068 114.832 157.337 115.517 157.874 116.084C158.411 116.641 159.08 116.919 159.881 116.919ZM162.845 116.95C162.075 117.734 161.087 118.126 159.881 118.126C158.674 118.126 157.681 117.734 156.901 116.95C156.131 116.156 155.746 115.182 155.746 114.027C155.746 112.883 156.131 111.914 156.901 111.12C157.681 110.326 158.674 109.929 159.881 109.929C161.087 109.929 162.075 110.326 162.845 111.12C163.615 111.914 164 112.883 164 114.027C164 115.182 163.615 116.156 162.845 116.95ZM171.232 110.161V111.429H168.526V117.894H167.173V111.429H164.468V110.161H171.232ZM171.986 112.697V110.161H173.339V112.527C173.339 113.043 173.491 113.424 173.795 113.672C174.109 113.919 174.525 114.043 175.042 114.043C175.65 114.043 176.324 113.965 177.064 113.811V110.161H178.417V117.894H177.064V115.033C176.212 115.177 175.488 115.249 174.89 115.249C173.988 115.249 173.279 115.038 172.762 114.615C172.245 114.182 171.986 113.543 171.986 112.697ZM181.902 110.161V115.991C184.507 112.434 185.931 110.491 186.174 110.161H187.572V117.894H186.204V112.094L181.948 117.894H180.549V110.161H181.902ZM194.832 117.894L191.244 113.857L194.68 110.161H196.352L192.765 113.857L196.504 117.894H194.832ZM189.694 110.161H191.047V117.894H189.694V110.161Z" fill="#75FEFA"/>
<path d="M201.548 116.881C202.335 116.881 202.997 116.609 203.532 116.063C204.067 115.508 204.335 114.836 204.335 114.049C204.335 113.281 204.067 112.62 203.532 112.065C202.997 111.509 202.335 111.232 201.548 111.232C200.76 111.232 200.094 111.509 199.548 112.065C199.013 112.62 198.746 113.281 198.746 114.049C198.746 114.836 199.013 115.508 199.548 116.063C200.084 116.609 200.75 116.881 201.548 116.881ZM204.501 116.911C203.734 117.679 202.749 118.063 201.548 118.063C200.346 118.063 199.357 117.679 198.579 116.911C197.812 116.134 197.428 115.18 197.428 114.049C197.428 112.928 197.812 111.979 198.579 111.201C199.357 110.424 200.346 110.035 201.548 110.035C202.749 110.035 203.734 110.424 204.501 111.201C205.269 111.979 205.652 112.928 205.652 114.049C205.652 115.18 205.269 116.134 204.501 116.911Z" fill="#75FEFA"/>
<path d="M213.336 112.11C213.336 112.453 213.24 112.782 213.048 113.095C212.856 113.408 212.598 113.66 212.275 113.852C212.699 114.014 213.033 114.266 213.275 114.609C213.527 114.953 213.654 115.336 213.654 115.76C213.654 116.336 213.447 116.826 213.033 117.23C212.629 117.633 212.099 117.835 211.442 117.835H207.247V110.262H211.261C211.866 110.262 212.361 110.444 212.745 110.808C213.139 111.161 213.336 111.595 213.336 112.11ZM208.595 116.836H210.973C211.346 116.836 211.654 116.73 211.897 116.518C212.139 116.295 212.26 116.008 212.26 115.654C212.26 115.291 212.139 114.998 211.897 114.776C211.654 114.544 211.346 114.427 210.973 114.427H208.595V116.836ZM212.048 112.307C212.048 111.994 211.927 111.747 211.685 111.565C211.452 111.373 211.17 111.277 210.836 111.277H208.595V113.458H210.836C211.17 113.458 211.452 113.347 211.685 113.125C211.927 112.903 212.048 112.63 212.048 112.307Z" fill="#75FEFA"/>
</svg>
