<svg width="848" height="195" viewBox="0 0 848 195" fill="none" xmlns="http://www.w3.org/2000/svg">
<path d="M750.856 64.9852C750.526 64.995 750.196 65 749.864 65C731.914 65 717.364 79.5508 717.364 97.5C717.364 97.6166 717.364 97.7331 717.366 97.8495C717.553 115.638 732.031 130 749.864 130C767.813 130 782.364 144.551 782.364 162.5C782.364 180.449 767.813 195 749.864 195C732.031 195 717.553 180.638 717.366 162.849H717.362C717.363 162.733 717.364 162.617 717.364 162.5C717.364 144.551 702.813 130 684.864 130C684.747 130 684.631 130.001 684.514 130.002V129.998C666.726 129.811 652.364 115.333 652.364 97.5C652.364 79.6674 666.726 65.1892 684.514 65.0018V64.9982C684.631 64.9994 684.747 65 684.864 65C702.813 65 717.364 50.4492 717.364 32.5C717.364 14.5507 731.915 0 749.864 0C767.808 0 782.356 14.5427 782.364 32.4852C782.364 32.4802 782.364 32.4753 782.364 32.4703C782.364 50.4195 796.914 64.9703 814.864 64.9703C832.813 64.9703 847.364 79.5211 847.364 97.4703C847.364 115.42 832.813 129.97 814.864 129.97C797.028 129.97 782.549 115.604 782.366 97.8117C782.366 97.8144 782.366 97.8171 782.366 97.8198H782.362C782.363 97.7034 782.364 97.5869 782.364 97.4703C782.364 79.8529 768.346 65.5094 750.856 64.9852Z" fill="#75FEFA"/>
<path d="M339.163 49.1129C333.471 49.1129 326.91 45.0061 326.91 36.8306C326.91 30.2144 321.53 24.8184 314.922 24.8184H218.056C211.45 24.8184 206.069 30.2144 206.069 36.8306C206.069 43.0196 200.92 49.1129 193.815 49.1129C187.209 49.1129 181.828 54.5089 181.828 61.1251V133.915C181.828 140.531 187.209 145.927 193.815 145.927C199.985 145.927 206.069 151.084 206.069 158.209C206.069 164.826 211.45 170.221 218.056 170.221H314.922C321.53 170.221 326.91 164.826 326.91 158.209C326.91 152.5 331.011 145.927 339.163 145.927C345.769 145.927 351.15 140.531 351.15 133.915V61.0313C351.15 54.4046 345.76 49.1129 339.163 49.1129ZM314.922 146.197H218.056C212.363 146.197 205.802 142.09 205.802 133.915V61.0313V61.0282V61.0252V61.0222V61.0192V61.0162V61.0131V61.0101V61.0071V61.0041V61.0011V60.9979V60.9948V60.9918V60.9886V60.9856V60.9826V60.9795V60.9765V60.9735V60.9701V60.9669V60.9637V60.9607V60.9575V60.9541V60.9511V60.9477V60.9444V60.9414V60.938C205.802 55.2283 209.904 48.6553 218.056 48.6553H314.922C321.093 48.6553 327.176 53.8121 327.176 60.9377V133.727C327.176 140.023 322.016 146.197 314.922 146.197Z" fill="#75FEFA" stroke="#75FEFA" stroke-width="0.4"/>
<path d="M24.1489 36.8929C24.1489 30.2243 29.5549 24.8184 36.2235 24.8184H132.82C139.488 24.8184 144.894 30.2243 144.894 36.8929V36.8929C144.894 43.5615 139.488 48.9674 132.82 48.9674H36.2235C29.5549 48.9674 24.1489 43.5615 24.1489 36.8929V36.8929Z" fill="#75FEFA"/>
<path d="M12.0745 145.564C5.40595 145.564 0 140.159 0 133.49L0 61.0428C0 54.3742 5.40595 48.9682 12.0745 48.9682V48.9682C18.7431 48.9682 24.1491 54.3742 24.1491 61.0428L24.1491 133.49C24.1491 140.159 18.7431 145.564 12.0745 145.564V145.564Z" fill="#75FEFA"/>
<path d="M24.1489 157.639C24.1489 150.97 29.5549 145.564 36.2235 145.564H132.82C139.488 145.564 144.894 150.97 144.894 157.639V157.639C144.894 164.308 139.488 169.714 132.82 169.714H36.2235C29.5549 169.714 24.1489 164.308 24.1489 157.639V157.639Z" fill="#75FEFA"/>
<path d="M144.894 61.0397C145.274 50.6645 136.491 48.667 132.052 48.9652L144.894 36.8906C146.035 46.908 153.93 49.1142 157.735 48.9652L144.894 61.0397Z" fill="#75FEFA"/>
<path d="M24.0211 157.637C24.4016 147.262 15.6189 145.265 11.1799 145.563L24.0211 133.488C25.1625 143.506 33.0575 145.712 36.8623 145.563L24.0211 157.637Z" fill="#75FEFA"/>
<path d="M145.022 157.637C144.642 147.262 153.424 145.265 157.863 145.563L145.022 133.488C143.881 143.506 135.986 145.712 132.181 145.563L145.022 157.637Z" fill="#75FEFA"/>
<path d="M24.4684 61.0397C24.0879 50.6645 32.8707 48.667 37.3096 48.9652L24.4684 36.8906C23.327 46.908 15.432 49.1142 11.6272 48.9652L24.4684 61.0397Z" fill="#75FEFA"/>
<circle cx="156.969" cy="61.0407" r="12.0745" transform="rotate(-180 156.969 61.0407)" fill="#75FEFA"/>
<circle cx="156.969" cy="133.49" r="12.0745" transform="rotate(-180 156.969 133.49)" fill="#75FEFA"/>
<line x1="506.727" y1="24.8184" x2="506.727" y2="170.182" stroke="#75FEFA" stroke-width="3"/>
</svg>
