<svg width="809" height="117" viewBox="0 0 809 117" fill="none" xmlns="http://www.w3.org/2000/svg">
<path d="M317.732 28.6602H289.082C285.175 28.6602 281.996 31.8652 281.996 35.7898C281.996 39.4661 278.953 43.0807 274.758 43.0807C270.851 43.0807 267.672 46.2858 267.672 50.2104V109.173C267.672 113.098 270.851 116.303 274.758 116.303C278.665 116.303 281.844 113.098 281.844 109.173V50.1548C281.844 46.763 284.268 42.8638 289.082 42.8638H317.732C321.641 42.8638 324.819 39.6588 324.819 35.7342C324.819 31.8621 321.638 28.6602 317.732 28.6602Z" fill="#75FEFA" stroke="#75FEFA" stroke-width="0.4"/>
<path d="M410.585 93.9524V93.9602C410.636 97.6859 407.582 101.347 403.375 101.347H345.876C342.502 101.347 338.611 98.9116 338.611 94.0636V50.8435V50.8434V50.8433V50.8432V50.843V50.8429V50.8428V50.8427V50.8426V50.8425V50.8424V50.8423V50.8421V50.842V50.8419V50.8418V50.8417V50.8416V50.8415V50.8414V50.8413V50.8411V50.841V50.8409V50.8408V50.8407V50.8406V50.8405V50.8404V50.8402V50.8401V50.84V50.8399V50.8398V50.8397V50.8396V50.8395V50.8393V50.8392V50.8391V50.839V50.8389V50.8388V50.8387V50.8386V50.8385V50.8383V50.8382V50.8381V50.838V50.8379V50.8378V50.8377V50.8376V50.8374V50.8373V50.8372V50.8371V50.837V50.8369V50.8368V50.8367V50.8366V50.8364V50.8363V50.8362V50.8361V50.836V50.8359V50.8358V50.8357V50.8355V50.8354V50.8353V50.8352V50.8351V50.835V50.8349V50.8348V50.8346V50.8345V50.8344V50.8343V50.8342V50.8341V50.834V50.8339V50.8338V50.8336V50.8335V50.8334V50.8333V50.8332V50.8331V50.833V50.8329V50.8327V50.8326V50.8325V50.8324V50.8323V50.8321V50.832V50.8319V50.8317V50.8316V50.8315V50.8314V50.8313V50.8312V50.8311V50.831V50.8308V50.8307V50.8306V50.8305V50.8304V50.8302V50.8301V50.8299V50.8298V50.8297V50.8296V50.8295V50.8293V50.8292V50.829V50.8289V50.8288V50.8286V50.8285V50.8284V50.8283V50.8282V50.8279V50.8278V50.8277V50.8276V50.8274V50.8273V50.8271V50.8269V50.8268V50.8267V50.8265V50.8264V50.8263V50.826V50.8259V50.8258V50.8256V50.8255V50.8254V50.8251V50.825V50.8248V50.8247V50.8246V50.8243V50.8242V50.824V50.8239V50.8237V50.8236V50.8233V50.8232V50.823V50.8229V50.8227V50.8226V50.8223V50.8222V50.822V50.8219V50.8217V50.8216V50.8213V50.8211V50.821V50.8208V50.8207V50.8204V50.8202V50.8201V50.8199V50.8198V50.8195V50.8193V50.8192V50.819V50.8188V50.8185V50.8184V50.8182V50.818V50.8179V50.8176V50.8174V50.8172V50.8171V50.8169V50.8166V50.8164V50.8162V50.8161V50.8158V50.8156V50.8154V50.8152V50.8149V50.8147V50.8146V50.8144V50.8142V50.8139V50.8137V50.8135V50.8133V50.813V50.8128V50.8126V50.8124V50.8121V50.8119V50.8117V50.8115V50.8113V50.811V50.8108V50.8106V50.8104V50.8101V50.8099V50.8097V50.8095V50.8092V50.8089V50.8087V50.8085V50.8082V50.808V50.8078V50.8076V50.8072V50.807V50.8068V50.8066V50.8063V50.806V50.8058V50.8055V50.8053V50.805V50.8048V50.8045V50.8042V50.804V50.8038V50.8034V50.8032V50.803V50.8026V50.8024V50.8022V50.8019V50.8016V50.8013V50.8011V50.8007V50.8005V50.8003V50.7999V50.7997V50.7994V50.7992V50.7988V50.7986V50.7983V50.798V50.7977V50.7974V50.7972V50.7968V50.7966V50.7963V50.7959V50.7957V50.7954V50.7951V50.7948V50.7945V50.7942V50.7939V50.7936V50.7932V50.793V50.7927V50.7923V50.792V50.7918V50.7914V50.7911V50.7908V50.7904V50.7902V50.7899V50.7895V50.7892V50.7889V50.7885V50.7882V50.788C338.611 47.4021 341.042 43.5045 345.876 43.5045H403.32C406.979 43.5045 410.585 46.5625 410.585 50.788V93.9524ZM417.749 43.7758C414.374 43.7758 410.483 41.3405 410.483 36.4924C410.483 32.569 407.292 29.3691 403.375 29.3691H345.876C341.959 29.3691 338.768 32.569 338.768 36.4924C338.768 40.1625 335.716 43.7758 331.503 43.7758C327.584 43.7758 324.394 46.9757 324.394 50.8991V94.0636C324.394 97.9871 327.584 101.187 331.503 101.187C335.162 101.187 338.768 104.245 338.768 108.47C338.768 112.394 341.959 115.593 345.876 115.593H403.32C407.237 115.593 410.428 112.394 410.428 108.47C410.428 105.085 412.859 101.187 417.693 101.187C421.612 101.187 424.802 97.9871 424.802 94.0636V50.8435C424.802 46.9201 421.667 43.7758 417.749 43.7758Z" fill="#75FEFA" stroke="#75FEFA" stroke-width="0.4"/>
<path d="M247.488 43.7758C244.112 43.7758 240.222 41.3405 240.222 36.4924C240.222 32.569 237.032 29.3691 233.113 29.3691H175.671C171.754 29.3691 168.563 32.569 168.563 36.4924C168.563 40.1625 165.509 43.7758 161.296 43.7758C157.379 43.7758 154.188 46.9757 154.188 50.8991V94.0636C154.188 97.9871 157.379 101.187 161.296 101.187C164.955 101.187 168.563 104.245 168.563 108.47C168.563 112.394 171.754 115.593 175.671 115.593H233.113C237.032 115.593 240.222 112.394 240.222 108.47C240.222 105.085 242.654 101.187 247.488 101.187C251.406 101.187 254.597 97.9871 254.597 94.0636V50.8435C254.597 46.9138 251.4 43.7758 247.488 43.7758ZM233.113 101.347H175.671C172.295 101.347 168.405 98.9116 168.405 94.0636V50.8435V50.8434V50.8433V50.8432V50.843V50.8429V50.8428V50.8427V50.8426V50.8425V50.8424V50.8423V50.8421V50.842V50.8419V50.8418V50.8417V50.8416V50.8415V50.8414V50.8413V50.8411V50.841V50.8409V50.8408V50.8407V50.8406V50.8405V50.8404V50.8402V50.8401V50.84V50.8399V50.8398V50.8397V50.8396V50.8395V50.8393V50.8392V50.8391V50.839V50.8389V50.8388V50.8387V50.8386V50.8385V50.8383V50.8382V50.8381V50.838V50.8379V50.8378V50.8377V50.8376V50.8374V50.8373V50.8372V50.8371V50.837V50.8369V50.8368V50.8367V50.8366V50.8364V50.8363V50.8362V50.8361V50.836V50.8359V50.8358V50.8357V50.8355V50.8354V50.8353V50.8352V50.8351V50.835V50.8349V50.8348V50.8346V50.8345V50.8344V50.8343V50.8342V50.8341V50.834V50.8339V50.8338V50.8336V50.8335V50.8334V50.8333V50.8332V50.8331V50.833V50.8329V50.8327V50.8326V50.8325V50.8324V50.8323V50.8321V50.832V50.8319V50.8317V50.8316V50.8315V50.8314V50.8313V50.8312V50.8311V50.831V50.8308V50.8307V50.8306V50.8305V50.8304V50.8302V50.8301V50.8299V50.8298V50.8297V50.8296V50.8295V50.8293V50.8292V50.829V50.8289V50.8288V50.8286V50.8285V50.8284V50.8283V50.8282V50.8279V50.8278V50.8277V50.8276V50.8274V50.8273V50.8271V50.8269V50.8268V50.8267V50.8265V50.8264V50.8263V50.826V50.8259V50.8258V50.8256V50.8255V50.8254V50.8251V50.825V50.8248V50.8247V50.8246V50.8243V50.8242V50.824V50.8239V50.8237V50.8236V50.8233V50.8232V50.823V50.8229V50.8227V50.8226V50.8223V50.8222V50.822V50.8219V50.8217V50.8216V50.8213V50.8211V50.821V50.8208V50.8207V50.8204V50.8202V50.8201V50.8199V50.8198V50.8195V50.8193V50.8192V50.819V50.8188V50.8185V50.8184V50.8182V50.818V50.8179V50.8176V50.8174V50.8172V50.8171V50.8169V50.8166V50.8164V50.8162V50.8161V50.8158V50.8156V50.8154V50.8152V50.8149V50.8147V50.8146V50.8144V50.8142V50.8139V50.8137V50.8135V50.8133V50.813V50.8128V50.8126V50.8124V50.8121V50.8119V50.8117V50.8115V50.8113V50.811V50.8108V50.8106V50.8104V50.8101V50.8099V50.8097V50.8095V50.8092V50.8089V50.8087V50.8085V50.8082V50.808V50.8078V50.8076V50.8072V50.807V50.8068V50.8066V50.8063V50.806V50.8058V50.8055V50.8053V50.805V50.8048V50.8045V50.8042V50.804V50.8038V50.8034V50.8032V50.803V50.8026V50.8024V50.8022V50.8019V50.8016V50.8013V50.8011V50.8007V50.8005V50.8003V50.7999V50.7997V50.7994V50.7992V50.7988V50.7986V50.7983V50.798V50.7977V50.7974V50.7972V50.7968V50.7966V50.7963V50.7959V50.7957V50.7954V50.7951V50.7948V50.7945V50.7942V50.7939V50.7936V50.7932V50.793V50.7927V50.7923V50.792V50.7918V50.7914V50.7911V50.7908V50.7904V50.7902V50.7899V50.7895V50.7892V50.7889V50.7885V50.7882V50.788C168.405 47.4021 170.837 43.5045 175.671 43.5045H233.113C236.772 43.5045 240.38 46.5625 240.38 50.788V93.9524C240.38 97.6858 237.32 101.347 233.113 101.347Z" fill="#75FEFA" stroke="#75FEFA" stroke-width="0.4"/>
<path d="M580.84 22.45V21.8904H580.763C580.477 18.241 577.418 15.3524 573.702 15.3524C570.342 15.3524 566.468 12.9272 566.468 8.09962C566.468 4.19032 563.29 1.00195 559.386 1.00195H459.278C455.375 1.00195 452.196 4.19032 452.196 8.09962C452.196 11.7543 449.156 15.3524 444.961 15.3524C441.058 15.3524 437.879 18.5407 437.879 22.45V94.1467C437.879 98.056 441.058 101.244 444.961 101.244C448.605 101.244 452.196 104.29 452.196 108.497C452.196 112.406 455.375 115.595 459.278 115.595H559.44C563.344 115.595 566.523 112.406 566.523 108.497V108.497V108.497V108.497V108.497V108.497V108.496V108.496V108.496V108.496V108.496V108.496V108.496V108.496V108.496V108.495V108.495V108.495V108.495V108.495V108.495V108.495V108.495V108.495V108.494V108.494V108.494V108.494V108.494V108.494V108.494V108.494V108.494V108.493V108.493V108.493V108.493V108.493V108.493V108.493V108.493V108.493V108.492V108.492V108.492V108.492V108.492V108.492V108.492V108.492V108.491V108.491V108.491V108.491V108.491V108.491V108.491V108.491V108.491V108.49V108.49V108.49V108.49V108.49V108.49V108.49V108.49V108.49V108.489V108.489V108.489V108.489V108.489V108.489V108.489V108.489V108.489V108.488V108.488V108.488V108.488V108.488V108.488V108.488V108.488V108.488V108.487V108.487V108.487V108.487V108.487V108.487V108.487V108.487V108.487V108.486V108.486V108.486V108.486V108.486V108.486V108.486V108.486V108.486V108.485V108.485V108.485V108.485V108.485V108.485V108.485V108.484V108.484V108.484V108.484V108.484V108.484V108.484V108.484V108.483V108.483V108.483V108.483V108.483V108.483V108.483V108.483V108.482V108.482V108.482V108.482V108.482V108.482V108.482V108.481V108.481V108.481V108.481V108.481V108.481V108.481V108.48V108.48V108.48V108.48V108.48V108.48V108.48V108.479V108.479V108.479V108.479V108.479V108.479V108.479V108.478V108.478V108.478V108.478V108.478V108.478V108.477V108.477V108.477V108.477V108.477V108.477V108.476V108.476V108.476V108.476V108.476V108.476V108.475V108.475V108.475V108.475V108.475V108.475V108.474V108.474V108.474V108.474V108.474V108.473V108.473V108.473V108.473V108.473V108.473V108.472V108.472V108.472V108.472V108.472V108.471V108.471V108.471V108.471V108.471V108.47V108.47V108.47V108.47V108.47V108.469V108.469V108.469V108.469V108.468V108.468V108.468V108.468V108.468V108.467V108.467V108.467V108.467V108.467V108.466V108.466V108.466V108.466V108.465V108.465V108.465V108.465V108.465V108.464V108.464V108.464V108.464V108.463V108.463V108.463V108.463V108.462V108.462V108.462V108.462V108.462V108.461V108.461V108.461V108.461V108.46V108.46V108.46V108.46V108.459V108.459V108.459V108.459V108.458V108.458V108.458V108.458V108.457V108.457V108.457V108.457V108.456V108.456V108.456V108.455V108.455V108.455V108.455V108.454V108.454V108.454V108.453V108.453V108.453V108.453V108.452V108.452V108.452V108.451V108.451V108.451V108.451V108.45V108.45V108.45V108.449V108.449V108.449V108.449V108.448V108.448V108.448V108.447V108.447V108.447V108.446V108.446V108.446V108.446V108.445V108.445V108.445V108.444V108.444V108.444V108.443V108.443V108.443V108.442V108.442V108.442C566.523 105.07 568.944 101.189 573.758 101.189H576.356C578.822 101.189 580.84 99.1642 580.84 96.6954V91.5426V91.542V91.5413V91.5406V91.5401V91.5394V91.5387V91.5381V91.5374V91.5368V91.5362V91.5355V91.5348V91.5341V91.5336V91.5329V91.5322V91.5316V91.5309V91.5303V91.5297V91.529V91.5283V91.5276V91.5271V91.5264V91.5257V91.5251V91.5244V91.5238V91.5232V91.5225V91.5218V91.5212V91.5206V91.5199V91.5192V91.5186V91.5179V91.5174V91.5167V91.516V91.5153V91.5147V91.5141V91.5134V91.5128V91.5121V91.5114V91.5109V91.5102V91.5095V91.5088V91.5082V91.5076V91.5069V91.5063V91.5056V91.5049V91.5044V91.5037V91.503V91.5023V91.5017V91.5011V91.5004V91.4998V91.4991V91.4984V91.4979V91.4972V91.4965V91.4959V91.4952V91.4946V91.494V91.4933V91.4926V91.4919V91.4914V91.4907V91.49V91.4894V91.4887V91.4881V91.4875V91.4868V91.4861V91.4854V91.4849V91.4842V91.4835V91.4829V91.4822V91.4816V91.481V91.4803V91.4796V91.479V91.4784V91.4777V91.4771V91.4764V91.4757V91.4752V91.4745V91.4738V91.4731V91.4725V91.4719V91.4712V91.4706V91.4699V91.4692V91.4687V91.468V91.4673V91.4666V91.466V91.4653V91.4647V91.4641V91.4634V91.4627V91.4621V91.4615V91.4608V91.4602V91.4595V91.4588V91.4583V91.4576V91.4569V91.4562V91.4557V91.455V91.4543V91.4537V91.453V91.4524V91.4518V91.4511V91.4504V91.4497V91.4491V91.4485V91.4478V91.4472V91.4465V91.4458V91.4453V91.4446V91.4439V91.4433V91.4426V91.442V91.4414V91.4407V91.44V91.4393V91.4388V91.4381V91.4374V91.4368V91.4361V91.4355V91.4349V91.4342V91.4335V91.4328V91.4323V91.4316V91.4309V91.4303V91.4296V91.429V91.4284V91.4277V91.427V91.4263V91.4258V91.4251V91.4245V91.4238V91.4231V91.4225V91.4219V91.4212V91.4205V91.4199V91.4193V91.4186V91.418V91.4173V91.4166V91.4161V91.4154V91.4147V91.414V91.4134V91.4128V91.4121V91.4115V91.4108V91.4101V91.4096V91.4089V91.4082V91.4075V91.4069V91.4063V91.4056V91.405V91.4043V91.4036V91.4031V91.4024V91.4017V91.4011V91.4004V91.3998V91.3992V91.3985V91.3978V91.3971V91.3966V91.3959V91.3952V91.3946V91.3939V91.3933V91.3927V91.392V91.3913V91.3906V91.3901V91.3894V91.3887V91.3881V91.3874V91.3868V91.3862V91.3855V91.3848V91.3842V91.3836V91.3829V91.3823V91.3816V91.3809V91.3803V91.3797V91.379V91.3783V91.3777V91.3771V91.3764V91.3758V91.3751V91.3744V91.3739V91.3732V91.3725V91.3718V91.3712V91.3706V91.3699V91.3693V91.3686V91.3679V91.3674V91.3667V91.366V91.3654V91.3647V91.3641V91.3634V91.3628V91.3621V91.3614V91.3608V91.3602V91.3595V91.3589V91.3582V91.3575V91.357V91.3563V91.3556V91.3549V91.3544V91.3537V91.353V91.3524V91.3517V91.3511V91.3505V91.3498V91.3491V91.3485V91.3479V91.3472V91.3465V91.3459V91.3452V91.3445V91.344V91.3433V91.3426V91.342V91.3413V91.3407V91.3401V91.3394V91.3387V91.338V91.3375V91.3368V91.3361V91.3355V91.3348V91.3342V91.3336V91.3329V91.3322V91.3316V91.331V91.3303V91.3296V91.329V91.3283V91.3277V91.3271V91.3264V91.3257V91.3251V91.3245V91.3238V91.3232V91.3225V91.3218V91.3213V91.3206V91.3199V91.3192V91.3186V91.318V91.3173V91.3167V91.316V91.3153V91.3148V91.3141V91.3134V91.3127V91.3121V91.3115V91.3108V91.3102V91.3095V91.3088V91.3083V91.3076V91.3069V91.3063V91.3056V91.305V91.3044V91.3037V91.303V91.3023V91.3018V91.3011V91.3004V91.2998V91.2991V91.2985V91.2979V91.2972V91.2965V91.2958V91.2953V91.2946V91.2939V91.2933V91.2926V91.292V91.2914V91.2907V91.29V91.2894V91.2888V91.2881V91.2874V91.2868V91.2861V91.2856V91.2849V91.2842V91.2835V91.2829V91.2823V91.2816V91.281V91.2803V91.2796V91.2791V91.2784V91.2777V91.277V91.2764V91.2758V91.2751V91.2745V91.2738V91.2731V91.2726V91.2719V91.2712V91.2705V91.2699V91.2693V91.2686V91.268V91.2673V91.2666V91.2661V91.2654V91.2647V91.2641V91.2634V91.2628V91.2622V91.2615V91.2608V91.2601V91.2596V91.2589V91.2582V91.2576V91.2569V91.2563V91.2557V91.255V91.2543V91.2536V91.2531V91.2524V91.2517V91.2511V91.2504V91.2498V91.2492V91.2485V91.2478V91.2472V91.2466V91.2459V91.2453V91.2446V91.2439V91.2433V91.2427V91.242V91.2413V91.2407V91.24V91.2394V91.2388V91.2381V91.2374V91.2367V91.2362V91.2355V91.2348V91.2342V91.2335V91.2329V91.2323V91.2316V91.2309V91.2303V91.2297V91.229V91.2284V91.2277V91.227V91.2264V91.2258V91.2251V91.2244V91.2239V91.2232V91.2225V91.2219V91.2212V91.2205V91.22V91.2193V91.2186V91.2179V91.2173V91.2167V91.216V91.2154V91.2147V91.214V91.2135V91.2128V91.2121V91.2115V91.2108V91.2102V22.45ZM459.278 101.344H458.718V101.377C455.503 101.125 452.044 98.7083 452.044 94.1467V22.45V22.4499V22.4498V22.4497V22.4496V22.4494V22.4493V22.4492V22.4491V22.449V22.4489V22.4488V22.4487V22.4485V22.4484V22.4483V22.4482V22.4481V22.448V22.4479V22.4478V22.4476V22.4475V22.4474V22.4473V22.4472V22.4471V22.447V22.4469V22.4468V22.4466V22.4465V22.4464V22.4463V22.4462V22.4461V22.446V22.4459V22.4457V22.4456V22.4455V22.4454V22.4453V22.4452V22.4451V22.445V22.4448V22.4447V22.4446V22.4445V22.4444V22.4443V22.4442V22.4441V22.444V22.4438V22.4437V22.4436V22.4435V22.4434V22.4433V22.4432V22.4431V22.4429V22.4428V22.4427V22.4426V22.4425V22.4424V22.4423V22.4422V22.4421V22.4419V22.4418V22.4417V22.4416V22.4415V22.4414V22.4413V22.4412V22.441V22.4409V22.4408V22.4407V22.4406V22.4405V22.4404V22.4403V22.4401V22.44V22.4399V22.4398V22.4397V22.4396V22.4395V22.4394V22.4393V22.4391V22.439V22.4389V22.4388V22.4387V22.4386V22.4385V22.4384V22.4382V22.4381V22.438V22.4379V22.4378V22.4376V22.4375V22.4373V22.4372V22.4371V22.437V22.4369V22.4368V22.4367V22.4366V22.4363V22.4362V22.4361V22.436V22.4359V22.4358V22.4356V22.4354V22.4353V22.4352V22.4351V22.4349V22.4348V22.4347V22.4346V22.4344V22.4342V22.4341V22.434V22.4338V22.4337V22.4335V22.4334V22.4332V22.4331V22.433V22.4328V22.4326V22.4325V22.4323V22.4322V22.4321V22.4319V22.4318V22.4315V22.4314V22.4313V22.4311V22.431V22.4307V22.4306V22.4304V22.4303V22.4302V22.43V22.4299V22.4296V22.4295V22.4293V22.4292V22.429V22.4288V22.4286V22.4284V22.4283V22.4281V22.4279V22.4277V22.4276V22.4274V22.4272V22.4271V22.4268V22.4267V22.4265V22.4263V22.4262V22.4259V22.4257V22.4256V22.4254V22.4252V22.425V22.4248V22.4246V22.4244V22.4243V22.424V22.4238V22.4236V22.4235V22.4232V22.423V22.4228V22.4226V22.4225V22.4222V22.422V22.4218V22.4216V22.4213V22.4211V22.421V22.4208V22.4206V22.4203V22.4201V22.4199V22.4197V22.4194V22.4192V22.419V22.4188V22.4185V22.4183V22.4181V22.4179V22.4177V22.4174V22.4172V22.417V22.4168V22.4165V22.4163V22.4161V22.4159V22.4156V22.4154V22.4151V22.4149V22.4146V22.4144V22.4142V22.414V22.4136V22.4134V22.4132V22.413V22.4127V22.4124V22.4122V22.4119V22.4117V22.4114V22.4112V22.4109V22.4106V22.4104V22.4102V22.4098V22.4096V22.4094V22.409V22.4088V22.4086V22.4082V22.408V22.4077V22.4075V22.4072V22.4069V22.4067V22.4063V22.4061V22.4058V22.4056V22.4052V22.405V22.4047V22.4044V22.4041V22.4038V22.4035V22.4032V22.403V22.4027V22.4023V22.4021V22.4018V22.4015V22.4012V22.4009V22.4005V22.4003V22.4V22.3996V22.3994V22.3991V22.3987V22.3984V22.3982V22.3978V22.3975V22.3972V22.3968V22.3966V22.3963V22.3959V22.3956V22.3953V22.3949V22.3946C452.044 19.0229 454.465 15.1418 459.278 15.1418H559.44C563.037 15.1418 566.675 18.1391 566.675 22.3392V22.3946V94.0913V94.1467C566.675 97.7435 563.638 101.344 559.44 101.344H459.278Z" fill="#75FEFA" stroke="#75FEFA" stroke-width="0.4"/>
<path d="M688.519 43.7758C685.085 43.7758 681.142 41.3336 681.142 36.4924C681.142 32.5615 677.902 29.3691 673.94 29.3691H615.677C611.715 29.3691 608.474 32.5615 608.474 36.4924C608.474 40.1549 605.382 43.7758 601.096 43.7758C597.135 43.7758 593.895 46.9682 593.895 50.8991V108.47C593.895 112.401 597.135 115.593 601.096 115.593C605.058 115.593 608.299 112.401 608.299 108.47V50.8435V50.7924C608.354 47.4618 610.82 43.5602 615.677 43.5602H673.94C677.662 43.5602 681.318 46.6254 681.318 50.8435V108.47C681.318 112.401 684.558 115.593 688.519 115.593C692.481 115.593 695.722 112.401 695.722 108.47V50.8435C695.722 46.9065 692.475 43.7758 688.519 43.7758Z" fill="#75FEFA" stroke="#75FEFA" stroke-width="0.4"/>
<path d="M8.0271 15.3434L8.01834 15.3435C4.17606 15.4036 1 18.5868 1 22.4933V94.155C1 98.0628 4.17929 101.249 8.08238 101.249C11.3923 101.249 15.2641 103.623 15.3168 108.391V108.391V108.391V108.391V108.392V108.392V108.392V108.393V108.393V108.393V108.394V108.394V108.394V108.394V108.395V108.395V108.395V108.396V108.396V108.396V108.397V108.397V108.397V108.397V108.398V108.398V108.398V108.399V108.399V108.399V108.399V108.4V108.4V108.4V108.401V108.401V108.401V108.401V108.402V108.402V108.402V108.402V108.403V108.403V108.403V108.403V108.404V108.404V108.404V108.405V108.405V108.405V108.405V108.406V108.406V108.406V108.406V108.407V108.407V108.407V108.407V108.408V108.408V108.408V108.408V108.409V108.409V108.409V108.409V108.409V108.41V108.41V108.41V108.41V108.411V108.411V108.411V108.411V108.412V108.412V108.412V108.412V108.413V108.413V108.413V108.413V108.413V108.414V108.414V108.414V108.414V108.415V108.415V108.415V108.415V108.416V108.416V108.416V108.416V108.416V108.417V108.417V108.417V108.417V108.417V108.418V108.418V108.418V108.418V108.418V108.419V108.419V108.419V108.419V108.42V108.42V108.42V108.42V108.42V108.421V108.421V108.421V108.421V108.421V108.422V108.422V108.422V108.422V108.422V108.423V108.423V108.423V108.423V108.423V108.423V108.424V108.424V108.424V108.424V108.424V108.425V108.425V108.425V108.425V108.425V108.426V108.426V108.426V108.426V108.426V108.427V108.427V108.427V108.427V108.427V108.427V108.428V108.428V108.428V108.428V108.428V108.429V108.429V108.429V108.429V108.429V108.43V108.43V108.43V108.43V108.43V108.43V108.431V108.431V108.431V108.431V108.431V108.431V108.432V108.432V108.432V108.432V108.432V108.432V108.433V108.433V108.433V108.433V108.433V108.433V108.434V108.434V108.434V108.434V108.434V108.434V108.435V108.435V108.435V108.435V108.435V108.435V108.436V108.436V108.436V108.436V108.436V108.436V108.437V108.437V108.437V108.437V108.437V108.437V108.438V108.438V108.438V108.438V108.438V108.438V108.439V108.439V108.439V108.439V108.439V108.439V108.44V108.44V108.44V108.44V108.44V108.44V108.441V108.441V108.441V108.441V108.441V108.441V108.442V108.442V108.442V108.442V108.442V108.442V108.443V108.443V108.443V108.443V108.443V108.443V108.443V108.444V108.444V108.444V108.444V108.444V108.445V108.445V108.445V108.445V108.445V108.445V108.446V108.446V108.446V108.446V108.446V108.446V108.446V108.447V108.447V108.447V108.447V108.447V108.447V108.448V108.448V108.448V108.448V108.448V108.448V108.449V108.449V108.449V108.449V108.449V108.449V108.45V108.45V108.45V108.45V108.45V108.45V108.451V108.451V108.451V108.451V108.451V108.451V108.452V108.452V108.452V108.452V108.452V108.452V108.453V108.453V108.453V108.453V108.453V108.453V108.454V108.454V108.454V108.454V108.454V108.454V108.455V108.455V108.455V108.455V108.455V108.456V108.456V108.456V108.456V108.456V108.456V108.457V108.457V108.457V108.457V108.457V108.457V108.458V108.458V108.458V108.458V108.458V108.459V108.459V108.459V108.459V108.459V108.46V108.46V108.46V108.46V108.46V108.461V108.461V108.461V108.461V108.461V108.461V108.462V108.462V108.462V108.462V108.462V108.463V108.463V108.463V108.463V108.463V108.464V108.464V108.464V108.464V108.464V108.465V108.465V108.465V108.465V108.465V108.466V108.466V108.466V108.466V108.466V108.467V108.467V108.467V108.467V108.467V108.468V108.468V108.468V108.468V108.468V108.469V108.469V108.469V108.469V108.469V108.47V108.47V108.47V108.47V108.471V108.471V108.471V108.471V108.471V108.472V108.472V108.472V108.472V108.473V108.473V108.473V108.473V108.473V108.474V108.474V108.474V108.474V108.475V108.475V108.475V108.475V108.476V108.476V108.476V108.476V108.477V108.477V108.477V108.477V108.478V108.478V108.478V108.478V108.479V108.479V108.479V108.479V108.48V108.48V108.48V108.48V108.481V108.481V108.481V108.481V108.482V108.482V108.482V108.482V108.483V108.483V108.483V108.483V108.484V108.484V108.484V108.484V108.485V108.485V108.485V108.486V108.486V108.486V108.486V108.487V108.487V108.487V108.487V108.488V108.488V108.488V108.489V108.489V108.489V108.489V108.49V108.49V108.49V108.491V108.491V108.491V108.492V108.492V108.492V108.493V108.493V108.493V108.493V108.494V108.494V108.494V108.495V108.495V108.495V108.496V108.496V108.496V108.496V108.497V108.497V108.497V108.498V108.498V108.498C15.3168 112.406 18.4961 115.593 22.3992 115.593H122.562C126.465 115.593 129.645 112.406 129.645 108.498C129.645 105.129 132.066 101.249 136.878 101.249C140.782 101.249 143.961 98.0628 143.961 94.155C143.961 90.2472 140.782 87.0605 136.878 87.0605C132.976 87.0605 129.797 90.2472 129.797 94.155V94.2059C129.743 97.8127 126.751 101.404 122.562 101.404H22.3992C18.756 101.404 15.1647 98.3602 15.1647 94.155V22.4933V22.4932V22.4931V22.4929V22.4928V22.4927V22.4926V22.4925V22.4924V22.4923V22.4922V22.492V22.4919V22.4918V22.4917V22.4916V22.4915V22.4914V22.4913V22.4912V22.491V22.4909V22.4908V22.4907V22.4906V22.4905V22.4904V22.4903V22.4901V22.49V22.4899V22.4898V22.4897V22.4896V22.4895V22.4894V22.4892V22.4891V22.489V22.4889V22.4888V22.4887V22.4886V22.4885V22.4884V22.4882V22.4881V22.488V22.4879V22.4878V22.4877V22.4876V22.4875V22.4873V22.4872V22.4871V22.487V22.4869V22.4868V22.4867V22.4866V22.4864V22.4863V22.4862V22.4861V22.486V22.4859V22.4858V22.4857V22.4856V22.4854V22.4853V22.4852V22.4851V22.485V22.4849V22.4848V22.4847V22.4845V22.4844V22.4843V22.4842V22.4841V22.484V22.4839V22.4838V22.4837V22.4835V22.4834V22.4833V22.4832V22.4831V22.483V22.4829V22.4828V22.4826V22.4825V22.4824V22.4823V22.4822V22.4821V22.482V22.4819V22.4817V22.4816V22.4815V22.4814V22.4813V22.4812V22.4811V22.481V22.4809V22.4807V22.4806V22.4805V22.4804V22.4803V22.4802V22.48V22.4798V22.4797V22.4796V22.4795V22.4794V22.4793V22.4791V22.4789V22.4788V22.4787V22.4786V22.4784V22.4783V22.4782V22.4781V22.4779V22.4777V22.4776V22.4775V22.4774V22.4772V22.477V22.4769V22.4768V22.4766V22.4765V22.4764V22.4762V22.476V22.4759V22.4757V22.4756V22.4755V22.4753V22.4751V22.4749V22.4748V22.4747V22.4745V22.4744V22.4741V22.474V22.4739V22.4737V22.4736V22.4734V22.4732V22.473V22.4729V22.4727V22.4726V22.4723V22.4722V22.472V22.4719V22.4717V22.4716V22.4713V22.4711V22.471V22.4708V22.4707V22.4704V22.4702V22.4701V22.4699V22.4698V22.4695V22.4693V22.4692V22.469V22.4688V22.4687V22.4684V22.4682V22.4681V22.4679V22.4676V22.4674V22.4673V22.4671V22.4669V22.4666V22.4664V22.4663V22.4661V22.4659V22.4656V22.4654V22.4653V22.4651V22.4648V22.4646V22.4644V22.4642V22.464V22.4637V22.4636V22.4634V22.4632V22.4629V22.4627V22.4625V22.4623V22.462V22.4618V22.4616V22.4614V22.4612V22.4609V22.4607V22.4605V22.4603V22.46V22.4598V22.4596V22.4594V22.459V22.4588V22.4586V22.4584V22.4581V22.4579V22.4577V22.4573V22.4571V22.4569V22.4567V22.4565V22.4561V22.4559V22.4557V22.4554V22.4552V22.4549V22.4547V22.4544V22.4541V22.4539V22.4537V22.4533V22.4531V22.4529V22.4525V22.4523V22.4521V22.4518V22.4515V22.4513V22.451V22.4507V22.4504V22.4502V22.4498V22.4496V22.4493V22.4491V22.4487V22.4485V22.4482V22.4479V22.4476V22.4474V22.4471V22.4468V22.4465V22.4462V22.4459V22.4456V22.4454V22.445V22.4447V22.4445V22.4441V22.4438V22.4436V22.4432V22.4429V22.4426V22.4423V22.442V22.4417V22.4413V22.4411V22.4408V22.4404V22.4401V22.4398V22.4396V22.4392V22.4389V22.4385V22.4382V22.4379C15.1647 19.0682 17.5858 15.1889 22.3992 15.1889H122.562C125.922 15.1889 129.795 17.6116 129.797 22.4336C129.739 26.4061 132.926 29.5324 136.824 29.5324C140.727 29.5324 143.906 26.3457 143.906 22.4379C143.906 18.53 140.727 15.3434 136.824 15.3434C133.18 15.3434 129.589 12.2996 129.589 8.09447C129.589 4.18667 126.41 1 122.507 1H22.344C18.4408 1 15.2615 4.18668 15.2615 8.09447C15.2615 11.747 12.2219 15.3434 8.0271 15.3434Z" fill="#75FEFA" stroke="#75FEFA" stroke-width="0.4"/>
<path d="M724.327 29.3691H723.767V29.9288V43.2698V43.8295H724.327H791.31H791.869V43.2698V29.9288V29.3691H791.31H724.327Z" fill="#75FEFA" stroke="#75FEFA" stroke-width="0.4"/>
<path d="M807.44 71.6279H808V71.0682V46.6085V46.0488H807.44H794.363H793.803V46.6085V57.8218H721.577V46.6085V46.0488H721.017H707.939H707.38V46.6085V98.8609V99.4205H707.939H721.017H721.577V98.8609V71.6279H794.363H800.874H807.44Z" fill="#75FEFA" stroke="#75FEFA" stroke-width="0.4"/>
<path d="M724.045 101.639H723.486V102.198V114.983V115.543H724.045H791.307H791.867V114.983V102.198V101.639H791.307H724.045Z" fill="#75FEFA" stroke="#75FEFA" stroke-width="0.4"/>
<path d="M807.997 87.7393V87.1797H807.438H794.652H794.093V87.7393V93.2039V93.2042V93.2044V93.2047V93.205V93.2053V93.2055V93.2058V93.2061V93.2063V93.2066V93.2068V93.2071V93.2074V93.2076V93.2079V93.2082V93.2084V93.2086V93.209V93.2092V93.2094V93.2098V93.21V93.2102V93.2104V93.2108V93.211V93.2112V93.2114V93.2117V93.212V93.2122V93.2124V93.2127V93.2129V93.2131V93.2135V93.2137V93.2139V93.2141V93.2144V93.2146V93.2148V93.215V93.2152V93.2155V93.2157V93.216V93.2162V93.2165V93.2167V93.2169V93.2171V93.2174V93.2176V93.2178V93.218V93.2183V93.2185V93.2187V93.2188V93.2191V93.2193V93.2195V93.2197V93.2199V93.2202V93.2204V93.2206V93.2208V93.2211V93.2212V93.2214V93.2216V93.2219V93.2221V93.2223V93.2225V93.2226V93.2229V93.2231V93.2233V93.2235V93.2236V93.2239V93.2241V93.2243V93.2245V93.2246V93.2249V93.2251V93.2253V93.2254V93.2257V93.2259V93.226V93.2262V93.2264V93.2267V93.2268V93.227V93.2272V93.2273V93.2276V93.2278V93.2279V93.2281V93.2283V93.2285V93.2287V93.2289V93.229V93.2292V93.2293V93.2296V93.2298V93.2299V93.2301V93.2302V93.2305V93.2307V93.2308V93.231V93.2311V93.2314V93.2315V93.2317V93.2318V93.232V93.2323V93.2324V93.2326V93.2327V93.2329V93.233V93.2333V93.2334V93.2336V93.2337V93.2339V93.234V93.2343V93.2344V93.2346V93.2347V93.2348V93.2351V93.2352V93.2354V93.2355V93.2357V93.2358V93.2361V93.2362V93.2363V93.2365V93.2366V93.2368V93.237V93.2372V93.2373V93.2374V93.2376V93.2377V93.238V93.2381V93.2382V93.2384V93.2385V93.2386V93.2389V93.239V93.2392V93.2393V93.2394V93.2396V93.2398V93.2399V93.2401V93.2402V93.2403V93.2405V93.2407V93.2408V93.241V93.2411V93.2412V93.2414V93.2416V93.2417V93.2419V93.242V93.2421V93.2423V93.2424V93.2426V93.2427V93.2429V93.243V93.2431V93.2433V93.2434V93.2436V93.2437V93.2439V93.244V93.2441V93.2443V93.2445V93.2446V93.2447V93.2449V93.245V93.2451V93.2452V93.2455V93.2456V93.2457V93.2459V93.246V93.2461V93.2462V93.2465V93.2466V93.2467V93.2468V93.247V93.2471V93.2473V93.2474V93.2476V93.2477V93.2478V93.2479V93.2482V93.2483V93.2484V93.2485V93.2486V93.2488V93.2489V93.249V93.2492V93.2494V93.2495V93.2496V93.2497V93.2499V93.2501V93.2502V93.2503V93.2505V93.2506V93.2507V93.2508V93.251V93.2512V93.2513V93.2514V93.2515V93.2517V93.2518V93.252V93.2521V93.2523V93.2524V93.2525V93.2526V93.2528V93.253V93.2531V93.2532V93.2533V93.2535V93.2536V93.2537V93.2539V93.2541V93.2542V93.2543V93.2544V93.2546V93.2548V93.2549V93.255V93.2552V93.2553V93.2554V93.2555V93.2558V93.2559V93.256V93.2561V93.2563V93.2564V93.2565V93.2567V93.2569V93.257V93.2571V93.2573V93.2574V93.2576V93.2577V93.2579V93.258V93.2581V93.2582V93.2585V93.2586V93.2587V93.2589V93.259V93.2591V93.2593V93.2595V93.2596V93.2597V93.2599V93.26V93.2601V93.2604V93.2605V93.2606V93.2608V93.2609V93.261V93.2612V93.2614V93.2615V93.2617V93.2618V93.2619V93.2621V93.2623V93.2624V93.2626V93.2627V93.2628V93.263V93.2631V93.2634V93.2635V93.2636V93.2638V93.2639V93.264V93.2643V93.2644V93.2646V93.2647V93.2648V93.2651V93.2652V93.2654V93.2655V93.2656V93.2658V93.2659V93.2662V93.2663V93.2665V93.2666V93.2668V93.267V93.2671V93.2673V93.2674V93.2676V93.2677V93.268V93.2681V93.2683V93.2684V93.2686V93.2687V93.269V93.2691V93.2693V93.2694V93.2696V93.2698V93.27V93.2701V93.2703V93.2705V93.2706V93.2709V93.271V93.2712V93.2713V93.2715V93.2718V93.2719V93.2721V93.2722V93.2724V93.2727V93.2728V93.273V93.2731V93.2733V93.2736V93.2737V93.2739V93.2741V93.2742V93.2745V93.2747V93.2748V93.275V93.2752V93.2754V93.2756V93.2758V93.2759V93.2761V93.2764V93.2766V93.2767V93.2769V93.2771V93.2774V93.2775V93.2777V93.2779V93.2782V93.2783V93.2785V93.2787V93.2789V93.2792V93.2794V93.2795V93.2797V93.2799V93.2802V93.2804V93.2806V93.2807V93.2809V93.2812V93.2814V93.2816V93.2818V93.2821V93.2823V93.2825V93.2827V93.2828V93.2831V93.2833V93.2835V93.2837V93.284V93.2842V93.2844V93.2846V93.2849V93.2851V93.2853V93.2855V93.2858V93.286V93.2862V93.2865V93.2868V93.287V93.2872V93.2874V93.2877V93.2879V93.2881V93.2883V93.2886V93.2889V93.2891V93.2893V93.2896V93.2898V93.29V93.2903V93.2906V93.2908V93.291V93.2912V93.2916V93.2918V93.292V93.2923V93.2926V93.2928V93.293V93.2934V93.2936V93.2938V93.294V93.2944V93.2946V93.2948V93.2952V93.2954V93.2957V93.2959V93.2962V93.2965V93.2967V93.2971V93.2973V93.2975V93.2979V93.2981V93.2984V93.2986V93.299V93.2992V93.2995V93.2997V93.3V93.3003V93.3005V93.3009V93.3011V93.3013V93.3017V93.3019V93.3021V93.3024V93.3027V93.3029V93.3032V93.3034V93.3037V93.3039V93.3042V93.3045V93.3047V93.3049V93.3052V93.3055V93.3057V93.3059V93.3061V93.3065V93.3067V93.3069V93.3071V93.3074V93.3076V93.3078V93.3081V93.3084V93.3086V93.3088V93.309V93.3093V93.3095V93.3097V93.3099V93.3102V93.3104V93.3106V93.3108V93.3111V93.3113V93.3115V93.3117V93.312V93.3122V93.3124V93.3126V93.3128V93.3131V93.3133V93.3135V93.3137V93.314V93.3142V93.3144V93.3146V93.3149V93.3151V93.3152V93.3154V93.3156V93.3159V93.3161V93.3163V93.3165V93.3167V93.3169V93.3171V93.3173V93.3175V93.3177V93.3179V93.3181V93.3183V93.3186V93.3187V93.3189V93.3191V93.3193V93.3194V93.3197V93.3199V93.3201V93.3202V93.3205V93.3207V93.3208V93.321V93.3212V93.3214V93.3216V93.3218V93.3219V93.3221V93.3224V93.3225V93.3227V93.3229V93.323V93.3233V93.3235V93.3236V93.3238V93.3239V93.3242V93.3244V93.3245V93.3247V93.3248V93.325V93.3253V93.3254V93.3256V93.3257V93.3259V93.3261V93.3263V93.3264V93.3266V93.3267V93.3269V93.3271V93.3273V93.3274V93.3276V93.3277V93.328V93.3281V93.3283V93.3284V93.3286V93.3287V93.329V93.3291V93.3293V93.3294V93.3296V93.3297V93.33V93.3301V93.3302V93.3304V93.3305V93.3308V93.3309V93.3311V93.3312V93.3313V93.3315V93.3317V93.3319V93.332V93.3321V93.3323V93.3324V93.3325V93.3328V93.3329V93.3331V93.3332V93.3333V93.3336V93.3337V93.3338V93.334V93.3341V93.3342V93.3345V93.3346V93.3347V93.3349V93.335V93.3351V93.3353V93.3355V93.3356V93.3358V93.3359V93.336V93.3362V93.3363V93.3365V93.3367V93.3368V93.3369V93.3371V93.3372V93.3374V93.3375V93.3377V93.3378V93.3379V93.3381V93.3383V93.3384V93.3385V93.3387V93.3388V93.3389V93.339V93.3393V93.3394V93.3395V93.3397V93.3398V93.3399V93.34V93.3403V93.3404V93.3405V93.3406V93.3408V93.3409V93.3411V93.3412V93.3414V93.3415V93.3416V93.3417V93.3419V93.3421V93.3422V93.3423V93.3425V93.3426V93.3427V93.3428V93.3431V93.3432V93.3433V93.3434V93.3435V93.3437V93.3439V93.344V93.3441V93.3443V93.3444V93.3445V93.3446V93.3449V93.345V93.3451V93.3452V93.3453V93.3455V93.3456V93.3457V93.3459V93.3461V93.3462V93.3463V93.3464V93.3466V93.3468V93.3469V93.347V93.3472V93.3473V93.3474V93.3475V93.3477V93.3479V93.348V93.3481V93.3482V93.3484V93.3486V93.3487V93.3488V93.349V93.3491V93.3492V93.3493V93.3496V93.3497V93.3498V93.3499V93.3501V93.3502V93.3503V93.3505V93.3507V93.3508V93.3509V93.3511V93.3512V93.3514V93.3515V93.3517V93.3518V93.3519V93.352V93.3522V93.3524V93.3525V93.3527V93.3528V93.3529V93.353V93.3533V93.3534V93.3535V93.3537V93.3538V93.3539V93.3541V93.3543V93.3544V93.3545V93.3547V93.3548V93.3549V93.3552V93.3553V93.3554V93.3556V93.3557V93.3558V93.356V93.3562V93.3563V93.3565V93.3566V93.3567V93.3569V93.3571V93.3573V93.3574V93.3575V93.3577V93.3578V93.358V93.3582V93.3583V93.3585V93.3586V93.3587V93.359V93.3591V93.3593V93.3594V93.3595V93.3597V93.3599V93.3601V93.3602V93.3604V93.3605V93.3606V93.3609V93.361V93.3612V93.3613V93.3615V93.3616V93.3619V93.362V93.3622V93.3623V93.3625V93.3627V93.3629V93.363V93.3632V93.3633V93.3635V93.3637V93.3639V93.364V93.3642V93.3643V93.3646V93.3647V93.3649V93.365V93.3652V93.3654V93.3656V93.3658V93.3659V93.3661V93.3662V93.3665V93.3667V93.3668V93.367V93.3672V93.3674V93.3676V93.3677V93.3679V93.3681V93.3683V93.3685V93.3687V93.3688V93.369V93.3693V93.3694V93.3696V93.3698V93.37V93.3702V93.3704V93.3706V93.3707V93.3709V93.3712V93.3714V93.3715V93.3717V93.3719V93.3722V93.3723V93.3725V93.3727V93.3729V93.3732V93.3733V93.3735V93.3737V93.374V93.3742V93.3744V93.3745V93.3747V93.375V93.3752V93.3754V93.3756V93.3759V93.3761V93.3763V93.3764V93.3766V93.3769V93.3771V93.3773V93.3775V93.3778V93.378V93.3782V93.3784V93.3787V93.3789V93.3791V93.3793V93.3796V93.3798V93.38V93.3802V93.3805V93.3807V93.3809V93.3811V93.3813V93.3817V93.3819V93.3821V93.3823V93.3826V93.3828V93.383V93.3832V93.3836V93.3838V93.384V93.3843V93.3845V93.3848V93.385V93.3853V93.3855V93.3857V93.386V93.3863V93.3865V93.3867V93.3871V93.3873V93.3875V93.3878V93.3881V93.3883V93.3886V93.3888V93.3891V93.3894V93.3896V93.3899V93.3902V93.3904V93.3907V93.391V93.3912V93.3915V93.3918V93.3921V93.3923V98.8569V99.4166H794.652H801.017H807.438H807.997V98.8569V87.7393Z" fill="#75FEFA" stroke="#75FEFA" stroke-width="0.4"/>
</svg>
