<svg width="780" height="266" viewBox="0 0 780 266" fill="none" xmlns="http://www.w3.org/2000/svg">
<path d="M306.642 27.6914H278.996C275.225 27.6914 272.158 30.7842 272.158 34.5714C272.158 38.1189 269.221 41.6071 265.173 41.6071C261.402 41.6071 258.335 44.6999 258.335 48.4871V105.386C258.335 109.172 261.402 112.266 265.173 112.266C268.943 112.266 272.011 109.172 272.011 105.386V48.4334C272.011 45.1604 274.35 41.3978 278.996 41.3978H306.642C310.414 41.3978 313.48 38.3049 313.48 34.5177C313.48 30.7812 310.411 27.6914 306.642 27.6914Z" fill="#75FEFA" stroke="#75FEFA" stroke-width="0.4"/>
<path d="M396.244 90.6969V90.7045C396.294 94.2997 393.346 97.8327 389.286 97.8327H333.801C330.545 97.8327 326.79 95.4825 326.79 90.8043V49.0975V49.0973V49.0972V49.0971V49.097V49.0969V49.0968V49.0967V49.0966V49.0965V49.0964V49.0963V49.0962V49.096V49.0959V49.0958V49.0957V49.0956V49.0955V49.0954V49.0953V49.0952V49.0951V49.095V49.0949V49.0948V49.0946V49.0945V49.0944V49.0943V49.0942V49.0941V49.094V49.0939V49.0938V49.0937V49.0936V49.0935V49.0933V49.0932V49.0931V49.093V49.0929V49.0928V49.0927V49.0926V49.0925V49.0924V49.0923V49.0922V49.092V49.0919V49.0918V49.0917V49.0916V49.0915V49.0914V49.0913V49.0912V49.0911V49.091V49.0909V49.0908V49.0906V49.0905V49.0904V49.0903V49.0902V49.0901V49.09V49.0899V49.0898V49.0897V49.0896V49.0895V49.0894V49.0892V49.0891V49.089V49.0889V49.0888V49.0887V49.0886V49.0885V49.0884V49.0883V49.0882V49.0881V49.0879V49.0878V49.0877V49.0876V49.0875V49.0874V49.0873V49.0872V49.0871V49.087V49.0869V49.0868V49.0866V49.0864V49.0863V49.0862V49.0861V49.086V49.0859V49.0858V49.0857V49.0856V49.0855V49.0854V49.0852V49.0851V49.085V49.0849V49.0848V49.0846V49.0845V49.0844V49.0843V49.0842V49.0841V49.0839V49.0837V49.0836V49.0835V49.0834V49.0833V49.0831V49.083V49.0829V49.0828V49.0827V49.0824V49.0823V49.0822V49.0821V49.0819V49.0818V49.0817V49.0815V49.0814V49.0813V49.081V49.0809V49.0808V49.0806V49.0805V49.0804V49.0802V49.0801V49.08V49.0797V49.0796V49.0794V49.0793V49.0792V49.079V49.0789V49.0787V49.0785V49.0783V49.0782V49.078V49.0779V49.0777V49.0776V49.0774V49.0773V49.077V49.0769V49.0767V49.0766V49.0764V49.0763V49.0761V49.0758V49.0757V49.0755V49.0754V49.0752V49.075V49.0749V49.0747V49.0746V49.0743V49.0741V49.074V49.0738V49.0736V49.0734V49.0733V49.073V49.0728V49.0727V49.0725V49.0723V49.0721V49.072V49.0717V49.0715V49.0713V49.0711V49.071V49.0708V49.0706V49.0703V49.0701V49.0699V49.0697V49.0696V49.0694V49.0692V49.0689V49.0687V49.0685V49.0683V49.0681V49.0679V49.0676V49.0674V49.0672V49.067V49.0668V49.0666V49.0663V49.0661V49.0659V49.0657V49.0655V49.0653V49.065V49.0648V49.0646V49.0644V49.0641V49.0639V49.0636V49.0634V49.0632V49.063V49.0628V49.0625V49.0622V49.062V49.0618V49.0616V49.0613V49.0611V49.0608V49.0606V49.0603V49.0601V49.0599V49.0595V49.0593V49.0591V49.0588V49.0586V49.0584V49.058V49.0578V49.0576V49.0573V49.0571V49.0567V49.0565V49.0562V49.056V49.0558V49.0554V49.0552V49.0549V49.0547V49.0544V49.0541V49.0538V49.0536V49.0533V49.053V49.0527V49.0524V49.0522V49.0519V49.0515V49.0513V49.051V49.0508V49.0505V49.0501V49.0499V49.0496V49.0493V49.049V49.0487V49.0484V49.0481V49.0478V49.0476V49.0472V49.0469V49.0466V49.0463V49.046V49.0457V49.0454V49.0451V49.0447V49.0444V49.0441V49.0439C326.79 45.7765 329.136 42.0155 333.801 42.0155H389.233C392.764 42.0155 396.244 44.9664 396.244 49.0439V90.6969ZM403.157 42.2773C399.9 42.2773 396.146 39.9272 396.146 35.2489C396.146 31.4628 393.066 28.375 389.286 28.375H333.801C330.021 28.375 326.941 31.4628 326.941 35.2489C326.941 38.7904 323.996 42.2773 319.931 42.2773C316.149 42.2773 313.071 45.3651 313.071 49.1511V90.8043C313.071 94.5904 316.149 97.6782 319.931 97.6782C323.461 97.6782 326.941 100.629 326.941 104.707C326.941 108.493 330.021 111.58 333.801 111.58H389.233C393.013 111.58 396.093 108.493 396.093 104.707C396.093 101.439 398.439 97.6782 403.103 97.6782C406.885 97.6782 409.963 94.5904 409.963 90.8043V49.0975C409.963 45.3114 406.938 42.2773 403.157 42.2773Z" fill="#75FEFA" stroke="#75FEFA" stroke-width="0.4"/>
<path d="M238.858 42.2773C235.6 42.2773 231.846 39.9272 231.846 35.2489C231.846 31.4628 228.767 28.375 224.986 28.375H169.555C165.775 28.375 162.696 31.4628 162.696 35.2489C162.696 38.7904 159.749 42.2773 155.684 42.2773C151.903 42.2773 148.824 45.3651 148.824 49.1511V90.8043C148.824 94.5904 151.903 97.6782 155.684 97.6782C159.214 97.6782 162.696 100.629 162.696 104.707C162.696 108.493 165.775 111.58 169.555 111.58H224.986C228.767 111.58 231.846 108.493 231.846 104.707C231.846 101.439 234.193 97.6782 238.858 97.6782C242.638 97.6782 245.717 94.5904 245.717 90.8043V49.0975C245.717 45.3054 242.632 42.2773 238.858 42.2773ZM224.986 97.8327H169.555C166.298 97.8327 162.543 95.4825 162.543 90.8043V49.0975V49.0973V49.0972V49.0971V49.097V49.0969V49.0968V49.0967V49.0966V49.0965V49.0964V49.0963V49.0962V49.096V49.0959V49.0958V49.0957V49.0956V49.0955V49.0954V49.0953V49.0952V49.0951V49.095V49.0949V49.0948V49.0946V49.0945V49.0944V49.0943V49.0942V49.0941V49.094V49.0939V49.0938V49.0937V49.0936V49.0935V49.0933V49.0932V49.0931V49.093V49.0929V49.0928V49.0927V49.0926V49.0925V49.0924V49.0923V49.0922V49.092V49.0919V49.0918V49.0917V49.0916V49.0915V49.0914V49.0913V49.0912V49.0911V49.091V49.0909V49.0908V49.0906V49.0905V49.0904V49.0903V49.0902V49.0901V49.09V49.0899V49.0898V49.0897V49.0896V49.0895V49.0894V49.0892V49.0891V49.089V49.0889V49.0888V49.0887V49.0886V49.0885V49.0884V49.0883V49.0882V49.0881V49.0879V49.0878V49.0877V49.0876V49.0875V49.0874V49.0873V49.0872V49.0871V49.087V49.0869V49.0868V49.0866V49.0864V49.0863V49.0862V49.0861V49.086V49.0859V49.0858V49.0857V49.0856V49.0855V49.0854V49.0852V49.0851V49.085V49.0849V49.0848V49.0846V49.0845V49.0844V49.0843V49.0842V49.0841V49.0839V49.0837V49.0836V49.0835V49.0834V49.0833V49.0831V49.083V49.0829V49.0828V49.0827V49.0824V49.0823V49.0822V49.0821V49.0819V49.0818V49.0817V49.0815V49.0814V49.0813V49.081V49.0809V49.0808V49.0806V49.0805V49.0804V49.0802V49.0801V49.08V49.0797V49.0796V49.0794V49.0793V49.0792V49.079V49.0789V49.0787V49.0785V49.0783V49.0782V49.078V49.0779V49.0777V49.0776V49.0774V49.0773V49.077V49.0769V49.0767V49.0766V49.0764V49.0763V49.0761V49.0758V49.0757V49.0755V49.0754V49.0752V49.075V49.0749V49.0747V49.0746V49.0743V49.0741V49.074V49.0738V49.0736V49.0734V49.0733V49.073V49.0728V49.0727V49.0725V49.0723V49.0721V49.072V49.0717V49.0715V49.0713V49.0711V49.071V49.0708V49.0706V49.0703V49.0701V49.0699V49.0697V49.0696V49.0694V49.0692V49.0689V49.0687V49.0685V49.0683V49.0681V49.0679V49.0676V49.0674V49.0672V49.067V49.0668V49.0666V49.0663V49.0661V49.0659V49.0657V49.0655V49.0653V49.065V49.0648V49.0646V49.0644V49.0641V49.0639V49.0636V49.0634V49.0632V49.063V49.0628V49.0625V49.0622V49.062V49.0618V49.0616V49.0613V49.0611V49.0608V49.0606V49.0603V49.0601V49.0599V49.0595V49.0593V49.0591V49.0588V49.0586V49.0584V49.058V49.0578V49.0576V49.0573V49.0571V49.0567V49.0565V49.0562V49.056V49.0558V49.0554V49.0552V49.0549V49.0547V49.0544V49.0541V49.0538V49.0536V49.0533V49.053V49.0527V49.0524V49.0522V49.0519V49.0515V49.0513V49.051V49.0508V49.0505V49.0501V49.0499V49.0496V49.0493V49.049V49.0487V49.0484V49.0481V49.0478V49.0476V49.0472V49.0469V49.0466V49.0463V49.046V49.0457V49.0454V49.0451V49.0447V49.0444V49.0441V49.0439C162.543 45.7765 164.89 42.0155 169.555 42.0155H224.986C228.517 42.0155 231.998 44.9664 231.998 49.0439V90.6969C231.998 94.2996 229.045 97.8327 224.986 97.8327Z" fill="#75FEFA" stroke="#75FEFA" stroke-width="0.4"/>
<path d="M560.537 21.701V21.1609H560.463C560.187 17.6393 557.235 14.8519 553.65 14.8519C550.407 14.8519 546.669 12.5116 546.669 7.85306C546.669 4.08064 543.602 1.00391 539.834 1.00391H443.232C439.465 1.00391 436.398 4.08064 436.398 7.85306C436.398 11.3798 433.465 14.8519 429.416 14.8519C425.65 14.8519 422.582 17.9286 422.582 21.701V90.8873C422.582 94.6597 425.65 97.7365 429.416 97.7365C432.932 97.7365 436.398 100.675 436.398 104.735C436.398 108.508 439.465 111.585 443.232 111.585H539.887C543.655 111.585 546.722 108.508 546.722 104.735V104.734V104.732V104.73V104.728V104.727V104.725V104.723V104.721V104.72V104.718V104.716V104.714V104.713V104.711V104.709V104.707V104.706V104.704V104.702V104.7V104.699V104.697V104.695V104.693V104.691V104.689V104.688V104.686V104.684V104.682C546.722 101.428 549.058 97.683 553.704 97.683H556.21C558.59 97.683 560.537 95.7291 560.537 93.3468V88.3744V88.3725V88.3706V88.3688V88.3669V88.365V88.3631V88.3612V88.3594V88.3575V88.3556V88.3537V88.3518V88.35V88.3481V88.3462V88.3443V88.3424V88.3406V88.3387V88.3368V88.3349V88.3331V88.3312V88.3293V88.3274V88.3255V88.3237V88.3218V88.3199V88.318V88.3161V88.3143V88.3124V88.3105V88.3086V88.3067V88.3049V88.303V88.3011V88.2992V88.2973V88.2955V88.2935V88.2917V88.2899V88.2879V88.2861V88.2841V88.2823V88.2804V88.2785V88.2767V88.2747V88.2729V88.2711V88.2691V88.2673V88.2653V88.2635V88.2617V88.2597V88.2579V88.2559V88.2541V88.2523V88.2503V88.2485V88.2465V88.2447V88.2429V88.2409V88.2391V88.2371V88.2353V88.2335V88.2315V88.2297V88.2277V88.2259V88.2241V88.2221V88.2203V88.2184V88.2165V88.2147V88.2127V88.2109V88.209V88.2071V88.2053V88.2033V88.2015V88.1996V88.1977V88.1958V88.1939V88.1921V88.1902V88.1883V88.1865V88.1845V88.1827V88.1808V88.1789V88.177V88.1751V88.1733V88.1714V88.1695V88.1676V88.1658V88.1639V88.162V88.1601V88.1582V88.1564V88.1545V88.1526V88.1507V88.1488V88.147V88.1451V88.1432V88.1413V88.1394V88.1376V88.1357V88.1338V88.1319V88.13V88.1282V88.1263V88.1244V88.1225V88.1206V88.1188V88.1169V88.115V88.1131V88.1112V88.1094V88.1075V88.1056V88.1038V88.1018V88.1V88.0981V88.0962V88.0944V88.0924V88.0906V88.0887V88.0868V88.085V88.083V88.0812V88.0792V88.0774V88.0756V88.0736V88.0718V88.0698V88.068V88.0662V88.0642V88.0624V88.0604V88.0586V88.0568V88.0548V21.701ZM443.232 97.8327H442.692V97.8649C439.589 97.6211 436.251 95.2892 436.251 90.8873V21.701V21.6992V21.6975V21.6958V21.6941V21.6923V21.6906V21.6889V21.687V21.6853V21.6835V21.6816V21.6798V21.6781V21.6762V21.6745V21.6728V21.6711V21.6693V21.6676V21.6659V21.664V21.6622V21.6605V21.6586V21.6567V21.655V21.6532V21.6515V21.6497V21.6478C436.251 18.3942 438.587 14.6487 443.232 14.6487H539.887C543.357 14.6487 546.869 17.541 546.869 21.594V21.6475V90.8339V90.8873C546.869 94.3582 543.937 97.8327 539.887 97.8327H443.232Z" fill="#75FEFA" stroke="#75FEFA" stroke-width="0.4"/>
<path d="M664.446 42.2773C661.133 42.2773 657.328 39.9205 657.328 35.2489C657.328 31.4556 654.201 28.375 650.377 28.375H594.155C590.331 28.375 587.204 31.4556 587.204 35.2489C587.204 38.7831 584.22 42.2773 580.085 42.2773C576.262 42.2773 573.135 45.3579 573.135 49.1511V104.707C573.135 108.5 576.262 111.58 580.085 111.58C583.908 111.58 587.035 108.5 587.035 104.707V49.0975V49.0482C587.088 45.8342 589.468 42.0691 594.155 42.0691H650.377C653.97 42.0691 657.497 45.0271 657.497 49.0975V104.707C657.497 108.5 660.624 111.58 664.446 111.58C668.27 111.58 671.397 108.5 671.397 104.707V49.0975C671.397 45.2983 668.263 42.2773 664.446 42.2773Z" fill="#75FEFA" stroke="#75FEFA" stroke-width="0.4"/>
<path d="M7.78106 14.8412L7.7726 14.8413C4.06485 14.8993 1 17.971 1 21.7407V90.8933C1 94.6643 4.06797 97.7394 7.8344 97.7394C11.0284 97.7394 14.7647 100.03 14.8155 104.631V104.631V104.631V104.631V104.632V104.632V104.632V104.632V104.633V104.633V104.633V104.634V104.634V104.634V104.635V104.635V104.635V104.635V104.636V104.636V104.636V104.636V104.637V104.637V104.637V104.638V104.638V104.638V104.638V104.639V104.639V104.639V104.639V104.64V104.64V104.64V104.641V104.641V104.641V104.641V104.642V104.642V104.642V104.642V104.643V104.643V104.643V104.643V104.644V104.644V104.644V104.644V104.645V104.645V104.645V104.645V104.646V104.646V104.646V104.646V104.647V104.647V104.647V104.647V104.647V104.648V104.648V104.648V104.648V104.649V104.649V104.649V104.649V104.65V104.65V104.65V104.65V104.65V104.651V104.651V104.651V104.651V104.652V104.652V104.652V104.652V104.653V104.653V104.653V104.653V104.653V104.654V104.654V104.654V104.654V104.654V104.655V104.655V104.655V104.655V104.655V104.656V104.656V104.656V104.656V104.657V104.657V104.657V104.657V104.657V104.658V104.658V104.658V104.658V104.658V104.659V104.659V104.659V104.659V104.659V104.66V104.66V104.66V104.66V104.66V104.661V104.661V104.661V104.661V104.661V104.661V104.662V104.662V104.662V104.662V104.662V104.663V104.663V104.663V104.663V104.663V104.663V104.664V104.664V104.664V104.664V104.664V104.665V104.665V104.665V104.665V104.665V104.665V104.666V104.666V104.666V104.666V104.666V104.667V104.667V104.667V104.667V104.667V104.667V104.668V104.668V104.668V104.668V104.668V104.668V104.669V104.669V104.669V104.669V104.669V104.669V104.67V104.67V104.67V104.67V104.67V104.67V104.671V104.671V104.671V104.671V104.671V104.671V104.672V104.672V104.672V104.672V104.672V104.672V104.673V104.673V104.673V104.673V104.673V104.673V104.674V104.674V104.674V104.674V104.674V104.674V104.675V104.675V104.675V104.675V104.675V104.675V104.676V104.676V104.676V104.676V104.676V104.676V104.677V104.677V104.677V104.677V104.677V104.677V104.677V104.678V104.678V104.678V104.678V104.678V104.678V104.679V104.679V104.679V104.679V104.679V104.679V104.679V104.68V104.68V104.68V104.68V104.68V104.68V104.681V104.681V104.681V104.681V104.681V104.681V104.681V104.682V104.682V104.682V104.682V104.682V104.682V104.683V104.683V104.683V104.683V104.683V104.683V104.684V104.684V104.684V104.684V104.684V104.684V104.685V104.685V104.685V104.685V104.685V104.685V104.685V104.686V104.686V104.686V104.686V104.686V104.686V104.687V104.687V104.687V104.687V104.687V104.687V104.688V104.688V104.688V104.688V104.688V104.688V104.689V104.689V104.689V104.689V104.689V104.689V104.689V104.69V104.69V104.69V104.69V104.69V104.69V104.691V104.691V104.691V104.691V104.691V104.691V104.692V104.692V104.692V104.692V104.692V104.692V104.693V104.693V104.693V104.693V104.693V104.693V104.694V104.694V104.694V104.694V104.694V104.694V104.695V104.695V104.695V104.695V104.695V104.696V104.696V104.696V104.696V104.696V104.696V104.697V104.697V104.697V104.697V104.697V104.697V104.698V104.698V104.698V104.698V104.698V104.699V104.699V104.699V104.699V104.699V104.7V104.7V104.7V104.7V104.7V104.7V104.701V104.701V104.701V104.701V104.701V104.702V104.702V104.702V104.702V104.702V104.703V104.703V104.703V104.703V104.703V104.704V104.704V104.704V104.704V104.704V104.704V104.705V104.705V104.705V104.705V104.706V104.706V104.706V104.706V104.706V104.707V104.707V104.707V104.707V104.707V104.708V104.708V104.708V104.708V104.708V104.709V104.709V104.709V104.709V104.71V104.71V104.71V104.71V104.71V104.711V104.711V104.711V104.711V104.712V104.712V104.712V104.712V104.712V104.713V104.713V104.713V104.713V104.714V104.714V104.714V104.714V104.715V104.715V104.715V104.715V104.716V104.716V104.716V104.716V104.716V104.717V104.717V104.717V104.717V104.718V104.718V104.718V104.718V104.719V104.719V104.719V104.72V104.72V104.72V104.72V104.72V104.721V104.721V104.721V104.722V104.722V104.722V104.722V104.723V104.723V104.723V104.723V104.724V104.724V104.724V104.724V104.725V104.725V104.725V104.726V104.726V104.726V104.726V104.727V104.727V104.727V104.728V104.728V104.728V104.728V104.729V104.729V104.729V104.73V104.73V104.73V104.731V104.731V104.731V104.731V104.732V104.732V104.732V104.733V104.733V104.733V104.734V104.734V104.734V104.735C14.8155 108.505 17.8835 111.58 21.65 111.58H118.306C122.072 111.58 125.14 108.505 125.14 104.735C125.14 101.483 127.476 97.7394 132.121 97.7394C135.888 97.7394 138.956 94.6643 138.956 90.8933C138.956 87.1223 135.888 84.0472 132.121 84.0472C128.355 84.0472 125.287 87.1223 125.287 90.8933V90.9424C125.235 94.4229 122.348 97.8884 118.306 97.8884H21.65C18.1343 97.8884 14.6688 94.9512 14.6688 90.8933V21.7407V21.7406V21.7405V21.7404V21.7403V21.7402V21.7401V21.74V21.7399V21.7397V21.7396V21.7395V21.7394V21.7393V21.7392V21.7391V21.739V21.7389V21.7388V21.7387V21.7386V21.7384V21.7383V21.7382V21.7381V21.738V21.7379V21.7378V21.7377V21.7376V21.7375V21.7374V21.7373V21.7371V21.737V21.7369V21.7368V21.7367V21.7366V21.7365V21.7364V21.7363V21.7362V21.7361V21.736V21.7359V21.7357V21.7356V21.7355V21.7354V21.7353V21.7352V21.7351V21.735V21.7349V21.7348V21.7347V21.7346V21.7344V21.7343V21.7342V21.7341V21.734V21.7339V21.7338V21.7337V21.7336V21.7335V21.7334V21.7333V21.7332V21.733V21.7329V21.7328V21.7327V21.7326V21.7325V21.7324V21.7323V21.7322V21.7321V21.732V21.7319V21.7317V21.7316V21.7315V21.7314V21.7313V21.7312V21.7311V21.731V21.7309V21.7308V21.7307V21.7306V21.7305V21.7303V21.7302V21.7301V21.73V21.7299V21.7298V21.7297V21.7296V21.7295V21.7294V21.7293V21.7292V21.729V21.7289V21.7288V21.7287V21.7286V21.7285V21.7284V21.7283V21.7282V21.7281V21.7279V21.7278V21.7276V21.7275V21.7274V21.7273V21.7272V21.727V21.7269V21.7268V21.7267V21.7266V21.7263V21.7262V21.7261V21.726V21.7259V21.7257V21.7256V21.7255V21.7254V21.7252V21.7251V21.7249V21.7248V21.7246V21.7245V21.7244V21.7242V21.7241V21.724V21.7238V21.7236V21.7235V21.7233V21.7232V21.723V21.7229V21.7228V21.7226V21.7225V21.7222V21.7221V21.722V21.7218V21.7217V21.7215V21.7214V21.7212V21.7211V21.7208V21.7207V21.7205V21.7204V21.7202V21.7201V21.7199V21.7198V21.7195V21.7193V21.7192V21.719V21.7189V21.7187V21.7185V21.7184V21.7181V21.718V21.7178V21.7176V21.7175V21.7173V21.7171V21.717V21.7167V21.7165V21.7164V21.7162V21.716V21.7158V21.7157V21.7154V21.7152V21.715V21.7148V21.7147V21.7145V21.7143V21.714V21.7138V21.7137V21.7135V21.7133V21.7131V21.7128V21.7126V21.7124V21.7122V21.7121V21.7119V21.7117V21.7114V21.7112V21.711V21.7108V21.7106V21.7104V21.7101V21.7099V21.7097V21.7095V21.7093V21.7091V21.7089V21.7086V21.7084V21.7082V21.708V21.7077V21.7074V21.7072V21.707V21.7068V21.7066V21.7064V21.706V21.7058V21.7056V21.7054V21.7052V21.7049V21.7046V21.7044V21.7042V21.704V21.7037V21.7035V21.7032V21.7029V21.7027V21.7025V21.7022V21.7019V21.7017V21.7014V21.7012V21.701V21.7006V21.7004V21.7002V21.6999V21.6997V21.6993V21.6991V21.6988V21.6986V21.6983V21.6981V21.6977V21.6975V21.6972V21.697V21.6966V21.6964V21.6961V21.6959V21.6956V21.6952V21.695V21.6947V21.6945V21.6942V21.6938V21.6936V21.6933V21.693V21.6928V21.6924V21.6921V21.6918V21.6916V21.6912V21.6909V21.6906V21.6904V21.6901V21.6897V21.6894V21.6891V21.6889V21.6885V21.6882V21.6879V21.6876V21.6872C14.6688 18.4356 17.0051 14.6921 21.65 14.6921H118.306C121.548 14.6921 125.285 17.0299 125.287 21.6831C125.231 25.5166 128.307 28.5333 132.068 28.5333C135.834 28.5333 138.903 25.4582 138.903 21.6872C138.903 17.9163 135.834 14.8412 132.068 14.8412C128.552 14.8412 125.086 11.904 125.086 7.84607C125.086 4.07509 122.019 1 118.253 1H21.5966C17.8302 1 14.7622 4.0751 14.7622 7.84607C14.7622 11.3707 11.829 14.8412 7.78106 14.8412Z" fill="#75FEFA" stroke="#75FEFA" stroke-width="0.4"/>
<path d="M699 28.375H698.46V28.915V41.789V42.329H699H763.638H764.178V41.789V28.915V28.375H763.638H699Z" fill="#75FEFA" stroke="#75FEFA" stroke-width="0.4"/>
<path d="M779.204 69.1541H779.744V68.6141V45.0107V44.4707H779.204H766.584H766.044V45.0107V55.8314H696.346V45.0107V44.4707H695.806H683.187H682.646V45.0107V95.4336V95.9736H683.187H695.806H696.346V95.4336V69.1541H766.584H772.867H779.204Z" fill="#75FEFA" stroke="#75FEFA" stroke-width="0.4"/>
<path d="M698.729 98.1133H698.189V98.6533V110.99V111.53H698.729H763.635H764.175V110.99V98.6533V98.1133H763.635H698.729Z" fill="#75FEFA" stroke="#75FEFA" stroke-width="0.4"/>
<path d="M779.741 84.7022V84.1621H779.201H766.864H766.323V84.7022V89.9754V89.9756V89.9759V89.9762V89.9764V89.9767V89.9769V89.9773V89.9775V89.9777V89.978V89.9782V89.9785V89.9788V89.979V89.9792V89.9795V89.9798V89.98V89.9803V89.9805V89.9807V89.981V89.9813V89.9815V89.9817V89.982V89.9822V89.9825V89.9827V89.9829V89.9832V89.9834V89.9836V89.9839V89.9841V89.9843V89.9846V89.9848V89.985V89.9853V89.9855V89.9857V89.9859V89.9861V89.9863V89.9866V89.9868V89.9871V89.9873V89.9875V89.9877V89.988V89.9882V89.9884V89.9886V89.9888V89.989V89.9893V89.9895V89.9897V89.9898V89.99V89.9902V89.9904V89.9907V89.9909V89.9911V89.9913V89.9915V89.9917V89.992V89.9921V89.9923V89.9925V89.9927V89.9929V89.9931V89.9934V89.9935V89.9937V89.9939V89.9941V89.9943V89.9944V89.9947V89.9949V89.9951V89.9953V89.9954V89.9956V89.9958V89.9961V89.9962V89.9964V89.9966V89.9967V89.9969V89.9971V89.9974V89.9975V89.9977V89.9979V89.998V89.9982V89.9984V89.9985V89.9988V89.999V89.9991V89.9993V89.9995V89.9996V89.9998V89.9999V90.0002V90.0004V90.0005V90.0007V90.0008V90.001V90.0012V90.0013V90.0016V90.0017V90.0019V90.002V90.0022V90.0023V90.0025V90.0028V90.0029V90.0031V90.0032V90.0034V90.0035V90.0037V90.0038V90.0041V90.0042V90.0044V90.0045V90.0047V90.0048V90.005V90.0051V90.0052V90.0055V90.0056V90.0058V90.0059V90.0061V90.0062V90.0064V90.0065V90.0066V90.0069V90.007V90.0072V90.0073V90.0075V90.0076V90.0077V90.0079V90.008V90.0083V90.0084V90.0085V90.0087V90.0088V90.0089V90.0091V90.0092V90.0095V90.0096V90.0097V90.0099V90.01V90.0101V90.0103V90.0104V90.0105V90.0108V90.0109V90.011V90.0112V90.0113V90.0114V90.0116V90.0117V90.0118V90.012V90.0122V90.0123V90.0125V90.0126V90.0127V90.0128V90.013V90.0131V90.0132V90.0134V90.0136V90.0137V90.0138V90.014V90.0141V90.0142V90.0144V90.0145V90.0146V90.0147V90.015V90.0151V90.0152V90.0153V90.0155V90.0156V90.0157V90.0159V90.016V90.0161V90.0163V90.0165V90.0166V90.0167V90.0168V90.017V90.0171V90.0172V90.0173V90.0176V90.0177V90.0178V90.0179V90.0181V90.0182V90.0183V90.0184V90.0185V90.0187V90.0189V90.019V90.0191V90.0193V90.0194V90.0195V90.0196V90.0198V90.0199V90.02V90.0201V90.0204V90.0205V90.0206V90.0207V90.0208V90.021V90.0211V90.0212V90.0213V90.0215V90.0217V90.0218V90.0219V90.0221V90.0222V90.0223V90.0224V90.0226V90.0227V90.0228V90.023V90.0231V90.0233V90.0234V90.0235V90.0236V90.0238V90.0239V90.024V90.0241V90.0244V90.0245V90.0246V90.0247V90.0249V90.025V90.0251V90.0252V90.0254V90.0255V90.0257V90.0258V90.026V90.0261V90.0262V90.0263V90.0265V90.0266V90.0267V90.027V90.0271V90.0272V90.0273V90.0275V90.0276V90.0277V90.0278V90.028V90.0281V90.0282V90.0285V90.0286V90.0287V90.0289V90.029V90.0291V90.0292V90.0294V90.0295V90.0296V90.0299V90.03V90.0301V90.0303V90.0304V90.0305V90.0307V90.0308V90.0309V90.0312V90.0313V90.0314V90.0316V90.0317V90.0318V90.032V90.0321V90.0322V90.0325V90.0326V90.0328V90.0329V90.033V90.0332V90.0333V90.0334V90.0336V90.0338V90.034V90.0341V90.0342V90.0344V90.0345V90.0347V90.0348V90.0349V90.0352V90.0353V90.0355V90.0356V90.0358V90.0359V90.0361V90.0362V90.0363V90.0366V90.0367V90.0369V90.037V90.0372V90.0373V90.0375V90.0376V90.0379V90.038V90.0382V90.0383V90.0385V90.0386V90.0388V90.0389V90.0392V90.0393V90.0395V90.0397V90.0398V90.04V90.0401V90.0403V90.0405V90.0407V90.0409V90.041V90.0412V90.0413V90.0415V90.0417V90.0419V90.0421V90.0422V90.0424V90.0426V90.0427V90.0429V90.0432V90.0433V90.0435V90.0437V90.0438V90.044V90.0442V90.0443V90.0446V90.0448V90.0449V90.0451V90.0453V90.0455V90.0456V90.0458V90.0461V90.0463V90.0464V90.0466V90.0468V90.047V90.0471V90.0474V90.0476V90.0478V90.048V90.0482V90.0483V90.0486V90.0488V90.049V90.0492V90.0494V90.0495V90.0497V90.05V90.0502V90.0504V90.0506V90.0508V90.051V90.0513V90.0515V90.0516V90.0518V90.052V90.0522V90.0524V90.0527V90.0529V90.0531V90.0533V90.0535V90.0537V90.054V90.0542V90.0544V90.0546V90.0548V90.0551V90.0554V90.0556V90.0558V90.056V90.0562V90.0564V90.0567V90.0569V90.0571V90.0574V90.0576V90.0578V90.0581V90.0583V90.0585V90.0588V90.059V90.0592V90.0595V90.0597V90.06V90.0602V90.0604V90.0606V90.061V90.0612V90.0614V90.0617V90.0619V90.0622V90.0624V90.0627V90.0629V90.0631V90.0635V90.0637V90.064V90.0642V90.0644V90.0648V90.065V90.0653V90.0655V90.0657V90.0661V90.0663V90.0666V90.0668V90.0671V90.0673V90.0677V90.0679V90.0681V90.0684V90.0686V90.069V90.0692V90.0694V90.0697V90.0699V90.0702V90.0705V90.0707V90.0709V90.0712V90.0715V90.0717V90.0719V90.0722V90.0724V90.0726V90.0729V90.0732V90.0734V90.0736V90.0738V90.074V90.0744V90.0746V90.0748V90.075V90.0752V90.0754V90.0757V90.076V90.0762V90.0764V90.0766V90.0768V90.0771V90.0773V90.0775V90.0777V90.0779V90.0782V90.0784V90.0786V90.0788V90.079V90.0792V90.0794V90.0797V90.0799V90.0801V90.0803V90.0805V90.0807V90.081V90.0812V90.0814V90.0816V90.0818V90.082V90.0823V90.0825V90.0827V90.0828V90.083V90.0832V90.0834V90.0837V90.0839V90.0841V90.0842V90.0844V90.0846V90.0848V90.0851V90.0852V90.0854V90.0856V90.0858V90.086V90.0861V90.0864V90.0866V90.0868V90.0869V90.0871V90.0873V90.0875V90.0877V90.0879V90.0881V90.0882V90.0884V90.0886V90.0887V90.0889V90.0892V90.0893V90.0895V90.0897V90.0898V90.09V90.0902V90.0904V90.0906V90.0908V90.0909V90.0911V90.0912V90.0914V90.0916V90.0918V90.092V90.0921V90.0923V90.0925V90.0926V90.0928V90.0929V90.0932V90.0933V90.0935V90.0936V90.0938V90.0939V90.0941V90.0942V90.0945V90.0946V90.0948V90.0949V90.0951V90.0952V90.0954V90.0955V90.0958V90.0959V90.0961V90.0962V90.0964V90.0965V90.0967V90.0968V90.097V90.0972V90.0973V90.0975V90.0976V90.0978V90.0979V90.0981V90.0982V90.0983V90.0986V90.0987V90.0989V90.099V90.0991V90.0993V90.0994V90.0995V90.0997V90.0999V90.1001V90.1002V90.1003V90.1005V90.1006V90.1007V90.1009V90.101V90.1011V90.1014V90.1015V90.1016V90.1018V90.1019V90.102V90.1022V90.1023V90.1025V90.1027V90.1028V90.1029V90.1031V90.1032V90.1033V90.1035V90.1036V90.1037V90.104V90.1041V90.1042V90.1043V90.1045V90.1046V90.1047V90.1049V90.105V90.1051V90.1053V90.1055V90.1056V90.1057V90.1058V90.106V90.1061V90.1062V90.1064V90.1066V90.1067V90.1068V90.107V90.1071V90.1072V90.1073V90.1075V90.1076V90.1077V90.1078V90.1081V90.1082V90.1083V90.1084V90.1086V90.1087V90.1088V90.1089V90.1091V90.1092V90.1094V90.1095V90.1097V90.1098V90.1099V90.11V90.1101V90.1103V90.1104V90.1106V90.1107V90.1109V90.111V90.1111V90.1112V90.1114V90.1115V90.1116V90.1117V90.1118V90.1121V90.1122V90.1123V90.1124V90.1126V90.1127V90.1128V90.1129V90.1131V90.1132V90.1134V90.1135V90.1137V90.1138V90.1139V90.114V90.1141V90.1143V90.1144V90.1145V90.1147V90.1149V90.115V90.1151V90.1152V90.1154V90.1155V90.1156V90.1157V90.1159V90.1161V90.1162V90.1163V90.1165V90.1166V90.1167V90.1168V90.117V90.1171V90.1172V90.1175V90.1176V90.1177V90.1178V90.118V90.1181V90.1182V90.1183V90.1185V90.1187V90.1188V90.119V90.1191V90.1192V90.1193V90.1195V90.1196V90.1197V90.1199V90.1201V90.1202V90.1204V90.1205V90.1206V90.1207V90.1209V90.121V90.1211V90.1213V90.1215V90.1216V90.1218V90.1219V90.122V90.1222V90.1223V90.1224V90.1226V90.1228V90.1229V90.1231V90.1232V90.1234V90.1235V90.1236V90.1238V90.1239V90.124V90.1243V90.1244V90.1246V90.1247V90.1248V90.125V90.1251V90.1253V90.1254V90.1256V90.1258V90.1259V90.1261V90.1262V90.1264V90.1265V90.1266V90.1269V90.127V90.1272V90.1273V90.1275V90.1276V90.1278V90.1279V90.1282V90.1283V90.1285V90.1286V90.1288V90.1289V90.1291V90.1292V90.1294V90.1296V90.1298V90.1299V90.1301V90.1302V90.1304V90.1305V90.1307V90.1309V90.1311V90.1313V90.1314V90.1316V90.1317V90.1319V90.132V90.1323V90.1325V90.1326V90.1328V90.133V90.1331V90.1333V90.1334V90.1337V90.1339V90.134V90.1342V90.1344V90.1345V90.1347V90.135V90.1351V90.1353V90.1355V90.1357V90.1358V90.136V90.1363V90.1364V90.1366V90.1368V90.137V90.1371V90.1373V90.1375V90.1378V90.1379V90.1381V90.1383V90.1385V90.1387V90.1388V90.1391V90.1393V90.1395V90.1397V90.1399V90.14V90.1402V90.1405V90.1407V90.1409V90.1411V90.1413V90.1415V90.1418V90.1419V90.1421V90.1423V90.1425V90.1427V90.143V90.1432V90.1434V90.1436V90.1438V90.144V90.1442V90.1445V90.1447V90.1449V90.1451V90.1453V90.1455V90.1458V90.146V90.1462V90.1464V90.1466V90.1469V90.1472V90.1474V90.1476V90.1478V90.148V90.1482V90.1485V90.1488V90.149V90.1492V90.1494V90.1496V90.15V90.1502V90.1504V90.1506V90.1508V90.1512V90.1514V90.1516V90.1518V90.1521V90.1523V90.1526V90.1529V90.1531V90.1533V90.1536V90.1539V90.1541V90.1544V90.1546V90.1548V90.1552V90.1554V90.1557V90.1559V90.1561V90.1565V90.1567V90.157V90.1572V95.4305V95.9705H766.864H773.006H779.201H779.741V95.4305V84.7022Z" fill="#75FEFA" stroke="#75FEFA" stroke-width="0.4"/>
<path d="M10.1373 150.441L17.6973 162.051L25.2573 150.441H26.9373V171.441H25.2573V153.141L18.1473 164.031H17.2173L10.1373 153.141V171.441H8.45732V150.441H10.1373ZM45.9299 163.341V163.671H32.1899C32.1699 163.831 32.1599 164.051 32.1599 164.331C32.1599 166.131 32.7899 167.591 34.0499 168.711C35.3299 169.831 36.9099 170.391 38.7899 170.391C39.6899 170.391 40.6199 170.211 41.5799 169.851C42.5599 169.471 43.3599 168.971 43.9799 168.351L45.0899 169.491C44.3499 170.231 43.3999 170.821 42.2399 171.261C41.0799 171.681 39.9299 171.891 38.7899 171.891C36.4699 171.891 34.5199 171.191 32.9399 169.791C31.3599 168.371 30.5699 166.551 30.5699 164.331C30.5699 162.011 31.3099 160.041 32.7899 158.421C34.2699 156.801 36.0899 155.991 38.2499 155.991C40.7099 155.991 42.5999 156.731 43.9199 158.211C45.2599 159.671 45.9299 161.381 45.9299 163.341ZM44.2499 162.231C44.0299 160.891 43.3999 159.771 42.3599 158.871C41.3399 157.951 39.9699 157.491 38.2499 157.491C36.8299 157.491 35.5899 157.931 34.5299 158.811C33.4899 159.671 32.7899 160.811 32.4299 162.231H44.2499ZM48.1419 171.441V175.671H46.5519V170.001H48.3219C48.9419 169.081 49.4719 167.711 49.9119 165.891C50.3519 164.051 50.5719 162.091 50.5719 160.011V156.441H60.7119V170.001H62.9019V175.671H61.3119V171.441H48.1419ZM59.1219 170.001V157.881H52.1319V160.011C52.1319 162.011 51.9119 163.961 51.4719 165.861C51.0519 167.741 50.5819 169.121 50.0619 170.001H59.1219ZM67.7872 156.441V169.341L77.5372 156.441H79.2172V171.441H77.6272V158.571L67.9072 171.441H66.1972V156.441H67.7872ZM87.6397 171.891C86.0997 171.891 84.8797 171.501 83.9797 170.721C83.0997 169.941 82.6597 168.911 82.6597 167.631C82.6597 166.311 83.1297 165.281 84.0697 164.541C85.0097 163.781 86.1497 163.291 87.4897 163.071C88.9497 162.851 90.9597 162.721 93.5197 162.681V161.151C93.5197 159.731 93.1597 158.761 92.4397 158.241C91.7197 157.701 90.7197 157.431 89.4397 157.431C87.6397 157.431 86.0497 158.121 84.6697 159.501L83.6497 158.421C85.3097 156.801 87.3397 155.991 89.7397 155.991C90.7597 155.991 91.6297 156.131 92.3497 156.411C93.0697 156.691 93.5997 157.011 93.9397 157.371C94.2997 157.711 94.5697 158.171 94.7497 158.751C94.9497 159.311 95.0597 159.741 95.0797 160.041C95.0997 160.341 95.1097 160.711 95.1097 161.151V171.441H93.5197V168.531C91.7597 170.771 89.7997 171.891 87.6397 171.891ZM87.6397 170.451C89.8997 170.451 91.8597 169.181 93.5197 166.641V164.121C91.1197 164.141 89.1997 164.261 87.7597 164.481C87.4797 164.521 87.1697 164.601 86.8297 164.721C86.5097 164.821 86.1397 164.991 85.7197 165.231C85.2997 165.451 84.9497 165.771 84.6697 166.191C84.3897 166.611 84.2497 167.091 84.2497 167.631C84.2497 168.651 84.5997 169.381 85.2997 169.821C86.0197 170.241 86.7997 170.451 87.6397 170.451ZM99.1492 163.371V161.691H107.189V163.371H99.1492ZM113.645 159.351C112.505 160.571 111.935 162.101 111.935 163.941C111.935 165.781 112.505 167.321 113.645 168.561C114.805 169.781 116.295 170.391 118.115 170.391C119.875 170.391 121.435 169.711 122.795 168.351L123.905 169.491C122.305 171.091 120.375 171.891 118.115 171.891C115.915 171.891 114.065 171.091 112.565 169.491C111.085 167.891 110.345 166.041 110.345 163.941C110.345 161.841 111.085 159.991 112.565 158.391C114.065 156.791 115.915 155.991 118.115 155.991C120.375 155.991 122.305 156.791 123.905 158.391L122.795 159.531C121.435 158.171 119.875 157.491 118.115 157.491C116.295 157.491 114.805 158.111 113.645 159.351ZM140.793 163.341V163.671H127.053C127.033 163.831 127.023 164.051 127.023 164.331C127.023 166.131 127.653 167.591 128.913 168.711C130.193 169.831 131.773 170.391 133.653 170.391C134.553 170.391 135.483 170.211 136.443 169.851C137.423 169.471 138.223 168.971 138.843 168.351L139.953 169.491C139.213 170.231 138.263 170.821 137.103 171.261C135.943 171.681 134.793 171.891 133.653 171.891C131.333 171.891 129.383 171.191 127.803 169.791C126.223 168.371 125.433 166.551 125.433 164.331C125.433 162.011 126.173 160.041 127.653 158.421C129.133 156.801 130.953 155.991 133.113 155.991C135.573 155.991 137.463 156.731 138.783 158.211C140.123 159.671 140.793 161.381 140.793 163.341ZM139.113 162.231C138.893 160.891 138.263 159.771 137.223 158.871C136.203 157.951 134.833 157.491 133.113 157.491C131.693 157.491 130.453 157.931 129.393 158.811C128.353 159.671 127.653 160.811 127.293 162.231H139.113ZM151.533 171.891C149.313 171.891 147.423 171.091 145.863 169.491V177.561H144.273V156.441H145.863V158.421C147.423 156.801 149.313 155.991 151.533 155.991C153.693 155.991 155.543 156.771 157.083 158.331C158.623 159.891 159.393 161.761 159.393 163.941C159.393 166.121 158.623 167.991 157.083 169.551C155.543 171.111 153.693 171.891 151.533 171.891ZM151.173 157.341C150.113 157.341 149.113 157.591 148.173 158.091C147.253 158.571 146.483 159.221 145.863 160.041V167.841C146.463 168.681 147.233 169.341 148.173 169.821C149.113 170.301 150.113 170.541 151.173 170.541C152.973 170.541 154.513 169.901 155.793 168.621C157.093 167.321 157.743 165.761 157.743 163.941C157.743 162.141 157.093 160.591 155.793 159.291C154.513 157.991 152.973 157.341 151.173 157.341ZM174.098 160.071C174.098 160.731 173.908 161.371 173.528 161.991C173.168 162.611 172.678 163.121 172.058 163.521C172.878 163.841 173.518 164.341 173.978 165.021C174.458 165.701 174.698 166.451 174.698 167.271C174.698 168.411 174.298 169.391 173.498 170.211C172.698 171.031 171.688 171.441 170.468 171.441H162.848V156.441H170.108C171.248 156.441 172.198 156.791 172.958 157.491C173.718 158.191 174.098 159.051 174.098 160.071ZM164.438 170.001H170.018C170.878 170.001 171.588 169.751 172.148 169.251C172.728 168.751 173.018 168.081 173.018 167.241C173.018 166.401 172.728 165.711 172.148 165.171C171.588 164.631 170.878 164.361 170.018 164.361H164.438V170.001ZM172.508 160.251C172.508 159.531 172.238 158.961 171.698 158.541C171.158 158.101 170.498 157.881 169.718 157.881H164.438V162.921H169.718C170.478 162.921 171.128 162.671 171.668 162.171C172.228 161.651 172.508 161.011 172.508 160.251ZM180.024 156.441V169.341L189.774 156.441H191.454V171.441H189.864V158.571L180.144 171.441H178.434V156.441H180.024ZM198.196 159.351C197.056 160.571 196.486 162.101 196.486 163.941C196.486 165.781 197.056 167.321 198.196 168.561C199.356 169.781 200.846 170.391 202.666 170.391C204.426 170.391 205.986 169.711 207.346 168.351L208.456 169.491C206.856 171.091 204.926 171.891 202.666 171.891C200.466 171.891 198.616 171.091 197.116 169.491C195.636 167.891 194.896 166.041 194.896 163.941C194.896 161.841 195.636 159.991 197.116 158.391C198.616 156.791 200.466 155.991 202.666 155.991C204.926 155.991 206.856 156.791 208.456 158.391L207.346 159.531C205.986 158.171 204.426 157.491 202.666 157.491C200.846 157.491 199.356 158.111 198.196 159.351ZM219.06 171.441V175.671H217.47V170.001H219.24C219.86 169.081 220.39 167.711 220.83 165.891C221.27 164.051 221.49 162.091 221.49 160.011V156.441H231.63V170.001H233.82V175.671H232.23V171.441H219.06ZM230.04 170.001V157.881H223.05V160.011C223.05 162.011 222.83 163.961 222.39 165.861C221.97 167.741 221.5 169.121 220.98 170.001H230.04ZM235.015 171.441V170.001H235.975C236.975 170.001 237.695 169.451 238.135 168.351C238.575 167.251 238.795 165.271 238.795 162.411V156.441H249.505V171.441H247.915V157.881H240.385V162.411C240.385 168.431 238.915 171.441 235.975 171.441H235.015ZM262.622 165.621H259.112L255.002 171.441H252.962L257.222 165.621C255.902 165.501 254.862 164.991 254.102 164.091C253.342 163.191 252.962 162.171 252.962 161.031C252.962 159.831 253.382 158.771 254.222 157.851C255.082 156.911 256.242 156.441 257.702 156.441H264.212V171.441H262.622V165.621ZM262.622 157.881H257.672C256.792 157.881 256.052 158.171 255.452 158.751C254.852 159.311 254.552 160.071 254.552 161.031C254.552 161.991 254.852 162.761 255.452 163.341C256.052 163.901 256.792 164.181 257.672 164.181H262.622V157.881ZM287.14 156.441V157.881H278.11V171.441H276.52V156.441H287.14ZM302.805 163.341V163.671H289.065C289.045 163.831 289.035 164.051 289.035 164.331C289.035 166.131 289.665 167.591 290.925 168.711C292.205 169.831 293.785 170.391 295.665 170.391C296.565 170.391 297.495 170.211 298.455 169.851C299.435 169.471 300.235 168.971 300.855 168.351L301.965 169.491C301.225 170.231 300.275 170.821 299.115 171.261C297.955 171.681 296.805 171.891 295.665 171.891C293.345 171.891 291.395 171.191 289.815 169.791C288.235 168.371 287.445 166.551 287.445 164.331C287.445 162.011 288.185 160.041 289.665 158.421C291.145 156.801 292.965 155.991 295.125 155.991C297.585 155.991 299.475 156.731 300.795 158.211C302.135 159.671 302.805 161.381 302.805 163.341ZM301.125 162.231C300.905 160.891 300.275 159.771 299.235 158.871C298.215 157.951 296.845 157.491 295.125 157.491C293.705 157.491 292.465 157.931 291.405 158.811C290.365 159.671 289.665 160.811 289.305 162.231H301.125ZM308.895 151.551C310.075 152.091 311.375 152.361 312.795 152.361C314.215 152.361 315.515 152.091 316.695 151.551L317.385 152.841C316.045 153.461 314.515 153.771 312.795 153.771C311.075 153.771 309.545 153.461 308.205 152.841L308.895 151.551ZM307.875 156.441V169.341L317.625 156.441H319.305V171.441H317.715V158.571L307.995 171.441H306.285V156.441H307.875ZM331.658 164.991L337.508 156.441H339.218V171.441H337.628V159.021L332.108 166.971H331.178L325.688 159.021V171.441H324.098V156.441H325.808L331.658 164.991ZM358.03 163.341V163.671H344.29C344.27 163.831 344.26 164.051 344.26 164.331C344.26 166.131 344.89 167.591 346.15 168.711C347.43 169.831 349.01 170.391 350.89 170.391C351.79 170.391 352.72 170.211 353.68 169.851C354.66 169.471 355.46 168.971 356.08 168.351L357.19 169.491C356.45 170.231 355.5 170.821 354.34 171.261C353.18 171.681 352.03 171.891 350.89 171.891C348.57 171.891 346.62 171.191 345.04 169.791C343.46 168.371 342.67 166.551 342.67 164.331C342.67 162.011 343.41 160.041 344.89 158.421C346.37 156.801 348.19 155.991 350.35 155.991C352.81 155.991 354.7 156.731 356.02 158.211C357.36 159.671 358.03 161.381 358.03 163.341ZM356.35 162.231C356.13 160.891 355.5 159.771 354.46 158.871C353.44 157.951 352.07 157.491 350.35 157.491C348.93 157.491 347.69 157.931 346.63 158.811C345.59 159.671 344.89 160.811 344.53 162.231H356.35ZM368.77 171.891C366.55 171.891 364.66 171.091 363.1 169.491V177.561H361.51V156.441H363.1V158.421C364.66 156.801 366.55 155.991 368.77 155.991C370.93 155.991 372.78 156.771 374.32 158.331C375.86 159.891 376.63 161.761 376.63 163.941C376.63 166.121 375.86 167.991 374.32 169.551C372.78 171.111 370.93 171.891 368.77 171.891ZM368.41 157.341C367.35 157.341 366.35 157.591 365.41 158.091C364.49 158.571 363.72 159.221 363.1 160.041V167.841C363.7 168.681 364.47 169.341 365.41 169.821C366.35 170.301 367.35 170.541 368.41 170.541C370.21 170.541 371.75 169.901 373.03 168.621C374.33 167.321 374.98 165.761 374.98 163.941C374.98 162.141 374.33 160.591 373.03 159.291C371.75 157.991 370.21 157.341 368.41 157.341ZM386.954 170.631C388.834 170.631 390.404 169.981 391.664 168.681C392.944 167.381 393.584 165.801 393.584 163.941C393.584 162.101 392.944 160.531 391.664 159.231C390.404 157.911 388.834 157.251 386.954 157.251C385.054 157.251 383.474 157.911 382.214 159.231C380.954 160.531 380.324 162.101 380.324 163.941C380.324 165.801 380.954 167.381 382.214 168.681C383.474 169.981 385.054 170.631 386.954 170.631ZM392.894 169.611C391.374 171.131 389.394 171.891 386.954 171.891C384.514 171.891 382.534 171.131 381.014 169.611C379.494 168.071 378.734 166.181 378.734 163.941C378.734 161.701 379.494 159.821 381.014 158.301C382.534 156.761 384.514 155.991 386.954 155.991C389.394 155.991 391.374 156.761 392.894 158.301C394.414 159.821 395.174 161.701 395.174 163.941C395.174 166.181 394.414 168.071 392.894 169.611ZM409.879 160.071C409.879 160.731 409.689 161.371 409.309 161.991C408.949 162.611 408.459 163.121 407.839 163.521C408.659 163.841 409.299 164.341 409.759 165.021C410.239 165.701 410.479 166.451 410.479 167.271C410.479 168.411 410.079 169.391 409.279 170.211C408.479 171.031 407.469 171.441 406.249 171.441H398.629V156.441H405.889C407.029 156.441 407.979 156.791 408.739 157.491C409.499 158.191 409.879 159.051 409.879 160.071ZM400.219 170.001H405.799C406.659 170.001 407.369 169.751 407.929 169.251C408.509 168.751 408.799 168.081 408.799 167.241C408.799 166.401 408.509 165.711 407.929 165.171C407.369 164.631 406.659 164.361 405.799 164.361H400.219V170.001ZM408.289 160.251C408.289 159.531 408.019 158.961 407.479 158.541C406.939 158.101 406.279 157.881 405.499 157.881H400.219V162.921H405.499C406.259 162.921 406.909 162.671 407.449 162.171C408.009 161.651 408.289 161.011 408.289 160.251ZM9.86732 194.441V207.341L19.6173 194.441H21.2973V209.441H19.7073V196.571L9.98732 209.441H8.27732V194.441H9.86732ZM35.1798 194.441V207.341L44.9298 194.441H46.6098V209.441H45.0198V196.571L35.2998 209.441H33.5898V194.441H35.1798ZM62.7423 202.391H52.9923V209.441H51.4023V194.441H52.9923V200.951H62.7423V194.441H64.3323V209.441H62.7423V202.391ZM68.7669 209.441V213.671H67.1769V208.001H68.9469C69.5669 207.081 70.0969 205.711 70.5369 203.891C70.9769 202.051 71.1969 200.091 71.1969 198.011V194.441H81.3369V208.001H83.5269V213.671H81.9369V209.441H68.7669ZM79.7469 208.001V195.881H72.7569V198.011C72.7569 200.011 72.5369 201.961 72.0969 203.861C71.6769 205.741 71.2069 207.121 70.6869 208.001H79.7469ZM88.4122 194.441V207.341L98.1622 194.441H99.8422V209.441H98.2522V196.571L88.5322 209.441H86.8222V194.441H88.4122ZM104.335 201.371V199.691H112.375V201.371H104.335ZM124.141 209.891C121.921 209.891 120.031 209.091 118.471 207.491V215.561H116.881V194.441H118.471V196.421C120.031 194.801 121.921 193.991 124.141 193.991C126.301 193.991 128.151 194.771 129.691 196.331C131.231 197.891 132.001 199.761 132.001 201.941C132.001 204.121 131.231 205.991 129.691 207.551C128.151 209.111 126.301 209.891 124.141 209.891ZM123.781 195.341C122.721 195.341 121.721 195.591 120.781 196.091C119.861 196.571 119.091 197.221 118.471 198.041V205.841C119.071 206.681 119.841 207.341 120.781 207.821C121.721 208.301 122.721 208.541 123.781 208.541C125.581 208.541 127.121 207.901 128.401 206.621C129.701 205.321 130.351 203.761 130.351 201.941C130.351 200.141 129.701 198.591 128.401 197.291C127.121 195.991 125.581 195.341 123.781 195.341ZM139.085 209.891C137.545 209.891 136.325 209.501 135.425 208.721C134.545 207.941 134.105 206.911 134.105 205.631C134.105 204.311 134.575 203.281 135.515 202.541C136.455 201.781 137.595 201.291 138.935 201.071C140.395 200.851 142.405 200.721 144.965 200.681V199.151C144.965 197.731 144.605 196.761 143.885 196.241C143.165 195.701 142.165 195.431 140.885 195.431C139.085 195.431 137.495 196.121 136.115 197.501L135.095 196.421C136.755 194.801 138.785 193.991 141.185 193.991C142.205 193.991 143.075 194.131 143.795 194.411C144.515 194.691 145.045 195.011 145.385 195.371C145.745 195.711 146.015 196.171 146.195 196.751C146.395 197.311 146.505 197.741 146.525 198.041C146.545 198.341 146.555 198.711 146.555 199.151V209.441H144.965V206.531C143.205 208.771 141.245 209.891 139.085 209.891ZM139.085 208.451C141.345 208.451 143.305 207.181 144.965 204.641V202.121C142.565 202.141 140.645 202.261 139.205 202.481C138.925 202.521 138.615 202.601 138.275 202.721C137.955 202.821 137.585 202.991 137.165 203.231C136.745 203.451 136.395 203.771 136.115 204.191C135.835 204.611 135.695 205.091 135.695 205.631C135.695 206.651 136.045 207.381 136.745 207.821C137.465 208.241 138.245 208.451 139.085 208.451ZM153.685 200.921H156.085C156.965 200.921 157.715 200.641 158.335 200.081C158.975 199.501 159.295 198.831 159.295 198.071C159.295 196.351 158.125 195.491 155.785 195.491C154.085 195.491 152.655 196.171 151.495 197.531L150.385 196.391C151.765 194.791 153.565 193.991 155.785 193.991C157.565 193.991 158.855 194.371 159.655 195.131C160.475 195.871 160.885 196.791 160.885 197.891C160.885 198.651 160.625 199.371 160.105 200.051C159.605 200.731 158.945 201.251 158.125 201.611C159.085 201.931 159.835 202.431 160.375 203.111C160.915 203.791 161.185 204.551 161.185 205.391C161.185 206.651 160.705 207.721 159.745 208.601C158.785 209.461 157.315 209.891 155.335 209.891C153.075 209.891 151.145 209.091 149.545 207.491L150.655 206.351C152.015 207.711 153.575 208.391 155.335 208.391C158.115 208.391 159.505 207.381 159.505 205.361C159.505 204.501 159.195 203.791 158.575 203.231C157.955 202.651 157.155 202.361 156.175 202.361H153.685V200.921ZM172.188 209.891C169.968 209.891 168.078 209.091 166.518 207.491V215.561H164.928V194.441H166.518V196.421C168.078 194.801 169.968 193.991 172.188 193.991C174.348 193.991 176.198 194.771 177.738 196.331C179.278 197.891 180.048 199.761 180.048 201.941C180.048 204.121 179.278 205.991 177.738 207.551C176.198 209.111 174.348 209.891 172.188 209.891ZM171.828 195.341C170.768 195.341 169.768 195.591 168.828 196.091C167.908 196.571 167.138 197.221 166.518 198.041V205.841C167.118 206.681 167.888 207.341 168.828 207.821C169.768 208.301 170.768 208.541 171.828 208.541C173.628 208.541 175.168 207.901 176.448 206.621C177.748 205.321 178.398 203.761 178.398 201.941C178.398 200.141 177.748 198.591 176.448 197.291C175.168 195.991 173.628 195.341 171.828 195.341ZM187.132 209.891C185.592 209.891 184.372 209.501 183.472 208.721C182.592 207.941 182.152 206.911 182.152 205.631C182.152 204.311 182.622 203.281 183.562 202.541C184.502 201.781 185.642 201.291 186.982 201.071C188.442 200.851 190.452 200.721 193.012 200.681V199.151C193.012 197.731 192.652 196.761 191.932 196.241C191.212 195.701 190.212 195.431 188.932 195.431C187.132 195.431 185.542 196.121 184.162 197.501L183.142 196.421C184.802 194.801 186.832 193.991 189.232 193.991C190.252 193.991 191.122 194.131 191.842 194.411C192.562 194.691 193.092 195.011 193.432 195.371C193.792 195.711 194.062 196.171 194.242 196.751C194.442 197.311 194.552 197.741 194.572 198.041C194.592 198.341 194.602 198.711 194.602 199.151V209.441H193.012V206.531C191.252 208.771 189.292 209.891 187.132 209.891ZM187.132 208.451C189.392 208.451 191.352 207.181 193.012 204.641V202.121C190.612 202.141 188.692 202.261 187.252 202.481C186.972 202.521 186.662 202.601 186.322 202.721C186.002 202.821 185.632 202.991 185.212 203.231C184.792 203.451 184.442 203.771 184.162 204.191C183.882 204.611 183.742 205.091 183.742 205.631C183.742 206.651 184.092 207.381 184.792 207.821C185.512 208.241 186.292 208.451 187.132 208.451ZM212.291 189.131C211.431 189.351 210.501 189.561 209.501 189.761C208.521 189.961 207.701 190.121 207.041 190.241C206.401 190.341 205.711 190.481 204.971 190.661C204.231 190.821 203.631 190.991 203.171 191.171C202.711 191.351 202.231 191.591 201.731 191.891C201.251 192.171 200.861 192.511 200.561 192.911C200.261 193.291 199.981 193.771 199.721 194.351C199.481 194.911 199.291 195.571 199.151 196.331C199.031 197.091 198.951 197.971 198.911 198.971C199.471 197.491 200.391 196.351 201.671 195.551C202.951 194.751 204.361 194.351 205.901 194.351C207.961 194.351 209.751 195.041 211.271 196.421C212.791 197.781 213.551 199.671 213.551 202.091C213.551 204.331 212.841 206.191 211.421 207.671C210.001 209.151 208.071 209.891 205.631 209.891C203.111 209.891 201.141 209.081 199.721 207.461C198.301 205.821 197.591 203.501 197.591 200.501C197.591 199.261 197.641 198.161 197.741 197.201C197.841 196.241 197.971 195.401 198.131 194.681C198.291 193.941 198.521 193.291 198.821 192.731C199.141 192.171 199.461 191.701 199.781 191.321C200.121 190.941 200.551 190.611 201.071 190.331C201.611 190.051 202.121 189.821 202.601 189.641C203.101 189.461 203.731 189.281 204.491 189.101C205.251 188.921 205.961 188.771 206.621 188.651C207.301 188.531 208.131 188.361 209.111 188.141C210.111 187.921 211.041 187.701 211.901 187.481L212.291 189.131ZM205.631 208.541C207.491 208.541 209.001 207.931 210.161 206.711C211.321 205.471 211.901 203.931 211.901 202.091C211.901 200.071 211.281 198.501 210.041 197.381C208.801 196.241 207.331 195.671 205.631 195.671C203.931 195.671 202.461 196.241 201.221 197.381C200.001 198.501 199.391 200.071 199.391 202.091C199.391 203.951 199.961 205.491 201.101 206.711C202.241 207.931 203.751 208.541 205.631 208.541ZM223.858 208.631C225.738 208.631 227.308 207.981 228.568 206.681C229.848 205.381 230.488 203.801 230.488 201.941C230.488 200.101 229.848 198.531 228.568 197.231C227.308 195.911 225.738 195.251 223.858 195.251C221.958 195.251 220.378 195.911 219.118 197.231C217.858 198.531 217.228 200.101 217.228 201.941C217.228 203.801 217.858 205.381 219.118 206.681C220.378 207.981 221.958 208.631 223.858 208.631ZM229.798 207.611C228.278 209.131 226.298 209.891 223.858 209.891C221.418 209.891 219.438 209.131 217.918 207.611C216.398 206.071 215.638 204.181 215.638 201.941C215.638 199.701 216.398 197.821 217.918 196.301C219.438 194.761 221.418 193.991 223.858 193.991C226.298 193.991 228.278 194.761 229.798 196.301C231.318 197.821 232.078 199.701 232.078 201.941C232.078 204.181 231.318 206.071 229.798 207.611ZM245.567 194.441V195.881H239.927V209.441H238.337V195.881H232.697V194.441H245.567ZM246.781 198.821V194.441H248.371V198.821C248.371 201.181 249.711 202.361 252.391 202.361C253.831 202.361 255.381 202.211 257.041 201.911V194.441H258.631V209.441H257.041V203.381C255.241 203.661 253.671 203.801 252.331 203.801C250.591 203.801 249.231 203.391 248.251 202.571C247.271 201.751 246.781 200.501 246.781 198.821ZM265.014 194.441V207.341L274.764 194.441H276.444V209.441H274.854V196.571L265.134 209.441H263.424V194.441H265.014ZM291.286 209.441L283.366 201.521L290.986 194.441H293.296L285.376 201.521L293.596 209.441H291.286ZM281.236 194.441H282.826V209.441H281.236V194.441Z" fill="#75FEFA"/>
</svg>
