<svg width="198" height="198" viewBox="0 0 198 198" fill="none" xmlns="http://www.w3.org/2000/svg">
<path fill-rule="evenodd" clip-rule="evenodd" d="M33 132C50.3766 132 64.6164 118.569 65.905 101.523C64.6268 118.457 50.5674 131.824 33.3478 132.002C51.4129 132.188 65.9998 146.891 65.9998 165C65.9998 156.957 68.877 149.587 73.6581 143.861C68.877 149.587 66 156.957 66 165C66 183.225 80.7746 198 99 198C117.225 198 132 183.225 132 165C132 146.775 117.225 132 99 132C99 132 98.9999 132 98.9998 132C80.7992 132 66.0399 117.265 65.9999 99.0742L66 99C66 80.7746 80.7746 66 99 66C117.225 66 132 80.7746 132 99C132 117.225 146.775 132 165 132C183.225 132 198 117.225 198 99C198 80.7746 183.225 66 165 66C146.775 66 132 51.2254 132 33C132 14.7746 117.225 1.01347e-05 99 1.09314e-05C80.7746 1.1728e-05 66 14.7746 66 33C66 51.2254 51.2254 66 33 66C14.7746 66 -3.81278e-06 80.7746 -4.32743e-06 99C-4.84207e-06 117.225 14.7746 132 33 132Z" fill="#C1F52F"/>
</svg>
