<svg width="236" height="100" viewBox="0 0 236 100" fill="none" xmlns="http://www.w3.org/2000/svg">
<path d="M5.922 5.2L9.534 15H7.63L6.86 12.956H2.814L2.044 15H0.14L3.752 5.2H5.922ZM4.83 7.426L3.332 11.416H6.328L4.83 7.426ZM12.385 15.21C11.6383 15.21 11.0503 15.0373 10.621 14.692C10.201 14.3467 9.99097 13.8567 9.99097 13.222C9.99097 12.886 10.047 12.5873 10.159 12.326C10.2803 12.0647 10.4623 11.8547 10.705 11.696C10.957 11.528 11.2183 11.388 11.489 11.276C11.7596 11.164 12.1003 11.0847 12.511 11.038C12.9216 10.982 13.2996 10.9447 13.645 10.926C13.9996 10.898 14.4196 10.8793 14.905 10.87V10.408C14.905 9.53067 14.4056 9.092 13.407 9.092C12.5763 9.092 11.8296 9.36267 11.167 9.904L10.313 8.924C11.1716 8.168 12.2356 7.79 13.505 7.79C14.5783 7.79 15.3576 8.014 15.843 8.462C16.3376 8.90067 16.585 9.47933 16.585 10.198V15H14.905V13.866C14.177 14.762 13.337 15.21 12.385 15.21ZM12.945 13.992C13.6916 13.992 14.345 13.572 14.905 12.732V11.794C14.037 11.8127 13.4163 11.8593 13.043 11.934C12.735 11.99 12.4503 12.1113 12.189 12.298C11.937 12.4847 11.811 12.7413 11.811 13.068C11.811 13.376 11.9183 13.6093 12.133 13.768C12.357 13.9173 12.6276 13.992 12.945 13.992ZM23.7756 13.46H25.7776C26.2816 13.46 26.6689 13.3293 26.9396 13.068C27.2103 12.7973 27.3456 12.438 27.3456 11.99C27.3456 11.542 27.2056 11.1827 26.9256 10.912C26.6549 10.6413 26.2723 10.506 25.7776 10.506H23.7756V13.46ZM28.4516 5.2V6.74H23.7756V8.966H26.1976C27.0936 8.966 27.8309 9.25533 28.4096 9.834C28.9976 10.4033 29.2916 11.1267 29.2916 12.004C29.2916 12.8907 29.0163 13.614 28.4656 14.174C27.9149 14.7247 27.1589 15 26.1976 15H21.8716V5.2H28.4516ZM37.3217 6.194C36.967 6.278 36.575 6.36667 36.1457 6.46C35.7257 6.544 35.3757 6.614 35.0957 6.67C34.825 6.71667 34.5264 6.77733 34.1997 6.852C33.8824 6.92667 33.6257 7.00133 33.4297 7.076C33.2337 7.14133 33.0237 7.23 32.7997 7.342C32.585 7.454 32.4124 7.58 32.2817 7.72C32.151 7.85067 32.025 8.014 31.9037 8.21C31.7917 8.39667 31.703 8.616 31.6377 8.868C31.5724 9.12 31.5304 9.40467 31.5117 9.722C31.7544 9.246 32.1277 8.882 32.6317 8.63C33.1357 8.36867 33.6537 8.238 34.1857 8.238C35.231 8.238 36.085 8.54133 36.7477 9.148C37.4197 9.74533 37.7557 10.5527 37.7557 11.57C37.7557 12.634 37.4197 13.5067 36.7477 14.188C36.0757 14.8693 35.1797 15.21 34.0597 15.21C32.837 15.21 31.9037 14.8227 31.2597 14.048C30.6157 13.2733 30.2937 12.172 30.2937 10.744C30.2937 9.47467 30.4197 8.48533 30.6717 7.776C30.933 7.05733 31.325 6.52533 31.8477 6.18C32.3797 5.83467 33.1497 5.56867 34.1577 5.382C35.1844 5.17667 36.127 4.96667 36.9857 4.752L37.3217 6.194ZM34.0457 13.754C34.6337 13.754 35.119 13.5533 35.5017 13.152C35.8844 12.7507 36.0757 12.256 36.0757 11.668C36.0757 11.0427 35.875 10.5433 35.4737 10.17C35.0724 9.78733 34.5964 9.596 34.0457 9.596C33.495 9.596 33.019 9.78733 32.6177 10.17C32.2164 10.5433 32.0157 11.0427 32.0157 11.668C32.0157 12.256 32.2024 12.7507 32.5757 13.152C32.9584 13.5533 33.4484 13.754 34.0457 13.754ZM49.6649 7.622C49.6649 8.098 49.5249 8.54133 49.2449 8.952C48.9742 9.35333 48.6196 9.66133 48.1809 9.876C48.7316 10.0813 49.1796 10.408 49.5249 10.856C49.8702 11.304 50.0429 11.808 50.0429 12.368C50.0429 13.1053 49.7676 13.7307 49.2169 14.244C48.6756 14.748 47.9942 15 47.1729 15H42.7349V5.2H46.3749C47.3362 5.2 48.1249 5.40533 48.7409 5.816C49.3569 6.22667 49.6649 6.82867 49.6649 7.622ZM44.6389 13.502H46.6689C47.0796 13.502 47.4249 13.3667 47.7049 13.096C47.9942 12.8253 48.1389 12.4893 48.1389 12.088C48.1389 11.696 47.9942 11.3647 47.7049 11.094C47.4249 10.8233 47.0796 10.688 46.6689 10.688H44.6389V13.502ZM47.8729 7.972C47.8729 7.61733 47.7376 7.31867 47.4669 7.076C47.2056 6.824 46.8929 6.698 46.5289 6.698H44.6389V9.288H46.5289C46.8929 9.288 47.2056 9.162 47.4669 8.91C47.7376 8.64867 47.8729 8.336 47.8729 7.972ZM57.3896 9.722C57.3896 10.0487 57.2963 10.3567 57.1096 10.646C56.9323 10.9353 56.6896 11.1593 56.3816 11.318C56.7829 11.4673 57.1003 11.7007 57.3336 12.018C57.5763 12.3353 57.6976 12.6947 57.6976 13.096C57.6976 13.628 57.5016 14.0807 57.1096 14.454C56.7269 14.818 56.2183 15 55.5836 15H51.4396V8H55.4296C56.0176 8 56.4889 8.168 56.8436 8.504C57.2076 8.83067 57.3896 9.23667 57.3896 9.722ZM53.1056 13.852H54.9676C55.2756 13.852 55.5229 13.768 55.7096 13.6C55.9056 13.4227 56.0036 13.194 56.0036 12.914C56.0036 12.634 55.9056 12.4053 55.7096 12.228C55.5136 12.0507 55.2663 11.962 54.9676 11.962H53.1056V13.852ZM55.8216 9.974C55.8216 9.73133 55.7283 9.53533 55.5416 9.386C55.3549 9.22733 55.1263 9.148 54.8556 9.148H53.1056V10.884H54.8556C55.1263 10.884 55.3549 10.8 55.5416 10.632C55.7283 10.4547 55.8216 10.2353 55.8216 9.974ZM69.2188 5.2V6.922H64.6408V15H62.7368V5.2H69.2188ZM74.8202 8V9.526H71.1662V15H69.5002V8H74.8202ZM80.3115 15V17.156H78.6175V13.278H79.6815C80.0829 12.5873 80.3769 11.822 80.5635 10.982C80.7595 10.1327 80.8575 8.994 80.8575 7.566V5.2H87.6895V13.278H89.1315V17.156H87.4375V15H80.3115ZM85.7855 13.278V6.922H82.6915V8.308C82.6915 10.296 82.3555 11.9527 81.6835 13.278H85.7855ZM91.1344 15V16.974H89.6504V13.544H90.5044C90.7751 13.1707 90.9944 12.6573 91.1624 12.004C91.3304 11.3413 91.4144 10.6133 91.4144 9.82V8H97.1124V13.544H98.2464V16.974H96.6504V15H91.1344ZM95.4324 13.544V9.456H93.0244V10.072C93.0244 10.7347 92.9498 11.3927 92.8004 12.046C92.6604 12.6993 92.4831 13.1987 92.2684 13.544H95.4324ZM109.802 13.32V15H103.124V5.2H109.732V6.88H105.028V9.176H109.018V10.786H105.028V13.32H109.802ZM118.278 11.36C118.278 11.528 118.264 11.6913 118.236 11.85H112.748C112.748 12.438 112.948 12.9187 113.35 13.292C113.751 13.656 114.311 13.838 115.03 13.838C115.842 13.838 116.546 13.6093 117.144 13.152L117.788 14.188C117.032 14.8693 116.042 15.21 114.82 15.21C113.765 15.21 112.869 14.8647 112.132 14.174C111.404 13.4833 111.04 12.6247 111.04 11.598C111.04 10.5433 111.394 9.64733 112.104 8.91C112.813 8.16333 113.676 7.79 114.694 7.79C115.804 7.79 116.677 8.12133 117.312 8.784C117.956 9.44667 118.278 10.3053 118.278 11.36ZM116.696 10.758C116.602 10.282 116.383 9.89933 116.038 9.61C115.692 9.31133 115.244 9.162 114.694 9.162C114.208 9.162 113.788 9.30667 113.434 9.596C113.088 9.876 112.855 10.2633 112.734 10.758H116.696ZM129.94 13.32V15H123.262V5.2H129.87V6.88H125.166V9.176H129.156V10.786H125.166V13.32H129.94ZM127.434 4.206C127.266 4.038 127.182 3.82333 127.182 3.562C127.182 3.30067 127.266 3.08133 127.434 2.904C127.612 2.72667 127.831 2.638 128.092 2.638C128.344 2.638 128.559 2.72667 128.736 2.904C128.914 3.08133 129.002 3.30067 129.002 3.562C129.002 3.814 128.914 4.02867 128.736 4.206C128.559 4.374 128.344 4.458 128.092 4.458C127.831 4.458 127.612 4.374 127.434 4.206ZM124.438 4.206C124.27 4.038 124.186 3.82333 124.186 3.562C124.186 3.30067 124.27 3.08133 124.438 2.904C124.616 2.72667 124.835 2.638 125.096 2.638C125.348 2.638 125.563 2.72667 125.74 2.904C125.918 3.08133 126.006 3.30067 126.006 3.562C126.006 3.814 125.918 4.02867 125.74 4.206C125.563 4.374 125.348 4.458 125.096 4.458C124.835 4.458 124.616 4.374 124.438 4.206ZM132.816 6.796C132.648 6.628 132.564 6.41333 132.564 6.152C132.564 5.89067 132.648 5.67133 132.816 5.494C132.994 5.31667 133.213 5.228 133.474 5.228C133.726 5.228 133.941 5.31667 134.118 5.494C134.296 5.67133 134.384 5.89067 134.384 6.152C134.384 6.404 134.296 6.61867 134.118 6.796C133.941 6.964 133.726 7.048 133.474 7.048C133.213 7.048 132.994 6.964 132.816 6.796ZM135.812 6.796C135.644 6.628 135.56 6.41333 135.56 6.152C135.56 5.89067 135.644 5.67133 135.812 5.494C135.99 5.31667 136.209 5.228 136.47 5.228C136.722 5.228 136.937 5.31667 137.114 5.494C137.292 5.67133 137.38 5.89067 137.38 6.152C137.38 6.404 137.292 6.61867 137.114 6.796C136.937 6.964 136.722 7.048 136.47 7.048C136.209 7.048 135.99 6.964 135.812 6.796ZM138.416 11.36C138.416 11.528 138.402 11.6913 138.374 11.85H132.886C132.886 12.438 133.087 12.9187 133.488 13.292C133.89 13.656 134.45 13.838 135.168 13.838C135.98 13.838 136.685 13.6093 137.282 13.152L137.926 14.188C137.17 14.8693 136.181 15.21 134.958 15.21C133.904 15.21 133.008 14.8647 132.27 14.174C131.542 13.4833 131.178 12.6247 131.178 11.598C131.178 10.5433 131.533 9.64733 132.242 8.91C132.952 8.16333 133.815 7.79 134.832 7.79C135.943 7.79 136.816 8.12133 137.45 8.784C138.094 9.44667 138.416 10.3053 138.416 11.36ZM136.834 10.758C136.741 10.282 136.522 9.89933 136.176 9.61C135.831 9.31133 135.383 9.162 134.832 9.162C134.347 9.162 133.927 9.30667 133.572 9.596C133.227 9.876 132.994 10.2633 132.872 10.758H136.834ZM145.123 5.2L147.321 9.064H148.329V5.2H150.233V9.064H151.213L153.425 5.2H155.623L152.879 10.016L156.001 15H153.649L151.143 10.786H150.233V15H148.329V10.786H147.391L144.899 15H142.547L145.683 10.002L142.939 5.2H145.123ZM160.794 15V12.074H160.038L158.204 15H156.37L158.722 11.36L156.566 8H158.4L160.01 10.548H160.794V8H162.474V10.548H163.244L164.868 8H166.702L164.546 11.36L166.898 15H165.064L163.216 12.074H162.474V15H160.794ZM174.574 13.558C175.05 13.558 175.419 13.4227 175.68 13.152C175.941 12.8813 176.072 12.522 176.072 12.074C176.072 11.6447 175.955 11.2993 175.722 11.038C175.498 10.7673 175.185 10.632 174.784 10.632H173.216V9.288H174.91C175.227 9.288 175.54 9.16667 175.848 8.924C176.165 8.68133 176.324 8.34533 176.324 7.916C176.324 7.45867 176.179 7.118 175.89 6.894C175.601 6.67 175.241 6.558 174.812 6.558C173.813 6.558 172.917 6.87067 172.124 7.496L171.27 6.18C172.287 5.38667 173.468 4.99 174.812 4.99C175.82 4.99 176.613 5.228 177.192 5.704C177.771 6.18 178.06 6.80067 178.06 7.566C178.06 8.07 177.915 8.53667 177.626 8.966C177.346 9.386 176.94 9.70333 176.408 9.918C176.977 10.0767 177.435 10.3847 177.78 10.842C178.125 11.29 178.298 11.794 178.298 12.354C178.298 13.166 177.934 13.8473 177.206 14.398C176.487 14.9393 175.61 15.21 174.574 15.21C173.23 15.21 172.059 14.8133 171.06 14.02L171.9 12.62C172.693 13.2453 173.585 13.558 174.574 13.558ZM181.193 10.884H182.257C182.556 10.884 182.808 10.7953 183.013 10.618C183.228 10.4313 183.335 10.2073 183.335 9.946C183.335 9.39533 182.934 9.12 182.131 9.12C181.347 9.12 180.689 9.358 180.157 9.834L179.429 8.84C180.139 8.14 181.105 7.79 182.327 7.79C183.167 7.79 183.811 7.96733 184.259 8.322C184.707 8.67667 184.931 9.11067 184.931 9.624C184.931 9.99733 184.819 10.3427 184.595 10.66C184.381 10.968 184.087 11.2013 183.713 11.36C184.143 11.5093 184.479 11.7427 184.721 12.06C184.973 12.3773 185.099 12.732 185.099 13.124C185.099 13.7027 184.857 14.1973 184.371 14.608C183.895 15.0093 183.158 15.21 182.159 15.21C180.955 15.21 179.98 14.86 179.233 14.16L179.947 13.194C180.582 13.698 181.287 13.95 182.061 13.95C182.453 13.95 182.771 13.8567 183.013 13.67C183.265 13.474 183.391 13.2313 183.391 12.942C183.391 12.662 183.284 12.4333 183.069 12.256C182.864 12.0693 182.593 11.976 182.257 11.976H181.193V10.884ZM196.333 15V8.392L192.049 15H190.145V5.2H192.049V11.822L196.333 5.2H198.237V15H196.333ZM201.76 8V12.648L205.19 8H206.884V15H205.218V10.366L201.788 15H200.094V8H201.76ZM214.17 2.764C214.777 3.10933 215.505 3.282 216.354 3.282C217.204 3.282 217.927 3.10933 218.524 2.764L219.14 3.954C218.347 4.36467 217.418 4.57 216.354 4.57C215.29 4.57 214.362 4.36467 213.568 3.954L214.17 2.764ZM218.44 15V8.392L214.156 15H212.252V5.2H214.156V11.822L218.44 5.2H220.344V15H218.44ZM225.673 5.816C226.345 5.816 226.985 5.662 227.591 5.354L228.123 6.39C227.367 6.77267 226.551 6.964 225.673 6.964C224.787 6.964 223.965 6.77267 223.209 6.39L223.741 5.354C224.348 5.662 224.992 5.816 225.673 5.816ZM223.937 8V12.648L227.367 8H229.061V15H227.395V10.366L223.965 15H222.271V8H223.937ZM7.238 35L3.038 29.974L7.056 25.2H9.072L5.054 29.974L9.436 35H7.238ZM1.022 35V25.2H2.926V35H1.022ZM15.2257 35L12.2297 31.374L15.0857 28H16.9897L14.0077 31.374L17.1297 35H15.2257ZM10.4377 28H12.1037V35H10.4377V28ZM20.9486 35V33.278H21.3126C21.9473 33.278 22.3999 32.9607 22.6706 32.326C22.9506 31.682 23.0906 30.534 23.0906 28.882V25.2H29.9226V35H28.0186V26.922H24.9106V29.218C24.9106 30.3473 24.8219 31.304 24.6446 32.088C24.4673 32.8627 24.2106 33.4553 23.8746 33.866C23.5386 34.2767 23.1746 34.5707 22.7826 34.748C22.3906 34.916 21.9379 35 21.4246 35H20.9486ZM31.0795 35V33.698H31.4995C31.8915 33.698 32.1855 33.4787 32.3815 33.04C32.5868 32.592 32.6895 31.822 32.6895 30.73V28H38.5835V35H36.9035V29.456H34.2855V31.052C34.2855 33.684 33.4921 35 31.9055 35H31.0795ZM45.7997 25.2L48.7117 29.82L51.6377 25.2H53.4857V35H51.7217V27.902L49.0897 32.102H48.3337L45.7157 27.902V35H43.9517V25.2H45.7997ZM59.3538 31.276L61.5938 28H63.3578V35H61.6918V30.226L59.6898 33.152H59.0038L57.0158 30.24V35H55.3498V28H57.1138L59.3538 31.276ZM74.8431 35V30.786H70.6291V35H68.7251V25.2H70.6291V29.064H74.8431V25.2H76.7471V35H74.8431ZM83.7016 32.144H80.2716V35H78.6056V28H80.2716V30.618H83.7016V28H85.3816V35H83.7016V32.144ZM95.4688 26.824C94.4795 26.824 93.6815 27.1367 93.0748 27.762C92.4682 28.3873 92.1648 29.1667 92.1648 30.1C92.1648 31.0427 92.4682 31.8267 93.0748 32.452C93.6815 33.068 94.4795 33.376 95.4688 33.376C96.4488 33.376 97.2422 33.068 97.8488 32.452C98.4555 31.8267 98.7588 31.0427 98.7588 30.1C98.7588 29.1667 98.4555 28.3873 97.8488 27.762C97.2422 27.1367 96.4488 26.824 95.4688 26.824ZM99.2488 33.768C98.3155 34.7293 97.0555 35.21 95.4688 35.21C93.8822 35.21 92.6175 34.7293 91.6748 33.768C90.7415 32.7973 90.2748 31.5747 90.2748 30.1C90.2748 28.6347 90.7415 27.4167 91.6748 26.446C92.6175 25.4753 93.8822 24.99 95.4688 24.99C97.0555 24.99 98.3155 25.4753 99.2488 26.446C100.192 27.4167 100.663 28.6347 100.663 30.1C100.663 31.5747 100.192 32.7973 99.2488 33.768ZM105.455 33.684C106.061 33.684 106.575 33.474 106.995 33.054C107.415 32.6247 107.625 32.1067 107.625 31.5C107.625 30.9027 107.415 30.3893 106.995 29.96C106.575 29.5307 106.061 29.316 105.455 29.316C104.848 29.316 104.335 29.5307 103.915 29.96C103.495 30.3893 103.285 30.9027 103.285 31.5C103.285 32.116 103.49 32.634 103.901 33.054C104.321 33.474 104.839 33.684 105.455 33.684ZM108.143 34.132C107.433 34.8507 106.537 35.21 105.455 35.21C104.372 35.21 103.471 34.8507 102.753 34.132C102.034 33.4133 101.675 32.536 101.675 31.5C101.675 30.4733 102.034 29.6007 102.753 28.882C103.471 28.154 104.372 27.79 105.455 27.79C106.528 27.79 107.424 28.154 108.143 28.882C108.861 29.6007 109.221 30.4733 109.221 31.5C109.221 32.536 108.861 33.4133 108.143 34.132ZM120.316 35V26.922H116.102V35H114.198V25.2H122.22V35H120.316ZM129.202 29.456H125.744V35H124.078V28H130.868V35H129.202V29.456ZM141.641 31.626V35H139.737V25.2H143.419C144.446 25.2 145.295 25.5033 145.967 26.11C146.639 26.7167 146.975 27.482 146.975 28.406C146.975 29.3207 146.625 30.086 145.925 30.702C145.225 31.318 144.39 31.626 143.419 31.626H141.641ZM143.461 26.922H141.641V29.904H143.461C143.965 29.904 144.357 29.7687 144.637 29.498C144.926 29.218 145.071 28.854 145.071 28.406C145.071 27.9673 144.926 27.6127 144.637 27.342C144.357 27.062 143.965 26.922 143.461 26.922ZM151.923 35.21C151.494 35.21 151.079 35.112 150.677 34.916C150.276 34.7107 149.949 34.4353 149.697 34.09V37.856H148.031V28H149.697V28.924C150.257 28.196 151.023 27.832 151.993 27.832C152.992 27.832 153.799 28.1913 154.415 28.91C155.031 29.6193 155.339 30.4827 155.339 31.5C155.339 32.5453 155.022 33.4273 154.387 34.146C153.753 34.8553 152.931 35.21 151.923 35.21ZM151.419 29.344C150.719 29.344 150.145 29.6287 149.697 30.198V32.802C150.136 33.3807 150.71 33.67 151.419 33.67C152.007 33.67 152.511 33.46 152.931 33.04C153.351 32.6107 153.561 32.0973 153.561 31.5C153.561 30.912 153.351 30.408 152.931 29.988C152.511 29.5587 152.007 29.344 151.419 29.344ZM165.045 33.446C166.146 33.446 167.084 33.138 167.859 32.522L168.699 34.02C167.7 34.8133 166.482 35.21 165.045 35.21C163.458 35.21 162.194 34.7293 161.251 33.768C160.318 32.7973 159.851 31.5747 159.851 30.1C159.851 28.6347 160.318 27.4167 161.251 26.446C162.194 25.4753 163.458 24.99 165.045 24.99C166.464 24.99 167.682 25.3867 168.699 26.18L167.859 27.692C167.066 27.0667 166.128 26.754 165.045 26.754C164.065 26.754 163.276 27.076 162.679 27.72C162.082 28.364 161.783 29.1573 161.783 30.1C161.783 31.024 162.082 31.8127 162.679 32.466C163.286 33.1193 164.074 33.446 165.045 33.446ZM170.933 31.5C170.933 32.116 171.134 32.6247 171.535 33.026C171.946 33.4273 172.454 33.628 173.061 33.628C173.752 33.628 174.396 33.404 174.993 32.956L175.791 34.16C175.063 34.86 174.13 35.21 172.991 35.21C171.964 35.21 171.096 34.8413 170.387 34.104C169.678 33.3667 169.323 32.4987 169.323 31.5C169.323 30.5013 169.678 29.6333 170.387 28.896C171.096 28.1587 171.964 27.79 172.991 27.79C174.13 27.79 175.063 28.14 175.791 28.84L174.993 30.058C174.386 29.6007 173.742 29.372 173.061 29.372C172.473 29.372 171.969 29.582 171.549 30.002C171.138 30.4127 170.933 30.912 170.933 31.5ZM187.713 25.2V26.922H184.801V35H182.897V26.922H179.985V25.2H187.713ZM194.444 28V29.526H192.064V35H190.398V29.526H188.018V28H194.444ZM202.727 35H200.585L201.817 32.466L198.177 25.2H200.347L202.867 30.324L205.359 25.2H207.473L202.727 35ZM214.778 28L210.48 37.856H208.772L209.976 34.986L207.008 28H208.856L210.858 32.914L212.944 28H214.778ZM5.026 55V53.95H4.676C3.444 53.95 2.436 53.5767 1.652 52.83C0.877333 52.074 0.49 51.0987 0.49 49.904C0.49 48.6907 0.882 47.7153 1.666 46.978C2.45 46.2313 3.45333 45.858 4.676 45.858H5.026V44.92H6.93V45.858H7.28C8.50267 45.858 9.506 46.236 10.29 46.992C11.074 47.748 11.466 48.7187 11.466 49.904C11.466 51.1173 11.0693 52.0973 10.276 52.844C9.492 53.5813 8.49333 53.95 7.28 53.95H6.93V55H5.026ZM6.93 52.326H7.21C7.97533 52.326 8.57733 52.0973 9.016 51.64C9.45467 51.1827 9.674 50.604 9.674 49.904C9.674 49.2133 9.45 48.6393 9.002 48.182C8.56333 47.7153 7.966 47.482 7.21 47.482H6.93V52.326ZM4.732 52.326H5.026V47.482H4.732C3.976 47.482 3.374 47.7153 2.926 48.182C2.48733 48.6393 2.268 49.2133 2.268 49.904C2.268 50.604 2.48733 51.1827 2.926 51.64C3.36467 52.0973 3.96667 52.326 4.732 52.326ZM18.5152 55.21H18.1092V57.856H16.4292V55.21H16.0232C15.0152 55.21 14.1566 54.846 13.4472 54.118C12.7472 53.39 12.3972 52.5173 12.3972 51.5C12.3972 50.4733 12.7472 49.6007 13.4472 48.882C14.1472 48.154 15.0059 47.79 16.0232 47.79H16.4292V45.06H18.1092V47.79H18.5152C19.5232 47.79 20.3772 48.1587 21.0772 48.896C21.7866 49.624 22.1412 50.492 22.1412 51.5C22.1412 52.5267 21.7912 53.404 21.0912 54.132C20.3912 54.8507 19.5326 55.21 18.5152 55.21ZM18.1092 53.67H18.2912C18.8792 53.67 19.3832 53.46 19.8032 53.04C20.2232 52.6107 20.4332 52.0973 20.4332 51.5C20.4332 50.912 20.2232 50.408 19.8032 49.988C19.3832 49.5587 18.8792 49.344 18.2912 49.344H18.1092V53.67ZM16.4292 49.344H16.2472C15.6592 49.344 15.1552 49.5587 14.7352 49.988C14.3152 50.408 14.1052 50.912 14.1052 51.5C14.1052 52.0973 14.3152 52.6107 14.7352 53.04C15.1552 53.46 15.6592 53.67 16.2472 53.67H16.4292V49.344ZM33.4779 55L31.0419 51.626L28.5919 55H26.2959L29.8799 50.002L26.4359 45.2H28.7319L31.0419 48.392L33.3379 45.2H35.6479L32.1899 50.002L35.7879 55H33.4779ZM41.71 55L40.002 52.62L38.294 55H36.166L38.868 51.472L36.236 48H38.35L40.002 50.38L41.64 48H43.768L40.982 51.472L43.824 55H41.71ZM54.6498 53.278V45.2H56.5538V53.278H57.9958V57.156H56.3018V55H48.5318V45.2H50.4358V53.278H54.6498ZM60.8576 53.544H64.3156V48H65.9816V53.544H67.1156V56.974H65.5196V55H59.1916V48H60.8576V53.544ZM71.545 48.406V45.2H73.449V48.406C73.449 48.9193 73.6077 49.3113 73.925 49.582C74.2517 49.8433 74.6717 49.974 75.185 49.974C75.8197 49.974 76.4684 49.8853 77.131 49.708V45.2H79.035V55H77.131V51.416C76.3564 51.6027 75.647 51.696 75.003 51.696C74.0137 51.696 73.1877 51.4113 72.525 50.842C71.8717 50.2633 71.545 49.4513 71.545 48.406ZM80.3618 50.506V48H82.0418V50.226C82.0418 50.5993 82.1584 50.8793 82.3918 51.066C82.6251 51.2527 82.9424 51.346 83.3438 51.346C83.8851 51.346 84.4218 51.276 84.9538 51.136V48H86.6198V55H84.9538V52.592C84.3191 52.7227 83.7031 52.788 83.1058 52.788C82.2658 52.788 81.5984 52.5967 81.1038 52.214C80.6091 51.822 80.3618 51.2527 80.3618 50.506ZM97.609 53.278V45.2H99.513V53.278H103.237V45.2H105.141V55H91.981V45.2H93.885V53.278H97.609ZM108.668 53.544H111.44V48H113.106V53.544H115.878V48H117.544V55H107.002V48H108.668V53.544ZM122.907 55V45.2H124.811V53.278H128.535V45.2H130.439V53.278H134.163V45.2H136.067V53.278H137.509V57.156H135.815V55H122.907ZM140.36 53.544H143.132V48H144.798V53.544H147.57V48H149.236V53.544H150.468V56.75H148.984V55H138.694V48H140.36V53.544ZM159.076 45.2V48.588H160.854C161.76 48.588 162.576 48.8913 163.304 49.498C164.042 50.1047 164.41 50.87 164.41 51.794C164.41 52.8207 164.037 53.614 163.29 54.174C162.553 54.7247 161.554 55 160.294 55H157.172V46.922H154.47V45.2H159.076ZM159.076 53.278H160.91C161.405 53.278 161.792 53.1427 162.072 52.872C162.362 52.592 162.506 52.2327 162.506 51.794C162.506 51.3553 162.362 51.0007 162.072 50.73C161.792 50.45 161.405 50.31 160.91 50.31H159.076V53.278ZM165.064 48H168.858V50.324H170.762C171.425 50.324 172.013 50.5433 172.526 50.982C173.049 51.4207 173.31 51.9807 173.31 52.662C173.31 53.3153 173.082 53.8707 172.624 54.328C172.167 54.776 171.546 55 170.762 55H167.192V49.526H165.064V48ZM168.858 53.698H170.552C170.86 53.698 171.112 53.6047 171.308 53.418C171.514 53.222 171.616 52.97 171.616 52.662C171.616 52.354 171.514 52.1067 171.308 51.92C171.112 51.724 170.86 51.626 170.552 51.626H168.858V53.698ZM180.155 53.278H181.975C182.479 53.278 182.871 53.1427 183.151 52.872C183.44 52.592 183.585 52.2327 183.585 51.794C183.585 51.3553 183.44 51.0007 183.151 50.73C182.871 50.45 182.479 50.31 181.975 50.31H180.155V53.278ZM180.155 45.2V48.588H181.933C182.885 48.588 183.715 48.9007 184.425 49.526C185.134 50.142 185.489 50.898 185.489 51.794C185.489 52.69 185.143 53.4507 184.453 54.076C183.762 54.692 182.922 55 181.933 55H178.251V45.2H180.155ZM186.441 55V45.2H188.345V55H186.441ZM191.875 50.324H193.779C194.526 50.324 195.132 50.5527 195.599 51.01C196.075 51.458 196.313 52.0087 196.313 52.662C196.313 53.3153 196.084 53.8707 195.627 54.328C195.17 54.776 194.554 55 193.779 55H190.209V48H191.875V50.324ZM191.875 53.698H193.569C193.868 53.698 194.12 53.6047 194.325 53.418C194.53 53.222 194.633 52.97 194.633 52.662C194.633 52.354 194.53 52.1067 194.325 51.92C194.12 51.724 193.868 51.626 193.569 51.626H191.875V53.698ZM197.111 55V48H198.777V55H197.111ZM206.049 53.278H207.869C208.373 53.278 208.765 53.1427 209.045 52.872C209.334 52.592 209.479 52.2327 209.479 51.794C209.479 51.3553 209.334 51.0007 209.045 50.73C208.765 50.45 208.373 50.31 207.869 50.31H206.049V53.278ZM206.049 45.2V48.588H207.827C208.779 48.588 209.61 48.9007 210.319 49.526C211.028 50.142 211.383 50.898 211.383 51.794C211.383 52.69 211.038 53.4507 210.347 54.076C209.656 54.692 208.816 55 207.827 55H204.145V45.2H206.049ZM214.379 50.324H216.283C217.03 50.324 217.636 50.5527 218.103 51.01C218.579 51.458 218.817 52.0087 218.817 52.662C218.817 53.3153 218.588 53.8707 218.131 54.328C217.674 54.776 217.058 55 216.283 55H212.713V48H214.379V50.324ZM214.379 53.698H216.073C216.372 53.698 216.624 53.6047 216.829 53.418C217.034 53.222 217.137 52.97 217.137 52.662C217.137 52.354 217.034 52.1067 216.829 51.92C216.624 51.724 216.372 51.626 216.073 51.626H214.379V53.698ZM3.864 73.586C4.77867 73.586 5.516 73.3153 6.076 72.774C6.64533 72.2327 6.972 71.5373 7.056 70.688H2.282V69.176H7.014C6.874 68.42 6.52867 67.804 5.978 67.328C5.43667 66.852 4.732 66.614 3.864 66.614C2.78133 66.614 1.84333 66.9267 1.05 67.552L0.21 66.18C1.22733 65.3867 2.44533 64.99 3.864 64.99C5.45067 64.99 6.71067 65.4753 7.644 66.446C8.58667 67.4167 9.058 68.6347 9.058 70.1C9.058 71.5747 8.58667 72.7973 7.644 73.768C6.71067 74.7293 5.45067 75.21 3.864 75.21C2.42667 75.21 1.20867 74.8133 0.21 74.02L1.05 72.662C1.82467 73.278 2.76267 73.586 3.864 73.586ZM11.6833 72.116V70.94H14.7913C14.7073 70.436 14.4833 70.0253 14.1193 69.708C13.7553 69.3907 13.3027 69.232 12.7613 69.232C12.052 69.232 11.4033 69.4467 10.8153 69.876L10.0313 68.84C10.7593 68.14 11.6927 67.79 12.8313 67.79C13.858 67.79 14.726 68.1587 15.4353 68.896C16.1447 69.6333 16.4993 70.5013 16.4993 71.5C16.4993 72.4987 16.1447 73.3667 15.4353 74.104C14.726 74.8413 13.858 75.21 12.8313 75.21C11.6927 75.21 10.7593 74.86 10.0313 74.16L10.8153 73.138C11.4127 73.558 12.0613 73.768 12.7613 73.768C13.2933 73.768 13.7367 73.614 14.0913 73.306C14.4553 72.998 14.684 72.6013 14.7773 72.116H11.6833ZM29.7651 75.21C28.3091 75.21 27.1238 74.7993 26.2091 73.978C25.2944 73.1567 24.7671 72.0927 24.6271 70.786H23.2971V75H21.3931V65.2H23.2971V69.064H24.6831C24.8884 67.86 25.4391 66.88 26.3351 66.124C27.2311 65.368 28.3744 64.99 29.7651 64.99C31.3518 64.99 32.6118 65.4753 33.5451 66.446C34.4878 67.4167 34.9591 68.6347 34.9591 70.1C34.9591 71.5747 34.4878 72.7973 33.5451 73.768C32.6118 74.7293 31.3518 75.21 29.7651 75.21ZM29.7651 66.824C28.7758 66.824 27.9778 67.1367 27.3711 67.762C26.7644 68.3873 26.4611 69.1667 26.4611 70.1C26.4611 71.0427 26.7644 71.8267 27.3711 72.452C27.9778 73.068 28.7758 73.376 29.7651 73.376C30.7451 73.376 31.5384 73.068 32.1451 72.452C32.7518 71.8267 33.0551 71.0427 33.0551 70.1C33.0551 69.1667 32.7518 68.3873 32.1451 67.762C31.5384 67.1367 30.7451 66.824 29.7651 66.824ZM42.6875 75.21C41.7075 75.21 40.8722 74.9113 40.1815 74.314C39.4909 73.7073 39.0849 72.9513 38.9635 72.046H38.0255V75H36.3595V68H38.0255V70.73H39.0055C39.1735 69.8807 39.5935 69.1807 40.2655 68.63C40.9375 68.07 41.7449 67.79 42.6875 67.79C43.7609 67.79 44.6569 68.154 45.3755 68.882C46.0942 69.6007 46.4535 70.4733 46.4535 71.5C46.4535 72.536 46.0942 73.4133 45.3755 74.132C44.6662 74.8507 43.7702 75.21 42.6875 75.21ZM42.6875 73.684C43.2942 73.684 43.8075 73.474 44.2275 73.054C44.6475 72.6247 44.8575 72.1067 44.8575 71.5C44.8575 70.9027 44.6475 70.3893 44.2275 69.96C43.8075 69.5307 43.2942 69.316 42.6875 69.316C42.0809 69.316 41.5675 69.5307 41.1475 69.96C40.7275 70.3893 40.5175 70.9027 40.5175 71.5C40.5175 72.116 40.7229 72.634 41.1335 73.054C41.5535 73.474 42.0715 73.684 42.6875 73.684ZM56.6239 75V71.626H55.3359L53.0959 75H51.0799L53.4739 71.374C52.7832 71.1873 52.2325 70.828 51.8219 70.296C51.4205 69.7547 51.2199 69.1293 51.2199 68.42C51.2199 67.5053 51.5325 66.74 52.1579 66.124C52.7832 65.508 53.5952 65.2 54.5939 65.2H58.5279V75H56.6239ZM56.6239 66.922H54.7339C54.2299 66.922 53.8379 67.0573 53.5579 67.328C53.2779 67.5987 53.1379 67.958 53.1379 68.406C53.1379 68.854 53.2779 69.218 53.5579 69.498C53.8379 69.7687 54.2299 69.904 54.7339 69.904H56.6239V66.922ZM64.0836 72.676H63.0476L61.5776 75H59.7156L61.3816 72.508C60.8682 72.3773 60.4622 72.1113 60.1636 71.71C59.8649 71.3087 59.7156 70.8513 59.7156 70.338C59.7156 69.694 59.9442 69.1433 60.4016 68.686C60.8682 68.2287 61.4842 68 62.2496 68H65.7496V75H64.0836V72.676ZM64.0836 69.316H62.4596C62.1516 69.316 61.8949 69.4093 61.6896 69.596C61.4936 69.7827 61.3956 70.03 61.3956 70.338C61.3956 70.6553 61.4936 70.9073 61.6896 71.094C61.8949 71.2807 62.1516 71.374 62.4596 71.374H64.0836V69.316ZM7.658 93.278V95H0.994V93.278H3.374V87.384L1.526 88.434L0.77 87.09L4.34 85.06H5.278V93.278H7.658ZM10.1188 87.734L9.20883 86.516C10.1422 85.4987 11.2575 84.99 12.5548 84.99C13.5255 84.99 14.2768 85.2607 14.8088 85.802C15.3408 86.334 15.6068 87.02 15.6068 87.86C15.6068 88.1027 15.5742 88.35 15.5088 88.602C15.4435 88.8447 15.3735 89.064 15.2988 89.26C15.2335 89.4467 15.0935 89.6893 14.8788 89.988C14.6642 90.2773 14.4915 90.506 14.3608 90.674C14.2395 90.842 14.0015 91.1127 13.6468 91.486C13.2922 91.8593 13.0308 92.1347 12.8628 92.312C12.6948 92.48 12.3728 92.802 11.8968 93.278H15.7888V95H9.23683V93.6C9.61949 93.208 10.0582 92.7693 10.5528 92.284C11.0568 91.7987 11.4255 91.4393 11.6588 91.206C11.8922 90.9727 12.1535 90.702 12.4428 90.394C12.7415 90.086 12.9515 89.8527 13.0728 89.694C13.1942 89.5353 13.3155 89.3487 13.4368 89.134C13.5675 88.9193 13.6515 88.728 13.6888 88.56C13.7262 88.3827 13.7448 88.1913 13.7448 87.986C13.7448 87.6313 13.6188 87.3093 13.3668 87.02C13.1242 86.7307 12.7835 86.586 12.3448 86.586C11.5608 86.586 10.8188 86.9687 10.1188 87.734ZM20.5457 93.614C20.9843 93.614 21.325 93.46 21.5677 93.152C21.8197 92.8347 21.9457 92.494 21.9457 92.13C21.9457 91.7287 21.843 91.3787 21.6377 91.08C21.4417 90.7813 21.171 90.632 20.8257 90.632C20.5083 90.632 20.1163 90.6973 19.6497 90.828L19.3277 89.596C21.1477 89.1667 22.0577 88.5367 22.0577 87.706C22.0577 87.3607 21.9457 87.0853 21.7217 86.88C21.4977 86.6653 21.1897 86.558 20.7977 86.558C20.023 86.558 19.2623 86.894 18.5157 87.566L17.7037 86.334C18.6463 85.438 19.6917 84.99 20.8397 84.99C21.801 84.99 22.5337 85.2187 23.0377 85.676C23.5417 86.1333 23.7937 86.7167 23.7937 87.426C23.7937 87.93 23.6397 88.3967 23.3317 88.826C23.033 89.2553 22.5943 89.5867 22.0157 89.82C22.6783 89.9693 23.1823 90.268 23.5277 90.716C23.8823 91.1547 24.0597 91.6633 24.0597 92.242C24.0597 93.082 23.7283 93.7867 23.0657 94.356C22.4123 94.9253 21.549 95.21 20.4757 95.21C19.8503 95.21 19.323 95.1167 18.8937 94.93C18.4737 94.734 18.0117 94.426 17.5077 94.006L18.3617 92.69C19.0617 93.306 19.7897 93.614 20.5457 93.614ZM31.3645 95H29.4605V92.62H25.3725L25.1625 91.416L29.7965 85.06H31.3645V91.248H32.9745V92.62H31.3645V95ZM29.4605 87.552L26.8005 91.248H29.4605V87.552ZM36.3033 86.936L36.0233 89.092C36.49 88.8307 37.0686 88.7 37.7593 88.7C38.6646 88.7 39.374 88.994 39.8873 89.582C40.4006 90.17 40.6573 90.9027 40.6573 91.78C40.6573 92.704 40.3493 93.5067 39.7333 94.188C39.1173 94.8693 38.2446 95.21 37.1153 95.21C36.49 95.21 35.958 95.112 35.5193 94.916C35.0806 94.72 34.6093 94.4167 34.1053 94.006L34.9593 92.69C35.6593 93.306 36.378 93.614 37.1153 93.614C37.554 93.614 37.9366 93.4273 38.2633 93.054C38.5993 92.6713 38.7673 92.2467 38.7673 91.78C38.7673 91.2573 38.6273 90.8513 38.3473 90.562C38.0766 90.2633 37.7126 90.114 37.2553 90.114C36.602 90.114 36.042 90.2773 35.5753 90.604L34.4413 90.17L35.0713 85.2H40.3913V86.936H36.3033ZM48.0041 87.244C47.7428 87.02 47.4255 86.838 47.0521 86.698C46.6788 86.558 46.3335 86.488 46.0161 86.488C45.3255 86.488 44.8401 86.74 44.5601 87.244C44.2895 87.7387 44.1495 88.4153 44.1401 89.274C44.6161 88.714 45.3161 88.434 46.2401 88.434C47.0241 88.434 47.6868 88.7187 48.2281 89.288C48.7788 89.8573 49.0541 90.6413 49.0541 91.64C49.0541 92.7693 48.7321 93.6467 48.0881 94.272C47.4441 94.8973 46.6275 95.21 45.6381 95.21C44.4528 95.21 43.5848 94.7993 43.0341 93.978C42.4928 93.1567 42.2221 91.9107 42.2221 90.24C42.2221 86.74 43.4541 84.99 45.9181 84.99C46.4595 84.99 46.9495 85.0693 47.3881 85.228C47.8268 85.3867 48.2795 85.6527 48.7461 86.026L48.0041 87.244ZM44.1401 91.276C44.1588 92.088 44.3081 92.6807 44.5881 93.054C44.8775 93.4273 45.2555 93.614 45.7221 93.614C46.1328 93.614 46.4875 93.4507 46.7861 93.124C47.0941 92.7973 47.2481 92.3167 47.2481 91.682C47.2481 91.0753 47.1128 90.618 46.8421 90.31C46.5808 89.9927 46.2635 89.834 45.8901 89.834C45.4888 89.834 45.1155 89.9413 44.7701 90.156C44.4341 90.3707 44.2241 90.744 44.1401 91.276ZM57.311 86.614L53.895 95H51.865L55.225 87.006H50.563V85.2H57.311V86.614ZM65.4138 87.636C65.4138 88.252 65.2691 88.742 64.9798 89.106C64.6905 89.47 64.2891 89.7687 63.7758 90.002C64.3638 90.2727 64.8211 90.5993 65.1478 90.982C65.4838 91.3647 65.6518 91.878 65.6518 92.522C65.6518 93.362 65.3485 94.02 64.7418 94.496C64.1445 94.972 63.3091 95.21 62.2358 95.21C61.1718 95.21 60.3365 94.972 59.7298 94.496C59.1231 94.02 58.8198 93.362 58.8198 92.522C58.8198 91.878 58.9831 91.3647 59.3098 90.982C59.6458 90.5993 60.1078 90.2727 60.6958 90.002C59.6318 89.5073 59.0998 88.7187 59.0998 87.636C59.0998 86.8707 59.3845 86.2407 59.9538 85.746C60.5325 85.242 61.2931 84.99 62.2358 84.99C63.2158 84.99 63.9905 85.242 64.5598 85.746C65.1291 86.25 65.4138 86.88 65.4138 87.636ZM63.7618 92.186C63.7618 91.766 63.6311 91.4347 63.3698 91.192C63.1085 90.9493 62.7305 90.7207 62.2358 90.506C61.7411 90.7207 61.3631 90.9493 61.1018 91.192C60.8498 91.4253 60.7238 91.7567 60.7238 92.186C60.7238 92.634 60.8545 92.9933 61.1158 93.264C61.3865 93.5347 61.7598 93.67 62.2358 93.67C62.7305 93.67 63.1085 93.5347 63.3698 93.264C63.6311 92.9933 63.7618 92.634 63.7618 92.186ZM60.9198 87.846C60.9198 88.21 61.0318 88.5087 61.2558 88.742C61.4798 88.966 61.8065 89.1807 62.2358 89.386C62.6651 89.1807 62.9918 88.966 63.2158 88.742C63.4491 88.5087 63.5658 88.21 63.5658 87.846C63.5658 87.4447 63.4398 87.1273 63.1878 86.894C62.9451 86.6513 62.6278 86.53 62.2358 86.53C61.8438 86.53 61.5265 86.6467 61.2838 86.88C61.0411 87.1133 60.9198 87.4353 60.9198 87.846ZM67.4266 94.174L68.1686 92.956C68.43 93.18 68.7473 93.362 69.1206 93.502C69.494 93.642 69.8393 93.712 70.1566 93.712C70.8473 93.712 71.328 93.4647 71.5986 92.97C71.8786 92.466 72.0233 91.7847 72.0326 90.926C71.5566 91.486 70.8566 91.766 69.9326 91.766C69.1486 91.766 68.4813 91.4813 67.9306 90.912C67.3893 90.3427 67.1186 89.5587 67.1186 88.56C67.1186 87.4307 67.4406 86.5533 68.0846 85.928C68.7286 85.3027 69.5453 84.99 70.5346 84.99C71.72 84.99 72.5833 85.4007 73.1246 86.222C73.6753 87.0433 73.9506 88.2893 73.9506 89.96C73.9506 93.46 72.7186 95.21 70.2546 95.21C69.7133 95.21 69.2233 95.1307 68.7846 94.972C68.346 94.8133 67.8933 94.5473 67.4266 94.174ZM72.0326 88.924C72.014 88.112 71.86 87.5193 71.5706 87.146C71.2906 86.7727 70.9173 86.586 70.4506 86.586C70.04 86.586 69.6806 86.7493 69.3726 87.076C69.074 87.4027 68.9246 87.8833 68.9246 88.518C68.9246 89.1247 69.0553 89.5867 69.3166 89.904C69.5873 90.212 69.9093 90.366 70.2826 90.366C70.684 90.366 71.0526 90.2587 71.3886 90.044C71.734 89.8293 71.9486 89.456 72.0326 88.924ZM82.2635 90.1C82.2635 91.7893 81.9508 93.0633 81.3255 93.922C80.7095 94.7807 79.8788 95.21 78.8335 95.21C77.7881 95.21 76.9575 94.7807 76.3415 93.922C75.7255 93.054 75.4175 91.78 75.4175 90.1C75.4175 88.42 75.7255 87.1507 76.3415 86.292C76.9575 85.424 77.7881 84.99 78.8335 84.99C79.8788 84.99 80.7095 85.424 81.3255 86.292C81.9508 87.1507 82.2635 88.42 82.2635 90.1ZM78.8335 86.586C77.8255 86.586 77.3215 87.7573 77.3215 90.1C77.3215 92.4427 77.8255 93.614 78.8335 93.614C79.2815 93.614 79.6455 93.3247 79.9255 92.746C80.2148 92.158 80.3595 91.276 80.3595 90.1C80.3595 88.924 80.2148 88.0467 79.9255 87.468C79.6455 86.88 79.2815 86.586 78.8335 86.586Z" fill="#F5F6FF"/>
</svg>
