<svg width="199" height="198" viewBox="0 0 199 198" fill="none" xmlns="http://www.w3.org/2000/svg">
<path fill-rule="evenodd" clip-rule="evenodd" d="M33.1664 66C14.8491 66 -8.00675e-07 51.2254 0 33C1.16984e-06 14.7746 14.8491 0 33.1664 0C51.4837 0 66.3328 14.7746 66.3328 33C66.3328 45.3342 59.5319 56.0879 49.4577 61.7513C59.5323 56.088 66.3336 45.3341 66.3336 32.9996C66.3336 51.225 81.1827 65.9996 99.5 65.9996C92.3137 65.9996 85.6613 68.2738 80.2299 72.1381C85.6612 68.2742 92.3133 66.0004 99.4992 66.0004C117.817 66.0004 132.666 80.775 132.666 99.0004C132.666 117.188 147.455 131.94 165.72 132C165.758 132 165.796 132 165.834 132C184.151 132 199 146.775 199 165C199 183.225 184.151 198 165.834 198C147.516 198 132.667 183.225 132.667 165C132.667 152.47 139.685 141.572 150.024 135.983C139.685 141.572 132.666 152.47 132.666 165C132.666 146.775 117.817 132 99.5 132C99.4626 132 99.4245 132 99.3872 132C81.1221 132.061 66.3344 146.812 66.3344 165C66.3344 154.265 61.183 144.728 53.2058 138.701C61.1826 144.728 66.3336 154.265 66.3336 165C66.3336 183.225 51.4845 198 33.1672 198C14.8499 198 0.000763698 183.225 0.000763698 165C0.000763698 146.774 14.8499 132 33.1672 132C33.2054 132 33.2435 132 33.2817 132C51.4709 131.939 66.2116 117.31 66.3336 99.2262C66.3331 99.151 66.3328 99.0757 66.3328 99.0004C66.3328 98.9471 66.333 98.8939 66.3332 98.8407C66.2474 80.7259 51.4923 66.0603 33.2803 65.9998C33.2423 65.9999 33.2044 66 33.1664 66ZM99.5 65.9996C117.817 65.9996 132.666 51.225 132.666 32.9996C132.666 43.0274 137.162 52.0104 144.257 58.0627C137.162 52.0103 132.667 43.0275 132.667 33C132.667 14.7746 147.516 1.44248e-06 165.834 1.44248e-06C184.151 1.44248e-06 199 14.7746 199 33C199 51.2254 184.151 66 165.834 66C165.796 66 165.758 65.9999 165.72 65.9998C147.454 66.0605 132.666 80.8118 132.666 98.9996C132.666 80.7742 117.817 65.9996 99.5 65.9996Z" fill="#C1F52F"/>
</svg>
