<svg width="330" height="215" viewBox="0 0 330 215" fill="none" xmlns="http://www.w3.org/2000/svg">
<path d="M20.6843 31.7176C22.3391 31.7176 23.1665 30.3731 23.1665 29.2354L25.235 31.3039C23.7871 31.3039 22.7528 32.545 22.7528 33.7861L20.6843 31.7176Z" fill="#F5F6FF"/>
<path d="M4.96291 33.7861C4.96291 32.1313 3.61837 31.3039 2.48068 31.3039L4.5492 29.2354C4.5492 30.6833 5.79032 31.7176 7.03143 31.7176L4.96291 33.7861Z" fill="#F5F6FF"/>
<path d="M2.48068 27.1668C4.1355 27.1668 4.96291 25.8223 4.96291 24.6846L7.03143 26.7531C5.58347 26.7531 4.5492 27.9942 4.5492 29.2354L2.48068 27.1668Z" fill="#F5F6FF"/>
<path d="M2.48068 13.5145C4.1355 13.5145 4.96291 12.1699 4.96291 11.0323L7.03143 13.1008C5.58347 13.1008 4.5492 14.3419 4.5492 15.583L2.48068 13.5145Z" fill="#F5F6FF"/>
<path d="M20.6843 22.616C22.3391 22.616 23.1665 21.2715 23.1665 20.1338L25.235 22.2023C23.7871 22.2023 22.7528 23.4435 22.7528 24.6846L20.6843 22.616Z" fill="#F5F6FF"/>
<path d="M22.7538 11.0323C22.7538 12.6872 24.0984 13.5146 25.2361 13.5146L23.1675 15.5831C23.1675 14.1351 21.9264 13.1009 20.6853 13.1009L22.7538 11.0323Z" fill="#F5F6FF"/>
<path d="M22.7538 24.6846C22.7538 26.3394 24.0984 27.1668 25.2361 27.1668L23.1675 29.2354C23.1675 27.7874 21.9264 26.7531 20.6853 26.7531L22.7538 24.6846Z" fill="#F5F6FF"/>
<circle cx="20.6835" cy="33.786" r="2" transform="rotate(-180 20.6835 33.786)" fill="#F5F6FF" stroke="#F5F6FF" stroke-width="0.137047"/>
<circle cx="16.3386" cy="33.786" r="2" transform="rotate(-180 16.3386 33.786)" fill="#F5F6FF" stroke="#F5F6FF" stroke-width="0.137047"/>
<circle cx="11.7889" cy="33.786" r="2" transform="rotate(-180 11.7889 33.786)" fill="#F5F6FF" stroke="#F5F6FF" stroke-width="0.137047"/>
<circle cx="7.03261" cy="33.786" r="2" transform="rotate(-180 7.03261 33.786)" fill="#F5F6FF" stroke="#F5F6FF" stroke-width="0.137047"/>
<circle cx="7.23873" cy="24.6844" r="2" transform="rotate(-180 7.23873 24.6844)" fill="#F5F6FF" stroke="#F5F6FF" stroke-width="0.137047"/>
<circle cx="2.4811" cy="29.2352" r="2" transform="rotate(-180 2.4811 29.2352)" fill="#F5F6FF" stroke="#F5F6FF" stroke-width="0.137047"/>
<circle cx="2.4811" cy="24.6844" r="2" transform="rotate(-180 2.4811 24.6844)" fill="#F5F6FF" stroke="#F5F6FF" stroke-width="0.137047"/>
<circle cx="25.2348" cy="29.2352" r="2" transform="rotate(-180 25.2348 29.2352)" fill="#F5F6FF" stroke="#F5F6FF" stroke-width="0.137047"/>
<circle cx="25.2348" cy="24.6844" r="2" transform="rotate(-180 25.2348 24.6844)" fill="#F5F6FF" stroke="#F5F6FF" stroke-width="0.137047"/>
<circle cx="25.2348" cy="20.5467" r="2" transform="rotate(-180 25.2348 20.5467)" fill="#F5F6FF" stroke="#F5F6FF" stroke-width="0.137047"/>
<circle cx="25.2348" cy="15.5828" r="2" transform="rotate(-180 25.2348 15.5828)" fill="#F5F6FF" stroke="#F5F6FF" stroke-width="0.137047"/>
<circle cx="20.6835" cy="11.0321" r="2" transform="rotate(-180 20.6835 11.0321)" fill="#F5F6FF" stroke="#F5F6FF" stroke-width="0.137047"/>
<circle cx="16.3386" cy="11.0321" r="2" transform="rotate(-180 16.3386 11.0321)" fill="#F5F6FF" stroke="#F5F6FF" stroke-width="0.137047"/>
<circle cx="11.7889" cy="11.0321" r="2" transform="rotate(-180 11.7889 11.0321)" fill="#F5F6FF" stroke="#F5F6FF" stroke-width="0.137047"/>
<circle cx="7.03261" cy="11.0321" r="2" transform="rotate(-180 7.03261 11.0321)" fill="#F5F6FF" stroke="#F5F6FF" stroke-width="0.137047"/>
<circle cx="2.4811" cy="15.5828" r="2" transform="rotate(-180 2.4811 15.5828)" fill="#F5F6FF" stroke="#F5F6FF" stroke-width="0.137047"/>
<circle cx="11.7889" cy="24.6844" r="2" transform="rotate(-180 11.7889 24.6844)" fill="#F5F6FF" stroke="#F5F6FF" stroke-width="0.137047"/>
<circle cx="16.3386" cy="24.6844" r="2" transform="rotate(-180 16.3386 24.6844)" fill="#F5F6FF" stroke="#F5F6FF" stroke-width="0.137047"/>
<circle cx="20.6835" cy="24.6844" r="2" transform="rotate(-180 20.6835 24.6844)" fill="#F5F6FF" stroke="#F5F6FF" stroke-width="0.137047"/>
<rect x="20.6853" y="35.8545" width="13.4454" height="4.13705" transform="rotate(-180 20.6853 35.8545)" fill="#F5F6FF"/>
<rect x="25.235" y="26.7529" width="22.7538" height="4.13705" transform="rotate(-180 25.235 26.7529)" fill="#F5F6FF"/>
<rect x="0.41272" y="29.0283" width="4.3439" height="4.13705" transform="rotate(-90 0.41272 29.0283)" fill="#F5F6FF"/>
<rect x="20.6853" y="13.1006" width="13.8591" height="4.13705" transform="rotate(-180 20.6853 13.1006)" fill="#F5F6FF"/>
<rect x="23.6664" y="28.7354" width="12.6523" height="3.13705" transform="rotate(-90 23.6664 28.7354)" fill="#F5F6FF" stroke="#F5F6FF"/>
<path d="M168.374 13.0998C166.72 13.0998 165.892 14.4443 165.892 15.582L163.824 13.5135C165.272 13.5135 166.306 12.2724 166.306 11.0313L168.374 13.0998Z" fill="#F5F6FF"/>
<path d="M184.096 11.0313C184.096 12.6861 185.44 13.5135 186.578 13.5135L184.51 15.582C184.51 14.1341 183.268 13.0998 182.027 13.0998L184.096 11.0313Z" fill="#F5F6FF"/>
<path d="M186.578 17.6506C184.923 17.6506 184.096 18.9951 184.096 20.1328L182.027 18.0643C183.475 18.0643 184.51 16.8231 184.51 15.582L186.578 17.6506Z" fill="#F5F6FF"/>
<path d="M186.578 31.3029C184.923 31.3029 184.096 32.6474 184.096 33.7851L182.027 31.7166C183.475 31.7166 184.51 30.4755 184.51 29.2344L186.578 31.3029Z" fill="#F5F6FF"/>
<path d="M168.374 22.2013C166.72 22.2013 165.892 23.5459 165.892 24.6836L163.824 22.615C165.272 22.615 166.306 21.3739 166.306 20.1328L168.374 22.2013Z" fill="#F5F6FF"/>
<path d="M166.305 33.785C166.305 32.1302 164.96 31.3028 163.823 31.3028L165.891 29.2343C165.891 30.6823 167.132 31.7165 168.373 31.7165L166.305 33.785Z" fill="#F5F6FF"/>
<path d="M166.305 20.1328C166.305 18.478 164.96 17.6506 163.823 17.6506L165.891 15.582C165.891 17.03 167.132 18.0643 168.373 18.0643L166.305 20.1328Z" fill="#F5F6FF"/>
<circle cx="168.375" cy="11.0314" r="2" fill="#F5F6FF" stroke="#F5F6FF" stroke-width="0.137047"/>
<circle cx="172.72" cy="11.0314" r="2" fill="#F5F6FF" stroke="#F5F6FF" stroke-width="0.137047"/>
<circle cx="177.27" cy="11.0314" r="2" fill="#F5F6FF" stroke="#F5F6FF" stroke-width="0.137047"/>
<circle cx="182.026" cy="11.0314" r="2" fill="#F5F6FF" stroke="#F5F6FF" stroke-width="0.137047"/>
<circle cx="181.82" cy="20.133" r="2" fill="#F5F6FF" stroke="#F5F6FF" stroke-width="0.137047"/>
<circle cx="186.578" cy="15.5822" r="2" fill="#F5F6FF" stroke="#F5F6FF" stroke-width="0.137047"/>
<circle cx="186.578" cy="20.133" r="2" fill="#F5F6FF" stroke="#F5F6FF" stroke-width="0.137047"/>
<circle cx="163.824" cy="15.5822" r="2" fill="#F5F6FF" stroke="#F5F6FF" stroke-width="0.137047"/>
<circle cx="163.824" cy="20.133" r="2" fill="#F5F6FF" stroke="#F5F6FF" stroke-width="0.137047"/>
<circle cx="163.824" cy="24.2707" r="2" fill="#F5F6FF" stroke="#F5F6FF" stroke-width="0.137047"/>
<circle cx="163.824" cy="29.2345" r="2" fill="#F5F6FF" stroke="#F5F6FF" stroke-width="0.137047"/>
<circle cx="168.375" cy="33.7853" r="2" fill="#F5F6FF" stroke="#F5F6FF" stroke-width="0.137047"/>
<circle cx="172.72" cy="33.7853" r="2" fill="#F5F6FF" stroke="#F5F6FF" stroke-width="0.137047"/>
<circle cx="177.27" cy="33.7853" r="2" fill="#F5F6FF" stroke="#F5F6FF" stroke-width="0.137047"/>
<circle cx="182.026" cy="33.7853" r="2" fill="#F5F6FF" stroke="#F5F6FF" stroke-width="0.137047"/>
<circle cx="186.578" cy="29.2345" r="2" fill="#F5F6FF" stroke="#F5F6FF" stroke-width="0.137047"/>
<circle cx="177.27" cy="20.133" r="2" fill="#F5F6FF" stroke="#F5F6FF" stroke-width="0.137047"/>
<circle cx="172.72" cy="20.133" r="2" fill="#F5F6FF" stroke="#F5F6FF" stroke-width="0.137047"/>
<circle cx="168.375" cy="20.133" r="2" fill="#F5F6FF" stroke="#F5F6FF" stroke-width="0.137047"/>
<rect x="168.373" y="8.96289" width="13.4454" height="4.13705" fill="#F5F6FF"/>
<rect x="163.824" y="18.0645" width="22.7538" height="4.13705" fill="#F5F6FF"/>
<rect x="188.646" y="15.7891" width="4.3439" height="4.13705" transform="rotate(90 188.646 15.7891)" fill="#F5F6FF"/>
<rect x="168.373" y="31.7168" width="13.8591" height="4.13705" fill="#F5F6FF"/>
<rect x="165.392" y="16.082" width="12.6523" height="3.13705" transform="rotate(90 165.392 16.082)" fill="#F5F6FF" stroke="#F5F6FF"/>
<path d="M199.747 13.1008C198.092 13.1008 197.265 14.4453 197.265 15.583L195.196 13.5145C196.644 13.5145 197.679 12.2733 197.679 11.0322L199.747 13.1008Z" fill="#F5F6FF"/>
<path d="M215.468 11.0323C215.468 12.6871 216.813 13.5145 217.951 13.5145L215.882 15.583C215.882 14.135 214.641 13.1008 213.4 13.1008L215.468 11.0323Z" fill="#F5F6FF"/>
<path d="M217.951 17.6515C216.296 17.6515 215.468 18.9961 215.468 20.1338L213.4 18.0652C214.848 18.0652 215.882 16.8241 215.882 15.583L217.951 17.6515Z" fill="#F5F6FF"/>
<path d="M217.951 31.3039C216.296 31.3039 215.468 32.6484 215.468 33.7861L213.4 31.7176C214.848 31.7176 215.882 30.4765 215.882 29.2354L217.951 31.3039Z" fill="#F5F6FF"/>
<path d="M199.747 22.2023C198.092 22.2023 197.265 23.5469 197.265 24.6845L195.196 22.616C196.644 22.616 197.679 21.3749 197.679 20.1338L199.747 22.2023Z" fill="#F5F6FF"/>
<path d="M197.677 33.786C197.677 32.1312 196.333 31.3038 195.195 31.3038L197.264 29.2353C197.264 30.6832 198.505 31.7175 199.746 31.7175L197.677 33.786Z" fill="#F5F6FF"/>
<path d="M197.677 20.1338C197.677 18.4789 196.333 17.6515 195.195 17.6515L197.264 15.583C197.264 17.031 198.505 18.0652 199.746 18.0652L197.677 20.1338Z" fill="#F5F6FF"/>
<circle cx="199.748" cy="11.0314" r="2" fill="#F5F6FF" stroke="#F5F6FF" stroke-width="0.137047"/>
<circle cx="204.093" cy="11.0314" r="2" fill="#F5F6FF" stroke="#F5F6FF" stroke-width="0.137047"/>
<circle cx="208.642" cy="11.0314" r="2" fill="#F5F6FF" stroke="#F5F6FF" stroke-width="0.137047"/>
<circle cx="213.399" cy="11.0314" r="2" fill="#F5F6FF" stroke="#F5F6FF" stroke-width="0.137047"/>
<circle cx="213.193" cy="20.133" r="2" fill="#F5F6FF" stroke="#F5F6FF" stroke-width="0.137047"/>
<circle cx="217.95" cy="15.5822" r="2" fill="#F5F6FF" stroke="#F5F6FF" stroke-width="0.137047"/>
<circle cx="217.95" cy="20.133" r="2" fill="#F5F6FF" stroke="#F5F6FF" stroke-width="0.137047"/>
<circle cx="195.196" cy="15.5822" r="2" fill="#F5F6FF" stroke="#F5F6FF" stroke-width="0.137047"/>
<circle cx="195.196" cy="20.133" r="2" fill="#F5F6FF" stroke="#F5F6FF" stroke-width="0.137047"/>
<circle cx="195.196" cy="24.2707" r="2" fill="#F5F6FF" stroke="#F5F6FF" stroke-width="0.137047"/>
<circle cx="195.196" cy="29.2345" r="2" fill="#F5F6FF" stroke="#F5F6FF" stroke-width="0.137047"/>
<circle cx="199.748" cy="33.7853" r="2" fill="#F5F6FF" stroke="#F5F6FF" stroke-width="0.137047"/>
<circle cx="204.093" cy="33.7853" r="2" fill="#F5F6FF" stroke="#F5F6FF" stroke-width="0.137047"/>
<circle cx="208.642" cy="33.7853" r="2" fill="#F5F6FF" stroke="#F5F6FF" stroke-width="0.137047"/>
<circle cx="213.399" cy="33.7853" r="2" fill="#F5F6FF" stroke="#F5F6FF" stroke-width="0.137047"/>
<circle cx="217.95" cy="29.2345" r="2" fill="#F5F6FF" stroke="#F5F6FF" stroke-width="0.137047"/>
<mask id="path-83-inside-1" fill="white">
<ellipse cx="199.851" cy="2.24089" rx="2.24089" ry="2.24089"/>
</mask>
<ellipse cx="199.851" cy="2.24089" rx="2.24089" ry="2.24089" fill="#F5F6FF"/>
<path d="M198.092 2.24089C198.092 1.26936 198.879 0.481786 199.851 0.481786L199.851 8.48179C203.298 8.48179 206.092 5.68764 206.092 2.24089L198.092 2.24089ZM199.851 0.481786C200.822 0.481786 201.61 1.26936 201.61 2.24089L193.61 2.24089C193.61 5.68764 196.404 8.48179 199.851 8.48179L199.851 0.481786ZM201.61 2.24089C201.61 3.21242 200.822 4 199.851 4L199.851 -4C196.404 -4 193.61 -1.20586 193.61 2.24089L201.61 2.24089ZM199.851 4C198.879 4 198.092 3.21242 198.092 2.24089L206.092 2.24089C206.092 -1.20586 203.298 -4 199.851 -4L199.851 4Z" fill="#F5F6FF" mask="url(#path-83-inside-1)"/>
<mask id="path-85-inside-2" fill="white">
<ellipse cx="208.815" cy="2.24089" rx="2.24089" ry="2.24089"/>
</mask>
<ellipse cx="208.815" cy="2.24089" rx="2.24089" ry="2.24089" fill="#F5F6FF"/>
<path d="M207.056 2.24089C207.056 1.26936 207.843 0.481786 208.815 0.481786L208.815 8.48179C212.261 8.48179 215.056 5.68764 215.056 2.24089L207.056 2.24089ZM208.815 0.481786C209.786 0.481786 210.574 1.26936 210.574 2.24089L202.574 2.24089C202.574 5.68764 205.368 8.48179 208.815 8.48179L208.815 0.481786ZM210.574 2.24089C210.574 3.21242 209.786 4 208.815 4L208.815 -4C205.368 -4 202.574 -1.20586 202.574 2.24089L210.574 2.24089ZM208.815 4C207.843 4 207.056 3.21242 207.056 2.24089L215.056 2.24089C215.056 -1.20586 212.261 -4 208.815 -4L208.815 4Z" fill="#F5F6FF" mask="url(#path-85-inside-2)"/>
<circle cx="208.642" cy="20.133" r="2" fill="#F5F6FF" stroke="#F5F6FF" stroke-width="0.137047"/>
<circle cx="204.093" cy="20.133" r="2" fill="#F5F6FF" stroke="#F5F6FF" stroke-width="0.137047"/>
<circle cx="199.748" cy="20.133" r="2" fill="#F5F6FF" stroke="#F5F6FF" stroke-width="0.137047"/>
<rect x="199.746" y="8.96289" width="13.4454" height="4.13705" fill="#F5F6FF"/>
<rect x="195.196" y="18.0645" width="22.7538" height="4.13705" fill="#F5F6FF"/>
<rect x="220.019" y="15.7891" width="4.3439" height="4.13705" transform="rotate(90 220.019 15.7891)" fill="#F5F6FF"/>
<rect x="199.746" y="31.7168" width="13.8591" height="4.13705" fill="#F5F6FF"/>
<rect x="196.765" y="16.083" width="12.6523" height="3.13705" transform="rotate(90 196.765 16.083)" fill="#F5F6FF" stroke="#F5F6FF"/>
<path fill-rule="evenodd" clip-rule="evenodd" d="M67.8656 55.1094C67.8656 56.347 66.8624 57.3503 65.6248 57.3503C66.8624 57.3503 67.8656 58.3535 67.8656 59.5912C67.8656 58.3535 68.8689 57.3503 70.1065 57.3503C68.8689 57.3503 67.8656 56.347 67.8656 55.1094Z" fill="#F5F6FF"/>
<path fill-rule="evenodd" clip-rule="evenodd" d="M72.3477 55.1094C72.3477 56.347 71.3445 57.3503 70.1068 57.3503C71.3445 57.3503 72.3477 58.3535 72.3477 59.5912C72.3477 58.3535 73.351 57.3503 74.5886 57.3503C73.351 57.3503 72.3477 56.347 72.3477 55.1094Z" fill="#F5F6FF"/>
<path fill-rule="evenodd" clip-rule="evenodd" d="M76.8296 59.5908C76.8296 60.8285 75.8264 61.8317 74.5887 61.8317C75.8264 61.8317 76.8296 62.835 76.8296 64.0726C76.8296 62.835 77.8329 61.8317 79.0705 61.8317C77.8329 61.8317 76.8296 60.8285 76.8296 59.5908Z" fill="#F5F6FF"/>
<path fill-rule="evenodd" clip-rule="evenodd" d="M81.3116 59.5909C81.3116 60.8285 80.3084 61.8318 79.0707 61.8318C80.3084 61.8318 81.3116 62.835 81.3116 64.0726C81.3116 62.835 82.3149 61.8318 83.5525 61.8318C82.3149 61.8318 81.3116 60.8285 81.3116 59.5909Z" fill="#F5F6FF"/>
<path fill-rule="evenodd" clip-rule="evenodd" d="M85.7934 55.1094C85.7934 56.347 84.7902 57.3503 83.5525 57.3503C84.7902 57.3503 85.7934 58.3535 85.7934 59.5912C85.7934 58.3535 86.7967 57.3503 88.0343 57.3503C86.7967 57.3503 85.7934 56.347 85.7934 55.1094Z" fill="#F5F6FF"/>
<path fill-rule="evenodd" clip-rule="evenodd" d="M90.2752 55.1094C90.2752 56.347 89.272 57.3503 88.0343 57.3503C89.272 57.3503 90.2752 58.3535 90.2752 59.5912C90.2752 58.3535 91.2785 57.3503 92.5161 57.3503C91.2785 57.3503 90.2752 56.347 90.2752 55.1094Z" fill="#F5F6FF"/>
<rect x="63.3837" y="59.5908" width="4.48179" height="17.9271" fill="#F5F6FF"/>
<rect x="90.2745" y="59.5908" width="4.48179" height="17.9271" fill="#F5F6FF"/>
<circle cx="70.1067" cy="55.1091" r="2.24089" fill="#F5F6FF"/>
<circle cx="88.0332" cy="55.1091" r="2.24089" fill="#F5F6FF"/>
<circle cx="65.6246" cy="59.5905" r="2.24089" fill="#F5F6FF"/>
<circle cx="92.5154" cy="59.5905" r="2.24089" fill="#F5F6FF"/>
<circle cx="92.5154" cy="77.5182" r="2.24089" fill="#F5F6FF"/>
<circle cx="65.6246" cy="77.5182" r="2.24089" fill="#F5F6FF"/>
<circle cx="74.5887" cy="59.5905" r="2.24089" fill="#F5F6FF"/>
<circle cx="83.5527" cy="59.5905" r="2.24089" fill="#F5F6FF"/>
<circle cx="79.0706" cy="64.0719" r="2.24089" fill="#F5F6FF"/>
<rect x="36.3981" y="144.236" width="4.54331" height="22.3035" fill="#F5F6FF"/>
<rect x="50.028" y="150.843" width="4.54331" height="13.6299" transform="rotate(90 50.028 150.843)" fill="#F5F6FF"/>
<rect x="268.749" y="120.05" width="13.7773" height="4.48179" fill="#F5F6FF"/>
<rect x="268.749" y="106.604" width="13.6114" height="4.48179" fill="#F5F6FF"/>
<path fill-rule="evenodd" clip-rule="evenodd" d="M266.923 104.363C266.923 105.601 265.919 106.604 264.682 106.604C265.919 106.604 266.923 107.607 266.923 108.845C266.923 107.607 267.926 106.604 269.164 106.604C267.926 106.604 266.923 105.601 266.923 104.363Z" fill="#F5F6FF"/>
<path fill-rule="evenodd" clip-rule="evenodd" d="M266.923 108.845C266.923 110.083 265.919 111.086 264.682 111.086C265.919 111.086 266.923 112.089 266.923 113.327C266.923 112.089 267.926 111.086 269.164 111.086C267.926 111.086 266.923 110.083 266.923 108.845Z" fill="#F5F6FF"/>
<path fill-rule="evenodd" clip-rule="evenodd" d="M266.923 117.81C266.923 119.047 265.919 120.05 264.682 120.05C265.919 120.05 266.923 121.054 266.923 122.291C266.923 121.054 267.926 120.05 269.164 120.05C267.926 120.05 266.923 119.047 266.923 117.81Z" fill="#F5F6FF"/>
<path fill-rule="evenodd" clip-rule="evenodd" d="M284.851 108.845C284.851 110.082 283.847 111.086 282.61 111.086C283.847 111.086 284.851 112.089 284.851 113.327C284.851 112.089 285.854 111.086 287.092 111.086C285.854 111.086 284.851 110.082 284.851 108.845Z" fill="#F5F6FF"/>
<path fill-rule="evenodd" clip-rule="evenodd" d="M284.851 117.81C284.851 119.047 283.847 120.05 282.61 120.05C283.847 120.05 284.851 121.054 284.851 122.291C284.851 121.054 285.854 120.05 287.092 120.05C285.854 120.05 284.851 119.047 284.851 117.81Z" fill="#F5F6FF"/>
<rect x="262.441" y="99.9639" width="4.48179" height="17.9271" fill="#F5F6FF"/>
<rect x="284.849" y="113.41" width="4.48179" height="4.48179" fill="#F5F6FF"/>
<rect x="293.814" y="99.9639" width="4.48179" height="22.4089" fill="#F5F6FF"/>
<circle cx="269.164" cy="108.844" r="2.24089" fill="#F5F6FF"/>
<circle cx="269.164" cy="122.291" r="2.24089" fill="#F5F6FF"/>
<circle cx="264.682" cy="99.8825" r="2.24089" fill="#F5F6FF"/>
<circle cx="296.055" cy="99.8815" r="2.24089" fill="#F5F6FF"/>
<circle cx="296.055" cy="122.291" r="2.24089" fill="#F5F6FF"/>
<circle cx="264.682" cy="117.809" r="2.24089" fill="#F5F6FF"/>
<circle cx="287.09" cy="113.327" r="2.24089" fill="#F5F6FF"/>
<circle cx="282.61" cy="108.844" r="2.24089" fill="#F5F6FF"/>
<circle cx="282.61" cy="122.292" r="2.24089" fill="#F5F6FF"/>
<circle cx="287.09" cy="117.809" r="2.24089" fill="#F5F6FF"/>
<rect x="309.418" y="119.885" width="13.7773" height="4.48179" fill="#F5F6FF"/>
<rect x="309.418" y="106.438" width="13.6114" height="4.48179" fill="#F5F6FF"/>
<path fill-rule="evenodd" clip-rule="evenodd" d="M307.592 104.197C307.592 105.435 306.588 106.438 305.351 106.438C306.588 106.438 307.592 107.441 307.592 108.679C307.592 107.441 308.595 106.438 309.832 106.438C308.595 106.438 307.592 105.435 307.592 104.197Z" fill="#F5F6FF"/>
<path fill-rule="evenodd" clip-rule="evenodd" d="M307.592 108.679C307.592 109.917 306.588 110.92 305.351 110.92C306.588 110.92 307.592 111.923 307.592 113.161C307.592 111.923 308.595 110.92 309.832 110.92C308.595 110.92 307.592 109.917 307.592 108.679Z" fill="#F5F6FF"/>
<path fill-rule="evenodd" clip-rule="evenodd" d="M307.592 117.644C307.592 118.881 306.588 119.884 305.351 119.884C306.588 119.884 307.592 120.888 307.592 122.125C307.592 120.888 308.595 119.884 309.832 119.884C308.595 119.884 307.592 118.881 307.592 117.644Z" fill="#F5F6FF"/>
<path fill-rule="evenodd" clip-rule="evenodd" d="M325.519 108.679C325.519 109.916 324.516 110.92 323.279 110.92C324.516 110.92 325.519 111.923 325.519 113.16C325.519 111.923 326.523 110.92 327.76 110.92C326.523 110.92 325.519 109.916 325.519 108.679Z" fill="#F5F6FF"/>
<path fill-rule="evenodd" clip-rule="evenodd" d="M325.519 117.644C325.519 118.881 324.516 119.884 323.279 119.884C324.516 119.884 325.519 120.888 325.519 122.125C325.519 120.888 326.523 119.884 327.76 119.884C326.523 119.884 325.519 118.881 325.519 117.644Z" fill="#F5F6FF"/>
<rect x="303.11" y="99.7988" width="4.48179" height="17.9271" fill="#F5F6FF"/>
<rect x="325.518" y="113.244" width="4.48179" height="4.48179" fill="#F5F6FF"/>
<circle cx="309.833" cy="108.679" r="2.24089" fill="#F5F6FF"/>
<circle cx="309.833" cy="122.126" r="2.24089" fill="#F5F6FF"/>
<circle cx="305.351" cy="99.7155" r="2.24089" fill="#F5F6FF"/>
<circle cx="305.351" cy="117.643" r="2.24089" fill="#F5F6FF"/>
<circle cx="327.759" cy="113.161" r="2.24089" fill="#F5F6FF"/>
<circle cx="323.278" cy="108.679" r="2.24089" fill="#F5F6FF"/>
<circle cx="323.278" cy="122.126" r="2.24089" fill="#F5F6FF"/>
<circle cx="327.759" cy="117.643" r="2.24089" fill="#F5F6FF"/>
<rect x="237.543" y="119.884" width="13.7773" height="4.48179" fill="#F5F6FF"/>
<rect x="228.745" y="97.4746" width="4.81377" height="4.48179" fill="#F5F6FF"/>
<rect x="237.543" y="106.438" width="13.6114" height="4.48179" fill="#F5F6FF"/>
<path fill-rule="evenodd" clip-rule="evenodd" d="M235.716 104.197C235.716 105.435 234.713 106.438 233.476 106.438C234.713 106.438 235.716 107.441 235.716 108.679C235.716 107.441 236.72 106.438 237.957 106.438C236.72 106.438 235.716 105.435 235.716 104.197Z" fill="#F5F6FF"/>
<path fill-rule="evenodd" clip-rule="evenodd" d="M235.716 108.679C235.716 109.917 234.713 110.92 233.476 110.92C234.713 110.92 235.716 111.923 235.716 113.161C235.716 111.923 236.72 110.92 237.957 110.92C236.72 110.92 235.716 109.917 235.716 108.679Z" fill="#F5F6FF"/>
<path fill-rule="evenodd" clip-rule="evenodd" d="M235.716 117.644C235.716 118.881 234.713 119.884 233.476 119.884C234.713 119.884 235.716 120.888 235.716 122.125C235.716 120.888 236.72 119.884 237.957 119.884C236.72 119.884 235.716 118.881 235.716 117.644Z" fill="#F5F6FF"/>
<path fill-rule="evenodd" clip-rule="evenodd" d="M253.643 108.679C253.643 109.916 252.64 110.92 251.402 110.92C252.64 110.92 253.643 111.923 253.643 113.16C253.643 111.923 254.646 110.92 255.884 110.92C254.646 110.92 253.643 109.916 253.643 108.679Z" fill="#F5F6FF"/>
<path fill-rule="evenodd" clip-rule="evenodd" d="M231.318 99.6328C231.318 100.87 230.315 101.874 229.077 101.874C230.315 101.874 231.318 102.877 231.318 104.115C231.318 102.877 232.322 101.874 233.559 101.874C232.322 101.874 231.318 100.87 231.318 99.6328Z" fill="#F5F6FF"/>
<path fill-rule="evenodd" clip-rule="evenodd" d="M253.643 117.644C253.643 118.881 252.64 119.884 251.402 119.884C252.64 119.884 253.643 120.888 253.643 122.125C253.643 120.888 254.646 119.884 255.884 119.884C254.646 119.884 253.643 118.881 253.643 117.644Z" fill="#F5F6FF"/>
<rect x="231.234" y="99.7979" width="4.48179" height="17.9271" fill="#F5F6FF"/>
<rect x="253.643" y="113.244" width="4.48179" height="4.48179" fill="#F5F6FF"/>
<circle cx="237.957" cy="108.678" r="2.24089" fill="#F5F6FF"/>
<circle cx="237.957" cy="122.126" r="2.24089" fill="#F5F6FF"/>
<circle cx="233.475" cy="99.7155" r="2.24089" fill="#F5F6FF"/>
<circle cx="233.475" cy="117.643" r="2.24089" fill="#F5F6FF"/>
<circle cx="255.884" cy="113.161" r="2.24089" fill="#F5F6FF"/>
<circle cx="251.402" cy="108.678" r="2.24089" fill="#F5F6FF"/>
<circle cx="251.402" cy="122.125" r="2.24089" fill="#F5F6FF"/>
<circle cx="228.993" cy="99.7155" r="2.24089" fill="#F5F6FF"/>
<circle cx="255.884" cy="117.643" r="2.24089" fill="#F5F6FF"/>
<path fill-rule="evenodd" clip-rule="evenodd" d="M307.071 24.7728C307.071 23.5351 308.074 22.5319 309.312 22.5319C308.074 22.5319 307.071 21.5286 307.071 20.291C307.071 21.5286 306.068 22.5319 304.83 22.5319C306.068 22.5319 307.071 23.5351 307.071 24.7728Z" fill="#F5F6FF"/>
<path fill-rule="evenodd" clip-rule="evenodd" d="M302.589 33.7363C302.589 32.4987 303.592 31.4954 304.83 31.4954C303.592 31.4954 302.589 30.4922 302.589 29.2545C302.589 30.4922 301.586 31.4954 300.348 31.4954C301.586 31.4954 302.589 32.4987 302.589 33.7363Z" fill="#F5F6FF"/>
<path fill-rule="evenodd" clip-rule="evenodd" d="M298.107 33.7363C298.107 32.4987 299.111 31.4954 300.348 31.4954C299.111 31.4954 298.107 30.4922 298.107 29.2545C298.107 30.4922 297.104 31.4954 295.866 31.4954C297.104 31.4954 298.107 32.4987 298.107 33.7363Z" fill="#F5F6FF"/>
<path fill-rule="evenodd" clip-rule="evenodd" d="M316.034 15.8092C316.034 14.5715 317.038 13.5683 318.275 13.5683C317.038 13.5683 316.034 12.565 316.034 11.3274C316.034 12.565 315.031 13.5683 313.794 13.5683C315.031 13.5683 316.034 14.5715 316.034 15.8092Z" fill="#F5F6FF"/>
<path fill-rule="evenodd" clip-rule="evenodd" d="M311.553 15.8092C311.553 14.5715 312.556 13.5683 313.794 13.5683C312.556 13.5683 311.553 12.565 311.553 11.3274C311.553 12.565 310.549 13.5683 309.312 13.5683C310.549 13.5683 311.553 14.5715 311.553 15.8092Z" fill="#F5F6FF"/>
<rect x="320.516" y="33.6543" width="4.48179" height="17.9271" transform="rotate(-180 320.516 33.6543)" fill="#F5F6FF"/>
<rect x="298.108" y="29.2549" width="4.48179" height="17.9271" transform="rotate(-180 298.108 29.2549)" fill="#F5F6FF"/>
<rect x="307.07" y="29.3379" width="4.48179" height="4.64778" transform="rotate(-180 307.07 29.3379)" fill="#F5F6FF"/>
<rect x="311.552" y="20.374" width="4.48179" height="4.64778" transform="rotate(-180 311.552 20.374)" fill="#F5F6FF"/>
<circle cx="300.347" cy="33.7366" r="2.24089" transform="rotate(-180 300.347 33.7366)" fill="#F5F6FF"/>
<circle cx="313.793" cy="11.3275" r="2.24089" transform="rotate(-180 313.793 11.3275)" fill="#F5F6FF"/>
<circle cx="318.275" cy="33.7357" r="2.24089" transform="rotate(-180 318.275 33.7357)" fill="#F5F6FF"/>
<circle cx="295.867" cy="29.2552" r="2.24089" transform="rotate(-180 295.867 29.2552)" fill="#F5F6FF"/>
<circle cx="295.867" cy="11.3275" r="2.24089" transform="rotate(-180 295.867 11.3275)" fill="#F5F6FF"/>
<circle cx="318.275" cy="15.8089" r="2.24089" transform="rotate(-180 318.275 15.8089)" fill="#F5F6FF"/>
<circle cx="304.83" cy="29.2552" r="2.24089" transform="rotate(-180 304.83 29.2552)" fill="#F5F6FF"/>
<circle cx="309.311" cy="20.2913" r="2.24089" transform="rotate(-180 309.311 20.2913)" fill="#F5F6FF"/>
<circle cx="304.83" cy="24.7738" r="2.24089" transform="rotate(-180 304.83 24.7738)" fill="#F5F6FF"/>
<circle cx="309.311" cy="15.8089" r="2.24089" transform="rotate(-180 309.311 15.8089)" fill="#F5F6FF"/>
<rect x="128.495" y="77.7676" width="4.48179" height="22.4089" transform="rotate(-180 128.495 77.7676)" fill="#F5F6FF"/>
<rect x="106.087" y="77.4355" width="4.48179" height="22.0769" transform="rotate(-180 106.087 77.4355)" fill="#F5F6FF"/>
<rect x="106.087" y="66.6465" width="4.48179" height="17.9271" rx="2.24089" transform="rotate(-90 106.087 66.6465)" fill="#F5F6FF"/>
<circle cx="126.254" cy="77.8499" r="2.24089" transform="rotate(-180 126.254 77.8499)" fill="#F5F6FF"/>
<circle cx="103.846" cy="77.6849" r="2.24089" transform="rotate(-180 103.846 77.6849)" fill="#F5F6FF"/>
<circle cx="103.846" cy="55.4427" r="2.24089" transform="rotate(-180 103.846 55.4427)" fill="#F5F6FF"/>
<circle cx="126.254" cy="55.4427" r="2.24089" transform="rotate(-180 126.254 55.4427)" fill="#F5F6FF"/>
<rect x="125.901" y="33.6973" width="4.48179" height="4.48179" fill="#F5F6FF"/>
<rect x="152.792" y="33.6973" width="4.48179" height="4.48179" fill="#F5F6FF"/>
<path d="M157.274 33.6146C157.274 34.8522 156.271 35.8555 155.033 35.8555L128.142 35.8555C126.905 35.8555 125.901 34.8522 125.901 33.6146C125.901 32.377 126.905 31.3737 128.142 31.3737L155.033 31.3737C156.271 31.3737 157.274 32.377 157.274 33.6146Z" fill="#F5F6FF"/>
<path d="M148.31 15.5208C148.376 13.5953 146.843 13.2246 146.069 13.28L148.31 11.0391C148.509 12.8982 149.887 13.3076 150.551 13.28L148.31 15.5208Z" fill="#F5F6FF"/>
<path d="M152.792 38.096C152.858 36.1705 151.325 35.7998 150.551 35.8552L152.792 33.6143C152.991 35.4734 154.369 35.8828 155.033 35.8552L152.792 38.096Z" fill="#F5F6FF"/>
<path d="M134.864 15.5209C134.798 13.5953 136.33 13.2246 137.105 13.28L134.864 11.0391C134.665 12.8982 133.287 13.3076 132.623 13.28L134.864 15.5209Z" fill="#F5F6FF"/>
<path d="M130.382 38.0958C130.316 36.1703 131.848 35.7996 132.623 35.8549L130.382 33.614C130.183 35.4731 128.805 35.8825 128.141 35.8549L130.382 38.0958Z" fill="#F5F6FF"/>
<rect x="130.383" y="35.6895" width="22.4089" height="4.48179" rx="2.24089" transform="rotate(-90 130.383 35.6895)" fill="#F5F6FF"/>
<rect x="134.865" y="13.2793" width="4.48179" height="13.4454" rx="2.24089" transform="rotate(-90 134.865 13.2793)" fill="#F5F6FF"/>
<rect x="148.31" y="34.1953" width="20.915" height="4.48179" rx="2.24089" transform="rotate(-90 148.31 34.1953)" fill="#F5F6FF"/>
<rect width="4.48179" height="4.48179" rx="2.24089" transform="matrix(0 1 1 0 125.901 35.8555)" fill="#F5F6FF"/>
<rect width="4.48179" height="4.48179" rx="2.24089" transform="matrix(0 1 1 0 152.792 35.8555)" fill="#F5F6FF"/>
<path d="M316.73 73.3695C316.663 71.444 318.196 71.0733 318.971 71.1286L316.73 68.8877C316.531 70.7468 315.153 71.1563 314.489 71.1286L316.73 73.3695Z" fill="#F5F6FF"/>
<path d="M312.249 73.3695C312.315 71.444 310.783 71.0733 310.008 71.1286L312.249 68.8877C312.448 70.7468 313.826 71.1563 314.49 71.1286L312.249 73.3695Z" fill="#F5F6FF"/>
<path d="M312.249 78.0163C312.315 79.9418 310.783 80.3125 310.008 80.2572L312.249 82.498C312.448 80.6389 313.826 80.2295 314.49 80.2572L312.249 78.0163Z" fill="#F5F6FF"/>
<path d="M321.212 64.4046C321.145 62.4791 322.678 62.1084 323.453 62.1637L321.212 59.9229C321.013 61.782 319.635 62.1914 318.971 62.1637L321.212 64.4046Z" fill="#F5F6FF"/>
<path d="M307.767 64.4046C307.833 62.4791 306.301 62.1084 305.526 62.1637L307.767 59.9229C307.966 61.782 309.344 62.1914 310.008 62.1637L307.767 64.4046Z" fill="#F5F6FF"/>
<rect x="312.248" y="80.2578" width="9.12957" height="4.48179" rx="2.24089" transform="rotate(-90 312.248 80.2578)" fill="#F5F6FF"/>
<rect x="307.767" y="89.3867" width="9.12957" height="4.48179" rx="2.24089" transform="rotate(-90 307.767 89.3867)" fill="#F5F6FF"/>
<rect x="321.212" y="62.1641" width="8.96357" height="4.48179" rx="2.24089" transform="rotate(-90 321.212 62.1641)" fill="#F5F6FF"/>
<rect width="8.96357" height="4.48179" rx="2.24089" transform="matrix(0 -1 -1 0 307.767 62.1641)" fill="#F5F6FF"/>
<rect x="316.73" y="71.1279" width="8.96357" height="4.48179" rx="2.24089" transform="rotate(-90 316.73 71.1279)" fill="#F5F6FF"/>
<rect width="8.96357" height="4.48179" rx="2.24089" transform="matrix(0 -1 -1 0 312.248 71.1279)" fill="#F5F6FF"/>
<path fill-rule="evenodd" clip-rule="evenodd" d="M40.6674 108.678C40.6674 107.441 41.6706 106.437 42.9083 106.437C41.6706 106.437 40.6674 105.434 40.6674 104.197C40.6674 105.434 39.6641 106.437 38.4265 106.437C39.6641 106.437 40.6674 107.441 40.6674 108.678Z" fill="#F5F6FF"/>
<path fill-rule="evenodd" clip-rule="evenodd" d="M40.6674 113.16C40.6674 111.923 41.6706 110.919 42.9083 110.919C41.6706 110.919 40.6674 109.916 40.6674 108.678C40.6674 109.916 39.6641 110.919 38.4265 110.919C39.6641 110.919 40.6674 111.923 40.6674 113.16Z" fill="#F5F6FF"/>
<path fill-rule="evenodd" clip-rule="evenodd" d="M58.5953 108.678C58.5953 107.441 59.5985 106.437 60.8362 106.437C59.5985 106.437 58.5953 105.434 58.5953 104.197C58.5953 105.434 57.592 106.437 56.3544 106.437C57.592 106.437 58.5953 107.441 58.5953 108.678Z" fill="#F5F6FF"/>
<path fill-rule="evenodd" clip-rule="evenodd" d="M58.5953 113.16C58.5953 111.923 59.5985 110.919 60.8362 110.919C59.5985 110.919 58.5953 109.916 58.5953 108.678C58.5953 109.916 57.592 110.919 56.3544 110.919C57.592 110.919 58.5953 111.923 58.5953 113.16Z" fill="#F5F6FF"/>
<rect x="63.0756" y="104.113" width="4.48179" height="4.48179" transform="rotate(-180 63.0756 104.113)" fill="#F5F6FF"/>
<rect x="40.667" y="104.279" width="4.48179" height="4.64778" transform="rotate(-180 40.667 104.279)" fill="#F5F6FF"/>
<rect x="40.667" y="122.042" width="4.48179" height="8.79758" transform="rotate(-180 40.667 122.042)" fill="#F5F6FF"/>
<rect x="63.0756" y="122.042" width="4.48179" height="8.79758" transform="rotate(-180 63.0756 122.042)" fill="#F5F6FF"/>
<rect x="40.6669" y="110.92" width="4.48179" height="17.9271" rx="2.24089" transform="rotate(-90 40.6669 110.92)" fill="#F5F6FF"/>
<circle cx="60.8342" cy="122.125" r="2.24089" transform="rotate(-180 60.8342 122.125)" fill="#F5F6FF"/>
<circle cx="38.4261" cy="121.958" r="2.24089" transform="rotate(-180 38.4261 121.958)" fill="#F5F6FF"/>
<circle cx="38.4261" cy="113.161" r="2.24089" transform="rotate(-180 38.4261 113.161)" fill="#F5F6FF"/>
<circle cx="60.8347" cy="113.161" r="2.24089" transform="rotate(-180 60.8347 113.161)" fill="#F5F6FF"/>
<circle cx="38.4261" cy="99.7152" r="2.24089" transform="rotate(-180 38.4261 99.7152)" fill="#F5F6FF"/>
<circle cx="38.4261" cy="104.197" r="2.24089" transform="rotate(-180 38.4261 104.197)" fill="#F5F6FF"/>
<circle cx="60.8347" cy="99.7152" r="2.24089" transform="rotate(-180 60.8347 99.7152)" fill="#F5F6FF"/>
<circle cx="60.8347" cy="104.197" r="2.24089" transform="rotate(-180 60.8347 104.197)" fill="#F5F6FF"/>
<rect x="239.845" y="10.9131" width="4.48179" height="23.0729" fill="#F5F6FF"/>
<path fill-rule="evenodd" clip-rule="evenodd" d="M231.047 20.2897C231.047 19.052 232.05 18.0488 233.288 18.0488C232.05 18.0488 231.047 17.0455 231.047 15.8079C231.047 17.0455 230.044 18.0488 228.806 18.0488C230.044 18.0488 231.047 19.052 231.047 20.2897Z" fill="#F5F6FF"/>
<path fill-rule="evenodd" clip-rule="evenodd" d="M231.047 24.7715C231.047 23.5338 232.05 22.5306 233.288 22.5306C232.05 22.5306 231.047 21.5273 231.047 20.2897C231.047 21.5273 230.044 22.5306 228.806 22.5306C230.044 22.5306 231.047 23.5338 231.047 24.7715Z" fill="#F5F6FF"/>
<path fill-rule="evenodd" clip-rule="evenodd" d="M253.29 20.2926C253.29 19.0549 254.293 18.0517 255.531 18.0517C254.293 18.0517 253.29 17.0484 253.29 15.8108C253.29 17.0484 252.286 18.0517 251.049 18.0517C252.286 18.0517 253.29 19.0549 253.29 20.2926Z" fill="#F5F6FF"/>
<path fill-rule="evenodd" clip-rule="evenodd" d="M253.29 24.7744C253.29 23.5368 254.293 22.5335 255.531 22.5335C254.293 22.5335 253.29 21.5302 253.29 20.2926C253.29 21.5302 252.286 22.5335 251.049 22.5335C252.286 22.5335 253.29 23.5368 253.29 24.7744Z" fill="#F5F6FF"/>
<rect x="257.771" y="15.7266" width="4.48179" height="4.48179" transform="rotate(-180 257.771 15.7266)" fill="#F5F6FF"/>
<rect x="231.047" y="15.8926" width="4.48179" height="4.64778" transform="rotate(-180 231.047 15.8926)" fill="#F5F6FF"/>
<rect x="231.047" y="33.6543" width="4.48179" height="8.79758" transform="rotate(-180 231.047 33.6543)" fill="#F5F6FF"/>
<rect x="257.771" y="33.6543" width="4.48179" height="8.79758" transform="rotate(-180 257.771 33.6543)" fill="#F5F6FF"/>
<rect x="231.047" y="22.5312" width="4.48179" height="22.2429" rx="2.24089" transform="rotate(-90 231.047 22.5312)" fill="#F5F6FF"/>
<circle cx="255.53" cy="33.7376" r="2.24089" transform="rotate(-180 255.53 33.7376)" fill="#F5F6FF"/>
<circle cx="242.085" cy="33.7376" r="2.24089" transform="rotate(-180 242.085 33.7376)" fill="#F5F6FF"/>
<circle cx="242.085" cy="11.3284" r="2.24089" transform="rotate(-180 242.085 11.3284)" fill="#F5F6FF"/>
<circle cx="228.806" cy="33.5716" r="2.24089" transform="rotate(-180 228.806 33.5716)" fill="#F5F6FF"/>
<circle cx="228.806" cy="24.7728" r="2.24089" transform="rotate(-180 228.806 24.7728)" fill="#F5F6FF"/>
<circle cx="255.531" cy="24.7728" r="2.24089" transform="rotate(-180 255.531 24.7728)" fill="#F5F6FF"/>
<circle cx="228.806" cy="11.3275" r="2.24089" transform="rotate(-180 228.806 11.3275)" fill="#F5F6FF"/>
<circle cx="228.806" cy="15.8099" r="2.24089" transform="rotate(-180 228.806 15.8099)" fill="#F5F6FF"/>
<circle cx="255.531" cy="11.3284" r="2.24089" transform="rotate(-180 255.531 11.3284)" fill="#F5F6FF"/>
<circle cx="255.531" cy="15.8099" r="2.24089" transform="rotate(-180 255.531 15.8099)" fill="#F5F6FF"/>
<path fill-rule="evenodd" clip-rule="evenodd" d="M116.692 113.328C116.692 112.09 117.695 111.087 118.933 111.087C117.695 111.087 116.692 110.084 116.692 108.846C116.692 110.084 115.689 111.087 114.451 111.087C115.689 111.087 116.692 112.09 116.692 113.328Z" fill="#F5F6FF"/>
<path fill-rule="evenodd" clip-rule="evenodd" d="M116.692 117.81C116.692 116.572 117.695 115.569 118.933 115.569C117.695 115.569 116.692 114.565 116.692 113.328C116.692 114.565 115.689 115.569 114.451 115.569C115.689 115.569 116.692 116.572 116.692 117.81Z" fill="#F5F6FF"/>
<path fill-rule="evenodd" clip-rule="evenodd" d="M98.7653 113.327C98.7653 112.09 99.7685 111.086 101.006 111.086C99.7685 111.086 98.7653 110.083 98.7653 108.845C98.7653 110.083 97.762 111.086 96.5244 111.086C97.762 111.086 98.7653 112.09 98.7653 113.327Z" fill="#F5F6FF"/>
<rect x="98.7652" y="108.762" width="4.48179" height="8.96357" transform="rotate(-180 98.7652 108.762)" fill="#F5F6FF"/>
<rect x="121.174" y="122.208" width="4.48179" height="22.2429" transform="rotate(-180 121.174 122.208)" fill="#F5F6FF"/>
<rect x="98.7652" y="115.568" width="4.48179" height="17.9271" rx="2.24089" transform="rotate(-90 98.7652 115.568)" fill="#F5F6FF"/>
<circle cx="118.933" cy="122.291" r="2.24089" transform="rotate(-180 118.933 122.291)" fill="#F5F6FF"/>
<circle cx="96.5243" cy="99.8812" r="2.24089" transform="rotate(-180 96.5243 99.8812)" fill="#F5F6FF"/>
<circle cx="96.5243" cy="108.845" r="2.24089" transform="rotate(-180 96.5243 108.845)" fill="#F5F6FF"/>
<circle cx="118.933" cy="99.8812" r="2.24089" transform="rotate(-180 118.933 99.8812)" fill="#F5F6FF"/>
<path d="M36.2659 11.2048C36.2659 9.96715 37.2692 8.96387 38.5068 8.96387H56.4339C57.6715 8.96387 58.6748 9.96715 58.6748 11.2048C58.6748 12.4424 57.6715 13.4457 56.4339 13.4457H38.5068C37.2692 13.4457 36.2659 12.4424 36.2659 11.2048Z" fill="#F5F6FF"/>
<path d="M34.0247 31.373C32.7871 31.373 31.7838 30.3698 31.7838 29.1322V15.6868C31.7838 14.4492 32.7871 13.4459 34.0247 13.4459C35.2623 13.4459 36.2656 14.4492 36.2656 15.6868V29.1322C36.2656 30.3698 35.2623 31.373 34.0247 31.373Z" fill="#F5F6FF"/>
<path d="M36.2659 33.6139C36.2659 32.3763 37.2692 31.373 38.5068 31.373H56.4339C57.6715 31.373 58.6748 32.3763 58.6748 33.6139C58.6748 34.8516 57.6715 35.8548 56.4339 35.8548H38.5068C37.2692 35.8548 36.2659 34.8516 36.2659 33.6139Z" fill="#F5F6FF"/>
<path d="M36.2659 20.1677C36.2659 18.93 37.2692 17.9268 38.5068 17.9268H56.4339C57.6715 17.9268 58.6748 18.93 58.6748 20.1677C58.6748 21.4053 57.6715 22.4085 56.4339 22.4085H38.5068C37.2692 22.4085 36.2659 21.4053 36.2659 20.1677Z" fill="#F5F6FF"/>
<path d="M58.6551 24.6498C58.7257 22.7242 57.0957 22.3535 56.2719 22.4089L58.6551 20.168C58.8669 22.0271 60.3321 22.4365 61.0383 22.4089L58.6551 24.6498Z" fill="#F5F6FF"/>
<path d="M36.2414 33.6146C36.3121 31.6891 34.6821 31.3184 33.8583 31.3737L36.2414 29.1328C36.4533 30.9919 37.9185 31.4014 38.6246 31.3737L36.2414 33.6146Z" fill="#F5F6FF"/>
<path d="M58.698 33.6146C58.6274 31.6891 60.2574 31.3184 61.0812 31.3737L58.698 29.1328C58.4862 30.9919 57.021 31.4014 56.3148 31.3737L58.698 33.6146Z" fill="#F5F6FF"/>
<path d="M58.674 11.2044C58.6034 9.27894 60.2334 8.90822 61.0572 8.96355L58.674 6.72266C58.4622 8.58177 56.997 8.99122 56.2908 8.96355L58.674 11.2044Z" fill="#F5F6FF"/>
<path d="M36.325 15.6859C36.2543 13.7604 37.8843 13.3897 38.7081 13.445L36.325 11.2041C36.1131 13.0632 34.6479 13.4727 33.9418 13.445L36.325 15.6859Z" fill="#F5F6FF"/>
<circle cx="56.4337" cy="20.1683" r="2.24089" transform="rotate(-180 56.4337 20.1683)" fill="#F5F6FF"/>
<circle cx="60.9157" cy="29.1322" r="2.24089" transform="rotate(-180 60.9157 29.1322)" fill="#F5F6FF"/>
<circle cx="60.9157" cy="24.6507" r="2.24089" transform="rotate(-180 60.9157 24.6507)" fill="#F5F6FF"/>
<rect x="63.1566" y="29.2148" width="4.48179" height="4.48179" transform="rotate(-180 63.1566 29.2148)" fill="#F5F6FF"/>
<circle cx="60.9157" cy="6.722" r="2.24089" transform="rotate(-180 60.9157 6.722)" fill="#F5F6FF"/>
<path d="M72.1219 11.3698C72.1219 10.1322 73.1252 9.12891 74.3628 9.12891H92.2899C93.5275 9.12891 94.5308 10.1322 94.5308 11.3698C94.5308 12.6074 93.5275 13.6107 92.2899 13.6107H74.3628C73.1252 13.6107 72.1219 12.6074 72.1219 11.3698Z" fill="#F5F6FF"/>
<path d="M69.8807 31.5381C68.6431 31.5381 67.6398 30.5348 67.6398 29.2972V15.8518C67.6398 14.6142 68.6431 13.6109 69.8807 13.6109C71.1183 13.6109 72.1216 14.6142 72.1216 15.8518V29.2972C72.1216 30.5348 71.1183 31.5381 69.8807 31.5381Z" fill="#F5F6FF"/>
<path d="M72.1219 33.779C72.1219 32.5414 73.1252 31.5381 74.3628 31.5381H92.2899C93.5275 31.5381 94.5308 32.5414 94.5308 33.779C94.5308 35.0166 93.5275 36.0199 92.2899 36.0199H74.3628C73.1252 36.0199 72.1219 35.0166 72.1219 33.779Z" fill="#F5F6FF"/>
<path d="M72.1219 20.3327C72.1219 19.0951 73.1252 18.0918 74.3628 18.0918H92.2899C93.5275 18.0918 94.5308 19.0951 94.5308 20.3327C94.5308 21.5703 93.5275 22.5736 92.2899 22.5736H74.3628C73.1252 22.5736 72.1219 21.5703 72.1219 20.3327Z" fill="#F5F6FF"/>
<path d="M94.5304 15.8519C94.601 13.9264 92.971 13.5557 92.1472 13.611L94.5304 11.3701C94.7422 13.2292 96.2074 13.6387 96.9136 13.611L94.5304 15.8519Z" fill="#F5F6FF"/>
<path d="M94.5111 24.8148C94.5817 22.8893 92.9517 22.5186 92.1279 22.5739L94.5111 20.333C94.7229 22.1921 96.1881 22.6016 96.8943 22.5739L94.5111 24.8148Z" fill="#F5F6FF"/>
<path d="M72.0975 33.7796C72.1681 31.8541 70.5381 31.4834 69.7143 31.5387L72.0975 29.2979C72.3093 31.157 73.7745 31.5664 74.4806 31.5387L72.0975 33.7796Z" fill="#F5F6FF"/>
<path d="M94.554 33.7796C94.4834 31.8541 96.1134 31.4834 96.9372 31.5387L94.554 29.2979C94.3422 31.157 92.877 31.5664 92.1709 31.5387L94.554 33.7796Z" fill="#F5F6FF"/>
<path d="M94.5236 20.3333C94.453 18.4078 96.0829 18.0371 96.9067 18.0925L94.5236 15.8516C94.3117 17.7107 92.8465 18.1201 92.1404 18.0925L94.5236 20.3333Z" fill="#F5F6FF"/>
<path d="M72.181 15.8519C72.1104 13.9264 73.7403 13.5557 74.5641 13.611L72.181 11.3701C71.9691 13.2292 70.5039 13.6387 69.7978 13.611L72.181 15.8519Z" fill="#F5F6FF"/>
<circle cx="96.7697" cy="15.8509" r="2.24089" transform="rotate(-180 96.7697 15.8509)" fill="#F5F6FF"/>
<circle cx="92.2891" cy="20.3333" r="2.24089" transform="rotate(-180 92.2891 20.3333)" fill="#F5F6FF"/>
<circle cx="96.7697" cy="29.2982" r="2.24089" transform="rotate(-180 96.7697 29.2982)" fill="#F5F6FF"/>
<circle cx="96.7697" cy="24.8157" r="2.24089" transform="rotate(-180 96.7697 24.8157)" fill="#F5F6FF"/>
<rect x="99.0106" y="29.3809" width="4.48179" height="4.48179" transform="rotate(-180 99.0106 29.3809)" fill="#F5F6FF"/>
<path d="M206.927 57.5156C205.689 57.5156 204.686 58.7697 204.686 60.3167L204.686 77.1234C204.686 78.6705 205.689 79.9246 206.927 79.9246C208.165 79.9246 209.168 78.6705 209.168 77.1234L209.168 60.3167C209.168 58.7697 208.165 57.5156 206.927 57.5156Z" fill="#F5F6FF"/>
<path d="M209.168 55.2747C209.168 56.5123 210.171 57.5156 211.409 57.5156L229.336 57.5156C230.574 57.5156 231.577 56.5123 231.577 55.2747C231.577 54.0371 230.574 53.0338 229.336 53.0338L211.409 53.0338C210.171 53.0338 209.168 54.0371 209.168 55.2747Z" fill="#F5F6FF"/>
<path d="M209.168 68.72C209.168 69.9577 210.171 70.9609 211.409 70.9609L229.336 70.9609C230.574 70.9609 231.577 69.9577 231.577 68.72C231.577 67.4824 230.574 66.4791 229.336 66.4791L211.409 66.4792C210.171 66.4792 209.168 67.4824 209.168 68.72Z" fill="#F5F6FF"/>
<path d="M231.557 64.2379C231.628 66.1634 229.998 66.5342 229.174 66.4788L231.557 68.7197C231.769 66.8606 233.234 66.4512 233.941 66.4788L231.557 64.2379Z" fill="#F5F6FF"/>
<path d="M209.144 55.2741C209.214 57.1996 207.584 57.5703 206.761 57.515L209.144 59.7559C209.356 57.8967 210.821 57.4873 211.527 57.515L209.144 55.2741Z" fill="#F5F6FF"/>
<path d="M231.6 55.2741C231.53 57.1996 233.16 57.5703 233.984 57.515L231.6 59.7559C231.389 57.8967 229.923 57.4873 229.217 57.515L231.6 55.2741Z" fill="#F5F6FF"/>
<circle r="2.24089" transform="matrix(-1 1.74846e-07 1.74846e-07 1 229.336 68.7204)" fill="#F5F6FF"/>
<circle r="2.24089" transform="matrix(-1 1.74846e-07 1.74846e-07 1 233.818 59.7565)" fill="#F5F6FF"/>
<circle r="2.24089" transform="matrix(-1 1.74846e-07 1.74846e-07 1 233.818 64.238)" fill="#F5F6FF"/>
<rect width="4.48179" height="4.48179" transform="matrix(-1 1.74846e-07 1.74846e-07 1 236.059 59.6729)" fill="#F5F6FF"/>
<path d="M110.217 146.15C111.455 146.15 112.458 147.404 112.458 148.952L112.458 165.758C112.458 167.305 111.455 168.559 110.217 168.559C108.98 168.559 107.976 167.305 107.976 165.758L107.976 148.952C107.976 147.404 108.98 146.15 110.217 146.15Z" fill="#F5F6FF"/>
<path d="M107.976 143.909C107.976 145.147 106.973 146.15 105.735 146.15L87.8082 146.15C86.5706 146.15 85.5673 145.147 85.5673 143.909C85.5673 142.672 86.5706 141.669 87.8082 141.669L105.735 141.669C106.973 141.669 107.976 142.672 107.976 143.909Z" fill="#F5F6FF"/>
<path d="M107.976 157.355C107.976 158.592 106.973 159.596 105.735 159.596L87.8082 159.596C86.5706 159.596 85.5673 158.592 85.5673 157.355C85.5673 156.117 86.5706 155.114 87.8082 155.114L105.735 155.114C106.973 155.114 107.976 156.117 107.976 157.355Z" fill="#F5F6FF"/>
<path d="M85.587 152.873C85.5164 154.798 87.1464 155.169 87.9702 155.114L85.587 157.354C85.3752 155.495 83.91 155.086 83.2039 155.114L85.587 152.873Z" fill="#F5F6FF"/>
<path d="M108.001 143.909C107.93 145.834 109.56 146.205 110.384 146.15L108.001 148.391C107.789 146.532 106.324 146.122 105.617 146.15L108.001 143.909Z" fill="#F5F6FF"/>
<path d="M85.5441 143.909C85.6147 145.834 83.9848 146.205 83.1609 146.15L85.5441 148.391C85.756 146.532 87.2212 146.122 87.9273 146.15L85.5441 143.909Z" fill="#F5F6FF"/>
<path d="M89.8839 161.837C89.9545 163.762 88.3245 164.133 87.5007 164.077L89.8839 166.318C90.0957 164.459 91.561 164.05 92.2671 164.077L89.8839 161.837Z" fill="#F5F6FF"/>
<circle cx="87.8085" cy="157.354" r="2.24089" fill="#F5F6FF"/>
<circle cx="87.6426" cy="166.318" r="2.24089" fill="#F5F6FF"/>
<circle cx="92.1246" cy="161.837" r="2.24089" fill="#F5F6FF"/>
<circle cx="83.3264" cy="148.391" r="2.24089" fill="#F5F6FF"/>
<circle cx="83.3264" cy="152.873" r="2.24089" fill="#F5F6FF"/>
<rect x="81.0855" y="148.308" width="4.48179" height="4.48179" fill="#F5F6FF"/>
<rect x="89.8837" y="159.596" width="4.48179" height="2.1579" fill="#F5F6FF"/>
<rect x="107.974" y="33.1992" width="4.48179" height="17.2632" transform="rotate(-180 107.974 33.1992)" fill="#F5F6FF"/>
<rect x="107.974" y="13.4443" width="4.48179" height="17.9271" rx="2.24089" transform="rotate(-90 107.974 13.4443)" fill="#F5F6FF"/>
<circle cx="105.733" cy="33.4476" r="2.24089" transform="rotate(-180 105.733 33.4476)" fill="#F5F6FF"/>
<circle cx="105.733" cy="15.6859" r="2.24089" transform="rotate(-180 105.733 15.6859)" fill="#F5F6FF"/>
<path d="M107.974 15.6859C107.903 13.7604 109.533 13.3897 110.357 13.445L107.974 11.2041C107.762 13.0632 106.297 13.4727 105.591 13.445L107.974 15.6859Z" fill="#F5F6FF"/>
<path d="M262.254 15.8093C262.254 17.0469 263.257 18.0501 264.494 18.0501C265.732 18.0501 266.735 17.0469 266.735 15.8093C266.735 14.5716 265.732 13.5684 264.494 13.5684C263.257 13.5684 262.254 14.5716 262.254 15.8093Z" fill="#F5F6FF"/>
<path d="M262.254 29.2552C262.254 28.0176 263.257 27.0143 264.494 27.0143C265.732 27.0143 266.735 28.0176 266.735 29.2552C266.735 30.4928 265.732 31.4961 264.494 31.4961C263.257 31.4961 262.254 30.4928 262.254 29.2552Z" fill="#F5F6FF"/>
<path d="M266.735 15.8099C266.669 13.8844 268.202 13.5137 268.976 13.569L266.735 11.3281C266.536 13.1872 265.158 13.5967 264.495 13.569L266.735 15.8099Z" fill="#F5F6FF"/>
<path d="M284.662 20.2914C284.596 18.3659 286.128 17.9951 286.903 18.0505L284.662 15.8096C284.463 17.6687 283.085 18.0781 282.421 18.0505L284.662 20.2914Z" fill="#F5F6FF"/>
<path d="M266.735 29.2555C266.669 31.181 268.202 31.5517 268.976 31.4964L266.735 33.7373C266.536 31.8782 265.158 31.4687 264.495 31.4964L266.735 29.2555Z" fill="#F5F6FF"/>
<path d="M284.662 33.7367C284.596 31.8112 286.128 31.4404 286.903 31.4958L284.662 29.2549C284.463 31.114 283.085 31.5234 282.421 31.4958L284.662 33.7367Z" fill="#F5F6FF"/>
<path d="M284.662 15.8099C284.728 13.8844 283.196 13.5137 282.421 13.569L284.662 11.3281C284.861 13.1872 286.239 13.5967 286.903 13.569L284.662 15.8099Z" fill="#F5F6FF"/>
<path d="M284.662 24.7718C284.728 22.8463 283.196 22.4756 282.421 22.5309L284.662 20.29C284.861 22.1492 286.239 22.5586 286.903 22.5309L284.662 24.7718Z" fill="#F5F6FF"/>
<path d="M266.735 11.3278C266.735 10.0902 267.739 9.08691 268.976 9.08691H282.422C283.659 9.08691 284.663 10.0902 284.663 11.3278C284.663 12.5654 283.659 13.5687 282.422 13.5687H268.976C267.739 13.5687 266.735 12.5654 266.735 11.3278Z" fill="#F5F6FF"/>
<path d="M271.216 20.2907C271.216 19.0531 272.219 18.0498 273.457 18.0498H282.42C283.658 18.0498 284.661 19.0531 284.661 20.2907C284.661 21.5283 283.658 22.5316 282.42 22.5316H273.457C272.219 22.5316 271.216 21.5283 271.216 20.2907Z" fill="#F5F6FF"/>
<path d="M266.735 33.7376C266.735 34.9752 267.739 35.9785 268.976 35.9785H282.422C283.659 35.9785 284.663 34.9752 284.663 33.7376C284.663 32.5 283.659 31.4967 282.422 31.4967H268.976C267.739 31.4967 266.735 32.5 266.735 33.7376Z" fill="#F5F6FF"/>
<circle cx="286.903" cy="15.8093" r="2.24089" fill="#F5F6FF"/>
<rect x="284.662" y="22.5312" width="4.48179" height="8.96357" rx="2.24089" fill="#F5F6FF"/>
<rect x="5.12073" y="79.7588" width="4.48179" height="26.8907" rx="2.24089" transform="rotate(-180 5.12073 79.7588)" fill="#F5F6FF"/>
<rect x="22.8809" y="79.7578" width="4.48179" height="13.4454" rx="2.24089" transform="rotate(-180 22.8809 79.7578)" fill="#F5F6FF"/>
<rect x="5.12073" y="66.3135" width="4.48179" height="13.2794" rx="2.24089" transform="rotate(-90 5.12073 66.3135)" fill="#F5F6FF"/>
<rect x="22.8809" y="61.8311" width="4.48179" height="8.96357" rx="2.24089" transform="rotate(-180 22.8809 61.8311)" fill="#F5F6FF"/>
<path d="M18.3987 68.5541C18.4651 66.6285 16.9325 66.2578 16.1578 66.3132L18.3987 64.0723C18.5979 65.9314 19.9757 66.3408 20.6396 66.3132L18.3987 68.5541Z" fill="#F5F6FF"/>
<path d="M18.3974 64.0716C18.331 62.1461 19.8636 61.7754 20.6382 61.8307L18.3974 59.5898C18.1982 61.449 16.8204 61.8584 16.1565 61.8307L18.3974 64.0716Z" fill="#F5F6FF"/>
<rect x="13.9169" y="66.3135" width="4.48179" height="4.48179" rx="2.24089" transform="rotate(-90 13.9169 66.3135)" fill="#F5F6FF"/>
<rect x="18.3989" y="61.8311" width="4.48179" height="4.48179" rx="2.24089" transform="rotate(-90 18.3989 61.8311)" fill="#F5F6FF"/>
<path fill-rule="evenodd" clip-rule="evenodd" d="M31.8463 77.5176C31.8463 76.2799 32.8495 75.2767 34.0872 75.2767C32.8495 75.2767 31.8463 74.2734 31.8463 73.0358C31.8463 74.2734 30.843 75.2767 29.6054 75.2767C30.843 75.2767 31.8463 76.2799 31.8463 77.5176Z" fill="#F5F6FF"/>
<path fill-rule="evenodd" clip-rule="evenodd" d="M49.9394 59.5904C49.9394 58.3528 50.9427 57.3495 52.1803 57.3495C50.9427 57.3495 49.9394 56.3463 49.9394 55.1086C49.9394 56.3463 48.9362 57.3495 47.6985 57.3495C48.9362 57.3495 49.9394 58.3528 49.9394 59.5904Z" fill="#F5F6FF"/>
<path fill-rule="evenodd" clip-rule="evenodd" d="M36.3281 59.5904C36.3281 58.3528 37.3313 57.3495 38.5689 57.3495C37.3313 57.3495 36.3281 56.3463 36.3281 55.1086C36.3281 56.3463 35.3248 57.3495 34.0872 57.3495C35.3248 57.3495 36.3281 58.3528 36.3281 59.5904Z" fill="#F5F6FF"/>
<rect x="54.4213" y="77.4346" width="4.48179" height="17.9271" transform="rotate(-180 54.4213 77.4346)" fill="#F5F6FF"/>
<rect x="36.3288" y="72.9521" width="4.48179" height="13.4454" transform="rotate(-180 36.3288 72.9521)" fill="#F5F6FF"/>
<rect x="47.6158" y="57.3496" width="9.12957" height="4.48179" transform="rotate(-180 47.6158 57.3496)" fill="#F5F6FF"/>
<circle cx="34.0879" cy="73.0355" r="2.24089" transform="rotate(-180 34.0879 73.0355)" fill="#F5F6FF"/>
<circle cx="47.6984" cy="55.1087" r="2.24089" transform="rotate(-180 47.6984 55.1087)" fill="#F5F6FF"/>
<circle cx="52.1803" cy="77.5179" r="2.24089" transform="rotate(-180 52.1803 77.5179)" fill="#F5F6FF"/>
<circle cx="52.1804" cy="59.5902" r="2.24089" transform="rotate(-180 52.1804 59.5902)" fill="#F5F6FF"/>
<circle cx="29.6058" cy="77.5179" r="2.24089" transform="rotate(-180 29.6058 77.5179)" fill="#F5F6FF"/>
<circle cx="34.0879" cy="59.5902" r="2.24089" transform="rotate(-180 34.0879 59.5902)" fill="#F5F6FF"/>
<circle cx="38.5698" cy="55.1087" r="2.24089" transform="rotate(-180 38.5698 55.1087)" fill="#F5F6FF"/>
<path d="M137.459 55.1091C137.459 53.8714 138.463 52.8682 139.7 52.8682H157.627C158.865 52.8682 159.868 53.8714 159.868 55.1091C159.868 56.3467 158.865 57.35 157.627 57.35H139.7C138.463 57.35 137.459 56.3467 137.459 55.1091Z" fill="#F5F6FF"/>
<path d="M135.218 75.2773C133.981 75.2773 132.977 74.2741 132.977 73.0365V59.5911C132.977 58.3535 133.981 57.3502 135.218 57.3502C136.456 57.3502 137.459 58.3535 137.459 59.5911V73.0365C137.459 74.2741 136.456 75.2773 135.218 75.2773Z" fill="#F5F6FF"/>
<path d="M162.251 75.2773C160.935 75.2773 159.868 74.2741 159.868 73.0365V59.5911C159.868 58.3535 160.935 57.3502 162.251 57.3502C163.567 57.3502 164.634 58.3535 164.634 59.5911V73.0365C164.634 74.2741 163.567 75.2773 162.251 75.2773Z" fill="#F5F6FF"/>
<path d="M137.459 77.5182C137.459 76.2806 138.463 75.2773 139.7 75.2773H157.627C158.865 75.2773 159.868 76.2806 159.868 77.5182C159.868 78.7558 158.865 79.7591 157.627 79.7591H139.7C138.463 79.7591 137.459 78.7558 137.459 77.5182Z" fill="#F5F6FF"/>
<path d="M159.87 59.5912C159.94 57.6657 158.31 57.2949 157.486 57.3503L159.87 55.1094C160.081 56.9685 161.547 57.3779 162.253 57.3503L159.87 59.5912Z" fill="#F5F6FF"/>
<path d="M137.435 77.5189C137.506 75.5934 135.876 75.2227 135.052 75.278L137.435 73.0371C137.647 74.8962 139.112 75.3057 139.818 75.278L137.435 77.5189Z" fill="#F5F6FF"/>
<path d="M159.891 77.5189C159.821 75.5934 161.451 75.2227 162.275 75.278L159.891 73.0371C159.68 74.8962 158.214 75.3057 157.508 75.278L159.891 77.5189Z" fill="#F5F6FF"/>
<path d="M137.518 59.5912C137.448 57.6657 139.078 57.2949 139.902 57.3503L137.518 55.1094C137.307 56.9685 135.841 57.3779 135.135 57.3503L137.518 59.5912Z" fill="#F5F6FF"/>
<path d="M49.8796 144.242C49.8796 143.004 50.8829 142.001 52.1205 142.001H70.0477C71.2853 142.001 72.2886 143.004 72.2886 144.242C72.2886 145.479 71.2853 146.483 70.0477 146.483H52.1205C50.8829 146.483 49.8796 145.479 49.8796 144.242Z" fill="#F5F6FF"/>
<path d="M47.6385 164.41C46.4009 164.41 45.3976 163.407 45.3976 162.169V148.724C45.3976 147.486 46.4009 146.483 47.6385 146.483C48.8761 146.483 49.8794 147.486 49.8794 148.724V162.169C49.8794 163.407 48.8761 164.41 47.6385 164.41Z" fill="#F5F6FF"/>
<path d="M74.6715 164.41C73.3553 164.41 72.2883 163.407 72.2883 162.169V148.724C72.2883 147.486 73.3553 146.483 74.6715 146.483C75.9877 146.483 77.0547 147.486 77.0547 148.724V162.169C77.0547 163.407 75.9877 164.41 74.6715 164.41Z" fill="#F5F6FF"/>
<path d="M49.8796 166.651C49.8796 165.413 50.8829 164.41 52.1205 164.41H70.0477C71.2853 164.41 72.2886 165.413 72.2886 166.651C72.2886 167.889 71.2853 168.892 70.0477 168.892H52.1205C50.8829 168.892 49.8796 167.889 49.8796 166.651Z" fill="#F5F6FF"/>
<path d="M72.2881 148.724C72.3588 146.798 70.7288 146.428 69.905 146.483L72.2881 144.242C72.5 146.101 73.9652 146.511 74.6713 146.483L72.2881 148.724Z" fill="#F5F6FF"/>
<path d="M49.8552 166.652C49.9258 164.726 48.2959 164.355 47.472 164.411L49.8552 162.17C50.0671 164.029 51.5323 164.438 52.2384 164.411L49.8552 166.652Z" fill="#F5F6FF"/>
<path d="M72.3118 166.652C72.2412 164.726 73.8711 164.355 74.6949 164.411L72.3118 162.17C72.0999 164.029 70.6347 164.438 69.9286 164.411L72.3118 166.652Z" fill="#F5F6FF"/>
<path d="M49.9387 148.724C49.8681 146.798 51.4981 146.428 52.3219 146.483L49.9387 144.242C49.7269 146.101 48.2617 146.511 47.5556 146.483L49.9387 148.724Z" fill="#F5F6FF"/>
<path d="M173.646 55.4411C173.646 54.2035 174.649 53.2002 175.887 53.2002H193.814C195.052 53.2002 196.055 54.2035 196.055 55.4411C196.055 56.6787 195.052 57.682 193.814 57.682H175.887C174.649 57.682 173.646 56.6787 173.646 55.4411Z" fill="#F5F6FF"/>
<path d="M171.405 80.0918C170.167 80.0918 169.164 78.8377 169.164 77.2907V60.484C169.164 58.937 170.167 57.6829 171.405 57.6829C172.643 57.6829 173.646 58.937 173.646 60.484V77.2907C173.646 78.8377 172.643 80.0918 171.405 80.0918Z" fill="#F5F6FF"/>
<path d="M198.462 80.0918C197.132 80.0918 196.055 78.8377 196.055 77.2907V60.484C196.055 58.937 197.132 57.6829 198.462 57.6829C199.791 57.6829 200.869 58.937 200.869 60.484V77.2907C200.869 78.8377 199.791 80.0918 198.462 80.0918Z" fill="#F5F6FF"/>
<path d="M196.056 59.9232C196.127 57.9977 194.497 57.627 193.673 57.6823L196.056 55.4414C196.268 57.3005 197.733 57.71 198.44 57.6823L196.056 59.9232Z" fill="#F5F6FF"/>
<path d="M173.646 59.9232C173.576 57.9977 175.206 57.627 176.029 57.6823L173.646 55.4414C173.434 57.3005 171.969 57.71 171.263 57.6823L173.646 59.9232Z" fill="#F5F6FF"/>
<path d="M245.189 55.4411C245.189 54.2035 246.192 53.2002 247.43 53.2002H265.357C266.595 53.2002 267.598 54.2035 267.598 55.4411C267.598 56.6787 266.595 57.682 265.357 57.682H247.43C246.192 57.682 245.189 56.6787 245.189 55.4411Z" fill="#F5F6FF"/>
<path d="M242.948 75.6094C241.71 75.6094 240.707 74.6061 240.707 73.3685V59.9231C240.707 58.6855 241.71 57.6822 242.948 57.6822C244.185 57.6822 245.189 58.6855 245.189 59.9231V73.3685C245.189 74.6061 244.185 75.6094 242.948 75.6094Z" fill="#F5F6FF"/>
<path d="M245.189 77.8503C245.189 76.6127 246.192 75.6094 247.43 75.6094H265.357C266.595 75.6094 267.598 76.6127 267.598 77.8503C267.598 79.0879 266.595 80.0912 265.357 80.0912H247.43C246.192 80.0912 245.189 79.0879 245.189 77.8503Z" fill="#F5F6FF"/>
<path d="M267.597 59.9232C267.668 57.9977 266.038 57.627 265.214 57.6823L267.597 55.4414C267.809 57.3005 269.274 57.71 269.981 57.6823L267.597 59.9232Z" fill="#F5F6FF"/>
<path d="M245.164 77.8509C245.235 75.9254 243.605 75.5547 242.781 75.61L245.164 73.3691C245.376 75.2283 246.841 75.6377 247.548 75.61L245.164 77.8509Z" fill="#F5F6FF"/>
<path d="M267.621 77.8509C267.55 75.9254 269.18 75.5547 270.004 75.61L267.621 73.3691C267.409 75.2283 265.944 75.6377 265.238 75.61L267.621 77.8509Z" fill="#F5F6FF"/>
<path d="M245.248 59.9232C245.177 57.9977 246.807 57.627 247.631 57.6823L245.248 55.4414C245.036 57.3005 243.571 57.71 242.865 57.6823L245.248 59.9232Z" fill="#F5F6FF"/>
<circle cx="269.838" cy="59.9222" r="2.24089" transform="rotate(-180 269.838 59.9222)" fill="#F5F6FF"/>
<circle cx="269.838" cy="73.3685" r="2.24089" transform="rotate(-180 269.838 73.3685)" fill="#F5F6FF"/>
<path d="M4.48077 99.7155C4.48077 98.4779 5.48406 97.4746 6.72167 97.4746H24.6488C25.8864 97.4746 26.8897 98.4779 26.8897 99.7155C26.8897 100.953 25.8864 101.956 24.6488 101.956H6.72167C5.48406 101.956 4.48077 100.953 4.48077 99.7155Z" fill="#F5F6FF"/>
<path d="M4.48077 113.161C4.48077 111.923 5.48406 110.92 6.72167 110.92H24.6488C25.8864 110.92 26.8897 111.923 26.8897 113.161C26.8897 114.398 25.8864 115.402 24.6488 115.402H6.72167C5.48406 115.402 4.48077 114.398 4.48077 113.161Z" fill="#F5F6FF"/>
<path d="M26.8894 104.198C26.96 102.272 25.33 101.901 24.5062 101.957L26.8894 99.7158C27.1012 101.575 28.5664 101.984 29.2726 101.957L26.8894 104.198Z" fill="#F5F6FF"/>
<path d="M4.45648 113.16C4.52709 111.235 2.89712 110.864 2.0733 110.92L4.45648 108.679C4.66831 110.538 6.13352 110.947 6.83965 110.92L4.45648 113.16Z" fill="#F5F6FF"/>
<path d="M24.648 110.92C26.5735 110.991 26.9442 109.361 26.8889 108.537L29.1298 110.92C27.2706 111.132 26.8612 112.597 26.8889 113.303L24.648 110.92Z" fill="#F5F6FF"/>
<path d="M4.53986 104.198C4.46925 102.272 6.09922 101.901 6.92303 101.957L4.53986 99.7158C4.32803 101.575 2.86282 101.984 2.15669 101.957L4.53986 104.198Z" fill="#F5F6FF"/>
<circle cx="29.1317" cy="104.198" r="2.24089" fill="#F5F6FF"/>
<circle cx="29.1317" cy="108.679" r="2.24089" fill="#F5F6FF"/>
<circle cx="2.24095" cy="108.679" r="2.24089" fill="#F5F6FF"/>
<circle cx="2.24095" cy="104.198" r="2.24089" fill="#F5F6FF"/>
<rect x="17.9265" y="124.365" width="4.48179" height="26.8907" rx="2.24089" transform="rotate(-180 17.9265 124.365)" fill="#F5F6FF"/>
<rect x="31.3725" y="110.92" width="4.48179" height="8.96357" rx="2.24089" transform="rotate(-180 31.3725 110.92)" fill="#F5F6FF"/>
<rect x="4.48175" y="110.92" width="4.48179" height="8.96357" rx="2.24089" transform="rotate(-180 4.48175 110.92)" fill="#F5F6FF"/>
<rect x="74.0338" y="119.884" width="17.9271" height="4.48179" fill="#F5F6FF"/>
<path fill-rule="evenodd" clip-rule="evenodd" d="M85.1549 122.125C85.1549 120.887 86.1582 119.884 87.3958 119.884C86.1582 119.884 85.1549 118.881 85.1549 117.643C85.1549 118.881 84.1517 119.884 82.914 119.884C84.1517 119.884 85.1549 120.887 85.1549 122.125Z" fill="#F5F6FF"/>
<path fill-rule="evenodd" clip-rule="evenodd" d="M89.6369 122.125C89.6369 120.887 90.6402 119.884 91.8778 119.884C90.6402 119.884 89.6369 118.881 89.6369 117.643C89.6369 118.881 88.6337 119.884 87.396 119.884C88.6337 119.884 89.6369 120.887 89.6369 122.125Z" fill="#F5F6FF"/>
<path fill-rule="evenodd" clip-rule="evenodd" d="M89.6386 126.606C89.6386 125.369 90.6418 124.366 91.8795 124.366C90.6418 124.366 89.6386 123.362 89.6386 122.125C89.6386 123.362 88.6353 124.366 87.3977 124.366C88.6353 124.366 89.6386 125.369 89.6386 126.606Z" fill="#F5F6FF"/>
<path fill-rule="evenodd" clip-rule="evenodd" d="M71.7089 122.125C71.7089 120.887 72.7122 119.884 73.9498 119.884C72.7122 119.884 71.7089 118.881 71.7089 117.643C71.7089 118.881 70.7057 119.884 69.468 119.884C70.7057 119.884 71.7089 120.887 71.7089 122.125Z" fill="#F5F6FF"/>
<rect x="89.6368" y="117.644" width="4.48179" height="17.9271" transform="rotate(-180 89.6368 117.644)" fill="#F5F6FF"/>
<rect x="94.1188" y="126.689" width="4.48179" height="4.48179" transform="rotate(-180 94.1188 126.689)" fill="#F5F6FF"/>
<rect x="71.7101" y="117.644" width="4.48179" height="17.9271" transform="rotate(-180 71.7101 117.644)" fill="#F5F6FF"/>
<circle cx="82.914" cy="122.125" r="2.24089" transform="rotate(-180 82.914 122.125)" fill="#F5F6FF"/>
<circle cx="73.9499" cy="122.125" r="2.24089" transform="rotate(-180 73.9499 122.125)" fill="#F5F6FF"/>
<circle cx="87.3959" cy="117.644" r="2.24089" transform="rotate(-180 87.3959 117.644)" fill="#F5F6FF"/>
<circle cx="69.4693" cy="117.644" r="2.24089" transform="rotate(-180 69.4693 117.644)" fill="#F5F6FF"/>
<circle cx="69.4693" cy="99.7152" r="2.24089" transform="rotate(-180 69.4693 99.7152)" fill="#F5F6FF"/>
<circle cx="87.3959" cy="99.7152" r="2.24089" transform="rotate(-180 87.3959 99.7152)" fill="#F5F6FF"/>
<circle cx="91.878" cy="126.773" r="2.24089" transform="rotate(-180 91.878 126.773)" fill="#F5F6FF"/>
<circle cx="91.8779" cy="122.125" r="2.24089" transform="rotate(-180 91.8779 122.125)" fill="#F5F6FF"/>
<rect x="181.761" y="119.884" width="36.0203" height="4.48179" fill="#F5F6FF"/>
<path fill-rule="evenodd" clip-rule="evenodd" d="M210.976 122.291C210.976 121.053 211.979 120.05 213.217 120.05C211.979 120.05 210.976 119.047 210.976 117.809C210.976 119.047 209.973 120.05 208.735 120.05C209.973 120.05 210.976 121.053 210.976 122.291Z" fill="#F5F6FF"/>
<path fill-rule="evenodd" clip-rule="evenodd" d="M215.458 122.291C215.458 121.053 216.462 120.05 217.699 120.05C216.462 120.05 215.458 119.047 215.458 117.809C215.458 119.047 214.455 120.05 213.217 120.05C214.455 120.05 215.458 121.053 215.458 122.291Z" fill="#F5F6FF"/>
<path fill-rule="evenodd" clip-rule="evenodd" d="M215.46 126.772C215.46 125.535 216.463 124.532 217.701 124.532C216.463 124.532 215.46 123.528 215.46 122.291C215.46 123.528 214.457 124.532 213.219 124.532C214.457 124.532 215.46 125.535 215.46 126.772Z" fill="#F5F6FF"/>
<path fill-rule="evenodd" clip-rule="evenodd" d="M179.606 122.124C179.606 120.886 180.609 119.883 181.847 119.883C180.609 119.883 179.606 118.88 179.606 117.642C179.606 118.88 178.602 119.883 177.365 119.883C178.602 119.883 179.606 120.886 179.606 122.124Z" fill="#F5F6FF"/>
<rect x="215.458" y="117.81" width="4.48179" height="17.9271" transform="rotate(-180 215.458 117.81)" fill="#F5F6FF"/>
<rect x="219.94" y="126.855" width="4.48179" height="4.48179" transform="rotate(-180 219.94 126.855)" fill="#F5F6FF"/>
<rect x="179.604" y="117.81" width="4.48179" height="17.9271" transform="rotate(-180 179.604 117.81)" fill="#F5F6FF"/>
<rect x="197.532" y="117.809" width="4.48179" height="17.9271" transform="rotate(-180 197.532 117.809)" fill="#F5F6FF"/>
<circle cx="208.735" cy="122.29" r="2.24089" transform="rotate(-180 208.735 122.29)" fill="#F5F6FF"/>
<circle cx="181.845" cy="122.124" r="2.24089" transform="rotate(-180 181.845 122.124)" fill="#F5F6FF"/>
<circle cx="213.217" cy="117.809" r="2.24089" transform="rotate(-180 213.217 117.809)" fill="#F5F6FF"/>
<circle cx="177.363" cy="117.643" r="2.24089" transform="rotate(-180 177.363 117.643)" fill="#F5F6FF"/>
<circle cx="177.363" cy="99.8812" r="2.24089" transform="rotate(-180 177.363 99.8812)" fill="#F5F6FF"/>
<circle cx="195.291" cy="99.8812" r="2.24089" transform="rotate(-180 195.291 99.8812)" fill="#F5F6FF"/>
<circle cx="213.217" cy="99.8812" r="2.24089" transform="rotate(-180 213.217 99.8812)" fill="#F5F6FF"/>
<circle cx="195.291" cy="117.809" r="2.24089" transform="rotate(-180 195.291 117.809)" fill="#F5F6FF"/>
<circle cx="217.7" cy="126.938" r="2.24089" transform="rotate(-180 217.7 126.938)" fill="#F5F6FF"/>
<circle cx="217.699" cy="122.29" r="2.24089" transform="rotate(-180 217.699 122.29)" fill="#F5F6FF"/>
<rect x="132.627" y="119.884" width="31.3725" height="4.48179" fill="#F5F6FF"/>
<path fill-rule="evenodd" clip-rule="evenodd" d="M148.23 122.126C148.23 120.888 149.233 119.885 150.471 119.885C149.233 119.885 148.23 118.882 148.23 117.644C148.23 118.882 147.227 119.885 145.989 119.885C147.227 119.885 148.23 120.888 148.23 122.126Z" fill="#F5F6FF"/>
<path fill-rule="evenodd" clip-rule="evenodd" d="M130.303 122.124C130.303 120.886 131.307 119.883 132.544 119.883C131.307 119.883 130.303 118.88 130.303 117.642C130.303 118.88 129.3 119.883 128.063 119.883C129.3 119.883 130.303 120.886 130.303 122.124Z" fill="#F5F6FF"/>
<rect x="166.158" y="121.876" width="4.48179" height="22.2429" transform="rotate(-180 166.158 121.876)" fill="#F5F6FF"/>
<rect x="130.304" y="117.643" width="4.48179" height="17.9271" transform="rotate(-180 130.304 117.643)" fill="#F5F6FF"/>
<rect x="148.23" y="117.643" width="4.48179" height="17.9271" transform="rotate(-180 148.23 117.643)" fill="#F5F6FF"/>
<circle cx="132.544" cy="122.124" r="2.24089" transform="rotate(-180 132.544 122.124)" fill="#F5F6FF"/>
<circle cx="163.917" cy="117.643" r="2.24089" transform="rotate(-180 163.917 117.643)" fill="#F5F6FF"/>
<circle cx="128.063" cy="117.643" r="2.24089" transform="rotate(-180 128.063 117.643)" fill="#F5F6FF"/>
<circle cx="128.063" cy="99.7152" r="2.24089" transform="rotate(-180 128.063 99.7152)" fill="#F5F6FF"/>
<circle cx="145.989" cy="99.7152" r="2.24089" transform="rotate(-180 145.989 99.7152)" fill="#F5F6FF"/>
<circle cx="163.917" cy="99.7152" r="2.24089" transform="rotate(-180 163.917 99.7152)" fill="#F5F6FF"/>
<circle cx="145.989" cy="117.643" r="2.24089" transform="rotate(-180 145.989 117.643)" fill="#F5F6FF"/>
<circle cx="163.917" cy="122.125" r="2.24089" fill="#F5F6FF"/>
<path fill-rule="evenodd" clip-rule="evenodd" d="M159.52 119.882C160.757 119.883 161.76 120.886 161.76 122.123C161.76 120.886 162.764 119.882 164.001 119.882C162.764 119.882 161.76 118.879 161.76 117.642C161.76 118.879 160.757 119.882 159.52 119.882Z" fill="#F5F6FF"/>
<rect x="289.84" y="77.7686" width="4.48179" height="17.9271" transform="rotate(-180 289.84 77.7686)" fill="#F5F6FF"/>
<circle cx="287.599" cy="77.8509" r="2.24089" transform="rotate(-180 287.599 77.8509)" fill="#F5F6FF"/>
<circle cx="287.599" cy="59.9251" r="2.24089" transform="rotate(-180 287.599 59.9251)" fill="#F5F6FF"/>
<rect x="278.72" y="57.5156" width="4.48179" height="17.9271" transform="rotate(-90 278.72 57.5156)" fill="#F5F6FF"/>
<circle cx="278.636" cy="55.2747" r="2.24089" transform="rotate(-90 278.636 55.2747)" fill="#F5F6FF"/>
<circle cx="296.564" cy="55.2747" r="2.24089" transform="rotate(-90 296.564 55.2747)" fill="#F5F6FF"/>
<path d="M27.3035 144.242C27.3035 143.004 26.3002 142.001 25.0626 142.001H7.13543C5.89782 142.001 4.89453 143.004 4.89453 144.242C4.89453 145.479 5.89782 146.483 7.13543 146.483H25.0626C26.3002 146.483 27.3035 145.479 27.3035 144.242Z" fill="#F5F6FF"/>
<path d="M29.5446 164.41C30.7822 164.41 31.7855 163.407 31.7855 162.169V148.724C31.7855 147.486 30.7822 146.483 29.5446 146.483C28.307 146.483 27.3037 147.486 27.3037 148.724V162.169C27.3037 163.407 28.307 164.41 29.5446 164.41Z" fill="#F5F6FF"/>
<path d="M27.3035 166.651C27.3035 165.413 26.3002 164.41 25.0626 164.41H7.13543C5.89782 164.41 4.89453 165.413 4.89453 166.651C4.89453 167.889 5.89782 168.892 7.13543 168.892H25.0626C26.3002 168.892 27.3035 167.889 27.3035 166.651Z" fill="#F5F6FF"/>
<path d="M4.8949 148.724C4.82429 146.798 6.45426 146.428 7.27808 146.483L4.8949 144.242C4.68307 146.101 3.21786 146.511 2.51173 146.483L4.8949 148.724Z" fill="#F5F6FF"/>
<path d="M27.2338 153.205C27.1632 151.28 28.7932 150.909 29.617 150.965L27.2338 148.724C27.022 150.583 25.5568 150.992 24.8507 150.965L27.2338 153.205Z" fill="#F5F6FF"/>
<path d="M27.3278 166.652C27.2572 164.726 28.8872 164.355 29.711 164.411L27.3278 162.17C27.116 164.029 25.6508 164.438 24.9447 164.411L27.3278 166.652Z" fill="#F5F6FF"/>
<path d="M4.87127 166.652C4.94188 164.726 3.31191 164.355 2.4881 164.411L4.87127 162.17C5.08311 164.029 6.54832 164.438 7.25444 164.411L4.87127 166.652Z" fill="#F5F6FF"/>
<path d="M27.2443 148.724C27.3149 146.798 25.685 146.428 24.8611 146.483L27.2443 144.242C27.4562 146.101 28.9214 146.511 29.6275 146.483L27.2443 148.724Z" fill="#F5F6FF"/>
<path d="M27.3035 157.688C27.3741 155.762 25.7442 155.391 24.9204 155.447L27.3035 153.206C27.5154 155.065 28.9806 155.474 29.6867 155.447L27.3035 157.688Z" fill="#F5F6FF"/>
<circle r="2.24089" transform="matrix(1 -8.74228e-08 -8.74228e-08 -1 2.65355 148.723)" fill="#F5F6FF"/>
<circle r="2.24089" transform="matrix(1 -8.74228e-08 -8.74228e-08 -1 11.6177 153.205)" fill="#F5F6FF"/>
<circle r="2.24089" transform="matrix(1 -8.74228e-08 -8.74228e-08 -1 2.65355 162.169)" fill="#F5F6FF"/>
<rect width="15.6033" height="4.48179" transform="matrix(-1 0 0 1 27.3035 150.964)" fill="#F5F6FF"/>
<ellipse cx="38.6698" cy="144.236" rx="2.27166" ry="2.06514" fill="#F5F6FF"/>
<path fill-rule="evenodd" clip-rule="evenodd" d="M10.7403 193.503C10.7403 192.248 11.7573 191.231 13.012 191.231C11.7573 191.231 10.7403 190.214 10.7403 188.96C10.7403 190.214 9.72329 191.231 8.46866 191.231C9.72329 191.231 10.7403 192.248 10.7403 193.503Z" fill="#F5F6FF"/>
<path fill-rule="evenodd" clip-rule="evenodd" d="M6.19545 193.503C6.19545 192.248 7.21247 191.231 8.4671 191.231C7.21247 191.231 6.19546 190.214 6.19546 188.96C6.19546 190.214 5.17843 191.231 3.9238 191.231C5.17843 191.231 6.19545 192.248 6.19545 193.503Z" fill="#F5F6FF"/>
<rect x="15.2822" y="211.593" width="4.5433" height="18.1732" transform="rotate(-180 15.2822 211.593)" fill="#F5F6FF"/>
<circle cx="13.0106" cy="211.677" r="2.27165" transform="rotate(-180 13.0106 211.677)" fill="#F5F6FF"/>
<circle cx="13.0106" cy="193.502" r="2.27165" transform="rotate(-180 13.0106 193.502)" fill="#F5F6FF"/>
<circle cx="8.46553" cy="188.96" r="2.27165" transform="rotate(-180 8.46553 188.96)" fill="#F5F6FF"/>
<circle cx="3.92372" cy="193.504" r="2.27165" transform="rotate(-180 3.92372 193.504)" fill="#F5F6FF"/>
<path fill-rule="evenodd" clip-rule="evenodd" d="M207.34 193.503C207.34 192.248 208.357 191.231 209.612 191.231C208.357 191.231 207.34 190.214 207.34 188.96C207.34 190.214 206.323 191.231 205.069 191.231C206.323 191.231 207.34 192.248 207.34 193.503Z" fill="#F5F6FF"/>
<path fill-rule="evenodd" clip-rule="evenodd" d="M202.797 207.134C202.797 205.879 203.814 204.862 205.069 204.862C203.814 204.862 202.797 203.845 202.797 202.59C202.797 203.845 201.78 204.862 200.525 204.862C201.78 204.862 202.797 205.879 202.797 207.134Z" fill="#F5F6FF"/>
<path fill-rule="evenodd" clip-rule="evenodd" d="M207.34 198.047C207.34 196.792 208.357 195.775 209.612 195.775C208.357 195.775 207.34 194.758 207.34 193.504C207.34 194.758 206.323 195.775 205.069 195.775C206.323 195.775 207.34 196.792 207.34 198.047Z" fill="#F5F6FF"/>
<path fill-rule="evenodd" clip-rule="evenodd" d="M193.71 193.503C193.71 192.248 194.727 191.231 195.982 191.231C194.727 191.231 193.71 190.214 193.71 188.96C193.71 190.214 192.693 191.231 191.439 191.231C192.693 191.231 193.71 192.248 193.71 193.503Z" fill="#F5F6FF"/>
<rect x="207.339" y="202.677" width="4.5433" height="4.71157" transform="rotate(-180 207.339 202.677)" fill="#F5F6FF"/>
<rect x="202.797" y="211.761" width="4.5433" height="4.5433" transform="rotate(-180 202.797 211.761)" fill="#F5F6FF"/>
<rect x="196.066" y="191.231" width="4.5433" height="9.25488" transform="rotate(-90 196.066 191.231)" fill="#F5F6FF"/>
<circle cx="205.067" cy="202.592" r="2.27165" transform="rotate(-180 205.067 202.592)" fill="#F5F6FF"/>
<circle cx="200.525" cy="211.677" r="2.27165" transform="rotate(-180 200.525 211.677)" fill="#F5F6FF"/>
<circle cx="209.612" cy="193.502" r="2.27165" transform="rotate(-180 209.612 193.502)" fill="#F5F6FF"/>
<circle cx="205.069" cy="198.047" r="2.27165" transform="rotate(-180 205.069 198.047)" fill="#F5F6FF"/>
<circle cx="200.525" cy="207.134" r="2.27165" transform="rotate(-180 200.525 207.134)" fill="#F5F6FF"/>
<circle cx="205.067" cy="188.96" r="2.27165" transform="rotate(-180 205.067 188.96)" fill="#F5F6FF"/>
<circle cx="195.98" cy="188.96" r="2.27165" transform="rotate(-180 195.98 188.96)" fill="#F5F6FF"/>
<circle cx="191.439" cy="193.504" r="2.27165" transform="rotate(-180 191.439 193.504)" fill="#F5F6FF"/>
<path fill-rule="evenodd" clip-rule="evenodd" d="M111.517 198.047C111.517 196.792 112.534 195.775 113.789 195.775C112.534 195.775 111.517 194.758 111.517 193.503C111.517 194.758 110.5 195.775 109.246 195.775C110.5 195.775 111.517 196.792 111.517 198.047Z" fill="#F5F6FF"/>
<path fill-rule="evenodd" clip-rule="evenodd" d="M111.517 202.59C111.517 201.335 112.534 200.318 113.789 200.318C112.534 200.318 111.517 199.301 111.517 198.047C111.517 199.301 110.5 200.318 109.246 200.318C110.5 200.318 111.517 201.335 111.517 202.59Z" fill="#F5F6FF"/>
<path fill-rule="evenodd" clip-rule="evenodd" d="M93.3444 198.047C93.3444 196.792 94.3615 195.775 95.6161 195.775C94.3615 195.775 93.3444 194.758 93.3444 193.504C93.3444 194.758 92.3274 195.775 91.0728 195.775C92.3274 195.775 93.3444 196.792 93.3444 198.047Z" fill="#F5F6FF"/>
<rect x="93.3444" y="193.42" width="4.5433" height="4.5433" transform="rotate(-180 93.3444 193.42)" fill="#F5F6FF"/>
<rect x="116.059" y="211.593" width="4.5433" height="22.5482" transform="rotate(-180 116.059 211.593)" fill="#F5F6FF"/>
<rect x="93.3444" y="200.318" width="4.5433" height="18.1732" rx="2.27165" transform="rotate(-90 93.3444 200.318)" fill="#F5F6FF"/>
<circle cx="113.788" cy="211.509" r="2.27165" transform="rotate(-180 113.788 211.509)" fill="#F5F6FF"/>
<circle cx="91.0727" cy="188.96" r="2.27165" transform="rotate(-180 91.0727 188.96)" fill="#F5F6FF"/>
<circle cx="91.0727" cy="193.504" r="2.27165" transform="rotate(-180 91.0727 193.504)" fill="#F5F6FF"/>
<circle cx="113.788" cy="188.96" r="2.27165" transform="rotate(-180 113.788 188.96)" fill="#F5F6FF"/>
<path fill-rule="evenodd" clip-rule="evenodd" d="M161.083 193.503C161.083 192.248 162.1 191.231 163.354 191.231C162.1 191.231 161.083 190.214 161.083 188.96C161.083 190.214 160.066 191.231 158.811 191.231C160.066 191.231 161.083 192.248 161.083 193.503Z" fill="#F5F6FF"/>
<path fill-rule="evenodd" clip-rule="evenodd" d="M179.254 211.677C179.254 210.422 180.271 209.405 181.526 209.405C180.271 209.405 179.254 208.388 179.254 207.133C179.254 208.388 178.237 209.405 176.982 209.405C178.237 209.405 179.254 210.422 179.254 211.677Z" fill="#F5F6FF"/>
<path fill-rule="evenodd" clip-rule="evenodd" d="M161.083 211.677C161.083 210.422 162.1 209.405 163.354 209.405C162.1 209.405 161.083 208.388 161.083 207.133C161.083 208.388 160.066 209.405 158.811 209.405C160.066 209.405 161.083 210.422 161.083 211.677Z" fill="#F5F6FF"/>
<path fill-rule="evenodd" clip-rule="evenodd" d="M179.254 207.134C179.254 205.879 180.271 204.862 181.526 204.862C180.271 204.862 179.254 203.845 179.254 202.59C179.254 203.845 178.237 204.862 176.982 204.862C178.237 204.862 179.254 205.879 179.254 207.134Z" fill="#F5F6FF"/>
<path fill-rule="evenodd" clip-rule="evenodd" d="M179.254 202.59C179.254 201.335 180.271 200.318 181.526 200.318C180.271 200.318 179.254 199.301 179.254 198.047C179.254 199.301 178.237 200.318 176.982 200.318C178.237 200.318 179.254 201.335 179.254 202.59Z" fill="#F5F6FF"/>
<path fill-rule="evenodd" clip-rule="evenodd" d="M161.083 207.134C161.083 205.879 162.1 204.862 163.354 204.862C162.1 204.862 161.083 203.845 161.083 202.59C161.083 203.845 160.066 204.862 158.811 204.862C160.066 204.862 161.083 205.879 161.083 207.134Z" fill="#F5F6FF"/>
<path fill-rule="evenodd" clip-rule="evenodd" d="M179.254 193.503C179.254 192.248 180.271 191.231 181.526 191.231C180.271 191.231 179.254 190.214 179.254 188.96C179.254 190.214 178.237 191.231 176.982 191.231C178.237 191.231 179.254 192.248 179.254 193.503Z" fill="#F5F6FF"/>
<rect x="183.796" y="207.386" width="4.5433" height="13.7982" transform="rotate(-180 183.796 207.386)" fill="#F5F6FF"/>
<rect x="161.081" y="191.231" width="4.5433" height="18.1732" rx="2.27165" transform="rotate(-90 161.081 191.231)" fill="#F5F6FF"/>
<rect x="161.081" y="213.948" width="4.5433" height="18.1732" rx="2.27165" transform="rotate(-90 161.081 213.948)" fill="#F5F6FF"/>
<rect x="156.538" y="204.861" width="4.5433" height="26.2502" rx="2.27165" transform="rotate(-90 156.538 204.861)" fill="#F5F6FF"/>
<rect x="156.538" y="200.318" width="4.5433" height="9.08661" rx="2.27165" fill="#F5F6FF"/>
<circle cx="181.524" cy="207.134" r="2.27165" transform="rotate(-180 181.524 207.134)" fill="#F5F6FF"/>
<circle cx="158.81" cy="193.504" r="2.27165" transform="rotate(-180 158.81 193.504)" fill="#F5F6FF"/>
<circle cx="181.524" cy="193.504" r="2.27165" transform="rotate(-180 181.524 193.504)" fill="#F5F6FF"/>
<path fill-rule="evenodd" clip-rule="evenodd" d="M59.4761 193.503C59.4761 192.248 60.4931 191.231 61.7477 191.231C60.4931 191.231 59.4761 190.214 59.4761 188.96C59.4761 190.214 58.4591 191.231 57.2044 191.231C58.4591 191.231 59.4761 192.248 59.4761 193.503Z" fill="#F5F6FF"/>
<path fill-rule="evenodd" clip-rule="evenodd" d="M77.6489 211.677C77.6489 210.422 78.666 209.405 79.9206 209.405C78.666 209.405 77.6489 208.388 77.6489 207.133C77.6489 208.388 76.6319 209.405 75.3773 209.405C76.6319 209.405 77.6489 210.422 77.6489 211.677Z" fill="#F5F6FF"/>
<path fill-rule="evenodd" clip-rule="evenodd" d="M59.4761 211.677C59.4761 210.422 60.4931 209.405 61.7477 209.405C60.4931 209.405 59.4761 208.388 59.4761 207.133C59.4761 208.388 58.4591 209.405 57.2044 209.405C58.4591 209.405 59.4761 210.422 59.4761 211.677Z" fill="#F5F6FF"/>
<path fill-rule="evenodd" clip-rule="evenodd" d="M77.6489 202.59C77.6489 201.335 78.666 200.318 79.9206 200.318C78.666 200.318 77.6489 199.301 77.6489 198.047C77.6489 199.301 76.6319 200.318 75.3773 200.318C76.6319 200.318 77.6489 201.335 77.6489 202.59Z" fill="#F5F6FF"/>
<path fill-rule="evenodd" clip-rule="evenodd" d="M77.6489 198.047C77.6489 196.792 78.666 195.775 79.9206 195.775C78.666 195.775 77.6489 194.758 77.6489 193.504C77.6489 194.758 76.6319 195.775 75.3773 195.775C76.6319 195.775 77.6489 196.792 77.6489 198.047Z" fill="#F5F6FF"/>
<path fill-rule="evenodd" clip-rule="evenodd" d="M77.6489 193.503C77.6489 192.248 78.666 191.231 79.9206 191.231C78.666 191.231 77.6489 190.214 77.6489 188.96C77.6489 190.214 76.6319 191.231 75.3773 191.231C76.6319 191.231 77.6489 192.248 77.6489 193.503Z" fill="#F5F6FF"/>
<rect x="59.476" y="191.231" width="4.5433" height="18.1732" rx="2.27165" transform="rotate(-90 59.476 191.231)" fill="#F5F6FF"/>
<rect x="59.476" y="213.948" width="4.5433" height="18.1732" rx="2.27165" transform="rotate(-90 59.476 213.948)" fill="#F5F6FF"/>
<rect x="64.0178" y="200.318" width="4.5433" height="13.6299" rx="2.27165" transform="rotate(-90 64.0178 200.318)" fill="#F5F6FF"/>
<rect x="77.6493" y="200.318" width="4.5433" height="9.08661" rx="2.27165" fill="#F5F6FF"/>
<circle cx="57.2044" cy="193.504" r="2.27165" transform="rotate(-180 57.2044 193.504)" fill="#F5F6FF"/>
<circle cx="57.2044" cy="207.134" r="2.27165" transform="rotate(-180 57.2044 207.134)" fill="#F5F6FF"/>
<circle cx="79.9194" cy="193.504" r="2.27165" transform="rotate(-180 79.9194 193.504)" fill="#F5F6FF"/>
<path fill-rule="evenodd" clip-rule="evenodd" d="M44.6068 211.677C44.6068 210.422 45.6238 209.405 46.8785 209.405C45.6238 209.405 44.6068 208.388 44.6068 207.133C44.6068 208.388 43.5898 209.405 42.3352 209.405C43.5898 209.405 44.6068 210.422 44.6068 211.677Z" fill="#F5F6FF"/>
<path fill-rule="evenodd" clip-rule="evenodd" d="M26.4354 202.59C26.4354 201.335 27.4524 200.318 28.707 200.318C27.4524 200.318 26.4354 199.301 26.4354 198.047C26.4354 199.301 25.4184 200.318 24.1637 200.318C25.4184 200.318 26.4354 201.335 26.4354 202.59Z" fill="#F5F6FF"/>
<path fill-rule="evenodd" clip-rule="evenodd" d="M26.4354 211.677C26.4354 210.422 27.4524 209.405 28.707 209.405C27.4524 209.405 26.4354 208.388 26.4354 207.133C26.4354 208.388 25.4184 209.405 24.1637 209.405C25.4184 209.405 26.4354 210.422 26.4354 211.677Z" fill="#F5F6FF"/>
<path fill-rule="evenodd" clip-rule="evenodd" d="M44.6068 198.047C44.6068 196.792 45.6238 195.775 46.8785 195.775C45.6238 195.775 44.6068 194.758 44.6068 193.504C44.6068 194.758 43.5898 195.775 42.3352 195.775C43.5898 195.775 44.6068 196.792 44.6068 198.047Z" fill="#F5F6FF"/>
<path fill-rule="evenodd" clip-rule="evenodd" d="M44.6068 193.503C44.6068 192.248 45.6238 191.231 46.8785 191.231C45.6238 191.231 44.6068 190.214 44.6068 188.96C44.6068 190.214 43.5898 191.231 42.3352 191.231C43.5898 191.231 44.6068 192.248 44.6068 193.503Z" fill="#F5F6FF"/>
<rect x="26.4338" y="191.231" width="4.5433" height="18.1732" rx="2.27165" transform="rotate(-90 26.4338 191.231)" fill="#F5F6FF"/>
<rect x="26.4338" y="213.948" width="4.5433" height="18.1732" rx="2.27165" transform="rotate(-90 26.4338 213.948)" fill="#F5F6FF"/>
<rect x="26.4338" y="200.318" width="4.5433" height="18.1732" rx="2.27165" transform="rotate(-90 26.4338 200.318)" fill="#F5F6FF"/>
<rect x="21.8904" y="200.318" width="4.5433" height="9.08661" rx="2.27165" fill="#F5F6FF"/>
<circle cx="24.1622" cy="207.134" r="2.27165" transform="rotate(-180 24.1622 207.134)" fill="#F5F6FF"/>
<circle cx="46.877" cy="207.134" r="2.27165" transform="rotate(-180 46.877 207.134)" fill="#F5F6FF"/>
<circle cx="46.877" cy="193.504" r="2.27165" transform="rotate(-180 46.877 193.504)" fill="#F5F6FF"/>
<path fill-rule="evenodd" clip-rule="evenodd" d="M127.211 211.677C127.211 210.422 126.194 209.405 124.94 209.405C126.194 209.405 127.211 208.388 127.211 207.133C127.211 208.388 128.228 209.405 129.483 209.405C128.228 209.405 127.211 210.422 127.211 211.677Z" fill="#F5F6FF"/>
<path fill-rule="evenodd" clip-rule="evenodd" d="M145.383 202.59C145.383 201.335 144.366 200.318 143.111 200.318C144.366 200.318 145.383 199.301 145.383 198.047C145.383 199.301 146.4 200.318 147.654 200.318C146.4 200.318 145.383 201.335 145.383 202.59Z" fill="#F5F6FF"/>
<path fill-rule="evenodd" clip-rule="evenodd" d="M145.383 211.677C145.383 210.422 144.366 209.405 143.111 209.405C144.366 209.405 145.383 208.388 145.383 207.133C145.383 208.388 146.4 209.405 147.654 209.405C146.4 209.405 145.383 210.422 145.383 211.677Z" fill="#F5F6FF"/>
<path fill-rule="evenodd" clip-rule="evenodd" d="M127.211 198.047C127.211 196.792 126.194 195.775 124.94 195.775C126.194 195.775 127.211 194.758 127.211 193.504C127.211 194.758 128.228 195.775 129.483 195.775C128.228 195.775 127.211 196.792 127.211 198.047Z" fill="#F5F6FF"/>
<path fill-rule="evenodd" clip-rule="evenodd" d="M127.211 193.503C127.211 192.248 126.194 191.231 124.94 191.231C126.194 191.231 127.211 190.214 127.211 188.96C127.211 190.214 128.228 191.231 129.483 191.231C128.228 191.231 127.211 192.248 127.211 193.503Z" fill="#F5F6FF"/>
<rect width="4.5433" height="18.1732" rx="2.27165" transform="matrix(0 -1 -1 0 145.384 191.231)" fill="#F5F6FF"/>
<rect width="4.5433" height="18.1732" rx="2.27165" transform="matrix(0 -1 -1 0 145.384 213.948)" fill="#F5F6FF"/>
<rect width="4.5433" height="18.1732" rx="2.27165" transform="matrix(0 -1 -1 0 145.384 200.318)" fill="#F5F6FF"/>
<rect width="4.5433" height="9.08661" rx="2.27165" transform="matrix(-1 0 0 1 149.928 200.318)" fill="#F5F6FF"/>
<circle r="2.27165" transform="matrix(1 -8.74228e-08 -8.74228e-08 -1 147.656 207.134)" fill="#F5F6FF"/>
<circle r="2.27165" transform="matrix(1 -8.74228e-08 -8.74228e-08 -1 124.941 207.134)" fill="#F5F6FF"/>
<circle r="2.27165" transform="matrix(1 -8.74228e-08 -8.74228e-08 -1 124.941 193.504)" fill="#F5F6FF"/>
<path fill-rule="evenodd" clip-rule="evenodd" d="M256.081 207.301C256.081 208.555 257.098 209.572 258.353 209.572C257.098 209.572 256.081 210.589 256.081 211.844C256.081 210.589 255.064 209.572 253.809 209.572C255.064 209.572 256.081 208.555 256.081 207.301Z" fill="#F5F6FF"/>
<path fill-rule="evenodd" clip-rule="evenodd" d="M274.252 189.127C274.252 190.382 275.269 191.399 276.524 191.399C275.269 191.399 274.252 192.416 274.252 193.67C274.252 192.416 273.235 191.399 271.981 191.399C273.235 191.399 274.252 190.382 274.252 189.127Z" fill="#F5F6FF"/>
<path fill-rule="evenodd" clip-rule="evenodd" d="M256.081 189.128C256.081 190.383 257.098 191.4 258.353 191.4C257.098 191.4 256.081 192.417 256.081 193.671C256.081 192.417 255.064 191.4 253.809 191.4C255.064 191.4 256.081 190.383 256.081 189.128Z" fill="#F5F6FF"/>
<path fill-rule="evenodd" clip-rule="evenodd" d="M274.252 193.671C274.252 194.926 275.269 195.943 276.524 195.943C275.269 195.943 274.252 196.96 274.252 198.214C274.252 196.96 273.235 195.943 271.981 195.943C273.235 195.943 274.252 194.926 274.252 193.671Z" fill="#F5F6FF"/>
<path fill-rule="evenodd" clip-rule="evenodd" d="M274.252 198.214C274.252 199.469 275.269 200.486 276.524 200.486C275.269 200.486 274.252 201.503 274.252 202.757C274.252 201.503 273.235 200.486 271.981 200.486C273.235 200.486 274.252 199.469 274.252 198.214Z" fill="#F5F6FF"/>
<path fill-rule="evenodd" clip-rule="evenodd" d="M256.081 193.671C256.081 194.926 257.098 195.943 258.353 195.943C257.098 195.943 256.081 196.96 256.081 198.214C256.081 196.96 255.064 195.943 253.809 195.943C255.064 195.943 256.081 194.926 256.081 193.671Z" fill="#F5F6FF"/>
<path fill-rule="evenodd" clip-rule="evenodd" d="M274.252 207.301C274.252 208.555 275.269 209.572 276.524 209.572C275.269 209.572 274.252 210.589 274.252 211.844C274.252 210.589 273.235 209.572 271.981 209.572C273.235 209.572 274.252 208.555 274.252 207.301Z" fill="#F5F6FF"/>
<rect width="4.5433" height="13.7982" transform="matrix(-1 8.74228e-08 8.74228e-08 1 278.794 193.419)" fill="#F5F6FF"/>
<rect width="4.5433" height="18.1732" rx="2.27165" transform="matrix(0 1 1 0 256.079 209.573)" fill="#F5F6FF"/>
<rect width="4.5433" height="18.1732" rx="2.27165" transform="matrix(0 1 1 0 256.079 186.856)" fill="#F5F6FF"/>
<rect width="4.5433" height="26.2502" rx="2.27165" transform="matrix(0 1 1 0 251.536 195.943)" fill="#F5F6FF"/>
<rect width="4.5433" height="9.08661" rx="2.27165" transform="matrix(1 0 0 -1 251.536 200.486)" fill="#F5F6FF"/>
<circle r="2.27165" transform="matrix(-1 8.74228e-08 8.74228e-08 1 276.523 193.671)" fill="#F5F6FF"/>
<circle r="2.27165" transform="matrix(-1 8.74228e-08 8.74228e-08 1 253.808 207.301)" fill="#F5F6FF"/>
<circle r="2.27165" transform="matrix(-1 8.74228e-08 8.74228e-08 1 276.523 207.301)" fill="#F5F6FF"/>
<rect x="288.707" y="191.231" width="4.5433" height="18.1732" rx="2.27165" transform="rotate(-90 288.707 191.231)" fill="#F5F6FF"/>
<rect x="288.707" y="204.861" width="4.5433" height="9.08661" rx="2.27165" transform="rotate(-90 288.707 204.861)" fill="#F5F6FF"/>
<rect x="297.794" y="200.318" width="4.5433" height="9.08661" rx="2.27165" transform="rotate(-90 297.794 200.318)" fill="#F5F6FF"/>
<rect x="288.707" y="213.948" width="4.5433" height="18.1732" rx="2.27165" transform="rotate(-90 288.707 213.948)" fill="#F5F6FF"/>
<path d="M286.435 209.405C285.181 209.405 284.163 208.388 284.163 207.134V193.504C284.163 192.249 285.181 191.232 286.435 191.232C287.69 191.232 288.707 192.249 288.707 193.504V207.134C288.707 208.388 287.69 209.405 286.435 209.405Z" fill="#F5F6FF"/>
<path d="M309.296 209.405C307.962 209.405 306.88 208.388 306.88 207.134V193.504C306.88 192.249 307.962 191.232 309.296 191.232C310.63 191.232 311.712 192.249 311.712 193.504V207.134C311.712 208.388 310.63 209.405 309.296 209.405Z" fill="#F5F6FF"/>
<path d="M306.881 193.503C306.952 191.551 305.3 191.176 304.465 191.232L306.881 188.96C307.095 190.845 308.581 191.26 309.296 191.232L306.881 193.503Z" fill="#F5F6FF"/>
<path d="M297.794 202.59C297.723 200.638 299.375 200.262 300.21 200.319L297.794 198.047C297.58 199.932 296.094 200.347 295.378 200.319L297.794 202.59Z" fill="#F5F6FF"/>
<path d="M306.904 198.047C306.832 196.095 308.484 195.719 309.319 195.776L306.904 193.504C306.689 195.389 305.204 195.804 304.488 195.776L306.904 198.047Z" fill="#F5F6FF"/>
<path d="M288.708 207.134C288.636 205.182 290.289 204.806 291.124 204.862L288.708 202.591C288.493 204.475 287.008 204.891 286.292 204.862L288.708 207.134Z" fill="#F5F6FF"/>
<path d="M288.682 211.676C288.753 209.724 287.101 209.348 286.266 209.404L288.682 207.133C288.896 209.017 290.382 209.433 291.097 209.404L288.682 211.676Z" fill="#F5F6FF"/>
<path d="M306.878 211.676C306.806 209.724 308.459 209.348 309.294 209.404L306.878 207.133C306.663 209.017 305.178 209.433 304.462 209.404L306.878 211.676Z" fill="#F5F6FF"/>
<path d="M288.708 193.503C288.636 191.551 290.289 191.176 291.124 191.232L288.708 188.96C288.493 190.845 287.008 191.26 286.292 191.232L288.708 193.503Z" fill="#F5F6FF"/>
<path d="M222.219 193.475C222.151 191.548 223.714 191.177 224.503 191.232L222.219 188.989C222.016 190.85 220.612 191.26 219.935 191.232L222.219 193.475Z" fill="#F5F6FF"/>
<path d="M240.38 198.046C240.31 196.094 241.922 195.718 242.736 195.775L240.38 193.503C240.171 195.388 238.722 195.803 238.024 195.775L240.38 198.046Z" fill="#F5F6FF"/>
<path d="M222.208 198.046C222.277 196.094 220.666 195.718 219.852 195.775L222.208 193.503C222.417 195.388 223.865 195.803 224.563 195.775L222.208 198.046Z" fill="#F5F6FF"/>
<path d="M222.219 207.162C222.151 209.089 223.714 209.46 224.503 209.405L222.219 211.647C222.016 209.787 220.612 209.377 219.935 209.405L222.219 207.162Z" fill="#F5F6FF"/>
<path d="M240.381 211.647C240.313 209.72 241.876 209.349 242.665 209.405L240.381 207.162C240.178 209.023 238.774 209.432 238.097 209.405L240.381 211.647Z" fill="#F5F6FF"/>
<path d="M240.393 193.475C240.461 191.548 238.898 191.177 238.109 191.232L240.393 188.989C240.596 190.85 242 191.26 242.677 191.232L240.393 193.475Z" fill="#F5F6FF"/>
<path d="M240.393 202.783C240.461 200.82 238.898 200.443 238.109 200.499L240.393 198.215C240.596 200.11 242 200.527 242.677 200.499L240.393 202.783Z" fill="#F5F6FF"/>
<path d="M222.208 202.783C222.14 200.82 223.702 200.443 224.492 200.499L222.208 198.215C222.005 200.11 220.6 200.527 219.924 200.499L222.208 202.783Z" fill="#F5F6FF"/>
<path d="M222.209 188.96C222.209 187.706 223.226 186.688 224.48 186.688H238.11C239.365 186.688 240.382 187.706 240.382 188.96C240.382 190.215 239.365 191.232 238.11 191.232H224.48C223.226 191.232 222.209 190.215 222.209 188.96Z" fill="#F5F6FF"/>
<path d="M222.233 211.647C222.233 212.886 223.246 213.89 224.496 213.89H238.077C239.327 213.89 240.381 212.915 240.381 211.676C240.381 210.437 239.327 209.404 238.077 209.404H224.496C223.246 209.404 222.233 210.408 222.233 211.647Z" fill="#F5F6FF"/>
<rect x="222.209" y="195.775" width="18.1732" height="4.71157" rx="2.35579" fill="#F5F6FF"/>
<rect x="217.666" y="191.231" width="4.5433" height="4.5433" rx="2.27165" fill="#F5F6FF"/>
<rect x="217.666" y="200.486" width="4.5433" height="8.91834" rx="2.27165" fill="#F5F6FF"/>
<rect x="240.382" y="200.486" width="4.5433" height="8.91834" rx="2.27165" fill="#F5F6FF"/>
<rect x="240.382" y="191.231" width="4.5433" height="4.5433" rx="2.27165" fill="#F5F6FF"/>
</svg>
