<svg width="265" height="100" viewBox="0 0 265 100" fill="none" xmlns="http://www.w3.org/2000/svg">
<path d="M6.034 12.284H2.268L1.372 15H0.224L3.5 5.2H4.872L8.176 15H6.958L6.034 12.284ZM2.632 11.276H5.712L4.27 6.67H4.102L2.632 11.276ZM9.90653 8.546C10.3079 8.31267 10.7605 8.14467 11.2645 8.042C11.7685 7.93933 12.2632 7.888 12.7485 7.888C13.2245 7.888 13.6119 7.96267 13.9105 8.112C14.2185 8.26133 14.4565 8.45733 14.6245 8.7C14.8019 8.93333 14.9185 9.204 14.9745 9.512C15.0399 9.81067 15.0725 10.114 15.0725 10.422C15.0725 10.7767 15.0632 11.1547 15.0445 11.556C15.0259 11.9573 15.0119 12.3587 15.0025 12.76C15.0025 13.2267 15.0305 13.67 15.0865 14.09H16.0245V15H14.1625L14.0365 13.95H13.9665C13.9105 14.034 13.8265 14.1413 13.7145 14.272C13.6025 14.4027 13.4532 14.5333 13.2665 14.664C13.0892 14.7853 12.8699 14.8927 12.6085 14.986C12.3472 15.0793 12.0392 15.126 11.6845 15.126C10.9939 15.126 10.4479 14.9487 10.0465 14.594C9.6452 14.2393 9.44453 13.754 9.44453 13.138C9.44453 12.662 9.5472 12.2653 9.75253 11.948C9.9672 11.6307 10.2705 11.388 10.6625 11.22C11.0545 11.052 11.5259 10.954 12.0765 10.926C12.6365 10.898 13.2619 10.9353 13.9525 11.038C13.9992 10.6087 14.0039 10.254 13.9665 9.974C13.9385 9.68467 13.8639 9.456 13.7425 9.288C13.6305 9.12 13.4672 9.00333 13.2525 8.938C13.0472 8.86333 12.7905 8.826 12.4825 8.826C12.0625 8.826 11.6612 8.88667 11.2785 9.008C10.8959 9.12 10.5552 9.23667 10.2565 9.358L9.90653 8.546ZM11.9645 14.188C12.2259 14.188 12.4685 14.146 12.6925 14.062C12.9165 13.978 13.1125 13.8707 13.2805 13.74C13.4485 13.6093 13.5885 13.4693 13.7005 13.32C13.8125 13.1613 13.8965 13.012 13.9525 12.872V11.892C13.4672 11.808 13.0192 11.766 12.6085 11.766C12.1979 11.766 11.8432 11.8127 11.5445 11.906C11.2459 11.99 11.0125 12.1253 10.8445 12.312C10.6765 12.4987 10.5925 12.7413 10.5925 13.04C10.5925 13.348 10.6952 13.6187 10.9005 13.852C11.1152 14.076 11.4699 14.188 11.9645 14.188ZM26.6956 5.2H32.0156V6.236H27.8576V9.176C28.0163 9.148 28.2123 9.12 28.4456 9.092C28.6789 9.064 28.9029 9.05 29.1176 9.05C29.5936 9.05 30.0463 9.09667 30.4756 9.19C30.9049 9.274 31.2829 9.42333 31.6096 9.638C31.9363 9.85267 32.1929 10.1467 32.3796 10.52C32.5756 10.884 32.6736 11.346 32.6736 11.906C32.6736 12.466 32.5756 12.9513 32.3796 13.362C32.1836 13.7633 31.9223 14.0947 31.5956 14.356C31.2689 14.608 30.8863 14.7993 30.4476 14.93C30.0183 15.0513 29.5656 15.112 29.0896 15.112C28.9309 15.112 28.7489 15.1073 28.5436 15.098C28.3476 15.098 28.1376 15.0887 27.9136 15.07C27.6989 15.0513 27.4843 15.028 27.2696 15C27.0643 14.9813 26.8729 14.9487 26.6956 14.902V5.2ZM29.2296 14.104C29.5283 14.104 29.8129 14.0667 30.0836 13.992C30.3543 13.908 30.5876 13.782 30.7836 13.614C30.9889 13.446 31.1476 13.236 31.2596 12.984C31.3809 12.732 31.4416 12.438 31.4416 12.102C31.4416 11.6727 31.3716 11.3227 31.2316 11.052C31.1009 10.7813 30.9236 10.576 30.6996 10.436C30.4756 10.2867 30.2143 10.1887 29.9156 10.142C29.6263 10.086 29.3229 10.058 29.0056 10.058C28.9216 10.058 28.8236 10.0627 28.7116 10.072C28.5996 10.0813 28.4876 10.0907 28.3756 10.1C28.2636 10.1093 28.1609 10.1233 28.0676 10.142C27.9743 10.1513 27.9043 10.1607 27.8576 10.17V14.02C27.9229 14.0387 28.0069 14.0527 28.1096 14.062C28.2216 14.0713 28.3383 14.0807 28.4596 14.09C28.5903 14.0993 28.7209 14.104 28.8516 14.104C28.9823 14.104 29.1083 14.104 29.2296 14.104ZM35.4401 9.274C35.7948 8.80733 36.1821 8.48067 36.6021 8.294C37.0315 8.10733 37.5635 8.014 38.1981 8.014C39.1595 8.014 39.8968 8.30333 40.4101 8.882C40.9235 9.46067 41.1801 10.282 41.1801 11.346C41.1801 12.578 40.8815 13.5253 40.2841 14.188C39.6868 14.8413 38.8515 15.168 37.7781 15.168C35.5101 15.168 34.3761 13.698 34.3761 10.758C34.3761 9.95533 34.4181 9.26933 34.5021 8.7C34.5955 8.13067 34.7261 7.65 34.8941 7.258C35.0621 6.866 35.2675 6.55333 35.5101 6.32C35.7528 6.08667 36.0281 5.90467 36.3361 5.774C36.6441 5.634 36.9801 5.536 37.3441 5.48C37.7081 5.424 38.1001 5.37733 38.5201 5.34C39.0615 5.30267 39.4768 5.25133 39.7661 5.186C40.0555 5.12067 40.2935 5.00867 40.4801 4.85L40.6481 5.816C40.5455 5.9 40.4335 5.97 40.3121 6.026C40.1908 6.082 40.0415 6.12867 39.8641 6.166C39.6868 6.20333 39.4768 6.236 39.2341 6.264C39.0008 6.292 38.7208 6.31533 38.3941 6.334C37.9368 6.362 37.5308 6.40867 37.1761 6.474C36.8215 6.53933 36.5181 6.67467 36.2661 6.88C36.0235 7.076 35.8275 7.36533 35.6781 7.748C35.5381 8.12133 35.4448 8.63 35.3981 9.274H35.4401ZM35.5381 11.514C35.5381 11.8593 35.5801 12.1953 35.6641 12.522C35.7575 12.8487 35.8928 13.138 36.0701 13.39C36.2568 13.642 36.4901 13.8473 36.7701 14.006C37.0501 14.1553 37.3861 14.23 37.7781 14.23C38.5248 14.23 39.0848 13.9873 39.4581 13.502C39.8315 13.0167 40.0181 12.326 40.0181 11.43C40.0181 11.0847 39.9761 10.7627 39.8921 10.464C39.8175 10.1653 39.7008 9.904 39.5421 9.68C39.3835 9.456 39.1735 9.27867 38.9121 9.148C38.6601 9.01733 38.3615 8.952 38.0161 8.952C37.1481 8.952 36.5181 9.17133 36.1261 9.61C35.7341 10.0393 35.5381 10.674 35.5381 11.514ZM57.6752 7.44C57.6752 7.67333 57.6379 7.91133 57.5632 8.154C57.4885 8.39667 57.3765 8.62533 57.2272 8.84C57.0779 9.04533 56.8865 9.22733 56.6532 9.386C56.4199 9.54467 56.1445 9.666 55.8272 9.75V9.806C56.1072 9.85267 56.3732 9.932 56.6252 10.044C56.8865 10.156 57.1152 10.31 57.3112 10.506C57.5072 10.702 57.6659 10.94 57.7872 11.22C57.9085 11.5 57.9692 11.8313 57.9692 12.214C57.9692 12.718 57.8619 13.1567 57.6472 13.53C57.4419 13.894 57.1665 14.1927 56.8212 14.426C56.4852 14.6593 56.0979 14.832 55.6592 14.944C55.2205 15.056 54.7725 15.112 54.3152 15.112C54.1565 15.112 53.9699 15.112 53.7552 15.112C53.5405 15.112 53.3165 15.1027 53.0832 15.084C52.8499 15.0747 52.6165 15.056 52.3832 15.028C52.1499 15.0093 51.9445 14.9767 51.7672 14.93V5.284C52.1125 5.228 52.5139 5.18133 52.9712 5.144C53.4285 5.10667 53.9279 5.088 54.4692 5.088C54.8332 5.088 55.2019 5.12067 55.5752 5.186C55.9579 5.242 56.3032 5.35867 56.6112 5.536C56.9192 5.704 57.1712 5.942 57.3672 6.25C57.5725 6.558 57.6752 6.95467 57.6752 7.44ZM54.4272 14.104C54.7259 14.104 55.0152 14.0667 55.2952 13.992C55.5752 13.9173 55.8225 13.8053 56.0372 13.656C56.2519 13.5067 56.4199 13.32 56.5412 13.096C56.6719 12.872 56.7372 12.606 56.7372 12.298C56.7372 11.9153 56.6579 11.6073 56.4992 11.374C56.3499 11.1407 56.1492 10.9587 55.8972 10.828C55.6545 10.6973 55.3792 10.6087 55.0712 10.562C54.7632 10.5153 54.4552 10.492 54.1472 10.492H52.9292V14.006C52.9945 14.0247 53.0879 14.0387 53.2092 14.048C53.3305 14.0573 53.4612 14.0667 53.6012 14.076C53.7412 14.0853 53.8859 14.0947 54.0352 14.104C54.1845 14.104 54.3152 14.104 54.4272 14.104ZM53.6572 9.512C53.8159 9.512 54.0072 9.50733 54.2312 9.498C54.4552 9.48867 54.6419 9.47467 54.7912 9.456C55.0152 9.38133 55.2252 9.29267 55.4212 9.19C55.6172 9.078 55.7899 8.94733 55.9392 8.798C56.0979 8.64867 56.2192 8.48067 56.3032 8.294C56.3965 8.10733 56.4432 7.902 56.4432 7.678C56.4432 7.37 56.3825 7.11333 56.2612 6.908C56.1492 6.70267 55.9952 6.53933 55.7992 6.418C55.6032 6.29667 55.3792 6.21267 55.1272 6.166C54.8752 6.11933 54.6185 6.096 54.3572 6.096C54.0492 6.096 53.7645 6.10533 53.5032 6.124C53.2512 6.13333 53.0599 6.152 52.9292 6.18V9.512H53.6572ZM60.4417 8.014C60.6191 8.00467 60.7964 7.99533 60.9737 7.986C61.1511 7.96733 61.3424 7.95333 61.5477 7.944C61.7531 7.93467 61.9724 7.92533 62.2057 7.916C62.4484 7.90667 62.7191 7.902 63.0177 7.902C64.0257 7.902 64.7537 8.04667 65.2017 8.336C65.6497 8.616 65.8737 9.04067 65.8737 9.61C65.8737 9.93667 65.7664 10.2633 65.5517 10.59C65.3371 10.9073 64.9871 11.136 64.5017 11.276V11.332C65.1177 11.4347 65.5517 11.626 65.8037 11.906C66.0557 12.1767 66.1817 12.55 66.1817 13.026C66.1817 13.754 65.8831 14.2813 65.2857 14.608C64.6977 14.9347 63.8391 15.098 62.7097 15.098C62.2617 15.098 61.8604 15.084 61.5057 15.056C61.1511 15.0373 60.7964 15.014 60.4417 14.986V8.014ZM61.5197 14.118C61.7344 14.1367 61.9491 14.1507 62.1637 14.16C62.3784 14.1693 62.6211 14.174 62.8917 14.174C63.6197 14.174 64.1611 14.0853 64.5157 13.908C64.8797 13.7213 65.0617 13.404 65.0617 12.956C65.0617 12.7787 65.0244 12.62 64.9497 12.48C64.8844 12.34 64.7677 12.2187 64.5997 12.116C64.4411 12.0133 64.2311 11.934 63.9697 11.878C63.7084 11.822 63.3817 11.794 62.9897 11.794H61.5197V14.118ZM63.1857 10.954C63.3724 10.954 63.5591 10.926 63.7457 10.87C63.9324 10.8047 64.1004 10.7253 64.2497 10.632C64.4084 10.5293 64.5344 10.4127 64.6277 10.282C64.7211 10.142 64.7677 9.99733 64.7677 9.848C64.7677 9.46533 64.6277 9.19933 64.3477 9.05C64.0771 8.90067 63.6197 8.826 62.9757 8.826C62.6211 8.826 62.3364 8.83067 62.1217 8.84C61.9164 8.84933 61.7157 8.85867 61.5197 8.868V10.954H63.1857ZM76.5308 5.2H83.2508V7.762H82.2148V6.236H79.0368V13.964H81.2348V15H76.5308V13.964H77.8748V6.236H76.5308V5.2ZM85.3733 15V14.062H86.2693V8.952H85.3733V8H91.0293V10.618H90.0773V8.952H87.3613V14.062H89.4893V15H85.3733ZM108.91 16.974H107.93V15H101.826V16.974H100.846V13.964H101.784C101.822 13.852 101.906 13.6047 102.036 13.222C102.176 12.8393 102.316 12.298 102.456 11.598C102.606 10.898 102.741 10.0207 102.862 8.966C102.984 7.91133 103.044 6.656 103.044 5.2H107.86V13.964H108.91V16.974ZM106.698 13.964V6.236H104.136C104.108 7.26267 104.048 8.18667 103.954 9.008C103.87 9.82933 103.772 10.5573 103.66 11.192C103.548 11.8267 103.432 12.3727 103.31 12.83C103.198 13.2873 103.1 13.6653 103.016 13.964H106.698ZM117.053 16.68H116.101V15H110.473V16.68H109.521V14.048H110.305C110.389 13.9453 110.501 13.7633 110.641 13.502C110.781 13.2313 110.916 12.858 111.047 12.382C111.178 11.8967 111.294 11.2993 111.397 10.59C111.5 9.87133 111.56 9.008 111.579 8H115.975V14.048H117.053V16.68ZM114.883 14.062V8.938H112.573C112.554 9.33933 112.517 9.77333 112.461 10.24C112.414 10.7067 112.344 11.1733 112.251 11.64C112.158 12.0973 112.041 12.536 111.901 12.956C111.77 13.376 111.616 13.7447 111.439 14.062H114.883ZM127.416 5.2H133.17V6.236H128.578V9.442H132.82V10.478H128.578V13.964H133.24V15H127.416V5.2ZM141.719 14.118C141.551 14.2673 141.35 14.4073 141.117 14.538C140.893 14.6687 140.645 14.7807 140.375 14.874C140.104 14.9673 139.819 15.0373 139.521 15.084C139.231 15.14 138.937 15.168 138.639 15.168C138.079 15.168 137.584 15.084 137.155 14.916C136.725 14.7387 136.366 14.4913 136.077 14.174C135.787 13.8473 135.568 13.46 135.419 13.012C135.269 12.564 135.195 12.06 135.195 11.5C135.195 10.912 135.274 10.3893 135.433 9.932C135.601 9.47467 135.839 9.092 136.147 8.784C136.455 8.476 136.828 8.24267 137.267 8.084C137.705 7.916 138.195 7.832 138.737 7.832C139.129 7.832 139.516 7.88333 139.899 7.986C140.281 8.08867 140.617 8.28467 140.907 8.574C141.205 8.854 141.434 9.246 141.593 9.75C141.751 10.2447 141.807 10.8887 141.761 11.682H136.343C136.343 12.522 136.567 13.152 137.015 13.572C137.472 13.9827 138.079 14.188 138.835 14.188C139.087 14.188 139.334 14.16 139.577 14.104C139.829 14.0387 140.067 13.964 140.291 13.88C140.515 13.796 140.711 13.7027 140.879 13.6C141.056 13.4973 141.191 13.404 141.285 13.32L141.719 14.118ZM138.765 8.756C138.457 8.756 138.163 8.78867 137.883 8.854C137.612 8.91933 137.369 9.03133 137.155 9.19C136.949 9.33933 136.777 9.54 136.637 9.792C136.506 10.0347 136.422 10.338 136.385 10.702H140.739C140.692 10.086 140.491 9.61 140.137 9.274C139.791 8.92867 139.334 8.756 138.765 8.756ZM152.6 5.2H158.354V6.236H153.762V9.442H158.004V10.478H153.762V13.964H158.424V15H152.6V5.2ZM153.02 3.8C153.02 3.58533 153.099 3.41267 153.258 3.282C153.426 3.142 153.64 3.072 153.902 3.072C154.144 3.072 154.345 3.142 154.504 3.282C154.672 3.41267 154.756 3.58533 154.756 3.8C154.756 4.01467 154.672 4.18733 154.504 4.318C154.345 4.44867 154.144 4.514 153.902 4.514C153.64 4.514 153.426 4.44867 153.258 4.318C153.099 4.18733 153.02 4.01467 153.02 3.8ZM156.17 3.8C156.17 3.58533 156.249 3.41267 156.408 3.282C156.566 3.142 156.767 3.072 157.01 3.072C157.28 3.072 157.495 3.142 157.654 3.282C157.812 3.41267 157.892 3.58533 157.892 3.8C157.892 4.01467 157.812 4.18733 157.654 4.318C157.495 4.44867 157.28 4.514 157.01 4.514C156.767 4.514 156.566 4.44867 156.408 4.318C156.249 4.18733 156.17 4.01467 156.17 3.8ZM166.902 14.118C166.734 14.2673 166.533 14.4073 166.3 14.538C166.076 14.6687 165.829 14.7807 165.558 14.874C165.287 14.9673 165.003 15.0373 164.704 15.084C164.415 15.14 164.121 15.168 163.822 15.168C163.262 15.168 162.767 15.084 162.338 14.916C161.909 14.7387 161.549 14.4913 161.26 14.174C160.971 13.8473 160.751 13.46 160.602 13.012C160.453 12.564 160.378 12.06 160.378 11.5C160.378 10.912 160.457 10.3893 160.616 9.932C160.784 9.47467 161.022 9.092 161.33 8.784C161.638 8.476 162.011 8.24267 162.45 8.084C162.889 7.916 163.379 7.832 163.92 7.832C164.312 7.832 164.699 7.88333 165.082 7.986C165.465 8.08867 165.801 8.28467 166.09 8.574C166.389 8.854 166.617 9.246 166.776 9.75C166.935 10.2447 166.991 10.8887 166.944 11.682H161.526C161.526 12.522 161.75 13.152 162.198 13.572C162.655 13.9827 163.262 14.188 164.018 14.188C164.27 14.188 164.517 14.16 164.76 14.104C165.012 14.0387 165.25 13.964 165.474 13.88C165.698 13.796 165.894 13.7027 166.062 13.6C166.239 13.4973 166.375 13.404 166.468 13.32L166.902 14.118ZM163.948 8.756C163.64 8.756 163.346 8.78867 163.066 8.854C162.795 8.91933 162.553 9.03133 162.338 9.19C162.133 9.33933 161.96 9.54 161.82 9.792C161.689 10.0347 161.605 10.338 161.568 10.702H165.922C165.875 10.086 165.675 9.61 165.32 9.274C164.975 8.92867 164.517 8.756 163.948 8.756ZM161.33 6.222C161.33 5.97933 161.4 5.78333 161.54 5.634C161.689 5.47533 161.885 5.396 162.128 5.396C162.361 5.396 162.553 5.47533 162.702 5.634C162.851 5.78333 162.926 5.97933 162.926 6.222C162.926 6.446 162.851 6.63733 162.702 6.796C162.553 6.94533 162.361 7.02 162.128 7.02C161.885 7.02 161.689 6.94533 161.54 6.796C161.4 6.63733 161.33 6.446 161.33 6.222ZM164.452 6.222C164.452 5.97933 164.522 5.78333 164.662 5.634C164.811 5.47533 165.003 5.396 165.236 5.396C165.479 5.396 165.675 5.47533 165.824 5.634C165.983 5.78333 166.062 5.97933 166.062 6.222C166.062 6.446 165.983 6.63733 165.824 6.796C165.675 6.94533 165.479 7.02 165.236 7.02C165.003 7.02 164.811 6.94533 164.662 6.796C164.522 6.63733 164.452 6.446 164.452 6.222ZM179.911 5.2H181.031V9.596H181.731L183.271 5.2H184.419L182.725 9.988L184.685 15H183.397L181.759 10.464H181.031V15H179.911V10.464H179.141L177.489 15H176.285L178.119 10.058L176.537 5.2H177.755L179.085 9.596H179.911V5.2ZM187.466 11.864L185.968 15H184.764L186.556 11.416L184.946 8H186.164L187.438 11.024H188.32V8H189.412V11.024H190.168L191.652 8H192.8L191.148 11.248L192.996 15H191.75L190.252 11.864H189.412V15H188.32V11.864H187.466ZM202.589 12.438H203.625V13.908C203.849 13.9827 204.101 14.048 204.381 14.104C204.661 14.16 204.964 14.188 205.291 14.188C206 14.188 206.569 14.02 206.999 13.684C207.437 13.348 207.657 12.844 207.657 12.172C207.657 11.584 207.456 11.15 207.055 10.87C206.653 10.5807 206.121 10.4127 205.459 10.366H204.619V9.386H205.585C205.827 9.358 206.056 9.29733 206.271 9.204C206.485 9.10133 206.672 8.97533 206.831 8.826C206.999 8.67667 207.129 8.504 207.223 8.308C207.316 8.112 207.363 7.902 207.363 7.678C207.363 7.37 207.307 7.11333 207.195 6.908C207.092 6.69333 206.947 6.52067 206.761 6.39C206.574 6.25933 206.35 6.166 206.089 6.11C205.827 6.04467 205.538 6.012 205.221 6.012C204.95 6.012 204.684 6.03067 204.423 6.068C204.161 6.10533 203.923 6.152 203.709 6.208V7.594H202.673V5.522V5.508C202.766 5.452 202.901 5.396 203.079 5.34C203.256 5.284 203.466 5.23267 203.709 5.186C203.951 5.13933 204.217 5.102 204.507 5.074C204.796 5.046 205.099 5.032 205.417 5.032C205.837 5.032 206.238 5.074 206.621 5.158C207.003 5.23267 207.339 5.36333 207.629 5.55C207.927 5.72733 208.161 5.97467 208.329 6.292C208.506 6.6 208.595 6.98267 208.595 7.44C208.595 7.90667 208.441 8.35467 208.133 8.784C207.834 9.204 207.377 9.50733 206.761 9.694V9.75C207.423 9.84333 207.941 10.0907 208.315 10.492C208.697 10.8933 208.889 11.43 208.889 12.102C208.889 12.634 208.786 13.096 208.581 13.488C208.375 13.8707 208.1 14.188 207.755 14.44C207.419 14.692 207.036 14.8787 206.607 15C206.177 15.112 205.739 15.168 205.291 15.168C204.647 15.168 204.101 15.112 203.653 15C203.205 14.8787 202.85 14.7667 202.589 14.664V14.65V12.438ZM211.361 8.658L211.347 8.616C211.506 8.52267 211.674 8.434 211.851 8.35C212.038 8.25667 212.243 8.17733 212.467 8.112C212.701 8.03733 212.962 7.97667 213.251 7.93C213.541 7.88333 213.872 7.86 214.245 7.86C214.628 7.86 214.983 7.902 215.309 7.986C215.636 8.06067 215.921 8.17267 216.163 8.322C216.406 8.47133 216.593 8.658 216.723 8.882C216.863 9.09667 216.933 9.344 216.933 9.624C216.933 9.77333 216.901 9.932 216.835 10.1C216.779 10.2587 216.691 10.4127 216.569 10.562C216.448 10.7113 216.303 10.8467 216.135 10.968C215.967 11.0893 215.776 11.1827 215.561 11.248V11.304C216.177 11.4067 216.607 11.6027 216.849 11.892C217.101 12.1813 217.227 12.564 217.227 13.04C217.227 13.3387 217.157 13.614 217.017 13.866C216.877 14.118 216.667 14.3373 216.387 14.524C216.117 14.7107 215.776 14.86 215.365 14.972C214.964 15.0747 214.493 15.126 213.951 15.126C213.55 15.126 213.186 15.0887 212.859 15.014C212.533 14.9393 212.243 14.846 211.991 14.734C211.749 14.622 211.539 14.5007 211.361 14.37C211.193 14.2393 211.063 14.118 210.969 14.006L211.529 13.124C211.632 13.236 211.758 13.3573 211.907 13.488C212.057 13.6093 212.239 13.7213 212.453 13.824C212.677 13.9267 212.929 14.0153 213.209 14.09C213.499 14.1553 213.83 14.188 214.203 14.188C214.465 14.188 214.707 14.1647 214.931 14.118C215.165 14.062 215.365 13.9873 215.533 13.894C215.711 13.7913 215.851 13.6653 215.953 13.516C216.056 13.3573 216.107 13.1753 216.107 12.97C216.107 12.6153 215.944 12.3447 215.617 12.158C215.3 11.9713 214.773 11.878 214.035 11.878H213.237V10.968H214.231C214.418 10.968 214.605 10.94 214.791 10.884C214.978 10.8187 215.146 10.7393 215.295 10.646C215.445 10.5433 215.566 10.4267 215.659 10.296C215.753 10.156 215.799 10.0113 215.799 9.862C215.799 9.67533 215.753 9.51667 215.659 9.386C215.566 9.246 215.435 9.134 215.267 9.05C215.109 8.966 214.917 8.90533 214.693 8.868C214.479 8.82133 214.25 8.798 214.007 8.798C213.634 8.798 213.307 8.83533 213.027 8.91C212.747 8.97533 212.509 9.05933 212.313 9.162V10.324H211.361V8.658ZM233.05 8.504L233.134 7.104H233.05L232.238 8.672L228.598 15H227.492V5.2H228.654V11.78L228.584 13.166H228.668L229.466 11.598L233.106 5.2H234.212V15H233.05V8.504ZM241.165 10.604L241.207 9.68H241.165L237.231 15H236.237V8H237.329V12.522L237.287 13.404H237.343L241.249 8H242.257V15H241.165V10.604ZM6.398 28.504L6.482 27.104H6.398L5.586 28.672L1.946 35H0.84V25.2H2.002V31.78L1.932 33.166H2.016L2.814 31.598L6.454 25.2H7.56V35H6.398V28.504ZM3.122 22.82C3.15933 23.1653 3.29 23.4313 3.514 23.618C3.738 23.8047 4.03667 23.898 4.41 23.898C4.78333 23.898 5.07733 23.8047 5.292 23.618C5.516 23.4313 5.65133 23.17 5.698 22.834L6.692 23.072C6.58933 23.576 6.35133 23.9773 5.978 24.276C5.614 24.5653 5.08667 24.71 4.396 24.71C3.73333 24.71 3.18733 24.584 2.758 24.332C2.338 24.0707 2.09067 23.66 2.016 23.1L3.122 22.82ZM14.5125 30.604L14.5545 29.68H14.5125L10.5785 35H9.58453V28H10.6765V32.522L10.6345 33.404H10.6905L14.5965 28H15.6045V35H14.5125V30.604ZM11.4045 25.172C11.4979 25.6013 11.6565 25.9 11.8805 26.068C12.1139 26.236 12.3799 26.32 12.6785 26.32C12.9772 26.32 13.2432 26.2313 13.4765 26.054C13.7099 25.8767 13.8685 25.5873 13.9525 25.186L14.7925 25.452C14.7085 25.9933 14.4659 26.4087 14.0645 26.698C13.6725 26.9873 13.2012 27.132 12.6505 27.132C12.3985 27.132 12.1465 27.0993 11.8945 27.034C11.6519 26.9687 11.4325 26.8707 11.2365 26.74C11.0405 26.6093 10.8725 26.4413 10.7325 26.236C10.5925 26.0307 10.4992 25.788 10.4525 25.508L11.4045 25.172ZM28.6136 30.464H27.5356V35H26.3736V25.2H27.5356V29.568H28.5856L31.7356 25.2H33.0796L29.6216 29.862L33.5136 35H32.0436L28.6136 30.464ZM36.9521 31.836H36.1821V35H35.1041V28H36.1821V30.996H36.9521L39.7101 28H41.0261L37.9321 31.318L40.4801 34.062H41.3901V35H39.9481L36.9521 31.836ZM56.5412 26.236H53.8952C53.8019 28.1027 53.6759 29.6567 53.5172 30.898C53.3679 32.13 53.1392 33.0913 52.8312 33.782C52.6259 34.23 52.3832 34.5567 52.1032 34.762C51.8232 34.9673 51.5199 35.07 51.1932 35.07C51.0252 35.07 50.8805 35.056 50.7592 35.028C50.6379 35.0093 50.5212 34.9767 50.4092 34.93L50.5632 33.922C50.6565 33.95 50.7545 33.964 50.8572 33.964C51.0159 33.964 51.1699 33.9127 51.3192 33.81C51.4779 33.7073 51.6319 33.516 51.7812 33.236C51.9119 32.984 52.0332 32.648 52.1452 32.228C52.2665 31.808 52.3692 31.276 52.4532 30.632C52.5465 29.988 52.6212 29.2227 52.6772 28.336C52.7332 27.44 52.7752 26.3947 52.8032 25.2H57.7032V35H56.5412V26.236ZM64.7257 28.952H62.3037C62.2664 29.8013 62.2197 30.5993 62.1637 31.346C62.1077 32.0833 62.0004 32.7273 61.8417 33.278C61.6924 33.8287 61.4731 34.2627 61.1837 34.58C60.9037 34.8973 60.5211 35.056 60.0357 35.056C59.8491 35.056 59.7137 35.0467 59.6297 35.028C59.5457 35.0093 59.4431 34.9767 59.3217 34.93L59.5037 33.894C59.6811 33.9407 59.8444 33.964 59.9937 33.964C60.1524 33.964 60.2924 33.908 60.4137 33.796C60.5351 33.684 60.6424 33.5067 60.7357 33.264C60.8384 33.012 60.9224 32.662 60.9877 32.214C61.0624 31.7567 61.1231 31.1873 61.1697 30.506C61.2164 29.8153 61.2537 28.98 61.2817 28H65.8177V35H64.7257V28.952ZM81.9488 28.49L82.0888 27.16H82.0188L81.3468 28.364L79.9188 30.758H79.5688L78.0708 28.35L77.4268 27.16H77.3568L77.5248 28.476V35H76.3908V25.2H77.4688L79.7928 28.924H79.8208L82.0608 25.2H83.1108V35H81.9488V28.49ZM90.3573 30.842L90.3853 29.848H90.3153L88.2993 33.054H87.9073L85.8633 29.848H85.8073L85.8773 30.828V35H84.8413V28H85.9473L88.1733 31.514H88.2013L90.3293 28H91.4493V35H90.3573V30.842ZM107.132 30.506H102.736V35H101.574V25.2H102.736V29.47H107.132V25.2H108.294V35H107.132V30.506ZM115.205 31.892H111.439V35H110.361V28H111.439V30.912H115.205V28H116.297V35H115.205V31.892ZM126.59 30.1C126.59 28.476 126.875 27.2253 127.444 26.348C128.023 25.4707 128.909 25.032 130.104 25.032C130.757 25.032 131.308 25.1533 131.756 25.396C132.213 25.6387 132.582 25.984 132.862 26.432C133.142 26.8707 133.343 27.4027 133.464 28.028C133.585 28.644 133.646 29.3347 133.646 30.1C133.646 31.724 133.357 32.9747 132.778 33.852C132.209 34.7293 131.317 35.168 130.104 35.168C129.46 35.168 128.914 35.0467 128.466 34.804C128.018 34.5613 127.654 34.2207 127.374 33.782C127.094 33.334 126.893 32.802 126.772 32.186C126.651 31.5607 126.59 30.8653 126.59 30.1ZM127.822 30.1C127.822 30.6413 127.855 31.1547 127.92 31.64C127.995 32.1253 128.121 32.5547 128.298 32.928C128.475 33.292 128.709 33.586 128.998 33.81C129.287 34.0247 129.656 34.132 130.104 34.132C130.907 34.132 131.49 33.8053 131.854 33.152C132.227 32.4987 132.414 31.4813 132.414 30.1C132.414 29.568 132.377 29.0593 132.302 28.574C132.237 28.0793 132.115 27.65 131.938 27.286C131.761 26.9127 131.523 26.6187 131.224 26.404C130.925 26.18 130.552 26.068 130.104 26.068C129.311 26.068 128.732 26.3993 128.368 27.062C128.004 27.7153 127.822 28.728 127.822 30.1ZM135.111 31.5C135.111 30.3707 135.405 29.4793 135.993 28.826C136.581 28.1633 137.421 27.832 138.513 27.832C139.101 27.832 139.605 27.93 140.025 28.126C140.454 28.3127 140.809 28.5693 141.089 28.896C141.369 29.2227 141.574 29.61 141.704 30.058C141.845 30.506 141.915 30.9867 141.915 31.5C141.915 32.06 141.84 32.5687 141.691 33.026C141.541 33.474 141.322 33.8567 141.033 34.174C140.743 34.4913 140.384 34.7387 139.955 34.916C139.535 35.084 139.054 35.168 138.513 35.168C137.934 35.168 137.43 35.0747 137.001 34.888C136.571 34.692 136.217 34.4307 135.937 34.104C135.657 33.7773 135.447 33.39 135.307 32.942C135.176 32.494 135.111 32.0133 135.111 31.5ZM136.273 31.5C136.273 31.8267 136.31 32.1533 136.385 32.48C136.469 32.8067 136.599 33.1007 136.777 33.362C136.954 33.6233 137.183 33.8333 137.463 33.992C137.752 34.1507 138.102 34.23 138.513 34.23C139.259 34.23 139.819 34.0013 140.193 33.544C140.575 33.0773 140.767 32.396 140.767 31.5C140.767 31.164 140.725 30.8373 140.641 30.52C140.566 30.1933 140.435 29.8993 140.249 29.638C140.071 29.3767 139.838 29.1667 139.549 29.008C139.269 28.8493 138.923 28.77 138.513 28.77C137.766 28.77 137.206 28.9987 136.833 29.456C136.459 29.9133 136.273 30.5947 136.273 31.5ZM157.36 26.236H153.244V35H152.082V25.2H158.522V35H157.36V26.236ZM165.516 28.952H161.862V35H160.784V28H166.608V35H165.516V28.952ZM177.685 25.298C178.04 25.214 178.422 25.158 178.833 25.13C179.244 25.102 179.65 25.088 180.051 25.088C180.48 25.088 180.914 25.13 181.353 25.214C181.801 25.298 182.207 25.452 182.571 25.676C182.935 25.9 183.229 26.208 183.453 26.6C183.686 26.992 183.803 27.4913 183.803 28.098C183.803 28.6953 183.696 29.1993 183.481 29.61C183.266 30.0207 182.982 30.3567 182.627 30.618C182.272 30.87 181.866 31.052 181.409 31.164C180.952 31.276 180.48 31.332 179.995 31.332C179.948 31.332 179.869 31.332 179.757 31.332C179.654 31.332 179.542 31.332 179.421 31.332C179.309 31.3227 179.197 31.3133 179.085 31.304C178.973 31.2947 178.894 31.2853 178.847 31.276V35H177.685V25.298ZM180.079 26.096C179.836 26.096 179.603 26.1007 179.379 26.11C179.155 26.1193 178.978 26.1427 178.847 26.18V30.24C178.894 30.2587 178.968 30.2727 179.071 30.282C179.174 30.282 179.281 30.2867 179.393 30.296C179.505 30.296 179.612 30.296 179.715 30.296C179.818 30.296 179.892 30.296 179.939 30.296C180.256 30.296 180.569 30.268 180.877 30.212C181.194 30.1467 181.479 30.0347 181.731 29.876C181.983 29.7173 182.184 29.4933 182.333 29.204C182.492 28.9147 182.571 28.546 182.571 28.098C182.571 27.7153 182.496 27.398 182.347 27.146C182.207 26.8847 182.016 26.6793 181.773 26.53C181.54 26.3713 181.274 26.2593 180.975 26.194C180.676 26.1287 180.378 26.096 180.079 26.096ZM186.024 30.45C186.024 30.366 186.019 30.2587 186.01 30.128C186.01 29.988 186.005 29.848 185.996 29.708C185.986 29.5587 185.972 29.414 185.954 29.274C185.944 29.134 185.93 29.0127 185.912 28.91H184.974V28H186.836L186.976 28.98H187.046C187.298 28.6533 187.615 28.3827 187.998 28.168C188.39 27.944 188.866 27.832 189.426 27.832C190.424 27.832 191.176 28.1073 191.68 28.658C192.184 29.2087 192.436 30.1093 192.436 31.36C192.436 31.948 192.347 32.48 192.17 32.956C192.002 33.4227 191.759 33.8193 191.442 34.146C191.124 34.4727 190.742 34.7247 190.294 34.902C189.846 35.0793 189.351 35.168 188.81 35.168C188.614 35.168 188.436 35.1587 188.278 35.14C188.128 35.1307 187.988 35.112 187.858 35.084C187.736 35.0653 187.615 35.0373 187.494 35C187.372 34.9627 187.242 34.916 187.102 34.86V37.8H186.024V30.45ZM189.244 28.854C188.964 28.854 188.698 28.9053 188.446 29.008C188.203 29.1107 187.984 29.246 187.788 29.414C187.601 29.582 187.447 29.7687 187.326 29.974C187.204 30.1793 187.13 30.3847 187.102 30.59V33.782C187.307 33.922 187.536 34.034 187.788 34.118C188.049 34.1927 188.39 34.23 188.81 34.23C189.556 34.23 190.154 33.9873 190.602 33.502C191.05 33.0073 191.274 32.2887 191.274 31.346C191.274 30.5527 191.115 29.9413 190.798 29.512C190.49 29.0733 189.972 28.854 189.244 28.854ZM207.881 26.264C207.722 26.1987 207.545 26.152 207.349 26.124C207.162 26.0867 206.933 26.068 206.663 26.068C206.28 26.068 205.902 26.138 205.529 26.278C205.165 26.418 204.838 26.6467 204.549 26.964C204.269 27.2813 204.04 27.6967 203.863 28.21C203.695 28.7233 203.611 29.3533 203.611 30.1C203.611 30.772 203.685 31.36 203.835 31.864C203.993 32.368 204.208 32.788 204.479 33.124C204.759 33.46 205.09 33.712 205.473 33.88C205.865 34.048 206.299 34.132 206.775 34.132C207.017 34.132 207.241 34.1133 207.447 34.076C207.661 34.0293 207.857 33.9687 208.035 33.894V32.494H209.071V34.384L209.085 34.412C208.805 34.6267 208.45 34.8087 208.021 34.958C207.591 35.098 207.069 35.168 206.453 35.168C205.865 35.168 205.319 35.07 204.815 34.874C204.32 34.6687 203.891 34.3607 203.527 33.95C203.163 33.5393 202.878 33.0167 202.673 32.382C202.477 31.738 202.379 30.9773 202.379 30.1C202.379 29.1853 202.491 28.4107 202.715 27.776C202.939 27.132 203.242 26.6093 203.625 26.208C204.007 25.7973 204.451 25.4987 204.955 25.312C205.468 25.1253 206.014 25.032 206.593 25.032C206.91 25.032 207.185 25.046 207.419 25.074C207.652 25.0927 207.857 25.1253 208.035 25.172C208.212 25.2093 208.366 25.2607 208.497 25.326C208.637 25.3913 208.772 25.466 208.903 25.55H208.917V27.762H207.881V26.264ZM216.009 29.078C215.795 29.0033 215.561 28.9427 215.309 28.896C215.067 28.84 214.824 28.812 214.581 28.812C213.667 28.812 212.985 29.0267 212.537 29.456C212.089 29.8853 211.865 30.5667 211.865 31.5C211.865 31.9107 211.931 32.2793 212.061 32.606C212.192 32.9233 212.379 33.194 212.621 33.418C212.864 33.642 213.153 33.8147 213.489 33.936C213.835 34.0573 214.213 34.118 214.623 34.118C215.062 34.118 215.487 34.0433 215.897 33.894C216.317 33.7447 216.667 33.5487 216.947 33.306L217.437 34.118C217.307 34.23 217.143 34.3467 216.947 34.468C216.751 34.5893 216.523 34.706 216.261 34.818C216.009 34.9207 215.725 35.0047 215.407 35.07C215.099 35.1353 214.763 35.168 214.399 35.168C213.793 35.168 213.256 35.084 212.789 34.916C212.332 34.7387 211.949 34.4913 211.641 34.174C211.333 33.8473 211.1 33.46 210.941 33.012C210.783 32.5547 210.703 32.0507 210.703 31.5C210.703 30.912 210.783 30.3893 210.941 29.932C211.109 29.4747 211.347 29.092 211.655 28.784C211.963 28.476 212.337 28.2427 212.775 28.084C213.214 27.916 213.704 27.832 214.245 27.832C214.936 27.832 215.496 27.8927 215.925 28.014C216.364 28.1353 216.733 28.2707 217.031 28.42L217.017 28.462V30.408H216.009V29.078ZM227.212 25.2H234.492V27.762H233.456V26.236H231.426V33.964H232.966V35H228.724V33.964H230.264V26.236H228.248V27.762H227.212V25.2ZM235.775 28H242.719V30.618H241.767V28.952H239.793V34.062H241.487V35H236.951V34.062H238.701V28.952H236.727V30.618H235.775V28ZM4.186 51.024H5.082L6.79 45.2H7.98L5.992 51.57C5.80533 52.214 5.61867 52.76 5.432 53.208C5.25467 53.656 5.05867 54.02 4.844 54.3C4.63867 54.5707 4.41 54.7667 4.158 54.888C3.906 55.0093 3.61667 55.07 3.29 55.07C2.982 55.07 2.73467 55.0467 2.548 55C2.37067 54.944 2.20267 54.8647 2.044 54.762L2.394 53.796C2.58067 53.8987 2.75333 53.964 2.912 53.992C3.07067 54.02 3.21533 54.034 3.346 54.034C3.60733 54.034 3.85933 53.88 4.102 53.572C4.34467 53.264 4.54533 52.76 4.704 52.06L3.444 52.046L0.42 45.2H1.764L4.186 51.024ZM12.7485 53.922H13.2805L15.0165 48H16.1505L14.2045 54.286C14.1019 54.6127 13.9945 54.9813 13.8825 55.392C13.7799 55.812 13.6305 56.204 13.4345 56.568C13.2385 56.932 12.9725 57.24 12.6365 57.492C12.3005 57.744 11.8619 57.87 11.3205 57.87C11.1992 57.87 11.0685 57.856 10.9285 57.828C10.7979 57.8 10.6672 57.7627 10.5365 57.716C10.4059 57.6787 10.2845 57.632 10.1725 57.576C10.0605 57.52 9.97653 57.464 9.92053 57.408L10.3125 56.4C10.3685 56.4467 10.4432 56.4933 10.5365 56.54C10.6392 56.5867 10.7465 56.624 10.8585 56.652C10.9799 56.6893 11.0965 56.7173 11.2085 56.736C11.3205 56.764 11.4139 56.778 11.4885 56.778C12.1885 56.778 12.6645 56.1853 12.9165 55H11.9785L9.03853 48H10.2985L12.7485 53.922ZM28.7956 54.09C28.3849 54.09 27.9789 54.0387 27.5776 53.936C27.1856 53.8333 26.8356 53.642 26.5276 53.362C26.2196 53.0727 25.9676 52.6667 25.7716 52.144C25.5849 51.6213 25.4916 50.94 25.4916 50.1C25.4916 49.344 25.5803 48.7 25.7576 48.168C25.9349 47.636 26.1729 47.2067 26.4716 46.88C26.7703 46.544 27.1203 46.3013 27.5216 46.152C27.9229 46.0027 28.3476 45.928 28.7956 45.928V44.92H29.9576V45.928C30.3589 45.928 30.7556 45.9887 31.1476 46.11C31.5396 46.222 31.8943 46.432 32.2116 46.74C32.5289 47.0387 32.7856 47.4493 32.9816 47.972C33.1776 48.4853 33.2756 49.148 33.2756 49.96C33.2756 50.7533 33.1776 51.416 32.9816 51.948C32.7949 52.48 32.5429 52.9047 32.2256 53.222C31.9176 53.5393 31.5629 53.7633 31.1616 53.894C30.7696 54.0247 30.3683 54.09 29.9576 54.09V55.28H28.7956V54.09ZM32.1136 49.96C32.1136 49.4187 32.0623 48.9567 31.9596 48.574C31.8569 48.182 31.7076 47.8647 31.5116 47.622C31.3249 47.3793 31.0963 47.202 30.8256 47.09C30.5549 46.9687 30.2516 46.908 29.9156 46.908V53.124C30.2516 53.124 30.5549 53.0773 30.8256 52.984C31.1056 52.8813 31.3389 52.7087 31.5256 52.466C31.7123 52.2233 31.8569 51.9013 31.9596 51.5C32.0623 51.0893 32.1136 50.576 32.1136 49.96ZM26.6536 50.1C26.6536 50.66 26.6956 51.1313 26.7796 51.514C26.8729 51.8967 27.0083 52.2093 27.1856 52.452C27.3629 52.6853 27.5869 52.858 27.8576 52.97C28.1376 53.0727 28.4596 53.124 28.8236 53.124V46.908C28.5063 46.908 28.2123 46.9593 27.9416 47.062C27.6803 47.1553 27.4516 47.328 27.2556 47.58C27.0689 47.8227 26.9196 48.1493 26.8076 48.56C26.7049 48.9707 26.6536 49.484 26.6536 50.1ZM36.1541 45.2H38.3101V47.958C38.4781 47.93 38.6275 47.9113 38.7581 47.902C38.8888 47.8927 39.0148 47.888 39.1361 47.888C39.9855 47.888 40.6155 48.1587 41.0261 48.7C41.4368 49.232 41.6421 50.1187 41.6421 51.36C41.6421 52.536 41.4228 53.4647 40.9841 54.146C40.5548 54.8273 39.9201 55.168 39.0801 55.168C38.9961 55.168 38.8701 55.1587 38.7021 55.14C38.5435 55.1307 38.4128 55.1073 38.3101 55.07V57.8H37.2461V55.056C37.0875 55.112 36.9195 55.1447 36.7421 55.154C36.5741 55.1633 36.4201 55.168 36.2801 55.168C35.4961 55.168 34.9035 54.8693 34.5021 54.272C34.1101 53.6747 33.9141 52.7507 33.9141 51.5C33.9141 50.3053 34.1381 49.4047 34.5861 48.798C35.0341 48.1913 35.6968 47.888 36.5741 47.888C36.8355 47.888 37.0595 47.9067 37.2461 47.944V46.138H36.1541V45.2ZM38.9261 48.812C38.8141 48.812 38.7115 48.8167 38.6181 48.826C38.5341 48.826 38.4268 48.8447 38.2961 48.882V54.202C38.3895 54.2207 38.4921 54.2347 38.6041 54.244C38.7255 54.244 38.8561 54.244 38.9961 54.244C39.5281 54.244 39.9155 53.9967 40.1581 53.502C40.4008 53.0073 40.5221 52.2933 40.5221 51.36C40.5221 50.968 40.4988 50.6133 40.4521 50.296C40.4055 49.9787 40.3215 49.7127 40.2001 49.498C40.0788 49.274 39.9155 49.106 39.7101 48.994C39.5048 48.8727 39.2435 48.812 38.9261 48.812ZM36.5601 54.244C36.6721 54.244 36.7841 54.2393 36.8961 54.23C37.0081 54.2207 37.1295 54.202 37.2601 54.174V48.868C37.1481 48.8493 37.0408 48.8353 36.9381 48.826C36.8448 48.8167 36.7281 48.812 36.5881 48.812C36.0841 48.812 35.6968 49.0313 35.4261 49.47C35.1648 49.8993 35.0341 50.576 35.0341 51.5C35.0341 51.892 35.0621 52.256 35.1181 52.592C35.1741 52.928 35.2628 53.222 35.3841 53.474C35.5055 53.7167 35.6595 53.908 35.8461 54.048C36.0421 54.1787 36.2801 54.244 36.5601 54.244ZM53.8812 50.016L50.9272 45.2H52.3272L54.2872 48.518L54.6372 49.176L54.9732 48.518L57.0592 45.2H58.3472L55.2812 49.918L58.4872 55H57.1292L54.9312 51.486L54.5532 50.786L54.1892 51.486L51.9492 55H50.6472L53.8812 50.016ZM62.3037 51.416L59.6017 48H61.0017L63.0177 50.632L65.0897 48H66.3497L63.6477 51.36L66.5177 55H65.1737L62.9477 52.13L60.6797 55H59.4057L62.3037 51.416ZM83.8668 56.974H82.8868V55H76.5308V45.2H77.6928V53.964H81.5428V45.2H82.7048V53.964H83.8668V56.974ZM92.1353 56.68H91.1833V55H85.2053V48H86.2833V54.048H89.8953V48H90.9873V54.048H92.1353V56.68ZM103.044 45.2V48.448C103.044 49.7267 103.623 50.366 104.78 50.366C105.219 50.366 105.63 50.31 106.012 50.198C106.395 50.0767 106.708 49.918 106.95 49.722V45.2H108.112V55H106.95V50.772C106.698 50.912 106.367 51.052 105.956 51.192C105.546 51.332 105.074 51.402 104.542 51.402C104.15 51.402 103.791 51.36 103.464 51.276C103.138 51.1827 102.858 51.0333 102.624 50.828C102.391 50.6133 102.209 50.3287 102.078 49.974C101.948 49.6193 101.882 49.1807 101.882 48.658V45.2H103.044ZM111.467 48V49.862C111.467 50.114 111.481 50.3473 111.509 50.562C111.546 50.7767 111.616 50.9633 111.719 51.122C111.822 51.2713 111.966 51.388 112.153 51.472C112.34 51.556 112.587 51.598 112.895 51.598C113.399 51.598 113.814 51.5467 114.141 51.444C114.468 51.332 114.71 51.2153 114.869 51.094V48H115.961V55H114.869V52.032C114.701 52.1347 114.444 52.2467 114.099 52.368C113.763 52.48 113.301 52.536 112.713 52.536C112.321 52.536 111.98 52.4987 111.691 52.424C111.402 52.34 111.159 52.2 110.963 52.004C110.776 51.7987 110.632 51.5327 110.529 51.206C110.436 50.87 110.389 50.45 110.389 49.946V48H111.467ZM126.632 55V45.2H127.724V53.964H129.572V45.2H130.664V53.964H132.512V45.2H133.604V55H126.632ZM135.083 55V48H136.119V54.02H137.995V48H139.031V54.02H140.907V48H141.943V55H135.083ZM151.69 55V45.2H152.782V53.964H154.616V45.2H155.708V53.964H157.556V45.2H158.648V53.964H159.502V56.974H158.522V55H151.69ZM167.784 56.68H166.832V55H160.448V48H161.484V54.02H163.164V48H164.2V54.02H165.88V48H166.916V54.02H167.784V56.68ZM178.539 46.236H176.579V45.2H179.701V49.008C179.804 48.9893 179.962 48.966 180.177 48.938C180.392 48.91 180.606 48.896 180.821 48.896C181.334 48.896 181.801 48.9567 182.221 49.078C182.641 49.19 183 49.3673 183.299 49.61C183.598 49.8433 183.826 50.1467 183.985 50.52C184.153 50.8933 184.237 51.332 184.237 51.836C184.237 52.3307 184.158 52.7787 183.999 53.18C183.85 53.5813 183.621 53.9267 183.313 54.216C183.014 54.496 182.641 54.7153 182.193 54.874C181.754 55.0327 181.241 55.112 180.653 55.112C180.569 55.112 180.443 55.1073 180.275 55.098C180.116 55.098 179.939 55.0887 179.743 55.07C179.547 55.0607 179.342 55.042 179.127 55.014C178.912 54.986 178.716 54.9487 178.539 54.902V46.236ZM180.793 54.104C181.558 54.104 182.118 53.908 182.473 53.516C182.828 53.124 183.005 52.592 183.005 51.92C183.005 51.2667 182.809 50.7673 182.417 50.422C182.034 50.0767 181.474 49.904 180.737 49.904C180.522 49.904 180.317 49.918 180.121 49.946C179.934 49.974 179.794 50.002 179.701 50.03V54.02C179.766 54.0387 179.846 54.0527 179.939 54.062C180.032 54.0713 180.13 54.0807 180.233 54.09C180.336 54.09 180.434 54.0947 180.527 54.104C180.63 54.104 180.718 54.104 180.793 54.104ZM188.11 54.062C188.539 54.118 188.926 54.146 189.272 54.146C189.972 54.146 190.485 54.0247 190.812 53.782C191.138 53.53 191.302 53.2033 191.302 52.802C191.302 52.4473 191.143 52.144 190.826 51.892C190.508 51.64 190.009 51.514 189.328 51.514C189.15 51.514 188.95 51.5187 188.726 51.528C188.511 51.5373 188.306 51.5653 188.11 51.612V54.062ZM188.11 50.702C188.362 50.6647 188.6 50.6413 188.824 50.632C189.057 50.6133 189.281 50.604 189.496 50.604C190.037 50.604 190.494 50.66 190.868 50.772C191.25 50.8747 191.558 51.0193 191.792 51.206C192.025 51.3927 192.193 51.612 192.296 51.864C192.408 52.1067 192.464 52.3727 192.464 52.662C192.464 53.5113 192.174 54.1273 191.596 54.51C191.026 54.8927 190.158 55.084 188.992 55.084C188.394 55.084 187.741 55.056 187.032 55V48.952H185.296V48H188.11V50.702ZM208.007 45.2H209.169V55H208.007V45.2ZM202.169 45.2H203.331V48.882C203.396 48.8633 203.513 48.84 203.681 48.812C203.849 48.7747 204.04 48.756 204.255 48.756C204.6 48.756 204.941 48.8027 205.277 48.896C205.613 48.9893 205.916 49.1527 206.187 49.386C206.457 49.6193 206.677 49.9367 206.845 50.338C207.013 50.73 207.097 51.2247 207.097 51.822C207.097 52.4007 207.022 52.8953 206.873 53.306C206.723 53.7167 206.513 54.0573 206.243 54.328C205.972 54.5987 205.645 54.7993 205.263 54.93C204.88 55.0513 204.46 55.112 204.003 55.112C203.881 55.112 203.741 55.1073 203.583 55.098C203.424 55.098 203.261 55.0887 203.093 55.07C202.925 55.0607 202.757 55.042 202.589 55.014C202.43 54.9953 202.29 54.9673 202.169 54.93V45.2ZM204.087 54.076C204.357 54.076 204.605 54.0387 204.829 53.964C205.062 53.88 205.258 53.754 205.417 53.586C205.585 53.4087 205.711 53.1847 205.795 52.914C205.888 52.6433 205.935 52.312 205.935 51.92C205.935 51.5 205.883 51.1547 205.781 50.884C205.687 50.604 205.557 50.3847 205.389 50.226C205.23 50.058 205.039 49.946 204.815 49.89C204.6 49.8247 204.371 49.792 204.129 49.792C203.97 49.792 203.811 49.806 203.653 49.834C203.494 49.8527 203.387 49.8807 203.331 49.918V53.978C203.405 54.0153 203.513 54.0433 203.653 54.062C203.793 54.0713 203.937 54.076 204.087 54.076ZM211.641 54.02C211.987 54.076 212.318 54.104 212.635 54.104C213.223 54.104 213.634 53.992 213.867 53.768C214.101 53.5347 214.217 53.208 214.217 52.788C214.217 52.4147 214.101 52.1067 213.867 51.864C213.643 51.6213 213.247 51.5 212.677 51.5C212.519 51.5 212.346 51.5047 212.159 51.514C211.973 51.5233 211.8 51.5513 211.641 51.598V54.02ZM211.641 50.674C211.865 50.6367 212.08 50.6133 212.285 50.604C212.491 50.5853 212.687 50.576 212.873 50.576C213.349 50.576 213.746 50.632 214.063 50.744C214.39 50.8467 214.651 50.9913 214.847 51.178C215.043 51.3647 215.179 51.5887 215.253 51.85C215.337 52.102 215.379 52.3727 215.379 52.662C215.379 53.5113 215.141 54.1273 214.665 54.51C214.199 54.8927 213.438 55.084 212.383 55.084C211.786 55.084 211.165 55.056 210.521 55V48H211.641V50.674ZM216.485 48H217.605V55H216.485V48ZM228.304 45.2H229.466V49.008C229.513 48.9987 229.592 48.9893 229.704 48.98C229.816 48.9613 229.938 48.9473 230.068 48.938C230.199 48.9287 230.334 48.9193 230.474 48.91C230.614 48.9007 230.74 48.896 230.852 48.896C231.3 48.896 231.734 48.9427 232.154 49.036C232.584 49.12 232.962 49.274 233.288 49.498C233.624 49.722 233.895 50.0253 234.1 50.408C234.306 50.7813 234.408 51.2573 234.408 51.836C234.408 52.396 234.31 52.8813 234.114 53.292C233.918 53.7027 233.648 54.0433 233.302 54.314C232.957 54.5847 232.551 54.7853 232.084 54.916C231.627 55.0467 231.128 55.112 230.586 55.112C230.456 55.112 230.297 55.1073 230.11 55.098C229.924 55.098 229.723 55.0887 229.508 55.07C229.303 55.0607 229.093 55.042 228.878 55.014C228.673 54.986 228.482 54.9487 228.304 54.902V45.2ZM230.74 54.104C231.076 54.104 231.389 54.062 231.678 53.978C231.977 53.8847 232.238 53.7493 232.462 53.572C232.686 53.3853 232.859 53.1567 232.98 52.886C233.111 52.606 233.176 52.284 233.176 51.92C233.176 51.528 233.106 51.2013 232.966 50.94C232.826 50.6787 232.64 50.4733 232.406 50.324C232.182 50.1653 231.921 50.058 231.622 50.002C231.324 49.9367 231.016 49.904 230.698 49.904C230.614 49.904 230.512 49.9087 230.39 49.918C230.269 49.9273 230.148 49.9367 230.026 49.946C229.905 49.9553 229.793 49.9693 229.69 49.988C229.588 50.0067 229.513 50.0207 229.466 50.03V54.02C229.597 54.048 229.784 54.0713 230.026 54.09C230.269 54.0993 230.507 54.104 230.74 54.104ZM237.693 54.034C237.796 54.0527 237.917 54.0667 238.057 54.076C238.206 54.0853 238.356 54.0993 238.505 54.118C238.654 54.1273 238.799 54.1367 238.939 54.146C239.079 54.146 239.191 54.146 239.275 54.146C239.975 54.146 240.488 54.0247 240.815 53.782C241.142 53.53 241.305 53.2033 241.305 52.802C241.305 52.4473 241.146 52.144 240.829 51.892C240.512 51.64 240.012 51.514 239.331 51.514C239.023 51.514 238.72 51.5187 238.421 51.528C238.132 51.5373 237.889 51.5653 237.693 51.612V54.034ZM237.693 50.702C237.945 50.6647 238.211 50.6413 238.491 50.632C238.78 50.6133 239.112 50.604 239.485 50.604C240.026 50.604 240.484 50.66 240.857 50.772C241.24 50.8747 241.548 51.0193 241.781 51.206C242.024 51.3927 242.196 51.612 242.299 51.864C242.411 52.1067 242.467 52.3727 242.467 52.662C242.467 53.5113 242.178 54.1273 241.599 54.51C241.03 54.8927 240.157 55.084 238.981 55.084C238.832 55.084 238.654 55.0793 238.449 55.07C238.253 55.0607 238.048 55.0467 237.833 55.028C237.628 55.0187 237.418 55.0093 237.203 55C236.988 54.9813 236.792 54.9627 236.615 54.944V48H237.693V50.702ZM1.064 65.62L1.05 65.578C1.33933 65.41 1.694 65.2793 2.114 65.186C2.54333 65.0833 3.00067 65.032 3.486 65.032C4.08333 65.032 4.62933 65.1253 5.124 65.312C5.628 65.4987 6.05733 65.7973 6.412 66.208C6.776 66.6093 7.056 67.132 7.252 67.776C7.45733 68.42 7.56 69.1947 7.56 70.1C7.56 71.0147 7.44333 71.794 7.21 72.438C6.986 73.082 6.67333 73.6093 6.272 74.02C5.88 74.4213 5.418 74.7153 4.886 74.902C4.354 75.0793 3.78933 75.168 3.192 75.168C2.95867 75.168 2.72067 75.1447 2.478 75.098C2.24467 75.0607 2.02067 75.014 1.806 74.958C1.60067 74.8927 1.40933 74.8273 1.232 74.762C1.064 74.6873 0.933333 74.622 0.84 74.566V72.494H1.876V73.894C2.08133 73.9687 2.31 74.0387 2.562 74.104C2.82333 74.16 3.11267 74.188 3.43 74.188C3.794 74.188 4.15333 74.1227 4.508 73.992C4.86267 73.8613 5.18 73.6513 5.46 73.362C5.74 73.0727 5.964 72.6947 6.132 72.228C6.30933 71.7613 6.398 71.1873 6.398 70.506H2.926V69.47H6.384C6.36533 68.8633 6.27667 68.3453 6.118 67.916C5.95933 67.4773 5.74467 67.118 5.474 66.838C5.20333 66.558 4.886 66.3527 4.522 66.222C4.16733 66.082 3.77533 66.012 3.346 66.012C3.10333 66.012 2.87933 66.0307 2.674 66.068C2.46867 66.096 2.27733 66.1333 2.1 66.18V67.65H1.064V65.62ZM9.80853 68.35H9.83653C10.1632 68.182 10.5365 68.056 10.9565 67.972C11.3765 67.8787 11.8759 67.832 12.4545 67.832C12.9865 67.832 13.4672 67.9207 13.8965 68.098C14.3259 68.266 14.6945 68.5087 15.0025 68.826C15.3105 69.1433 15.5485 69.5307 15.7165 69.988C15.8845 70.436 15.9685 70.94 15.9685 71.5C15.9685 72.0787 15.8752 72.5967 15.6885 73.054C15.5019 73.5113 15.2405 73.8987 14.9045 74.216C14.5685 74.524 14.1719 74.762 13.7145 74.93C13.2665 75.0887 12.7765 75.168 12.2445 75.168C12.0019 75.168 11.7452 75.1447 11.4745 75.098C11.2039 75.0513 10.9379 74.9907 10.6765 74.916C10.4245 74.832 10.1912 74.734 9.97653 74.622C9.76186 74.5007 9.58453 74.37 9.44453 74.23L9.90653 73.362C10.1772 73.558 10.5132 73.7447 10.9145 73.922C11.3159 74.0993 11.7685 74.188 12.2725 74.188C12.5712 74.188 12.8745 74.146 13.1825 74.062C13.4905 73.9687 13.7659 73.8287 14.0085 73.642C14.2605 73.4553 14.4612 73.222 14.6105 72.942C14.7692 72.6527 14.8485 72.3167 14.8485 71.934H11.5305V71.01H14.8345C14.8065 70.6927 14.7272 70.3987 14.5965 70.128C14.4659 69.848 14.2839 69.61 14.0505 69.414C13.8265 69.2087 13.5512 69.05 13.2245 68.938C12.9072 68.826 12.5479 68.77 12.1465 68.77C11.8759 68.77 11.6239 68.7933 11.3905 68.84C11.1572 68.8773 10.9472 68.9333 10.7605 69.008V70.058H9.80853V68.35ZM26.8356 69.47H27.9976C28.0163 68.8167 28.0769 68.2193 28.1796 67.678C28.2916 67.1367 28.4503 66.67 28.6556 66.278C28.8703 65.886 29.1409 65.5827 29.4676 65.368C29.7943 65.144 30.1816 65.032 30.6296 65.032C31.1056 65.032 31.5069 65.1487 31.8336 65.382C32.1696 65.6153 32.4403 65.9513 32.6456 66.39C32.8603 66.8287 33.0143 67.3607 33.1076 67.986C33.2009 68.6113 33.2476 69.316 33.2476 70.1C33.2476 71.7707 33.0236 73.0353 32.5756 73.894C32.1369 74.7433 31.4416 75.168 30.4896 75.168C30.0509 75.168 29.6776 75.0607 29.3696 74.846C29.0616 74.6313 28.8049 74.3233 28.5996 73.922C28.3943 73.5113 28.2403 73.0213 28.1376 72.452C28.0443 71.8733 27.9929 71.22 27.9836 70.492H26.8356V75H25.6736V65.2H26.8356V69.47ZM29.1596 70.1C29.1596 71.4067 29.2856 72.4053 29.5376 73.096C29.7896 73.7867 30.1396 74.132 30.5876 74.132C31.1383 74.132 31.5256 73.8147 31.7496 73.18C31.9736 72.5453 32.0856 71.5187 32.0856 70.1C32.0856 69.54 32.0623 69.0173 32.0156 68.532C31.9783 68.0373 31.9036 67.608 31.7916 67.244C31.6796 66.88 31.5209 66.5953 31.3156 66.39C31.1196 66.1753 30.8629 66.068 30.5456 66.068C30.2843 66.068 30.0649 66.1613 29.8876 66.348C29.7103 66.5347 29.5656 66.8007 29.4536 67.146C29.3509 67.4913 29.2763 67.916 29.2296 68.42C29.1829 68.9147 29.1596 69.4747 29.1596 70.1ZM38.9961 75.168C38.5295 75.168 38.1375 75.0933 37.8201 74.944C37.5121 74.7853 37.2648 74.566 37.0781 74.286C36.8915 73.9967 36.7561 73.6513 36.6721 73.25C36.5881 72.8487 36.5368 72.4007 36.5181 71.906H35.3841V75H34.2641V68H35.3841V70.926H36.5321C36.5601 70.422 36.6255 69.9787 36.7281 69.596C36.8308 69.2133 36.9801 68.8913 37.1761 68.63C37.3721 68.3687 37.6195 68.1727 37.9181 68.042C38.2261 67.902 38.5948 67.832 39.0241 67.832C39.5001 67.832 39.8921 67.9207 40.2001 68.098C40.5175 68.266 40.7648 68.5133 40.9421 68.84C41.1288 69.1573 41.2595 69.5447 41.3341 70.002C41.4088 70.45 41.4461 70.9493 41.4461 71.5C41.4461 72.676 41.2595 73.5813 40.8861 74.216C40.5221 74.8507 39.8921 75.168 38.9961 75.168ZM37.6101 71.5C37.6101 71.864 37.6241 72.2093 37.6521 72.536C37.6801 72.8627 37.7408 73.1473 37.8341 73.39C37.9275 73.6327 38.0675 73.8287 38.2541 73.978C38.4408 74.118 38.6975 74.188 39.0241 74.188C39.2855 74.188 39.5001 74.1367 39.6681 74.034C39.8361 73.922 39.9621 73.7587 40.0461 73.544C40.1395 73.32 40.2001 73.04 40.2281 72.704C40.2655 72.368 40.2841 71.9667 40.2841 71.5C40.2841 71.136 40.2701 70.7907 40.2421 70.464C40.2235 70.1373 40.1721 69.8527 40.0881 69.61C40.0041 69.3673 39.8735 69.176 39.6961 69.036C39.5281 68.8867 39.2995 68.812 39.0101 68.812C38.7208 68.812 38.4828 68.868 38.2961 68.98C38.1188 69.0827 37.9788 69.246 37.8761 69.47C37.7735 69.6847 37.7035 69.9647 37.6661 70.31C37.6288 70.646 37.6101 71.0427 37.6101 71.5ZM57.3672 75H56.2052V70.954H54.7632L52.3272 75H50.9552L53.6712 70.772C53.4005 70.7067 53.1439 70.604 52.9012 70.464C52.6585 70.324 52.4439 70.142 52.2572 69.918C52.0705 69.694 51.9212 69.4327 51.8092 69.134C51.7065 68.826 51.6552 68.4667 51.6552 68.056C51.6552 67.4867 51.7485 67.0153 51.9352 66.642C52.1312 66.2593 52.3925 65.956 52.7192 65.732C53.0552 65.4987 53.4425 65.3353 53.8812 65.242C54.3292 65.1393 54.8005 65.088 55.2952 65.088C55.6125 65.088 55.9485 65.102 56.3032 65.13C56.6672 65.158 57.0219 65.214 57.3672 65.298V75ZM55.2392 66.096C54.9312 66.096 54.6372 66.1287 54.3572 66.194C54.0772 66.25 53.8252 66.3527 53.6012 66.502C53.3865 66.6513 53.2139 66.852 53.0832 67.104C52.9525 67.356 52.8872 67.6733 52.8872 68.056C52.8872 68.4107 52.9479 68.714 53.0692 68.966C53.1999 69.218 53.3725 69.428 53.5872 69.596C53.8019 69.7547 54.0492 69.8713 54.3292 69.946C54.6185 70.0207 54.9265 70.058 55.2532 70.058H56.2052V66.18C56.0745 66.152 55.9392 66.1333 55.7992 66.124C55.6592 66.1053 55.4725 66.096 55.2392 66.096ZM64.5017 72.27H62.8217L61.0577 75H59.6577V74.062H60.3857L61.6597 72.158C61.4824 72.1113 61.3097 72.0367 61.1417 71.934C60.9737 71.822 60.8197 71.6867 60.6797 71.528C60.5491 71.36 60.4417 71.1687 60.3577 70.954C60.2831 70.73 60.2457 70.4827 60.2457 70.212C60.2457 69.792 60.3297 69.4327 60.4977 69.134C60.6657 68.826 60.8991 68.574 61.1977 68.378C61.4964 68.182 61.8511 68.042 62.2617 67.958C62.6724 67.8647 63.1251 67.818 63.6197 67.818C63.9744 67.818 64.3104 67.846 64.6277 67.902C64.9451 67.9487 65.2671 68 65.5937 68.056V75H64.5017V72.27ZM64.5017 71.43V68.938C64.3711 68.8913 64.2171 68.8493 64.0397 68.812C63.8624 68.7747 63.7084 68.756 63.5777 68.756C62.8684 68.756 62.3271 68.868 61.9537 69.092C61.5804 69.3067 61.3937 69.652 61.3937 70.128C61.3937 70.5107 61.5057 70.8093 61.7297 71.024C61.9537 71.2293 62.2244 71.3647 62.5417 71.43H64.5017ZM1.778 93.992H3.976V86.628L1.736 88.196L1.19 87.398L4.27 85.2H5.054V93.992H7.21V95H1.778V93.992ZM15.3945 87.678C15.3945 88.5367 14.9885 89.4933 14.1765 90.548C13.3645 91.6027 12.2305 92.7507 10.7745 93.992H15.7025V95H9.48653V93.992C9.66386 93.824 9.90653 93.6047 10.2145 93.334C10.5225 93.0633 10.8539 92.7647 11.2085 92.438C11.5632 92.102 11.9225 91.7427 12.2865 91.36C12.6599 90.9773 12.9959 90.5853 13.2945 90.184C13.5932 89.7827 13.8359 89.3813 14.0225 88.98C14.2092 88.5787 14.3025 88.1913 14.3025 87.818C14.3025 87.258 14.1532 86.8193 13.8545 86.502C13.5652 86.1753 13.1265 86.012 12.5385 86.012C12.0345 86.012 11.6099 86.068 11.2645 86.18C10.9192 86.292 10.6065 86.4553 10.3265 86.67L9.85053 85.9C10.2705 85.6013 10.7139 85.382 11.1805 85.242C11.6565 85.102 12.1745 85.032 12.7345 85.032C13.6119 85.032 14.2745 85.27 14.7225 85.746C15.1705 86.222 15.3945 86.866 15.3945 87.678ZM20.2611 94.202C20.6344 94.202 20.9751 94.1553 21.2831 94.062C21.6004 93.9593 21.8757 93.8193 22.1091 93.642C22.3424 93.4647 22.5244 93.25 22.6551 92.998C22.7857 92.746 22.8511 92.466 22.8511 92.158C22.8511 91.514 22.6224 91.0567 22.1651 90.786C21.7171 90.506 21.1104 90.366 20.3451 90.366H19.4491V89.694L22.2071 86.208H18.0211V85.2H23.5511V86.208L20.7931 89.442H21.0171C21.4464 89.442 21.8384 89.5027 22.1931 89.624C22.5477 89.7453 22.8557 89.918 23.1171 90.142C23.3784 90.366 23.5791 90.6367 23.7191 90.954C23.8684 91.2713 23.9431 91.6307 23.9431 92.032C23.9431 92.536 23.8451 92.984 23.6491 93.376C23.4531 93.768 23.1871 94.0993 22.8511 94.37C22.5151 94.6313 22.1184 94.832 21.6611 94.972C21.2131 95.1027 20.7324 95.168 20.2191 95.168C19.7431 95.168 19.3277 95.1307 18.9731 95.056C18.6277 94.9907 18.3104 94.9067 18.0211 94.804L18.3011 93.824C18.5437 93.936 18.8284 94.0293 19.1551 94.104C19.4817 94.1693 19.8504 94.202 20.2611 94.202ZM33.3036 91.948H31.4136V95H30.3216V91.948H25.7996V91.136L30.4896 85.2H31.4136V91.024H33.3036V91.948ZM30.3216 86.95L27.0876 91.024H30.3216V86.95ZM37.1621 94.188C37.5168 94.188 37.8435 94.146 38.1421 94.062C38.4408 93.9687 38.6928 93.8333 38.8981 93.656C39.1128 93.4693 39.2761 93.2407 39.3881 92.97C39.5095 92.6993 39.5701 92.382 39.5701 92.018C39.5701 91.346 39.3275 90.8373 38.8421 90.492C38.3661 90.1373 37.7128 89.96 36.8821 89.96L35.5661 90.03V85.2H40.3681V86.208H36.6161V89.05L37.3161 89.022C38.3521 89.022 39.1688 89.274 39.7661 89.778C40.3635 90.282 40.6621 91.0007 40.6621 91.934C40.6621 92.4567 40.5688 92.9187 40.3821 93.32C40.2048 93.7213 39.9575 94.062 39.6401 94.342C39.3228 94.6127 38.9448 94.818 38.5061 94.958C38.0768 95.098 37.6055 95.168 37.0921 95.168C36.8121 95.168 36.5461 95.1447 36.2941 95.098C36.0421 95.0607 35.8135 95.014 35.6081 94.958C35.4028 94.8927 35.2208 94.8273 35.0621 94.762C34.9128 94.6873 34.8055 94.622 34.7401 94.566L35.1881 93.656C35.3468 93.7493 35.5895 93.8613 35.9161 93.992C36.2428 94.1227 36.6581 94.188 37.1621 94.188ZM49.5187 92.046C49.5187 92.4473 49.444 92.8347 49.2947 93.208C49.1547 93.5813 48.9447 93.9127 48.6647 94.202C48.3847 94.4913 48.0393 94.7247 47.6287 94.902C47.218 95.0793 46.742 95.168 46.2007 95.168C45.6967 95.168 45.2393 95.0887 44.8287 94.93C44.418 94.7713 44.0633 94.5473 43.7647 94.258C43.466 93.9593 43.2327 93.5953 43.0647 93.166C42.906 92.7367 42.8267 92.256 42.8267 91.724C42.8267 90.8467 42.9527 90.016 43.2047 89.232C43.466 88.448 43.8253 87.7573 44.2827 87.16C44.7493 86.5627 45.3 86.0773 45.9347 85.704C46.5787 85.3307 47.2833 85.1067 48.0487 85.032L48.2447 85.928C47.6567 86.0027 47.1153 86.1753 46.6207 86.446C46.1353 86.7167 45.7107 87.0527 45.3467 87.454C44.9827 87.8553 44.684 88.2987 44.4507 88.784C44.2267 89.2693 44.082 89.764 44.0167 90.268C44.0913 90.1467 44.1987 90.0207 44.3387 89.89C44.488 89.7593 44.6607 89.6473 44.8567 89.554C45.062 89.4513 45.286 89.3673 45.5287 89.302C45.7807 89.2367 46.0513 89.204 46.3407 89.204C46.8353 89.204 47.2787 89.274 47.6707 89.414C48.0627 89.5447 48.394 89.736 48.6647 89.988C48.9447 90.2307 49.1547 90.5293 49.2947 90.884C49.444 91.2293 49.5187 91.6167 49.5187 92.046ZM48.3707 92.158C48.3707 91.5047 48.1887 91.0053 47.8247 90.66C47.4607 90.3147 46.9007 90.142 46.1447 90.142C45.874 90.142 45.622 90.1747 45.3887 90.24C45.1553 90.3053 44.9453 90.394 44.7587 90.506C44.572 90.6087 44.4087 90.73 44.2687 90.87C44.1287 91.01 44.0213 91.15 43.9467 91.29C43.928 91.4207 43.9187 91.5233 43.9187 91.598C43.9187 91.6727 43.9187 91.7613 43.9187 91.864C43.9187 92.144 43.9653 92.4287 44.0587 92.718C44.152 92.998 44.292 93.25 44.4787 93.474C44.6747 93.698 44.9173 93.88 45.2067 94.02C45.496 94.16 45.8367 94.23 46.2287 94.23C46.546 94.23 46.8353 94.174 47.0967 94.062C47.358 93.95 47.582 93.8007 47.7687 93.614C47.9647 93.4273 48.114 93.208 48.2167 92.956C48.3193 92.704 48.3707 92.438 48.3707 92.158ZM52.1032 95L56.3872 86.208H51.3332V85.2H57.5212V86.11L53.2512 95H52.1032ZM59.8117 92.62C59.8117 91.4907 60.4977 90.5807 61.8697 89.89C61.6084 89.75 61.3657 89.6053 61.1417 89.456C60.9177 89.3067 60.7217 89.1387 60.5537 88.952C60.3951 88.7653 60.2691 88.5507 60.1757 88.308C60.0824 88.0653 60.0357 87.7853 60.0357 87.468C60.0357 87.1227 60.1057 86.8007 60.2457 86.502C60.3857 86.2033 60.5864 85.9467 60.8477 85.732C61.1091 85.5173 61.4264 85.3493 61.7997 85.228C62.1731 85.0973 62.5884 85.032 63.0457 85.032C63.4751 85.032 63.8624 85.088 64.2077 85.2C64.5624 85.312 64.8611 85.4707 65.1037 85.676C65.3557 85.872 65.5471 86.1053 65.6777 86.376C65.8084 86.6467 65.8737 86.936 65.8737 87.244C65.8737 87.776 65.7384 88.266 65.4677 88.714C65.2064 89.1527 64.7817 89.554 64.1937 89.918C64.4644 90.058 64.7164 90.2073 64.9497 90.366C65.1831 90.5247 65.3837 90.702 65.5517 90.898C65.7291 91.094 65.8644 91.318 65.9577 91.57C66.0604 91.8127 66.1117 92.0927 66.1117 92.41C66.1117 92.802 66.0417 93.1707 65.9017 93.516C65.7617 93.852 65.5517 94.1413 65.2717 94.384C65.0011 94.6267 64.6651 94.818 64.2637 94.958C63.8624 95.098 63.3957 95.168 62.8637 95.168C62.3691 95.168 61.9304 95.098 61.5477 94.958C61.1651 94.818 60.8431 94.6313 60.5817 94.398C60.3297 94.1647 60.1384 93.894 60.0077 93.586C59.8771 93.278 59.8117 92.956 59.8117 92.62ZM65.0057 92.48C65.0057 92.2093 64.9404 91.9713 64.8097 91.766C64.6884 91.5513 64.5204 91.36 64.3057 91.192C64.1004 91.024 63.8624 90.87 63.5917 90.73C63.3211 90.59 63.0411 90.45 62.7517 90.31C62.0797 90.6367 61.5991 90.996 61.3097 91.388C61.0297 91.78 60.8897 92.1487 60.8897 92.494C60.8897 92.7273 60.9317 92.9513 61.0157 93.166C61.1091 93.3713 61.2397 93.5533 61.4077 93.712C61.5851 93.8707 61.7997 93.9967 62.0517 94.09C62.3131 94.1833 62.6117 94.23 62.9477 94.23C63.2184 94.23 63.4751 94.1927 63.7177 94.118C63.9697 94.0433 64.1891 93.936 64.3757 93.796C64.5717 93.6467 64.7257 93.4647 64.8377 93.25C64.9497 93.026 65.0057 92.7693 65.0057 92.48ZM61.1277 87.426C61.1277 87.6873 61.1884 87.9207 61.3097 88.126C61.4311 88.3313 61.5897 88.518 61.7857 88.686C61.9911 88.8447 62.2244 88.994 62.4857 89.134C62.7471 89.2647 63.0224 89.3953 63.3117 89.526C63.8064 89.1993 64.1751 88.8727 64.4177 88.546C64.6697 88.2193 64.7957 87.86 64.7957 87.468C64.7957 87.2347 64.7444 87.0293 64.6417 86.852C64.5484 86.6653 64.4177 86.5067 64.2497 86.376C64.0911 86.2453 63.9044 86.1473 63.6897 86.082C63.4751 86.0073 63.2511 85.97 63.0177 85.97C62.7191 85.97 62.4531 86.012 62.2197 86.096C61.9864 86.18 61.7904 86.292 61.6317 86.432C61.4731 86.572 61.3471 86.7307 61.2537 86.908C61.1697 87.076 61.1277 87.2487 61.1277 87.426ZM68.0103 88.154C68.0103 87.7247 68.0803 87.3233 68.2203 86.95C68.3603 86.5673 68.5703 86.236 68.8503 85.956C69.1396 85.6667 69.4943 85.4427 69.9143 85.284C70.3343 85.116 70.8243 85.032 71.3843 85.032C71.9069 85.032 72.3736 85.116 72.7843 85.284C73.1949 85.452 73.5403 85.69 73.8203 85.998C74.1096 86.2967 74.3289 86.6653 74.4783 87.104C74.6276 87.5333 74.7023 88.014 74.7023 88.546C74.7023 89.5913 74.5716 90.5107 74.3103 91.304C74.0489 92.0973 73.6849 92.7693 73.2183 93.32C72.7516 93.8707 72.1963 94.3 71.5523 94.608C70.9176 94.916 70.2269 95.1027 69.4803 95.168L69.2703 94.286C69.8863 94.2207 70.4369 94.0713 70.9223 93.838C71.4076 93.6047 71.8276 93.306 72.1823 92.942C72.5369 92.578 72.8263 92.158 73.0503 91.682C73.2743 91.206 73.4283 90.6973 73.5123 90.156C73.3629 90.3147 73.2089 90.45 73.0503 90.562C72.9009 90.6647 72.7329 90.7487 72.5463 90.814C72.3596 90.8793 72.1543 90.926 71.9303 90.954C71.7063 90.982 71.4496 90.996 71.1603 90.996C70.7309 90.996 70.3249 90.9307 69.9423 90.8C69.5596 90.6693 69.2236 90.4827 68.9343 90.24C68.6543 89.988 68.4303 89.6893 68.2623 89.344C68.0943 88.9893 68.0103 88.5927 68.0103 88.154ZM69.1583 88.042C69.1583 88.714 69.3589 89.218 69.7603 89.554C70.1709 89.89 70.7123 90.058 71.3843 90.058C71.9163 90.058 72.3736 89.9787 72.7563 89.82C73.1483 89.652 73.4236 89.4467 73.5823 89.204C73.6009 89.0733 73.6103 88.9707 73.6103 88.896C73.6103 88.812 73.6103 88.7187 73.6103 88.616C73.6103 88.2893 73.5636 87.9673 73.4703 87.65C73.3863 87.3327 73.2509 87.048 73.0643 86.796C72.8776 86.544 72.6349 86.3433 72.3363 86.194C72.0469 86.0353 71.6969 85.956 71.2863 85.956C70.6143 85.956 70.0916 86.138 69.7183 86.502C69.3449 86.866 69.1583 87.3793 69.1583 88.042ZM76.3208 90.1C76.3208 89.3067 76.3908 88.5973 76.5308 87.972C76.6708 87.3373 76.8808 86.8053 77.1608 86.376C77.4408 85.9373 77.7954 85.606 78.2248 85.382C78.6541 85.1487 79.1628 85.032 79.7508 85.032C80.3761 85.032 80.9034 85.144 81.3328 85.368C81.7714 85.592 82.1261 85.9187 82.3968 86.348C82.6674 86.7773 82.8634 87.3093 82.9848 87.944C83.1061 88.5693 83.1668 89.288 83.1668 90.1C83.1668 90.8933 83.0968 91.6073 82.9568 92.242C82.8168 92.8673 82.6068 93.3993 82.3268 93.838C82.0468 94.2673 81.6921 94.5987 81.2628 94.832C80.8334 95.056 80.3248 95.168 79.7368 95.168C79.1208 95.168 78.5934 95.0467 78.1548 94.804C77.7254 94.552 77.3708 94.202 77.0908 93.754C76.8201 93.306 76.6241 92.774 76.5028 92.158C76.3814 91.5327 76.3208 90.8467 76.3208 90.1ZM82.0188 90.1C82.0188 89.6053 81.9908 89.134 81.9348 88.686L77.7768 92.48C77.9354 93.012 78.1734 93.4367 78.4908 93.754C78.8081 94.0713 79.2234 94.23 79.7368 94.23C80.5581 94.23 81.1414 93.8893 81.4868 93.208C81.8414 92.5267 82.0188 91.4907 82.0188 90.1ZM77.4828 90.1C77.4828 90.3333 77.4874 90.5573 77.4968 90.772C77.5154 90.9867 77.5341 91.1967 77.5528 91.402L81.7248 87.622C81.5661 87.118 81.3281 86.7167 81.0108 86.418C80.7028 86.1193 80.2828 85.97 79.7508 85.97C78.9201 85.97 78.3321 86.3153 77.9868 87.006C77.6508 87.6873 77.4828 88.7187 77.4828 90.1Z" fill="#F5F6FF"/>
</svg>
