<svg width="231" height="100" viewBox="0 0 231 100" fill="none" xmlns="http://www.w3.org/2000/svg">
<path d="M5.502 5.2L9.24 15H7.84L6.902 12.592H2.492L1.568 15H0.168L3.906 5.2H5.502ZM4.704 6.81L2.912 11.416H6.482L4.704 6.81ZM11.9608 15.21C11.2328 15.21 10.6541 15.0327 10.2248 14.678C9.80481 14.3233 9.59481 13.838 9.59481 13.222C9.59481 12.914 9.64615 12.6433 9.74881 12.41C9.85148 12.1673 9.98215 11.9667 10.1408 11.808C10.2995 11.6493 10.5141 11.514 10.7848 11.402C11.0648 11.29 11.3261 11.2013 11.5688 11.136C11.8208 11.0707 12.1381 11.024 12.5208 10.996C12.9128 10.9587 13.2441 10.9353 13.5148 10.926C13.7948 10.9167 14.1495 10.9073 14.5788 10.898V10.324C14.5788 9.316 14.0188 8.812 12.8988 8.812C12.0681 8.812 11.3215 9.106 10.6588 9.694L9.97281 8.924C10.8035 8.168 11.8161 7.79 13.0108 7.79C13.5801 7.79 14.0608 7.86467 14.4528 8.014C14.8541 8.16333 15.1481 8.36867 15.3348 8.63C15.5215 8.882 15.6521 9.134 15.7268 9.386C15.8015 9.638 15.8388 9.90867 15.8388 10.198V15H14.5788V13.768C13.8135 14.7293 12.9408 15.21 11.9608 15.21ZM12.2688 14.244C13.1461 14.244 13.9161 13.7447 14.5788 12.746V11.71C13.6828 11.71 12.9361 11.7613 12.3388 11.864C12.1521 11.892 11.9655 11.9433 11.7788 12.018C11.5921 12.0927 11.4008 12.2327 11.2048 12.438C11.0181 12.634 10.9248 12.8673 10.9248 13.138C10.9248 13.5207 11.0601 13.8007 11.3308 13.978C11.6108 14.1553 11.9235 14.244 12.2688 14.244ZM22.6997 13.838H24.9957C25.6117 13.838 26.0784 13.6793 26.3957 13.362C26.7224 13.0353 26.8857 12.6013 26.8857 12.06C26.8857 11.5187 26.7224 11.0893 26.3957 10.772C26.0784 10.4453 25.6117 10.282 24.9957 10.282H22.6997V13.838ZM27.5997 5.2V6.376H22.6997V9.106H25.2057C26.1297 9.106 26.881 9.386 27.4597 9.946C28.0477 10.506 28.3417 11.2153 28.3417 12.074C28.3417 12.942 28.0664 13.6467 27.5157 14.188C26.965 14.7293 26.195 15 25.2057 15H21.2997V5.2H27.5997ZM36.4047 5.9C36.0034 5.99333 35.5507 6.09133 35.0467 6.194C34.552 6.29667 34.1507 6.376 33.8427 6.432C33.544 6.488 33.2127 6.56267 32.8487 6.656C32.494 6.74933 32.214 6.84733 32.0087 6.95C31.8034 7.05267 31.5887 7.188 31.3647 7.356C31.15 7.524 30.982 7.72 30.8607 7.944C30.7487 8.168 30.6507 8.44333 30.5667 8.77C30.4827 9.09667 30.4314 9.47467 30.4127 9.904C30.6647 9.32533 31.0614 8.882 31.6027 8.574C32.144 8.266 32.7274 8.112 33.3527 8.112C34.3607 8.112 35.2054 8.42467 35.8867 9.05C36.5774 9.666 36.9227 10.506 36.9227 11.57C36.9227 12.6247 36.5867 13.4973 35.9147 14.188C35.252 14.8693 34.356 15.21 33.2267 15.21C32.0134 15.21 31.08 14.8273 30.4267 14.062C29.7827 13.2967 29.4607 12.2047 29.4607 10.786C29.4607 10.1793 29.4794 9.64733 29.5167 9.19C29.5634 8.73267 29.6427 8.33133 29.7547 7.986C29.876 7.63133 29.9974 7.33733 30.1187 7.104C30.24 6.86133 30.422 6.64667 30.6647 6.46C30.9167 6.264 31.15 6.11467 31.3647 6.012C31.5794 5.9 31.8827 5.788 32.2747 5.676C32.676 5.564 33.0354 5.47533 33.3527 5.41C33.67 5.33533 34.104 5.23733 34.6547 5.116C35.2147 4.98533 35.714 4.864 36.1527 4.752C36.3114 5.46133 36.3954 5.844 36.4047 5.9ZM33.2127 14.132C33.922 14.132 34.5054 13.894 34.9627 13.418C35.42 12.9327 35.6487 12.3353 35.6487 11.626C35.6487 10.8607 35.406 10.2587 34.9207 9.82C34.4447 9.372 33.8754 9.148 33.2127 9.148C32.55 9.148 31.9807 9.372 31.5047 9.82C31.0287 10.2587 30.7907 10.8607 30.7907 11.626C30.7907 12.3353 31.0147 12.9327 31.4627 13.418C31.9107 13.894 32.494 14.132 33.2127 14.132ZM48.6903 7.622C48.6903 8.098 48.5503 8.54133 48.2703 8.952C47.9996 9.35333 47.6449 9.66133 47.2063 9.876C47.7569 10.0813 48.2049 10.408 48.5503 10.856C48.8956 11.304 49.0683 11.808 49.0683 12.368C49.0683 13.1053 48.7929 13.7307 48.2423 14.244C47.7009 14.748 47.0196 15 46.1983 15H42.0263V5.2H45.6803C46.5296 5.2 47.2436 5.424 47.8223 5.872C48.4009 6.31067 48.6903 6.894 48.6903 7.622ZM43.4263 13.852H45.9183C46.4036 13.852 46.8143 13.6933 47.1503 13.376C47.4956 13.0493 47.6683 12.648 47.6683 12.172C47.6683 11.7053 47.4956 11.3133 47.1503 10.996C46.8143 10.6693 46.4036 10.506 45.9183 10.506H43.4263V13.852ZM47.3463 7.86C47.3463 7.44933 47.1876 7.09933 46.8703 6.81C46.5529 6.51133 46.1796 6.362 45.7503 6.362H43.4263V9.4H45.7503C46.1796 9.4 46.5529 9.25067 46.8703 8.952C47.1876 8.644 47.3463 8.28 47.3463 7.86ZM56.3053 9.708C56.3053 10.0253 56.2166 10.3287 56.0393 10.618C55.8619 10.9073 55.6239 11.1407 55.3253 11.318C55.7173 11.4673 56.0253 11.7007 56.2493 12.018C56.4826 12.3353 56.5993 12.69 56.5993 13.082C56.5993 13.614 56.4079 14.0667 56.0253 14.44C55.6519 14.8133 55.1619 15 54.5553 15H50.6773V8H54.3873C54.9473 8 55.4046 8.168 55.7593 8.504C56.1233 8.83067 56.3053 9.232 56.3053 9.708ZM51.9233 14.076H54.1213C54.4666 14.076 54.7513 13.978 54.9753 13.782C55.1993 13.5767 55.3113 13.3107 55.3113 12.984C55.3113 12.648 55.1993 12.3773 54.9753 12.172C54.7513 11.9573 54.4666 11.85 54.1213 11.85H51.9233V14.076ZM55.1153 9.89C55.1153 9.60067 55.0033 9.372 54.7793 9.204C54.5646 9.02667 54.3033 8.938 53.9953 8.938H51.9233V10.954H53.9953C54.3033 10.954 54.5646 10.8513 54.7793 10.646C55.0033 10.4407 55.1153 10.1887 55.1153 9.89ZM68.0961 5.2V6.488H63.1821V15H61.7821V5.2H68.0961ZM71.9894 8V9.148H68.0834V15H66.8374V8H71.9894ZM77.2008 15V17.156H75.9128V13.726H76.9068C77.3361 12.9887 77.6581 12.158 77.8728 11.234C78.0968 10.3007 78.2088 9.078 78.2088 7.566V5.2H84.5648V13.726H85.9088V17.156H84.6208V15H77.2008ZM83.1648 13.726V6.488H79.5808V7.972C79.5808 10.296 79.1888 12.214 78.4048 13.726H83.1648ZM87.5175 15V16.974H86.3695V13.908H87.2095C87.4895 13.5067 87.7228 12.9327 87.9095 12.186C88.0962 11.4393 88.1895 10.632 88.1895 9.764V8H93.4535V13.908H94.5315V16.974H93.3135V15H87.5175ZM92.1935 13.908V9.106H89.3935V9.89C89.3935 10.674 89.3095 11.444 89.1415 12.2C88.9735 12.956 88.7775 13.5253 88.5535 13.908H92.1935ZM106.096 13.754V15H99.5438V5.2H105.998V6.46H100.944V9.344H105.41V10.562H100.944V13.754H106.096ZM114.423 11.304C114.423 11.3787 114.413 11.4907 114.395 11.64H108.487C108.543 12.3493 108.795 12.9467 109.243 13.432C109.691 13.908 110.321 14.146 111.133 14.146C111.525 14.146 111.926 14.076 112.337 13.936C112.747 13.7867 113.097 13.5907 113.387 13.348L113.975 14.146C113.62 14.482 113.177 14.7433 112.645 14.93C112.122 15.1167 111.581 15.21 111.021 15.21C109.957 15.21 109.056 14.874 108.319 14.202C107.581 13.53 107.213 12.676 107.213 11.64C107.213 10.576 107.563 9.67067 108.263 8.924C108.972 8.168 109.831 7.79 110.839 7.79C111.959 7.79 112.836 8.13067 113.471 8.812C114.105 9.484 114.423 10.3147 114.423 11.304ZM113.191 10.73C113.097 10.1887 112.845 9.74533 112.435 9.4C112.033 9.04533 111.501 8.868 110.839 8.868C110.279 8.868 109.789 9.04067 109.369 9.386C108.949 9.722 108.669 10.17 108.529 10.73H113.191ZM126.084 13.754V15H119.532V5.2H125.986V6.46H120.932V9.344H125.398V10.562H120.932V13.754H126.084ZM123.718 4.22C123.578 4.07067 123.508 3.88867 123.508 3.674C123.508 3.45933 123.578 3.27733 123.718 3.128C123.867 2.97867 124.054 2.904 124.278 2.904C124.493 2.904 124.675 2.97867 124.824 3.128C124.973 3.27733 125.048 3.45933 125.048 3.674C125.048 3.88867 124.973 4.07067 124.824 4.22C124.675 4.36933 124.493 4.444 124.278 4.444C124.054 4.444 123.867 4.36933 123.718 4.22ZM120.848 4.22C120.708 4.07067 120.638 3.88867 120.638 3.674C120.638 3.45933 120.708 3.27733 120.848 3.128C120.997 2.97867 121.184 2.904 121.408 2.904C121.623 2.904 121.805 2.97867 121.954 3.128C122.103 3.27733 122.178 3.45933 122.178 3.674C122.178 3.88867 122.103 4.07067 121.954 4.22C121.805 4.36933 121.623 4.444 121.408 4.444C121.184 4.444 120.997 4.36933 120.848 4.22ZM128.993 6.726C128.853 6.57667 128.783 6.39467 128.783 6.18C128.783 5.96533 128.853 5.78333 128.993 5.634C129.142 5.47533 129.324 5.396 129.539 5.396C129.754 5.396 129.936 5.47533 130.085 5.634C130.234 5.78333 130.309 5.96533 130.309 6.18C130.309 6.39467 130.234 6.57667 130.085 6.726C129.936 6.866 129.754 6.936 129.539 6.936C129.324 6.936 129.142 6.866 128.993 6.726ZM131.863 6.726C131.723 6.57667 131.653 6.39467 131.653 6.18C131.653 5.96533 131.723 5.78333 131.863 5.634C132.012 5.47533 132.194 5.396 132.409 5.396C132.624 5.396 132.806 5.47533 132.955 5.634C133.104 5.78333 133.179 5.96533 133.179 6.18C133.179 6.39467 133.104 6.57667 132.955 6.726C132.806 6.866 132.624 6.936 132.409 6.936C132.194 6.936 132.012 6.866 131.863 6.726ZM134.411 11.304C134.411 11.3787 134.402 11.4907 134.383 11.64H128.475C128.531 12.3493 128.783 12.9467 129.231 13.432C129.679 13.908 130.309 14.146 131.121 14.146C131.513 14.146 131.914 14.076 132.325 13.936C132.736 13.7867 133.086 13.5907 133.375 13.348L133.963 14.146C133.608 14.482 133.165 14.7433 132.633 14.93C132.11 15.1167 131.569 15.21 131.009 15.21C129.945 15.21 129.044 14.874 128.307 14.202C127.57 13.53 127.201 12.676 127.201 11.64C127.201 10.576 127.551 9.67067 128.251 8.924C128.96 8.168 129.819 7.79 130.827 7.79C131.947 7.79 132.824 8.13067 133.459 8.812C134.094 9.484 134.411 10.3147 134.411 11.304ZM133.179 10.73C133.086 10.1887 132.834 9.74533 132.423 9.4C132.022 9.04533 131.49 8.868 130.827 8.868C130.267 8.868 129.777 9.04067 129.357 9.386C128.937 9.722 128.657 10.17 128.517 10.73H133.179ZM140.668 5.2L143.132 9.288H144.196V5.2H145.596V9.288H146.66L149.138 5.2H150.762C150.398 5.82533 149.871 6.70733 149.18 7.846C148.499 8.97533 148.07 9.694 147.892 10.002L151.154 15H149.418L146.59 10.562H145.596V15H144.196V10.562H143.188L140.374 15H138.638L141.914 9.988L139.044 5.2H140.668ZM155.883 15V11.864H155.071L153.013 15H151.585C152.471 13.7027 153.293 12.4753 154.049 11.318C153.862 11.0473 153.512 10.534 152.999 9.778C152.485 9.01267 152.089 8.42 151.809 8H153.251C154.287 9.57733 154.889 10.4827 155.057 10.716H155.883V8H157.129V10.716H157.941C158.351 10.1187 158.958 9.21333 159.761 8H161.203C160.923 8.42 160.526 9.01267 160.013 9.778C159.499 10.534 159.149 11.0473 158.963 11.318C159.719 12.4753 160.54 13.7027 161.427 15H159.999L157.941 11.864H157.129V15H155.883ZM169.091 13.978C169.67 13.978 170.141 13.81 170.505 13.474C170.869 13.1287 171.051 12.732 171.051 12.284C171.051 11.08 170.496 10.478 169.385 10.478H167.859V9.4H169.455C169.838 9.4 170.211 9.24133 170.575 8.924C170.948 8.60667 171.135 8.21933 171.135 7.762C171.135 7.286 170.953 6.90333 170.589 6.614C170.234 6.32467 169.805 6.18 169.301 6.18C168.722 6.18 168.223 6.26867 167.803 6.446C167.392 6.62333 166.986 6.894 166.585 7.258L165.843 6.278C166.823 5.41933 167.976 4.99 169.301 4.99C170.244 4.99 171 5.228 171.569 5.704C172.148 6.17067 172.437 6.782 172.437 7.538C172.437 8.05133 172.288 8.52267 171.989 8.952C171.7 9.372 171.28 9.68467 170.729 9.89C171.326 10.0393 171.798 10.3427 172.143 10.8C172.498 11.2573 172.675 11.7707 172.675 12.34C172.675 13.1613 172.33 13.8473 171.639 14.398C170.948 14.9393 170.099 15.21 169.091 15.21C167.738 15.21 166.576 14.7853 165.605 13.936L166.333 12.9C167.126 13.6187 168.046 13.978 169.091 13.978ZM175.671 10.954H176.763C177.108 10.954 177.407 10.842 177.659 10.618C177.911 10.394 178.037 10.1327 178.037 9.834C178.037 9.17133 177.579 8.84 176.665 8.84C175.843 8.84 175.171 9.11533 174.649 9.666C174.602 9.61 174.504 9.49333 174.355 9.316C174.205 9.12933 174.093 8.98467 174.019 8.882C174.691 8.154 175.601 7.79 176.749 7.79C177.579 7.79 178.2 7.96733 178.611 8.322C179.031 8.67667 179.241 9.11067 179.241 9.624C179.241 9.988 179.129 10.3287 178.905 10.646C178.681 10.954 178.377 11.192 177.995 11.36C178.433 11.5 178.774 11.7333 179.017 12.06C179.269 12.3773 179.395 12.732 179.395 13.124C179.395 13.7027 179.161 14.1973 178.695 14.608C178.237 15.0093 177.523 15.21 176.553 15.21C175.414 15.21 174.471 14.8507 173.725 14.132L174.355 13.362C174.989 13.922 175.703 14.202 176.497 14.202C177.019 14.202 177.416 14.09 177.687 13.866C177.967 13.642 178.107 13.3573 178.107 13.012C178.107 12.676 177.981 12.4007 177.729 12.186C177.486 11.962 177.169 11.85 176.777 11.85H175.671V10.954ZM190.911 15V7.552L185.969 15H184.569V5.2H185.969V12.676L190.911 5.2H192.311V15H190.911ZM195.656 8V13.278C198.054 10.058 199.366 8.29867 199.59 8H200.878V15H199.618V9.75L195.698 15H194.41V8H195.656ZM210.406 3.478C211.199 3.478 211.904 3.31467 212.52 2.988L213.024 3.954C212.277 4.32733 211.404 4.514 210.406 4.514C209.398 4.514 208.525 4.32733 207.788 3.954L208.292 2.988C208.889 3.31467 209.594 3.478 210.406 3.478ZM212.814 15V7.552L207.872 15H206.472V5.2H207.872V12.676L212.814 5.2H214.214V15H212.814ZM217.67 5.522C218.258 5.802 218.888 5.942 219.56 5.942C220.232 5.942 220.853 5.802 221.422 5.522L221.87 6.362C221.189 6.698 220.419 6.866 219.56 6.866C218.692 6.866 217.917 6.698 217.236 6.362C217.339 6.17533 217.483 5.89533 217.67 5.522ZM217.572 8V13.278C217.796 12.9793 219.107 11.22 221.506 8H222.794V15H221.534V9.75L217.614 15H216.312V8H217.572ZM7.392 35L2.688 29.946L7.154 25.2H8.722L4.256 29.946L9.086 35H7.392ZM1.12 35V25.2H2.52V35H1.12ZM14.9952 35L11.6912 31.346L14.8552 28H16.3952L13.0912 31.346L16.5352 35H14.9952ZM10.2632 28H11.5092V35H10.2632V28ZM20.3197 35V33.726H20.6837C21.365 33.726 21.855 33.376 22.1537 32.676C22.4524 31.976 22.6017 30.744 22.6017 28.98V25.2H28.9577V35H27.5577V26.488H23.9597V29.162C23.9597 30.0673 23.9037 30.8653 23.7917 31.556C23.6797 32.2467 23.5257 32.8067 23.3297 33.236C23.143 33.6653 22.9097 34.0153 22.6297 34.286C22.3497 34.5567 22.0557 34.7433 21.7477 34.846C21.449 34.9487 21.113 35 20.7397 35H20.3197ZM30.2181 35V33.978H30.6941C31.1328 33.978 31.4361 33.754 31.6041 33.306C31.7721 32.858 31.8561 32.0367 31.8561 30.842V28H37.3861V35H36.1261V29.106H33.1021V31.164C33.1021 33.7213 32.3461 35 30.8341 35H30.2181ZM44.3553 25.2L47.5473 30.184L50.7393 25.2H52.1113V35H50.7953V27.258L47.8553 31.85H47.2393L44.3133 27.258V35H42.9833V25.2H44.3553ZM57.9846 31.598C58.3019 31.1313 58.7593 30.464 59.3566 29.596C59.9539 28.728 60.3179 28.196 60.4486 28H61.7786V35H60.5326V29.778C60.3086 30.0953 60.0706 30.436 59.8186 30.8C59.5666 31.164 59.2866 31.57 58.9786 32.018C58.6706 32.466 58.4326 32.8113 58.2646 33.054H57.7046L55.4506 29.778V35H54.2046V28H55.5346L57.9846 31.598ZM73.6179 35V30.562H68.7739V35H67.3739V25.2H68.7739V29.288H73.6179V25.2H75.0179V35H73.6179ZM82.2987 31.948H78.3647V35H77.1187V28H78.3647V30.814H82.2987V28H83.5587V35H82.2987V31.948ZM93.8152 26.334C92.6765 26.334 91.7572 26.6933 91.0572 27.412C90.3572 28.1307 90.0072 29.0267 90.0072 30.1C90.0072 31.1827 90.3572 32.0833 91.0572 32.802C91.7572 33.5207 92.6765 33.88 93.8152 33.88C94.9539 33.88 95.8685 33.5207 96.5592 32.802C97.2592 32.0833 97.6092 31.1827 97.6092 30.1C97.6092 29.0267 97.2592 28.1307 96.5592 27.412C95.8592 26.6933 94.9445 26.334 93.8152 26.334ZM97.5952 33.768C96.6619 34.7293 95.4019 35.21 93.8152 35.21C92.2285 35.21 90.9639 34.7293 90.0212 33.768C89.0879 32.7973 88.6212 31.5747 88.6212 30.1C88.6212 28.6347 89.0879 27.4167 90.0212 26.446C90.9639 25.4753 92.2285 24.99 93.8152 24.99C95.4019 24.99 96.6619 25.4753 97.5952 26.446C98.5379 27.4167 99.0092 28.6347 99.0092 30.1C99.0092 31.5747 98.5379 32.7973 97.5952 33.768ZM103.898 34.118C104.626 34.118 105.237 33.866 105.732 33.362C106.226 32.8487 106.474 32.228 106.474 31.5C106.474 30.7907 106.226 30.1793 105.732 29.666C105.237 29.1527 104.626 28.896 103.898 28.896C103.17 28.896 102.554 29.1527 102.05 29.666C101.555 30.1793 101.308 30.7907 101.308 31.5C101.308 32.228 101.555 32.8487 102.05 33.362C102.544 33.866 103.16 34.118 103.898 34.118ZM106.628 34.146C105.918 34.8553 105.008 35.21 103.898 35.21C102.787 35.21 101.872 34.8553 101.154 34.146C100.444 33.4273 100.09 32.5453 100.09 31.5C100.09 30.464 100.444 29.5867 101.154 28.868C101.872 28.1493 102.787 27.79 103.898 27.79C105.008 27.79 105.918 28.1493 106.628 28.868C107.337 29.5867 107.692 30.464 107.692 31.5C107.692 32.5453 107.337 33.4273 106.628 34.146ZM119.05 35V26.488H114.206V35H112.806V25.2H120.45V35H119.05ZM127.758 29.106H123.796V35H122.55V28H129.018V35H127.758V29.106ZM139.512 31.318V35H138.112V25.2H141.808C142.816 25.2 143.614 25.4893 144.202 26.068C144.79 26.6373 145.084 27.37 145.084 28.266C145.084 29.1433 144.781 29.8713 144.174 30.45C143.568 31.0287 142.779 31.318 141.808 31.318H139.512ZM141.738 26.488H139.512V30.044H141.738C142.354 30.044 142.83 29.8807 143.166 29.554C143.512 29.2273 143.684 28.7933 143.684 28.252C143.684 27.72 143.512 27.2953 143.166 26.978C142.83 26.6513 142.354 26.488 141.738 26.488ZM149.953 35.21C148.963 35.21 148.156 34.8367 147.531 34.09V37.856H146.285V28H147.531V28.924C148.165 28.1867 148.987 27.818 149.995 27.818C150.993 27.818 151.819 28.1773 152.473 28.896C153.135 29.6147 153.467 30.4827 153.467 31.5C153.467 32.536 153.131 33.4133 152.459 34.132C151.796 34.8507 150.961 35.21 149.953 35.21ZM149.589 28.938C148.739 28.938 148.053 29.2833 147.531 29.974V33.04C148.044 33.7307 148.73 34.076 149.589 34.076C150.298 34.076 150.9 33.824 151.395 33.32C151.889 32.816 152.137 32.2093 152.137 31.5C152.137 30.8 151.885 30.198 151.381 29.694C150.886 29.19 150.289 28.938 149.589 28.938ZM163.241 33.922C164.417 33.922 165.402 33.5627 166.195 32.844L166.923 33.936C165.952 34.7853 164.725 35.21 163.241 35.21C161.654 35.21 160.39 34.7293 159.447 33.768C158.514 32.7973 158.047 31.5747 158.047 30.1C158.047 28.6347 158.514 27.4167 159.447 26.446C160.39 25.4753 161.654 24.99 163.241 24.99C164.716 24.99 165.943 25.4193 166.923 26.278L166.195 27.37C165.402 26.6513 164.417 26.292 163.241 26.292C162.112 26.292 161.202 26.656 160.511 27.384C159.83 28.112 159.489 29.0173 159.489 30.1C159.489 31.1733 159.83 32.0787 160.511 32.816C161.202 33.5533 162.112 33.922 163.241 33.922ZM168.874 31.5C168.874 32.228 169.107 32.8347 169.574 33.32C170.041 33.796 170.633 34.034 171.352 34.034C172.089 34.034 172.766 33.768 173.382 33.236C173.41 33.2733 173.508 33.404 173.676 33.628C173.853 33.8427 173.984 34.0107 174.068 34.132C173.321 34.8507 172.402 35.21 171.31 35.21C170.283 35.21 169.415 34.8413 168.706 34.104C168.006 33.3667 167.656 32.4987 167.656 31.5C167.656 30.5107 168.006 29.6473 168.706 28.91C169.415 28.1633 170.283 27.79 171.31 27.79C172.393 27.79 173.312 28.154 174.068 28.882C173.984 29.0033 173.853 29.176 173.676 29.4C173.508 29.6147 173.41 29.7407 173.382 29.778C172.766 29.246 172.089 28.98 171.352 28.98C170.652 28.98 170.064 29.2227 169.588 29.708C169.112 30.1933 168.874 30.7907 168.874 31.5ZM185.765 25.2V26.488H182.727V35H181.327V26.488H178.289V25.2H185.765ZM190.737 28V29.148H188.245V35H186.999V29.148H184.507V28H190.737ZM198.571 35H196.989L198.207 32.508L194.609 25.2H196.205L198.977 30.926L201.791 25.2H203.331L198.571 35ZM210.379 28C209.913 29.092 209.208 30.7347 208.265 32.928C207.323 35.112 206.618 36.7547 206.151 37.856H204.835L206.039 34.986L203.071 28H204.471C205.461 30.408 206.207 32.214 206.711 33.418L209.007 28H210.379ZM5.124 55V53.95H4.746C3.50467 53.95 2.50133 53.572 1.736 52.816C0.970667 52.0507 0.588 51.08 0.588 49.904C0.588 48.7187 0.970667 47.748 1.736 46.992C2.50133 46.236 3.50467 45.858 4.746 45.858H5.124V44.92H6.524V45.858H6.902C8.14333 45.858 9.14667 46.2407 9.912 47.006C10.6773 47.762 11.06 48.728 11.06 49.904C11.06 51.0987 10.6773 52.074 9.912 52.83C9.14667 53.5767 8.14333 53.95 6.902 53.95H6.524V55H5.124ZM6.874 52.704C7.75133 52.704 8.44667 52.4427 8.96 51.92C9.47333 51.388 9.73 50.716 9.73 49.904C9.73 49.1013 9.47333 48.434 8.96 47.902C8.44667 47.37 7.75133 47.104 6.874 47.104H6.524V52.704H6.874ZM4.774 52.704H5.124V47.104H4.774C3.89667 47.104 3.20133 47.37 2.688 47.902C2.17467 48.434 1.918 49.1013 1.918 49.904C1.918 50.716 2.17467 51.388 2.688 51.92C3.20133 52.4427 3.89667 52.704 4.774 52.704ZM17.8644 55.21H17.4584V57.856H16.1984V55.21H15.7784C14.7611 55.21 13.8978 54.846 13.1884 54.118C12.4884 53.39 12.1384 52.5173 12.1384 51.5C12.1384 50.4827 12.4931 49.61 13.2024 48.882C13.9118 48.154 14.7704 47.79 15.7784 47.79H16.1984V45.06H17.4584V47.79H17.8644C18.8724 47.79 19.7311 48.154 20.4404 48.882C21.1498 49.61 21.5044 50.4827 21.5044 51.5C21.5044 52.5267 21.1498 53.404 20.4404 54.132C19.7404 54.8507 18.8818 55.21 17.8644 55.21ZM17.6684 54.076C18.3684 54.076 18.9658 53.824 19.4604 53.32C19.9644 52.816 20.2164 52.2093 20.2164 51.5C20.2164 50.8 19.9644 50.198 19.4604 49.694C18.9658 49.19 18.3684 48.938 17.6684 48.938H17.4584V54.076H17.6684ZM16.1984 48.938H15.9744C15.2744 48.938 14.6771 49.19 14.1824 49.694C13.6878 50.198 13.4404 50.8 13.4404 51.5C13.4404 52.2093 13.6878 52.816 14.1824 53.32C14.6771 53.824 15.2744 54.076 15.9744 54.076H16.1984V48.938ZM32.988 55L30.216 51.178L27.43 55H25.75L29.362 50.002L25.89 45.2H27.57L30.216 48.84L32.848 45.2H34.528L31.042 50.002L34.668 55H32.988ZM40.756 55C40.672 54.8973 40.378 54.524 39.874 53.88C39.37 53.2267 38.9873 52.7273 38.726 52.382L36.71 55H35.114L37.886 51.486L35.156 48H36.738L38.726 50.632L40.714 48H42.31C41.6753 48.7747 40.7326 49.9367 39.482 51.486L42.338 55H40.756ZM53.3972 53.726V45.2H54.7972V53.726H56.1272V57.156H54.8532V55H47.1532V45.2H48.5532V53.726H53.3972ZM58.6362 53.908H62.5982V48H63.8582V53.908H64.9362V56.974H63.7182V55H57.3902V48H58.6362V53.908ZM69.3432 48.252V45.2H70.7432V48.252C70.7432 48.9147 70.9345 49.4 71.3172 49.708C71.7092 50.0067 72.2272 50.156 72.8712 50.156C73.5712 50.156 74.3272 50.0627 75.1392 49.876V45.2H76.5392V55H75.1392V51.15C74.2339 51.3273 73.4405 51.416 72.7592 51.416C71.7699 51.416 70.9532 51.15 70.3092 50.618C69.6652 50.086 69.3432 49.2973 69.3432 48.252ZM78.1463 50.296V48H79.3923V50.142C79.3923 50.6087 79.5323 50.954 79.8123 51.178C80.1016 51.402 80.4843 51.514 80.9603 51.514C81.5203 51.514 82.1409 51.444 82.8223 51.304V48H84.0683V55H82.8223V52.41C82.0383 52.5407 81.3709 52.606 80.8203 52.606C79.9896 52.606 79.3363 52.4147 78.8603 52.032C78.3843 51.64 78.1463 51.0613 78.1463 50.296ZM95.3987 53.726V45.2H96.7987V53.726H101.111V45.2H102.511V55H89.6727V45.2H91.0727V53.726H95.3987ZM105.859 53.908H108.939V48H110.199V53.908H113.279V48H114.539V55H104.613V48H105.859V53.908ZM120.134 55V45.2H121.534V53.726H125.86V45.2H127.26V53.726H131.572V45.2H132.972V53.726H134.302V57.156H133.028V55H120.134ZM136.812 53.908H139.892V48H141.152V53.908H144.232V48H145.492V53.908H146.626V56.848H145.478V55H135.566V48H136.812V53.908ZM155.079 45.2V48.896H157.235C158.215 48.896 159.022 49.19 159.657 49.778C160.291 50.366 160.609 51.094 160.609 51.962C160.609 52.7927 160.338 53.4833 159.797 54.034C159.255 54.5847 158.509 54.8927 157.557 54.958C157.183 54.986 156.801 55 156.409 55H153.679V46.474H150.753V45.2H155.079ZM155.079 53.726H157.277C157.893 53.726 158.369 53.5673 158.705 53.25C159.041 52.9233 159.209 52.494 159.209 51.962C159.209 51.4207 159.036 50.9867 158.691 50.66C158.355 50.3333 157.883 50.17 157.277 50.17H155.079V53.726ZM161.236 48H164.722V50.506H166.864C167.592 50.506 168.175 50.7347 168.614 51.192C169.052 51.64 169.272 52.1627 169.272 52.76C169.272 53.3667 169.052 53.894 168.614 54.342C168.184 54.7807 167.601 55 166.864 55H163.462V49.148H161.236V48ZM164.722 53.978H166.752C167.106 53.978 167.4 53.8707 167.634 53.656C167.876 53.432 167.998 53.1333 167.998 52.76C167.998 52.3867 167.876 52.088 167.634 51.864C167.4 51.64 167.106 51.528 166.752 51.528H164.722V53.978ZM175.715 53.726H177.913C178.529 53.726 179.005 53.5673 179.341 53.25C179.677 52.9327 179.845 52.5033 179.845 51.962C179.845 51.4207 179.677 50.9867 179.341 50.66C179.005 50.3333 178.529 50.17 177.913 50.17H175.715V53.726ZM175.715 45.2V48.896H177.871C178.833 48.896 179.635 49.19 180.279 49.778C180.923 50.366 181.245 51.094 181.245 51.962C181.245 52.8393 180.933 53.5673 180.307 54.146C179.691 54.7153 178.879 55 177.871 55H174.315V45.2H175.715ZM182.351 55V45.2H183.751V55H182.351ZM187.097 50.506H189.239C189.967 50.506 190.55 50.73 190.989 51.178C191.428 51.6167 191.647 52.144 191.647 52.76C191.647 53.3667 191.428 53.894 190.989 54.342C190.56 54.7807 189.976 55 189.239 55H185.851V48H187.097V50.506ZM187.097 53.978H189.127C189.482 53.978 189.776 53.8707 190.009 53.656C190.252 53.432 190.373 53.1333 190.373 52.76C190.373 52.3867 190.252 52.088 190.009 51.864C189.776 51.64 189.482 51.528 189.127 51.528H187.097V53.978ZM192.557 55V48H193.817V55H192.557ZM200.817 53.726H203.015C203.631 53.726 204.107 53.5673 204.443 53.25C204.779 52.9327 204.947 52.5033 204.947 51.962C204.947 51.4207 204.779 50.9867 204.443 50.66C204.107 50.3333 203.631 50.17 203.015 50.17H200.817V53.726ZM200.817 45.2V48.896H202.973C203.934 48.896 204.737 49.19 205.381 49.778C206.025 50.366 206.347 51.094 206.347 51.962C206.347 52.8393 206.034 53.5673 205.409 54.146C204.793 54.7153 203.981 55 202.973 55H199.417V45.2H200.817ZM209.068 50.506H211.21C211.938 50.506 212.521 50.73 212.96 51.178C213.398 51.6167 213.618 52.144 213.618 52.76C213.618 53.3667 213.398 53.894 212.96 54.342C212.53 54.7807 211.947 55 211.21 55H207.822V48H209.068V50.506ZM209.068 53.978H211.098C211.452 53.978 211.746 53.8707 211.98 53.656C212.222 53.432 212.344 53.1333 212.344 52.76C212.344 52.3867 212.222 52.088 211.98 51.864C211.746 51.64 211.452 51.528 211.098 51.528H209.068V53.978ZM3.976 73.992C5.04933 73.992 5.91733 73.6653 6.58 73.012C7.24267 72.3493 7.60667 71.514 7.672 70.506H2.296V69.344H7.644C7.51333 68.4293 7.12133 67.6827 6.468 67.104C5.824 66.516 4.99333 66.222 3.976 66.222C2.78133 66.222 1.792 66.5767 1.008 67.286L0.28 66.278C1.26 65.4193 2.492 64.99 3.976 64.99C5.56267 64.99 6.82267 65.4753 7.756 66.446C8.69867 67.4167 9.17 68.6347 9.17 70.1C9.17 71.5747 8.69867 72.7973 7.756 73.768C6.82267 74.7293 5.56267 75.21 3.976 75.21C2.48267 75.21 1.25067 74.7853 0.28 73.936L1.008 72.928C1.792 73.6373 2.78133 73.992 3.976 73.992ZM11.8197 72.004V71.052H15.3057C15.2311 70.4267 14.9697 69.9133 14.5217 69.512C14.0831 69.1107 13.5417 68.91 12.8977 68.91C12.1417 68.91 11.4557 69.1667 10.8397 69.68C10.7651 69.5867 10.6531 69.4513 10.5037 69.274C10.3637 69.0967 10.2564 68.966 10.1817 68.882C10.9284 68.154 11.8431 67.79 12.9257 67.79C13.9524 67.79 14.8157 68.1633 15.5157 68.91C16.2251 69.6473 16.5797 70.5107 16.5797 71.5C16.5797 72.4987 16.2251 73.3667 15.5157 74.104C14.8157 74.8413 13.9524 75.21 12.9257 75.21C11.8337 75.21 10.9191 74.8507 10.1817 74.132C10.2564 74.048 10.3684 73.9173 10.5177 73.74C10.6671 73.5533 10.7744 73.418 10.8397 73.334C11.4557 73.8473 12.1417 74.104 12.8977 74.104C13.5417 74.104 14.0784 73.908 14.5077 73.516C14.9464 73.124 15.2077 72.62 15.2917 72.004H11.8197ZM29.6358 75.21C28.1331 75.21 26.9198 74.776 25.9958 73.908C25.0811 73.04 24.5725 71.9247 24.4698 70.562H23.0278V75H21.6278V65.2H23.0278V69.288H24.5258C24.6938 68.0187 25.2305 66.9873 26.1358 66.194C27.0411 65.3913 28.2078 64.99 29.6358 64.99C31.2225 64.99 32.4825 65.4753 33.4158 66.446C34.3585 67.4167 34.8298 68.6347 34.8298 70.1C34.8298 71.5747 34.3585 72.7973 33.4158 73.768C32.4825 74.7293 31.2225 75.21 29.6358 75.21ZM29.6358 66.334C28.5065 66.334 27.5918 66.6933 26.8918 67.412C26.1918 68.1307 25.8418 69.0267 25.8418 70.1C25.8418 71.1827 26.1871 72.0833 26.8778 72.802C27.5778 73.5207 28.4971 73.88 29.6358 73.88C30.7745 73.88 31.6938 73.5207 32.3938 72.802C33.0938 72.0833 33.4438 71.1827 33.4438 70.1C33.4438 69.0267 33.0938 68.1307 32.3938 67.412C31.6938 66.6933 30.7745 66.334 29.6358 66.334ZM42.5218 75.21C41.4858 75.21 40.6178 74.8973 39.9178 74.272C39.2272 73.6373 38.8352 72.8487 38.7418 71.906H37.6498V75H36.4038V68H37.6498V70.884H38.7838C38.9238 69.9973 39.3345 69.26 40.0158 68.672C40.6972 68.084 41.5325 67.79 42.5218 67.79C43.6325 67.79 44.5425 68.1493 45.2518 68.868C45.9612 69.5867 46.3158 70.464 46.3158 71.5C46.3158 72.5453 45.9612 73.4273 45.2518 74.146C44.5425 74.8553 43.6325 75.21 42.5218 75.21ZM42.5218 74.118C43.2498 74.118 43.8612 73.866 44.3558 73.362C44.8505 72.8487 45.0978 72.228 45.0978 71.5C45.0978 70.7907 44.8505 70.1793 44.3558 69.666C43.8612 69.1527 43.2498 68.896 42.5218 68.896C41.7938 68.896 41.1778 69.1527 40.6738 69.666C40.1792 70.1793 39.9318 70.7907 39.9318 71.5C39.9318 72.228 40.1792 72.8487 40.6738 73.362C41.1685 73.866 41.7845 74.118 42.5218 74.118ZM56.6272 75V71.318H55.0032C54.8725 71.5047 54.4898 72.046 53.8552 72.942C53.2298 73.838 52.7492 74.524 52.4132 75H50.8452C51.1438 74.58 51.5918 73.9453 52.1892 73.096C52.7865 72.2467 53.2392 71.6073 53.5472 71.178C52.7818 71.038 52.1752 70.702 51.7272 70.17C51.2792 69.638 51.0552 69.0033 51.0552 68.266C51.0552 67.3793 51.3492 66.6467 51.9372 66.068C52.5252 65.4893 53.3232 65.2 54.3312 65.2H58.0272V75H56.6272ZM56.6272 66.488H54.3872C53.7712 66.488 53.2952 66.6513 52.9592 66.978C52.6232 67.2953 52.4552 67.72 52.4552 68.252C52.4552 68.7933 52.6232 69.2273 52.9592 69.554C53.3045 69.8807 53.7805 70.044 54.3872 70.044H56.6272V66.488ZM64.0585 72.508H62.7565L61.0905 75H59.6345C60.5119 73.7493 61.1139 72.886 61.4405 72.41C60.8805 72.3167 60.4372 72.0647 60.1105 71.654C59.7932 71.2433 59.6345 70.7767 59.6345 70.254C59.6345 69.6473 59.8492 69.12 60.2785 68.672C60.7079 68.224 61.2912 68 62.0285 68H65.3185V75H64.0585V72.508ZM64.0585 69.036H62.1265C61.7812 69.036 61.4872 69.148 61.2445 69.372C61.0112 69.5867 60.8945 69.8807 60.8945 70.254C60.8945 70.6273 61.0112 70.926 61.2445 71.15C61.4872 71.374 61.7812 71.486 62.1265 71.486H64.0585V69.036ZM7.42 93.726V95H1.008V93.726H3.514V86.824L1.484 87.972L0.91 86.936L4.228 85.06H4.914V93.726H7.42ZM9.67903 87.482L8.90903 86.6C9.81436 85.5267 10.855 84.99 12.031 84.99C12.9457 84.99 13.6504 85.2467 14.145 85.76C14.6397 86.2733 14.887 86.9453 14.887 87.776C14.887 88.336 14.719 88.9193 14.383 89.526C14.047 90.1327 13.6737 90.6693 13.263 91.136C12.8617 91.6027 12.129 92.3913 11.065 93.502C10.9717 93.6047 10.9017 93.6793 10.855 93.726H15.041V95H8.88103V94.006C9.2357 93.6233 9.67436 93.1613 10.197 92.62C10.7197 92.0693 11.093 91.6773 11.317 91.444C11.541 91.2107 11.8117 90.9167 12.129 90.562C12.4464 90.198 12.6657 89.932 12.787 89.764C12.9084 89.5867 13.039 89.372 13.179 89.12C13.319 88.868 13.4077 88.644 13.445 88.448C13.4917 88.252 13.515 88.0373 13.515 87.804C13.515 87.3653 13.3704 86.9873 13.081 86.67C12.801 86.3527 12.4137 86.194 11.919 86.194C11.4804 86.194 11.0884 86.2967 10.743 86.502C10.3977 86.7073 10.043 87.034 9.67903 87.482ZM19.6801 94.006C20.2401 94.006 20.6741 93.838 20.9821 93.502C21.2994 93.1567 21.4581 92.76 21.4581 92.312C21.4581 91.724 21.3321 91.2667 21.0801 90.94C20.8374 90.6133 20.4967 90.45 20.0581 90.45C19.7221 90.45 19.3534 90.5153 18.9521 90.646L18.6861 89.666L19.4561 89.456C19.9787 89.3067 20.4361 89.0593 20.8281 88.714C21.2201 88.3593 21.4161 87.9627 21.4161 87.524C21.4161 87.1133 21.2901 86.7867 21.0381 86.544C20.7861 86.3013 20.4314 86.18 19.9741 86.18C19.5167 86.18 19.1154 86.2827 18.7701 86.488C18.4247 86.684 18.0701 86.9827 17.7061 87.384C17.4354 87.0667 17.1974 86.7727 16.9921 86.502C17.8601 85.494 18.8541 84.99 19.9741 84.99C20.8421 84.99 21.5187 85.214 22.0041 85.662C22.4894 86.1007 22.7321 86.656 22.7321 87.328C22.7321 87.8413 22.5827 88.3127 22.2841 88.742C21.9854 89.1713 21.5514 89.512 20.9821 89.764C21.6261 89.8947 22.1254 90.1887 22.4801 90.646C22.8441 91.094 23.0261 91.6073 23.0261 92.186C23.0261 93.0353 22.7134 93.754 22.0881 94.342C21.4721 94.9207 20.6554 95.21 19.6381 95.21C18.9941 95.21 18.4714 95.1073 18.0701 94.902C17.6687 94.6967 17.2347 94.37 16.7681 93.922L17.5101 92.942C17.8741 93.3153 18.2194 93.586 18.5461 93.754C18.8821 93.922 19.2601 94.006 19.6801 94.006ZM29.9751 95H28.5751V92.438H24.3331L24.1791 91.5L28.9391 85.06H29.9751V91.36H31.6551V92.438H29.9751V95ZM28.5751 87.202L25.5091 91.36H28.5751V87.202ZM34.5301 86.488L34.1941 89.106C34.6981 88.8073 35.3141 88.658 36.0421 88.658C36.9568 88.658 37.6661 88.952 38.1701 89.54C38.6741 90.128 38.9261 90.8747 38.9261 91.78C38.9261 92.7227 38.6321 93.53 38.0441 94.202C37.4561 94.874 36.6301 95.21 35.5661 95.21C34.9221 95.21 34.3948 95.1073 33.9841 94.902C33.5735 94.6873 33.1348 94.3607 32.6681 93.922L33.4101 92.942C33.7741 93.3153 34.1195 93.586 34.4461 93.754C34.7728 93.922 35.1461 94.006 35.5661 94.006C36.1635 94.006 36.6395 93.7913 36.9941 93.362C37.3581 92.9233 37.5401 92.396 37.5401 91.78C37.5401 91.136 37.3768 90.6413 37.0501 90.296C36.7235 89.9413 36.2941 89.764 35.7621 89.764C34.9781 89.764 34.3435 89.9693 33.8581 90.38L32.9761 90.016L33.5781 85.2H38.6741V86.488H34.5301ZM46.0292 86.978C45.7958 86.7167 45.4972 86.5067 45.1332 86.348C44.7785 86.1893 44.4192 86.11 44.0552 86.11C43.4672 86.11 42.9818 86.3853 42.5992 86.936C42.2165 87.4773 42.0065 88.3267 41.9692 89.484C42.4265 88.7933 43.1778 88.448 44.2232 88.448C44.9698 88.448 45.6092 88.7233 46.1412 89.274C46.6825 89.8247 46.9532 90.6273 46.9532 91.682C46.9532 92.7927 46.6405 93.6607 46.0152 94.286C45.3992 94.902 44.6478 95.21 43.7612 95.21C42.6505 95.21 41.8385 94.8273 41.3252 94.062C40.8212 93.2873 40.5692 92.0367 40.5692 90.31C40.5692 89.3207 40.6485 88.476 40.8072 87.776C40.9752 87.076 41.2132 86.5253 41.5212 86.124C41.8385 85.7227 42.1978 85.4333 42.5992 85.256C43.0098 85.0787 43.4905 84.99 44.0412 84.99C44.5545 84.99 45.0072 85.0693 45.3992 85.228C45.8005 85.3867 46.2205 85.6573 46.6592 86.04L46.0292 86.978ZM41.9832 91.486C41.9645 92.3167 42.1278 92.9467 42.4732 93.376C42.8278 93.796 43.2712 94.006 43.8032 94.006C44.2792 94.006 44.6992 93.8147 45.0632 93.432C45.4272 93.04 45.6092 92.466 45.6092 91.71C45.6092 90.982 45.4505 90.4407 45.1332 90.086C44.8158 89.7313 44.4472 89.554 44.0272 89.554C43.8218 89.554 43.6165 89.582 43.4112 89.638C43.2152 89.6847 43.0005 89.7733 42.7672 89.904C42.5432 90.0253 42.3565 90.2213 42.2072 90.492C42.0672 90.7627 41.9925 91.094 41.9832 91.486ZM54.9942 86.208L51.3822 95H49.9122L53.4542 86.53H48.5402V85.2H54.9942V86.208ZM62.5872 87.566C62.5872 88.1633 62.4379 88.644 62.1392 89.008C61.8499 89.3627 61.4392 89.6707 60.9072 89.932C61.5232 90.2213 62.0039 90.5573 62.3492 90.94C62.6946 91.3133 62.8672 91.8267 62.8672 92.48C62.8672 93.3107 62.5826 93.9733 62.0132 94.468C61.4439 94.9627 60.6646 95.21 59.6752 95.21C58.6859 95.21 57.9066 94.9627 57.3372 94.468C56.7679 93.9733 56.4832 93.3107 56.4832 92.48C56.4832 91.8267 56.6559 91.3087 57.0012 90.926C57.3466 90.5433 57.8272 90.2073 58.4432 89.918C57.9206 89.666 57.5099 89.3627 57.2112 89.008C56.9219 88.644 56.7772 88.1633 56.7772 87.566C56.7772 86.8007 57.0432 86.18 57.5752 85.704C58.1166 85.228 58.8166 84.99 59.6752 84.99C60.5619 84.99 61.2666 85.2327 61.7892 85.718C62.3212 86.194 62.5872 86.81 62.5872 87.566ZM61.4672 92.284C61.4672 91.808 61.3132 91.4347 61.0052 91.164C60.6972 90.8933 60.2539 90.632 59.6752 90.38C59.0872 90.632 58.6392 90.8933 58.3312 91.164C58.0326 91.4347 57.8832 91.808 57.8832 92.284C57.8832 92.816 58.0419 93.2453 58.3592 93.572C58.6766 93.8893 59.1152 94.048 59.6752 94.048C60.2446 94.048 60.6832 93.8893 60.9912 93.572C61.3086 93.2453 61.4672 92.816 61.4672 92.284ZM58.1352 87.692C58.1352 88.1027 58.2659 88.434 58.5272 88.686C58.7886 88.938 59.1712 89.1807 59.6752 89.414C60.1792 89.1807 60.5619 88.938 60.8232 88.686C61.0939 88.434 61.2292 88.1027 61.2292 87.692C61.2292 87.2067 61.0799 86.8333 60.7812 86.572C60.4919 86.3013 60.1232 86.166 59.6752 86.166C59.2272 86.166 58.8586 86.3013 58.5692 86.572C58.2799 86.8333 58.1352 87.2067 58.1352 87.692ZM64.7343 94.16L65.3643 93.222C65.5976 93.4833 65.8916 93.6933 66.2463 93.852C66.6103 94.0107 66.9743 94.09 67.3383 94.09C67.9263 94.09 68.4116 93.8193 68.7943 93.278C69.1769 92.7273 69.3869 91.8733 69.4243 90.716C68.9669 91.4067 68.2156 91.752 67.1703 91.752C66.4236 91.752 65.7796 91.4767 65.2383 90.926C64.7063 90.3753 64.4403 89.5727 64.4403 88.518C64.4403 87.4073 64.7483 86.544 65.3643 85.928C65.9896 85.3027 66.7456 84.99 67.6323 84.99C68.7429 84.99 69.5503 85.3773 70.0543 86.152C70.5676 86.9173 70.8243 88.1633 70.8243 89.89C70.8243 90.8793 70.7403 91.724 70.5723 92.424C70.4136 93.124 70.1756 93.6747 69.8583 94.076C69.5503 94.4773 69.1909 94.7667 68.7803 94.944C68.3789 95.1213 67.9029 95.21 67.3522 95.21C66.8389 95.21 66.3816 95.1307 65.9803 94.972C65.5883 94.8133 65.1729 94.5427 64.7343 94.16ZM69.4103 88.714C69.4289 87.8833 69.2609 87.258 68.9063 86.838C68.5609 86.4087 68.1223 86.194 67.5903 86.194C67.1143 86.194 66.6943 86.39 66.3303 86.782C65.9663 87.1647 65.7843 87.734 65.7843 88.49C65.7843 89.218 65.9429 89.7593 66.2603 90.114C66.5776 90.4687 66.9463 90.646 67.3663 90.646C67.5716 90.646 67.7723 90.6227 67.9683 90.576C68.1736 90.52 68.3883 90.4313 68.6123 90.31C68.8456 90.1793 69.0323 89.9787 69.1723 89.708C69.3216 89.4373 69.4009 89.106 69.4103 88.714ZM77.8993 86.222C78.4873 87.034 78.7813 88.3267 78.7813 90.1C78.7813 91.8733 78.4873 93.1707 77.8993 93.992C77.3206 94.804 76.5459 95.21 75.5753 95.21C74.6139 95.21 73.8393 94.804 73.2513 93.992C72.6726 93.1707 72.3833 91.8733 72.3833 90.1C72.3833 88.3453 72.6773 87.0573 73.2653 86.236C73.8533 85.4053 74.6233 84.99 75.5753 84.99C76.5366 84.99 77.3113 85.4007 77.8993 86.222ZM73.7833 90.1C73.7833 92.704 74.3759 94.006 75.5613 94.006C76.0839 94.006 76.5179 93.7027 76.8633 93.096C77.2086 92.48 77.3813 91.4813 77.3813 90.1C77.3813 88.7187 77.2086 87.7247 76.8633 87.118C76.5179 86.5113 76.0839 86.208 75.5613 86.208C74.3759 86.208 73.7833 87.5053 73.7833 90.1Z" fill="#F5F6FF"/>
</svg>
