<svg width="214" height="213" viewBox="0 0 214 213" fill="none" xmlns="http://www.w3.org/2000/svg">
<path fill-rule="evenodd" clip-rule="evenodd" d="M128.058 106.346C128.058 118.093 118.536 127.615 106.789 127.615C118.536 127.615 128.058 137.137 128.058 148.884C128.058 137.137 137.58 127.615 149.327 127.615C137.58 127.615 128.058 118.093 128.058 106.346Z" fill="#C1F52F"/>
<path fill-rule="evenodd" clip-rule="evenodd" d="M170.597 63.8066C170.597 75.5536 161.075 85.0758 149.328 85.0758C161.075 85.0758 170.597 94.598 170.597 106.345C170.597 94.598 180.119 85.0758 191.866 85.0758C180.119 85.0758 170.597 75.5536 170.597 63.8066Z" fill="#C1F52F"/>
<path fill-rule="evenodd" clip-rule="evenodd" d="M128.058 21.2695C128.058 33.0165 118.536 42.5387 106.789 42.5387C118.536 42.5387 128.058 52.0609 128.058 63.8078C128.058 52.0609 137.58 42.5387 149.327 42.5387C137.58 42.5387 128.058 33.0165 128.058 21.2695Z" fill="#C1F52F"/>
<path fill-rule="evenodd" clip-rule="evenodd" d="M85.523 106.346C85.523 118.093 76.0009 127.615 64.2539 127.615C76.0009 127.615 85.523 137.137 85.523 148.884C85.523 137.137 95.0452 127.615 106.792 127.615C95.0452 127.615 85.523 118.093 85.523 106.346Z" fill="#C1F52F"/>
<path fill-rule="evenodd" clip-rule="evenodd" d="M85.523 148.884C85.523 160.631 76.0009 170.153 64.2539 170.153C76.0009 170.153 85.523 179.675 85.523 191.422C85.523 179.675 95.0452 170.153 106.792 170.153C95.0452 170.153 85.523 160.631 85.523 148.884Z" fill="#C1F52F"/>
<path fill-rule="evenodd" clip-rule="evenodd" d="M128.058 63.8066C128.058 75.5536 118.536 85.0758 106.789 85.0758C118.536 85.0758 128.058 94.598 128.058 106.345C128.058 94.598 137.58 85.0758 149.327 85.0758C137.58 85.0758 128.058 75.5536 128.058 63.8066Z" fill="#C1F52F"/>
<path fill-rule="evenodd" clip-rule="evenodd" d="M128.058 106.345C128.058 118.092 118.536 127.614 106.789 127.614C118.536 127.614 128.058 137.136 128.058 148.883C128.058 137.136 137.58 127.614 149.327 127.614C137.58 127.614 128.058 118.092 128.058 106.345Z" fill="#C1F52F"/>
<path fill-rule="evenodd" clip-rule="evenodd" d="M85.523 21.2695C85.523 33.0165 76.0009 42.5387 64.2539 42.5387C76.0009 42.5387 85.523 52.0609 85.523 63.8078C85.523 52.0609 95.0452 42.5387 106.792 42.5387C95.0452 42.5387 85.523 33.0165 85.523 21.2695Z" fill="#C1F52F"/>
<path fill-rule="evenodd" clip-rule="evenodd" d="M85.523 63.8078C85.523 75.5548 76.0009 85.077 64.2539 85.077C76.0009 85.077 85.523 94.5992 85.523 106.346C85.523 94.5992 95.0452 85.077 106.792 85.077C95.0452 85.077 85.523 75.5548 85.523 63.8078Z" fill="#C1F52F"/>
<path d="M128.062 106.345C128.062 118.092 118.539 127.614 106.793 127.614C95.046 127.614 85.5234 118.092 85.5234 106.345C85.5234 94.5987 95.046 85.0762 106.793 85.0762C118.539 85.0762 128.062 94.5987 128.062 106.345Z" fill="#C1F52F"/>
<path d="M170.597 63.8082C170.597 75.5548 161.074 85.0774 149.328 85.0774C137.581 85.0774 128.059 75.5548 128.059 63.8082C128.059 52.0616 137.581 42.5391 149.328 42.5391C161.074 42.5391 170.597 52.0616 170.597 63.8082Z" fill="#C1F52F"/>
<path d="M128.062 21.2692C128.062 33.0158 118.539 42.5383 106.793 42.5383C95.046 42.5383 85.5234 33.0158 85.5234 21.2691C85.5234 9.52252 95.046 8.32485e-07 106.793 1.85941e-06C118.539 2.88633e-06 128.062 9.52253 128.062 21.2692Z" fill="#C1F52F"/>
<path d="M85.5218 148.884C85.5218 160.631 75.9993 170.153 64.2527 170.153C52.506 170.153 42.9835 160.631 42.9835 148.884C42.9835 137.137 52.506 127.615 64.2527 127.615C75.9993 127.615 85.5218 137.137 85.5218 148.884Z" fill="#C1F52F"/>
<path d="M128.062 106.345C128.062 118.092 118.539 127.614 106.793 127.614C95.046 127.614 85.5234 118.092 85.5234 106.345C85.5234 94.5987 95.046 85.0762 106.793 85.0762C118.539 85.0762 128.062 94.5987 128.062 106.345Z" fill="#C1F52F"/>
<path d="M85.5218 63.8072C85.5218 75.5539 75.9993 85.0764 64.2527 85.0764C52.506 85.0764 42.9835 75.5539 42.9835 63.8072C42.9835 52.0606 52.506 42.5381 64.2527 42.5381C75.9993 42.5381 85.5218 52.0606 85.5218 63.8072Z" fill="#C1F52F"/>
<path d="M128.062 191.421C128.062 203.168 118.539 212.691 106.793 212.691C95.046 212.691 85.5234 203.168 85.5234 191.421C85.5234 179.675 95.046 170.152 106.793 170.152C118.539 170.152 128.062 179.675 128.062 191.421Z" fill="#C1F52F"/>
<path d="M170.597 148.884C170.597 160.631 161.074 170.154 149.328 170.154C137.581 170.154 128.059 160.631 128.059 148.884C128.059 137.138 137.581 127.615 149.328 127.615C161.074 127.615 170.597 137.138 170.597 148.884Z" fill="#C1F52F"/>
<path d="M128.062 106.345C128.062 118.092 118.539 127.614 106.793 127.614C95.046 127.614 85.5234 118.092 85.5234 106.345C85.5234 94.5987 95.046 85.0762 106.793 85.0762C118.539 85.0762 128.062 94.5987 128.062 106.345Z" fill="#C1F52F"/>
<path d="M170.597 148.884C170.597 160.631 161.074 170.154 149.328 170.154C137.581 170.154 128.059 160.631 128.059 148.884C128.059 137.138 137.581 127.615 149.328 127.615C161.074 127.615 170.597 137.138 170.597 148.884Z" fill="#C1F52F"/>
<path d="M42.5383 106.346C42.5383 118.092 33.0158 127.615 21.2691 127.615C9.52252 127.615 -2.88633e-06 118.092 -1.85941e-06 106.346C-8.32485e-07 94.5992 9.52252 85.0767 21.2691 85.0767C33.0158 85.0767 42.5383 94.5992 42.5383 106.346Z" fill="#C1F52F"/>
<path d="M213.137 106.346C213.137 118.092 203.614 127.615 191.868 127.615C180.121 127.615 170.598 118.092 170.598 106.346C170.598 94.5992 180.121 85.0767 191.868 85.0767C203.614 85.0767 213.137 94.5992 213.137 106.346Z" fill="#C1F52F"/>
<path d="M170.597 63.8082C170.597 75.5548 161.074 85.0774 149.328 85.0774C137.581 85.0774 128.059 75.5548 128.059 63.8082C128.059 52.0616 137.581 42.5391 149.328 42.5391C161.074 42.5391 170.597 52.0616 170.597 63.8082Z" fill="#C1F52F"/>
</svg>
