<svg width="335" height="335" viewBox="0 0 335 335" fill="none" xmlns="http://www.w3.org/2000/svg">
<rect width="335" height="335" fill="#F5F6FF"/>
<path d="M23.12 20.46C23.12 21.14 22.92 21.7733 22.52 22.36C22.1333 22.9333 21.6267 23.3733 21 23.68C21.7867 23.9733 22.4267 24.44 22.92 25.08C23.4133 25.72 23.66 26.44 23.66 27.24C23.66 28.2933 23.2667 29.1867 22.48 29.92C21.7067 30.64 20.7333 31 19.56 31H13.6V17H18.82C20.0333 17 21.0533 17.32 21.88 17.96C22.7067 18.5867 23.12 19.42 23.12 20.46ZM15.6 29.36H19.16C19.8533 29.36 20.44 29.1333 20.92 28.68C21.4133 28.2133 21.66 27.64 21.66 26.96C21.66 26.2933 21.4133 25.7333 20.92 25.28C20.44 24.8133 19.8533 24.58 19.16 24.58H15.6V29.36ZM21.2 20.8C21.2 20.2133 20.9733 19.7133 20.52 19.3C20.0667 18.8733 19.5333 18.66 18.92 18.66H15.6V23H18.92C19.5333 23 20.0667 22.7867 20.52 22.36C20.9733 21.92 21.2 21.4 21.2 20.8ZM26.9986 26C26.9986 27.04 27.3319 27.9067 27.9986 28.6C28.6653 29.28 29.5119 29.62 30.5386 29.62C31.5919 29.62 32.5586 29.24 33.4386 28.48C33.4786 28.5333 33.6186 28.72 33.8586 29.04C34.1119 29.3467 34.2986 29.5867 34.4186 29.76C33.3519 30.7867 32.0386 31.3 30.4786 31.3C29.0119 31.3 27.7719 30.7733 26.7586 29.72C25.7586 28.6667 25.2586 27.4267 25.2586 26C25.2586 24.5867 25.7586 23.3533 26.7586 22.3C27.7719 21.2333 29.0119 20.7 30.4786 20.7C32.0253 20.7 33.3386 21.22 34.4186 22.26C34.2986 22.4333 34.1119 22.68 33.8586 23C33.6186 23.3067 33.4786 23.4867 33.4386 23.54C32.5586 22.78 31.5919 22.4 30.5386 22.4C29.5386 22.4 28.6986 22.7467 28.0186 23.44C27.3386 24.1333 26.9986 24.9867 26.9986 26ZM45.5586 25.72C45.5586 25.8267 45.5453 25.9867 45.5186 26.2H37.0786C37.1586 27.2133 37.5186 28.0667 38.1586 28.76C38.7986 29.44 39.6986 29.78 40.8586 29.78C41.4186 29.78 41.9919 29.68 42.5786 29.48C43.1653 29.2667 43.6653 28.9867 44.0786 28.64L44.9186 29.78C44.4119 30.26 43.7786 30.6333 43.0186 30.9C42.2719 31.1667 41.4986 31.3 40.6986 31.3C39.1786 31.3 37.8919 30.82 36.8386 29.86C35.7853 28.9 35.2586 27.68 35.2586 26.2C35.2586 24.68 35.7586 23.3867 36.7586 22.32C37.7719 21.24 38.9986 20.7 40.4386 20.7C42.0386 20.7 43.2919 21.1867 44.1986 22.16C45.1053 23.12 45.5586 24.3067 45.5586 25.72ZM43.7986 24.9C43.6653 24.1267 43.3053 23.4933 42.7186 23C42.1453 22.4933 41.3853 22.24 40.4386 22.24C39.6386 22.24 38.9386 22.4867 38.3386 22.98C37.7386 23.46 37.3386 24.1 37.1386 24.9H43.7986ZM57.3978 29.74C58.4378 29.74 59.3111 29.38 60.0178 28.66C60.7245 27.9267 61.0778 27.04 61.0778 26C61.0778 24.9867 60.7245 24.1133 60.0178 23.38C59.3111 22.6467 58.4378 22.28 57.3978 22.28C56.3578 22.28 55.4778 22.6467 54.7578 23.38C54.0511 24.1133 53.6978 24.9867 53.6978 26C53.6978 27.04 54.0511 27.9267 54.7578 28.66C55.4645 29.38 56.3445 29.74 57.3978 29.74ZM61.2978 29.78C60.2845 30.7933 58.9845 31.3 57.3978 31.3C55.8111 31.3 54.5045 30.7933 53.4778 29.78C52.4645 28.7533 51.9578 27.4933 51.9578 26C51.9578 24.52 52.4645 23.2667 53.4778 22.24C54.5045 21.2133 55.8111 20.7 57.3978 20.7C58.9845 20.7 60.2845 21.2133 61.2978 22.24C62.3111 23.2667 62.8178 24.52 62.8178 26C62.8178 27.4933 62.3111 28.7533 61.2978 29.78ZM74.1434 18C73.5701 18.1333 72.9234 18.2733 72.2034 18.42C71.4968 18.5667 70.9234 18.68 70.4834 18.76C70.0568 18.84 69.5834 18.9467 69.0634 19.08C68.5568 19.2133 68.1568 19.3533 67.8634 19.5C67.5701 19.6467 67.2634 19.84 66.9434 20.08C66.6368 20.32 66.3968 20.6 66.2234 20.92C66.0634 21.24 65.9234 21.6333 65.8034 22.1C65.6834 22.5667 65.6101 23.1067 65.5834 23.72C65.9434 22.8933 66.5101 22.26 67.2834 21.82C68.0568 21.38 68.8901 21.16 69.7834 21.16C71.2234 21.16 72.4301 21.6067 73.4034 22.5C74.3901 23.38 74.8834 24.58 74.8834 26.1C74.8834 27.6067 74.4034 28.8533 73.4434 29.84C72.4968 30.8133 71.2168 31.3 69.6034 31.3C67.8701 31.3 66.5368 30.7533 65.6034 29.66C64.6834 28.5667 64.2234 27.0067 64.2234 24.98C64.2234 24.1133 64.2501 23.3533 64.3034 22.7C64.3701 22.0467 64.4834 21.4733 64.6434 20.98C64.8168 20.4733 64.9901 20.0533 65.1634 19.72C65.3368 19.3733 65.5968 19.0667 65.9434 18.8C66.3034 18.52 66.6368 18.3067 66.9434 18.16C67.2501 18 67.6834 17.84 68.2434 17.68C68.8168 17.52 69.3301 17.3933 69.7834 17.3C70.2368 17.1933 70.8568 17.0533 71.6434 16.88C72.4434 16.6933 73.1568 16.52 73.7834 16.36C74.0101 17.3733 74.1301 17.92 74.1434 18ZM69.5834 29.76C70.5968 29.76 71.4301 29.42 72.0834 28.74C72.7368 28.0467 73.0634 27.1933 73.0634 26.18C73.0634 25.0867 72.7168 24.2267 72.0234 23.6C71.3434 22.96 70.5301 22.64 69.5834 22.64C68.6368 22.64 67.8234 22.96 67.1434 23.6C66.4634 24.2267 66.1234 25.0867 66.1234 26.18C66.1234 27.1933 66.4434 28.0467 67.0834 28.74C67.7234 29.42 68.5568 29.76 69.5834 29.76ZM83.7542 21V28.54C87.1809 23.94 89.0542 21.4267 89.3742 21H91.2142V31H89.4142V23.5L83.8142 31H81.9742V21H83.7542ZM101.365 21V22.64H95.7855V31H94.0055V21H101.365ZM108.21 31.3C106.797 31.3 105.644 30.7667 104.75 29.7V35.08H102.97V21H104.75V22.32C105.657 21.2667 106.83 20.74 108.27 20.74C109.697 20.74 110.877 21.2533 111.81 22.28C112.757 23.3067 113.23 24.5467 113.23 26C113.23 27.48 112.75 28.7333 111.79 29.76C110.844 30.7867 109.65 31.3 108.21 31.3ZM107.69 22.34C106.477 22.34 105.497 22.8333 104.75 23.82V28.2C105.484 29.1867 106.464 29.68 107.69 29.68C108.704 29.68 109.564 29.32 110.27 28.6C110.977 27.88 111.33 27.0133 111.33 26C111.33 25 110.97 24.14 110.25 23.42C109.544 22.7 108.69 22.34 107.69 22.34ZM117.974 31.3C116.934 31.3 116.107 31.0467 115.494 30.54C114.894 30.0333 114.594 29.34 114.594 28.46C114.594 28.02 114.667 27.6333 114.814 27.3C114.96 26.9533 115.147 26.6667 115.374 26.44C115.6 26.2133 115.907 26.02 116.294 25.86C116.694 25.7 117.067 25.5733 117.414 25.48C117.774 25.3867 118.227 25.32 118.774 25.28C119.334 25.2267 119.807 25.1933 120.194 25.18C120.594 25.1667 121.1 25.1533 121.714 25.14V24.32C121.714 22.88 120.914 22.16 119.314 22.16C118.127 22.16 117.06 22.58 116.114 23.42L115.134 22.32C116.32 21.24 117.767 20.7 119.474 20.7C120.287 20.7 120.974 20.8067 121.534 21.02C122.107 21.2333 122.527 21.5267 122.794 21.9C123.06 22.26 123.247 22.62 123.354 22.98C123.46 23.34 123.514 23.7267 123.514 24.14V31H121.714V29.24C120.62 30.6133 119.374 31.3 117.974 31.3ZM118.414 29.92C119.667 29.92 120.767 29.2067 121.714 27.78V26.3C120.434 26.3 119.367 26.3733 118.514 26.52C118.247 26.56 117.98 26.6333 117.714 26.74C117.447 26.8467 117.174 27.0467 116.894 27.34C116.627 27.62 116.494 27.9533 116.494 28.34C116.494 28.8867 116.687 29.2867 117.074 29.54C117.474 29.7933 117.92 29.92 118.414 29.92ZM133.055 31C132.935 30.8533 132.515 30.32 131.795 29.4C131.075 28.4667 130.528 27.7533 130.155 27.26L127.275 31H124.995L128.955 25.98L125.055 21H127.315L130.155 24.76L132.995 21H135.275C134.368 22.1067 133.022 23.7667 131.235 25.98L135.315 31H133.055ZM15.18 44V51.54C18.6067 46.94 20.48 44.4267 20.8 44H22.64V54H20.84V46.5L15.24 54H13.4V44H15.18ZM30.9313 54V56.82H29.2913V52.44H30.4913C30.8913 51.8667 31.2246 51.0467 31.4913 49.98C31.7579 48.9133 31.8913 47.76 31.8913 46.52V44H39.4113V52.44H40.9513V56.82H39.2113V54H30.9313ZM37.6113 52.44V45.58H33.6113V46.7C33.6113 47.82 33.4913 48.92 33.2513 50C33.0113 51.08 32.7313 51.8933 32.4113 52.44H37.6113ZM45.5517 54.3C44.5117 54.3 43.6851 54.0467 43.0717 53.54C42.4717 53.0333 42.1717 52.34 42.1717 51.46C42.1717 51.02 42.2451 50.6333 42.3917 50.3C42.5384 49.9533 42.7251 49.6667 42.9517 49.44C43.1784 49.2133 43.4851 49.02 43.8717 48.86C44.2717 48.7 44.6451 48.5733 44.9917 48.48C45.3517 48.3867 45.8051 48.32 46.3517 48.28C46.9117 48.2267 47.3851 48.1933 47.7717 48.18C48.1717 48.1667 48.6784 48.1533 49.2917 48.14V47.32C49.2917 45.88 48.4917 45.16 46.8917 45.16C45.7051 45.16 44.6384 45.58 43.6917 46.42L42.7117 45.32C43.8984 44.24 45.3451 43.7 47.0517 43.7C47.8651 43.7 48.5517 43.8067 49.1117 44.02C49.6851 44.2333 50.1051 44.5267 50.3717 44.9C50.6384 45.26 50.8251 45.62 50.9317 45.98C51.0384 46.34 51.0917 46.7267 51.0917 47.14V54H49.2917V52.24C48.1984 53.6133 46.9517 54.3 45.5517 54.3ZM45.9917 52.92C47.2451 52.92 48.3451 52.2067 49.2917 50.78V49.3C48.0117 49.3 46.9451 49.3733 46.0917 49.52C45.8251 49.56 45.5584 49.6333 45.2917 49.74C45.0251 49.8467 44.7517 50.0467 44.4717 50.34C44.2051 50.62 44.0717 50.9533 44.0717 51.34C44.0717 51.8867 44.2651 52.2867 44.6517 52.54C45.0517 52.7933 45.4984 52.92 45.9917 52.92ZM58.713 54V49.52H57.553L54.613 54H52.573C53.8396 52.1467 55.013 50.3933 56.093 48.74C55.8263 48.3533 55.3263 47.62 54.593 46.54C53.8596 45.4467 53.293 44.6 52.893 44H54.953C56.433 46.2533 57.293 47.5467 57.533 47.88H58.713V44H60.493V47.88H61.653C62.2396 47.0267 63.1063 45.7333 64.253 44H66.313C65.913 44.6 65.3463 45.4467 64.613 46.54C63.8796 47.62 63.3796 48.3533 63.113 48.74C64.193 50.3933 65.3663 52.1467 66.633 54H64.593L61.653 49.52H60.493V54H58.713ZM77.5313 48.72C77.5313 48.8267 77.5179 48.9867 77.4913 49.2H69.0513C69.1313 50.2133 69.4913 51.0667 70.1313 51.76C70.7713 52.44 71.6713 52.78 72.8313 52.78C73.3913 52.78 73.9646 52.68 74.5513 52.48C75.1379 52.2667 75.6379 51.9867 76.0513 51.64L76.8913 52.78C76.3846 53.26 75.7513 53.6333 74.9913 53.9C74.2446 54.1667 73.4713 54.3 72.6713 54.3C71.1513 54.3 69.8646 53.82 68.8113 52.86C67.7579 51.9 67.2313 50.68 67.2313 49.2C67.2313 47.68 67.7313 46.3867 68.7313 45.32C69.7446 44.24 70.9713 43.7 72.4112 43.7C74.0113 43.7 75.2646 44.1867 76.1713 45.16C77.0779 46.12 77.5313 47.3067 77.5313 48.72ZM75.7713 47.9C75.6379 47.1267 75.2779 46.4933 74.6913 46C74.1179 45.4933 73.3579 45.24 72.4112 45.24C71.6113 45.24 70.9113 45.4867 70.3113 45.98C69.7113 46.46 69.3113 47.1 69.1113 47.9H75.7713ZM93.8505 41C93.2771 41.1333 92.6305 41.2733 91.9105 41.42C91.2038 41.5667 90.6305 41.68 90.1905 41.76C89.7638 41.84 89.2905 41.9467 88.7705 42.08C88.2638 42.2133 87.8638 42.3533 87.5705 42.5C87.2771 42.6467 86.9705 42.84 86.6505 43.08C86.3438 43.32 86.1038 43.6 85.9305 43.92C85.7705 44.24 85.6305 44.6333 85.5105 45.1C85.3905 45.5667 85.3171 46.1067 85.2905 46.72C85.6505 45.8933 86.2171 45.26 86.9905 44.82C87.7638 44.38 88.5971 44.16 89.4905 44.16C90.9305 44.16 92.1371 44.6067 93.1105 45.5C94.0971 46.38 94.5905 47.58 94.5905 49.1C94.5905 50.6067 94.1105 51.8533 93.1505 52.84C92.2038 53.8133 90.9238 54.3 89.3105 54.3C87.5771 54.3 86.2438 53.7533 85.3105 52.66C84.3905 51.5667 83.9305 50.0067 83.9305 47.98C83.9305 47.1133 83.9571 46.3533 84.0105 45.7C84.0771 45.0467 84.1905 44.4733 84.3505 43.98C84.5238 43.4733 84.6971 43.0533 84.8705 42.72C85.0438 42.3733 85.3038 42.0667 85.6505 41.8C86.0105 41.52 86.3438 41.3067 86.6505 41.16C86.9571 41 87.3905 40.84 87.9505 40.68C88.5238 40.52 89.0371 40.3933 89.4905 40.3C89.9438 40.1933 90.5638 40.0533 91.3505 39.88C92.1505 39.6933 92.8638 39.52 93.4905 39.36C93.7171 40.3733 93.8371 40.92 93.8505 41ZM89.2905 52.76C90.3038 52.76 91.1371 52.42 91.7905 51.74C92.4438 51.0467 92.7705 50.1933 92.7705 49.18C92.7705 48.0867 92.4238 47.2267 91.7305 46.6C91.0505 45.96 90.2371 45.64 89.2905 45.64C88.3438 45.64 87.5305 45.96 86.8505 46.6C86.1705 47.2267 85.8305 48.0867 85.8305 49.18C85.8305 50.1933 86.1505 51.0467 86.7905 51.74C87.4305 52.42 88.2638 52.76 89.2905 52.76ZM101.421 52.74C102.461 52.74 103.335 52.38 104.041 51.66C104.748 50.9267 105.101 50.04 105.101 49C105.101 47.9867 104.748 47.1133 104.041 46.38C103.335 45.6467 102.461 45.28 101.421 45.28C100.381 45.28 99.5013 45.6467 98.7813 46.38C98.0746 47.1133 97.7213 47.9867 97.7213 49C97.7213 50.04 98.0746 50.9267 98.7813 51.66C99.4879 52.38 100.368 52.74 101.421 52.74ZM105.321 52.78C104.308 53.7933 103.008 54.3 101.421 54.3C99.8346 54.3 98.5279 53.7933 97.5013 52.78C96.4879 51.7533 95.9813 50.4933 95.9813 49C95.9813 47.52 96.4879 46.2667 97.5013 45.24C98.5279 44.2133 99.8346 43.7 101.421 43.7C103.008 43.7 104.308 44.2133 105.321 45.24C106.335 46.2667 106.841 47.52 106.841 49C106.841 50.4933 106.335 51.7533 105.321 52.78ZM107.141 54V52.54H107.821C108.448 52.54 108.881 52.22 109.121 51.58C109.361 50.94 109.481 49.7667 109.481 48.06V44H117.381V54H115.581V45.58H111.261V48.52C111.261 52.1733 110.181 54 108.021 54H107.141ZM121.957 47.58H125.017C126.057 47.58 126.891 47.9 127.517 48.54C128.144 49.1667 128.457 49.92 128.457 50.8C128.457 51.6667 128.144 52.42 127.517 53.06C126.904 53.6867 126.071 54 125.017 54H120.177V44H121.957V47.58ZM121.957 52.54H124.857C125.364 52.54 125.784 52.3867 126.117 52.08C126.464 51.76 126.637 51.3333 126.637 50.8C126.637 50.2667 126.464 49.84 126.117 49.52C125.784 49.2 125.364 49.04 124.857 49.04H121.957V52.54ZM132.231 52.44H136.631V44H138.431V52.44H142.831V44H144.631V54H130.451V44H132.231V52.44ZM157.023 48.72C157.023 48.8267 157.01 48.9867 156.983 49.2H148.543C148.623 50.2133 148.983 51.0667 149.623 51.76C150.263 52.44 151.163 52.78 152.323 52.78C152.883 52.78 153.457 52.68 154.043 52.48C154.63 52.2667 155.13 51.9867 155.543 51.64L156.383 52.78C155.877 53.26 155.243 53.6333 154.483 53.9C153.737 54.1667 152.963 54.3 152.163 54.3C150.643 54.3 149.357 53.82 148.303 52.86C147.25 51.9 146.723 50.68 146.723 49.2C146.723 47.68 147.223 46.3867 148.223 45.32C149.237 44.24 150.463 43.7 151.903 43.7C153.503 43.7 154.757 44.1867 155.663 45.16C156.57 46.12 157.023 47.3067 157.023 48.72ZM155.263 47.9C155.13 47.1267 154.77 46.4933 154.183 46C153.61 45.4933 152.85 45.24 151.903 45.24C151.103 45.24 150.403 45.4867 149.803 45.98C149.203 46.46 148.803 47.1 148.603 47.9H155.263Z" fill="#04005E"/>
<path d="M48.1801 297.213H45.1616C44.7499 297.213 44.415 297.55 44.415 297.963C44.415 298.35 44.0944 298.73 43.6524 298.73C43.2407 298.73 42.9058 299.068 42.9058 299.481V305.685C42.9058 306.098 43.2407 306.436 43.6524 306.436C44.064 306.436 44.399 306.098 44.399 305.685V299.475C44.399 299.118 44.6544 298.708 45.1616 298.708H48.1801C48.5919 298.708 48.9267 298.37 48.9267 297.957C48.9267 297.55 48.5916 297.213 48.1801 297.213Z" fill="#04005E" stroke="#04005E" stroke-width="0.4"/>
<path d="M58.2743 304.021V304.022C58.2798 304.415 57.956 304.801 57.5102 304.801H51.4171C51.0595 304.801 50.6472 304.545 50.6472 304.033V299.475V299.475V299.475V299.474V299.474V299.474V299.474V299.474V299.474V299.474V299.474V299.474V299.473V299.473V299.473V299.473V299.473V299.473V299.473V299.473V299.473V299.473V299.472V299.472V299.472V299.472V299.472V299.472V299.472V299.472V299.472V299.471V299.471V299.471V299.471V299.471V299.471V299.471V299.471V299.471V299.47V299.47V299.47V299.47V299.47V299.47V299.47V299.47V299.47V299.469V299.469V299.469V299.469V299.469C50.6472 299.112 50.9048 298.701 51.4171 298.701H57.5044C57.8921 298.701 58.2743 299.023 58.2743 299.469V304.021ZM59.0335 298.729C58.6757 298.729 58.2635 298.473 58.2635 297.961C58.2635 297.547 57.9254 297.21 57.5102 297.21H51.4171C51.0019 297.21 50.6638 297.547 50.6638 297.961C50.6638 298.348 50.3403 298.729 49.8939 298.729C49.4786 298.729 49.1406 299.067 49.1406 299.481V304.033C49.1406 304.447 49.4786 304.784 49.8939 304.784C50.2817 304.784 50.6638 305.107 50.6638 305.553C50.6638 305.967 51.0019 306.304 51.4171 306.304H57.5044C57.9196 306.304 58.2577 305.967 58.2577 305.553C58.2577 305.196 58.5153 304.784 59.0276 304.784C59.4429 304.784 59.7809 304.447 59.7809 304.033V299.475C59.7809 299.061 59.4487 298.729 59.0335 298.729Z" fill="#04005E" stroke="#04005E" stroke-width="0.4"/>
<path d="M40.6131 298.729C40.2584 298.729 39.8496 298.473 39.8496 297.961C39.8496 297.547 39.5144 297.21 39.1026 297.21H33.0667C32.6551 297.21 32.3197 297.547 32.3197 297.961C32.3197 298.348 31.9989 298.729 31.5562 298.729C31.1445 298.729 30.8092 299.067 30.8092 299.481V304.033C30.8092 304.447 31.1445 304.784 31.5562 304.784C31.9406 304.784 32.3197 305.107 32.3197 305.553C32.3197 305.967 32.6551 306.304 33.0667 306.304H39.1026C39.5144 306.304 39.8496 305.967 39.8496 305.553C39.8496 305.196 40.1051 304.784 40.6131 304.784C41.0248 304.784 41.36 304.447 41.36 304.033V299.475C41.36 299.06 41.0242 298.729 40.6131 298.729ZM39.1026 304.801H33.0667C32.7119 304.801 32.3031 304.545 32.3031 304.033V299.475V299.475V299.475V299.474V299.474V299.474V299.474V299.474V299.474V299.474V299.474V299.474V299.473V299.473V299.473V299.473V299.473V299.473V299.473V299.473V299.473V299.473V299.472V299.472V299.472V299.472V299.472V299.472V299.472V299.472V299.472V299.471V299.471V299.471V299.471V299.471V299.471V299.471V299.471V299.471V299.47V299.47V299.47V299.47V299.47V299.47V299.47V299.47V299.47V299.469V299.469V299.469V299.469V299.469C32.3031 299.112 32.5587 298.701 33.0667 298.701H39.1026C39.4871 298.701 39.8662 299.023 39.8662 299.469V304.021C39.8662 304.415 39.5447 304.801 39.1026 304.801Z" fill="#04005E" stroke="#04005E" stroke-width="0.4"/>
<path d="M76.5004 296.375V296.315H76.4923C76.4619 295.926 76.1366 295.618 75.7415 295.618C75.3843 295.618 74.9723 295.36 74.9723 294.845C74.9723 294.429 74.6344 294.089 74.2193 294.089H63.5753C63.1603 294.089 62.8224 294.429 62.8224 294.845C62.8224 295.235 62.4991 295.618 62.0531 295.618C61.6381 295.618 61.3 295.958 61.3 296.375V304.017C61.3 304.434 61.6381 304.774 62.0531 304.774C62.4405 304.774 62.8224 305.098 62.8224 305.547C62.8224 305.963 63.1603 306.303 63.5753 306.303H74.2251C74.6402 306.303 74.9782 305.963 74.9782 305.547V305.547V305.546V305.546V305.546V305.546V305.546V305.546V305.546V305.546V305.546V305.545V305.545V305.545V305.545V305.545V305.545V305.545V305.545V305.545V305.544V305.544V305.544V305.544V305.544V305.544V305.544V305.544V305.544V305.543V305.543V305.543V305.543V305.543V305.543V305.543V305.543V305.543V305.542V305.542V305.542V305.542V305.542V305.542V305.542V305.542V305.542V305.542V305.541V305.541V305.541V305.541V305.541V305.541V305.541C74.9782 305.181 75.2356 304.768 75.7474 304.768H76.0237C76.2858 304.768 76.5004 304.552 76.5004 304.289V303.739V303.739V303.739V303.739V303.739V303.739V303.739V303.739V303.739V303.738V303.738V303.738V303.738V303.738V303.738V303.738V303.738V303.738V303.737V303.737V303.737V303.737V303.737V303.737V303.737V303.737V303.737V303.736V303.736V303.736V303.736V303.736V303.736V303.736V303.736V303.736V303.735V303.735V303.735V303.735V303.735V303.735V303.735V303.735V303.735V303.734V303.734V303.734V303.734V303.734V303.734V303.734V303.734V303.734V303.733V303.733V303.733V303.733V303.733V303.733V303.733V303.733V303.733V303.732V303.732V303.732V303.732V303.732V303.732V303.732V303.732V303.732V303.732V303.731V303.731V303.731V303.731V303.731V303.731V303.731V303.731V303.731V303.73V303.73V303.73V303.73V303.73V303.73V303.73V303.73V303.73V303.729V303.729V303.729V303.729V303.729V303.729V303.729V303.729V303.729V303.728V303.728V303.728V303.728V303.728V303.728V303.728V303.728V303.728V303.727V303.727V303.727V303.727V303.727V303.727V303.727V303.727V303.727V303.726V303.726V303.726V303.726V303.726V303.726V303.726V303.726V303.726V303.725V303.725V303.725V303.725V303.725V303.725V303.725V303.725V303.725V303.724V303.724V303.724V303.724V303.724V303.724V303.724V303.724V303.724V303.723V303.723V303.723V303.723V303.723V303.723V303.723V303.723V303.723V303.722V303.722V303.722V303.722V303.722V303.722V303.722V303.722V303.722V303.721V303.721V303.721V303.721V303.721V303.721V303.721V303.721V303.721V303.72V303.72V303.72V303.72V303.72V303.72V303.72V303.72V303.72V303.719V303.719V303.719V303.719V303.719V303.719V303.719V303.719V303.719V303.718V303.718V303.718V303.718V303.718V303.718V303.718V303.718V303.718V303.717V303.717V303.717V303.717V303.717V303.717V303.717V303.717V303.717V303.716V303.716V303.716V303.716V303.716V303.716V303.716V303.716V303.716V303.715V303.715V303.715V303.715V303.715V303.715V303.715V303.715V303.715V303.714V303.714V303.714V303.714V303.714V303.714V303.714V303.714V303.714V303.714V303.713V303.713V303.713V303.713V303.713V303.713V303.713V303.713V303.713V303.712V303.712V303.712V303.712V303.712V303.712V303.712V303.712V303.712V303.711V303.711V303.711V303.711V303.711V303.711V303.711V303.711V303.711V303.71V303.71V303.71V303.71V303.71V303.71V303.71V303.71V303.71V303.709V303.709V303.709V303.709V303.709V303.709V303.709V303.709V303.709V303.708V303.708V303.708V303.708V303.708V303.708V303.708V303.708V303.708V303.707V303.707V303.707V303.707V303.707V303.707V303.707V303.707V303.707V303.706V303.706V303.706V303.706V303.706V303.706V303.706V303.706V303.706V303.705V303.705V303.705V303.705V303.705V303.705V303.705V303.705V303.705V303.704V303.704V303.704V303.704V303.704V296.375ZM63.5753 304.784H63.5159V304.788C63.1739 304.761 62.8062 304.503 62.8062 304.017V296.375V296.375V296.375V296.375V296.375V296.374V296.374V296.374V296.374V296.374V296.374V296.374V296.374V296.374V296.373V296.373V296.373V296.373V296.373V296.373V296.373V296.373V296.373V296.372V296.372V296.372V296.372V296.372V296.372V296.372V296.372V296.372V296.371V296.371V296.371V296.371V296.371V296.371V296.371V296.371V296.371V296.37V296.37V296.37V296.37V296.37V296.37V296.37V296.37V296.37V296.369V296.369V296.369V296.369V296.369C62.8062 296.01 63.0636 295.596 63.5753 295.596H74.2251C74.6075 295.596 74.9944 295.915 74.9944 296.363V296.369V304.011V304.017C74.9944 304.4 74.6714 304.784 74.2251 304.784H63.5753Z" fill="#04005E" stroke="#04005E" stroke-width="0.4"/>
<path d="M88.0873 298.744C87.7284 298.744 87.3164 298.484 87.3164 297.969C87.3164 297.55 86.9778 297.21 86.5638 297.21H80.4757C80.0617 297.21 79.7231 297.55 79.7231 297.969C79.7231 298.359 79.4 298.744 78.9521 298.744C78.5382 298.744 78.1996 299.084 78.1996 299.503V305.634C78.1996 306.053 78.5382 306.393 78.9521 306.393C79.3662 306.393 79.7048 306.053 79.7048 305.634V299.497V299.492C79.7104 299.137 79.9683 298.721 80.4757 298.721H86.5638C86.9528 298.721 87.3347 299.048 87.3347 299.497V305.634C87.3347 306.053 87.6733 306.393 88.0873 306.393C88.5013 306.393 88.8398 306.053 88.8398 305.634V299.497C88.8398 299.078 88.5006 298.744 88.0873 298.744Z" fill="#04005E" stroke="#04005E" stroke-width="0.4"/>
<path d="M14.7471 295.54H14.7462C14.3377 295.546 14 295.888 14 296.308V304.002C14 304.421 14.338 304.763 14.753 304.763C15.1049 304.763 15.5166 305.018 15.5222 305.53V305.53V305.531V305.531V305.531V305.531V305.532V305.532V305.532V305.532V305.532V305.533V305.533V305.533V305.533V305.534V305.534V305.534V305.534V305.534V305.535V305.535V305.535V305.535V305.536V305.536V305.536V305.536V305.536V305.537V305.537V305.537V305.537V305.538V305.538V305.538V305.538V305.538V305.539V305.539V305.539V305.539V305.54V305.54V305.54V305.54V305.54V305.541V305.541V305.541V305.541V305.542V305.542C15.5222 305.961 15.8602 306.303 16.2752 306.303H26.9251C27.34 306.303 27.6781 305.961 27.6781 305.542C27.6781 305.18 27.9356 304.763 28.4472 304.763C28.8623 304.763 29.2004 304.421 29.2004 304.002C29.2004 303.582 28.8623 303.24 28.4472 303.24C28.0323 303.24 27.6943 303.582 27.6943 304.002V304.007C27.6886 304.394 27.3705 304.78 26.9251 304.78H16.2752C15.8879 304.78 15.506 304.453 15.506 304.002V296.308V296.307V296.307V296.307V296.307V296.307V296.306V296.306V296.306V296.306V296.305V296.305V296.305V296.305V296.305V296.304V296.304V296.304V296.304V296.303V296.303V296.303V296.303V296.303V296.302V296.302V296.302C15.506 295.94 15.7635 295.523 16.2752 295.523H26.9251C27.2824 295.523 27.6941 295.784 27.6943 296.301C27.6881 296.728 28.0271 297.063 28.4414 297.063C28.8564 297.063 29.1946 296.721 29.1946 296.302C29.1946 295.882 28.8564 295.54 28.4414 295.54C28.0541 295.54 27.6722 295.213 27.6722 294.762C27.6722 294.342 27.3342 294 26.9192 294H16.2694C15.8544 294 15.5163 294.342 15.5163 294.762C15.5163 295.154 15.1932 295.54 14.7471 295.54Z" fill="#04005E" stroke="#04005E" stroke-width="0.4"/>
<path d="M92.0274 297.21H91.9691V297.269V298.577V298.636H92.0274H99.3322H99.3905V298.577V297.269V297.21H99.3322H92.0274Z" fill="#04005E" stroke="#04005E" stroke-width="0.4"/>
<path d="M100.941 301.665H101V301.605V298.785V298.726H100.941H99.5583H99.4991V298.785V300.087H91.8616V298.895V298.836H91.8023H90.4194H90.3602V298.895V304.729V304.788H90.4194H91.8023H91.8616V304.729V301.665H99.5583H100.247H100.941Z" fill="#04005E" stroke="#04005E" stroke-width="0.4"/>
<path d="M91.9384 304.877H91.8789V304.938V306.332V306.393H91.9384H99.4196H99.4791V306.332V304.938V304.877H99.4196H91.9384Z" fill="#04005E" stroke="#04005E" stroke-width="0.4"/>
<path d="M101.001 303.422V303.361H100.943H99.6279H99.5703V303.422V304.009V304.009V304.009V304.009V304.009V304.009V304.01V304.01V304.01V304.01V304.01V304.01V304.01V304.011V304.011V304.011V304.011V304.011V304.011V304.011V304.011V304.012V304.012V304.012V304.012V304.012V304.012V304.012V304.012V304.013V304.013V304.013V304.013V304.013V304.013V304.013V304.013V304.014V304.014V304.014V304.014V304.014V304.014V304.014V304.014V304.015V304.015V304.015V304.015V304.015V304.015V304.015V304.015V304.016V304.016V304.016V304.016V304.016V304.016V304.016V304.016V304.017V304.017V304.017V304.017V304.017V304.017V304.017V304.017V304.018V304.018V304.018V304.018V304.018V304.018V304.018V304.018V304.019V304.019V304.019V304.019V304.019V304.019V304.019V304.02V304.02V304.02V304.02V304.02V304.02V304.02V304.02V304.021V304.021V304.021V304.021V304.021V304.021V304.021V304.021V304.022V304.022V304.022V304.022V304.022V304.022V304.022V304.022V304.022V304.023V304.023V304.023V304.023V304.023V304.023V304.023V304.023V304.024V304.024V304.024V304.024V304.024V304.024V304.024V304.024V304.025V304.025V304.025V304.025V304.025V304.025V304.025V304.025V304.026V304.026V304.026V304.026V304.026V304.026V304.026V304.026V304.027V304.027V304.027V304.027V304.027V304.027V304.027V304.027V304.028V304.028V304.028V304.028V304.028V304.028V304.028V304.028V304.029V304.029V304.029V304.029V304.728V304.788H99.6279H100.283H100.943H101.001V304.728V303.422Z" fill="#04005E" stroke="#04005E" stroke-width="0.4"/>
<path d="M14.6175 310L15.9212 311.992L17.2248 310H17.7851V313.917H17.2477V310.823L16.047 312.658H15.7954L14.6004 310.823V313.917H14.0572V310H14.6175ZM21.3846 312.44C21.3846 312.47 21.3808 312.514 21.3731 312.574H18.9603C18.9831 312.858 19.086 313.096 19.269 313.29C19.452 313.481 19.7093 313.576 20.0409 313.576C20.201 313.576 20.3649 313.548 20.5326 313.492C20.7004 313.432 20.8434 313.354 20.9615 313.257L21.2016 313.576C21.0568 313.71 20.8757 313.815 20.6584 313.889C20.445 313.964 20.2239 314.001 19.9952 314.001C19.5606 314.001 19.1928 313.867 18.8916 313.598C18.5906 313.33 18.4399 312.988 18.4399 312.574C18.4399 312.149 18.5829 311.787 18.8688 311.489C19.1585 311.186 19.5092 311.035 19.9208 311.035C20.3783 311.035 20.7366 311.171 20.9958 311.444C21.255 311.712 21.3846 312.044 21.3846 312.44ZM20.8814 312.21C20.8434 311.994 20.7404 311.817 20.5727 311.679C20.4088 311.537 20.1915 311.466 19.9208 311.466C19.6921 311.466 19.492 311.535 19.3205 311.673C19.1489 311.808 19.0346 311.987 18.9774 312.21H20.8814ZM21.9546 313.917V314.706H21.4857V313.481H21.8288C21.9432 313.32 22.0385 313.091 22.1147 312.792C22.1909 312.494 22.229 312.171 22.229 311.824V311.119H24.3789V313.481H24.8192V314.706H24.3217V313.917H21.9546ZM23.8643 313.481V311.561H22.7208V311.875C22.7208 312.188 22.6865 312.496 22.6178 312.798C22.5492 313.1 22.4692 313.328 22.3777 313.481H23.8643ZM25.8885 311.119V313.229C26.8682 311.942 27.4037 311.239 27.4952 311.119H28.0212V313.917H27.5066V311.819L25.9057 313.917H25.3796V311.119H25.8885ZM29.5739 314.001C29.2766 314.001 29.0403 313.93 28.8649 313.788C28.6934 313.647 28.6076 313.453 28.6076 313.207C28.6076 313.083 28.6286 312.975 28.6705 312.882C28.7125 312.785 28.7658 312.705 28.8306 312.641C28.8955 312.578 28.9831 312.524 29.0936 312.479C29.208 312.434 29.3148 312.399 29.4138 312.373C29.5167 312.347 29.6464 312.328 29.8026 312.317C29.9627 312.302 30.0981 312.293 30.2086 312.289C30.3229 312.285 30.4679 312.281 30.6431 312.278V312.048C30.6431 311.645 30.4144 311.444 29.957 311.444C29.6178 311.444 29.3129 311.561 29.0422 311.796L28.762 311.489C29.1013 311.186 29.5149 311.035 30.0027 311.035C30.2353 311.035 30.4316 311.065 30.5917 311.125C30.7556 311.185 30.8757 311.267 30.9519 311.371C31.0282 311.472 31.0815 311.572 31.112 311.673C31.1426 311.774 31.1577 311.882 31.1577 311.998V313.917H30.6431V313.425C30.3306 313.809 29.9742 314.001 29.5739 314.001ZM29.6997 313.615C30.0581 313.615 30.3725 313.415 30.6431 313.016V312.602C30.2772 312.602 29.9723 312.623 29.7283 312.664C29.6521 312.675 29.5759 312.695 29.4996 312.725C29.4234 312.755 29.3452 312.811 29.2652 312.893C29.189 312.971 29.1508 313.065 29.1508 313.173C29.1508 313.326 29.2061 313.438 29.3166 313.509C29.431 313.58 29.5587 313.615 29.6997 313.615ZM31.85 312.513V312.048H33.4453V312.513H31.85ZM34.4993 312.518C34.4993 312.809 34.5945 313.052 34.7852 313.246C34.9758 313.436 35.2178 313.531 35.5114 313.531C35.8124 313.531 36.0888 313.425 36.3404 313.212C36.3519 313.227 36.3919 313.279 36.4605 313.369C36.5329 313.455 36.5863 313.522 36.6206 313.57C36.3156 313.857 35.9402 314.001 35.4942 314.001C35.0748 314.001 34.7203 313.854 34.4307 313.559C34.1448 313.264 34.0019 312.917 34.0019 312.518C34.0019 312.123 34.1448 311.778 34.4307 311.483C34.7203 311.185 35.0748 311.035 35.4942 311.035C35.9363 311.035 36.3118 311.181 36.6206 311.472C36.5863 311.52 36.5329 311.589 36.4605 311.679C36.3919 311.765 36.3519 311.815 36.3404 311.83C36.0888 311.617 35.8124 311.511 35.5114 311.511C35.2255 311.511 34.9853 311.608 34.7909 311.802C34.5965 311.996 34.4993 312.235 34.4993 312.518ZM39.8054 312.44C39.8054 312.47 39.8015 312.514 39.7939 312.574H37.3811C37.4039 312.858 37.5068 313.096 37.6898 313.29C37.8728 313.481 38.1301 313.576 38.4617 313.576C38.6218 313.576 38.7856 313.548 38.9534 313.492C39.1211 313.432 39.2641 313.354 39.3823 313.257L39.6224 313.576C39.4775 313.71 39.2965 313.815 39.0792 313.889C38.8657 313.964 38.6447 314.001 38.416 314.001C37.9814 314.001 37.6135 313.867 37.3124 313.598C37.0113 313.33 36.8607 312.988 36.8607 312.574C36.8607 312.149 37.0037 311.787 37.2896 311.489C37.5792 311.186 37.93 311.035 38.3416 311.035C38.7991 311.035 39.1573 311.171 39.4166 311.444C39.6757 311.712 39.8054 312.044 39.8054 312.44ZM39.3022 312.21C39.2641 311.994 39.1611 311.817 38.9935 311.679C38.8295 311.537 38.6122 311.466 38.3416 311.466C38.1129 311.466 37.9128 311.535 37.7413 311.673C37.5697 311.808 37.4554 311.987 37.3982 312.21H39.3022ZM41.9036 314.001C41.4995 314.001 41.1697 313.852 40.9144 313.553V314.974H40.4055V311.119H40.9144V311.489C41.1736 311.194 41.509 311.046 41.9207 311.046C42.3286 311.046 42.6659 311.19 42.9328 311.477C43.2034 311.765 43.3387 312.112 43.3387 312.518C43.3387 312.932 43.2015 313.283 42.927 313.57C42.6563 313.857 42.3152 314.001 41.9036 314.001ZM41.7549 311.494C41.408 311.494 41.1278 311.632 40.9144 311.908V313.134C41.124 313.41 41.4041 313.548 41.7549 313.548C42.0445 313.548 42.2904 313.447 42.4925 313.246C42.6945 313.044 42.7955 312.802 42.7955 312.518C42.7955 312.238 42.6926 311.998 42.4868 311.796C42.2847 311.595 42.0408 311.494 41.7549 311.494ZM46.2385 311.802C46.2385 311.929 46.2023 312.05 46.1299 312.166C46.0574 312.281 45.9602 312.375 45.8382 312.445C45.9983 312.505 46.1241 312.598 46.2156 312.725C46.311 312.852 46.3586 312.994 46.3586 313.151C46.3586 313.363 46.2804 313.544 46.1241 313.693C45.9716 313.843 45.7715 313.917 45.5238 313.917H43.94V311.119H45.4552C45.6839 311.119 45.8707 311.186 46.0155 311.321C46.1642 311.451 46.2385 311.612 46.2385 311.802ZM44.4488 313.548H45.3465C45.4876 313.548 45.6038 313.509 45.6953 313.43C45.7868 313.348 45.8325 313.242 45.8325 313.111C45.8325 312.977 45.7868 312.869 45.6953 312.787C45.6038 312.701 45.4876 312.658 45.3465 312.658H44.4488V313.548ZM45.7525 311.875C45.7525 311.759 45.7067 311.668 45.6153 311.6C45.5276 311.53 45.4209 311.494 45.2951 311.494H44.4488V312.3H45.2951C45.4209 312.3 45.5276 312.259 45.6153 312.177C45.7067 312.095 45.7525 311.994 45.7525 311.875ZM47.4976 311.119V313.229C48.4772 311.942 49.0128 311.239 49.1043 311.119H49.6303V313.917H49.1157V311.819L47.5148 313.917H46.9887V311.119H47.4976ZM50.7256 312.518C50.7256 312.809 50.8209 313.052 51.0115 313.246C51.202 313.436 51.4442 313.531 51.7376 313.531C52.0388 313.531 52.3151 313.425 52.5667 313.212C52.5782 313.227 52.6182 313.279 52.6868 313.369C52.7592 313.455 52.8126 313.522 52.8469 313.57C52.542 313.857 52.1665 314.001 51.7205 314.001C51.3012 314.001 50.9467 313.854 50.657 313.559C50.3711 313.264 50.2282 312.917 50.2282 312.518C50.2282 312.123 50.3711 311.778 50.657 311.483C50.9467 311.185 51.3012 311.035 51.7205 311.035C52.1626 311.035 52.5381 311.181 52.8469 311.472C52.8126 311.52 52.7592 311.589 52.6868 311.679C52.6182 311.765 52.5782 311.815 52.5667 311.83C52.3151 311.617 52.0388 311.511 51.7376 311.511C51.4518 311.511 51.2116 311.608 51.0172 311.802C50.8228 311.996 50.7256 312.235 50.7256 312.518ZM54.9712 313.917V314.706H54.5024V313.481H54.8455C54.9598 313.32 55.055 313.091 55.1313 312.792C55.2075 312.494 55.2457 312.171 55.2457 311.824V311.119H57.3956V313.481H57.8358V314.706H57.3384V313.917H54.9712ZM56.881 313.481V311.561H55.7374V311.875C55.7374 312.188 55.7031 312.496 55.6345 312.798C55.5659 313.1 55.4858 313.328 55.3944 313.481H56.881ZM58.0532 313.917V313.509H58.2476C58.4267 313.509 58.5507 313.419 58.6193 313.24C58.6879 313.061 58.7222 312.733 58.7222 312.255V311.119H60.9807V313.917H60.4661V311.561H59.2311V312.384C59.2311 313.406 58.9223 313.917 58.3048 313.917H58.0532ZM63.3867 312.921H62.8549L62.1745 313.917H61.5799C61.9382 313.417 62.1841 313.072 62.3174 312.882C62.0887 312.845 61.9076 312.744 61.7743 312.58C61.6446 312.416 61.5799 312.229 61.5799 312.02C61.5799 311.778 61.6675 311.567 61.8429 311.388C62.0182 311.209 62.2564 311.119 62.5576 311.119H63.9013V313.917H63.3867V312.921ZM63.3867 311.533H62.5976C62.4565 311.533 62.3365 311.578 62.2374 311.668C62.1421 311.753 62.0944 311.871 62.0944 312.02C62.0944 312.169 62.1421 312.289 62.2374 312.378C62.3365 312.468 62.4565 312.513 62.5976 312.513H63.3867V311.533ZM68.2283 311.119V311.578H66.633V313.917H66.1241V311.119H68.2283ZM71.2584 312.44C71.2584 312.47 71.2547 312.514 71.247 312.574H68.8341C68.857 312.858 68.9599 313.096 69.1429 313.29C69.3259 313.481 69.5832 313.576 69.9148 313.576C70.0749 313.576 70.2388 313.548 70.4065 313.492C70.5743 313.432 70.7172 313.354 70.8353 313.257L71.0755 313.576C70.9307 313.71 70.7496 313.815 70.5323 313.889C70.3189 313.964 70.0977 314.001 69.869 314.001C69.4345 314.001 69.0667 313.867 68.7655 313.598C68.4645 313.33 68.3138 312.988 68.3138 312.574C68.3138 312.149 68.4568 311.787 68.7426 311.489C69.0324 311.186 69.383 311.035 69.7947 311.035C70.2521 311.035 70.6105 311.171 70.8696 311.444C71.1289 311.712 71.2584 312.044 71.2584 312.44ZM70.7553 312.21C70.7172 311.994 70.6143 311.817 70.4465 311.679C70.2827 311.537 70.0654 311.466 69.7947 311.466C69.566 311.466 69.3659 311.535 69.1943 311.673C69.0228 311.808 68.9085 311.987 68.8513 312.21H70.7553ZM72.4132 310.129C72.6534 310.241 72.9107 310.297 73.1851 310.297C73.4596 310.297 73.7131 310.241 73.9456 310.129L74.1285 310.464C73.8503 310.599 73.5359 310.666 73.1851 310.666C72.8306 310.666 72.5143 310.599 72.236 310.464C72.278 310.39 72.337 310.278 72.4132 310.129ZM72.3732 311.119V313.229C72.4647 313.11 73.0003 312.406 73.9799 311.119H74.5059V313.917H73.9913V311.819L72.3903 313.917H71.8586V311.119H72.3732ZM76.8475 312.557C76.9772 312.371 77.164 312.104 77.4079 311.757C77.6519 311.41 77.8005 311.198 77.8539 311.119H78.3971V313.917H77.8882V311.83C77.7967 311.957 77.6995 312.093 77.5966 312.238C77.4936 312.384 77.3793 312.546 77.2535 312.725C77.1277 312.904 77.0305 313.042 76.9619 313.139H76.7332L75.8126 311.83V313.917H75.3037V311.119H75.8469L76.8475 312.557ZM81.9402 312.44C81.9402 312.47 81.9363 312.514 81.9287 312.574H79.5159C79.5387 312.858 79.6416 313.096 79.8246 313.29C80.0076 313.481 80.2649 313.576 80.5965 313.576C80.7566 313.576 80.9206 313.548 81.0882 313.492C81.2559 313.432 81.3989 313.354 81.5171 313.257L81.7572 313.576C81.6124 313.71 81.4313 313.815 81.214 313.889C81.0006 313.964 80.7795 314.001 80.5508 314.001C80.1162 314.001 79.7484 313.867 79.4472 313.598C79.1461 313.33 78.9955 312.988 78.9955 312.574C78.9955 312.149 79.1385 311.787 79.4244 311.489C79.7141 311.186 80.0648 311.035 80.4764 311.035C80.9339 311.035 81.2922 311.171 81.5514 311.444C81.8105 311.712 81.9402 312.044 81.9402 312.44ZM81.437 312.21C81.3989 311.994 81.2959 311.817 81.1283 311.679C80.9643 311.537 80.747 311.466 80.4764 311.466C80.2477 311.466 80.0476 311.535 79.8761 311.673C79.7045 311.808 79.5902 311.987 79.533 312.21H81.437ZM84.0384 314.001C83.6343 314.001 83.3046 313.852 83.0492 313.553V315.059H82.5403V311.119H83.0492V311.489C83.3084 311.194 83.6438 311.046 84.0555 311.046C84.4634 311.046 84.8007 311.19 85.0676 311.477C85.3382 311.765 85.4735 312.112 85.4735 312.518C85.4735 312.932 85.3363 313.283 85.0618 313.57C84.7912 313.857 84.4501 314.001 84.0384 314.001ZM83.8897 311.494C83.5428 311.494 83.2626 311.632 83.0492 311.908V313.134C83.2589 313.41 83.5391 313.548 83.8897 313.548C84.1794 313.548 84.4253 313.447 84.6273 313.246C84.8293 313.044 84.9303 312.802 84.9303 312.518C84.9303 312.238 84.8274 311.998 84.6216 311.796C84.4196 311.595 84.1756 311.494 83.8897 311.494ZM87.4299 313.565C87.7272 313.565 87.9769 313.464 88.1789 313.262C88.381 313.057 88.4819 312.809 88.4819 312.518C88.4819 312.235 88.381 311.99 88.1789 311.785C87.9769 311.58 87.7272 311.477 87.4299 311.477C87.1326 311.477 86.881 311.58 86.6751 311.785C86.4731 311.99 86.3721 312.235 86.3721 312.518C86.3721 312.809 86.4731 313.057 86.6751 313.262C86.8772 313.464 87.1288 313.565 87.4299 313.565ZM88.5448 313.576C88.2552 313.859 87.8836 314.001 87.4299 314.001C86.9763 314.001 86.6028 313.859 86.3092 313.576C86.0196 313.289 85.8746 312.936 85.8746 312.518C85.8746 312.104 86.0196 311.753 86.3092 311.466C86.6028 311.179 86.9763 311.035 87.4299 311.035C87.8836 311.035 88.2552 311.179 88.5448 311.466C88.8346 311.753 88.9794 312.104 88.9794 312.518C88.9794 312.936 88.8346 313.289 88.5448 313.576ZM91.8799 311.802C91.8799 311.929 91.8438 312.05 91.7713 312.166C91.6988 312.281 91.6016 312.375 91.4797 312.445C91.6398 312.505 91.7656 312.598 91.857 312.725C91.9524 312.852 92 312.994 92 313.151C92 313.363 91.9218 313.544 91.7656 313.693C91.6131 313.843 91.4129 313.917 91.1652 313.917H89.5814V311.119H91.0966C91.3253 311.119 91.5121 311.186 91.6569 311.321C91.8056 311.451 91.8799 311.612 91.8799 311.802ZM90.0903 313.548H90.988C91.129 313.548 91.2453 313.509 91.3367 313.43C91.4282 313.348 91.474 313.242 91.474 313.111C91.474 312.977 91.4282 312.869 91.3367 312.787C91.2453 312.701 91.129 312.658 90.988 312.658H90.0903V313.548ZM91.3939 311.875C91.3939 311.759 91.3482 311.668 91.2567 311.6C91.1691 311.53 91.0623 311.494 90.9365 311.494H90.0903V312.3H90.9365C91.0623 312.3 91.1691 312.259 91.2567 312.177C91.3482 312.095 91.3939 311.994 91.3939 311.875ZM14.5089 317.06V319.17C15.4885 317.883 16.0241 317.18 16.1156 317.06H16.6416V319.858H16.127V317.76L14.526 319.858H14V317.06H14.5089ZM19.3779 317.06V319.17C20.3576 317.883 20.8931 317.18 20.9846 317.06H21.5106V319.858H20.996V317.76L19.395 319.858H18.869V317.06H19.3779ZM24.4242 318.638H22.8175V319.858H22.3086V317.06H22.8175V318.185H24.4242V317.06H24.9388V319.858H24.4242V318.638ZM25.8799 319.858V320.647H25.4111V319.422H25.7541C25.8685 319.261 25.9638 319.032 26.04 318.734C26.1163 318.435 26.1544 318.112 26.1544 317.766V317.06H28.3042V319.422H28.7445V320.647H28.2471V319.858H25.8799ZM27.7897 319.422V317.502H26.6461V317.816C26.6461 318.129 26.6118 318.437 26.5432 318.739C26.4746 319.041 26.3945 319.269 26.303 319.422H27.7897ZM29.8138 317.06V319.17C30.7936 317.883 31.329 317.18 31.4205 317.06H31.9466V319.858H31.432V317.76L29.831 319.858H29.305V317.06H29.8138ZM32.6932 318.454V317.989H34.2884V318.454H32.6932ZM36.5432 319.942C36.1391 319.942 35.8093 319.793 35.554 319.495V321H35.0451V317.06H35.554V317.43C35.8132 317.135 36.1487 316.988 36.5603 316.988C36.9682 316.988 37.3055 317.131 37.5724 317.419C37.843 317.706 37.9783 318.053 37.9783 318.459C37.9783 318.874 37.8411 319.224 37.5667 319.511C37.2959 319.799 36.9549 319.942 36.5432 319.942ZM36.3945 317.435C36.0476 317.435 35.7674 317.573 35.554 317.849V319.075C35.7636 319.351 36.0438 319.489 36.3945 319.489C36.6842 319.489 36.93 319.388 37.1321 319.187C37.3341 318.985 37.4352 318.743 37.4352 318.459C37.4352 318.18 37.3322 317.939 37.1264 317.738C36.9243 317.536 36.6804 317.435 36.3945 317.435ZM39.3343 319.942C39.037 319.942 38.8007 319.871 38.6253 319.73C38.4538 319.588 38.368 319.394 38.368 319.148C38.368 319.025 38.389 318.916 38.4309 318.823C38.4728 318.726 38.5263 318.646 38.591 318.583C38.6558 318.519 38.7435 318.465 38.854 318.42C38.9684 318.375 39.0752 318.34 39.1742 318.314C39.2771 318.288 39.4068 318.269 39.563 318.258C39.7231 318.243 39.8585 318.234 39.969 318.23C40.0833 318.226 40.2282 318.223 40.4035 318.219V317.989C40.4035 317.586 40.1748 317.385 39.7174 317.385C39.3782 317.385 39.0732 317.502 38.8026 317.738L38.5224 317.43C38.8616 317.128 39.2753 316.976 39.7632 316.976C39.9957 316.976 40.192 317.006 40.3521 317.066C40.516 317.126 40.6361 317.208 40.7123 317.312C40.7885 317.413 40.8419 317.514 40.8724 317.614C40.9029 317.715 40.9181 317.823 40.9181 317.939V319.858H40.4035V319.366C40.0909 319.75 39.7346 319.942 39.3343 319.942ZM39.4601 319.556C39.8185 319.556 40.1329 319.357 40.4035 318.957V318.543C40.0376 318.543 39.7327 318.564 39.4887 318.605C39.4125 318.616 39.3362 318.637 39.26 318.666C39.1838 318.696 39.1056 318.752 39.0256 318.834C38.9494 318.913 38.9112 319.006 38.9112 319.114C38.9112 319.267 38.9665 319.379 39.077 319.45C39.1914 319.521 39.319 319.556 39.4601 319.556ZM42.2278 318.241H42.6738C42.8149 318.241 42.9368 318.196 43.0397 318.107C43.1427 318.017 43.1941 317.913 43.1941 317.793C43.1941 317.529 43.0074 317.396 42.6338 317.396C42.2984 317.396 42.024 317.506 41.8104 317.726C41.7914 317.704 41.7514 317.657 41.6904 317.586C41.6294 317.512 41.5837 317.454 41.5531 317.413C41.8276 317.122 42.1992 316.976 42.6681 316.976C43.0074 316.976 43.2609 317.047 43.4286 317.189C43.6001 317.331 43.6859 317.504 43.6859 317.71C43.6859 317.855 43.6401 317.991 43.5486 318.118C43.4571 318.241 43.3333 318.336 43.177 318.403C43.3562 318.459 43.4953 318.553 43.5944 318.683C43.6973 318.81 43.7487 318.952 43.7487 319.109C43.7487 319.34 43.6535 319.538 43.4629 319.702C43.2762 319.862 42.9846 319.942 42.588 319.942C42.123 319.942 41.7381 319.799 41.4331 319.511L41.6904 319.204C41.9496 319.428 42.2412 319.539 42.5652 319.539C42.7787 319.539 42.9407 319.495 43.0512 319.405C43.1655 319.316 43.2227 319.202 43.2227 319.064C43.2227 318.929 43.1713 318.819 43.0683 318.734C42.9693 318.644 42.8396 318.599 42.6795 318.599H42.2278V318.241ZM45.8736 319.942C45.4695 319.942 45.1398 319.793 44.8844 319.495V321H44.3755V317.06H44.8844V317.43C45.1435 317.135 45.479 316.988 45.8907 316.988C46.2985 316.988 46.6359 317.131 46.9027 317.419C47.1733 317.706 47.3087 318.053 47.3087 318.459C47.3087 318.874 47.1715 319.224 46.897 319.511C46.6264 319.799 46.2852 319.942 45.8736 319.942ZM45.7249 317.435C45.378 317.435 45.0978 317.573 44.8844 317.849V319.075C45.0941 319.351 45.3742 319.489 45.7249 319.489C46.0146 319.489 46.2605 319.388 46.4625 319.187C46.6645 318.985 46.7655 318.743 46.7655 318.459C46.7655 318.18 46.6626 317.939 46.4568 317.738C46.2548 317.536 46.0108 317.435 45.7249 317.435ZM48.6648 319.942C48.3675 319.942 48.1311 319.871 47.9558 319.73C47.7843 319.588 47.6985 319.394 47.6985 319.148C47.6985 319.025 47.7194 318.916 47.7614 318.823C47.8033 318.726 47.8566 318.646 47.9215 318.583C47.9863 318.519 48.0739 318.465 48.1845 318.42C48.2989 318.375 48.4055 318.34 48.5047 318.314C48.6076 318.288 48.7371 318.269 48.8935 318.258C49.0536 318.243 49.1889 318.234 49.2995 318.23C49.4138 318.226 49.5586 318.223 49.734 318.219V317.989C49.734 317.586 49.5053 317.385 49.0479 317.385C48.7086 317.385 48.4036 317.502 48.133 317.738L47.8529 317.43C48.1921 317.128 48.6056 316.976 49.0936 316.976C49.3261 316.976 49.5225 317.006 49.6826 317.066C49.8464 317.126 49.9665 317.208 50.0428 317.312C50.119 317.413 50.1723 317.514 50.2029 317.614C50.2333 317.715 50.2486 317.823 50.2486 317.939V319.858H49.734V319.366C49.4214 319.75 49.065 319.942 48.6648 319.942ZM48.7906 319.556C49.1488 319.556 49.4633 319.357 49.734 318.957V318.543C49.3681 318.543 49.0631 318.564 48.8192 318.605C48.7429 318.616 48.6667 318.637 48.5905 318.666C48.5142 318.696 48.4361 318.752 48.356 318.834C48.2797 318.913 48.2417 319.006 48.2417 319.114C48.2417 319.267 48.2969 319.379 48.4075 319.45C48.5219 319.521 48.6495 319.556 48.7906 319.556ZM53.6281 316.221C53.4642 316.258 53.2793 316.298 53.0735 316.339C52.8714 316.38 52.7076 316.411 52.5818 316.434C52.4597 316.456 52.3245 316.486 52.1758 316.523C52.0309 316.561 51.9165 316.6 51.8328 316.641C51.7489 316.682 51.6612 316.736 51.5697 316.803C51.482 316.87 51.4134 316.948 51.3639 317.038C51.3182 317.128 51.2781 317.238 51.2438 317.368C51.2095 317.499 51.1885 317.65 51.1809 317.821C51.2839 317.59 51.4458 317.413 51.6669 317.29C51.888 317.167 52.1262 317.105 52.3817 317.105C52.7933 317.105 53.1383 317.23 53.4166 317.48C53.6986 317.726 53.8397 318.062 53.8397 318.487C53.8397 318.909 53.7025 319.258 53.428 319.534C53.1573 319.806 52.7914 319.942 52.3302 319.942C51.8346 319.942 51.4534 319.789 51.1867 319.483C50.9236 319.178 50.7921 318.741 50.7921 318.174C50.7921 317.932 50.7997 317.719 50.815 317.536C50.834 317.353 50.8665 317.193 50.9122 317.055C50.9617 316.913 51.0113 316.796 51.0609 316.702C51.1103 316.605 51.1847 316.519 51.2839 316.445C51.3868 316.367 51.482 316.307 51.5697 316.266C51.6574 316.221 51.7813 316.176 51.9414 316.131C52.1052 316.087 52.252 316.051 52.3817 316.025C52.5112 315.995 52.6884 315.956 52.9134 315.908C53.1421 315.855 53.346 315.807 53.5252 315.762C53.59 316.046 53.6243 316.199 53.6281 316.221ZM52.3245 319.511C52.6141 319.511 52.8524 319.416 53.0392 319.226C53.2259 319.032 53.3194 318.793 53.3194 318.51C53.3194 318.204 53.2202 317.963 53.022 317.788C52.8276 317.609 52.5951 317.519 52.3245 317.519C52.0538 317.519 51.8213 317.609 51.6269 317.788C51.4325 317.963 51.3353 318.204 51.3353 318.51C51.3353 318.793 51.4268 319.032 51.6098 319.226C51.7927 319.416 52.0309 319.511 52.3245 319.511ZM55.7925 319.506C56.0898 319.506 56.3394 319.405 56.5415 319.204C56.7435 318.998 56.8446 318.75 56.8446 318.459C56.8446 318.176 56.7435 317.932 56.5415 317.726C56.3394 317.521 56.0898 317.419 55.7925 317.419C55.4952 317.419 55.2436 317.521 55.0378 317.726C54.8357 317.932 54.7347 318.176 54.7347 318.459C54.7347 318.75 54.8357 318.998 55.0378 319.204C55.2398 319.405 55.4913 319.506 55.7925 319.506ZM56.9075 319.517C56.6177 319.801 56.2461 319.942 55.7925 319.942C55.3388 319.942 54.9653 319.801 54.6718 319.517C54.3821 319.23 54.2373 318.877 54.2373 318.459C54.2373 318.045 54.3821 317.695 54.6718 317.407C54.9653 317.12 55.3388 316.976 55.7925 316.976C56.2461 316.976 56.6177 317.12 56.9075 317.407C57.1971 317.695 57.342 318.045 57.342 318.459C57.342 318.877 57.1971 319.23 56.9075 319.517ZM60.0622 317.06V317.519H59.0445V319.858H58.5356V317.519H57.5178V317.06H60.0622ZM60.3459 317.978V317.06H60.8548V317.917C60.8548 318.103 60.912 318.241 61.0263 318.331C61.1444 318.42 61.3008 318.465 61.4952 318.465C61.7239 318.465 61.9773 318.437 62.2556 318.381V317.06H62.7645V319.858H62.2556V318.823C61.9355 318.875 61.6629 318.901 61.438 318.901C61.0987 318.901 60.8319 318.825 60.6375 318.672C60.4431 318.515 60.3459 318.284 60.3459 317.978ZM64.0756 317.06V319.17C65.0552 317.883 65.5908 317.18 65.6823 317.06H66.2084V319.858H65.6938V317.76L64.0928 319.858H63.5668V317.06H64.0756ZM68.9389 319.858L67.5895 318.398L68.8817 317.06H69.5107L68.1613 318.398L69.5679 319.858H68.9389ZM67.0063 317.06H67.5152V319.858H67.0063V317.06Z" fill="#04005E"/>
</svg>
