<svg width="334" height="473" viewBox="0 0 334 473" fill="none" xmlns="http://www.w3.org/2000/svg">
<g clip-path="url(#clip0)">
<rect width="334" height="473" fill="#F5F6FF"/>
<circle cx="166.499" cy="407.167" r="51.1667" fill="#04005E"/>
<circle cx="64.1667" cy="304.834" r="51.1667" fill="#04005E"/>
<circle cx="166.499" cy="202.5" r="51.1667" fill="#04005E"/>
<circle cx="268.835" cy="100.167" r="51.1667" fill="#04005E"/>
<circle cx="268.835" cy="304.834" r="51.1667" fill="#04005E"/>
<path fill-rule="evenodd" clip-rule="evenodd" d="M115.33 304.833C115.33 333.091 92.4225 356 64.1635 356C63.9801 356 63.7969 355.999 63.614 355.997V356.003C63.7969 356.001 63.9801 356 64.1635 356C92.4225 356 115.33 378.908 115.33 407.166C115.33 407.35 115.329 407.533 115.327 407.717H115.333C115.331 407.533 115.33 407.35 115.33 407.166C115.33 378.908 138.238 356 166.497 356M115.33 304.833C115.33 333.091 138.238 356 166.497 356L115.33 304.833Z" fill="#04005E"/>
<path fill-rule="evenodd" clip-rule="evenodd" d="M115.33 202.5C115.33 230.758 92.4225 253.667 64.1635 253.667C63.9801 253.667 63.7969 253.666 63.614 253.664V253.67C63.7969 253.668 63.9801 253.667 64.1635 253.667C92.4225 253.667 115.33 276.575 115.33 304.833C115.33 305.017 115.329 305.2 115.327 305.384H115.333C115.331 305.2 115.33 305.017 115.33 304.833C115.33 276.575 138.238 253.667 166.497 253.667M115.33 202.5C115.33 230.758 138.238 253.667 166.497 253.667L115.33 202.5Z" fill="#04005E"/>
<path fill-rule="evenodd" clip-rule="evenodd" d="M217.666 202.453C217.666 230.712 194.758 253.62 166.499 253.62C166.316 253.62 166.132 253.619 165.949 253.617V253.623C166.132 253.621 166.316 253.62 166.499 253.62C194.758 253.62 217.666 276.528 217.666 304.786C217.666 304.97 217.665 305.153 217.663 305.337H217.669C217.667 305.153 217.666 304.97 217.666 304.786C217.666 276.528 240.573 253.62 268.832 253.62C240.573 253.62 217.666 230.712 217.666 202.453Z" fill="#04005E"/>
<path d="M273.962 449.619H271.252C270.882 449.619 270.581 449.923 270.581 450.294C270.581 450.642 270.293 450.984 269.897 450.984C269.527 450.984 269.226 451.288 269.226 451.659V457.241C269.226 457.613 269.527 457.916 269.897 457.916C270.266 457.916 270.567 457.613 270.567 457.241V451.654C270.567 451.333 270.796 450.964 271.252 450.964H273.962C274.332 450.964 274.632 450.66 274.632 450.289C274.632 449.922 274.331 449.619 273.962 449.619Z" fill="#04005E" stroke="#04005E" stroke-width="0.4"/>
<path d="M282.747 455.8V455.8C282.752 456.153 282.463 456.5 282.065 456.5H276.626C276.307 456.5 275.939 456.269 275.939 455.81V451.719V451.719V451.719V451.719V451.719V451.718V451.718V451.718V451.718V451.718V451.718V451.718V451.718V451.718V451.718V451.718V451.718V451.718V451.718V451.718V451.718V451.718V451.718V451.718V451.718V451.718V451.718V451.718V451.718V451.718V451.718V451.718V451.718V451.718V451.718V451.718V451.718V451.718V451.718V451.718V451.718V451.718V451.718V451.718V451.718V451.718V451.718V451.718V451.718V451.718V451.718V451.718V451.718V451.718V451.718V451.718V451.718V451.718V451.718V451.718V451.718V451.718V451.718V451.718V451.718V451.718V451.718V451.718V451.718V451.718V451.718V451.718V451.718V451.718V451.718V451.718V451.718V451.718V451.718V451.718V451.718V451.718V451.718V451.718V451.718V451.718V451.718V451.718V451.718V451.718V451.718V451.718V451.718V451.718V451.718V451.718V451.718V451.718V451.718V451.717V451.717V451.717V451.717V451.717V451.717V451.717V451.717V451.717V451.717V451.717V451.717V451.717V451.717V451.717V451.717V451.717V451.717V451.717V451.717V451.717V451.717V451.717V451.717V451.717V451.717V451.717V451.717V451.717V451.717V451.717V451.717V451.717V451.717V451.717V451.717V451.717V451.717V451.717V451.717V451.717V451.717V451.717V451.717V451.717V451.717V451.717V451.717V451.717V451.717V451.717V451.717V451.717V451.717V451.717V451.717V451.717V451.717V451.717V451.717V451.717V451.717V451.717V451.717V451.717V451.717V451.717V451.717V451.717V451.717V451.717V451.717V451.717V451.717V451.716V451.716V451.716V451.716V451.716V451.716V451.716V451.716V451.716V451.716V451.716V451.716V451.716V451.716V451.716V451.716V451.716V451.716V451.716V451.716V451.716V451.716V451.716V451.716V451.716V451.716V451.716V451.716V451.716V451.716V451.716V451.716V451.716V451.716V451.716V451.716V451.716V451.716V451.716V451.716V451.716V451.716V451.716V451.716V451.716V451.716V451.716V451.716V451.716V451.716V451.716V451.716V451.716V451.715V451.715V451.715V451.715V451.715V451.715V451.715V451.715V451.715V451.715V451.715V451.715V451.715V451.715V451.715V451.715V451.715V451.715V451.715V451.715V451.715V451.715V451.715V451.715V451.715V451.715V451.715V451.715V451.715V451.715V451.715V451.715V451.715V451.715V451.715V451.715V451.715V451.715V451.715V451.715V451.715V451.715V451.714V451.714V451.714V451.714V451.714V451.714V451.714V451.714V451.714V451.714V451.714V451.714V451.714V451.714V451.714V451.714V451.714V451.714V451.714V451.714V451.714V451.714V451.714V451.714V451.714V451.714V451.714V451.714V451.714V451.714V451.714V451.714V451.714V451.714V451.714V451.714V451.713V451.713V451.713V451.713V451.713V451.713V451.713V451.713C275.939 451.393 276.169 451.024 276.626 451.024H282.06C282.406 451.024 282.747 451.313 282.747 451.713V455.8ZM283.425 451.049C283.106 451.049 282.738 450.819 282.738 450.36C282.738 449.988 282.436 449.686 282.065 449.686H276.626C276.255 449.686 275.953 449.988 275.953 450.36C275.953 450.707 275.665 451.049 275.266 451.049C274.895 451.049 274.594 451.352 274.594 451.724V455.81C274.594 456.182 274.895 456.485 275.266 456.485C275.612 456.485 275.953 456.774 275.953 457.174C275.953 457.546 276.255 457.848 276.626 457.848H282.06C282.431 457.848 282.733 457.546 282.733 457.174C282.733 456.854 282.963 456.485 283.42 456.485C283.791 456.485 284.092 456.182 284.092 455.81V451.719C284.092 451.347 283.796 451.049 283.425 451.049Z" fill="#04005E" stroke="#04005E" stroke-width="0.4"/>
<path d="M267.319 451.049C267 451.049 266.631 450.819 266.631 450.36C266.631 449.988 266.33 449.686 265.959 449.686H260.525C260.154 449.686 259.852 449.988 259.852 450.36C259.852 450.707 259.564 451.049 259.165 451.049C258.794 451.049 258.493 451.352 258.493 451.724V455.81C258.493 456.182 258.794 456.485 259.165 456.485C259.511 456.485 259.852 456.774 259.852 457.174C259.852 457.546 260.154 457.848 260.525 457.848H265.959C266.33 457.848 266.631 457.546 266.631 457.174C266.631 456.854 266.862 456.485 267.319 456.485C267.689 456.485 267.991 456.182 267.991 455.81V451.719C267.991 451.347 267.689 451.049 267.319 451.049ZM265.959 456.5H260.525C260.206 456.5 259.837 456.269 259.837 455.81V451.719V451.719V451.719V451.719V451.719V451.718V451.718V451.718V451.718V451.718V451.718V451.718V451.718V451.718V451.718V451.718V451.718V451.718V451.718V451.718V451.718V451.718V451.718V451.718V451.718V451.718V451.718V451.718V451.718V451.718V451.718V451.718V451.718V451.718V451.718V451.718V451.718V451.718V451.718V451.718V451.718V451.718V451.718V451.718V451.718V451.718V451.718V451.718V451.718V451.718V451.718V451.718V451.718V451.718V451.718V451.718V451.718V451.718V451.718V451.718V451.718V451.718V451.718V451.718V451.718V451.718V451.718V451.718V451.718V451.718V451.718V451.718V451.718V451.718V451.718V451.718V451.718V451.718V451.718V451.718V451.718V451.718V451.718V451.718V451.718V451.718V451.718V451.718V451.718V451.718V451.718V451.718V451.718V451.718V451.718V451.718V451.718V451.718V451.718V451.717V451.717V451.717V451.717V451.717V451.717V451.717V451.717V451.717V451.717V451.717V451.717V451.717V451.717V451.717V451.717V451.717V451.717V451.717V451.717V451.717V451.717V451.717V451.717V451.717V451.717V451.717V451.717V451.717V451.717V451.717V451.717V451.717V451.717V451.717V451.717V451.717V451.717V451.717V451.717V451.717V451.717V451.717V451.717V451.717V451.717V451.717V451.717V451.717V451.717V451.717V451.717V451.717V451.717V451.717V451.717V451.717V451.717V451.717V451.717V451.717V451.717V451.717V451.717V451.717V451.717V451.717V451.717V451.717V451.717V451.717V451.717V451.717V451.717V451.716V451.716V451.716V451.716V451.716V451.716V451.716V451.716V451.716V451.716V451.716V451.716V451.716V451.716V451.716V451.716V451.716V451.716V451.716V451.716V451.716V451.716V451.716V451.716V451.716V451.716V451.716V451.716V451.716V451.716V451.716V451.716V451.716V451.716V451.716V451.716V451.716V451.716V451.716V451.716V451.716V451.716V451.716V451.716V451.716V451.716V451.716V451.716V451.716V451.716V451.716V451.716V451.716V451.715V451.715V451.715V451.715V451.715V451.715V451.715V451.715V451.715V451.715V451.715V451.715V451.715V451.715V451.715V451.715V451.715V451.715V451.715V451.715V451.715V451.715V451.715V451.715V451.715V451.715V451.715V451.715V451.715V451.715V451.715V451.715V451.715V451.715V451.715V451.715V451.715V451.715V451.715V451.715V451.715V451.715V451.714V451.714V451.714V451.714V451.714V451.714V451.714V451.714V451.714V451.714V451.714V451.714V451.714V451.714V451.714V451.714V451.714V451.714V451.714V451.714V451.714V451.714V451.714V451.714V451.714V451.714V451.714V451.714V451.714V451.714V451.714V451.714V451.714V451.714V451.714V451.714V451.713V451.713V451.713V451.713V451.713V451.713V451.713V451.713C259.837 451.393 260.068 451.024 260.525 451.024H265.959C266.305 451.024 266.646 451.313 266.646 451.713V455.8C266.646 456.153 266.357 456.5 265.959 456.5Z" fill="#04005E" stroke="#04005E" stroke-width="0.4"/>
<path d="M298.852 449.031V448.978H298.844C298.817 448.632 298.528 448.359 298.176 448.359C297.859 448.359 297.492 448.129 297.492 447.672C297.492 447.302 297.191 447 296.822 447H287.352C286.983 447 286.682 447.302 286.682 447.672C286.682 448.018 286.394 448.359 285.997 448.359C285.628 448.359 285.327 448.66 285.327 449.031V455.818C285.327 456.188 285.628 456.49 285.997 456.49C286.342 456.49 286.682 456.778 286.682 457.177C286.682 457.547 286.983 457.849 287.352 457.849H296.827C297.197 457.849 297.497 457.547 297.497 457.177V457.177V457.177V457.177V457.177V457.177V457.177V457.177V457.177V457.177V457.177V457.177V457.177V457.177V457.177V457.176V457.176V457.176V457.176V457.176V457.176V457.176V457.176V457.176V457.176V457.176V457.176V457.176V457.176V457.176V457.176V457.176V457.176V457.176V457.176V457.176V457.176V457.176V457.176V457.176V457.176V457.176V457.176V457.176V457.176V457.176V457.176V457.176V457.176V457.176V457.176V457.176V457.176V457.176V457.176V457.176V457.176V457.176V457.176V457.176V457.176V457.176V457.176V457.176V457.176V457.176V457.176V457.176V457.176V457.176V457.176V457.176V457.176V457.176V457.176V457.176V457.176V457.176V457.176V457.176V457.176V457.176V457.176V457.176V457.176V457.176V457.176V457.176V457.176V457.176V457.176V457.176V457.176V457.176V457.176V457.176V457.176V457.176V457.176V457.176V457.176V457.176V457.176V457.176V457.176V457.176V457.176V457.175V457.175V457.175V457.175V457.175V457.175V457.175V457.175V457.175V457.175V457.175V457.175V457.175V457.175V457.175V457.175V457.175V457.175V457.175V457.175V457.175V457.175V457.175V457.175V457.175V457.175V457.175V457.175V457.175V457.175V457.175V457.175V457.175V457.175V457.175V457.175V457.175V457.175V457.175V457.175V457.175V457.175V457.175V457.175V457.175V457.175V457.175V457.175V457.175V457.175V457.175V457.175V457.175V457.175V457.175V457.175V457.175V457.175V457.175V457.175V457.175V457.175V457.175V457.175V457.175V457.175V457.175V457.175V457.175V457.175V457.175V457.175V457.174V457.174V457.174V457.174V457.174V457.174V457.174V457.174V457.174V457.174V457.174V457.174V457.174V457.174V457.174V457.174V457.174V457.174V457.174V457.174V457.174V457.174V457.174V457.174V457.174V457.174V457.174V457.174V457.174V457.174V457.174V457.174V457.174V457.174V457.174V457.174V457.174V457.174V457.174V457.174V457.174V457.174V457.174V457.174V457.174V457.174V457.174V457.174V457.174V457.174V457.174V457.174V457.173V457.173V457.173V457.173V457.173V457.173V457.173V457.173V457.173V457.173V457.173V457.173V457.173V457.173V457.173V457.173V457.173V457.173V457.173V457.173V457.173V457.173V457.173V457.173V457.173V457.173V457.173V457.173V457.173V457.173V457.173V457.173V457.173V457.173V457.173V457.173V457.173V457.173V457.173V457.173V457.173V457.172V457.172V457.172V457.172V457.172V457.172V457.172V457.172V457.172V457.172V457.172V457.172V457.172V457.172V457.172V457.172V457.172V457.172V457.172V457.172V457.172V457.172V457.172V457.172V457.172V457.172V457.172V457.172V457.172V457.172V457.172V457.172V457.172V457.172V457.172V457.172V457.171V457.171V457.171C297.497 456.852 297.726 456.485 298.182 456.485H298.427C298.661 456.485 298.852 456.293 298.852 456.059V455.572V455.571V455.571V455.571V455.571V455.571V455.571V455.571V455.571V455.571V455.571V455.571V455.571V455.571V455.571V455.571V455.571V455.571V455.57V455.57V455.57V455.57V455.57V455.57V455.57V455.57V455.57V455.57V455.57V455.57V455.57V455.57V455.57V455.57V455.569V455.569V455.569V455.569V455.569V455.569V455.569V455.569V455.569V455.569V455.569V455.569V455.569V455.569V455.569V455.569V455.568V455.568V455.568V455.568V455.568V455.568V455.568V455.568V455.568V455.568V455.568V455.568V455.568V455.568V455.568V455.568V455.567V455.567V455.567V455.567V455.567V455.567V455.567V455.567V455.567V455.567V455.567V455.567V455.567V455.567V455.567V455.567V455.567V455.566V455.566V455.566V455.566V455.566V455.566V455.566V455.566V455.566V455.566V455.566V455.566V455.566V455.566V455.566V455.566V455.565V455.565V455.565V455.565V455.565V455.565V455.565V455.565V455.565V455.565V455.565V455.565V455.565V455.565V455.565V455.565V455.564V455.564V455.564V455.564V455.564V455.564V455.564V455.564V455.564V455.564V455.564V455.564V455.564V455.564V455.564V455.564V455.564V455.563V455.563V455.563V455.563V455.563V455.563V455.563V455.563V455.563V455.563V455.563V455.563V455.563V455.563V455.563V455.563V455.562V455.562V455.562V455.562V455.562V455.562V455.562V455.562V455.562V455.562V455.562V455.562V455.562V455.562V455.562V455.562V455.561V455.561V455.561V455.561V455.561V455.561V455.561V455.561V455.561V455.561V455.561V455.561V455.561V455.561V455.561V455.561V455.56V455.56V455.56V455.56V455.56V455.56V455.56V455.56V455.56V455.56V455.56V455.56V455.56V455.56V455.56V455.56V455.56V455.559V455.559V455.559V455.559V455.559V455.559V455.559V455.559V455.559V455.559V455.559V455.559V455.559V455.559V455.559V455.559V455.558V455.558V455.558V455.558V455.558V455.558V455.558V455.558V455.558V455.558V455.558V455.558V455.558V455.558V455.558V455.558V455.557V455.557V455.557V455.557V455.557V455.557V455.557V455.557V455.557V455.557V455.557V455.557V455.557V455.557V455.557V455.557V455.556V455.556V455.556V455.556V455.556V455.556V455.556V455.556V455.556V455.556V455.556V455.556V455.556V455.556V455.556V455.556V455.556V455.555V455.555V455.555V455.555V455.555V455.555V455.555V455.555V455.555V455.555V455.555V455.555V455.555V455.555V455.555V455.555V455.554V455.554V455.554V455.554V455.554V455.554V455.554V455.554V455.554V455.554V455.554V455.554V455.554V455.554V455.554V455.554V455.553V455.553V455.553V455.553V455.553V455.553V455.553V455.553V455.553V455.553V455.553V455.553V455.553V455.553V455.553V455.553V455.552V455.552V455.552V455.552V455.552V455.552V455.552V455.552V455.552V455.552V455.552V455.552V455.552V455.552V455.552V455.552V455.552V455.551V455.551V455.551V455.551V455.551V455.551V455.551V455.551V455.551V455.551V455.551V455.551V455.551V455.551V455.551V455.551V455.55V455.55V455.55V455.55V455.55V455.55V455.55V455.55V455.55V455.55V455.55V455.55V455.55V455.55V455.55V455.55V455.549V455.549V455.549V455.549V455.549V455.549V455.549V455.549V455.549V455.549V455.549V455.549V455.549V455.549V455.549V455.549V455.548V455.548V455.548V455.548V455.548V455.548V455.548V455.548V455.548V455.548V455.548V455.548V455.548V455.548V455.548V455.548V455.548V455.547V455.547V455.547V455.547V455.547V455.547V455.547V455.547V455.547V455.547V455.547V455.547V455.547V455.547V455.547V455.547V455.546V455.546V455.546V455.546V455.546V455.546V455.546V455.546V455.546V455.546V455.546V455.546V455.546V455.546V455.546V455.546V455.545V455.545V455.545V455.545V455.545V455.545V455.545V455.545V455.545V455.545V455.545V455.545V455.545V455.545V455.545V455.545V455.545V455.544V455.544V455.544V455.544V455.544V455.544V455.544V455.544V455.544V455.544V455.544V455.544V455.544V455.544V455.544V455.544V455.543V455.543V455.543V455.543V455.543V455.543V455.543V455.543V455.543V455.543V455.543V455.543V455.543V455.543V455.543V455.543V455.542V455.542V455.542V455.542V455.542V455.542V455.542V455.542V455.542V455.542V455.542V455.542V455.542V455.542V455.542V455.542V455.541V455.541V455.541V455.541V455.541V455.541V455.541V455.541V455.541V455.541V455.541V455.541V455.541V455.541V455.541V455.541V455.541V455.54V455.54V455.54V455.54V455.54V455.54V455.54V449.031ZM287.352 456.499H287.299V456.503C286.995 456.479 286.667 456.25 286.667 455.818V449.031V449.03V449.03V449.03V449.03V449.03V449.03V449.03V449.03V449.03V449.03V449.03V449.03V449.03V449.03V449.03V449.03V449.03V449.03V449.03V449.03V449.03V449.03V449.03V449.03V449.03V449.03V449.03V449.03V449.03V449.03V449.03V449.03V449.03V449.03V449.03V449.03V449.03V449.03V449.03V449.03V449.03V449.03V449.03V449.03V449.03V449.03V449.03V449.03V449.03V449.03V449.03V449.03V449.03V449.03V449.03V449.03V449.03V449.03V449.03V449.03V449.03V449.03V449.03V449.03V449.03V449.03V449.03V449.03V449.03V449.03V449.03V449.03V449.03V449.03V449.03V449.03V449.03V449.03V449.03V449.03V449.03V449.03V449.03V449.03V449.03V449.03V449.03V449.03V449.03V449.03V449.03V449.03V449.03V449.03V449.029V449.029V449.029V449.029V449.029V449.029V449.029V449.029V449.029V449.029V449.029V449.029V449.029V449.029V449.029V449.029V449.029V449.029V449.029V449.029V449.029V449.029V449.029V449.029V449.029V449.029V449.029V449.029V449.029V449.029V449.029V449.029V449.029V449.029V449.029V449.029V449.029V449.029V449.029V449.029V449.029V449.029V449.029V449.029V449.029V449.029V449.029V449.029V449.029V449.029V449.029V449.029V449.029V449.029V449.029V449.029V449.029V449.029V449.029V449.029V449.029V449.029V449.029V449.029V449.029V449.029V449.029V449.029V449.029V449.029V449.029V449.029V449.029V449.029V449.029V449.029V449.028V449.028V449.028V449.028V449.028V449.028V449.028V449.028V449.028V449.028V449.028V449.028V449.028V449.028V449.028V449.028V449.028V449.028V449.028V449.028V449.028V449.028V449.028V449.028V449.028V449.028V449.028V449.028V449.028V449.028V449.028V449.028V449.028V449.028V449.028V449.028V449.028V449.028V449.028V449.028V449.028V449.028V449.028V449.028V449.028V449.028V449.028V449.028V449.028V449.028V449.028V449.028V449.028V449.028V449.027V449.027V449.027V449.027V449.027V449.027V449.027V449.027V449.027V449.027V449.027V449.027V449.027V449.027V449.027V449.027V449.027V449.027V449.027V449.027V449.027V449.027V449.027V449.027V449.027V449.027V449.027V449.027V449.027V449.027V449.027V449.027V449.027V449.027V449.027V449.027V449.027V449.027V449.027V449.027V449.027V449.027V449.026V449.026V449.026V449.026V449.026V449.026V449.026V449.026V449.026V449.026V449.026V449.026V449.026V449.026V449.026V449.026V449.026V449.026V449.026V449.026V449.026V449.026V449.026V449.026V449.026V449.026V449.026V449.026V449.026V449.026V449.026V449.026V449.026V449.026V449.026V449.026V449.026V449.025V449.025V449.025V449.025V449.025V449.025V449.025V449.025C286.667 448.706 286.896 448.339 287.352 448.339H296.827C297.167 448.339 297.512 448.622 297.512 449.02V449.025V455.813V455.818C297.512 456.159 297.224 456.499 296.827 456.499H287.352Z" fill="#04005E" stroke="#04005E" stroke-width="0.4"/>
<path d="M309.041 451.049C308.717 451.049 308.344 450.818 308.344 450.36C308.344 449.988 308.037 449.686 307.662 449.686H302.15C301.776 449.686 301.469 449.988 301.469 450.36C301.469 450.707 301.177 451.049 300.771 451.049C300.396 451.049 300.09 451.352 300.09 451.724V457.174C300.09 457.546 300.396 457.848 300.771 457.848C301.146 457.848 301.452 457.546 301.452 457.174V451.719V451.714C301.458 451.398 301.691 451.029 302.15 451.029H307.662C308.014 451.029 308.36 451.319 308.36 451.719V457.174C308.36 457.546 308.667 457.848 309.041 457.848C309.416 457.848 309.723 457.546 309.723 457.174V451.719C309.723 451.346 309.416 451.049 309.041 451.049Z" fill="#04005E" stroke="#04005E" stroke-width="0.4"/>
<path d="M244.665 448.358L244.664 448.358C244.3 448.364 244 448.665 244 449.035V455.819C244 456.189 244.301 456.491 244.67 456.491C244.983 456.491 245.349 456.715 245.354 457.167V457.167V457.167V457.167V457.167V457.167V457.167V457.167V457.167V457.167V457.167V457.167V457.167V457.167V457.167V457.167V457.167V457.167V457.167V457.167V457.167V457.167V457.167V457.167V457.167V457.167V457.167V457.167V457.167V457.168V457.168V457.168V457.168V457.168V457.168V457.168V457.168V457.168V457.168V457.168V457.168V457.168V457.168V457.168V457.168V457.168V457.168V457.168V457.168V457.168V457.168V457.168V457.168V457.168V457.168V457.168V457.168V457.168V457.168V457.168V457.168V457.168V457.168V457.168V457.168V457.168V457.168V457.168V457.168V457.168V457.169V457.169V457.169V457.169V457.169V457.169V457.169V457.169V457.169V457.169V457.169V457.169V457.169V457.169V457.169V457.169V457.169V457.169V457.169V457.169V457.169V457.169V457.169V457.169V457.169V457.169V457.169V457.169V457.169V457.169V457.169V457.169V457.169V457.169V457.169V457.169V457.169V457.169V457.169V457.169V457.169V457.169V457.169V457.169V457.169V457.169V457.169V457.17V457.17V457.17V457.17V457.17V457.17V457.17V457.17V457.17V457.17V457.17V457.17V457.17V457.17V457.17V457.17V457.17V457.17V457.17V457.17V457.17V457.17V457.17V457.17V457.17V457.17V457.17V457.17V457.17V457.17V457.17V457.17V457.17V457.17V457.17V457.17V457.17V457.17V457.17V457.17V457.17V457.17V457.17V457.17V457.17V457.17V457.17V457.17V457.17V457.17V457.17V457.17V457.17V457.17V457.17V457.17V457.171V457.171V457.171V457.171V457.171V457.171V457.171V457.171V457.171V457.171V457.171V457.171V457.171V457.171V457.171V457.171V457.171V457.171V457.171V457.171V457.171V457.171V457.171V457.171V457.171V457.171V457.171V457.171V457.171V457.171V457.171V457.171V457.171V457.171V457.171V457.171V457.171V457.171V457.171V457.171V457.171V457.171V457.171V457.171V457.171V457.171V457.171V457.171V457.171V457.171V457.171V457.171V457.171V457.171V457.171V457.171V457.171V457.171V457.171V457.171V457.171V457.171V457.171V457.172V457.172V457.172V457.172V457.172V457.172V457.172V457.172V457.172V457.172V457.172V457.172V457.172V457.172V457.172V457.172V457.172V457.172V457.172V457.172V457.172V457.172V457.172V457.172V457.172V457.172V457.172V457.172V457.172V457.172V457.172V457.172V457.172V457.172V457.172V457.172V457.172V457.172V457.172V457.172V457.172V457.172V457.172V457.172V457.172V457.172V457.172V457.172V457.172V457.172V457.172V457.172V457.172V457.172V457.172V457.172V457.172V457.172V457.172V457.172V457.172V457.172V457.172V457.172V457.173V457.173V457.173V457.173V457.173V457.173V457.173V457.173V457.173V457.173V457.173V457.173V457.173V457.173V457.173V457.173V457.173V457.173V457.173V457.173V457.173V457.173V457.173V457.173V457.173V457.173V457.173V457.173V457.173V457.173V457.173V457.173V457.173V457.173V457.173V457.173V457.173V457.173V457.173V457.173V457.173V457.173V457.173V457.173V457.173V457.173V457.173V457.173V457.173V457.173V457.173V457.173V457.173V457.173V457.173V457.173V457.173V457.173V457.173V457.174V457.174V457.174V457.174V457.174V457.174V457.174V457.174V457.174V457.174V457.174V457.174V457.174V457.174V457.174V457.174V457.174V457.174V457.174V457.174V457.174V457.174V457.174V457.174V457.174V457.174V457.174V457.174V457.174V457.174V457.174V457.174V457.174V457.174V457.174V457.174V457.174V457.174V457.174V457.174V457.174V457.174V457.174V457.174V457.174V457.174V457.174V457.174V457.174V457.174V457.174V457.175V457.175V457.175V457.175V457.175V457.175V457.175V457.175V457.175V457.175V457.175V457.175V457.175V457.175V457.175V457.175V457.175V457.175V457.175V457.175V457.175V457.175V457.175V457.175V457.175V457.175V457.175V457.175V457.175V457.175V457.175V457.175V457.175V457.175V457.175V457.175V457.175V457.175V457.175V457.175V457.175V457.175V457.176V457.176V457.176V457.176V457.176V457.176V457.176V457.176V457.176V457.176V457.176V457.176V457.176V457.176V457.176V457.176V457.176V457.176V457.176V457.176V457.176V457.176V457.176V457.176V457.176V457.176V457.176V457.176V457.176V457.176V457.176V457.176V457.176V457.176V457.176V457.176V457.176V457.176V457.177V457.177V457.177V457.177V457.177V457.177V457.177V457.177V457.177V457.177V457.177V457.177V457.177V457.177C245.354 457.547 245.655 457.849 246.024 457.849H255.5C255.869 457.849 256.17 457.547 256.17 457.177C256.17 456.858 256.399 456.491 256.854 456.491C257.224 456.491 257.524 456.189 257.524 455.819C257.524 455.449 257.224 455.147 256.854 455.147C256.485 455.147 256.184 455.449 256.184 455.819V455.824C256.179 456.165 255.896 456.505 255.5 456.505H246.024C245.68 456.505 245.34 456.217 245.34 455.819V449.035V449.035V449.035V449.035V449.035V449.035V449.035V449.035V449.035V449.035V449.035V449.035V449.035V449.035V449.035V449.035V449.035V449.035V449.035V449.035V449.035V449.035V449.035V449.035V449.035V449.035V449.035V449.034V449.034V449.034V449.034V449.034V449.034V449.034V449.034V449.034V449.034V449.034V449.034V449.034V449.034V449.034V449.034V449.034V449.034V449.034V449.034V449.034V449.034V449.034V449.034V449.034V449.034V449.034V449.034V449.034V449.034V449.034V449.034V449.034V449.034V449.034V449.034V449.034V449.034V449.034V449.034V449.034V449.034V449.034V449.034V449.034V449.034V449.034V449.034V449.034V449.034V449.034V449.034V449.034V449.034V449.034V449.034V449.034V449.034V449.034V449.034V449.034V449.034V449.034V449.034V449.034V449.034V449.034V449.034V449.034V449.034V449.034V449.034V449.034V449.034V449.034V449.034V449.034V449.034V449.034V449.034V449.034V449.034V449.034V449.034V449.034V449.034V449.034V449.034V449.034V449.034V449.034V449.034V449.034V449.033V449.033V449.033V449.033V449.033V449.033V449.033V449.033V449.033V449.033V449.033V449.033V449.033V449.033V449.033V449.033V449.033V449.033V449.033V449.033V449.033V449.033V449.033V449.033V449.033V449.033V449.033V449.033V449.033V449.033V449.033V449.033V449.033V449.033V449.033V449.033V449.033V449.033V449.033V449.033V449.033V449.033V449.033V449.033V449.033V449.033V449.033V449.033V449.033V449.033V449.033V449.033V449.033V449.033V449.033V449.033V449.033V449.033V449.033V449.033V449.033V449.033V449.033V449.033V449.033V449.033V449.033V449.033V449.032V449.032V449.032V449.032V449.032V449.032V449.032V449.032V449.032V449.032V449.032V449.032V449.032V449.032V449.032V449.032V449.032V449.032V449.032V449.032V449.032V449.032V449.032V449.032V449.032V449.032V449.032V449.032V449.032V449.032V449.032V449.032V449.032V449.032V449.032V449.032V449.032V449.032V449.032V449.032V449.032V449.032V449.032V449.032V449.032V449.032V449.032V449.032V449.032V449.032V449.031V449.031V449.031V449.031V449.031V449.031V449.031V449.031V449.031V449.031V449.031V449.031V449.031V449.031V449.031V449.031V449.031V449.031V449.031V449.031V449.031V449.031V449.031V449.031V449.031V449.031V449.031V449.031V449.031V449.031V449.031V449.031V449.031V449.031V449.031V449.031V449.031V449.031V449.031V449.031V449.031V449.03V449.03V449.03V449.03V449.03V449.03V449.03V449.03V449.03V449.03V449.03V449.03V449.03V449.03V449.03V449.03V449.03V449.03V449.03V449.03V449.03V449.03V449.03V449.03V449.03V449.03V449.03V449.03V449.03V449.03V449.03V449.03V449.03V449.03C245.34 448.711 245.569 448.343 246.024 448.343H255.5C255.818 448.343 256.184 448.573 256.184 449.029C256.179 449.405 256.48 449.701 256.849 449.701C257.218 449.701 257.519 449.399 257.519 449.03C257.519 448.66 257.218 448.358 256.849 448.358C256.504 448.358 256.165 448.07 256.165 447.672C256.165 447.302 255.864 447 255.495 447H246.019C245.65 447 245.349 447.302 245.349 447.672C245.349 448.017 245.062 448.358 244.665 448.358Z" fill="#04005E" stroke="#04005E" stroke-width="0.4"/>
<path d="M312.429 449.686H312.376V449.739V451.002V451.055H312.429H318.766H318.819V451.002V449.739V449.686H318.766H312.429Z" fill="#04005E" stroke="#04005E" stroke-width="0.4"/>
<path d="M320.29 453.686H320.343V453.633V451.318V451.265H320.29H319.053H319V451.318V452.379H312.167V451.318V451.265H312.114H310.877H310.824V451.318V456.264V456.317H310.877H312.114H312.167V456.264V453.686H319.053H319.669H320.29Z" fill="#04005E" stroke="#04005E" stroke-width="0.4"/>
<path d="M312.401 456.527H312.348V456.58V457.791V457.844H312.401H318.764H318.817V457.791V456.58V456.527H318.764H312.401Z" fill="#04005E" stroke="#04005E" stroke-width="0.4"/>
<path d="M320.343 455.212V455.159H320.29H319.08H319.027V455.212V455.729V455.73V455.73V455.73V455.73V455.73V455.73V455.73V455.73V455.73V455.73V455.73V455.73V455.73V455.73V455.73V455.73V455.73V455.73V455.73V455.73V455.73V455.73V455.73V455.73V455.73V455.73V455.73V455.73V455.73V455.73V455.73V455.73V455.73V455.73V455.73V455.73V455.73V455.73V455.73V455.73V455.73V455.73V455.731V455.731V455.731V455.731V455.731V455.731V455.731V455.731V455.731V455.731V455.731V455.731V455.731V455.731V455.731V455.731V455.731V455.731V455.731V455.731V455.731V455.731V455.731V455.731V455.731V455.731V455.731V455.731V455.731V455.731V455.731V455.731V455.731V455.731V455.731V455.731V455.731V455.731V455.731V455.731V455.731V455.731V455.731V455.731V455.731V455.731V455.731V455.731V455.731V455.732V455.732V455.732V455.732V455.732V455.732V455.732V455.732V455.732V455.732V455.732V455.732V455.732V455.732V455.732V455.732V455.732V455.732V455.732V455.732V455.732V455.732V455.732V455.732V455.732V455.732V455.732V455.732V455.732V455.732V455.732V455.732V455.732V455.732V455.732V455.732V455.732V455.732V455.732V455.732V455.732V455.732V455.732V455.732V455.732V455.732V455.732V455.732V455.732V455.732V455.732V455.732V455.732V455.732V455.732V455.732V455.732V455.732V455.732V455.732V455.733V455.733V455.733V455.733V455.733V455.733V455.733V455.733V455.733V455.733V455.733V455.733V455.733V455.733V455.733V455.733V455.733V455.733V455.733V455.733V455.733V455.733V455.733V455.733V455.733V455.733V455.733V455.733V455.733V455.733V455.733V455.733V455.733V455.733V455.733V455.733V455.733V455.733V455.733V455.733V455.733V455.733V455.733V455.733V455.733V455.733V455.733V455.733V455.733V455.733V455.733V455.733V455.733V455.733V455.733V455.733V455.733V455.733V455.733V455.733V455.733V455.733V455.733V455.733V455.733V455.733V455.733V455.733V455.733V455.733V455.733V455.734V455.734V455.734V455.734V455.734V455.734V455.734V455.734V455.734V455.734V455.734V455.734V455.734V455.734V455.734V455.734V455.734V455.734V455.734V455.734V455.734V455.734V455.734V455.734V455.734V455.734V455.734V455.734V455.734V455.734V455.734V455.734V455.734V455.734V455.734V455.734V455.734V455.734V455.734V455.734V455.734V455.734V455.734V455.734V455.734V455.734V455.734V455.734V455.734V455.734V455.734V455.734V455.734V455.734V455.734V455.734V455.734V455.734V455.734V455.734V455.734V455.734V455.734V455.734V455.734V455.734V455.734V455.734V455.734V455.734V455.734V455.734V455.734V455.734V455.734V455.734V455.735V455.735V455.735V455.735V455.735V455.735V455.735V455.735V455.735V455.735V455.735V455.735V455.735V455.735V455.735V455.735V455.735V455.735V455.735V455.735V455.735V455.735V455.735V455.735V455.735V455.735V455.735V455.735V455.735V455.735V455.735V455.735V455.735V455.735V455.735V455.735V455.735V455.735V455.735V455.735V455.735V455.735V455.735V455.735V455.735V455.735V455.735V455.735V455.735V455.735V455.735V455.735V455.735V455.735V455.735V455.735V455.735V455.735V455.735V455.735V455.735V455.735V455.735V455.735V455.735V455.735V455.735V455.735V455.735V455.735V455.736V455.736V455.736V455.736V455.736V455.736V455.736V455.736V455.736V455.736V455.736V455.736V455.736V455.736V455.736V455.736V455.736V455.736V455.736V455.736V455.736V455.736V455.736V455.736V455.736V455.736V455.736V455.736V455.736V455.736V455.736V455.736V455.736V455.736V455.736V455.736V455.736V455.736V455.736V455.736V455.736V455.736V455.736V455.736V455.736V455.736V455.736V455.736V455.736V455.736V455.736V455.736V455.736V455.736V455.736V455.736V455.736V455.736V455.737V455.737V455.737V455.737V455.737V455.737V455.737V455.737V455.737V455.737V455.737V455.737V455.737V455.737V455.737V455.737V455.737V455.737V455.737V455.737V455.737V455.737V455.737V455.737V455.737V455.737V455.737V455.737V455.737V455.737V455.737V455.737V455.737V455.737V455.737V455.737V455.737V455.737V455.737V455.737V455.737V455.737V455.737V455.737V455.737V455.737V455.737V455.737V455.737V455.738V455.738V455.738V455.738V455.738V455.738V455.738V455.738V455.738V455.738V455.738V455.738V455.738V455.738V455.738V455.738V455.738V455.738V455.738V455.738V455.738V455.738V455.738V455.738V455.738V455.738V455.738V455.738V455.738V455.738V455.738V455.738V455.738V455.738V455.738V455.738V455.738V455.738V455.738V455.738V455.739V455.739V455.739V455.739V455.739V455.739V455.739V455.739V455.739V455.739V455.739V455.739V455.739V455.739V455.739V455.739V455.739V455.739V455.739V455.739V455.739V455.739V455.739V455.739V455.739V455.739V455.739V455.739V455.739V455.739V455.739V455.739V455.739V455.739V455.739V455.739V455.739V455.739V455.739V455.739V455.739V455.739V455.739V455.74V455.74V455.74V455.74V455.74V455.74V455.74V455.74V455.74V455.74V455.74V455.74V455.74V455.74V455.74V455.74V455.74V455.74V455.74V455.74V455.74V455.74V455.74V455.74V455.74V455.74V455.74V455.74V455.74V455.74V455.74V455.74V455.74V455.74V455.74V455.74V455.74V455.74V455.74V455.74V455.74V455.74V455.74V455.74V455.74V455.74V455.74V455.74V455.74V455.74V455.741V455.741V455.741V455.741V455.741V455.741V455.741V455.741V455.741V455.741V455.741V455.741V455.741V455.741V455.741V455.741V455.741V455.741V455.741V455.741V455.741V455.741V455.741V455.741V455.741V455.741V455.741V455.741V455.741V455.741V455.741V455.741V455.741V455.741V455.741V455.741V455.741V455.741V455.741V455.741V455.741V455.741V455.741V455.741V455.741V455.741V455.741V455.741V455.741V455.741V455.741V455.741V455.741V455.741V455.741V455.741V455.741V455.741V455.741V455.741V455.742V455.742V455.742V455.742V455.742V455.742V455.742V455.742V455.742V455.742V455.742V455.742V455.742V455.742V455.742V455.742V455.742V455.742V455.742V455.742V455.742V455.742V455.742V455.742V455.742V455.742V455.742V455.742V455.742V455.742V455.742V455.742V455.742V455.742V455.742V455.742V455.742V455.742V455.742V455.742V455.742V455.742V455.742V455.742V455.742V455.742V455.742V455.742V455.742V455.742V455.742V455.742V455.742V455.742V455.742V455.742V455.742V455.742V455.742V455.742V455.742V455.742V455.742V455.742V455.742V455.742V455.742V455.742V455.742V455.742V455.742V455.742V455.743V455.743V455.743V455.743V455.743V455.743V455.743V455.743V455.743V455.743V455.743V455.743V455.743V455.743V455.743V455.743V455.743V455.743V455.743V455.743V455.743V455.743V455.743V455.743V455.743V455.743V455.743V455.743V455.743V455.743V455.743V455.743V455.743V455.743V455.743V455.743V455.743V455.743V455.743V455.743V455.743V455.743V455.743V455.743V455.743V455.743V455.743V455.743V455.743V455.743V455.743V455.743V455.743V455.743V455.743V455.743V455.743V455.743V455.743V455.743V455.743V455.743V455.743V455.743V455.743V455.743V455.743V455.743V455.743V455.743V455.743V455.743V455.743V455.743V455.743V455.743V455.744V455.744V455.744V455.744V455.744V455.744V455.744V455.744V455.744V455.744V455.744V455.744V455.744V455.744V455.744V455.744V455.744V455.744V455.744V455.744V455.744V455.744V455.744V455.744V455.744V455.744V455.744V455.744V455.744V455.744V455.744V455.744V455.744V455.744V455.744V455.744V455.744V455.744V455.744V455.744V455.744V455.744V455.744V455.744V455.744V455.744V455.744V455.744V455.744V455.744V455.744V455.744V455.744V455.744V455.744V455.744V455.744V455.744V455.744V455.744V455.744V455.744V455.744V455.744V455.744V455.744V455.744V455.744V455.745V455.745V455.745V455.745V455.745V455.745V455.745V455.745V455.745V455.745V455.745V455.745V455.745V455.745V455.745V455.745V455.745V455.745V455.745V455.745V455.745V455.745V455.745V455.745V455.745V455.745V455.745V455.745V455.745V455.745V455.745V455.745V455.745V455.745V455.745V455.745V455.745V455.745V455.745V455.745V455.745V455.745V455.745V455.745V455.745V455.745V455.745V455.745V455.745V455.745V455.745V455.745V455.745V455.745V455.745V455.745V455.745V455.745V455.746V455.746V455.746V455.746V455.746V455.746V455.746V455.746V455.746V455.746V455.746V455.746V455.746V455.746V455.746V455.746V455.746V455.746V455.746V455.746V455.746V455.746V455.746V455.746V455.746V455.746V455.746V455.746V455.746V455.746V455.746V455.746V455.746V455.746V455.746V455.746V455.746V455.746V455.746V455.746V455.746V455.746V455.746V455.746V455.746V455.746V455.746V455.746V455.747V455.747V455.747V455.747V455.747V455.747V455.747V455.747V455.747V455.747V455.747V455.747V455.747V455.747V455.747V455.747V455.747V455.747V455.747V455.747V455.747V455.747V455.747V455.747V455.747V455.747V455.747V455.747V455.747V455.747V455.747V455.747V455.747V455.747V456.265V456.318H319.08H319.682H320.29H320.343V456.265V455.212Z" fill="#04005E" stroke="#04005E" stroke-width="0.4"/>
<path d="M23.12 18.46C23.12 19.14 22.92 19.7733 22.52 20.36C22.1333 20.9333 21.6267 21.3733 21 21.68C21.7867 21.9733 22.4267 22.44 22.92 23.08C23.4133 23.72 23.66 24.44 23.66 25.24C23.66 26.2933 23.2667 27.1867 22.48 27.92C21.7067 28.64 20.7333 29 19.56 29H13.6V15H18.82C20.0333 15 21.0533 15.32 21.88 15.96C22.7067 16.5867 23.12 17.42 23.12 18.46ZM15.6 27.36H19.16C19.8533 27.36 20.44 27.1333 20.92 26.68C21.4133 26.2133 21.66 25.64 21.66 24.96C21.66 24.2933 21.4133 23.7333 20.92 23.28C20.44 22.8133 19.8533 22.58 19.16 22.58H15.6V27.36ZM21.2 18.8C21.2 18.2133 20.9733 17.7133 20.52 17.3C20.0667 16.8733 19.5333 16.66 18.92 16.66H15.6V21H18.92C19.5333 21 20.0667 20.7867 20.52 20.36C20.9733 19.92 21.2 19.4 21.2 18.8ZM26.9986 24C26.9986 25.04 27.3319 25.9067 27.9986 26.6C28.6653 27.28 29.5119 27.62 30.5386 27.62C31.5919 27.62 32.5586 27.24 33.4386 26.48C33.4786 26.5333 33.6186 26.72 33.8586 27.04C34.1119 27.3467 34.2986 27.5867 34.4186 27.76C33.3519 28.7867 32.0386 29.3 30.4786 29.3C29.0119 29.3 27.7719 28.7733 26.7586 27.72C25.7586 26.6667 25.2586 25.4267 25.2586 24C25.2586 22.5867 25.7586 21.3533 26.7586 20.3C27.7719 19.2333 29.0119 18.7 30.4786 18.7C32.0253 18.7 33.3386 19.22 34.4186 20.26C34.2986 20.4333 34.1119 20.68 33.8586 21C33.6186 21.3067 33.4786 21.4867 33.4386 21.54C32.5586 20.78 31.5919 20.4 30.5386 20.4C29.5386 20.4 28.6986 20.7467 28.0186 21.44C27.3386 22.1333 26.9986 22.9867 26.9986 24ZM45.5586 23.72C45.5586 23.8267 45.5453 23.9867 45.5186 24.2H37.0786C37.1586 25.2133 37.5186 26.0667 38.1586 26.76C38.7986 27.44 39.6986 27.78 40.8586 27.78C41.4186 27.78 41.9919 27.68 42.5786 27.48C43.1653 27.2667 43.6653 26.9867 44.0786 26.64L44.9186 27.78C44.4119 28.26 43.7786 28.6333 43.0186 28.9C42.2719 29.1667 41.4986 29.3 40.6986 29.3C39.1786 29.3 37.8919 28.82 36.8386 27.86C35.7853 26.9 35.2586 25.68 35.2586 24.2C35.2586 22.68 35.7586 21.3867 36.7586 20.32C37.7719 19.24 38.9986 18.7 40.4386 18.7C42.0386 18.7 43.2919 19.1867 44.1986 20.16C45.1053 21.12 45.5586 22.3067 45.5586 23.72ZM43.7986 22.9C43.6653 22.1267 43.3053 21.4933 42.7186 21C42.1453 20.4933 41.3853 20.24 40.4386 20.24C39.6386 20.24 38.9386 20.4867 38.3386 20.98C37.7386 21.46 37.3386 22.1 37.1386 22.9H43.7986ZM57.3978 27.74C58.4378 27.74 59.3111 27.38 60.0178 26.66C60.7245 25.9267 61.0778 25.04 61.0778 24C61.0778 22.9867 60.7245 22.1133 60.0178 21.38C59.3111 20.6467 58.4378 20.28 57.3978 20.28C56.3578 20.28 55.4778 20.6467 54.7578 21.38C54.0511 22.1133 53.6978 22.9867 53.6978 24C53.6978 25.04 54.0511 25.9267 54.7578 26.66C55.4645 27.38 56.3445 27.74 57.3978 27.74ZM61.2978 27.78C60.2845 28.7933 58.9845 29.3 57.3978 29.3C55.8111 29.3 54.5045 28.7933 53.4778 27.78C52.4645 26.7533 51.9578 25.4933 51.9578 24C51.9578 22.52 52.4645 21.2667 53.4778 20.24C54.5045 19.2133 55.8111 18.7 57.3978 18.7C58.9845 18.7 60.2845 19.2133 61.2978 20.24C62.3111 21.2667 62.8178 22.52 62.8178 24C62.8178 25.4933 62.3111 26.7533 61.2978 27.78ZM74.1434 16C73.5701 16.1333 72.9234 16.2733 72.2034 16.42C71.4968 16.5667 70.9234 16.68 70.4834 16.76C70.0568 16.84 69.5834 16.9467 69.0634 17.08C68.5568 17.2133 68.1568 17.3533 67.8634 17.5C67.5701 17.6467 67.2634 17.84 66.9434 18.08C66.6368 18.32 66.3968 18.6 66.2234 18.92C66.0634 19.24 65.9234 19.6333 65.8034 20.1C65.6834 20.5667 65.6101 21.1067 65.5834 21.72C65.9434 20.8933 66.5101 20.26 67.2834 19.82C68.0568 19.38 68.8901 19.16 69.7834 19.16C71.2234 19.16 72.4301 19.6067 73.4034 20.5C74.3901 21.38 74.8834 22.58 74.8834 24.1C74.8834 25.6067 74.4034 26.8533 73.4434 27.84C72.4968 28.8133 71.2168 29.3 69.6034 29.3C67.8701 29.3 66.5368 28.7533 65.6034 27.66C64.6834 26.5667 64.2234 25.0067 64.2234 22.98C64.2234 22.1133 64.2501 21.3533 64.3034 20.7C64.3701 20.0467 64.4834 19.4733 64.6434 18.98C64.8168 18.4733 64.9901 18.0533 65.1634 17.72C65.3368 17.3733 65.5968 17.0667 65.9434 16.8C66.3034 16.52 66.6368 16.3067 66.9434 16.16C67.2501 16 67.6834 15.84 68.2434 15.68C68.8168 15.52 69.3301 15.3933 69.7834 15.3C70.2368 15.1933 70.8568 15.0533 71.6434 14.88C72.4434 14.6933 73.1568 14.52 73.7834 14.36C74.0101 15.3733 74.1301 15.92 74.1434 16ZM69.5834 27.76C70.5968 27.76 71.4301 27.42 72.0834 26.74C72.7368 26.0467 73.0634 25.1933 73.0634 24.18C73.0634 23.0867 72.7168 22.2267 72.0234 21.6C71.3434 20.96 70.5301 20.64 69.5834 20.64C68.6368 20.64 67.8234 20.96 67.1434 21.6C66.4634 22.2267 66.1234 23.0867 66.1234 24.18C66.1234 25.1933 66.4434 26.0467 67.0834 26.74C67.7234 27.42 68.5568 27.76 69.5834 27.76ZM83.7542 19V26.54C87.1809 21.94 89.0542 19.4267 89.3742 19H91.2142V29H89.4142V21.5L83.8142 29H81.9742V19H83.7542ZM101.365 19V20.64H95.7855V29H94.0055V19H101.365ZM108.21 29.3C106.797 29.3 105.644 28.7667 104.75 27.7V33.08H102.97V19H104.75V20.32C105.657 19.2667 106.83 18.74 108.27 18.74C109.697 18.74 110.877 19.2533 111.81 20.28C112.757 21.3067 113.23 22.5467 113.23 24C113.23 25.48 112.75 26.7333 111.79 27.76C110.844 28.7867 109.65 29.3 108.21 29.3ZM107.69 20.34C106.477 20.34 105.497 20.8333 104.75 21.82V26.2C105.484 27.1867 106.464 27.68 107.69 27.68C108.704 27.68 109.564 27.32 110.27 26.6C110.977 25.88 111.33 25.0133 111.33 24C111.33 23 110.97 22.14 110.25 21.42C109.544 20.7 108.69 20.34 107.69 20.34ZM117.974 29.3C116.934 29.3 116.107 29.0467 115.494 28.54C114.894 28.0333 114.594 27.34 114.594 26.46C114.594 26.02 114.667 25.6333 114.814 25.3C114.96 24.9533 115.147 24.6667 115.374 24.44C115.6 24.2133 115.907 24.02 116.294 23.86C116.694 23.7 117.067 23.5733 117.414 23.48C117.774 23.3867 118.227 23.32 118.774 23.28C119.334 23.2267 119.807 23.1933 120.194 23.18C120.594 23.1667 121.1 23.1533 121.714 23.14V22.32C121.714 20.88 120.914 20.16 119.314 20.16C118.127 20.16 117.06 20.58 116.114 21.42L115.134 20.32C116.32 19.24 117.767 18.7 119.474 18.7C120.287 18.7 120.974 18.8067 121.534 19.02C122.107 19.2333 122.527 19.5267 122.794 19.9C123.06 20.26 123.247 20.62 123.354 20.98C123.46 21.34 123.514 21.7267 123.514 22.14V29H121.714V27.24C120.62 28.6133 119.374 29.3 117.974 29.3ZM118.414 27.92C119.667 27.92 120.767 27.2067 121.714 25.78V24.3C120.434 24.3 119.367 24.3733 118.514 24.52C118.247 24.56 117.98 24.6333 117.714 24.74C117.447 24.8467 117.174 25.0467 116.894 25.34C116.627 25.62 116.494 25.9533 116.494 26.34C116.494 26.8867 116.687 27.2867 117.074 27.54C117.474 27.7933 117.92 27.92 118.414 27.92ZM133.055 29C132.935 28.8533 132.515 28.32 131.795 27.4C131.075 26.4667 130.528 25.7533 130.155 25.26L127.275 29H124.995L128.955 23.98L125.055 19H127.315L130.155 22.76L132.995 19H135.275C134.368 20.1067 133.022 21.7667 131.235 23.98L135.315 29H133.055ZM15.18 42V49.54C18.6067 44.94 20.48 42.4267 20.8 42H22.64V52H20.84V44.5L15.24 52H13.4V42H15.18ZM30.9313 52V54.82H29.2913V50.44H30.4913C30.8913 49.8667 31.2246 49.0467 31.4913 47.98C31.7579 46.9133 31.8913 45.76 31.8913 44.52V42H39.4113V50.44H40.9513V54.82H39.2113V52H30.9313ZM37.6113 50.44V43.58H33.6113V44.7C33.6113 45.82 33.4913 46.92 33.2513 48C33.0113 49.08 32.7313 49.8933 32.4113 50.44H37.6113ZM45.5517 52.3C44.5117 52.3 43.6851 52.0467 43.0717 51.54C42.4717 51.0333 42.1717 50.34 42.1717 49.46C42.1717 49.02 42.2451 48.6333 42.3917 48.3C42.5384 47.9533 42.7251 47.6667 42.9517 47.44C43.1784 47.2133 43.4851 47.02 43.8717 46.86C44.2717 46.7 44.6451 46.5733 44.9917 46.48C45.3517 46.3867 45.8051 46.32 46.3517 46.28C46.9117 46.2267 47.3851 46.1933 47.7717 46.18C48.1717 46.1667 48.6784 46.1533 49.2917 46.14V45.32C49.2917 43.88 48.4917 43.16 46.8917 43.16C45.7051 43.16 44.6384 43.58 43.6917 44.42L42.7117 43.32C43.8984 42.24 45.3451 41.7 47.0517 41.7C47.8651 41.7 48.5517 41.8067 49.1117 42.02C49.6851 42.2333 50.1051 42.5267 50.3717 42.9C50.6384 43.26 50.8251 43.62 50.9317 43.98C51.0384 44.34 51.0917 44.7267 51.0917 45.14V52H49.2917V50.24C48.1984 51.6133 46.9517 52.3 45.5517 52.3ZM45.9917 50.92C47.2451 50.92 48.3451 50.2067 49.2917 48.78V47.3C48.0117 47.3 46.9451 47.3733 46.0917 47.52C45.8251 47.56 45.5584 47.6333 45.2917 47.74C45.0251 47.8467 44.7517 48.0467 44.4717 48.34C44.2051 48.62 44.0717 48.9533 44.0717 49.34C44.0717 49.8867 44.2651 50.2867 44.6517 50.54C45.0517 50.7933 45.4984 50.92 45.9917 50.92ZM58.713 52V47.52H57.553L54.613 52H52.573C53.8396 50.1467 55.013 48.3933 56.093 46.74C55.8263 46.3533 55.3263 45.62 54.593 44.54C53.8596 43.4467 53.293 42.6 52.893 42H54.953C56.433 44.2533 57.293 45.5467 57.533 45.88H58.713V42H60.493V45.88H61.653C62.2396 45.0267 63.1063 43.7333 64.253 42H66.313C65.913 42.6 65.3463 43.4467 64.613 44.54C63.8796 45.62 63.3796 46.3533 63.113 46.74C64.193 48.3933 65.3663 50.1467 66.633 52H64.593L61.653 47.52H60.493V52H58.713ZM77.5313 46.72C77.5313 46.8267 77.5179 46.9867 77.4913 47.2H69.0513C69.1313 48.2133 69.4913 49.0667 70.1313 49.76C70.7713 50.44 71.6713 50.78 72.8313 50.78C73.3913 50.78 73.9646 50.68 74.5513 50.48C75.1379 50.2667 75.6379 49.9867 76.0513 49.64L76.8913 50.78C76.3846 51.26 75.7513 51.6333 74.9913 51.9C74.2446 52.1667 73.4713 52.3 72.6713 52.3C71.1513 52.3 69.8646 51.82 68.8113 50.86C67.7579 49.9 67.2313 48.68 67.2313 47.2C67.2313 45.68 67.7313 44.3867 68.7313 43.32C69.7446 42.24 70.9713 41.7 72.4112 41.7C74.0113 41.7 75.2646 42.1867 76.1713 43.16C77.0779 44.12 77.5313 45.3067 77.5313 46.72ZM75.7713 45.9C75.6379 45.1267 75.2779 44.4933 74.6913 44C74.1179 43.4933 73.3579 43.24 72.4112 43.24C71.6113 43.24 70.9113 43.4867 70.3113 43.98C69.7113 44.46 69.3113 45.1 69.1113 45.9H75.7713ZM93.8505 39C93.2771 39.1333 92.6305 39.2733 91.9105 39.42C91.2038 39.5667 90.6305 39.68 90.1905 39.76C89.7638 39.84 89.2905 39.9467 88.7705 40.08C88.2638 40.2133 87.8638 40.3533 87.5705 40.5C87.2771 40.6467 86.9705 40.84 86.6505 41.08C86.3438 41.32 86.1038 41.6 85.9305 41.92C85.7705 42.24 85.6305 42.6333 85.5105 43.1C85.3905 43.5667 85.3171 44.1067 85.2905 44.72C85.6505 43.8933 86.2171 43.26 86.9905 42.82C87.7638 42.38 88.5971 42.16 89.4905 42.16C90.9305 42.16 92.1371 42.6067 93.1105 43.5C94.0971 44.38 94.5905 45.58 94.5905 47.1C94.5905 48.6067 94.1105 49.8533 93.1505 50.84C92.2038 51.8133 90.9238 52.3 89.3105 52.3C87.5771 52.3 86.2438 51.7533 85.3105 50.66C84.3905 49.5667 83.9305 48.0067 83.9305 45.98C83.9305 45.1133 83.9571 44.3533 84.0105 43.7C84.0771 43.0467 84.1905 42.4733 84.3505 41.98C84.5238 41.4733 84.6971 41.0533 84.8705 40.72C85.0438 40.3733 85.3038 40.0667 85.6505 39.8C86.0105 39.52 86.3438 39.3067 86.6505 39.16C86.9571 39 87.3905 38.84 87.9505 38.68C88.5238 38.52 89.0371 38.3933 89.4905 38.3C89.9438 38.1933 90.5638 38.0533 91.3505 37.88C92.1505 37.6933 92.8638 37.52 93.4905 37.36C93.7171 38.3733 93.8371 38.92 93.8505 39ZM89.2905 50.76C90.3038 50.76 91.1371 50.42 91.7905 49.74C92.4438 49.0467 92.7705 48.1933 92.7705 47.18C92.7705 46.0867 92.4238 45.2267 91.7305 44.6C91.0505 43.96 90.2371 43.64 89.2905 43.64C88.3438 43.64 87.5305 43.96 86.8505 44.6C86.1705 45.2267 85.8305 46.0867 85.8305 47.18C85.8305 48.1933 86.1505 49.0467 86.7905 49.74C87.4305 50.42 88.2638 50.76 89.2905 50.76ZM101.421 50.74C102.461 50.74 103.335 50.38 104.041 49.66C104.748 48.9267 105.101 48.04 105.101 47C105.101 45.9867 104.748 45.1133 104.041 44.38C103.335 43.6467 102.461 43.28 101.421 43.28C100.381 43.28 99.5013 43.6467 98.7813 44.38C98.0746 45.1133 97.7213 45.9867 97.7213 47C97.7213 48.04 98.0746 48.9267 98.7813 49.66C99.4879 50.38 100.368 50.74 101.421 50.74ZM105.321 50.78C104.308 51.7933 103.008 52.3 101.421 52.3C99.8346 52.3 98.5279 51.7933 97.5013 50.78C96.4879 49.7533 95.9813 48.4933 95.9813 47C95.9813 45.52 96.4879 44.2667 97.5013 43.24C98.5279 42.2133 99.8346 41.7 101.421 41.7C103.008 41.7 104.308 42.2133 105.321 43.24C106.335 44.2667 106.841 45.52 106.841 47C106.841 48.4933 106.335 49.7533 105.321 50.78ZM107.141 52V50.54H107.821C108.448 50.54 108.881 50.22 109.121 49.58C109.361 48.94 109.481 47.7667 109.481 46.06V42H117.381V52H115.581V43.58H111.261V46.52C111.261 50.1733 110.181 52 108.021 52H107.141ZM121.957 45.58H125.017C126.057 45.58 126.891 45.9 127.517 46.54C128.144 47.1667 128.457 47.92 128.457 48.8C128.457 49.6667 128.144 50.42 127.517 51.06C126.904 51.6867 126.071 52 125.017 52H120.177V42H121.957V45.58ZM121.957 50.54H124.857C125.364 50.54 125.784 50.3867 126.117 50.08C126.464 49.76 126.637 49.3333 126.637 48.8C126.637 48.2667 126.464 47.84 126.117 47.52C125.784 47.2 125.364 47.04 124.857 47.04H121.957V50.54ZM132.231 50.44H136.631V42H138.431V50.44H142.831V42H144.631V52H130.451V42H132.231V50.44ZM157.023 46.72C157.023 46.8267 157.01 46.9867 156.983 47.2H148.543C148.623 48.2133 148.983 49.0667 149.623 49.76C150.263 50.44 151.163 50.78 152.323 50.78C152.883 50.78 153.457 50.68 154.043 50.48C154.63 50.2667 155.13 49.9867 155.543 49.64L156.383 50.78C155.877 51.26 155.243 51.6333 154.483 51.9C153.737 52.1667 152.963 52.3 152.163 52.3C150.643 52.3 149.357 51.82 148.303 50.86C147.25 49.9 146.723 48.68 146.723 47.2C146.723 45.68 147.223 44.3867 148.223 43.32C149.237 42.24 150.463 41.7 151.903 41.7C153.503 41.7 154.757 42.1867 155.663 43.16C156.57 44.12 157.023 45.3067 157.023 46.72ZM155.263 45.9C155.13 45.1267 154.77 44.4933 154.183 44C153.61 43.4933 152.85 43.24 151.903 43.24C151.103 43.24 150.403 43.4867 149.803 43.98C149.203 44.46 148.803 45.1 148.603 45.9H155.263Z" fill="#04005E"/>
</g>
<defs>
<clipPath id="clip0">
<rect width="334" height="473" fill="white"/>
</clipPath>
</defs>
</svg>
