<svg width="334" height="473" viewBox="0 0 334 473" fill="none" xmlns="http://www.w3.org/2000/svg">
<g clip-path="url(#clip0)">
<rect width="334" height="473" fill="#F5F6FF"/>
<path d="M273.962 449.619H271.252C270.882 449.619 270.581 449.923 270.581 450.294C270.581 450.642 270.293 450.984 269.896 450.984C269.527 450.984 269.226 451.288 269.226 451.659V457.241C269.226 457.613 269.527 457.916 269.896 457.916C270.266 457.916 270.567 457.613 270.567 457.241V451.654C270.567 451.333 270.796 450.964 271.252 450.964H273.962C274.332 450.964 274.632 450.66 274.632 450.289C274.632 449.922 274.331 449.619 273.962 449.619Z" fill="#04005E" stroke="#04005E" stroke-width="0.4"/>
<path d="M282.747 455.8V455.8C282.752 456.153 282.463 456.5 282.065 456.5H276.626C276.307 456.5 275.939 456.269 275.939 455.81V451.719V451.719V451.719V451.719V451.719V451.718V451.718V451.718V451.718V451.718V451.718V451.718V451.718V451.718V451.718V451.718V451.718V451.718V451.718V451.718V451.718V451.718V451.718V451.718V451.718V451.718V451.718V451.718V451.718V451.718V451.718V451.718V451.718V451.718V451.718V451.718V451.718V451.718V451.718V451.718V451.718V451.718V451.718V451.718V451.718V451.718V451.718V451.718V451.718V451.718V451.718V451.718V451.718V451.718V451.718V451.718V451.718V451.718V451.718V451.718V451.718V451.718V451.718V451.718V451.718V451.718V451.718V451.718V451.718V451.718V451.718V451.718V451.718V451.718V451.718V451.718V451.718V451.718V451.718V451.718V451.718V451.718V451.718V451.718V451.718V451.718V451.718V451.718V451.718V451.718V451.718V451.718V451.718V451.718V451.718V451.718V451.718V451.718V451.718V451.717V451.717V451.717V451.717V451.717V451.717V451.717V451.717V451.717V451.717V451.717V451.717V451.717V451.717V451.717V451.717V451.717V451.717V451.717V451.717V451.717V451.717V451.717V451.717V451.717V451.717V451.717V451.717V451.717V451.717V451.717V451.717V451.717V451.717V451.717V451.717V451.717V451.717V451.717V451.717V451.717V451.717V451.717V451.717V451.717V451.717V451.717V451.717V451.717V451.717V451.717V451.717V451.717V451.717V451.717V451.717V451.717V451.717V451.717V451.717V451.717V451.717V451.717V451.717V451.717V451.717V451.717V451.717V451.717V451.717V451.717V451.717V451.717V451.717V451.716V451.716V451.716V451.716V451.716V451.716V451.716V451.716V451.716V451.716V451.716V451.716V451.716V451.716V451.716V451.716V451.716V451.716V451.716V451.716V451.716V451.716V451.716V451.716V451.716V451.716V451.716V451.716V451.716V451.716V451.716V451.716V451.716V451.716V451.716V451.716V451.716V451.716V451.716V451.716V451.716V451.716V451.716V451.716V451.716V451.716V451.716V451.716V451.716V451.716V451.716V451.716V451.716V451.715V451.715V451.715V451.715V451.715V451.715V451.715V451.715V451.715V451.715V451.715V451.715V451.715V451.715V451.715V451.715V451.715V451.715V451.715V451.715V451.715V451.715V451.715V451.715V451.715V451.715V451.715V451.715V451.715V451.715V451.715V451.715V451.715V451.715V451.715V451.715V451.715V451.715V451.715V451.715V451.715V451.715V451.714V451.714V451.714V451.714V451.714V451.714V451.714V451.714V451.714V451.714V451.714V451.714V451.714V451.714V451.714V451.714V451.714V451.714V451.714V451.714V451.714V451.714V451.714V451.714V451.714V451.714V451.714V451.714V451.714V451.714V451.714V451.714V451.714V451.714V451.714V451.714V451.713V451.713V451.713V451.713V451.713V451.713V451.713V451.713C275.939 451.393 276.169 451.024 276.626 451.024H282.06C282.406 451.024 282.747 451.313 282.747 451.713V455.8ZM283.425 451.049C283.106 451.049 282.738 450.819 282.738 450.36C282.738 449.988 282.436 449.686 282.065 449.686H276.626C276.255 449.686 275.954 449.988 275.954 450.36C275.954 450.707 275.665 451.049 275.266 451.049C274.896 451.049 274.594 451.352 274.594 451.724V455.81C274.594 456.182 274.896 456.485 275.266 456.485C275.612 456.485 275.954 456.774 275.954 457.174C275.954 457.546 276.255 457.848 276.626 457.848H282.06C282.431 457.848 282.733 457.546 282.733 457.174C282.733 456.854 282.963 456.485 283.42 456.485C283.791 456.485 284.092 456.182 284.092 455.81V451.719C284.092 451.347 283.796 451.049 283.425 451.049Z" fill="#04005E" stroke="#04005E" stroke-width="0.4"/>
<path d="M267.319 451.049C266.999 451.049 266.631 450.819 266.631 450.36C266.631 449.988 266.33 449.686 265.959 449.686H260.525C260.154 449.686 259.852 449.988 259.852 450.36C259.852 450.707 259.563 451.049 259.165 451.049C258.794 451.049 258.492 451.352 258.492 451.724V455.81C258.492 456.182 258.794 456.485 259.165 456.485C259.511 456.485 259.852 456.774 259.852 457.174C259.852 457.546 260.154 457.848 260.525 457.848H265.959C266.33 457.848 266.631 457.546 266.631 457.174C266.631 456.854 266.861 456.485 267.319 456.485C267.689 456.485 267.991 456.182 267.991 455.81V451.719C267.991 451.347 267.689 451.049 267.319 451.049ZM265.959 456.5H260.525C260.205 456.5 259.837 456.269 259.837 455.81V451.719V451.719V451.719V451.719V451.719V451.718V451.718V451.718V451.718V451.718V451.718V451.718V451.718V451.718V451.718V451.718V451.718V451.718V451.718V451.718V451.718V451.718V451.718V451.718V451.718V451.718V451.718V451.718V451.718V451.718V451.718V451.718V451.718V451.718V451.718V451.718V451.718V451.718V451.718V451.718V451.718V451.718V451.718V451.718V451.718V451.718V451.718V451.718V451.718V451.718V451.718V451.718V451.718V451.718V451.718V451.718V451.718V451.718V451.718V451.718V451.718V451.718V451.718V451.718V451.718V451.718V451.718V451.718V451.718V451.718V451.718V451.718V451.718V451.718V451.718V451.718V451.718V451.718V451.718V451.718V451.718V451.718V451.718V451.718V451.718V451.718V451.718V451.718V451.718V451.718V451.718V451.718V451.718V451.718V451.718V451.718V451.718V451.718V451.718V451.717V451.717V451.717V451.717V451.717V451.717V451.717V451.717V451.717V451.717V451.717V451.717V451.717V451.717V451.717V451.717V451.717V451.717V451.717V451.717V451.717V451.717V451.717V451.717V451.717V451.717V451.717V451.717V451.717V451.717V451.717V451.717V451.717V451.717V451.717V451.717V451.717V451.717V451.717V451.717V451.717V451.717V451.717V451.717V451.717V451.717V451.717V451.717V451.717V451.717V451.717V451.717V451.717V451.717V451.717V451.717V451.717V451.717V451.717V451.717V451.717V451.717V451.717V451.717V451.717V451.717V451.717V451.717V451.717V451.717V451.717V451.717V451.717V451.717V451.716V451.716V451.716V451.716V451.716V451.716V451.716V451.716V451.716V451.716V451.716V451.716V451.716V451.716V451.716V451.716V451.716V451.716V451.716V451.716V451.716V451.716V451.716V451.716V451.716V451.716V451.716V451.716V451.716V451.716V451.716V451.716V451.716V451.716V451.716V451.716V451.716V451.716V451.716V451.716V451.716V451.716V451.716V451.716V451.716V451.716V451.716V451.716V451.716V451.716V451.716V451.716V451.716V451.715V451.715V451.715V451.715V451.715V451.715V451.715V451.715V451.715V451.715V451.715V451.715V451.715V451.715V451.715V451.715V451.715V451.715V451.715V451.715V451.715V451.715V451.715V451.715V451.715V451.715V451.715V451.715V451.715V451.715V451.715V451.715V451.715V451.715V451.715V451.715V451.715V451.715V451.715V451.715V451.715V451.715V451.714V451.714V451.714V451.714V451.714V451.714V451.714V451.714V451.714V451.714V451.714V451.714V451.714V451.714V451.714V451.714V451.714V451.714V451.714V451.714V451.714V451.714V451.714V451.714V451.714V451.714V451.714V451.714V451.714V451.714V451.714V451.714V451.714V451.714V451.714V451.714V451.713V451.713V451.713V451.713V451.713V451.713V451.713V451.713C259.837 451.393 260.067 451.024 260.525 451.024H265.959C266.305 451.024 266.646 451.313 266.646 451.713V455.8C266.646 456.153 266.357 456.5 265.959 456.5Z" fill="#04005E" stroke="#04005E" stroke-width="0.4"/>
<path d="M298.852 449.031V448.978H298.844C298.817 448.632 298.528 448.359 298.176 448.359C297.859 448.359 297.492 448.129 297.492 447.672C297.492 447.302 297.191 447 296.822 447H287.352C286.983 447 286.682 447.302 286.682 447.672C286.682 448.018 286.394 448.359 285.997 448.359C285.628 448.359 285.327 448.66 285.327 449.031V455.818C285.327 456.188 285.628 456.49 285.997 456.49C286.342 456.49 286.682 456.778 286.682 457.177C286.682 457.547 286.983 457.849 287.352 457.849H296.827C297.197 457.849 297.497 457.547 297.497 457.177V457.177V457.177V457.177V457.177V457.177V457.177V457.177V457.177V457.177V457.177V457.177V457.177V457.177V457.177V457.176V457.176V457.176V457.176V457.176V457.176V457.176V457.176V457.176V457.176V457.176V457.176V457.176V457.176V457.176V457.176V457.176V457.176V457.176V457.176V457.176V457.176V457.176V457.176V457.176V457.176V457.176V457.176V457.176V457.176V457.176V457.176V457.176V457.176V457.176V457.176V457.176V457.176V457.176V457.176V457.176V457.176V457.176V457.176V457.176V457.176V457.176V457.176V457.176V457.176V457.176V457.176V457.176V457.176V457.176V457.176V457.176V457.176V457.176V457.176V457.176V457.176V457.176V457.176V457.176V457.176V457.176V457.176V457.176V457.176V457.176V457.176V457.176V457.176V457.176V457.176V457.176V457.176V457.176V457.176V457.176V457.176V457.176V457.176V457.176V457.176V457.176V457.176V457.176V457.176V457.176V457.176V457.175V457.175V457.175V457.175V457.175V457.175V457.175V457.175V457.175V457.175V457.175V457.175V457.175V457.175V457.175V457.175V457.175V457.175V457.175V457.175V457.175V457.175V457.175V457.175V457.175V457.175V457.175V457.175V457.175V457.175V457.175V457.175V457.175V457.175V457.175V457.175V457.175V457.175V457.175V457.175V457.175V457.175V457.175V457.175V457.175V457.175V457.175V457.175V457.175V457.175V457.175V457.175V457.175V457.175V457.175V457.175V457.175V457.175V457.175V457.175V457.175V457.175V457.175V457.175V457.175V457.175V457.175V457.175V457.175V457.175V457.175V457.175V457.174V457.174V457.174V457.174V457.174V457.174V457.174V457.174V457.174V457.174V457.174V457.174V457.174V457.174V457.174V457.174V457.174V457.174V457.174V457.174V457.174V457.174V457.174V457.174V457.174V457.174V457.174V457.174V457.174V457.174V457.174V457.174V457.174V457.174V457.174V457.174V457.174V457.174V457.174V457.174V457.174V457.174V457.174V457.174V457.174V457.174V457.174V457.174V457.174V457.174V457.174V457.174V457.173V457.173V457.173V457.173V457.173V457.173V457.173V457.173V457.173V457.173V457.173V457.173V457.173V457.173V457.173V457.173V457.173V457.173V457.173V457.173V457.173V457.173V457.173V457.173V457.173V457.173V457.173V457.173V457.173V457.173V457.173V457.173V457.173V457.173V457.173V457.173V457.173V457.173V457.173V457.173V457.173V457.172V457.172V457.172V457.172V457.172V457.172V457.172V457.172V457.172V457.172V457.172V457.172V457.172V457.172V457.172V457.172V457.172V457.172V457.172V457.172V457.172V457.172V457.172V457.172V457.172V457.172V457.172V457.172V457.172V457.172V457.172V457.172V457.172V457.172V457.172V457.172V457.171V457.171V457.171C297.497 456.852 297.726 456.485 298.182 456.485H298.427C298.661 456.485 298.852 456.293 298.852 456.059V455.572V455.571V455.571V455.571V455.571V455.571V455.571V455.571V455.571V455.571V455.571V455.571V455.571V455.571V455.571V455.571V455.571V455.571V455.57V455.57V455.57V455.57V455.57V455.57V455.57V455.57V455.57V455.57V455.57V455.57V455.57V455.57V455.57V455.57V455.569V455.569V455.569V455.569V455.569V455.569V455.569V455.569V455.569V455.569V455.569V455.569V455.569V455.569V455.569V455.569V455.568V455.568V455.568V455.568V455.568V455.568V455.568V455.568V455.568V455.568V455.568V455.568V455.568V455.568V455.568V455.568V455.567V455.567V455.567V455.567V455.567V455.567V455.567V455.567V455.567V455.567V455.567V455.567V455.567V455.567V455.567V455.567V455.567V455.566V455.566V455.566V455.566V455.566V455.566V455.566V455.566V455.566V455.566V455.566V455.566V455.566V455.566V455.566V455.566V455.565V455.565V455.565V455.565V455.565V455.565V455.565V455.565V455.565V455.565V455.565V455.565V455.565V455.565V455.565V455.565V455.564V455.564V455.564V455.564V455.564V455.564V455.564V455.564V455.564V455.564V455.564V455.564V455.564V455.564V455.564V455.564V455.564V455.563V455.563V455.563V455.563V455.563V455.563V455.563V455.563V455.563V455.563V455.563V455.563V455.563V455.563V455.563V455.563V455.562V455.562V455.562V455.562V455.562V455.562V455.562V455.562V455.562V455.562V455.562V455.562V455.562V455.562V455.562V455.562V455.561V455.561V455.561V455.561V455.561V455.561V455.561V455.561V455.561V455.561V455.561V455.561V455.561V455.561V455.561V455.561V455.56V455.56V455.56V455.56V455.56V455.56V455.56V455.56V455.56V455.56V455.56V455.56V455.56V455.56V455.56V455.56V455.56V455.559V455.559V455.559V455.559V455.559V455.559V455.559V455.559V455.559V455.559V455.559V455.559V455.559V455.559V455.559V455.559V455.558V455.558V455.558V455.558V455.558V455.558V455.558V455.558V455.558V455.558V455.558V455.558V455.558V455.558V455.558V455.558V455.557V455.557V455.557V455.557V455.557V455.557V455.557V455.557V455.557V455.557V455.557V455.557V455.557V455.557V455.557V455.557V455.556V455.556V455.556V455.556V455.556V455.556V455.556V455.556V455.556V455.556V455.556V455.556V455.556V455.556V455.556V455.556V455.556V455.555V455.555V455.555V455.555V455.555V455.555V455.555V455.555V455.555V455.555V455.555V455.555V455.555V455.555V455.555V455.555V455.554V455.554V455.554V455.554V455.554V455.554V455.554V455.554V455.554V455.554V455.554V455.554V455.554V455.554V455.554V455.554V455.553V455.553V455.553V455.553V455.553V455.553V455.553V455.553V455.553V455.553V455.553V455.553V455.553V455.553V455.553V455.553V455.552V455.552V455.552V455.552V455.552V455.552V455.552V455.552V455.552V455.552V455.552V455.552V455.552V455.552V455.552V455.552V455.552V455.551V455.551V455.551V455.551V455.551V455.551V455.551V455.551V455.551V455.551V455.551V455.551V455.551V455.551V455.551V455.551V455.55V455.55V455.55V455.55V455.55V455.55V455.55V455.55V455.55V455.55V455.55V455.55V455.55V455.55V455.55V455.55V455.549V455.549V455.549V455.549V455.549V455.549V455.549V455.549V455.549V455.549V455.549V455.549V455.549V455.549V455.549V455.549V455.548V455.548V455.548V455.548V455.548V455.548V455.548V455.548V455.548V455.548V455.548V455.548V455.548V455.548V455.548V455.548V455.548V455.547V455.547V455.547V455.547V455.547V455.547V455.547V455.547V455.547V455.547V455.547V455.547V455.547V455.547V455.547V455.547V455.546V455.546V455.546V455.546V455.546V455.546V455.546V455.546V455.546V455.546V455.546V455.546V455.546V455.546V455.546V455.546V455.545V455.545V455.545V455.545V455.545V455.545V455.545V455.545V455.545V455.545V455.545V455.545V455.545V455.545V455.545V455.545V455.545V455.544V455.544V455.544V455.544V455.544V455.544V455.544V455.544V455.544V455.544V455.544V455.544V455.544V455.544V455.544V455.544V455.543V455.543V455.543V455.543V455.543V455.543V455.543V455.543V455.543V455.543V455.543V455.543V455.543V455.543V455.543V455.543V455.542V455.542V455.542V455.542V455.542V455.542V455.542V455.542V455.542V455.542V455.542V455.542V455.542V455.542V455.542V455.542V455.541V455.541V455.541V455.541V455.541V455.541V455.541V455.541V455.541V455.541V455.541V455.541V455.541V455.541V455.541V455.541V455.541V455.54V455.54V455.54V455.54V455.54V455.54V455.54V449.031ZM287.352 456.499H287.299V456.503C286.995 456.479 286.667 456.25 286.667 455.818V449.031V449.03V449.03V449.03V449.03V449.03V449.03V449.03V449.03V449.03V449.03V449.03V449.03V449.03V449.03V449.03V449.03V449.03V449.03V449.03V449.03V449.03V449.03V449.03V449.03V449.03V449.03V449.03V449.03V449.03V449.03V449.03V449.03V449.03V449.03V449.03V449.03V449.03V449.03V449.03V449.03V449.03V449.03V449.03V449.03V449.03V449.03V449.03V449.03V449.03V449.03V449.03V449.03V449.03V449.03V449.03V449.03V449.03V449.03V449.03V449.03V449.03V449.03V449.03V449.03V449.03V449.03V449.03V449.03V449.03V449.03V449.03V449.03V449.03V449.03V449.03V449.03V449.03V449.03V449.03V449.03V449.03V449.03V449.03V449.03V449.03V449.03V449.03V449.03V449.03V449.03V449.03V449.03V449.03V449.03V449.029V449.029V449.029V449.029V449.029V449.029V449.029V449.029V449.029V449.029V449.029V449.029V449.029V449.029V449.029V449.029V449.029V449.029V449.029V449.029V449.029V449.029V449.029V449.029V449.029V449.029V449.029V449.029V449.029V449.029V449.029V449.029V449.029V449.029V449.029V449.029V449.029V449.029V449.029V449.029V449.029V449.029V449.029V449.029V449.029V449.029V449.029V449.029V449.029V449.029V449.029V449.029V449.029V449.029V449.029V449.029V449.029V449.029V449.029V449.029V449.029V449.029V449.029V449.029V449.029V449.029V449.029V449.029V449.029V449.029V449.029V449.029V449.029V449.029V449.029V449.029V449.028V449.028V449.028V449.028V449.028V449.028V449.028V449.028V449.028V449.028V449.028V449.028V449.028V449.028V449.028V449.028V449.028V449.028V449.028V449.028V449.028V449.028V449.028V449.028V449.028V449.028V449.028V449.028V449.028V449.028V449.028V449.028V449.028V449.028V449.028V449.028V449.028V449.028V449.028V449.028V449.028V449.028V449.028V449.028V449.028V449.028V449.028V449.028V449.028V449.028V449.028V449.028V449.028V449.028V449.027V449.027V449.027V449.027V449.027V449.027V449.027V449.027V449.027V449.027V449.027V449.027V449.027V449.027V449.027V449.027V449.027V449.027V449.027V449.027V449.027V449.027V449.027V449.027V449.027V449.027V449.027V449.027V449.027V449.027V449.027V449.027V449.027V449.027V449.027V449.027V449.027V449.027V449.027V449.027V449.027V449.027V449.026V449.026V449.026V449.026V449.026V449.026V449.026V449.026V449.026V449.026V449.026V449.026V449.026V449.026V449.026V449.026V449.026V449.026V449.026V449.026V449.026V449.026V449.026V449.026V449.026V449.026V449.026V449.026V449.026V449.026V449.026V449.026V449.026V449.026V449.026V449.026V449.026V449.025V449.025V449.025V449.025V449.025V449.025V449.025V449.025C286.667 448.706 286.896 448.339 287.352 448.339H296.827C297.167 448.339 297.512 448.622 297.512 449.02V449.025V455.813V455.818C297.512 456.159 297.224 456.499 296.827 456.499H287.352Z" fill="#04005E" stroke="#04005E" stroke-width="0.4"/>
<path d="M309.041 451.049C308.717 451.049 308.344 450.818 308.344 450.36C308.344 449.988 308.037 449.686 307.662 449.686H302.15C301.776 449.686 301.469 449.988 301.469 450.36C301.469 450.707 301.177 451.049 300.771 451.049C300.396 451.049 300.09 451.352 300.09 451.724V457.174C300.09 457.546 300.396 457.848 300.771 457.848C301.146 457.848 301.452 457.546 301.452 457.174V451.719V451.714C301.458 451.398 301.691 451.029 302.15 451.029H307.662C308.014 451.029 308.36 451.319 308.36 451.719V457.174C308.36 457.546 308.667 457.848 309.041 457.848C309.416 457.848 309.723 457.546 309.723 457.174V451.719C309.723 451.346 309.416 451.049 309.041 451.049Z" fill="#04005E" stroke="#04005E" stroke-width="0.4"/>
<path d="M244.665 448.358L244.664 448.358C244.3 448.364 244 448.665 244 449.035V455.819C244 456.189 244.301 456.491 244.67 456.491C244.983 456.491 245.349 456.715 245.354 457.167V457.167V457.167V457.167V457.167V457.167V457.167V457.167V457.167V457.167V457.167V457.167V457.167V457.167V457.167V457.167V457.167V457.167V457.167V457.167V457.167V457.167V457.167V457.167V457.167V457.167V457.167V457.167V457.167V457.168V457.168V457.168V457.168V457.168V457.168V457.168V457.168V457.168V457.168V457.168V457.168V457.168V457.168V457.168V457.168V457.168V457.168V457.168V457.168V457.168V457.168V457.168V457.168V457.168V457.168V457.168V457.168V457.168V457.168V457.168V457.168V457.168V457.168V457.168V457.168V457.168V457.168V457.168V457.168V457.168V457.169V457.169V457.169V457.169V457.169V457.169V457.169V457.169V457.169V457.169V457.169V457.169V457.169V457.169V457.169V457.169V457.169V457.169V457.169V457.169V457.169V457.169V457.169V457.169V457.169V457.169V457.169V457.169V457.169V457.169V457.169V457.169V457.169V457.169V457.169V457.169V457.169V457.169V457.169V457.169V457.169V457.169V457.169V457.169V457.169V457.169V457.169V457.17V457.17V457.17V457.17V457.17V457.17V457.17V457.17V457.17V457.17V457.17V457.17V457.17V457.17V457.17V457.17V457.17V457.17V457.17V457.17V457.17V457.17V457.17V457.17V457.17V457.17V457.17V457.17V457.17V457.17V457.17V457.17V457.17V457.17V457.17V457.17V457.17V457.17V457.17V457.17V457.17V457.17V457.17V457.17V457.17V457.17V457.17V457.17V457.17V457.17V457.17V457.17V457.17V457.17V457.17V457.17V457.171V457.171V457.171V457.171V457.171V457.171V457.171V457.171V457.171V457.171V457.171V457.171V457.171V457.171V457.171V457.171V457.171V457.171V457.171V457.171V457.171V457.171V457.171V457.171V457.171V457.171V457.171V457.171V457.171V457.171V457.171V457.171V457.171V457.171V457.171V457.171V457.171V457.171V457.171V457.171V457.171V457.171V457.171V457.171V457.171V457.171V457.171V457.171V457.171V457.171V457.171V457.171V457.171V457.171V457.171V457.171V457.171V457.171V457.171V457.171V457.171V457.171V457.171V457.172V457.172V457.172V457.172V457.172V457.172V457.172V457.172V457.172V457.172V457.172V457.172V457.172V457.172V457.172V457.172V457.172V457.172V457.172V457.172V457.172V457.172V457.172V457.172V457.172V457.172V457.172V457.172V457.172V457.172V457.172V457.172V457.172V457.172V457.172V457.172V457.172V457.172V457.172V457.172V457.172V457.172V457.172V457.172V457.172V457.172V457.172V457.172V457.172V457.172V457.172V457.172V457.172V457.172V457.172V457.172V457.172V457.172V457.172V457.172V457.172V457.172V457.172V457.172V457.173V457.173V457.173V457.173V457.173V457.173V457.173V457.173V457.173V457.173V457.173V457.173V457.173V457.173V457.173V457.173V457.173V457.173V457.173V457.173V457.173V457.173V457.173V457.173V457.173V457.173V457.173V457.173V457.173V457.173V457.173V457.173V457.173V457.173V457.173V457.173V457.173V457.173V457.173V457.173V457.173V457.173V457.173V457.173V457.173V457.173V457.173V457.173V457.173V457.173V457.173V457.173V457.173V457.173V457.173V457.173V457.173V457.173V457.173V457.174V457.174V457.174V457.174V457.174V457.174V457.174V457.174V457.174V457.174V457.174V457.174V457.174V457.174V457.174V457.174V457.174V457.174V457.174V457.174V457.174V457.174V457.174V457.174V457.174V457.174V457.174V457.174V457.174V457.174V457.174V457.174V457.174V457.174V457.174V457.174V457.174V457.174V457.174V457.174V457.174V457.174V457.174V457.174V457.174V457.174V457.174V457.174V457.174V457.174V457.174V457.175V457.175V457.175V457.175V457.175V457.175V457.175V457.175V457.175V457.175V457.175V457.175V457.175V457.175V457.175V457.175V457.175V457.175V457.175V457.175V457.175V457.175V457.175V457.175V457.175V457.175V457.175V457.175V457.175V457.175V457.175V457.175V457.175V457.175V457.175V457.175V457.175V457.175V457.175V457.175V457.175V457.175V457.176V457.176V457.176V457.176V457.176V457.176V457.176V457.176V457.176V457.176V457.176V457.176V457.176V457.176V457.176V457.176V457.176V457.176V457.176V457.176V457.176V457.176V457.176V457.176V457.176V457.176V457.176V457.176V457.176V457.176V457.176V457.176V457.176V457.176V457.176V457.176V457.176V457.176V457.177V457.177V457.177V457.177V457.177V457.177V457.177V457.177V457.177V457.177V457.177V457.177V457.177V457.177C245.354 457.547 245.655 457.849 246.024 457.849H255.5C255.869 457.849 256.17 457.547 256.17 457.177C256.17 456.858 256.399 456.491 256.854 456.491C257.224 456.491 257.524 456.189 257.524 455.819C257.524 455.449 257.224 455.147 256.854 455.147C256.485 455.147 256.184 455.449 256.184 455.819V455.824C256.179 456.165 255.896 456.505 255.5 456.505H246.024C245.68 456.505 245.34 456.217 245.34 455.819V449.035V449.035V449.035V449.035V449.035V449.035V449.035V449.035V449.035V449.035V449.035V449.035V449.035V449.035V449.035V449.035V449.035V449.035V449.035V449.035V449.035V449.035V449.035V449.035V449.035V449.035V449.035V449.034V449.034V449.034V449.034V449.034V449.034V449.034V449.034V449.034V449.034V449.034V449.034V449.034V449.034V449.034V449.034V449.034V449.034V449.034V449.034V449.034V449.034V449.034V449.034V449.034V449.034V449.034V449.034V449.034V449.034V449.034V449.034V449.034V449.034V449.034V449.034V449.034V449.034V449.034V449.034V449.034V449.034V449.034V449.034V449.034V449.034V449.034V449.034V449.034V449.034V449.034V449.034V449.034V449.034V449.034V449.034V449.034V449.034V449.034V449.034V449.034V449.034V449.034V449.034V449.034V449.034V449.034V449.034V449.034V449.034V449.034V449.034V449.034V449.034V449.034V449.034V449.034V449.034V449.034V449.034V449.034V449.034V449.034V449.034V449.034V449.034V449.034V449.034V449.034V449.034V449.034V449.034V449.034V449.033V449.033V449.033V449.033V449.033V449.033V449.033V449.033V449.033V449.033V449.033V449.033V449.033V449.033V449.033V449.033V449.033V449.033V449.033V449.033V449.033V449.033V449.033V449.033V449.033V449.033V449.033V449.033V449.033V449.033V449.033V449.033V449.033V449.033V449.033V449.033V449.033V449.033V449.033V449.033V449.033V449.033V449.033V449.033V449.033V449.033V449.033V449.033V449.033V449.033V449.033V449.033V449.033V449.033V449.033V449.033V449.033V449.033V449.033V449.033V449.033V449.033V449.033V449.033V449.033V449.033V449.033V449.033V449.032V449.032V449.032V449.032V449.032V449.032V449.032V449.032V449.032V449.032V449.032V449.032V449.032V449.032V449.032V449.032V449.032V449.032V449.032V449.032V449.032V449.032V449.032V449.032V449.032V449.032V449.032V449.032V449.032V449.032V449.032V449.032V449.032V449.032V449.032V449.032V449.032V449.032V449.032V449.032V449.032V449.032V449.032V449.032V449.032V449.032V449.032V449.032V449.032V449.032V449.031V449.031V449.031V449.031V449.031V449.031V449.031V449.031V449.031V449.031V449.031V449.031V449.031V449.031V449.031V449.031V449.031V449.031V449.031V449.031V449.031V449.031V449.031V449.031V449.031V449.031V449.031V449.031V449.031V449.031V449.031V449.031V449.031V449.031V449.031V449.031V449.031V449.031V449.031V449.031V449.031V449.03V449.03V449.03V449.03V449.03V449.03V449.03V449.03V449.03V449.03V449.03V449.03V449.03V449.03V449.03V449.03V449.03V449.03V449.03V449.03V449.03V449.03V449.03V449.03V449.03V449.03V449.03V449.03V449.03V449.03V449.03V449.03V449.03V449.03C245.34 448.711 245.569 448.343 246.024 448.343H255.5C255.818 448.343 256.184 448.573 256.184 449.029C256.179 449.405 256.48 449.701 256.849 449.701C257.218 449.701 257.519 449.399 257.519 449.03C257.519 448.66 257.218 448.358 256.849 448.358C256.504 448.358 256.165 448.07 256.165 447.672C256.165 447.302 255.864 447 255.495 447H246.019C245.65 447 245.349 447.302 245.349 447.672C245.349 448.017 245.062 448.358 244.665 448.358Z" fill="#04005E" stroke="#04005E" stroke-width="0.4"/>
<path d="M312.429 449.686H312.376V449.739V451.002V451.055H312.429H318.766H318.819V451.002V449.739V449.686H318.766H312.429Z" fill="#04005E" stroke="#04005E" stroke-width="0.4"/>
<path d="M320.29 453.686H320.343V453.633V451.318V451.265H320.29H319.053H319V451.318V452.379H312.167V451.318V451.265H312.114H310.877H310.824V451.318V456.264V456.317H310.877H312.114H312.167V456.264V453.686H319.053H319.669H320.29Z" fill="#04005E" stroke="#04005E" stroke-width="0.4"/>
<path d="M312.401 456.527H312.348V456.58V457.791V457.844H312.401H318.764H318.817V457.791V456.58V456.527H318.764H312.401Z" fill="#04005E" stroke="#04005E" stroke-width="0.4"/>
<path d="M320.343 455.212V455.159H320.29H319.08H319.027V455.212V455.729V455.73V455.73V455.73V455.73V455.73V455.73V455.73V455.73V455.73V455.73V455.73V455.73V455.73V455.73V455.73V455.73V455.73V455.73V455.73V455.73V455.73V455.73V455.73V455.73V455.73V455.73V455.73V455.73V455.73V455.73V455.73V455.73V455.73V455.73V455.73V455.73V455.73V455.73V455.73V455.73V455.73V455.73V455.731V455.731V455.731V455.731V455.731V455.731V455.731V455.731V455.731V455.731V455.731V455.731V455.731V455.731V455.731V455.731V455.731V455.731V455.731V455.731V455.731V455.731V455.731V455.731V455.731V455.731V455.731V455.731V455.731V455.731V455.731V455.731V455.731V455.731V455.731V455.731V455.731V455.731V455.731V455.731V455.731V455.731V455.731V455.731V455.731V455.731V455.731V455.731V455.731V455.732V455.732V455.732V455.732V455.732V455.732V455.732V455.732V455.732V455.732V455.732V455.732V455.732V455.732V455.732V455.732V455.732V455.732V455.732V455.732V455.732V455.732V455.732V455.732V455.732V455.732V455.732V455.732V455.732V455.732V455.732V455.732V455.732V455.732V455.732V455.732V455.732V455.732V455.732V455.732V455.732V455.732V455.732V455.732V455.732V455.732V455.732V455.732V455.732V455.732V455.732V455.732V455.732V455.732V455.732V455.732V455.732V455.732V455.732V455.732V455.733V455.733V455.733V455.733V455.733V455.733V455.733V455.733V455.733V455.733V455.733V455.733V455.733V455.733V455.733V455.733V455.733V455.733V455.733V455.733V455.733V455.733V455.733V455.733V455.733V455.733V455.733V455.733V455.733V455.733V455.733V455.733V455.733V455.733V455.733V455.733V455.733V455.733V455.733V455.733V455.733V455.733V455.733V455.733V455.733V455.733V455.733V455.733V455.733V455.733V455.733V455.733V455.733V455.733V455.733V455.733V455.733V455.733V455.733V455.733V455.733V455.733V455.733V455.733V455.733V455.733V455.733V455.733V455.733V455.733V455.733V455.734V455.734V455.734V455.734V455.734V455.734V455.734V455.734V455.734V455.734V455.734V455.734V455.734V455.734V455.734V455.734V455.734V455.734V455.734V455.734V455.734V455.734V455.734V455.734V455.734V455.734V455.734V455.734V455.734V455.734V455.734V455.734V455.734V455.734V455.734V455.734V455.734V455.734V455.734V455.734V455.734V455.734V455.734V455.734V455.734V455.734V455.734V455.734V455.734V455.734V455.734V455.734V455.734V455.734V455.734V455.734V455.734V455.734V455.734V455.734V455.734V455.734V455.734V455.734V455.734V455.734V455.734V455.734V455.734V455.734V455.734V455.734V455.734V455.734V455.734V455.734V455.735V455.735V455.735V455.735V455.735V455.735V455.735V455.735V455.735V455.735V455.735V455.735V455.735V455.735V455.735V455.735V455.735V455.735V455.735V455.735V455.735V455.735V455.735V455.735V455.735V455.735V455.735V455.735V455.735V455.735V455.735V455.735V455.735V455.735V455.735V455.735V455.735V455.735V455.735V455.735V455.735V455.735V455.735V455.735V455.735V455.735V455.735V455.735V455.735V455.735V455.735V455.735V455.735V455.735V455.735V455.735V455.735V455.735V455.735V455.735V455.735V455.735V455.735V455.735V455.735V455.735V455.735V455.735V455.735V455.735V455.736V455.736V455.736V455.736V455.736V455.736V455.736V455.736V455.736V455.736V455.736V455.736V455.736V455.736V455.736V455.736V455.736V455.736V455.736V455.736V455.736V455.736V455.736V455.736V455.736V455.736V455.736V455.736V455.736V455.736V455.736V455.736V455.736V455.736V455.736V455.736V455.736V455.736V455.736V455.736V455.736V455.736V455.736V455.736V455.736V455.736V455.736V455.736V455.736V455.736V455.736V455.736V455.736V455.736V455.736V455.736V455.736V455.736V455.737V455.737V455.737V455.737V455.737V455.737V455.737V455.737V455.737V455.737V455.737V455.737V455.737V455.737V455.737V455.737V455.737V455.737V455.737V455.737V455.737V455.737V455.737V455.737V455.737V455.737V455.737V455.737V455.737V455.737V455.737V455.737V455.737V455.737V455.737V455.737V455.737V455.737V455.737V455.737V455.737V455.737V455.737V455.737V455.737V455.737V455.737V455.737V455.737V455.738V455.738V455.738V455.738V455.738V455.738V455.738V455.738V455.738V455.738V455.738V455.738V455.738V455.738V455.738V455.738V455.738V455.738V455.738V455.738V455.738V455.738V455.738V455.738V455.738V455.738V455.738V455.738V455.738V455.738V455.738V455.738V455.738V455.738V455.738V455.738V455.738V455.738V455.738V455.738V455.739V455.739V455.739V455.739V455.739V455.739V455.739V455.739V455.739V455.739V455.739V455.739V455.739V455.739V455.739V455.739V455.739V455.739V455.739V455.739V455.739V455.739V455.739V455.739V455.739V455.739V455.739V455.739V455.739V455.739V455.739V455.739V455.739V455.739V455.739V455.739V455.739V455.739V455.739V455.739V455.739V455.739V455.739V455.74V455.74V455.74V455.74V455.74V455.74V455.74V455.74V455.74V455.74V455.74V455.74V455.74V455.74V455.74V455.74V455.74V455.74V455.74V455.74V455.74V455.74V455.74V455.74V455.74V455.74V455.74V455.74V455.74V455.74V455.74V455.74V455.74V455.74V455.74V455.74V455.74V455.74V455.74V455.74V455.74V455.74V455.74V455.74V455.74V455.74V455.74V455.74V455.74V455.74V455.741V455.741V455.741V455.741V455.741V455.741V455.741V455.741V455.741V455.741V455.741V455.741V455.741V455.741V455.741V455.741V455.741V455.741V455.741V455.741V455.741V455.741V455.741V455.741V455.741V455.741V455.741V455.741V455.741V455.741V455.741V455.741V455.741V455.741V455.741V455.741V455.741V455.741V455.741V455.741V455.741V455.741V455.741V455.741V455.741V455.741V455.741V455.741V455.741V455.741V455.741V455.741V455.741V455.741V455.741V455.741V455.741V455.741V455.741V455.741V455.742V455.742V455.742V455.742V455.742V455.742V455.742V455.742V455.742V455.742V455.742V455.742V455.742V455.742V455.742V455.742V455.742V455.742V455.742V455.742V455.742V455.742V455.742V455.742V455.742V455.742V455.742V455.742V455.742V455.742V455.742V455.742V455.742V455.742V455.742V455.742V455.742V455.742V455.742V455.742V455.742V455.742V455.742V455.742V455.742V455.742V455.742V455.742V455.742V455.742V455.742V455.742V455.742V455.742V455.742V455.742V455.742V455.742V455.742V455.742V455.742V455.742V455.742V455.742V455.742V455.742V455.742V455.742V455.742V455.742V455.742V455.742V455.743V455.743V455.743V455.743V455.743V455.743V455.743V455.743V455.743V455.743V455.743V455.743V455.743V455.743V455.743V455.743V455.743V455.743V455.743V455.743V455.743V455.743V455.743V455.743V455.743V455.743V455.743V455.743V455.743V455.743V455.743V455.743V455.743V455.743V455.743V455.743V455.743V455.743V455.743V455.743V455.743V455.743V455.743V455.743V455.743V455.743V455.743V455.743V455.743V455.743V455.743V455.743V455.743V455.743V455.743V455.743V455.743V455.743V455.743V455.743V455.743V455.743V455.743V455.743V455.743V455.743V455.743V455.743V455.743V455.743V455.743V455.743V455.743V455.743V455.743V455.743V455.744V455.744V455.744V455.744V455.744V455.744V455.744V455.744V455.744V455.744V455.744V455.744V455.744V455.744V455.744V455.744V455.744V455.744V455.744V455.744V455.744V455.744V455.744V455.744V455.744V455.744V455.744V455.744V455.744V455.744V455.744V455.744V455.744V455.744V455.744V455.744V455.744V455.744V455.744V455.744V455.744V455.744V455.744V455.744V455.744V455.744V455.744V455.744V455.744V455.744V455.744V455.744V455.744V455.744V455.744V455.744V455.744V455.744V455.744V455.744V455.744V455.744V455.744V455.744V455.744V455.744V455.744V455.744V455.745V455.745V455.745V455.745V455.745V455.745V455.745V455.745V455.745V455.745V455.745V455.745V455.745V455.745V455.745V455.745V455.745V455.745V455.745V455.745V455.745V455.745V455.745V455.745V455.745V455.745V455.745V455.745V455.745V455.745V455.745V455.745V455.745V455.745V455.745V455.745V455.745V455.745V455.745V455.745V455.745V455.745V455.745V455.745V455.745V455.745V455.745V455.745V455.745V455.745V455.745V455.745V455.745V455.745V455.745V455.745V455.745V455.745V455.746V455.746V455.746V455.746V455.746V455.746V455.746V455.746V455.746V455.746V455.746V455.746V455.746V455.746V455.746V455.746V455.746V455.746V455.746V455.746V455.746V455.746V455.746V455.746V455.746V455.746V455.746V455.746V455.746V455.746V455.746V455.746V455.746V455.746V455.746V455.746V455.746V455.746V455.746V455.746V455.746V455.746V455.746V455.746V455.746V455.746V455.746V455.746V455.747V455.747V455.747V455.747V455.747V455.747V455.747V455.747V455.747V455.747V455.747V455.747V455.747V455.747V455.747V455.747V455.747V455.747V455.747V455.747V455.747V455.747V455.747V455.747V455.747V455.747V455.747V455.747V455.747V455.747V455.747V455.747V455.747V455.747V456.265V456.318H319.08H319.682H320.29H320.343V456.265V455.212Z" fill="#04005E" stroke="#04005E" stroke-width="0.4"/>
<path d="M17.779 43.7V44.528H14.62V50H13.72V43.7H17.779ZM21.1053 47.624C21.1053 47.672 21.0993 47.744 21.0873 47.84H17.2893C17.3253 48.296 17.4873 48.68 17.7753 48.992C18.0633 49.298 18.4683 49.451 18.9903 49.451C19.2423 49.451 19.5003 49.406 19.7643 49.316C20.0283 49.22 20.2533 49.094 20.4393 48.938L20.8173 49.451C20.5893 49.667 20.3043 49.835 19.9623 49.955C19.6263 50.075 19.2783 50.135 18.9183 50.135C18.2343 50.135 17.6553 49.919 17.1813 49.487C16.7073 49.055 16.4703 48.506 16.4703 47.84C16.4703 47.156 16.6953 46.574 17.1453 46.094C17.6013 45.608 18.1533 45.365 18.8013 45.365C19.5213 45.365 20.0853 45.584 20.4933 46.022C20.9013 46.454 21.1053 46.988 21.1053 47.624ZM20.3133 47.255C20.2533 46.907 20.0913 46.622 19.8273 46.4C19.5693 46.172 19.2273 46.058 18.8013 46.058C18.4413 46.058 18.1263 46.169 17.8563 46.391C17.5863 46.607 17.4063 46.895 17.3163 47.255H20.3133ZM22.9229 43.907C23.3009 44.087 23.7059 44.177 24.1379 44.177C24.5699 44.177 24.9689 44.087 25.3349 43.907L25.6229 44.447C25.1849 44.663 24.6899 44.771 24.1379 44.771C23.5799 44.771 23.0819 44.663 22.6439 44.447C22.7099 44.327 22.8029 44.147 22.9229 43.907ZM22.8599 45.5V48.893C23.0039 48.701 23.8469 47.57 25.3889 45.5H26.2169V50H25.4069V46.625L22.8869 50H22.0499V45.5H22.8599ZM29.9028 47.813C30.1068 47.513 30.4008 47.084 30.7848 46.526C31.1688 45.968 31.4028 45.626 31.4868 45.5H32.3418V50H31.5408V46.643C31.3968 46.847 31.2438 47.066 31.0818 47.3C30.9198 47.534 30.7398 47.795 30.5418 48.083C30.3438 48.371 30.1908 48.593 30.0828 48.749H29.7228L28.2738 46.643V50H27.4728V45.5H28.3278L29.9028 47.813ZM34.3998 45.5V48.893C35.9418 46.823 36.7848 45.692 36.9288 45.5H37.7568V50H36.9468V46.625L34.4268 50H33.5988V45.5H34.3998ZM42.3788 50.135H42.1178V51.836H41.3078V50.135H41.0378C40.3838 50.135 39.8288 49.901 39.3728 49.433C38.9228 48.965 38.6978 48.404 38.6978 47.75C38.6978 47.096 38.9258 46.535 39.3818 46.067C39.8378 45.599 40.3898 45.365 41.0378 45.365H41.3078V43.61H42.1178V45.365H42.3788C43.0268 45.365 43.5788 45.599 44.0348 46.067C44.4908 46.535 44.7188 47.096 44.7188 47.75C44.7188 48.41 44.4908 48.974 44.0348 49.442C43.5848 49.904 43.0328 50.135 42.3788 50.135ZM42.2528 49.406C42.7028 49.406 43.0868 49.244 43.4048 48.92C43.7288 48.596 43.8908 48.206 43.8908 47.75C43.8908 47.3 43.7288 46.913 43.4048 46.589C43.0868 46.265 42.7028 46.103 42.2528 46.103H42.1178V49.406H42.2528ZM41.3078 46.103H41.1638C40.7138 46.103 40.3298 46.265 40.0118 46.589C39.6938 46.913 39.5348 47.3 39.5348 47.75C39.5348 48.206 39.6938 48.596 40.0118 48.92C40.3298 49.244 40.7138 49.406 41.1638 49.406H41.3078V46.103ZM46.4671 45.5V48.893C48.0091 46.823 48.8521 45.692 48.9961 45.5H49.8241V50H49.0141V46.625L46.4941 50H45.6661V45.5H46.4671ZM54.1222 50L51.9982 47.651L54.0322 45.5H55.0222L52.8982 47.651L55.1122 50H54.1222ZM51.0802 45.5H51.8812V50H51.0802V45.5ZM56.9352 50.135C56.4672 50.135 56.0952 50.021 55.8192 49.793C55.5492 49.565 55.4142 49.253 55.4142 48.857C55.4142 48.659 55.4472 48.485 55.5132 48.335C55.5792 48.179 55.6632 48.05 55.7652 47.948C55.8672 47.846 56.0052 47.759 56.1792 47.687C56.3592 47.615 56.5272 47.558 56.6832 47.516C56.8452 47.474 57.0492 47.444 57.2952 47.426C57.5472 47.402 57.7602 47.387 57.9342 47.381C58.1142 47.375 58.3422 47.369 58.6182 47.363V46.994C58.6182 46.346 58.2582 46.022 57.5382 46.022C57.0042 46.022 56.5242 46.211 56.0982 46.589L55.6572 46.094C56.1912 45.608 56.8422 45.365 57.6102 45.365C57.9762 45.365 58.2852 45.413 58.5372 45.509C58.7952 45.605 58.9842 45.737 59.1042 45.905C59.2242 46.067 59.3082 46.229 59.3562 46.391C59.4042 46.553 59.4282 46.727 59.4282 46.913V50H58.6182V49.208C58.1262 49.826 57.5652 50.135 56.9352 50.135ZM57.1332 49.514C57.6972 49.514 58.1922 49.193 58.6182 48.551V47.885C58.0422 47.885 57.5622 47.918 57.1782 47.984C57.0582 48.002 56.9382 48.035 56.8182 48.083C56.6982 48.131 56.5752 48.221 56.4492 48.353C56.3292 48.479 56.2692 48.629 56.2692 48.803C56.2692 49.049 56.3562 49.229 56.5302 49.343C56.7102 49.457 56.9112 49.514 57.1332 49.514ZM61.3998 49.298H63.9468V45.5H64.7568V49.298H65.4498V51.269H64.6668V50H60.5988V45.5H61.3998V49.298ZM67.1039 45.5V48.893C68.6459 46.823 69.4889 45.692 69.6329 45.5H70.4609V50H69.6509V46.625L67.1309 50H66.3029V45.5H67.1039ZM74.2459 48.398H73.4089L72.3379 50H71.4019C71.9659 49.196 72.3529 48.641 72.5629 48.335C72.2029 48.275 71.9179 48.113 71.7079 47.849C71.5039 47.585 71.4019 47.285 71.4019 46.949C71.4019 46.559 71.5399 46.22 71.8159 45.932C72.0919 45.644 72.4669 45.5 72.9409 45.5H75.0559V50H74.2459V48.398ZM74.2459 46.166H73.0039C72.7819 46.166 72.5929 46.238 72.4369 46.382C72.2869 46.52 72.2119 46.709 72.2119 46.949C72.2119 47.189 72.2869 47.381 72.4369 47.525C72.5929 47.669 72.7819 47.741 73.0039 47.741H74.2459V46.166ZM79.3558 45.5V48.893C80.8978 46.823 81.7408 45.692 81.8848 45.5H82.7128V50H81.9028V46.625L79.3828 50H78.5548V45.5H79.3558ZM87.4069 50.135C86.9389 50.135 86.5669 50.021 86.2909 49.793C86.0209 49.565 85.8859 49.253 85.8859 48.857C85.8859 48.659 85.9189 48.485 85.9849 48.335C86.0509 48.179 86.1349 48.05 86.2369 47.948C86.3389 47.846 86.4769 47.759 86.6509 47.687C86.8309 47.615 86.9989 47.558 87.1549 47.516C87.3169 47.474 87.5209 47.444 87.7669 47.426C88.0189 47.402 88.2319 47.387 88.4059 47.381C88.5859 47.375 88.8139 47.369 89.0899 47.363V46.994C89.0899 46.346 88.7299 46.022 88.0099 46.022C87.4759 46.022 86.9959 46.211 86.5699 46.589L86.1289 46.094C86.6629 45.608 87.3139 45.365 88.0819 45.365C88.4479 45.365 88.7569 45.413 89.0089 45.509C89.2669 45.605 89.4559 45.737 89.5759 45.905C89.6959 46.067 89.7799 46.229 89.8279 46.391C89.8759 46.553 89.8999 46.727 89.8999 46.913V50H89.0899V49.208C88.5979 49.826 88.0369 50.135 87.4069 50.135ZM87.6049 49.514C88.1689 49.514 88.6639 49.193 89.0899 48.551V47.885C88.5139 47.885 88.0339 47.918 87.6499 47.984C87.5299 48.002 87.4099 48.035 87.2899 48.083C87.1699 48.131 87.0469 48.221 86.9209 48.353C86.8009 48.479 86.7409 48.629 86.7409 48.803C86.7409 49.049 86.8279 49.229 87.0019 49.343C87.1819 49.457 87.3829 49.514 87.6049 49.514ZM90.7554 46.976V45.5H91.5564V46.877C91.5564 47.177 91.6464 47.399 91.8264 47.543C92.0124 47.687 92.2584 47.759 92.5644 47.759C92.9244 47.759 93.3234 47.714 93.7614 47.624V45.5H94.5624V50H93.7614V48.335C93.2574 48.419 92.8284 48.461 92.4744 48.461C91.9404 48.461 91.5204 48.338 91.2144 48.092C90.9084 47.84 90.7554 47.468 90.7554 46.976ZM96.6263 45.5V48.893C98.1683 46.823 99.0113 45.692 99.1553 45.5H99.9833V50H99.1733V46.625L96.6533 50H95.8253V45.5H96.6263ZM104.857 46.598C104.857 46.802 104.8 46.997 104.686 47.183C104.572 47.369 104.419 47.519 104.227 47.633C104.479 47.729 104.677 47.879 104.821 48.083C104.971 48.287 105.046 48.515 105.046 48.767C105.046 49.109 104.923 49.4 104.677 49.64C104.437 49.88 104.122 50 103.732 50H101.239V45.5H103.624C103.984 45.5 104.278 45.608 104.506 45.824C104.74 46.034 104.857 46.292 104.857 46.598ZM102.04 49.406H103.453C103.675 49.406 103.858 49.343 104.002 49.217C104.146 49.085 104.218 48.914 104.218 48.704C104.218 48.488 104.146 48.314 104.002 48.182C103.858 48.044 103.675 47.975 103.453 47.975H102.04V49.406ZM104.092 46.715C104.092 46.529 104.02 46.382 103.876 46.274C103.738 46.16 103.57 46.103 103.372 46.103H102.04V47.399H103.372C103.57 47.399 103.738 47.333 103.876 47.201C104.02 47.069 104.092 46.907 104.092 46.715ZM109.08 50L106.956 47.651L108.99 45.5H109.98L107.856 47.651L110.07 50H109.08ZM106.038 45.5H106.839V50H106.038V45.5ZM111.594 45.5V48.893C113.136 46.823 113.979 45.692 114.123 45.5H114.951V50H114.141V46.625L111.621 50H110.793V45.5H111.594ZM121.805 46.211H119.258V50H118.457V45.5H122.615V50H121.805V46.211ZM126.229 50.135C125.593 50.135 125.074 49.895 124.672 49.415V51.836H123.871V45.5H124.672V46.094C125.08 45.62 125.608 45.383 126.256 45.383C126.898 45.383 127.429 45.614 127.849 46.076C128.275 46.538 128.488 47.096 128.488 47.75C128.488 48.416 128.272 48.98 127.84 49.442C127.414 49.904 126.877 50.135 126.229 50.135ZM125.995 46.103C125.449 46.103 125.008 46.325 124.672 46.769V48.74C125.002 49.184 125.443 49.406 125.995 49.406C126.451 49.406 126.838 49.244 127.156 48.92C127.474 48.596 127.633 48.206 127.633 47.75C127.633 47.3 127.471 46.913 127.147 46.589C126.829 46.265 126.445 46.103 125.995 46.103ZM131.964 48.398H131.127L130.056 50H129.12C129.684 49.196 130.071 48.641 130.281 48.335C129.921 48.275 129.636 48.113 129.426 47.849C129.222 47.585 129.12 47.285 129.12 46.949C129.12 46.559 129.258 46.22 129.534 45.932C129.81 45.644 130.185 45.5 130.659 45.5H132.774V50H131.964V48.398ZM131.964 46.166H130.722C130.5 46.166 130.311 46.238 130.155 46.382C130.005 46.52 129.93 46.709 129.93 46.949C129.93 47.189 130.005 47.381 130.155 47.525C130.311 47.669 130.5 47.741 130.722 47.741H131.964V46.166ZM136.453 47.813C136.657 47.513 136.951 47.084 137.335 46.526C137.719 45.968 137.953 45.626 138.037 45.5H138.892V50H138.091V46.643C137.947 46.847 137.794 47.066 137.632 47.3C137.47 47.534 137.29 47.795 137.092 48.083C136.894 48.371 136.741 48.593 136.633 48.749H136.273L134.824 46.643V50H134.023V45.5H134.878L136.453 47.813ZM142.282 49.433C142.75 49.433 143.143 49.271 143.461 48.947C143.779 48.617 143.938 48.218 143.938 47.75C143.938 47.294 143.779 46.901 143.461 46.571C143.143 46.241 142.75 46.076 142.282 46.076C141.814 46.076 141.418 46.241 141.094 46.571C140.776 46.901 140.617 47.294 140.617 47.75C140.617 48.218 140.776 48.617 141.094 48.947C141.412 49.271 141.808 49.433 142.282 49.433ZM144.037 49.451C143.581 49.907 142.996 50.135 142.282 50.135C141.568 50.135 140.98 49.907 140.518 49.451C140.062 48.989 139.834 48.422 139.834 47.75C139.834 47.084 140.062 46.52 140.518 46.058C140.98 45.596 141.568 45.365 142.282 45.365C142.996 45.365 143.581 45.596 144.037 46.058C144.493 46.52 144.721 47.084 144.721 47.75C144.721 48.422 144.493 48.989 144.037 49.451ZM17.248 59.598C17.248 59.802 17.191 59.997 17.077 60.183C16.963 60.369 16.81 60.519 16.618 60.633C16.87 60.729 17.068 60.879 17.212 61.083C17.362 61.287 17.437 61.515 17.437 61.767C17.437 62.109 17.314 62.4 17.068 62.64C16.828 62.88 16.513 63 16.123 63H13.63V58.5H16.015C16.375 58.5 16.669 58.608 16.897 58.824C17.131 59.034 17.248 59.292 17.248 59.598ZM14.431 62.406H15.844C16.066 62.406 16.249 62.343 16.393 62.217C16.537 62.085 16.609 61.914 16.609 61.704C16.609 61.488 16.537 61.314 16.393 61.182C16.249 61.044 16.066 60.975 15.844 60.975H14.431V62.406ZM16.483 59.715C16.483 59.529 16.411 59.382 16.267 59.274C16.129 59.16 15.961 59.103 15.763 59.103H14.431V60.399H15.763C15.961 60.399 16.129 60.333 16.267 60.201C16.411 60.069 16.483 59.907 16.483 59.715ZM21.4798 58.5V61.893C23.0218 59.823 23.8648 58.692 24.0088 58.5H24.8368V63H24.0268V59.625L21.5068 63H20.6788V58.5H21.4798ZM29.4229 61.038H26.8939V63H26.0929V58.5H26.8939V60.309H29.4229V58.5H30.2329V63H29.4229V61.038ZM34.9994 58.5V59.238H33.3974V63H32.5964V59.238H30.9944V58.5H34.9994ZM39.8084 60.624C39.8084 60.672 39.8024 60.744 39.7904 60.84H35.9924C36.0284 61.296 36.1904 61.68 36.4784 61.992C36.7664 62.298 37.1714 62.451 37.6934 62.451C37.9454 62.451 38.2034 62.406 38.4674 62.316C38.7314 62.22 38.9564 62.094 39.1424 61.938L39.5204 62.451C39.2924 62.667 39.0074 62.835 38.6654 62.955C38.3294 63.075 37.9814 63.135 37.6214 63.135C36.9374 63.135 36.3584 62.919 35.8844 62.487C35.4104 62.055 35.1734 61.506 35.1734 60.84C35.1734 60.156 35.3984 59.574 35.8484 59.094C36.3044 58.608 36.8564 58.365 37.5044 58.365C38.2244 58.365 38.7884 58.584 39.1964 59.022C39.6044 59.454 39.8084 59.988 39.8084 60.624ZM39.0164 60.255C38.9564 59.907 38.7944 59.622 38.5304 59.4C38.2724 59.172 37.9304 59.058 37.5044 59.058C37.1444 59.058 36.8294 59.169 36.5594 59.391C36.2894 59.607 36.1094 59.895 36.0194 60.255H39.0164ZM43.111 63.135C42.475 63.135 41.956 62.895 41.554 62.415V64.836H40.753V58.5H41.554V59.094C41.962 58.62 42.49 58.383 43.138 58.383C43.78 58.383 44.311 58.614 44.731 59.076C45.157 59.538 45.37 60.096 45.37 60.75C45.37 61.416 45.154 61.98 44.722 62.442C44.296 62.904 43.759 63.135 43.111 63.135ZM42.877 59.103C42.331 59.103 41.89 59.325 41.554 59.769V61.74C41.884 62.184 42.325 62.406 42.877 62.406C43.333 62.406 43.72 62.244 44.038 61.92C44.356 61.596 44.515 61.206 44.515 60.75C44.515 60.3 44.353 59.913 44.029 59.589C43.711 59.265 43.327 59.103 42.877 59.103ZM49.6825 63.135H49.4215V64.836H48.6115V63.135H48.3415C47.6875 63.135 47.1325 62.901 46.6765 62.433C46.2265 61.965 46.0015 61.404 46.0015 60.75C46.0015 60.096 46.2295 59.535 46.6855 59.067C47.1415 58.599 47.6935 58.365 48.3415 58.365H48.6115V56.61H49.4215V58.365H49.6825C50.3305 58.365 50.8825 58.599 51.3385 59.067C51.7945 59.535 52.0225 60.096 52.0225 60.75C52.0225 61.41 51.7945 61.974 51.3385 62.442C50.8885 62.904 50.3365 63.135 49.6825 63.135ZM49.5565 62.406C50.0065 62.406 50.3905 62.244 50.7085 61.92C51.0325 61.596 51.1945 61.206 51.1945 60.75C51.1945 60.3 51.0325 59.913 50.7085 59.589C50.3905 59.265 50.0065 59.103 49.5565 59.103H49.4215V62.406H49.5565ZM48.6115 59.103H48.4675C48.0175 59.103 47.6335 59.265 47.3155 59.589C46.9975 59.913 46.8385 60.3 46.8385 60.75C46.8385 61.206 46.9975 61.596 47.3155 61.92C47.6335 62.244 48.0175 62.406 48.4675 62.406H48.6115V59.103ZM57.2898 60.624C57.2898 60.672 57.2838 60.744 57.2718 60.84H53.4738C53.5098 61.296 53.6718 61.68 53.9598 61.992C54.2478 62.298 54.6528 62.451 55.1748 62.451C55.4268 62.451 55.6848 62.406 55.9488 62.316C56.2128 62.22 56.4378 62.094 56.6238 61.938L57.0018 62.451C56.7738 62.667 56.4888 62.835 56.1468 62.955C55.8108 63.075 55.4628 63.135 55.1028 63.135C54.4188 63.135 53.8398 62.919 53.3658 62.487C52.8918 62.055 52.6548 61.506 52.6548 60.84C52.6548 60.156 52.8798 59.574 53.3298 59.094C53.7858 58.608 54.3378 58.365 54.9858 58.365C55.7058 58.365 56.2698 58.584 56.6778 59.022C57.0858 59.454 57.2898 59.988 57.2898 60.624ZM56.4978 60.255C56.4378 59.907 56.2758 59.622 56.0118 59.4C55.7538 59.172 55.4118 59.058 54.9858 59.058C54.6258 59.058 54.3108 59.169 54.0408 59.391C53.7708 59.607 53.5908 59.895 53.5008 60.255H56.4978ZM59.1075 56.907C59.4855 57.087 59.8905 57.177 60.3225 57.177C60.7545 57.177 61.1535 57.087 61.5195 56.907L61.8075 57.447C61.3695 57.663 60.8745 57.771 60.3225 57.771C59.7645 57.771 59.2665 57.663 58.8285 57.447C58.8945 57.327 58.9875 57.147 59.1075 56.907ZM59.0445 58.5V61.893C59.1885 61.701 60.0315 60.57 61.5735 58.5H62.4015V63H61.5915V59.625L59.0715 63H58.2345V58.5H59.0445ZM64.1253 60.75C64.1253 61.218 64.2753 61.608 64.5753 61.92C64.8753 62.226 65.2563 62.379 65.7183 62.379C66.1923 62.379 66.6273 62.208 67.0233 61.866C67.0413 61.89 67.1043 61.974 67.2123 62.118C67.3263 62.256 67.4103 62.364 67.4643 62.442C66.9843 62.904 66.3933 63.135 65.6913 63.135C65.0313 63.135 64.4733 62.898 64.0173 62.424C63.5673 61.95 63.3423 61.392 63.3423 60.75C63.3423 60.114 63.5673 59.559 64.0173 59.085C64.4733 58.605 65.0313 58.365 65.6913 58.365C66.3873 58.365 66.9783 58.599 67.4643 59.067C67.4103 59.145 67.3263 59.256 67.2123 59.4C67.1043 59.538 67.0413 59.619 67.0233 59.643C66.6273 59.301 66.1923 59.13 65.7183 59.13C65.2683 59.13 64.8903 59.286 64.5843 59.598C64.2783 59.91 64.1253 60.294 64.1253 60.75ZM72.4773 60.624C72.4773 60.672 72.4713 60.744 72.4593 60.84H68.6613C68.6973 61.296 68.8593 61.68 69.1473 61.992C69.4353 62.298 69.8403 62.451 70.3623 62.451C70.6143 62.451 70.8723 62.406 71.1363 62.316C71.4003 62.22 71.6253 62.094 71.8113 61.938L72.1893 62.451C71.9613 62.667 71.6763 62.835 71.3343 62.955C70.9983 63.075 70.6503 63.135 70.2903 63.135C69.6063 63.135 69.0273 62.919 68.5533 62.487C68.0793 62.055 67.8423 61.506 67.8423 60.84C67.8423 60.156 68.0673 59.574 68.5173 59.094C68.9733 58.608 69.5253 58.365 70.1733 58.365C70.8933 58.365 71.4573 58.584 71.8653 59.022C72.2733 59.454 72.4773 59.988 72.4773 60.624ZM71.6853 60.255C71.6253 59.907 71.4633 59.622 71.1993 59.4C70.9413 59.172 70.5993 59.058 70.1733 59.058C69.8133 59.058 69.4983 59.169 69.2283 59.391C68.9583 59.607 68.7783 59.895 68.6883 60.255H71.6853ZM73.422 62.532C73.422 62.37 73.476 62.235 73.584 62.127C73.692 62.013 73.827 61.956 73.989 61.956C74.145 61.956 74.277 62.013 74.385 62.127C74.499 62.241 74.556 62.376 74.556 62.532C74.556 62.688 74.499 62.82 74.385 62.928C74.277 63.036 74.145 63.09 73.989 63.09C73.827 63.09 73.692 63.036 73.584 62.928C73.476 62.82 73.422 62.688 73.422 62.532ZM81.1496 57.429C80.4176 57.429 79.8266 57.66 79.3766 58.122C78.9266 58.584 78.7016 59.16 78.7016 59.85C78.7016 60.546 78.9266 61.125 79.3766 61.587C79.8266 62.049 80.4176 62.28 81.1496 62.28C81.8816 62.28 82.4696 62.049 82.9136 61.587C83.3636 61.125 83.5886 60.546 83.5886 59.85C83.5886 59.16 83.3636 58.584 82.9136 58.122C82.4636 57.66 81.8756 57.429 81.1496 57.429ZM83.5796 62.208C82.9796 62.826 82.1696 63.135 81.1496 63.135C80.1296 63.135 79.3166 62.826 78.7106 62.208C78.1106 61.584 77.8106 60.798 77.8106 59.85C77.8106 58.908 78.1106 58.125 78.7106 57.501C79.3166 56.877 80.1296 56.565 81.1496 56.565C82.1696 56.565 82.9796 56.877 83.5796 57.501C84.1856 58.125 84.4886 58.908 84.4886 59.85C84.4886 60.798 84.1856 61.584 83.5796 62.208ZM89.0082 58.5V59.238H87.4062V63H86.6052V59.238H85.0032V58.5H89.0082ZM93.0816 58.5V59.238H90.5706V63H89.7696V58.5H93.0816ZM94.816 63.135C94.348 63.135 93.976 63.021 93.7 62.793C93.43 62.565 93.295 62.253 93.295 61.857C93.295 61.659 93.328 61.485 93.394 61.335C93.46 61.179 93.544 61.05 93.646 60.948C93.748 60.846 93.886 60.759 94.06 60.687C94.24 60.615 94.408 60.558 94.564 60.516C94.726 60.474 94.93 60.444 95.176 60.426C95.428 60.402 95.641 60.387 95.815 60.381C95.995 60.375 96.223 60.369 96.499 60.363V59.994C96.499 59.346 96.139 59.022 95.419 59.022C94.885 59.022 94.405 59.211 93.979 59.589L93.538 59.094C94.072 58.608 94.723 58.365 95.491 58.365C95.857 58.365 96.166 58.413 96.418 58.509C96.676 58.605 96.865 58.737 96.985 58.905C97.105 59.067 97.189 59.229 97.237 59.391C97.285 59.553 97.309 59.727 97.309 59.913V63H96.499V62.208C96.007 62.826 95.446 63.135 94.816 63.135ZM95.014 62.514C95.578 62.514 96.073 62.193 96.499 61.551V60.885C95.923 60.885 95.443 60.918 95.059 60.984C94.939 61.002 94.819 61.035 94.699 61.083C94.579 61.131 94.456 61.221 94.33 61.353C94.21 61.479 94.15 61.629 94.15 61.803C94.15 62.049 94.237 62.229 94.411 62.343C94.591 62.457 94.792 62.514 95.014 62.514ZM98.7046 63V64.269H97.9666V62.298H98.5066C98.6866 62.04 98.8366 61.671 98.9566 61.191C99.0766 60.711 99.1366 60.192 99.1366 59.634V58.5H102.521V62.298H103.214V64.269H102.431V63H98.7046ZM101.711 62.298V59.211H99.9106V59.715C99.9106 60.219 99.8566 60.714 99.7486 61.2C99.6406 61.686 99.5146 62.052 99.3706 62.298H101.711ZM104.897 60.111H106.274C106.742 60.111 107.117 60.255 107.399 60.543C107.681 60.825 107.822 61.164 107.822 61.56C107.822 61.95 107.681 62.289 107.399 62.577C107.123 62.859 106.748 63 106.274 63H104.096V58.5H104.897V60.111ZM104.897 62.343H106.202C106.43 62.343 106.619 62.274 106.769 62.136C106.925 61.992 107.003 61.8 107.003 61.56C107.003 61.32 106.925 61.128 106.769 60.984C106.619 60.84 106.43 60.768 106.202 60.768H104.897V62.343ZM108.407 63V58.5H109.217V63H108.407ZM114.095 59.598C114.095 59.802 114.038 59.997 113.924 60.183C113.81 60.369 113.657 60.519 113.465 60.633C113.717 60.729 113.915 60.879 114.059 61.083C114.209 61.287 114.284 61.515 114.284 61.767C114.284 62.109 114.161 62.4 113.915 62.64C113.675 62.88 113.36 63 112.97 63H110.477V58.5H112.862C113.222 58.5 113.516 58.608 113.744 58.824C113.978 59.034 114.095 59.292 114.095 59.598ZM111.278 62.406H112.691C112.913 62.406 113.096 62.343 113.24 62.217C113.384 62.085 113.456 61.914 113.456 61.704C113.456 61.488 113.384 61.314 113.24 61.182C113.096 61.044 112.913 60.975 112.691 60.975H111.278V62.406ZM113.33 59.715C113.33 59.529 113.258 59.382 113.114 59.274C112.976 59.16 112.808 59.103 112.61 59.103H111.278V60.399H112.61C112.808 60.399 112.976 60.333 113.114 60.201C113.258 60.069 113.33 59.907 113.33 59.715ZM116.464 63.135C115.996 63.135 115.624 63.021 115.348 62.793C115.078 62.565 114.943 62.253 114.943 61.857C114.943 61.659 114.976 61.485 115.042 61.335C115.108 61.179 115.192 61.05 115.294 60.948C115.396 60.846 115.534 60.759 115.708 60.687C115.888 60.615 116.056 60.558 116.212 60.516C116.374 60.474 116.578 60.444 116.824 60.426C117.076 60.402 117.289 60.387 117.463 60.381C117.643 60.375 117.871 60.369 118.147 60.363V59.994C118.147 59.346 117.787 59.022 117.067 59.022C116.533 59.022 116.053 59.211 115.627 59.589L115.186 59.094C115.72 58.608 116.371 58.365 117.139 58.365C117.505 58.365 117.814 58.413 118.066 58.509C118.324 58.605 118.513 58.737 118.633 58.905C118.753 59.067 118.837 59.229 118.885 59.391C118.933 59.553 118.957 59.727 118.957 59.913V63H118.147V62.208C117.655 62.826 117.094 63.135 116.464 63.135ZM116.662 62.514C117.226 62.514 117.721 62.193 118.147 61.551V60.885C117.571 60.885 117.091 60.918 116.707 60.984C116.587 61.002 116.467 61.035 116.347 61.083C116.227 61.131 116.104 61.221 115.978 61.353C115.858 61.479 115.798 61.629 115.798 61.803C115.798 62.049 115.885 62.229 116.059 62.343C116.239 62.457 116.44 62.514 116.662 62.514ZM121 56.907C121.378 57.087 121.783 57.177 122.215 57.177C122.647 57.177 123.046 57.087 123.412 56.907L123.7 57.447C123.262 57.663 122.767 57.771 122.215 57.771C121.657 57.771 121.159 57.663 120.721 57.447C120.787 57.327 120.88 57.147 121 56.907ZM120.937 58.5V61.893C121.081 61.701 121.924 60.57 123.466 58.5H124.294V63H123.484V59.625L120.964 63H120.127V58.5H120.937ZM14.521 73.399H15.223C15.445 73.399 15.637 73.327 15.799 73.183C15.961 73.039 16.042 72.871 16.042 72.679C16.042 72.253 15.748 72.04 15.16 72.04C14.632 72.04 14.2 72.217 13.864 72.571C13.834 72.535 13.771 72.46 13.675 72.346C13.579 72.226 13.507 72.133 13.459 72.067C13.891 71.599 14.476 71.365 15.214 71.365C15.748 71.365 16.147 71.479 16.411 71.707C16.681 71.935 16.816 72.214 16.816 72.544C16.816 72.778 16.744 72.997 16.6 73.201C16.456 73.399 16.261 73.552 16.015 73.66C16.297 73.75 16.516 73.9 16.672 74.11C16.834 74.314 16.915 74.542 16.915 74.794C16.915 75.166 16.765 75.484 16.465 75.748C16.171 76.006 15.712 76.135 15.088 76.135C14.356 76.135 13.75 75.904 13.27 75.442L13.675 74.947C14.083 75.307 14.542 75.487 15.052 75.487C15.388 75.487 15.643 75.415 15.817 75.271C15.997 75.127 16.087 74.944 16.087 74.722C16.087 74.506 16.006 74.329 15.844 74.191C15.688 74.047 15.484 73.975 15.232 73.975H14.521V73.399ZM19.0895 76.135C18.6215 76.135 18.2495 76.021 17.9735 75.793C17.7035 75.565 17.5685 75.253 17.5685 74.857C17.5685 74.659 17.6015 74.485 17.6675 74.335C17.7335 74.179 17.8175 74.05 17.9195 73.948C18.0215 73.846 18.1595 73.759 18.3335 73.687C18.5135 73.615 18.6815 73.558 18.8375 73.516C18.9995 73.474 19.2035 73.444 19.4495 73.426C19.7015 73.402 19.9145 73.387 20.0885 73.381C20.2685 73.375 20.4965 73.369 20.7725 73.363V72.994C20.7725 72.346 20.4125 72.022 19.6925 72.022C19.1585 72.022 18.6785 72.211 18.2525 72.589L17.8115 72.094C18.3455 71.608 18.9965 71.365 19.7645 71.365C20.1305 71.365 20.4395 71.413 20.6915 71.509C20.9495 71.605 21.1385 71.737 21.2585 71.905C21.3785 72.067 21.4625 72.229 21.5105 72.391C21.5585 72.553 21.5825 72.727 21.5825 72.913V76H20.7725V75.208C20.2805 75.826 19.7195 76.135 19.0895 76.135ZM19.2875 75.514C19.8515 75.514 20.3465 75.193 20.7725 74.551V73.885C20.1965 73.885 19.7165 73.918 19.3325 73.984C19.2125 74.002 19.0925 74.035 18.9725 74.083C18.8525 74.131 18.7295 74.221 18.6035 74.353C18.4835 74.479 18.4235 74.629 18.4235 74.803C18.4235 75.049 18.5105 75.229 18.6845 75.343C18.8645 75.457 19.0655 75.514 19.2875 75.514ZM26.065 71.5V72.238H23.554V76H22.753V71.5H26.065ZM27.7994 76.135C27.3314 76.135 26.9594 76.021 26.6834 75.793C26.4134 75.565 26.2784 75.253 26.2784 74.857C26.2784 74.659 26.3114 74.485 26.3774 74.335C26.4434 74.179 26.5274 74.05 26.6294 73.948C26.7314 73.846 26.8694 73.759 27.0434 73.687C27.2234 73.615 27.3914 73.558 27.5474 73.516C27.7094 73.474 27.9134 73.444 28.1594 73.426C28.4114 73.402 28.6244 73.387 28.7984 73.381C28.9784 73.375 29.2064 73.369 29.4824 73.363V72.994C29.4824 72.346 29.1224 72.022 28.4024 72.022C27.8684 72.022 27.3884 72.211 26.9624 72.589L26.5214 72.094C27.0554 71.608 27.7064 71.365 28.4744 71.365C28.8404 71.365 29.1494 71.413 29.4014 71.509C29.6594 71.605 29.8484 71.737 29.9684 71.905C30.0884 72.067 30.1724 72.229 30.2204 72.391C30.2684 72.553 30.2924 72.727 30.2924 72.913V76H29.4824V75.208C28.9904 75.826 28.4294 76.135 27.7994 76.135ZM27.9974 75.514C28.5614 75.514 29.0564 75.193 29.4824 74.551V73.885C28.9064 73.885 28.4264 73.918 28.0424 73.984C27.9224 74.002 27.8024 74.035 27.6824 74.083C27.5624 74.131 27.4394 74.221 27.3134 74.353C27.1934 74.479 27.1334 74.629 27.1334 74.803C27.1334 75.049 27.2204 75.229 27.3944 75.343C27.5744 75.457 27.7754 75.514 27.9974 75.514ZM31.688 76V77.269H30.95V75.298H31.49C31.67 75.04 31.82 74.671 31.94 74.191C32.06 73.711 32.12 73.192 32.12 72.634V71.5H35.504V75.298H36.197V77.269H35.414V76H31.688ZM34.694 75.298V72.211H32.894V72.715C32.894 73.219 32.84 73.714 32.732 74.2C32.624 74.686 32.498 75.052 32.354 75.298H34.694ZM40.1212 76L37.9972 73.651L40.0312 71.5H41.0212L38.8972 73.651L41.1112 76H40.1212ZM37.0792 71.5H37.8802V76H37.0792V71.5ZM42.6351 71.5V74.893C44.1771 72.823 45.0201 71.692 45.1641 71.5H45.9921V76H45.1821V72.625L42.6621 76H41.8341V71.5H42.6351ZM46.9962 77.332L47.3382 74.983H48.3912L47.5812 77.332H46.9962ZM56.1081 71.5C55.8081 72.202 55.3551 73.258 54.7491 74.668C54.1431 76.072 53.6901 77.128 53.3901 77.836H52.5441L53.3181 75.991L51.4101 71.5H52.3101C52.9461 73.048 53.4261 74.209 53.7501 74.983L55.2261 71.5H56.1081ZM57.6226 73.399H58.3246C58.5466 73.399 58.7386 73.327 58.9006 73.183C59.0626 73.039 59.1436 72.871 59.1436 72.679C59.1436 72.253 58.8496 72.04 58.2616 72.04C57.7336 72.04 57.3016 72.217 56.9656 72.571C56.9356 72.535 56.8726 72.46 56.7766 72.346C56.6806 72.226 56.6086 72.133 56.5606 72.067C56.9926 71.599 57.5776 71.365 58.3156 71.365C58.8496 71.365 59.2486 71.479 59.5126 71.707C59.7826 71.935 59.9176 72.214 59.9176 72.544C59.9176 72.778 59.8456 72.997 59.7016 73.201C59.5576 73.399 59.3626 73.552 59.1166 73.66C59.3986 73.75 59.6176 73.9 59.7736 74.11C59.9356 74.314 60.0166 74.542 60.0166 74.794C60.0166 75.166 59.8666 75.484 59.5666 75.748C59.2726 76.006 58.8136 76.135 58.1896 76.135C57.4576 76.135 56.8516 75.904 56.3716 75.442L56.7766 74.947C57.1846 75.307 57.6436 75.487 58.1536 75.487C58.4896 75.487 58.7446 75.415 58.9186 75.271C59.0986 75.127 59.1886 74.944 59.1886 74.722C59.1886 74.506 59.1076 74.329 58.9456 74.191C58.7896 74.047 58.5856 73.975 58.3336 73.975H57.6226V73.399ZM64.333 74.038H61.804V76H61.003V71.5H61.804V73.309H64.333V71.5H65.143V76H64.333V74.038ZM67.5875 76.135C67.1195 76.135 66.7475 76.021 66.4715 75.793C66.2015 75.565 66.0665 75.253 66.0665 74.857C66.0665 74.659 66.0995 74.485 66.1655 74.335C66.2315 74.179 66.3155 74.05 66.4175 73.948C66.5195 73.846 66.6575 73.759 66.8315 73.687C67.0115 73.615 67.1795 73.558 67.3355 73.516C67.4975 73.474 67.7015 73.444 67.9475 73.426C68.1995 73.402 68.4125 73.387 68.5865 73.381C68.7665 73.375 68.9945 73.369 69.2705 73.363V72.994C69.2705 72.346 68.9105 72.022 68.1905 72.022C67.6565 72.022 67.1765 72.211 66.7505 72.589L66.3095 72.094C66.8435 71.608 67.4945 71.365 68.2625 71.365C68.6285 71.365 68.9375 71.413 69.1895 71.509C69.4475 71.605 69.6365 71.737 69.7565 71.905C69.8765 72.067 69.9605 72.229 70.0085 72.391C70.0565 72.553 70.0805 72.727 70.0805 72.913V76H69.2705V75.208C68.7785 75.826 68.2175 76.135 67.5875 76.135ZM67.7855 75.514C68.3495 75.514 68.8445 75.193 69.2705 74.551V73.885C68.6945 73.885 68.2145 73.918 67.8305 73.984C67.7105 74.002 67.5905 74.035 67.4705 74.083C67.3505 74.131 67.2275 74.221 67.1015 74.353C66.9815 74.479 66.9215 74.629 66.9215 74.803C66.9215 75.049 67.0085 75.229 67.1825 75.343C67.3625 75.457 67.5635 75.514 67.7855 75.514ZM74.8691 72.598C74.8691 72.802 74.8121 72.997 74.6981 73.183C74.5841 73.369 74.4311 73.519 74.2391 73.633C74.4911 73.729 74.6891 73.879 74.8331 74.083C74.9831 74.287 75.0581 74.515 75.0581 74.767C75.0581 75.109 74.9351 75.4 74.6891 75.64C74.4491 75.88 74.1341 76 73.7441 76H71.2511V71.5H73.6361C73.9961 71.5 74.2901 71.608 74.5181 71.824C74.7521 72.034 74.8691 72.292 74.8691 72.598ZM72.0521 75.406H73.4651C73.6871 75.406 73.8701 75.343 74.0141 75.217C74.1581 75.085 74.2301 74.914 74.2301 74.704C74.2301 74.488 74.1581 74.314 74.0141 74.182C73.8701 74.044 73.6871 73.975 73.4651 73.975H72.0521V75.406ZM74.1041 72.715C74.1041 72.529 74.0321 72.382 73.8881 72.274C73.7501 72.16 73.5821 72.103 73.3841 72.103H72.0521V73.399H73.3841C73.5821 73.399 73.7501 73.333 73.8881 73.201C74.0321 73.069 74.1041 72.907 74.1041 72.715ZM77.2379 76.135C76.7699 76.135 76.3979 76.021 76.1219 75.793C75.8519 75.565 75.7169 75.253 75.7169 74.857C75.7169 74.659 75.7499 74.485 75.8159 74.335C75.8819 74.179 75.9659 74.05 76.0679 73.948C76.1699 73.846 76.3079 73.759 76.4819 73.687C76.6619 73.615 76.8299 73.558 76.9859 73.516C77.1479 73.474 77.3519 73.444 77.5979 73.426C77.8499 73.402 78.0629 73.387 78.2369 73.381C78.4169 73.375 78.6449 73.369 78.9209 73.363V72.994C78.9209 72.346 78.5609 72.022 77.8409 72.022C77.3069 72.022 76.8269 72.211 76.4009 72.589L75.9599 72.094C76.4939 71.608 77.1449 71.365 77.9129 71.365C78.2789 71.365 78.5879 71.413 78.8399 71.509C79.0979 71.605 79.2869 71.737 79.4069 71.905C79.5269 72.067 79.6109 72.229 79.6589 72.391C79.7069 72.553 79.7309 72.727 79.7309 72.913V76H78.9209V75.208C78.4289 75.826 77.8679 76.135 77.2379 76.135ZM77.4359 75.514C77.9999 75.514 78.4949 75.193 78.9209 74.551V73.885C78.3449 73.885 77.8649 73.918 77.4809 73.984C77.3609 74.002 77.2409 74.035 77.1209 74.083C77.0009 74.131 76.8779 74.221 76.7519 74.353C76.6319 74.479 76.5719 74.629 76.5719 74.803C76.5719 75.049 76.6589 75.229 76.8329 75.343C77.0129 75.457 77.2139 75.514 77.4359 75.514ZM81.7745 69.907C82.1525 70.087 82.5575 70.177 82.9895 70.177C83.4215 70.177 83.8205 70.087 84.1865 69.907L84.4745 70.447C84.0365 70.663 83.5415 70.771 82.9895 70.771C82.4315 70.771 81.9335 70.663 81.4955 70.447C81.5615 70.327 81.6545 70.147 81.7745 69.907ZM81.7115 71.5V74.893C81.8555 74.701 82.6985 73.57 84.2405 71.5H85.0685V76H84.2585V72.625L81.7385 76H80.9015V71.5H81.7115ZM89.3753 71.5V74.893C90.9173 72.823 91.7603 71.692 91.9043 71.5H92.7323V76H91.9223V72.625L89.4023 76H88.5743V71.5H89.3753ZM97.3184 74.038H94.7894V76H93.9884V71.5H94.7894V73.309H97.3184V71.5H98.1284V76H97.3184V74.038ZM102.895 71.5V72.238H101.293V76H100.492V72.238H98.8899V71.5H102.895ZM107.704 73.624C107.704 73.672 107.698 73.744 107.686 73.84H103.888C103.924 74.296 104.086 74.68 104.374 74.992C104.662 75.298 105.067 75.451 105.589 75.451C105.841 75.451 106.099 75.406 106.363 75.316C106.627 75.22 106.852 75.094 107.038 74.938L107.416 75.451C107.188 75.667 106.903 75.835 106.561 75.955C106.225 76.075 105.877 76.135 105.517 76.135C104.833 76.135 104.254 75.919 103.78 75.487C103.306 75.055 103.069 74.506 103.069 73.84C103.069 73.156 103.294 72.574 103.744 72.094C104.2 71.608 104.752 71.365 105.4 71.365C106.12 71.365 106.684 71.584 107.092 72.022C107.5 72.454 107.704 72.988 107.704 73.624ZM106.912 73.255C106.852 72.907 106.69 72.622 106.426 72.4C106.168 72.172 105.826 72.058 105.4 72.058C105.04 72.058 104.725 72.169 104.455 72.391C104.185 72.607 104.005 72.895 103.915 73.255H106.912ZM111.007 76.135C110.371 76.135 109.852 75.895 109.45 75.415V77.836H108.649V71.5H109.45V72.094C109.858 71.62 110.386 71.383 111.034 71.383C111.676 71.383 112.207 71.614 112.627 72.076C113.053 72.538 113.266 73.096 113.266 73.75C113.266 74.416 113.05 74.98 112.618 75.442C112.192 75.904 111.655 76.135 111.007 76.135ZM110.773 72.103C110.227 72.103 109.786 72.325 109.45 72.769V74.74C109.78 75.184 110.221 75.406 110.773 75.406C111.229 75.406 111.616 75.244 111.934 74.92C112.252 74.596 112.411 74.206 112.411 73.75C112.411 73.3 112.249 72.913 111.925 72.589C111.607 72.265 111.223 72.103 110.773 72.103ZM118.532 73.624C118.532 73.672 118.526 73.744 118.514 73.84H114.716C114.752 74.296 114.914 74.68 115.202 74.992C115.49 75.298 115.895 75.451 116.417 75.451C116.669 75.451 116.927 75.406 117.191 75.316C117.455 75.22 117.68 75.094 117.866 74.938L118.244 75.451C118.016 75.667 117.731 75.835 117.389 75.955C117.053 76.075 116.705 76.135 116.345 76.135C115.661 76.135 115.082 75.919 114.608 75.487C114.134 75.055 113.897 74.506 113.897 73.84C113.897 73.156 114.122 72.574 114.572 72.094C115.028 71.608 115.58 71.365 116.228 71.365C116.948 71.365 117.512 71.584 117.92 72.022C118.328 72.454 118.532 72.988 118.532 73.624ZM117.74 73.255C117.68 72.907 117.518 72.622 117.254 72.4C116.996 72.172 116.654 72.058 116.228 72.058C115.868 72.058 115.553 72.169 115.283 72.391C115.013 72.607 114.833 72.895 114.743 73.255H117.74ZM119.945 73.75C119.945 74.218 120.095 74.608 120.395 74.92C120.695 75.226 121.076 75.379 121.538 75.379C122.012 75.379 122.447 75.208 122.843 74.866C122.861 74.89 122.924 74.974 123.032 75.118C123.146 75.256 123.23 75.364 123.284 75.442C122.804 75.904 122.213 76.135 121.511 76.135C120.851 76.135 120.293 75.898 119.837 75.424C119.387 74.95 119.162 74.392 119.162 73.75C119.162 73.114 119.387 72.559 119.837 72.085C120.293 71.605 120.851 71.365 121.511 71.365C122.207 71.365 122.798 71.599 123.284 72.067C123.23 72.145 123.146 72.256 123.032 72.4C122.924 72.538 122.861 72.619 122.843 72.643C122.447 72.301 122.012 72.13 121.538 72.13C121.088 72.13 120.71 72.286 120.404 72.598C120.098 72.91 119.945 73.294 119.945 73.75ZM127.482 74.038H124.953V76H124.152V71.5H124.953V73.309H127.482V71.5H128.292V76H127.482V74.038ZM130.35 73.111H131.727C132.195 73.111 132.57 73.255 132.852 73.543C133.134 73.825 133.275 74.164 133.275 74.56C133.275 74.95 133.134 75.289 132.852 75.577C132.576 75.859 132.201 76 131.727 76H129.549V71.5H130.35V73.111ZM130.35 75.343H131.655C131.883 75.343 132.072 75.274 132.222 75.136C132.378 74.992 132.456 74.8 132.456 74.56C132.456 74.32 132.378 74.128 132.222 73.984C132.072 73.84 131.883 73.768 131.655 73.768H130.35V75.343ZM133.86 76V71.5H134.67V76H133.86ZM140.25 73.624C140.25 73.672 140.244 73.744 140.232 73.84H136.434C136.47 74.296 136.632 74.68 136.92 74.992C137.208 75.298 137.613 75.451 138.135 75.451C138.387 75.451 138.645 75.406 138.909 75.316C139.173 75.22 139.398 75.094 139.584 74.938L139.962 75.451C139.734 75.667 139.449 75.835 139.107 75.955C138.771 76.075 138.423 76.135 138.063 76.135C137.379 76.135 136.8 75.919 136.326 75.487C135.852 75.055 135.615 74.506 135.615 73.84C135.615 73.156 135.84 72.574 136.29 72.094C136.746 71.608 137.298 71.365 137.946 71.365C138.666 71.365 139.23 71.584 139.638 72.022C140.046 72.454 140.25 72.988 140.25 73.624ZM139.458 73.255C139.398 72.907 139.236 72.622 138.972 72.4C138.714 72.172 138.372 72.058 137.946 72.058C137.586 72.058 137.271 72.169 137.001 72.391C136.731 72.607 136.551 72.895 136.461 73.255H139.458ZM16.996 89.135H16.735V90.836H15.925V89.135H15.655C15.001 89.135 14.446 88.901 13.99 88.433C13.54 87.965 13.315 87.404 13.315 86.75C13.315 86.096 13.543 85.535 13.999 85.067C14.455 84.599 15.007 84.365 15.655 84.365H15.925V82.61H16.735V84.365H16.996C17.644 84.365 18.196 84.599 18.652 85.067C19.108 85.535 19.336 86.096 19.336 86.75C19.336 87.41 19.108 87.974 18.652 88.442C18.202 88.904 17.65 89.135 16.996 89.135ZM16.87 88.406C17.32 88.406 17.704 88.244 18.022 87.92C18.346 87.596 18.508 87.206 18.508 86.75C18.508 86.3 18.346 85.913 18.022 85.589C17.704 85.265 17.32 85.103 16.87 85.103H16.735V88.406H16.87ZM15.925 85.103H15.781C15.331 85.103 14.947 85.265 14.629 85.589C14.311 85.913 14.152 86.3 14.152 86.75C14.152 87.206 14.311 87.596 14.629 87.92C14.947 88.244 15.331 88.406 15.781 88.406H15.925V85.103ZM21.4713 89.135C21.0033 89.135 20.6313 89.021 20.3553 88.793C20.0853 88.565 19.9503 88.253 19.9503 87.857C19.9503 87.659 19.9833 87.485 20.0493 87.335C20.1153 87.179 20.1993 87.05 20.3013 86.948C20.4033 86.846 20.5413 86.759 20.7153 86.687C20.8953 86.615 21.0633 86.558 21.2193 86.516C21.3813 86.474 21.5853 86.444 21.8313 86.426C22.0833 86.402 22.2963 86.387 22.4703 86.381C22.6503 86.375 22.8783 86.369 23.1543 86.363V85.994C23.1543 85.346 22.7943 85.022 22.0743 85.022C21.5403 85.022 21.0603 85.211 20.6343 85.589L20.1933 85.094C20.7273 84.608 21.3783 84.365 22.1463 84.365C22.5123 84.365 22.8213 84.413 23.0733 84.509C23.3313 84.605 23.5203 84.737 23.6403 84.905C23.7603 85.067 23.8443 85.229 23.8923 85.391C23.9403 85.553 23.9643 85.727 23.9643 85.913V89H23.1543V88.208C22.6623 88.826 22.1013 89.135 21.4713 89.135ZM21.6693 88.514C22.2333 88.514 22.7283 88.193 23.1543 87.551V86.885C22.5783 86.885 22.0983 86.918 21.7143 86.984C21.5943 87.002 21.4743 87.035 21.3543 87.083C21.2343 87.131 21.1113 87.221 20.9853 87.353C20.8653 87.479 20.8053 87.629 20.8053 87.803C20.8053 88.049 20.8923 88.229 21.0663 88.343C21.2463 88.457 21.4473 88.514 21.6693 88.514ZM28.1769 89L26.0529 86.651L28.0869 84.5H29.0769L26.9529 86.651L29.1669 89H28.1769ZM25.1349 84.5H25.9359V89H25.1349V84.5ZM33.3998 84.5V85.238H31.7978V89H30.9968V85.238H29.3948V84.5H33.3998ZM34.9623 86.111H36.3393C36.8073 86.111 37.1823 86.255 37.4643 86.543C37.7463 86.825 37.8873 87.164 37.8873 87.56C37.8873 87.95 37.7463 88.289 37.4643 88.577C37.1883 88.859 36.8133 89 36.3393 89H34.1613V84.5H34.9623V86.111ZM34.9623 88.343H36.2673C36.4953 88.343 36.6843 88.274 36.8343 88.136C36.9903 87.992 37.0683 87.8 37.0683 87.56C37.0683 87.32 36.9903 87.128 36.8343 86.984C36.6843 86.84 36.4953 86.768 36.2673 86.768H34.9623V88.343ZM38.4723 89V84.5H39.2823V89H38.4723ZM43.5931 84.5V87.893C45.1351 85.823 45.9781 84.692 46.1221 84.5H46.9501V89H46.1401V85.625L43.6201 89H42.7921V84.5H43.5931ZM49.0972 86.399H49.7992C50.0212 86.399 50.2132 86.327 50.3752 86.183C50.5372 86.039 50.6182 85.871 50.6182 85.679C50.6182 85.253 50.3242 85.04 49.7362 85.04C49.2082 85.04 48.7762 85.217 48.4402 85.571C48.4102 85.535 48.3472 85.46 48.2512 85.346C48.1552 85.226 48.0832 85.133 48.0352 85.067C48.4672 84.599 49.0522 84.365 49.7902 84.365C50.3242 84.365 50.7232 84.479 50.9872 84.707C51.2572 84.935 51.3922 85.214 51.3922 85.544C51.3922 85.778 51.3202 85.997 51.1762 86.201C51.0322 86.399 50.8372 86.552 50.5912 86.66C50.8732 86.75 51.0922 86.9 51.2482 87.11C51.4102 87.314 51.4912 87.542 51.4912 87.794C51.4912 88.166 51.3412 88.484 51.0412 88.748C50.7472 89.006 50.2882 89.135 49.6642 89.135C48.9322 89.135 48.3262 88.904 47.8462 88.442L48.2512 87.947C48.6592 88.307 49.1182 88.487 49.6282 88.487C49.9642 88.487 50.2192 88.415 50.3932 88.271C50.5732 88.127 50.6632 87.944 50.6632 87.722C50.6632 87.506 50.5822 87.329 50.4202 87.191C50.2642 87.047 50.0602 86.975 49.8082 86.975H49.0972V86.399ZM57.1577 86.813C57.3617 86.513 57.6557 86.084 58.0397 85.526C58.4237 84.968 58.6577 84.626 58.7417 84.5H59.5967V89H58.7957V85.643C58.6517 85.847 58.4987 86.066 58.3367 86.3C58.1747 86.534 57.9947 86.795 57.7967 87.083C57.5987 87.371 57.4457 87.593 57.3377 87.749H56.9777L55.5287 85.643V89H54.7277V84.5H55.5827L57.1577 86.813ZM61.6546 84.5V87.893C63.1966 85.823 64.0396 84.692 64.1836 84.5H65.0116V89H64.2016V85.625L61.6816 89H60.8536V84.5H61.6546ZM68.6257 89.135C67.9897 89.135 67.4707 88.895 67.0687 88.415V90.836H66.2677V84.5H67.0687V85.094C67.4767 84.62 68.0047 84.383 68.6527 84.383C69.2947 84.383 69.8257 84.614 70.2457 85.076C70.6717 85.538 70.8847 86.096 70.8847 86.75C70.8847 87.416 70.6687 87.98 70.2367 88.442C69.8107 88.904 69.2737 89.135 68.6257 89.135ZM68.3917 85.103C67.8457 85.103 67.4047 85.325 67.0687 85.769V87.74C67.3987 88.184 67.8397 88.406 68.3917 88.406C68.8477 88.406 69.2347 88.244 69.5527 87.92C69.8707 87.596 70.0297 87.206 70.0297 86.75C70.0297 86.3 69.8677 85.913 69.5437 85.589C69.2257 85.265 68.8417 85.103 68.3917 85.103ZM73.0192 89.135C72.5512 89.135 72.1792 89.021 71.9032 88.793C71.6332 88.565 71.4982 88.253 71.4982 87.857C71.4982 87.659 71.5312 87.485 71.5972 87.335C71.6632 87.179 71.7472 87.05 71.8492 86.948C71.9512 86.846 72.0892 86.759 72.2632 86.687C72.4432 86.615 72.6112 86.558 72.7672 86.516C72.9292 86.474 73.1332 86.444 73.3792 86.426C73.6312 86.402 73.8442 86.387 74.0182 86.381C74.1982 86.375 74.4262 86.369 74.7022 86.363V85.994C74.7022 85.346 74.3422 85.022 73.6222 85.022C73.0882 85.022 72.6082 85.211 72.1822 85.589L71.7412 85.094C72.2752 84.608 72.9262 84.365 73.6942 84.365C74.0602 84.365 74.3692 84.413 74.6212 84.509C74.8792 84.605 75.0682 84.737 75.1882 84.905C75.3082 85.067 75.3922 85.229 75.4402 85.391C75.4882 85.553 75.5122 85.727 75.5122 85.913V89H74.7022V88.208C74.2102 88.826 73.6492 89.135 73.0192 89.135ZM73.2172 88.514C73.7812 88.514 74.2762 88.193 74.7022 87.551V86.885C74.1262 86.885 73.6462 86.918 73.2622 86.984C73.1422 87.002 73.0222 87.035 72.9022 87.083C72.7822 87.131 72.6592 87.221 72.5332 87.353C72.4132 87.479 72.3532 87.629 72.3532 87.803C72.3532 88.049 72.4402 88.229 72.6142 88.343C72.7942 88.457 72.9952 88.514 73.2172 88.514ZM82.5507 85.598C82.5507 85.802 82.4937 85.997 82.3797 86.183C82.2657 86.369 82.1127 86.519 81.9207 86.633C82.1727 86.729 82.3707 86.879 82.5147 87.083C82.6647 87.287 82.7397 87.515 82.7397 87.767C82.7397 88.109 82.6167 88.4 82.3707 88.64C82.1307 88.88 81.8157 89 81.4257 89H78.9327V84.5H81.3177C81.6777 84.5 81.9717 84.608 82.1997 84.824C82.4337 85.034 82.5507 85.292 82.5507 85.598ZM79.7337 88.406H81.1467C81.3687 88.406 81.5517 88.343 81.6957 88.217C81.8397 88.085 81.9117 87.914 81.9117 87.704C81.9117 87.488 81.8397 87.314 81.6957 87.182C81.5517 87.044 81.3687 86.975 81.1467 86.975H79.7337V88.406ZM81.7857 85.715C81.7857 85.529 81.7137 85.382 81.5697 85.274C81.4317 85.16 81.2637 85.103 81.0657 85.103H79.7337V86.399H81.0657C81.2637 86.399 81.4317 86.333 81.5697 86.201C81.7137 86.069 81.7857 85.907 81.7857 85.715ZM84.5326 84.5V87.893C86.0746 85.823 86.9176 84.692 87.0616 84.5H87.8896V89H87.0796V85.625L84.5596 89H83.7316V84.5H84.5326ZM89.3706 89V90.269H88.6326V88.298H89.1726C89.3526 88.04 89.5026 87.671 89.6226 87.191C89.7426 86.711 89.8026 86.192 89.8026 85.634V84.5H93.1866V88.298H93.8796V90.269H93.0966V89H89.3706ZM92.3766 88.298V85.211H90.5766V85.715C90.5766 86.219 90.5226 86.714 90.4146 87.2C90.3066 87.686 90.1806 88.052 90.0366 88.298H92.3766ZM98.9939 86.624C98.9939 86.672 98.9879 86.744 98.9759 86.84H95.1779C95.2139 87.296 95.3759 87.68 95.6639 87.992C95.9519 88.298 96.3569 88.451 96.8789 88.451C97.1309 88.451 97.3889 88.406 97.6529 88.316C97.9169 88.22 98.1419 88.094 98.3279 87.938L98.7059 88.451C98.4779 88.667 98.1929 88.835 97.8509 88.955C97.5149 89.075 97.1669 89.135 96.8069 89.135C96.1229 89.135 95.5439 88.919 95.0699 88.487C94.5959 88.055 94.3589 87.506 94.3589 86.84C94.3589 86.156 94.5839 85.574 95.0339 85.094C95.4899 84.608 96.0419 84.365 96.6899 84.365C97.4099 84.365 97.9739 84.584 98.3819 85.022C98.7899 85.454 98.9939 85.988 98.9939 86.624ZM98.2019 86.255C98.1419 85.907 97.9799 85.622 97.7159 85.4C97.4579 85.172 97.1159 85.058 96.6899 85.058C96.3299 85.058 96.0149 85.169 95.7449 85.391C95.4749 85.607 95.2949 85.895 95.2049 86.255H98.2019ZM102.072 88.433C102.54 88.433 102.933 88.271 103.251 87.947C103.569 87.617 103.728 87.218 103.728 86.75C103.728 86.294 103.569 85.901 103.251 85.571C102.933 85.241 102.54 85.076 102.072 85.076C101.604 85.076 101.208 85.241 100.884 85.571C100.566 85.901 100.407 86.294 100.407 86.75C100.407 87.218 100.566 87.617 100.884 87.947C101.202 88.271 101.598 88.433 102.072 88.433ZM103.827 88.451C103.371 88.907 102.786 89.135 102.072 89.135C101.358 89.135 100.77 88.907 100.308 88.451C99.8516 87.989 99.6236 87.422 99.6236 86.75C99.6236 86.084 99.8516 85.52 100.308 85.058C100.77 84.596 101.358 84.365 102.072 84.365C102.786 84.365 103.371 84.596 103.827 85.058C104.283 85.52 104.511 86.084 104.511 86.75C104.511 87.422 104.283 87.989 103.827 88.451ZM105.377 86.741V85.994H107.888V86.741H105.377ZM109.88 84.5V87.893C111.422 85.823 112.265 84.692 112.409 84.5H113.237V89H112.427V85.625L109.907 89H109.079V84.5H109.88ZM117.805 84.5V85.238H115.294V89H114.493V84.5H117.805ZM120.885 89.135C120.249 89.135 119.73 88.895 119.328 88.415V90.836H118.527V84.5H119.328V85.094C119.736 84.62 120.264 84.383 120.912 84.383C121.554 84.383 122.085 84.614 122.505 85.076C122.931 85.538 123.144 86.096 123.144 86.75C123.144 87.416 122.928 87.98 122.496 88.442C122.07 88.904 121.533 89.135 120.885 89.135ZM120.651 85.103C120.105 85.103 119.664 85.325 119.328 85.769V87.74C119.658 88.184 120.099 88.406 120.651 88.406C121.107 88.406 121.494 88.244 121.812 87.92C122.13 87.596 122.289 87.206 122.289 86.75C122.289 86.3 122.127 85.913 121.803 85.589C121.485 85.265 121.101 85.103 120.651 85.103ZM123.839 90.332L124.181 87.983H125.234L124.424 90.332H123.839ZM16.978 98.211H14.431V102H13.63V97.5H17.788V102H16.978V98.211ZM21.1771 101.433C21.6451 101.433 22.0381 101.271 22.3561 100.947C22.6741 100.617 22.8331 100.218 22.8331 99.75C22.8331 99.294 22.6741 98.901 22.3561 98.571C22.0381 98.241 21.6451 98.076 21.1771 98.076C20.7091 98.076 20.3131 98.241 19.9891 98.571C19.6711 98.901 19.5121 99.294 19.5121 99.75C19.5121 100.218 19.6711 100.617 19.9891 100.947C20.3071 101.271 20.7031 101.433 21.1771 101.433ZM22.9321 101.451C22.4761 101.907 21.8911 102.135 21.1771 102.135C20.4631 102.135 19.8751 101.907 19.4131 101.451C18.9571 100.989 18.7291 100.422 18.7291 99.75C18.7291 99.084 18.9571 98.52 19.4131 98.058C19.8751 97.596 20.4631 97.365 21.1771 97.365C21.8911 97.365 22.4761 97.596 22.9321 98.058C23.3881 98.52 23.6161 99.084 23.6161 99.75C23.6161 100.422 23.3881 100.989 22.9321 101.451ZM23.7511 102V101.343H24.0571C24.3391 101.343 24.5341 101.199 24.6421 100.911C24.7501 100.623 24.8041 100.095 24.8041 99.327V97.5H28.3591V102H27.5491V98.211H25.6051V99.534C25.6051 101.178 25.1191 102 24.1471 102H23.7511ZM33.7663 97.5C33.4663 98.202 33.0133 99.258 32.4073 100.668C31.8013 102.072 31.3483 103.128 31.0483 103.836H30.2023L30.9763 101.991L29.0683 97.5H29.9683C30.6043 99.048 31.0843 100.209 31.4083 100.983L32.8843 97.5H33.7663ZM34.1627 98.976V97.5H34.9637V98.877C34.9637 99.177 35.0537 99.399 35.2337 99.543C35.4197 99.687 35.6657 99.759 35.9717 99.759C36.3317 99.759 36.7307 99.714 37.1687 99.624V97.5H37.9697V102H37.1687V100.335C36.6647 100.419 36.2357 100.461 35.8817 100.461C35.3477 100.461 34.9277 100.338 34.6217 100.092C34.3157 99.84 34.1627 99.468 34.1627 98.976ZM40.4205 102.135C39.9525 102.135 39.5805 102.021 39.3045 101.793C39.0345 101.565 38.8995 101.253 38.8995 100.857C38.8995 100.659 38.9325 100.485 38.9985 100.335C39.0645 100.179 39.1485 100.05 39.2505 99.948C39.3525 99.846 39.4905 99.759 39.6645 99.687C39.8445 99.615 40.0125 99.558 40.1685 99.516C40.3305 99.474 40.5345 99.444 40.7805 99.426C41.0325 99.402 41.2455 99.387 41.4195 99.381C41.5995 99.375 41.8275 99.369 42.1035 99.363V98.994C42.1035 98.346 41.7435 98.022 41.0235 98.022C40.4895 98.022 40.0095 98.211 39.5835 98.589L39.1425 98.094C39.6765 97.608 40.3275 97.365 41.0955 97.365C41.4615 97.365 41.7705 97.413 42.0225 97.509C42.2805 97.605 42.4695 97.737 42.5895 97.905C42.7095 98.067 42.7935 98.229 42.8415 98.391C42.8895 98.553 42.9135 98.727 42.9135 98.913V102H42.1035V101.208C41.6115 101.826 41.0505 102.135 40.4205 102.135ZM40.6185 101.514C41.1825 101.514 41.6775 101.193 42.1035 100.551V99.885C41.5275 99.885 41.0475 99.918 40.6635 99.984C40.5435 100.002 40.4235 100.035 40.3035 100.083C40.1835 100.131 40.0605 100.221 39.9345 100.353C39.8145 100.479 39.7545 100.629 39.7545 100.803C39.7545 101.049 39.8415 101.229 40.0155 101.343C40.1955 101.457 40.3965 101.514 40.6185 101.514ZM44.9571 95.907C45.3351 96.087 45.7401 96.177 46.1721 96.177C46.6041 96.177 47.0031 96.087 47.3691 95.907L47.6571 96.447C47.2191 96.663 46.7241 96.771 46.1721 96.771C45.6141 96.771 45.1161 96.663 44.6781 96.447C44.7441 96.327 44.8371 96.147 44.9571 95.907ZM44.8941 97.5V100.893C45.0381 100.701 45.8811 99.57 47.4231 97.5H48.2511V102H47.4411V98.625L44.9211 102H44.0841V97.5H44.8941ZM55.906 96.15C55.648 96.21 55.357 96.273 55.033 96.339C54.715 96.405 54.457 96.456 54.259 96.492C54.067 96.528 53.854 96.576 53.62 96.636C53.392 96.696 53.212 96.759 53.08 96.825C52.948 96.891 52.81 96.978 52.666 97.086C52.528 97.194 52.42 97.32 52.342 97.464C52.27 97.608 52.207 97.785 52.153 97.995C52.099 98.205 52.066 98.448 52.054 98.724C52.216 98.352 52.471 98.067 52.819 97.869C53.167 97.671 53.542 97.572 53.944 97.572C54.592 97.572 55.135 97.773 55.573 98.175C56.017 98.571 56.239 99.111 56.239 99.795C56.239 100.473 56.023 101.034 55.591 101.478C55.165 101.916 54.589 102.135 53.863 102.135C53.083 102.135 52.483 101.889 52.063 101.397C51.649 100.905 51.442 100.203 51.442 99.291C51.442 98.901 51.454 98.559 51.478 98.265C51.508 97.971 51.559 97.713 51.631 97.491C51.709 97.263 51.787 97.074 51.865 96.924C51.943 96.768 52.06 96.63 52.216 96.51C52.378 96.384 52.528 96.288 52.666 96.222C52.804 96.15 52.999 96.078 53.251 96.006C53.509 95.934 53.74 95.877 53.944 95.835C54.148 95.787 54.427 95.724 54.781 95.646C55.141 95.562 55.462 95.484 55.744 95.412C55.846 95.868 55.9 96.114 55.906 96.15ZM53.854 101.442C54.31 101.442 54.685 101.289 54.979 100.983C55.273 100.671 55.42 100.287 55.42 99.831C55.42 99.339 55.264 98.952 54.952 98.67C54.646 98.382 54.28 98.238 53.854 98.238C53.428 98.238 53.062 98.382 52.756 98.67C52.45 98.952 52.297 99.339 52.297 99.831C52.297 100.287 52.441 100.671 52.729 100.983C53.017 101.289 53.392 101.442 53.854 101.442ZM58.3678 102.135C57.8998 102.135 57.5278 102.021 57.2518 101.793C56.9818 101.565 56.8468 101.253 56.8468 100.857C56.8468 100.659 56.8798 100.485 56.9458 100.335C57.0118 100.179 57.0958 100.05 57.1978 99.948C57.2998 99.846 57.4378 99.759 57.6118 99.687C57.7918 99.615 57.9598 99.558 58.1158 99.516C58.2778 99.474 58.4818 99.444 58.7278 99.426C58.9798 99.402 59.1928 99.387 59.3668 99.381C59.5468 99.375 59.7748 99.369 60.0508 99.363V98.994C60.0508 98.346 59.6908 98.022 58.9708 98.022C58.4368 98.022 57.9568 98.211 57.5308 98.589L57.0898 98.094C57.6238 97.608 58.2748 97.365 59.0428 97.365C59.4088 97.365 59.7178 97.413 59.9698 97.509C60.2278 97.605 60.4168 97.737 60.5368 97.905C60.6568 98.067 60.7408 98.229 60.7888 98.391C60.8368 98.553 60.8608 98.727 60.8608 98.913V102H60.0508V101.208C59.5588 101.826 58.9978 102.135 58.3678 102.135ZM58.5658 101.514C59.1298 101.514 59.6248 101.193 60.0508 100.551V99.885C59.4748 99.885 58.9948 99.918 58.6108 99.984C58.4908 100.002 58.3708 100.035 58.2508 100.083C58.1308 100.131 58.0078 100.221 57.8818 100.353C57.7618 100.479 57.7018 100.629 57.7018 100.803C57.7018 101.049 57.7888 101.229 57.9628 101.343C58.1428 101.457 58.3438 101.514 58.5658 101.514ZM61.4914 102V101.343H61.7974C62.0794 101.343 62.2744 101.199 62.3824 100.911C62.4904 100.623 62.5444 100.095 62.5444 99.327V97.5H66.0994V102H65.2894V98.211H63.3454V99.534C63.3454 101.178 62.8594 102 61.8874 102H61.4914ZM66.8175 102V101.343H67.1235C67.4055 101.343 67.6005 101.199 67.7085 100.911C67.8165 100.623 67.8705 100.095 67.8705 99.327V97.5H71.4255V102H70.6155V98.211H68.6715V99.534C68.6715 101.178 68.1855 102 67.2135 102H66.8175ZM73.4847 99.111H74.8617C75.3297 99.111 75.7047 99.255 75.9867 99.543C76.2687 99.825 76.4097 100.164 76.4097 100.56C76.4097 100.95 76.2687 101.289 75.9867 101.577C75.7107 101.859 75.3357 102 74.8617 102H72.6837V97.5H73.4847V99.111ZM73.4847 101.343H74.7897C75.0177 101.343 75.2067 101.274 75.3567 101.136C75.5127 100.992 75.5907 100.8 75.5907 100.56C75.5907 100.32 75.5127 100.128 75.3567 99.984C75.2067 99.84 75.0177 99.768 74.7897 99.768H73.4847V101.343ZM76.9947 102V97.5H77.8047V102H76.9947Z" fill="#04005E"/>
<path d="M19.783 31H17.893V17.665H13.21V16.006H24.445V17.665H19.783V31ZM30.763 19.534C32.149 19.534 33.262 20.017 34.102 20.983C34.956 21.949 35.383 23.405 35.383 25.351C35.383 27.269 34.956 28.725 34.102 29.719C33.262 30.713 32.142 31.21 30.742 31.21C29.874 31.21 29.153 31.049 28.579 30.727C28.019 30.391 27.578 30.006 27.256 29.572H27.13C27.158 29.81 27.186 30.111 27.214 30.475C27.242 30.839 27.256 31.154 27.256 31.42V36.04H25.408V19.744H26.92L27.172 21.277H27.256C27.592 20.787 28.033 20.374 28.579 20.038C29.125 19.702 29.853 19.534 30.763 19.534ZM30.427 21.088C29.279 21.088 28.467 21.41 27.991 22.054C27.529 22.698 27.284 23.678 27.256 24.994V25.351C27.256 26.737 27.48 27.808 27.928 28.564C28.39 29.306 29.237 29.677 30.469 29.677C31.155 29.677 31.715 29.488 32.149 29.11C32.597 28.732 32.926 28.221 33.136 27.577C33.36 26.919 33.472 26.17 33.472 25.33C33.472 24.042 33.22 23.013 32.716 22.243C32.226 21.473 31.463 21.088 30.427 21.088ZM38.328 31V19.744H40.176V24.364H43.095C44.551 24.364 45.629 24.63 46.329 25.162C47.029 25.694 47.379 26.492 47.379 27.556C47.379 28.606 47.036 29.446 46.35 30.076C45.664 30.692 44.551 31 43.011 31H38.328ZM49.248 31V19.744H51.096V31H49.248ZM42.843 29.509C43.641 29.509 44.292 29.376 44.796 29.11C45.3 28.83 45.552 28.347 45.552 27.661C45.552 26.975 45.321 26.513 44.859 26.275C44.397 26.023 43.732 25.897 42.864 25.897H40.176V29.509H42.843ZM56.5207 19.744V24.427H62.6317V19.744H64.4797V31H62.6317V25.981H56.5207V31H54.6727V19.744H56.5207ZM73.2308 24.364C76.1568 24.364 77.6198 25.428 77.6198 27.556C77.6198 28.606 77.2628 29.446 76.5488 30.076C75.8348 30.692 74.7008 31 73.1468 31H68.0438V19.744H69.8918V24.364H73.2308ZM75.7718 27.661C75.7718 26.975 75.5268 26.513 75.0368 26.275C74.5608 26.023 73.8888 25.897 73.0208 25.897H69.8918V29.509H73.0628C73.8468 29.509 74.4908 29.369 74.9948 29.089C75.5128 28.809 75.7718 28.333 75.7718 27.661ZM79.7565 24.406H87.0855V25.792H79.7565V24.406ZM97.6751 21.298H94.0001V31H92.1731V21.298H88.5401V19.744H97.6751V21.298ZM105.247 19.534C106.633 19.534 107.746 20.017 108.586 20.983C109.44 21.949 109.867 23.405 109.867 25.351C109.867 27.269 109.44 28.725 108.586 29.719C107.746 30.713 106.626 31.21 105.226 31.21C104.358 31.21 103.637 31.049 103.063 30.727C102.503 30.391 102.062 30.006 101.74 29.572H101.614C101.642 29.81 101.67 30.111 101.698 30.475C101.726 30.839 101.74 31.154 101.74 31.42V36.04H99.8924V19.744H101.404L101.656 21.277H101.74C102.076 20.787 102.517 20.374 103.063 20.038C103.609 19.702 104.337 19.534 105.247 19.534ZM104.911 21.088C103.763 21.088 102.951 21.41 102.475 22.054C102.013 22.698 101.768 23.678 101.74 24.994V25.351C101.74 26.737 101.964 27.808 102.412 28.564C102.874 29.306 103.721 29.677 104.953 29.677C105.639 29.677 106.199 29.488 106.633 29.11C107.081 28.732 107.41 28.221 107.62 27.577C107.844 26.919 107.956 26.17 107.956 25.33C107.956 24.042 107.704 23.013 107.2 22.243C106.71 21.473 105.947 21.088 104.911 21.088ZM112.812 31V19.744H114.66V24.364H117.579C119.035 24.364 120.113 24.63 120.813 25.162C121.513 25.694 121.863 26.492 121.863 27.556C121.863 28.606 121.52 29.446 120.834 30.076C120.148 30.692 119.035 31 117.495 31H112.812ZM123.732 31V19.744H125.58V31H123.732ZM117.327 29.509C118.125 29.509 118.776 29.376 119.28 29.11C119.784 28.83 120.036 28.347 120.036 27.661C120.036 26.975 119.805 26.513 119.343 26.275C118.881 26.023 118.216 25.897 117.348 25.897H114.66V29.509H117.327ZM131.005 19.744V24.427H137.116V19.744H138.964V31H137.116V25.981H131.005V31H129.157V19.744H131.005ZM147.715 24.364C150.641 24.364 152.104 25.428 152.104 27.556C152.104 28.606 151.747 29.446 151.033 30.076C150.319 30.692 149.185 31 147.631 31H142.528V19.744H144.376V24.364H147.715ZM150.256 27.661C150.256 26.975 150.011 26.513 149.521 26.275C149.045 26.023 148.373 25.897 147.505 25.897H144.376V29.509H147.547C148.331 29.509 148.975 29.369 149.479 29.089C149.997 28.809 150.256 28.333 150.256 27.661Z" fill="#04005E"/>
</g>
<defs>
<clipPath id="clip0">
<rect width="334" height="473" fill="white"/>
</clipPath>
</defs>
</svg>
