<svg width="473" height="334" viewBox="0 0 473 334" fill="none" xmlns="http://www.w3.org/2000/svg">
<g clip-path="url(#clip0)">
<rect width="473" height="334" fill="#F5F6FF"/>
<path d="M36.12 31.46C36.12 32.14 35.92 32.7733 35.52 33.36C35.1333 33.9333 34.6267 34.3733 34 34.68C34.7867 34.9733 35.4267 35.44 35.92 36.08C36.4133 36.72 36.66 37.44 36.66 38.24C36.66 39.2933 36.2667 40.1867 35.48 40.92C34.7067 41.64 33.7333 42 32.56 42H26.6V28H31.82C33.0333 28 34.0533 28.32 34.88 28.96C35.7067 29.5867 36.12 30.42 36.12 31.46ZM28.6 40.36H32.16C32.8533 40.36 33.44 40.1333 33.92 39.68C34.4133 39.2133 34.66 38.64 34.66 37.96C34.66 37.2933 34.4133 36.7333 33.92 36.28C33.44 35.8133 32.8533 35.58 32.16 35.58H28.6V40.36ZM34.2 31.8C34.2 31.2133 33.9733 30.7133 33.52 30.3C33.0667 29.8733 32.5333 29.66 31.92 29.66H28.6V34H31.92C32.5333 34 33.0667 33.7867 33.52 33.36C33.9733 32.92 34.2 32.4 34.2 31.8ZM39.9986 37C39.9986 38.04 40.3319 38.9067 40.9986 39.6C41.6653 40.28 42.5119 40.62 43.5386 40.62C44.5919 40.62 45.5586 40.24 46.4386 39.48C46.4786 39.5333 46.6186 39.72 46.8586 40.04C47.1119 40.3467 47.2986 40.5867 47.4186 40.76C46.3519 41.7867 45.0386 42.3 43.4786 42.3C42.0119 42.3 40.7719 41.7733 39.7586 40.72C38.7586 39.6667 38.2586 38.4267 38.2586 37C38.2586 35.5867 38.7586 34.3533 39.7586 33.3C40.7719 32.2333 42.0119 31.7 43.4786 31.7C45.0253 31.7 46.3386 32.22 47.4186 33.26C47.2986 33.4333 47.1119 33.68 46.8586 34C46.6186 34.3067 46.4786 34.4867 46.4386 34.54C45.5586 33.78 44.5919 33.4 43.5386 33.4C42.5386 33.4 41.6986 33.7467 41.0186 34.44C40.3386 35.1333 39.9986 35.9867 39.9986 37ZM58.5586 36.72C58.5586 36.8267 58.5453 36.9867 58.5186 37.2H50.0786C50.1586 38.2133 50.5186 39.0667 51.1586 39.76C51.7986 40.44 52.6986 40.78 53.8586 40.78C54.4186 40.78 54.9919 40.68 55.5786 40.48C56.1653 40.2667 56.6653 39.9867 57.0786 39.64L57.9186 40.78C57.4119 41.26 56.7786 41.6333 56.0186 41.9C55.2719 42.1667 54.4986 42.3 53.6986 42.3C52.1786 42.3 50.8919 41.82 49.8386 40.86C48.7853 39.9 48.2586 38.68 48.2586 37.2C48.2586 35.68 48.7586 34.3867 49.7586 33.32C50.7719 32.24 51.9986 31.7 53.4386 31.7C55.0386 31.7 56.2919 32.1867 57.1986 33.16C58.1053 34.12 58.5586 35.3067 58.5586 36.72ZM56.7986 35.9C56.6653 35.1267 56.3053 34.4933 55.7186 34C55.1453 33.4933 54.3853 33.24 53.4386 33.24C52.6386 33.24 51.9386 33.4867 51.3386 33.98C50.7386 34.46 50.3386 35.1 50.1386 35.9H56.7986ZM70.3978 40.74C71.4378 40.74 72.3111 40.38 73.0178 39.66C73.7245 38.9267 74.0778 38.04 74.0778 37C74.0778 35.9867 73.7245 35.1133 73.0178 34.38C72.3111 33.6467 71.4378 33.28 70.3978 33.28C69.3578 33.28 68.4778 33.6467 67.7578 34.38C67.0511 35.1133 66.6978 35.9867 66.6978 37C66.6978 38.04 67.0511 38.9267 67.7578 39.66C68.4645 40.38 69.3445 40.74 70.3978 40.74ZM74.2978 40.78C73.2845 41.7933 71.9845 42.3 70.3978 42.3C68.8111 42.3 67.5045 41.7933 66.4778 40.78C65.4645 39.7533 64.9578 38.4933 64.9578 37C64.9578 35.52 65.4645 34.2667 66.4778 33.24C67.5045 32.2133 68.8111 31.7 70.3978 31.7C71.9845 31.7 73.2845 32.2133 74.2978 33.24C75.3111 34.2667 75.8178 35.52 75.8178 37C75.8178 38.4933 75.3111 39.7533 74.2978 40.78ZM87.1434 29C86.5701 29.1333 85.9234 29.2733 85.2034 29.42C84.4968 29.5667 83.9234 29.68 83.4834 29.76C83.0568 29.84 82.5834 29.9467 82.0634 30.08C81.5568 30.2133 81.1568 30.3533 80.8634 30.5C80.5701 30.6467 80.2634 30.84 79.9434 31.08C79.6368 31.32 79.3968 31.6 79.2234 31.92C79.0634 32.24 78.9234 32.6333 78.8034 33.1C78.6834 33.5667 78.6101 34.1067 78.5834 34.72C78.9434 33.8933 79.5101 33.26 80.2834 32.82C81.0568 32.38 81.8901 32.16 82.7834 32.16C84.2234 32.16 85.4301 32.6067 86.4034 33.5C87.3901 34.38 87.8834 35.58 87.8834 37.1C87.8834 38.6067 87.4034 39.8533 86.4434 40.84C85.4968 41.8133 84.2168 42.3 82.6034 42.3C80.8701 42.3 79.5368 41.7533 78.6034 40.66C77.6834 39.5667 77.2234 38.0067 77.2234 35.98C77.2234 35.1133 77.2501 34.3533 77.3034 33.7C77.3701 33.0467 77.4834 32.4733 77.6434 31.98C77.8168 31.4733 77.9901 31.0533 78.1634 30.72C78.3368 30.3733 78.5968 30.0667 78.9434 29.8C79.3034 29.52 79.6368 29.3067 79.9434 29.16C80.2501 29 80.6834 28.84 81.2434 28.68C81.8168 28.52 82.3301 28.3933 82.7834 28.3C83.2368 28.1933 83.8568 28.0533 84.6434 27.88C85.4434 27.6933 86.1568 27.52 86.7834 27.36C87.0101 28.3733 87.1301 28.92 87.1434 29ZM82.5834 40.76C83.5968 40.76 84.4301 40.42 85.0834 39.74C85.7368 39.0467 86.0634 38.1933 86.0634 37.18C86.0634 36.0867 85.7168 35.2267 85.0234 34.6C84.3434 33.96 83.5301 33.64 82.5834 33.64C81.6368 33.64 80.8234 33.96 80.1434 34.6C79.4634 35.2267 79.1234 36.0867 79.1234 37.18C79.1234 38.1933 79.4434 39.0467 80.0834 39.74C80.7234 40.42 81.5568 40.76 82.5834 40.76ZM96.7542 32V39.54C100.181 34.94 102.054 32.4267 102.374 32H104.214V42H102.414V34.5L96.8142 42H94.9742V32H96.7542ZM114.365 32V33.64H108.785V42H107.005V32H114.365ZM121.21 42.3C119.797 42.3 118.644 41.7667 117.75 40.7V46.08H115.97V32H117.75V33.32C118.657 32.2667 119.83 31.74 121.27 31.74C122.697 31.74 123.877 32.2533 124.81 33.28C125.757 34.3067 126.23 35.5467 126.23 37C126.23 38.48 125.75 39.7333 124.79 40.76C123.844 41.7867 122.65 42.3 121.21 42.3ZM120.69 33.34C119.477 33.34 118.497 33.8333 117.75 34.82V39.2C118.484 40.1867 119.464 40.68 120.69 40.68C121.704 40.68 122.564 40.32 123.27 39.6C123.977 38.88 124.33 38.0133 124.33 37C124.33 36 123.97 35.14 123.25 34.42C122.544 33.7 121.69 33.34 120.69 33.34ZM130.974 42.3C129.934 42.3 129.107 42.0467 128.494 41.54C127.894 41.0333 127.594 40.34 127.594 39.46C127.594 39.02 127.667 38.6333 127.814 38.3C127.96 37.9533 128.147 37.6667 128.374 37.44C128.6 37.2133 128.907 37.02 129.294 36.86C129.694 36.7 130.067 36.5733 130.414 36.48C130.774 36.3867 131.227 36.32 131.774 36.28C132.334 36.2267 132.807 36.1933 133.194 36.18C133.594 36.1667 134.1 36.1533 134.714 36.14V35.32C134.714 33.88 133.914 33.16 132.314 33.16C131.127 33.16 130.06 33.58 129.114 34.42L128.134 33.32C129.32 32.24 130.767 31.7 132.474 31.7C133.287 31.7 133.974 31.8067 134.534 32.02C135.107 32.2333 135.527 32.5267 135.794 32.9C136.06 33.26 136.247 33.62 136.354 33.98C136.46 34.34 136.514 34.7267 136.514 35.14V42H134.714V40.24C133.62 41.6133 132.374 42.3 130.974 42.3ZM131.414 40.92C132.667 40.92 133.767 40.2067 134.714 38.78V37.3C133.434 37.3 132.367 37.3733 131.514 37.52C131.247 37.56 130.98 37.6333 130.714 37.74C130.447 37.8467 130.174 38.0467 129.894 38.34C129.627 38.62 129.494 38.9533 129.494 39.34C129.494 39.8867 129.687 40.2867 130.074 40.54C130.474 40.7933 130.92 40.92 131.414 40.92ZM146.055 42C145.935 41.8533 145.515 41.32 144.795 40.4C144.075 39.4667 143.528 38.7533 143.155 38.26L140.275 42H137.995L141.955 36.98L138.055 32H140.315L143.155 35.76L145.995 32H148.275C147.368 33.1067 146.022 34.7667 144.235 36.98L148.315 42H146.055ZM28.18 55V62.54C31.6067 57.94 33.48 55.4267 33.8 55H35.64V65H33.84V57.5L28.24 65H26.4V55H28.18ZM43.9313 65V67.82H42.2913V63.44H43.4913C43.8913 62.8667 44.2246 62.0467 44.4913 60.98C44.7579 59.9133 44.8913 58.76 44.8913 57.52V55H52.4113V63.44H53.9513V67.82H52.2113V65H43.9313ZM50.6113 63.44V56.58H46.6113V57.7C46.6113 58.82 46.4913 59.92 46.2513 61C46.0113 62.08 45.7313 62.8933 45.4113 63.44H50.6113ZM58.5517 65.3C57.5117 65.3 56.6851 65.0467 56.0717 64.54C55.4717 64.0333 55.1717 63.34 55.1717 62.46C55.1717 62.02 55.2451 61.6333 55.3917 61.3C55.5384 60.9533 55.7251 60.6667 55.9517 60.44C56.1784 60.2133 56.4851 60.02 56.8717 59.86C57.2717 59.7 57.6451 59.5733 57.9917 59.48C58.3517 59.3867 58.8051 59.32 59.3517 59.28C59.9117 59.2267 60.3851 59.1933 60.7717 59.18C61.1717 59.1667 61.6784 59.1533 62.2917 59.14V58.32C62.2917 56.88 61.4917 56.16 59.8917 56.16C58.7051 56.16 57.6384 56.58 56.6917 57.42L55.7117 56.32C56.8984 55.24 58.3451 54.7 60.0517 54.7C60.8651 54.7 61.5517 54.8067 62.1117 55.02C62.6851 55.2333 63.1051 55.5267 63.3717 55.9C63.6384 56.26 63.8251 56.62 63.9317 56.98C64.0384 57.34 64.0917 57.7267 64.0917 58.14V65H62.2917V63.24C61.1984 64.6133 59.9517 65.3 58.5517 65.3ZM58.9917 63.92C60.2451 63.92 61.3451 63.2067 62.2917 61.78V60.3C61.0117 60.3 59.9451 60.3733 59.0917 60.52C58.8251 60.56 58.5584 60.6333 58.2917 60.74C58.0251 60.8467 57.7517 61.0467 57.4717 61.34C57.2051 61.62 57.0717 61.9533 57.0717 62.34C57.0717 62.8867 57.2651 63.2867 57.6517 63.54C58.0517 63.7933 58.4984 63.92 58.9917 63.92ZM71.713 65V60.52H70.553L67.613 65H65.573C66.8396 63.1467 68.013 61.3933 69.093 59.74C68.8263 59.3533 68.3263 58.62 67.593 57.54C66.8596 56.4467 66.293 55.6 65.893 55H67.953C69.433 57.2533 70.293 58.5467 70.533 58.88H71.713V55H73.493V58.88H74.653C75.2396 58.0267 76.1063 56.7333 77.253 55H79.313C78.913 55.6 78.3463 56.4467 77.613 57.54C76.8796 58.62 76.3796 59.3533 76.113 59.74C77.193 61.3933 78.3663 63.1467 79.633 65H77.593L74.653 60.52H73.493V65H71.713ZM90.5313 59.72C90.5313 59.8267 90.5179 59.9867 90.4913 60.2H82.0513C82.1313 61.2133 82.4913 62.0667 83.1313 62.76C83.7713 63.44 84.6713 63.78 85.8313 63.78C86.3913 63.78 86.9646 63.68 87.5513 63.48C88.1379 63.2667 88.6379 62.9867 89.0513 62.64L89.8913 63.78C89.3846 64.26 88.7513 64.6333 87.9913 64.9C87.2446 65.1667 86.4713 65.3 85.6713 65.3C84.1513 65.3 82.8646 64.82 81.8113 63.86C80.7579 62.9 80.2313 61.68 80.2313 60.2C80.2313 58.68 80.7313 57.3867 81.7313 56.32C82.7446 55.24 83.9713 54.7 85.4112 54.7C87.0113 54.7 88.2646 55.1867 89.1713 56.16C90.0779 57.12 90.5313 58.3067 90.5313 59.72ZM88.7713 58.9C88.6379 58.1267 88.2779 57.4933 87.6913 57C87.1179 56.4933 86.3579 56.24 85.4112 56.24C84.6113 56.24 83.9113 56.4867 83.3113 56.98C82.7113 57.46 82.3113 58.1 82.1113 58.9H88.7713ZM106.85 52C106.277 52.1333 105.63 52.2733 104.91 52.42C104.204 52.5667 103.63 52.68 103.19 52.76C102.764 52.84 102.29 52.9467 101.77 53.08C101.264 53.2133 100.864 53.3533 100.57 53.5C100.277 53.6467 99.9705 53.84 99.6505 54.08C99.3438 54.32 99.1038 54.6 98.9305 54.92C98.7705 55.24 98.6305 55.6333 98.5105 56.1C98.3905 56.5667 98.3171 57.1067 98.2905 57.72C98.6505 56.8933 99.2171 56.26 99.9905 55.82C100.764 55.38 101.597 55.16 102.49 55.16C103.93 55.16 105.137 55.6067 106.11 56.5C107.097 57.38 107.59 58.58 107.59 60.1C107.59 61.6067 107.11 62.8533 106.15 63.84C105.204 64.8133 103.924 65.3 102.31 65.3C100.577 65.3 99.2438 64.7533 98.3105 63.66C97.3905 62.5667 96.9305 61.0067 96.9305 58.98C96.9305 58.1133 96.9571 57.3533 97.0105 56.7C97.0771 56.0467 97.1905 55.4733 97.3505 54.98C97.5238 54.4733 97.6971 54.0533 97.8705 53.72C98.0438 53.3733 98.3038 53.0667 98.6505 52.8C99.0105 52.52 99.3438 52.3067 99.6505 52.16C99.9571 52 100.39 51.84 100.95 51.68C101.524 51.52 102.037 51.3933 102.49 51.3C102.944 51.1933 103.564 51.0533 104.35 50.88C105.15 50.6933 105.864 50.52 106.49 50.36C106.717 51.3733 106.837 51.92 106.85 52ZM102.29 63.76C103.304 63.76 104.137 63.42 104.79 62.74C105.444 62.0467 105.77 61.1933 105.77 60.18C105.77 59.0867 105.424 58.2267 104.73 57.6C104.05 56.96 103.237 56.64 102.29 56.64C101.344 56.64 100.53 56.96 99.8505 57.6C99.1705 58.2267 98.8305 59.0867 98.8305 60.18C98.8305 61.1933 99.1505 62.0467 99.7905 62.74C100.43 63.42 101.264 63.76 102.29 63.76ZM114.421 63.74C115.461 63.74 116.335 63.38 117.041 62.66C117.748 61.9267 118.101 61.04 118.101 60C118.101 58.9867 117.748 58.1133 117.041 57.38C116.335 56.6467 115.461 56.28 114.421 56.28C113.381 56.28 112.501 56.6467 111.781 57.38C111.075 58.1133 110.721 58.9867 110.721 60C110.721 61.04 111.075 61.9267 111.781 62.66C112.488 63.38 113.368 63.74 114.421 63.74ZM118.321 63.78C117.308 64.7933 116.008 65.3 114.421 65.3C112.835 65.3 111.528 64.7933 110.501 63.78C109.488 62.7533 108.981 61.4933 108.981 60C108.981 58.52 109.488 57.2667 110.501 56.24C111.528 55.2133 112.835 54.7 114.421 54.7C116.008 54.7 117.308 55.2133 118.321 56.24C119.335 57.2667 119.841 58.52 119.841 60C119.841 61.4933 119.335 62.7533 118.321 63.78ZM120.141 65V63.54H120.821C121.448 63.54 121.881 63.22 122.121 62.58C122.361 61.94 122.481 60.7667 122.481 59.06V55H130.381V65H128.581V56.58H124.261V59.52C124.261 63.1733 123.181 65 121.021 65H120.141ZM134.957 58.58H138.017C139.057 58.58 139.891 58.9 140.517 59.54C141.144 60.1667 141.457 60.92 141.457 61.8C141.457 62.6667 141.144 63.42 140.517 64.06C139.904 64.6867 139.071 65 138.017 65H133.177V55H134.957V58.58ZM134.957 63.54H137.857C138.364 63.54 138.784 63.3867 139.117 63.08C139.464 62.76 139.637 62.3333 139.637 61.8C139.637 61.2667 139.464 60.84 139.117 60.52C138.784 60.2 138.364 60.04 137.857 60.04H134.957V63.54ZM145.231 63.44H149.631V55H151.431V63.44H155.831V55H157.631V65H143.451V55H145.231V63.44ZM170.023 59.72C170.023 59.8267 170.01 59.9867 169.983 60.2H161.543C161.623 61.2133 161.983 62.0667 162.623 62.76C163.263 63.44 164.163 63.78 165.323 63.78C165.883 63.78 166.457 63.68 167.043 63.48C167.63 63.2667 168.13 62.9867 168.543 62.64L169.383 63.78C168.877 64.26 168.243 64.6333 167.483 64.9C166.737 65.1667 165.963 65.3 165.163 65.3C163.643 65.3 162.357 64.82 161.303 63.86C160.25 62.9 159.723 61.68 159.723 60.2C159.723 58.68 160.223 57.3867 161.223 56.32C162.237 55.24 163.463 54.7 164.903 54.7C166.503 54.7 167.757 55.1867 168.663 56.16C169.57 57.12 170.023 58.3067 170.023 59.72ZM168.263 58.9C168.13 58.1267 167.77 57.4933 167.183 57C166.61 56.4933 165.85 56.24 164.903 56.24C164.103 56.24 163.403 56.4867 162.803 56.98C162.203 57.46 161.803 58.1 161.603 58.9H168.263Z" fill="#04005E"/>
<path d="M371.667 5.83334C371.667 -39.362 335.029 -76 289.833 -76C244.638 -76 208 -39.362 208 5.83334C208 51.0286 244.638 87.6667 289.833 87.6667C355.257 94.6764 371.52 141.653 371.712 166.756C371.682 167.667 371.667 168.582 371.667 169.5C364.657 234.924 317.68 251.187 292.577 251.378C291.666 251.348 290.751 251.333 289.833 251.333C244.638 251.333 208 287.971 208 333.167C208 378.362 244.638 415 289.833 415C335.029 415 371.667 378.362 371.667 333.167C371.667 331.997 371.642 330.833 371.594 329.675C371.143 266.65 419.012 251.212 447.93 251.147C449.771 251.27 451.628 251.333 453.5 251.333C454.67 251.333 455.834 251.309 456.991 251.26C520.017 250.809 535.455 298.679 535.52 327.597C535.396 329.437 535.333 331.295 535.333 333.167C535.333 378.362 571.971 415 617.167 415C662.362 415 699 378.362 699 333.167C699 287.971 662.362 251.333 617.167 251.333C551.743 244.324 535.48 197.347 535.288 172.244C535.318 171.333 535.333 170.418 535.333 169.5C542.343 104.076 589.32 87.8131 614.423 87.6216C615.334 87.6516 616.249 87.6667 617.167 87.6667C662.362 87.6667 699 51.0286 699 5.83334C699 -39.362 662.362 -76 617.167 -76C571.971 -76 535.333 -39.362 535.333 5.83334C535.333 7.00301 535.358 8.16696 535.406 9.32469C535.857 72.3502 487.988 87.7881 459.07 87.8532C457.229 87.7295 455.372 87.6667 453.5 87.6667C452.33 87.6667 451.166 87.6912 450.009 87.7398C386.983 88.1907 371.545 40.321 371.48 11.4031C371.604 9.56249 371.667 7.70525 371.667 5.83334Z" fill="#04005E"/>
<path d="M52.8997 295.213H49.9796C49.5814 295.213 49.2574 295.55 49.2574 295.963C49.2574 296.35 48.9472 296.73 48.5197 296.73C48.1214 296.73 47.7974 297.068 47.7974 297.481V303.685C47.7974 304.098 48.1214 304.436 48.5197 304.436C48.9178 304.436 49.2419 304.098 49.2419 303.685V297.475C49.2419 297.118 49.489 296.708 49.9796 296.708H52.8997C53.2981 296.708 53.6219 296.37 53.6219 295.957C53.6219 295.55 53.2978 295.213 52.8997 295.213Z" fill="#04005E" stroke="#04005E" stroke-width="0.4"/>
<path d="M62.6645 302.021V302.022C62.6698 302.415 62.3567 302.801 61.9254 302.801H56.031C55.685 302.801 55.2862 302.545 55.2862 302.033V297.475V297.475V297.475V297.474V297.474V297.474V297.474V297.474V297.474V297.474V297.474V297.474V297.473V297.473V297.473V297.473V297.473V297.473V297.473V297.473V297.473V297.473V297.472V297.472V297.472V297.472V297.472V297.472V297.472V297.472V297.472V297.471V297.471V297.471V297.471V297.471V297.471V297.471V297.471V297.471V297.47V297.47V297.47V297.47V297.47V297.47V297.47V297.47V297.47V297.469V297.469V297.469V297.469V297.469C55.2862 297.112 55.5354 296.701 56.031 296.701H61.9198C62.2949 296.701 62.6645 297.023 62.6645 297.469V302.021ZM63.399 296.729C63.0529 296.729 62.6541 296.473 62.6541 295.961C62.6541 295.547 62.327 295.21 61.9254 295.21H56.031C55.6293 295.21 55.3023 295.547 55.3023 295.961C55.3023 296.348 54.9893 296.729 54.5575 296.729C54.1557 296.729 53.8287 297.067 53.8287 297.481V302.033C53.8287 302.447 54.1557 302.784 54.5575 302.784C54.9326 302.784 55.3023 303.107 55.3023 303.553C55.3023 303.967 55.6293 304.304 56.031 304.304H61.9198C62.3214 304.304 62.6485 303.967 62.6485 303.553C62.6485 303.196 62.8977 302.784 63.3933 302.784C63.795 302.784 64.122 302.447 64.122 302.033V297.475C64.122 297.061 63.8007 296.729 63.399 296.729Z" fill="#04005E" stroke="#04005E" stroke-width="0.4"/>
<path d="M45.5779 296.729C45.2348 296.729 44.8393 296.473 44.8393 295.961C44.8393 295.547 44.5151 295.21 44.1167 295.21H38.2776C37.8794 295.21 37.555 295.547 37.555 295.961C37.555 296.348 37.2446 296.729 36.8164 296.729C36.4181 296.729 36.0938 297.067 36.0938 297.481V302.033C36.0938 302.447 36.4181 302.784 36.8164 302.784C37.1883 302.784 37.555 303.107 37.555 303.553C37.555 303.967 37.8794 304.304 38.2776 304.304H44.1167C44.5151 304.304 44.8393 303.967 44.8393 303.553C44.8393 303.196 45.0865 302.784 45.5779 302.784C45.9762 302.784 46.3005 302.447 46.3005 302.033V297.475C46.3005 297.06 45.9756 296.729 45.5779 296.729ZM44.1167 302.801H38.2776C37.9344 302.801 37.539 302.545 37.539 302.033V297.475V297.475V297.475V297.474V297.474V297.474V297.474V297.474V297.474V297.474V297.474V297.474V297.473V297.473V297.473V297.473V297.473V297.473V297.473V297.473V297.473V297.473V297.472V297.472V297.472V297.472V297.472V297.472V297.472V297.472V297.472V297.471V297.471V297.471V297.471V297.471V297.471V297.471V297.471V297.471V297.47V297.47V297.47V297.47V297.47V297.47V297.47V297.47V297.47V297.469V297.469V297.469V297.469V297.469C37.539 297.112 37.7862 296.701 38.2776 296.701H44.1167C44.4886 296.701 44.8554 297.023 44.8554 297.469V302.021C44.8554 302.415 44.5443 302.801 44.1167 302.801Z" fill="#04005E" stroke="#04005E" stroke-width="0.4"/>
<path d="M80.2945 294.375V294.315H80.2866C80.2572 293.926 79.9425 293.618 79.5603 293.618C79.2148 293.618 78.8163 293.36 78.8163 292.845C78.8163 292.429 78.4894 292.089 78.0878 292.089H67.7909C67.3894 292.089 67.0625 292.429 67.0625 292.845C67.0625 293.235 66.7498 293.618 66.3184 293.618C65.9169 293.618 65.5898 293.958 65.5898 294.375V302.017C65.5898 302.434 65.9169 302.774 66.3184 302.774C66.6931 302.774 67.0625 303.098 67.0625 303.547C67.0625 303.963 67.3894 304.303 67.7909 304.303H78.0934C78.495 304.303 78.8219 303.963 78.8219 303.547V303.547V303.546V303.546V303.546V303.546V303.546V303.546V303.546V303.546V303.546V303.545V303.545V303.545V303.545V303.545V303.545V303.545V303.545V303.545V303.544V303.544V303.544V303.544V303.544V303.544V303.544V303.544V303.544V303.544V303.543V303.543V303.543V303.543V303.543V303.543V303.543V303.543V303.543V303.542V303.542V303.542V303.542V303.542V303.542V303.542V303.542V303.542V303.541V303.541V303.541V303.541V303.541V303.541V303.541C78.8219 303.181 79.0709 302.768 79.5661 302.768H79.8333C80.0869 302.768 80.2945 302.552 80.2945 302.289V301.739V301.739V301.739V301.739V301.739V301.739V301.739V301.739V301.739V301.738V301.738V301.738V301.738V301.738V301.738V301.738V301.738V301.738V301.737V301.737V301.737V301.737V301.737V301.737V301.737V301.737V301.737V301.736V301.736V301.736V301.736V301.736V301.736V301.736V301.736V301.736V301.735V301.735V301.735V301.735V301.735V301.735V301.735V301.735V301.735V301.734V301.734V301.734V301.734V301.734V301.734V301.734V301.734V301.734V301.734V301.733V301.733V301.733V301.733V301.733V301.733V301.733V301.733V301.733V301.732V301.732V301.732V301.732V301.732V301.732V301.732V301.732V301.732V301.731V301.731V301.731V301.731V301.731V301.731V301.731V301.731V301.731V301.73V301.73V301.73V301.73V301.73V301.73V301.73V301.73V301.73V301.729V301.729V301.729V301.729V301.729V301.729V301.729V301.729V301.729V301.728V301.728V301.728V301.728V301.728V301.728V301.728V301.728V301.728V301.727V301.727V301.727V301.727V301.727V301.727V301.727V301.727V301.727V301.726V301.726V301.726V301.726V301.726V301.726V301.726V301.726V301.726V301.725V301.725V301.725V301.725V301.725V301.725V301.725V301.725V301.725V301.724V301.724V301.724V301.724V301.724V301.724V301.724V301.724V301.724V301.723V301.723V301.723V301.723V301.723V301.723V301.723V301.723V301.723V301.722V301.722V301.722V301.722V301.722V301.722V301.722V301.722V301.722V301.721V301.721V301.721V301.721V301.721V301.721V301.721V301.721V301.721V301.72V301.72V301.72V301.72V301.72V301.72V301.72V301.72V301.72V301.719V301.719V301.719V301.719V301.719V301.719V301.719V301.719V301.719V301.718V301.718V301.718V301.718V301.718V301.718V301.718V301.718V301.718V301.717V301.717V301.717V301.717V301.717V301.717V301.717V301.717V301.717V301.716V301.716V301.716V301.716V301.716V301.716V301.716V301.716V301.716V301.716V301.715V301.715V301.715V301.715V301.715V301.715V301.715V301.715V301.715V301.714V301.714V301.714V301.714V301.714V301.714V301.714V301.714V301.714V301.713V301.713V301.713V301.713V301.713V301.713V301.713V301.713V301.713V301.712V301.712V301.712V301.712V301.712V301.712V301.712V301.712V301.712V301.711V301.711V301.711V301.711V301.711V301.711V301.711V301.711V301.711V301.71V301.71V301.71V301.71V301.71V301.71V301.71V301.71V301.71V301.709V301.709V301.709V301.709V301.709V301.709V301.709V301.709V301.709V301.708V301.708V301.708V301.708V301.708V301.708V301.708V301.708V301.708V301.707V301.707V301.707V301.707V301.707V301.707V301.707V301.707V301.707V301.706V301.706V301.706V301.706V301.706V301.706V301.706V301.706V301.706V301.705V301.705V301.705V301.705V301.705V301.705V301.705V301.705V301.705V301.704V301.704V301.704V301.704V301.704V294.375ZM67.7909 302.784H67.7334V302.788C67.4025 302.761 67.0469 302.503 67.0469 302.017V294.375V294.375V294.375V294.375V294.375V294.374V294.374V294.374V294.374V294.374V294.374V294.374V294.374V294.374V294.373V294.373V294.373V294.373V294.373V294.373V294.373V294.373V294.373V294.372V294.372V294.372V294.372V294.372V294.372V294.372V294.372V294.372V294.371V294.371V294.371V294.371V294.371V294.371V294.371V294.371V294.371V294.37V294.37V294.37V294.37V294.37V294.37V294.37V294.37V294.37V294.369V294.369V294.369V294.369V294.369C67.0469 294.01 67.2959 293.596 67.7909 293.596H78.0934C78.4634 293.596 78.8376 293.915 78.8376 294.363V294.369V302.011V302.017C78.8376 302.4 78.5252 302.784 78.0934 302.784H67.7909Z" fill="#04005E" stroke="#04005E" stroke-width="0.4"/>
<path d="M91.5067 296.744C91.1595 296.744 90.761 296.484 90.761 295.969C90.761 295.55 90.4334 295.21 90.0329 295.21H84.1433C83.7428 295.21 83.4152 295.55 83.4152 295.969C83.4152 296.359 83.1026 296.744 82.6694 296.744C82.269 296.744 81.9414 297.084 81.9414 297.503V303.634C81.9414 304.053 82.269 304.393 82.6694 304.393C83.07 304.393 83.3975 304.053 83.3975 303.634V297.497V297.492C83.403 297.137 83.6524 296.721 84.1433 296.721H90.0329C90.4092 296.721 90.7787 297.048 90.7787 297.497V303.634C90.7787 304.053 91.1062 304.393 91.5067 304.393C91.9072 304.393 92.2347 304.053 92.2347 303.634V297.497C92.2347 297.078 91.9065 296.744 91.5067 296.744Z" fill="#04005E" stroke="#04005E" stroke-width="0.4"/>
<path d="M20.5587 293.54H20.5578C20.1626 293.546 19.8359 293.888 19.8359 294.308V302.002C19.8359 302.421 20.1629 302.763 20.5644 302.763C20.9048 302.763 21.3031 303.018 21.3085 303.53V303.53V303.531V303.531V303.531V303.531V303.532V303.532V303.532V303.532V303.532V303.533V303.533V303.533V303.533V303.534V303.534V303.534V303.534V303.534V303.535V303.535V303.535V303.535V303.536V303.536V303.536V303.536V303.536V303.537V303.537V303.537V303.537V303.538V303.538V303.538V303.538V303.538V303.539V303.539V303.539V303.539V303.54V303.54V303.54V303.54V303.54V303.541V303.541V303.541V303.541V303.542V303.542C21.3085 303.961 21.6355 304.303 22.037 304.303H32.3396C32.7409 304.303 33.068 303.961 33.068 303.542C33.068 303.18 33.3171 302.763 33.812 302.763C34.2136 302.763 34.5406 302.421 34.5406 302.002C34.5406 301.582 34.2136 301.24 33.812 301.24C33.4107 301.24 33.0837 301.582 33.0837 302.002V302.007C33.0782 302.394 32.7704 302.78 32.3396 302.78H22.037C21.6623 302.78 21.2929 302.453 21.2929 302.002V294.308V294.307V294.307V294.307V294.307V294.307V294.306V294.306V294.306V294.306V294.305V294.305V294.305V294.305V294.305V294.304V294.304V294.304V294.304V294.303V294.303V294.303V294.303V294.303V294.302V294.302V294.302C21.2929 293.94 21.5419 293.523 22.037 293.523H32.3396C32.6852 293.523 33.0835 293.784 33.0837 294.301C33.0777 294.728 33.4056 295.063 33.8064 295.063C34.2079 295.063 34.535 294.721 34.535 294.302C34.535 293.882 34.2079 293.54 33.8064 293.54C33.4317 293.54 33.0623 293.213 33.0623 292.762C33.0623 292.342 32.7353 292 32.3339 292H22.0314C21.6299 292 21.3028 292.342 21.3028 292.762C21.3028 293.154 20.9902 293.54 20.5587 293.54Z" fill="#04005E" stroke="#04005E" stroke-width="0.4"/>
<path d="M95.323 295.21H95.2666V295.269V296.577V296.636H95.323H102.39H102.446V296.577V295.269V295.21H102.39H95.323Z" fill="#04005E" stroke="#04005E" stroke-width="0.4"/>
<path d="M103.939 299.665H103.996V299.605V296.785V296.726H103.939H102.601H102.544V296.785V298.087H95.1555V296.895V296.836H95.0982H93.7603H93.7031V296.895V302.729V302.788H93.7603H95.0982H95.1555V302.729V299.665H102.601H103.267H103.939Z" fill="#04005E" stroke="#04005E" stroke-width="0.4"/>
<path d="M95.2294 302.877H95.1719V302.938V304.332V304.393H95.2294H102.467H102.524V304.332V302.938V302.877H102.467H95.2294Z" fill="#04005E" stroke="#04005E" stroke-width="0.4"/>
<path d="M103.997 301.422V301.361H103.942H102.669H102.613V301.422V302.009V302.009V302.009V302.009V302.009V302.009V302.01V302.01V302.01V302.01V302.01V302.01V302.01V302.01V302.011V302.011V302.011V302.011V302.011V302.011V302.011V302.012V302.012V302.012V302.012V302.012V302.012V302.012V302.012V302.013V302.013V302.013V302.013V302.013V302.013V302.013V302.013V302.014V302.014V302.014V302.014V302.014V302.014V302.014V302.014V302.015V302.015V302.015V302.015V302.015V302.015V302.015V302.015V302.016V302.016V302.016V302.016V302.016V302.016V302.016V302.016V302.017V302.017V302.017V302.017V302.017V302.017V302.017V302.017V302.018V302.018V302.018V302.018V302.018V302.018V302.018V302.018V302.019V302.019V302.019V302.019V302.019V302.019V302.019V302.02V302.02V302.02V302.02V302.02V302.02V302.02V302.02V302.021V302.021V302.021V302.021V302.021V302.021V302.021V302.021V302.022V302.022V302.022V302.022V302.022V302.022V302.022V302.022V302.022V302.023V302.023V302.023V302.023V302.023V302.023V302.023V302.023V302.024V302.024V302.024V302.024V302.024V302.024V302.024V302.024V302.025V302.025V302.025V302.025V302.025V302.025V302.025V302.025V302.026V302.026V302.026V302.026V302.026V302.026V302.026V302.026V302.027V302.027V302.027V302.027V302.027V302.027V302.027V302.027V302.028V302.028V302.028V302.028V302.028V302.028V302.028V302.028V302.029V302.029V302.029V302.029V302.728V302.788H102.669H103.303H103.942H103.997V302.728V301.422Z" fill="#04005E" stroke="#04005E" stroke-width="0.4"/>
<path d="M20.6017 308L21.8719 309.992L23.1421 308H23.6881V311.917H23.1644V308.823L21.9945 310.658H21.7493L20.585 308.823V311.917H20.0557V308H20.6017ZM27.1952 310.44C27.1952 310.47 27.1916 310.514 27.1841 310.574H24.8331C24.8554 310.858 24.9556 311.096 25.1339 311.29C25.3122 311.481 25.5629 311.576 25.886 311.576C26.042 311.576 26.2017 311.548 26.3651 311.492C26.5286 311.432 26.6679 311.354 26.783 311.257L27.0169 311.576C26.8758 311.71 26.6994 311.815 26.4877 311.889C26.2797 311.964 26.0643 312.001 25.8414 312.001C25.418 312.001 25.0597 311.867 24.7662 311.598C24.4729 311.33 24.3261 310.988 24.3261 310.574C24.3261 310.149 24.4654 309.787 24.7439 309.489C25.0262 309.186 25.3679 309.035 25.769 309.035C26.2147 309.035 26.5639 309.171 26.8164 309.444C27.069 309.712 27.1952 310.044 27.1952 310.44ZM26.705 310.21C26.6679 309.994 26.5676 309.817 26.4041 309.679C26.2445 309.537 26.0328 309.466 25.769 309.466C25.5462 309.466 25.3512 309.535 25.184 309.673C25.0169 309.808 24.9055 309.987 24.8498 310.21H26.705ZM27.7506 311.917V312.706H27.2938V311.481H27.6281C27.7395 311.32 27.8324 311.091 27.9066 310.792C27.9809 310.494 28.018 310.171 28.018 309.824V309.119H30.1128V311.481H30.5418V312.706H30.0571V311.917H27.7506ZM29.6114 311.481V309.561H28.4972V309.875C28.4972 310.188 28.4637 310.496 28.3969 310.798C28.33 311.1 28.252 311.328 28.1629 311.481H29.6114ZM31.5837 309.119V311.229C32.5383 309.942 33.06 309.239 33.1492 309.119H33.6617V311.917H33.1603V309.819L31.6004 311.917H31.0878V309.119H31.5837ZM35.1746 312.001C34.8849 312.001 34.6547 311.93 34.4838 311.788C34.3166 311.647 34.2331 311.453 34.2331 311.207C34.2331 311.083 34.2535 310.975 34.2943 310.882C34.3353 310.785 34.3872 310.705 34.4503 310.641C34.5135 310.578 34.5989 310.524 34.7066 310.479C34.818 310.434 34.9221 310.399 35.0186 310.373C35.1189 310.347 35.2452 310.328 35.3974 310.317C35.5534 310.302 35.6853 310.293 35.793 310.289C35.9044 310.285 36.0456 310.281 36.2164 310.278V310.048C36.2164 309.645 35.9935 309.444 35.5479 309.444C35.2173 309.444 34.9202 309.561 34.6565 309.796L34.3835 309.489C34.7141 309.186 35.1171 309.035 35.5924 309.035C35.819 309.035 36.0103 309.065 36.1662 309.125C36.326 309.185 36.443 309.267 36.5172 309.371C36.5916 309.472 36.6435 309.572 36.6732 309.673C36.703 309.774 36.7178 309.882 36.7178 309.998V311.917H36.2164V311.425C35.9119 311.809 35.5646 312.001 35.1746 312.001ZM35.2972 311.615C35.6463 311.615 35.9527 311.415 36.2164 311.016V310.602C35.8598 310.602 35.5627 310.623 35.325 310.664C35.2508 310.675 35.1765 310.695 35.1022 310.725C35.0279 310.755 34.9517 310.811 34.8737 310.893C34.7995 310.971 34.7623 311.065 34.7623 311.173C34.7623 311.326 34.8162 311.438 34.9239 311.509C35.0353 311.58 35.1598 311.615 35.2972 311.615ZM37.3923 310.513V310.048H38.9467V310.513H37.3923ZM39.9737 310.518C39.9737 310.809 40.0665 311.052 40.2522 311.246C40.4379 311.436 40.6737 311.531 40.9598 311.531C41.2531 311.531 41.5225 311.425 41.7676 311.212C41.7787 311.227 41.8177 311.279 41.8846 311.369C41.9551 311.455 42.0072 311.522 42.0406 311.57C41.7434 311.857 41.3776 312.001 40.9431 312.001C40.5344 312.001 40.189 311.854 39.9068 311.559C39.6283 311.264 39.489 310.917 39.489 310.518C39.489 310.123 39.6283 309.778 39.9068 309.483C40.189 309.185 40.5344 309.035 40.9431 309.035C41.3739 309.035 41.7397 309.181 42.0406 309.472C42.0072 309.52 41.9551 309.589 41.8846 309.679C41.8177 309.765 41.7787 309.815 41.7676 309.83C41.5225 309.617 41.2531 309.511 40.9598 309.511C40.6812 309.511 40.4472 309.608 40.2578 309.802C40.0684 309.996 39.9737 310.235 39.9737 310.518ZM45.1437 310.44C45.1437 310.47 45.1399 310.514 45.1326 310.574H42.7815C42.8038 310.858 42.9041 311.096 43.0824 311.29C43.2607 311.481 43.5114 311.576 43.8345 311.576C43.9905 311.576 44.1501 311.548 44.3136 311.492C44.477 311.432 44.6163 311.354 44.7314 311.257L44.9654 311.576C44.8242 311.71 44.6479 311.815 44.4362 311.889C44.2281 311.964 44.0128 312.001 43.7899 312.001C43.3665 312.001 43.008 311.867 42.7147 311.598C42.4212 311.33 42.2746 310.988 42.2746 310.574C42.2746 310.149 42.4138 309.787 42.6924 309.489C42.9746 309.186 43.3164 309.035 43.7175 309.035C44.1632 309.035 44.5122 309.171 44.7649 309.444C45.0174 309.712 45.1437 310.044 45.1437 310.44ZM44.6534 310.21C44.6163 309.994 44.516 309.817 44.3526 309.679C44.1929 309.537 43.9812 309.466 43.7175 309.466C43.4946 309.466 43.2997 309.535 43.1325 309.673C42.9654 309.808 42.854 309.987 42.7983 310.21H44.6534ZM47.1881 312.001C46.7944 312.001 46.4731 311.852 46.2243 311.553V312.974H45.7285V309.119H46.2243V309.489C46.4768 309.194 46.8037 309.046 47.2048 309.046C47.6022 309.046 47.9309 309.19 48.1909 309.477C48.4546 309.765 48.5864 310.112 48.5864 310.518C48.5864 310.932 48.4527 311.283 48.1853 311.57C47.9216 311.857 47.5892 312.001 47.1881 312.001ZM47.0432 309.494C46.7052 309.494 46.4322 309.632 46.2243 309.908V311.134C46.4285 311.41 46.7015 311.548 47.0432 311.548C47.3254 311.548 47.565 311.447 47.7619 311.246C47.9587 311.044 48.0572 310.802 48.0572 310.518C48.0572 310.238 47.9569 309.998 47.7563 309.796C47.5594 309.595 47.3218 309.494 47.0432 309.494ZM51.4119 309.802C51.4119 309.929 51.3766 310.05 51.306 310.166C51.2354 310.281 51.1407 310.375 51.0219 310.445C51.1779 310.505 51.3004 310.598 51.3896 310.725C51.4825 310.852 51.5289 310.994 51.5289 311.151C51.5289 311.363 51.4527 311.544 51.3004 311.693C51.1518 311.843 50.9569 311.917 50.7155 311.917H49.1723V309.119H50.6486C50.8715 309.119 51.0535 309.186 51.1946 309.321C51.3394 309.451 51.4119 309.612 51.4119 309.802ZM49.6681 311.548H50.5428C50.6802 311.548 50.7935 311.509 50.8826 311.43C50.9717 311.348 51.0163 311.242 51.0163 311.111C51.0163 310.977 50.9717 310.869 50.8826 310.787C50.7935 310.701 50.6802 310.658 50.5428 310.658H49.6681V311.548ZM50.9383 309.875C50.9383 309.759 50.8938 309.668 50.8046 309.6C50.7192 309.53 50.6152 309.494 50.4926 309.494H49.6681V310.3H50.4926C50.6152 310.3 50.7192 310.259 50.8046 310.177C50.8938 310.095 50.9383 309.994 50.9383 309.875ZM52.6387 309.119V311.229C53.5932 309.942 54.115 309.239 54.2042 309.119H54.7167V311.917H54.2153V309.819L52.6554 311.917H52.1429V309.119H52.6387ZM55.7839 310.518C55.7839 310.809 55.8768 311.052 56.0625 311.246C56.2481 311.436 56.4841 311.531 56.77 311.531C57.0635 311.531 57.3327 311.425 57.5778 311.212C57.589 311.227 57.628 311.279 57.6948 311.369C57.7654 311.455 57.8174 311.522 57.8508 311.57C57.5537 311.857 57.1878 312.001 56.7533 312.001C56.3448 312.001 55.9994 311.854 55.7171 311.559C55.4385 311.264 55.2992 310.917 55.2992 310.518C55.2992 310.123 55.4385 309.778 55.7171 309.483C55.9994 309.185 56.3448 309.035 56.7533 309.035C57.1841 309.035 57.55 309.181 57.8508 309.472C57.8174 309.52 57.7654 309.589 57.6948 309.679C57.628 309.765 57.589 309.815 57.5778 309.83C57.3327 309.617 57.0635 309.511 56.77 309.511C56.4915 309.511 56.2575 309.608 56.0681 309.802C55.8786 309.996 55.7839 310.235 55.7839 310.518ZM59.9207 311.917V312.706H59.4639V311.481H59.7981C59.9096 311.32 60.0023 311.091 60.0767 310.792C60.1509 310.494 60.1881 310.171 60.1881 309.824V309.119H62.2829V311.481H62.7118V312.706H62.2271V311.917H59.9207ZM61.7815 311.481V309.561H60.6672V309.875C60.6672 310.188 60.6338 310.496 60.5669 310.798C60.5001 311.1 60.4221 311.328 60.333 311.481H61.7815ZM62.9236 311.917V311.509H63.1131C63.2876 311.509 63.4083 311.419 63.4752 311.24C63.542 311.061 63.5755 310.733 63.5755 310.255V309.119H65.7761V311.917H65.2747V309.561H64.0713V310.384C64.0713 311.406 63.7705 311.917 63.1688 311.917H62.9236ZM68.1203 310.921H67.6022L66.9393 311.917H66.3599C66.709 311.417 66.9486 311.072 67.0785 310.882C66.8557 310.845 66.6792 310.744 66.5493 310.58C66.423 310.416 66.3599 310.229 66.3599 310.02C66.3599 309.778 66.4452 309.567 66.6161 309.388C66.787 309.209 67.0191 309.119 67.3125 309.119H68.6217V311.917H68.1203V310.921ZM68.1203 309.533H67.3515C67.2141 309.533 67.0971 309.578 67.0005 309.668C66.9077 309.753 66.8613 309.871 66.8613 310.02C66.8613 310.169 66.9077 310.289 67.0005 310.378C67.0971 310.468 67.2141 310.513 67.3515 310.513H68.1203V309.533ZM72.8378 309.119V309.578H71.2834V311.917H70.7876V309.119H72.8378ZM75.7903 310.44C75.7903 310.47 75.7866 310.514 75.7791 310.574H73.4281C73.4504 310.858 73.5507 311.096 73.729 311.29C73.9072 311.481 74.1579 311.576 74.4811 311.576C74.6371 311.576 74.7968 311.548 74.9602 311.492C75.1237 311.432 75.263 311.354 75.378 311.257L75.612 311.576C75.4709 311.71 75.2945 311.815 75.0828 311.889C74.8748 311.964 74.6593 312.001 74.4365 312.001C74.0131 312.001 73.6547 311.867 73.3613 311.598C73.0679 311.33 72.9212 310.988 72.9212 310.574C72.9212 310.149 73.0604 309.787 73.339 309.489C73.6213 309.186 73.963 309.035 74.3641 309.035C74.8098 309.035 75.1589 309.171 75.4114 309.444C75.6641 309.712 75.7903 310.044 75.7903 310.44ZM75.3 310.21C75.263 309.994 75.1627 309.817 74.9992 309.679C74.8395 309.537 74.6278 309.466 74.3641 309.466C74.1412 309.466 73.9462 309.535 73.7791 309.673C73.612 309.808 73.5005 309.987 73.4448 310.21H75.3ZM76.9154 308.129C77.1494 308.241 77.4001 308.297 77.6675 308.297C77.935 308.297 78.182 308.241 78.4085 308.129L78.5868 308.464C78.3157 308.599 78.0093 308.666 77.6675 308.666C77.3221 308.666 77.0139 308.599 76.7427 308.464C76.7837 308.39 76.8412 308.278 76.9154 308.129ZM76.8764 309.119V311.229C76.9656 311.11 77.4874 310.406 78.4419 309.119H78.9545V311.917H78.4531V309.819L76.8932 311.917H76.375V309.119H76.8764ZM81.2361 310.557C81.3624 310.371 81.5444 310.104 81.782 309.757C82.0198 309.41 82.1646 309.198 82.2166 309.119H82.7458V311.917H82.25V309.83C82.1609 309.957 82.0662 310.093 81.9659 310.238C81.8656 310.384 81.7542 310.546 81.6316 310.725C81.5091 310.904 81.4143 311.042 81.3475 311.139H81.1246L80.2277 309.83V311.917H79.7319V309.119H80.2611L81.2361 310.557ZM86.1981 310.44C86.1981 310.47 86.1944 310.514 86.187 310.574H83.836C83.8582 310.858 83.9585 311.096 84.1368 311.29C84.3151 311.481 84.5658 311.576 84.8889 311.576C85.0449 311.576 85.2046 311.548 85.368 311.492C85.5314 311.432 85.6707 311.354 85.7859 311.257L86.0198 311.576C85.8787 311.71 85.7023 311.815 85.4906 311.889C85.2826 311.964 85.0672 312.001 84.8443 312.001C84.4209 312.001 84.0626 311.867 83.7691 311.598C83.4757 311.33 83.329 310.988 83.329 310.574C83.329 310.149 83.4683 309.787 83.7468 309.489C84.0291 309.186 84.3708 309.035 84.7719 309.035C85.2176 309.035 85.5668 309.171 85.8193 309.444C86.0718 309.712 86.1981 310.044 86.1981 310.44ZM85.7079 310.21C85.6707 309.994 85.5704 309.817 85.407 309.679C85.2473 309.537 85.0356 309.466 84.7719 309.466C84.5491 309.466 84.3541 309.535 84.187 309.673C84.0198 309.808 83.9084 309.987 83.8527 310.21H85.7079ZM88.2425 312.001C87.8488 312.001 87.5276 311.852 87.2787 311.553V313.059H86.7829V309.119H87.2787V309.489C87.5312 309.194 87.8581 309.046 88.2592 309.046C88.6566 309.046 88.9853 309.19 89.2453 309.477C89.509 309.765 89.6409 310.112 89.6409 310.518C89.6409 310.932 89.5072 311.283 89.2397 311.57C88.9761 311.857 88.6436 312.001 88.2425 312.001ZM88.0977 309.494C87.7597 309.494 87.4867 309.632 87.2787 309.908V311.134C87.483 311.41 87.756 311.548 88.0977 311.548C88.38 311.548 88.6195 311.447 88.8163 311.246C89.0132 311.044 89.1116 310.802 89.1116 310.518C89.1116 310.238 89.0113 309.998 88.8108 309.796C88.614 309.595 88.3762 309.494 88.0977 309.494ZM91.5471 311.565C91.8368 311.565 92.0801 311.464 92.2769 311.262C92.4738 311.057 92.5721 310.809 92.5721 310.518C92.5721 310.235 92.4738 309.99 92.2769 309.785C92.0801 309.58 91.8368 309.477 91.5471 309.477C91.2574 309.477 91.0122 309.58 90.8117 309.785C90.6149 309.99 90.5164 310.235 90.5164 310.518C90.5164 310.809 90.6149 311.057 90.8117 311.262C91.0086 311.464 91.2537 311.565 91.5471 311.565ZM92.6334 311.576C92.3512 311.859 91.9891 312.001 91.5471 312.001C91.1051 312.001 90.7412 311.859 90.4551 311.576C90.1729 311.289 90.0317 310.936 90.0317 310.518C90.0317 310.104 90.1729 309.753 90.4551 309.466C90.7412 309.179 91.1051 309.035 91.5471 309.035C91.9891 309.035 92.3512 309.179 92.6334 309.466C92.9157 309.753 93.0568 310.104 93.0568 310.518C93.0568 310.936 92.9157 311.289 92.6334 311.576ZM95.883 309.802C95.883 309.929 95.8478 310.05 95.7772 310.166C95.7066 310.281 95.6118 310.375 95.493 310.445C95.649 310.505 95.7716 310.598 95.8607 310.725C95.9536 310.852 96 310.994 96 311.151C96 311.363 95.9238 311.544 95.7716 311.693C95.623 311.843 95.428 311.917 95.1866 311.917H93.6434V309.119H95.1198C95.3426 309.119 95.5246 309.186 95.6657 309.321C95.8106 309.451 95.883 309.612 95.883 309.802ZM94.1392 311.548H95.0139C95.1514 311.548 95.2646 311.509 95.3537 311.43C95.4429 311.348 95.4874 311.242 95.4874 311.111C95.4874 310.977 95.4429 310.869 95.3537 310.787C95.2646 310.701 95.1514 310.658 95.0139 310.658H94.1392V311.548ZM95.4095 309.875C95.4095 309.759 95.3649 309.668 95.2757 309.6C95.1904 309.53 95.0863 309.494 94.9638 309.494H94.1392V310.3H94.9638C95.0863 310.3 95.1904 310.259 95.2757 310.177C95.3649 310.095 95.4095 309.994 95.4095 309.875ZM20.4958 315.06V317.17C21.4503 315.883 21.9722 315.18 22.0613 315.06H22.5739V317.858H22.0725V315.76L20.5125 317.858H20V315.06H20.4958ZM25.24 315.06V317.17C26.1946 315.883 26.7163 315.18 26.8055 315.06H27.318V317.858H26.8166V315.76L25.2567 317.858H24.7441V315.06H25.24ZM30.1569 316.638H28.5914V317.858H28.0956V315.06H28.5914V316.185H30.1569V315.06H30.6583V317.858H30.1569V316.638ZM31.5753 317.858V318.647H31.1185V317.422H31.4527C31.5642 317.261 31.6571 317.032 31.7313 316.734C31.8057 316.435 31.8427 316.112 31.8427 315.766V315.06H33.9375V317.422H34.3665V318.647H33.8818V317.858H31.5753ZM33.4361 317.422V315.502H32.3218V315.816C32.3218 316.129 32.2884 316.437 32.2216 316.739C32.1547 317.041 32.0767 317.269 31.9876 317.422H33.4361ZM35.4084 315.06V317.17C36.363 315.883 36.8847 315.18 36.9739 315.06H37.4864V317.858H36.985V315.76L35.4251 317.858H34.9125V315.06H35.4084ZM38.2139 316.454V315.989H39.7682V316.454H38.2139ZM41.9652 317.942C41.5714 317.942 41.2501 317.793 41.0013 317.495V319H40.5055V315.06H41.0013V315.43C41.2539 315.135 41.5807 314.988 41.9819 314.988C42.3792 314.988 42.7079 315.131 42.968 315.419C43.2316 315.706 43.3635 316.053 43.3635 316.459C43.3635 316.874 43.2298 317.224 42.9624 317.511C42.6986 317.799 42.3663 317.942 41.9652 317.942ZM41.8203 315.435C41.4823 315.435 41.2093 315.573 41.0013 315.849V317.075C41.2056 317.351 41.4785 317.489 41.8203 317.489C42.1025 317.489 42.3421 317.388 42.539 317.187C42.7358 316.985 42.8342 316.743 42.8342 316.459C42.8342 316.18 42.734 315.939 42.5334 315.738C42.3365 315.536 42.0989 315.435 41.8203 315.435ZM44.6847 317.942C44.395 317.942 44.1648 317.871 43.9939 317.73C43.8268 317.588 43.7432 317.394 43.7432 317.148C43.7432 317.025 43.7637 316.916 43.8045 316.823C43.8453 316.726 43.8974 316.646 43.9605 316.583C44.0236 316.519 44.1091 316.465 44.2167 316.42C44.3282 316.375 44.4322 316.34 44.5287 316.314C44.629 316.288 44.7553 316.269 44.9076 316.258C45.0636 316.243 45.1954 316.234 45.3031 316.23C45.4145 316.226 45.5556 316.223 45.7265 316.219V315.989C45.7265 315.586 45.5037 315.385 45.058 315.385C44.7275 315.385 44.4303 315.502 44.1666 315.738L43.8936 315.43C44.2241 315.128 44.6272 314.976 45.1026 314.976C45.3292 314.976 45.5204 315.006 45.6764 315.066C45.8361 315.126 45.9531 315.208 46.0274 315.312C46.1016 315.413 46.1537 315.514 46.1834 315.614C46.213 315.715 46.2279 315.823 46.2279 315.939V317.858H45.7265V317.366C45.4219 317.75 45.0747 317.942 44.6847 317.942ZM44.8073 317.556C45.1565 317.556 45.4629 317.357 45.7265 316.957V316.543C45.37 316.543 45.0729 316.564 44.8351 316.605C44.7609 316.616 44.6865 316.637 44.6123 316.666C44.5381 316.696 44.4619 316.752 44.3839 316.834C44.3096 316.913 44.2725 317.006 44.2725 317.114C44.2725 317.267 44.3264 317.379 44.434 317.45C44.5454 317.521 44.6698 317.556 44.8073 317.556ZM47.504 316.241H47.9386C48.076 316.241 48.1949 316.196 48.2951 316.107C48.3954 316.017 48.4456 315.913 48.4456 315.793C48.4456 315.529 48.2636 315.396 47.8996 315.396C47.5728 315.396 47.3054 315.506 47.0973 315.726C47.0788 315.704 47.0398 315.657 46.9804 315.586C46.921 315.512 46.8764 315.454 46.8466 315.413C47.1141 315.122 47.4762 314.976 47.933 314.976C48.2636 314.976 48.5106 315.047 48.674 315.189C48.8411 315.331 48.9247 315.504 48.9247 315.71C48.9247 315.855 48.8801 315.991 48.791 316.118C48.7018 316.241 48.5812 316.336 48.4288 316.403C48.6035 316.459 48.739 316.553 48.8355 316.683C48.9358 316.81 48.986 316.952 48.986 317.109C48.986 317.34 48.8932 317.538 48.7074 317.702C48.5255 317.862 48.2414 317.942 47.855 317.942C47.4019 317.942 47.0269 317.799 46.7297 317.511L46.9804 317.204C47.233 317.428 47.5171 317.539 47.8327 317.539C48.0408 317.539 48.1986 317.495 48.3063 317.405C48.4177 317.316 48.4734 317.202 48.4734 317.064C48.4734 316.929 48.4233 316.819 48.323 316.734C48.2265 316.644 48.1001 316.599 47.9442 316.599H47.504V316.241ZM51.0563 317.942C50.6626 317.942 50.3414 317.793 50.0925 317.495V319H49.5966V315.06H50.0925V315.43C50.345 315.135 50.6719 314.988 51.073 314.988C51.4704 314.988 51.7991 315.131 52.0591 315.419C52.3228 315.706 52.4546 316.053 52.4546 316.459C52.4546 316.874 52.3209 317.224 52.0535 317.511C51.7898 317.799 51.4574 317.942 51.0563 317.942ZM50.9114 315.435C50.5734 315.435 50.3004 315.573 50.0925 315.849V317.075C50.2968 317.351 50.5698 317.489 50.9114 317.489C51.1937 317.489 51.4333 317.388 51.6301 317.187C51.8269 316.985 51.9254 316.743 51.9254 316.459C51.9254 316.18 51.8251 315.939 51.6245 315.738C51.4277 315.536 51.19 315.435 50.9114 315.435ZM53.776 317.942C53.4863 317.942 53.2559 317.871 53.0851 317.73C52.918 317.588 52.8344 317.394 52.8344 317.148C52.8344 317.025 52.8548 316.916 52.8957 316.823C52.9365 316.726 52.9885 316.646 53.0517 316.583C53.1148 316.519 53.2002 316.465 53.308 316.42C53.4194 316.375 53.5233 316.34 53.62 316.314C53.7202 316.288 53.8465 316.269 53.9988 316.258C54.1548 316.243 54.2866 316.234 54.3944 316.23C54.5058 316.226 54.6469 316.223 54.8178 316.219V315.989C54.8178 315.586 54.5949 315.385 54.1492 315.385C53.8186 315.385 53.5215 315.502 53.2578 315.738L52.9849 315.43C53.3154 315.128 53.7183 314.976 54.1938 314.976C54.4203 314.976 54.6116 315.006 54.7676 315.066C54.9273 315.126 55.0443 315.208 55.1186 315.312C55.1928 315.413 55.2448 315.514 55.2746 315.614C55.3043 315.715 55.3192 315.823 55.3192 315.939V317.858H54.8178V317.366C54.5132 317.75 54.1659 317.942 53.776 317.942ZM53.8985 317.556C54.2476 317.556 54.554 317.357 54.8178 316.957V316.543C54.4612 316.543 54.164 316.564 53.9264 316.605C53.852 316.616 53.7778 316.637 53.7035 316.666C53.6292 316.696 53.5531 316.752 53.4751 316.834C53.4008 316.913 53.3637 317.006 53.3637 317.114C53.3637 317.267 53.4175 317.379 53.5253 317.45C53.6367 317.521 53.7611 317.556 53.8985 317.556ZM58.612 314.221C58.4523 314.258 58.2722 314.298 58.0716 314.339C57.8747 314.38 57.7151 314.411 57.5925 314.434C57.4736 314.456 57.3418 314.486 57.197 314.523C57.0557 314.561 56.9443 314.6 56.8627 314.641C56.7809 314.682 56.6955 314.736 56.6064 314.803C56.5209 314.87 56.4541 314.948 56.4059 315.038C56.3613 315.128 56.3223 315.238 56.2889 315.368C56.2554 315.499 56.235 315.65 56.2276 315.821C56.3279 315.59 56.4857 315.413 56.7011 315.29C56.9165 315.167 57.1486 315.105 57.3975 315.105C57.7986 315.105 58.1347 315.23 58.4059 315.48C58.6807 315.726 58.8181 316.062 58.8181 316.487C58.8181 316.909 58.6844 317.258 58.417 317.534C58.1533 317.806 57.7967 317.942 57.3474 317.942C56.8645 317.942 56.4931 317.789 56.2332 317.483C55.9769 317.178 55.8487 316.741 55.8487 316.174C55.8487 315.932 55.8561 315.719 55.871 315.536C55.8896 315.353 55.9212 315.193 55.9657 315.055C56.0139 314.913 56.0623 314.796 56.1106 314.702C56.1588 314.605 56.2312 314.519 56.3279 314.445C56.4281 314.367 56.5209 314.307 56.6064 314.266C56.6918 314.221 56.8125 314.176 56.9685 314.131C57.1282 314.087 57.2712 314.051 57.3975 314.025C57.5237 313.995 57.6964 313.956 57.9156 313.908C58.1385 313.855 58.3371 313.807 58.5117 313.762C58.5748 314.046 58.6083 314.199 58.612 314.221ZM57.3418 317.511C57.624 317.511 57.8562 317.416 58.0382 317.226C58.2201 317.032 58.3112 316.793 58.3112 316.51C58.3112 316.204 58.2145 315.963 58.0215 315.788C57.8321 315.609 57.6055 315.519 57.3418 315.519C57.078 315.519 56.8515 315.609 56.6621 315.788C56.4727 315.963 56.378 316.204 56.378 316.51C56.378 316.793 56.4671 317.032 56.6454 317.226C56.8237 317.416 57.0557 317.511 57.3418 317.511ZM60.7209 317.506C61.0106 317.506 61.2538 317.405 61.4507 317.204C61.6475 316.998 61.746 316.75 61.746 316.459C61.746 316.176 61.6475 315.932 61.4507 315.726C61.2538 315.521 61.0106 315.419 60.7209 315.419C60.4312 315.419 60.1861 315.521 59.9855 315.726C59.7886 315.932 59.6902 316.176 59.6902 316.459C59.6902 316.75 59.7886 316.998 59.9855 317.204C60.1823 317.405 60.4275 317.506 60.7209 317.506ZM61.8073 317.517C61.525 317.801 61.1628 317.942 60.7209 317.942C60.2789 317.942 59.9149 317.801 59.629 317.517C59.3467 317.23 59.2056 316.877 59.2056 316.459C59.2056 316.045 59.3467 315.695 59.629 315.407C59.9149 315.12 60.2789 314.976 60.7209 314.976C61.1628 314.976 61.525 315.12 61.8073 315.407C62.0895 315.695 62.2307 316.045 62.2307 316.459C62.2307 316.877 62.0895 317.23 61.8073 317.517ZM64.8811 315.06V315.519H63.8895V317.858H63.3937V315.519H62.402V315.06H64.8811ZM65.1576 315.978V315.06H65.6534V315.917C65.6534 316.103 65.7091 316.241 65.8205 316.331C65.9356 316.42 66.0879 316.465 66.2774 316.465C66.5002 316.465 66.7472 316.437 67.0183 316.381V315.06H67.5142V317.858H67.0183V316.823C66.7063 316.875 66.4407 316.901 66.2216 316.901C65.891 316.901 65.6311 316.825 65.4417 316.672C65.2523 316.515 65.1576 316.284 65.1576 315.978ZM68.7917 315.06V317.17C69.7461 315.883 70.268 315.18 70.3571 315.06H70.8697V317.858H70.3683V315.76L68.8084 317.858H68.2958V315.06H68.7917ZM73.5302 317.858L72.2154 316.398L73.4745 315.06H74.0873L72.7726 316.398L74.1431 317.858H73.5302ZM71.6472 315.06H72.143V317.858H71.6472V315.06Z" fill="#04005E"/>
</g>
<defs>
<clipPath id="clip0">
<rect width="473" height="334" fill="white"/>
</clipPath>
</defs>
</svg>
